999
dxflib 3.17.0.0
  0
SECTION
  2
HEADER
  9
$ACADVER
  1
AC1015
  9
$HANDSEED
  5
FFFF
  9
$ANGBASE
 50
0.0
  9
$ANGDIR
 70
0
  9
$ATTMODE
 70
1
  9
$AUNITS
 70
0
  9
$AUPREC
 70
0
  9
$CECOLOR
 62
256
  9
$CELTSCALE
 40
1.0
  9
$CHAMFERA
 40
0.5
  9
$CHAMFERB
 40
0.5
  9
$CHAMFERC
 40
1.0
  9
$CHAMFERD
 40
0.0
  9
$CMLJUST
 70
0
  9
$CMLSCALE
 40
1.0
  9
$DIMADEC
 70
0
  9
$DIMALT
 70
0
  9
$DIMALTD
 70
2
  9
$DIMALTF
 40
25.3999999999999986
  9
$DIMALTRND
 40
0.0
  9
$DIMALTTD
 70
2
  9
$DIMALTTZ
 70
0
  9
$DIMALTU
 70
2
  9
$DIMALTZ
 70
0
  9
$DIMAPOST
  1
^B2147483648l^B
  9
$DIMASZ
 40
0.18
  9
$DIMATFIT
 70
3
  9
$DIMAUNIT
 70
0
  9
$DIMAZIN
 70
0
  9
$DIMBLK
  1

  9
$DIMBLK1
  1

  9
$DIMBLK2
  1

  9
$DIMCEN
 40
0.09
  9
$DIMCLRD
 70
0
  9
$DIMCLRE
 70
0
  9
$DIMCLRT
 70
0
  9
$DIMDEC
 70
4
  9
$DIMDLE
 40
0.0
  9
$DIMDLI
 40
0.38
  9
$DIMDSEP
 70
46
  9
$DIMEXE
 40
0.18
  9
$DIMEXO
 40
0.0625
  9
$DIMFRAC
 70
0
  9
$DIMGAP
 40
0.09
  9
$DIMJUST
 70
0
  9
$DIMLDRBLK
  1

  9
$DIMLFAC
 40
1.0
  9
$DIMLIM
 70
0
  9
$DIMLUNIT
 70
2
  9
$DIMLWD
 70
-2
  9
$DIMLWE
 70
-2
  9
$DIMPOST
  1

  9
$DIMRND
 40
0.0
  9
$DIMSAH
 70
0
  9
$DIMSCALE
 40
5
  9
$DIMSD1
 70
0
  9
$DIMSD2
 70
0
  9
$DIMSE1
 70
0
  9
$DIMSE2
 70
0
  9
$DIMSOXD
 70
0
  9
$DIMTAD
 70
0
  9
$DIMTDEC
 70
4
  9
$DIMTFAC
 40
1.0
  9
$DIMTIH
 70
1
  9
$DIMTIX
 70
0
  9
$DIMTM
 40
0.0
  9
$DIMTOFL
 70
0
  9
$DIMTOH
 70
1
  9
$DIMTOL
 70
0
  9
$DIMTOLJ
 70
1
  9
$DIMTP
 40
0.0
  9
$DIMTSZ
 40
0.0
  9
$DIMTVP
 40
0.0
  9
$DIMTXSTY
  7
Standard
  9
$DIMTXT
 40
0.18
  9
$DIMTZIN
 70
0
  9
$DIMUPT
 70
0
  9
$DIMZIN
 70
0
  9
$DISPSILH
 70
0
  9
$DWGCODEPAGE
  3
ANSI_1252
  9
$ELEVATION
 40
0.0
  9
$EXTMAX
 10
55.000000000347967
 20
32.5000000041753765
 30
0.0
  9
$EXTMIN
 10
-55.0000000003254925
 20
-32.5
 30
0.0
  9
$FILLETRAD
 40
0.5
  9
$FILLMODE
 70
1
  9
$INSBASE
 10
0.0
 20
0.0
 30
0.0
  9
$INSUNITS
 70
0
  9
$LIMCHECK
 70
0
  9
$LIMMAX
 10
55.000000000684679
 20
32.5000000041753765
  9
$LIMMIN
 10
-54.9999999999887734
 20
-32.5
  9
$LTSCALE
 40
10.0
  9
$LUNITS
 70
2
  9
$LUPREC
 70
4
  9
$MAXACTVP
 70
64
  9
$MEASUREMENT
 70
0
  9
$MIRRTEXT
 70
1
  9
$ORTHOMODE
 70
0
  9
$PDMODE
 70
0
  9
$PDSIZE
 40
0.0
  9
$PELEVATION
 40
0.0
  9
$PEXTMAX
 10
12.0
 20
9.0
 30
0.0
  9
$PEXTMIN
 10
0.0
 20
0.0
 30
0.0
  9
$PINSBASE
 10
0.0
 20
0.0
 30
0.0
  9
$PLIMCHECK
 70
0
  9
$PLIMMAX
 10
12.0
 20
9.0
  9
$PLIMMIN
 10
0.0
 20
0.0
  9
$PLINEGEN
 70
0
  9
$PLINEWID
 40
0.0
  9
$PROXYGRAPHICS
 70
1
  9
$PSLTSCALE
 70
1
  9
$PUCSNAME
  2

  9
$PUCSORG
 10
0.0
 20
0.0
 30
0.0
  9
$PUCSXDIR
 10
1.0
 20
0.0
 30
0.0
  9
$PUCSYDIR
 10
0.0
 20
1.0
 30
0.0
  9
$QTEXTMODE
 70
0
  9
$REGENMODE
 70
1
  9
$SHADEDGE
 70
3
  9
$SHADEDIF
 70
70
  9
$SKETCHINC
 40
0.1
  9
$SKPOLY
 70
0
  9
$SPLFRAME
 70
0
  9
$SPLINESEGS
 70
8
  9
$SPLINETYPE
 70
6
  9
$SURFTAB1
 70
6
  9
$SURFTAB2
 70
6
  9
$SURFTYPE
 70
6
  9
$SURFU
 70
6
  9
$SURFV
 70
6
  9
$TEXTSIZE
 40
0.2
  9
$TEXTSTYLE
  7
Standard
  9
$THICKNESS
 40
0.0
  9
$TILEMODE
 70
1
  9
$TRACEWID
 40
0.05
  9
$TREEDEPTH
 70
3020
  9
$UCSNAME
  2

  9
$UCSORG
 10
0.0
 20
0.0
 30
0.0
  9
$UCSXDIR
 10
1.0
 20
0.0
 30
0.0
  9
$UCSYDIR
 10
0.0
 20
1.0
 30
0.0
  9
$UNITMODE
 70
0
  9
$USERI1
 70
0
  9
$USERI2
 70
0
  9
$USERI3
 70
0
  9
$USERI4
 70
0
  9
$USERI5
 70
0
  9
$USERR1
 40
0.0
  9
$USERR2
 40
0.0
  9
$USERR3
 40
0.0
  9
$USERR4
 40
0.0
  9
$USERR5
 40
0.0
  9
$USRTIMER
 70
1
  9
$VISRETAIN
 70
1
  0
ENDSEC
  0
SECTION
  2
TABLES
  0
TABLE
  2
VPORT
  5
8
100
AcDbSymbolTable
 70
1
  0
VPORT
  5
30
100
AcDbSymbolTableRecord
100
AcDbViewportTableRecord
  2
*Active
 70
0
 10
0.0
 20
0.0
 11
1.0
 21
1.0
 12
286.3055555555554861
 22
148.5
 13
0.0
 23
0.0
 14
10.0
 24
10.0
 15
10.0
 25
10.0
 16
0.0
 26
0.0
 36
1.0
 17
0.0
 27
0.0
 37
0.0
 40
297.0
 41
1.92798353909465
 42
50.0
 43
0.0
 44
0.0
 50
0.0
 51
0.0
 71
0
 72
100
 73
1
 74
3
 75
1
 76
1
 77
0
 78
0
281
0
 65
1
110
0.0
120
0.0
130
0.0
111
1.0
121
0.0
131
0.0
112
0.0
122
1.0
132
0.0
 79
0
146
0.0
  0
ENDTAB
  0
TABLE
  2
LTYPE
  5
5
100
AcDbSymbolTable
 70
49
  0
LTYPE
  5
16
100
AcDbSymbolTableRecord
100
AcDbLinetypeTableRecord
  2
Continuous
 70
0
  3
Solid line
 72
65
 73
0
 40
0.0
  0
LTYPE
  5
31
100
AcDbSymbolTableRecord
100
AcDbLinetypeTableRecord
  2
DASHEDX2
 70
0
  3
Dashed (2x) ____  ____  ____  ____  ____  ___
 72
65
 73
2
 40
38.0999999999999943
 49
25.3999999999999986
 74
0
 49
-12.6999999999999993
 74
0
  0
LTYPE
  5
32
100
AcDbSymbolTableRecord
100
AcDbLinetypeTableRecord
  2
CENTER2
 70
0
  3
Center (.5x) ___ _ ___ _ ___ _ ___ _ ___ _ ___
 72
65
 73
4
 40
28.5750000000000028
 49
19.0500000000000007
 74
0
 49
-3.1749999999999998
 74
0
 49
3.1749999999999998
 74
0
 49
-3.1749999999999998
 74
0
  0
LTYPE
  5
33
100
AcDbSymbolTableRecord
100
AcDbLinetypeTableRecord
  2
DASHDOT2
 70
0
  3
Dash dot (.5x) _._._._._._._._._._._._._._._.
 72
65
 73
4
 40
12.6999999999999993
 49
6.3499999999999996
 74
0
 49
-3.1749999999999998
 74
0
 49
0.0
 74
0
 49
-3.1749999999999998
 74
0
  0
LTYPE
  5
34
100
AcDbSymbolTableRecord
100
AcDbLinetypeTableRecord
  2
DIVIDE
 70
0
  3
DIVIDE
 72
65
 73
6
 40
1.25
 49
0.5
 74
0
 49
-0.2
 74
0
 49
0.1
 74
0
 49
-0.15
 74
0
 49
0.1
 74
0
 49
-0.2
 74
0
  0
LTYPE
  5
35
100
AcDbSymbolTableRecord
100
AcDbLinetypeTableRecord
  2
TSCENTER
 70
0
  3
TSCENTER
 72
65
 73
4
 40
1.9999999999999998
 49
1.5
 74
0
 49
-0.18
 74
0
 49
0.14
 74
0
 49
-0.18
 74
0
  0
LTYPE
  5
36
100
AcDbSymbolTableRecord
100
AcDbLinetypeTableRecord
  2
$CONSTRUCTION
 70
0
  3
$CONSTRUCTION
 72
65
 73
4
 40
0.21
 49
0.02
 74
0
 49
0.045
 74
0
 49
0.1
 74
0
 49
0.045
 74
0
  0
LTYPE
  5
15
100
AcDbSymbolTableRecord
100
AcDbLinetypeTableRecord
  2
ByLayer
 70
0
  3

 72
65
 73
0
 40
0.0
  0
LTYPE
  5
37
100
AcDbSymbolTableRecord
100
AcDbLinetypeTableRecord
  2
$SNAPEXT
 70
0
  3
$SNAPEXT
 72
65
 73
2
 40
0.004
 49
0.002
 74
0
 49
-0.002
 74
0
  0
LTYPE
  5
38
100
AcDbSymbolTableRecord
100
AcDbLinetypeTableRecord
  2
ACAD_ISO14W100
 70
0
  3
ISO dash triple-dot __ . . . __ . . . __ . . . _
 72
65
 73
8
 40
24.0
 49
12.0
 74
0
 49
-3.0
 74
0
 49
0.0
 74
0
 49
-3.0
 74
0
 49
0.0
 74
0
 49
-3.0
 74
0
 49
0.0
 74
0
 49
-3.0
 74
0
  0
LTYPE
  5
39
100
AcDbSymbolTableRecord
100
AcDbLinetypeTableRecord
  2
BORDERX2
 70
0
  3
Border (2x) ____  ____  .  ____  ____  .  ___
 72
65
 73
6
 40
88.8999999999999915
 49
25.3999999999999986
 74
0
 49
-12.6999999999999993
 74
0
 49
25.3999999999999986
 74
0
 49
-12.6999999999999993
 74
0
 49
0.0
 74
0
 49
-12.6999999999999993
 74
0
  0
LTYPE
  5
3A
100
AcDbSymbolTableRecord
100
AcDbLinetypeTableRecord
  2
ACAD_ISO05W100
 70
0
  3
ISO long-dash double-dot ____ .. ____ .. ____ . 
 72
65
 73
6
 40
33.0
 49
24.0
 74
0
 49
-3.0
 74
0
 49
0.0
 74
0
 49
-3.0
 74
0
 49
0.0
 74
0
 49
-3.0
 74
0
  0
LTYPE
  5
3B
100
AcDbSymbolTableRecord
100
AcDbLinetypeTableRecord
  2
ACAD_ISO06W100
 70
0
  3
ISO long-dash triple-dot ____ ... ____ ... ____
 72
65
 73
8
 40
36.0
 49
24.0
 74
0
 49
-3.0
 74
0
 49
0.0
 74
0
 49
-3.0
 74
0
 49
0.0
 74
0
 49
-3.0
 74
0
 49
0.0
 74
0
 49
-3.0
 74
0
  0
LTYPE
  5
3C
100
AcDbSymbolTableRecord
100
AcDbLinetypeTableRecord
  2
ACAD_ISO07W100
 70
0
  3
ISO dot . . . . . . . . . . . . . . . . . . . . 
 72
65
 73
2
 40
3.0
 49
0.0
 74
0
 49
-3.0
 74
0
  0
LTYPE
  5
3D
100
AcDbSymbolTableRecord
100
AcDbLinetypeTableRecord
  2
TSDASHDOT
 70
0
  3
TSDASHDOT
 72
65
 73
4
 40
1.2800000000000002
 49
1.0
 74
0
 49
-0.09
 74
0
 49
0.1
 74
0
 49
-0.09
 74
0
  0
LTYPE
  5
3E
100
AcDbSymbolTableRecord
100
AcDbLinetypeTableRecord
  2
PHANTOMX2
 70
0
  3
Phantom (2x) ____________    ____    ____   _
 72
65
 73
6
 40
127.0000000000000142
 49
63.5
 74
0
 49
-12.6999999999999993
 74
0
 49
12.6999999999999993
 74
0
 49
-12.6999999999999993
 74
0
 49
12.6999999999999993
 74
0
 49
-12.6999999999999993
 74
0
  0
LTYPE
  5
3F
100
AcDbSymbolTableRecord
100
AcDbLinetypeTableRecord
  2
BORDER2
 70
0
  3
Border (.5x) __.__.__.__.__.__.__.__.__.__.__.
 72
65
 73
6
 40
22.2249999999999979
 49
6.3499999999999996
 74
0
 49
-3.1749999999999998
 74
0
 49
6.3499999999999996
 74
0
 49
-3.1749999999999998
 74
0
 49
0.0
 74
0
 49
-3.1749999999999998
 74
0
  0
LTYPE
  5
40
100
AcDbSymbolTableRecord
100
AcDbLinetypeTableRecord
  2
DASHDOT
 70
0
  3
DASHDOT
 72
65
 73
4
 40
1.0
 49
0.5
 74
0
 49
-0.2
 74
0
 49
0.1
 74
0
 49
-0.2
 74
0
  0
LTYPE
  5
41
100
AcDbSymbolTableRecord
100
AcDbLinetypeTableRecord
  2
BORDER
 70
0
  3
BORDER
 72
65
 73
6
 40
1.75
 49
0.5
 74
0
 49
-0.25
 74
0
 49
0.5
 74
0
 49
-0.2
 74
0
 49
0.1
 74
0
 49
-0.2
 74
0
  0
LTYPE
  5
14
100
AcDbSymbolTableRecord
100
AcDbLinetypeTableRecord
  2
ByBlock
 70
0
  3

 72
65
 73
0
 40
0.0
  0
LTYPE
  5
42
100
AcDbSymbolTableRecord
100
AcDbLinetypeTableRecord
  2
HIDDENX2
 70
0
  3
Hidden (2x) ____ ____ ____ ____ ____ ____ ____ 
 72
65
 73
2
 40
19.0499999999999972
 49
12.6999999999999993
 74
0
 49
-6.3499999999999996
 74
0
  0
LTYPE
  5
43
100
AcDbSymbolTableRecord
100
AcDbLinetypeTableRecord
  2
DIVIDEX2
 70
0
  3
Divide (2x) ________  .  .  ________  .  .  _
 72
65
 73
6
 40
63.5
 49
25.3999999999999986
 74
0
 49
-12.6999999999999993
 74
0
 49
0.0
 74
0
 49
-12.6999999999999993
 74
0
 49
0.0
 74
0
 49
-12.6999999999999993
 74
0
  0
LTYPE
  5
44
100
AcDbSymbolTableRecord
100
AcDbLinetypeTableRecord
  2
ACAD_ISO09W100
 70
0
  3
ISO long-dash double-short-dash ____ __ __ ____
 72
65
 73
6
 40
45.0
 49
24.0
 74
0
 49
-3.0
 74
0
 49
6.0
 74
0
 49
-3.0
 74
0
 49
6.0
 74
0
 49
-3.0
 74
0
  0
LTYPE
  5
45
100
AcDbSymbolTableRecord
100
AcDbLinetypeTableRecord
  2
DOT
 70
0
  3
DOT
 72
65
 73
2
 40
0.25
 49
0.1
 74
0
 49
-0.15
 74
0
  0
LTYPE
  5
46
100
AcDbSymbolTableRecord
100
AcDbLinetypeTableRecord
  2
TSPHANTOM
 70
0
  3
TSPHANTOM
 72
65
 73
6
 40
2.4999999999999996
 49
1.6299999999999999
 74
0
 49
-0.19
 74
0
 49
0.15
 74
0
 49
-0.19
 74
0
 49
0.15
 74
0
 49
-0.19
 74
0
  0
LTYPE
  5
47
100
AcDbSymbolTableRecord
100
AcDbLinetypeTableRecord
  2
ACAD_ISO12W100
 70
0
  3
ISO dash double-dot __ . . __ . . __ . . __ . . 
 72
65
 73
6
 40
21.0
 49
12.0
 74
0
 49
-3.0
 74
0
 49
0.0
 74
0
 49
-3.0
 74
0
 49
0.0
 74
0
 49
-3.0
 74
0
  0
LTYPE
  5
48
100
AcDbSymbolTableRecord
100
AcDbLinetypeTableRecord
  2
CENTERX2
 70
0
  3
Center (2x) ________  __  ________  __  _____
 72
65
 73
4
 40
101.6000000000000085
 49
63.5
 74
0
 49
-12.6999999999999993
 74
0
 49
12.6999999999999993
 74
0
 49
-12.6999999999999993
 74
0
  0
LTYPE
  5
49
100
AcDbSymbolTableRecord
100
AcDbLinetypeTableRecord
  2
$AUXILIARY
 70
0
  3
$AUXILIARY
 72
65
 73
2
 40
0.01
 49
0.005
 74
0
 49
-0.005
 74
0
  0
LTYPE
  5
4A
100
AcDbSymbolTableRecord
100
AcDbLinetypeTableRecord
  2
DASHDOTX2
 70
0
  3
Dash dot (2x) ____  .  ____  .  ____  .  ___
 72
65
 73
4
 40
50.7999999999999972
 49
25.3999999999999986
 74
0
 49
-12.6999999999999993
 74
0
 49
0.0
 74
0
 49
-12.6999999999999993
 74
0
  0
LTYPE
  5
4B
100
AcDbSymbolTableRecord
100
AcDbLinetypeTableRecord
  2
ACAD_ISO04W100
 70
0
  3
ISO long-dash dot ____ . ____ . ____ . ____ . _
 72
65
 73
4
 40
30.0
 49
24.0
 74
0
 49
-3.0
 74
0
 49
0.0
 74
0
 49
-3.0
 74
0
  0
LTYPE
  5
4C
100
AcDbSymbolTableRecord
100
AcDbLinetypeTableRecord
  2
ACAD_ISO02W100
 70
0
  3
ISO dash __ __ __ __ __ __ __ __ __ __ __ __ __
 72
65
 73
2
 40
15.0
 49
12.0
 74
0
 49
-3.0
 74
0
  0
LTYPE
  5
4D
100
AcDbSymbolTableRecord
100
AcDbLinetypeTableRecord
  2
ACAD_ISO15W100
 70
0
  3
ISO double-dash triple-dot __ __ . . . __ __ . .
 72
65
 73
10
 40
39.0
 49
12.0
 74
0
 49
-3.0
 74
0
 49
12.0
 74
0
 49
-3.0
 74
0
 49
0.0
 74
0
 49
-3.0
 74
0
 49
0.0
 74
0
 49
-3.0
 74
0
 49
0.0
 74
0
 49
-3.0
 74
0
  0
LTYPE
  5
4E
100
AcDbSymbolTableRecord
100
AcDbLinetypeTableRecord
  2
ACAD_ISO10W100
 70
0
  3
ISO dash dot __ . __ . __ . __ . __ . __ . __ . 
 72
65
 73
4
 40
18.0
 49
12.0
 74
0
 49
-3.0
 74
0
 49
0.0
 74
0
 49
-3.0
 74
0
  0
LTYPE
  5
4F
100
AcDbSymbolTableRecord
100
AcDbLinetypeTableRecord
  2
CENTER
 70
0
  3
CENTER
 72
65
 73
4
 40
2.0
 49
1.25
 74
0
 49
-0.25
 74
0
 49
0.25
 74
0
 49
-0.25
 74
0
  0
LTYPE
  5
50
100
AcDbSymbolTableRecord
100
AcDbLinetypeTableRecord
  2
PHANTOM2
 70
0
  3
Phantom (.5x) ___ _ _ ___ _ _ ___ _ _ ___ _ _
 72
65
 73
6
 40
31.7500000000000036
 49
15.875
 74
0
 49
-3.1749999999999998
 74
0
 49
3.1749999999999998
 74
0
 49
-3.1749999999999998
 74
0
 49
3.1749999999999998
 74
0
 49
-3.1749999999999998
 74
0
  0
LTYPE
  5
51
100
AcDbSymbolTableRecord
100
AcDbLinetypeTableRecord
  2
HIDDEN
 70
0
  3
HIDDEN
 72
65
 73
2
 40
0.375
 49
0.25
 74
0
 49
-0.125
 74
0
  0
LTYPE
  5
52
100
AcDbSymbolTableRecord
100
AcDbLinetypeTableRecord
  2
DASHED
 70
0
  3
DASHED
 72
65
 73
2
 40
0.75
 49
0.5
 74
0
 49
-0.25
 74
0
  0
LTYPE
  5
53
100
AcDbSymbolTableRecord
100
AcDbLinetypeTableRecord
  2
ACAD_ISO03W100
 70
0
  3
ISO dash space __    __    __    __    __    __
 72
65
 73
2
 40
30.0
 49
12.0
 74
0
 49
-18.0
 74
0
  0
LTYPE
  5
54
100
AcDbSymbolTableRecord
100
AcDbLinetypeTableRecord
  2
DASHED2
 70
0
  3
Dashed (.5x) _ _ _ _ _ _ _ _ _ _ _ _ _ _ _ _ _ 
 72
65
 73
2
 40
9.5249999999999986
 49
6.3499999999999996
 74
0
 49
-3.1749999999999998
 74
0
  0
LTYPE
  5
55
100
AcDbSymbolTableRecord
100
AcDbLinetypeTableRecord
  2
DOTX2
 70
0
  3
Dot (2x) .  .  .  .  .  .  .  .  .  .  .  .  .  .
 72
65
 73
2
 40
12.6999999999999993
 49
0.0
 74
0
 49
-12.6999999999999993
 74
0
  0
LTYPE
  5
56
100
AcDbSymbolTableRecord
100
AcDbLinetypeTableRecord
  2
PHANTOM
 70
0
  3
PHANTOM
 72
65
 73
6
 40
2.5
 49
1.25
 74
0
 49
-0.25
 74
0
 49
0.25
 74
0
 49
-0.25
 74
0
 49
0.25
 74
0
 49
-0.25
 74
0
  0
LTYPE
  5
57
100
AcDbSymbolTableRecord
100
AcDbLinetypeTableRecord
  2
DOT2
 70
0
  3
Dot (.5x) ........................................
 72
65
 73
2
 40
3.1749999999999998
 49
0.0
 74
0
 49
-3.1749999999999998
 74
0
  0
LTYPE
  5
58
100
AcDbSymbolTableRecord
100
AcDbLinetypeTableRecord
  2
HIDDEN2
 70
0
  3
Hidden (.5x) _ _ _ _ _ _ _ _ _ _ _ _ _ _ _ _ _ 
 72
65
 73
2
 40
4.7624999999999993
 49
3.1749999999999998
 74
0
 49
-1.5874999999999999
 74
0
  0
LTYPE
  5
59
100
AcDbSymbolTableRecord
100
AcDbLinetypeTableRecord
  2
ACAD_ISO11W100
 70
0
  3
ISO double-dash dot __ __ . __ __ . __ __ . __ _
 72
65
 73
6
 40
33.0
 49
12.0
 74
0
 49
-3.0
 74
0
 49
12.0
 74
0
 49
-3.0
 74
0
 49
0.0
 74
0
 49
-3.0
 74
0
  0
LTYPE
  5
5A
100
AcDbSymbolTableRecord
100
AcDbLinetypeTableRecord
  2
ACAD_ISO08W100
 70
0
  3
ISO long-dash short-dash ____ __ ____ __ ____ _
 72
65
 73
4
 40
36.0
 49
24.0
 74
0
 49
-3.0
 74
0
 49
6.0
 74
0
 49
-3.0
 74
0
  0
LTYPE
  5
5B
100
AcDbSymbolTableRecord
100
AcDbLinetypeTableRecord
  2
ACAD_ISO13W100
 70
0
  3
ISO double-dash double-dot __ __ . . __ __ . . _
 72
65
 73
8
 40
36.0
 49
12.0
 74
0
 49
-3.0
 74
0
 49
12.0
 74
0
 49
-3.0
 74
0
 49
0.0
 74
0
 49
-3.0
 74
0
 49
0.0
 74
0
 49
-3.0
 74
0
  0
LTYPE
  5
5C
100
AcDbSymbolTableRecord
100
AcDbLinetypeTableRecord
  2
$INVISIBLE
 70
0
  3
$INVISIBLE
 72
65
 73
2
 40
20.0
 49
-10.0
 74
0
 49
-10.0
 74
0
  0
LTYPE
  5
5D
100
AcDbSymbolTableRecord
100
AcDbLinetypeTableRecord
  2
DIVIDE2
 70
0
  3
Divide (.5x) __..__..__..__..__..__..__..__.._
 72
65
 73
6
 40
15.875
 49
6.3499999999999996
 74
0
 49
-3.1749999999999998
 74
0
 49
0.0
 74
0
 49
-3.1749999999999998
 74
0
 49
0.0
 74
0
 49
-3.1749999999999998
 74
0
  0
LTYPE
  5
5E
100
AcDbSymbolTableRecord
100
AcDbLinetypeTableRecord
  2
TSLONGDASH
 70
0
  3
TSLONGDASH
 72
65
 73
2
 40
1.28
 49
1.0
 74
0
 49
-0.28
 74
0
  0
ENDTAB
  0
TABLE
  2
LAYER
  5
2
100
AcDbSymbolTable
 70
4
  0
LAYER
  5
10
100
AcDbSymbolTableRecord
100
AcDbLayerTableRecord
  2
0
 70
0
 62
7
420
16777215
  6
Continuous
370
0
390
F
  0
LAYER
  5
5F
100
AcDbSymbolTableRecord
100
AcDbLayerTableRecord
  2
Layer_3
 70
0
 62
7
420
16777215
  6
Continuous
370
0
390
F
  0
LAYER
  5
60
100
AcDbSymbolTableRecord
100
AcDbLayerTableRecord
  2
Layer_1
 70
0
 62
7
420
16777215
  6
Continuous
370
0
390
F
  0
LAYER
  5
61
100
AcDbSymbolTableRecord
100
AcDbLayerTableRecord
  2
Layer_2
 70
0
 62
7
420
16777215
  6
Continuous
370
0
390
F
  0
ENDTAB
  0
TABLE
  2
STYLE
  5
3
100
AcDbSymbolTable
 70
1
  0
STYLE
  5
62
100
AcDbSymbolTableRecord
100
AcDbTextStyleTableRecord
  2
Standard
 70
0
 40
0.0
 41
1.0
 50
0.0
 71
0
 42
2.5
  3

  4

1001
ACAD
1000
txt
1071
0
  0
ENDTAB
  0
TABLE
  2
VIEW
  5
6
100
AcDbSymbolTable
 70
0
  0
ENDTAB
  0
TABLE
  2
UCS
  5
7
100
AcDbSymbolTable
 70
0
  0
ENDTAB
  0
TABLE
  2
APPID
  5
9
100
AcDbSymbolTable
 70
1
  0
APPID
  5
12
100
AcDbSymbolTableRecord
100
AcDbRegAppTableRecord
  2
ACAD
 70
0
  0
APPID
  5
63
100
AcDbSymbolTableRecord
100
AcDbRegAppTableRecord
  2
QCAD
 70
0
  0
ENDTAB
  0
TABLE
  2
DIMSTYLE
  5
A
100
AcDbSymbolTable
 70
1
100
AcDbDimStyleTable
 71
0
  0
DIMSTYLE
105
27
100
AcDbSymbolTableRecord
100
AcDbDimStyleTableRecord
  2
Standard
 41
0.18
 42
0.0625
 43
3.75
 44
0.18
 70
0
 73
0
 74
0
 77
1
 78
8
140
0.18
141
2.5
143
0.03937007874016
147
0.09
171
3
172
1
271
2
272
2
274
3
278
44
283
0
284
8
340
62
  0
ENDTAB
  0
TABLE
  2
BLOCK_RECORD
  5
1
100
AcDbSymbolTable
 70
1
  0
BLOCK_RECORD
  5
1F
100
AcDbSymbolTableRecord
100
AcDbBlockTableRecord
  2
*Model_Space
340
22
  0
BLOCK_RECORD
  5
1B
100
AcDbSymbolTableRecord
100
AcDbBlockTableRecord
  2
*Paper_Space
340
1E
  0
BLOCK_RECORD
  5
23
100
AcDbSymbolTableRecord
100
AcDbBlockTableRecord
  2
*Paper_Space0
340
26
  0
ENDTAB
  0
ENDSEC
  0
SECTION
  2
BLOCKS
  0
BLOCK
  5
20
100
AcDbEntity
  8
0
100
AcDbBlockBegin
  2
*Model_Space
 70
0
 10
0.0
 20
0.0
 30
0.0
  3
*Model_Space
  1

  0
ENDBLK
  5
21
100
AcDbEntity
  8
0
100
AcDbBlockEnd
  0
BLOCK
  5
1C
100
AcDbEntity
 67
1
  8
0
100
AcDbBlockBegin
  2
*Paper_Space
 70
0
 10
0.0
 20
0.0
 30
0.0
  3
*Paper_Space
  1

  0
ENDBLK
  5
1D
100
AcDbEntity
 67
1
  8
0
100
AcDbBlockEnd
  0
BLOCK
  5
24
100
AcDbEntity
  8
0
100
AcDbBlockBegin
  2
*Paper_Space0
 70
0
 10
0.0
 20
0.0
 30
0.0
  3
*Paper_Space0
  1

  0
ENDBLK
  5
25
100
AcDbEntity
  8
0
100
AcDbBlockEnd
  0
ENDSEC
  0
SECTION
  2
ENTITIES
  0
LINE
  5
64
100
AcDbEntity
  8
Layer_1
 62
7
420
16777215
370
-1
 48
1.0
  6
Continuous
100
AcDbLine
 10
90.5000000003254854
 20
-31.9000000004040558
 30
0.0
 11
90.499999998215344
 21
-78.9000000004040203
 31
0.0
  0
ARC
  5
65
100
AcDbEntity
  8
Layer_1
 62
7
420
16777215
370
-1
 48
1.0
  6
Continuous
100
AcDbCircle
 10
81.500000000325457
 20
-31.9000000000000412
 30
0.0
 40
9.0
100
AcDbArc
 50
0.0
 51
90.0
  0
LINE
  5
66
100
AcDbEntity
  8
Layer_1
 62
7
420
16777215
370
-1
 48
1.0
  6
Continuous
100
AcDbLine
 10
-10.4999999992704289
 20
-22.8999999999999808
 30
0.0
 11
81.5000000003255138
 21
-22.8999999999999453
 31
0.0
  0
ARC
  5
67
100
AcDbEntity
  8
Layer_1
 62
7
420
16777215
370
-1
 48
1.0
  6
Continuous
100
AcDbCircle
 10
-10.4999999992704378
 20
-31.8999999999999773
 30
0.0
 40
9.0
100
AcDbArc
 50
90.0
 51
180.0
  0
LINE
  5
68
100
AcDbEntity
  8
Layer_1
 62
7
420
16777215
370
-1
 48
1.0
  6
Continuous
100
AcDbLine
 10
-19.4999999992704147
 20
-78.8999999999999773
 30
0.0
 11
-19.4999999992704396
 21
-31.8999999999999808
 31
0.0
  0
LINE
  5
69
100
AcDbEntity
  8
Layer_1
 62
7
420
16777215
370
-1
 48
1.0
  6
Continuous
100
AcDbLine
 10
81.4999999982153724
 20
-87.8999999999999488
 30
0.0
 11
-10.4999999992704254
 21
-87.8999999999999773
 31
0.0
  0
ARC
  5
6A
100
AcDbEntity
  8
Layer_1
 62
7
420
16777215
370
-1
 48
1.0
  6
Continuous
100
AcDbCircle
 10
-10.4999999992704147
 20
-78.8999999999999773
 30
0.0
 40
9.0000000000000142
100
AcDbArc
 50
180.0
 51
270.0
  0
ARC
  5
6B
100
AcDbEntity
  8
Layer_1
 62
7
420
16777215
370
-1
 48
1.0
  6
Continuous
100
AcDbCircle
 10
81.4999999982153156
 20
-78.8999999999999488
 30
0.0
 40
8.9999999999999858
100
AcDbArc
 50
270.0
 51
0.0
  0
LINE
  5
6C
100
AcDbEntity
  8
Layer_1
 62
7
420
16777215
370
-1
 48
1.0
  6
TSCENTER
100
AcDbLine
 10
35.5000000005275353
 20
-22.8999999999999844
 30
0.0
 11
35.499999999472422
 21
-87.8999999999999773
 31
0.0
  0
LINE
  5
6D
100
AcDbEntity
  8
Layer_1
 62
7
420
16777215
370
-1
 48
1.0
  6
CENTER
100
AcDbLine
 10
162.4999999999999716
 20
-55.4000000000001123
 30
0.0
 11
-19.4999999992704325
 21
-55.3999999999999702
 31
0.0
  0
LINE
  5
6E
100
AcDbEntity
  8
Layer_1
 62
7
420
16777215
370
-1
 48
1.0
  6
TSCENTER
100
AcDbLine
 10
-11.0000000005275442
 20
-87.8999999999999488
 30
0.0
 11
-10.9999999994724647
 21
-22.8999999999999773
 31
0.0
  0
LINE
  5
6F
100
AcDbEntity
  8
Layer_1
 62
7
420
16777215
370
-1
 48
1.0
  6
TSCENTER
100
AcDbLine
 10
90.4999999981929193
 20
-79.4000000004040203
 30
0.0
 11
-19.5000000003479812
 21
-79.3999999999999773
 31
0.0
  0
LINE
  5
70
100
AcDbEntity
  8
Layer_1
 62
7
420
16777215
370
-1
 48
1.0
  6
TSCENTER
100
AcDbLine
 10
-19.5000000003479883
 20
-31.3999999999999524
 30
0.0
 11
90.4999999981928909
 21
-31.4000000004040629
 31
0.0
  0
CIRCLE
  5
71
100
AcDbEntity
  8
Layer_1
 62
7
420
16777215
370
-1
 48
1.0
  6
Continuous
100
AcDbCircle
 10
-11.0000000003896208
 20
-79.4000000000312127
 30
0.0
 40
3.25
  0
CIRCLE
  5
72
100
AcDbEntity
  8
Layer_1
 62
7
420
16777215
370
-1
 48
1.0
  6
Continuous
100
AcDbCircle
 10
-11.0000000003896208
 20
-79.4000000000312127
 30
0.0
 40
5.4500000000000028
  0
CIRCLE
  5
73
100
AcDbEntity
  8
Layer_1
 62
7
420
16777215
370
-1
 48
1.0
  6
Continuous
100
AcDbCircle
 10
81.9999999996103952
 20
-79.4000000003728132
 30
0.0
 40
3.25
  0
CIRCLE
  5
74
100
AcDbEntity
  8
Layer_1
 62
7
420
16777215
370
-1
 48
1.0
  6
Continuous
100
AcDbCircle
 10
81.9999999996103952
 20
-79.4000000003728132
 30
0.0
 40
5.4500000000000028
  0
CIRCLE
  5
75
100
AcDbEntity
  8
Layer_1
 62
7
420
16777215
370
-1
 48
1.0
  6
Continuous
100
AcDbCircle
 10
-11.0000000003895675
 20
-31.3999999999687347
 30
0.0
 40
3.249999999999972
  0
CIRCLE
  5
76
100
AcDbEntity
  8
Layer_1
 62
7
420
16777215
370
-1
 48
1.0
  6
Continuous
100
AcDbCircle
 10
-11.0000000003895675
 20
-31.3999999999687347
 30
0.0
 40
5.4499999999999744
  0
CIRCLE
  5
77
100
AcDbEntity
  8
Layer_1
 62
7
420
16777215
370
-1
 48
1.0
  6
Continuous
100
AcDbCircle
 10
81.9999999996104236
 20
-31.399999999627159
 30
0.0
 40
3.2499999999999929
  0
CIRCLE
  5
78
100
AcDbEntity
  8
Layer_1
 62
7
420
16777215
370
-1
 48
1.0
  6
Continuous
100
AcDbCircle
 10
81.9999999996104236
 20
-31.399999999627159
 30
0.0
 40
5.4499999999999957
  0
CIRCLE
  5
79
100
AcDbEntity
  8
Layer_1
 62
30
420
16744192
370
-1
 48
1.0
  6
Continuous
100
AcDbCircle
 10
11.6999999996153079
 20
-79.0999999999999943
 30
0.0
 40
2.1000000000000001
  0
CIRCLE
  5
7A
100
AcDbEntity
  8
Layer_1
 62
30
420
16744192
370
-1
 48
1.0
  6
Continuous
100
AcDbCircle
 10
11.6999999988857528
 20
5.8000000000000105
 30
0.0
 40
2.1000000000000001
  0
CIRCLE
  5
7B
100
AcDbEntity
  8
Layer_1
 62
30
420
16744192
370
-1
 48
1.0
  6
Continuous
100
AcDbCircle
 10
150.8000000011061275
 20
44.6000000000000227
 30
0.0
 40
2.1000000000000001
  0
CIRCLE
  5
7C
100
AcDbEntity
  8
Layer_1
 62
30
420
16744192
370
-1
 48
1.0
  6
Continuous
100
AcDbCircle
 10
11.6999999988858203
 20
113.9999999999997442
 30
0.0
 40
2.1000000000000001
  0
CIRCLE
  5
7D
100
AcDbEntity
  8
Layer_1
 62
30
420
16744192
370
-1
 48
1.0
  6
Continuous
100
AcDbCircle
 10
35.4999999996152553
 20
-79.1000000000000227
 30
0.0
 40
2.1000000000000001
  0
CIRCLE
  5
7E
100
AcDbEntity
  8
Layer_1
 62
30
420
16744192
370
-1
 48
1.0
  6
Continuous
100
AcDbCircle
 10
35.4999999988857482
 20
5.8000000000000149
 30
0.0
 40
2.1000000000000001
  0
CIRCLE
  5
7F
100
AcDbEntity
  8
Layer_1
 62
30
420
16744192
370
-1
 48
1.0
  6
Continuous
100
AcDbCircle
 10
127.0000000011062014
 20
44.5999999999998593
 30
0.0
 40
2.1000000000000001
  0
CIRCLE
  5
80
100
AcDbEntity
  8
Layer_1
 62
30
420
16744192
370
-1
 48
1.0
  6
Continuous
100
AcDbCircle
 10
35.4999999988858264
 20
113.9999999999997158
 30
0.0
 40
2.1000000000000001
  0
CIRCLE
  5
81
100
AcDbEntity
  8
Layer_1
 62
30
420
16744192
370
-1
 48
1.0
  6
Continuous
100
AcDbCircle
 10
59.2999999996152454
 20
-79.1000000000000227
 30
0.0
 40
2.1000000000000001
  0
CIRCLE
  5
82
100
AcDbEntity
  8
Layer_1
 62
30
420
16744192
370
-1
 48
1.0
  6
Continuous
100
AcDbCircle
 10
59.2999999988857525
 20
5.7999999999999652
 30
0.0
 40
2.1000000000000001
  0
CIRCLE
  5
83
100
AcDbEntity
  8
Layer_1
 62
30
420
16744192
370
-1
 48
1.0
  6
Continuous
100
AcDbCircle
 10
103.2000000011061616
 20
44.5999999999999375
 30
0.0
 40
2.1000000000000001
  0
CIRCLE
  5
84
100
AcDbEntity
  8
Layer_1
 62
30
420
16744192
370
-1
 48
1.0
  6
Continuous
100
AcDbCircle
 10
59.2999999988857454
 20
113.9999999999997442
 30
0.0
 40
2.1000000000000001
  0
LINE
  5
85
100
AcDbEntity
  8
Layer_1
 62
30
420
16744192
370
-1
 48
1.0
  6
Continuous
100
AcDbLine
 10
71.0000000007295569
 20
-84.8999999999999773
 30
0.0
 11
71.0000000007295569
 21
-78.8999999999999773
 31
0.0
  0
LINE
  5
86
100
AcDbEntity
  8
Layer_1
 62
30
420
16744192
370
-1
 48
1.0
  6
Continuous
100
AcDbLine
 10
71.0
 20
0.9999999999999895
 30
0.0
 11
71.0
 21
5.9999999999999867
 31
0.0
  0
LINE
  5
87
100
AcDbEntity
  8
Layer_1
 62
30
420
16744192
370
-1
 48
1.0
  6
Continuous
100
AcDbLine
 10
91.4999999999918572
 20
39.8000000000000043
 30
0.0
 11
91.4999999999918998
 21
44.7999999999999474
 31
0.0
  0
LINE
  5
88
100
AcDbEntity
  8
Layer_1
 62
30
420
16744192
370
-1
 48
1.0
  6
Continuous
100
AcDbLine
 10
71.0000000000000568
 20
118.7999999999996703
 30
0.0
 11
71.0000000000000853
 21
113.7999999999996987
 31
0.0
  0
LINE
  5
89
100
AcDbEntity
  8
Layer_1
 62
30
420
16744192
370
-1
 48
1.0
  6
Continuous
100
AcDbLine
 10
71.0000000007295569
 20
-84.8999999999999773
 30
0.0
 11
0.0000000007295479
 21
-84.8999999999999773
 31
0.0
  0
LINE
  5
8A
100
AcDbEntity
  8
Layer_1
 62
30
420
16744192
370
-1
 48
1.0
  6
Continuous
100
AcDbLine
 10
70.0
 20
-0.00000000000001
 30
0.0
 11
1.0000000000000142
 21
0.0000000000000069
 31
0.0
  0
LINE
  5
8B
100
AcDbEntity
  8
Layer_1
 62
30
420
16744192
370
-1
 48
1.0
  6
Continuous
100
AcDbLine
 10
92.4999999999918714
 20
38.7999999999999901
 30
0.0
 11
161.4999999999919282
 21
38.7999999999999829
 31
0.0
  0
LINE
  5
8C
100
AcDbEntity
  8
Layer_1
 62
30
420
16744192
370
-1
 48
1.0
  6
Continuous
100
AcDbLine
 10
70.0000000000000568
 20
119.7999999999996987
 30
0.0
 11
1.0000000000000426
 21
119.7999999999997556
 31
0.0
  0
LINE
  5
8D
100
AcDbEntity
  8
Layer_1
 62
30
420
16744192
370
-1
 48
1.0
  6
Continuous
100
AcDbLine
 10
0.0000000007295479
 20
-84.8999999999999773
 30
0.0
 11
0.0000000007295671
 21
-78.8999999999999773
 31
0.0
  0
LINE
  5
8E
100
AcDbEntity
  8
Layer_1
 62
30
420
16744192
370
-1
 48
1.0
  6
Continuous
100
AcDbLine
 10
0.0000000000000074
 20
1.0000000000000071
 30
0.0
 11
0.0000000000000089
 21
6.0000000000000071
 31
0.0
  0
LINE
  5
8F
100
AcDbEntity
  8
Layer_1
 62
30
420
16744192
370
-1
 48
1.0
  6
Continuous
100
AcDbLine
 10
162.4999999999918714
 20
39.7999999999999758
 30
0.0
 11
162.4999999999918998
 21
44.7999999999998764
 31
0.0
  0
LINE
  5
90
100
AcDbEntity
  8
Layer_1
 62
30
420
16744192
370
-1
 48
1.0
  6
Continuous
100
AcDbLine
 10
0.0000000000000435
 20
118.7999999999997556
 30
0.0
 11
0.0000000000000419
 21
113.7999999999997556
 31
0.0
  0
LINE
  5
91
100
AcDbEntity
  8
Layer_1
 62
30
420
16744192
370
-1
 48
1.0
  6
Continuous
100
AcDbLine
 10
71.0000000007295569
 20
-78.8999999999999773
 30
0.0
 11
68.2287187095771515
 21
-74.0999999999999659
 31
0.0
  0
LINE
  5
92
100
AcDbEntity
  8
Layer_1
 62
30
420
16744192
370
-1
 48
1.0
  6
Continuous
100
AcDbLine
 10
71.0
 20
5.9999999999999867
 30
0.0
 11
68.2287187088475662
 21
10.7999999999999723
 31
0.0
  0
LINE
  5
93
100
AcDbEntity
  8
Layer_1
 62
30
420
16744192
370
-1
 48
1.0
  6
Continuous
100
AcDbLine
 10
91.4999999999918998
 20
44.7999999999999474
 30
0.0
 11
94.2712812911443336
 21
49.5999999999999375
 31
0.0
  0
LINE
  5
94
100
AcDbEntity
  8
Layer_1
 62
30
420
16744192
370
-1
 48
1.0
  6
Continuous
100
AcDbLine
 10
71.0000000000000853
 20
113.7999999999996987
 30
0.0
 11
68.2287187088476514
 21
108.9999999999997158
 31
0.0
  0
LINE
  5
95
100
AcDbEntity
  8
Layer_1
 62
30
420
16744192
370
-1
 48
1.0
  6
Continuous
100
AcDbLine
 10
0.0000000007295671
 20
-78.8999999999999773
 30
0.0
 11
2.7712812918819401
 21
-74.0999999999999943
 31
0.0
  0
LINE
  5
96
100
AcDbEntity
  8
Layer_1
 62
30
420
16744192
370
-1
 48
1.0
  6
Continuous
100
AcDbLine
 10
0.0000000000000089
 20
6.0000000000000071
 30
0.0
 11
2.7712812911524165
 21
10.8000000000000096
 31
0.0
  0
LINE
  5
97
100
AcDbEntity
  8
Layer_1
 62
30
420
16744192
370
-1
 48
1.0
  6
Continuous
100
AcDbLine
 10
162.4999999999918998
 20
44.7999999999998764
 30
0.0
 11
159.7287187088394944
 21
49.5999999999999517
 31
0.0
  0
LINE
  5
98
100
AcDbEntity
  8
Layer_1
 62
30
420
16744192
370
-1
 48
1.0
  6
Continuous
100
AcDbLine
 10
0.0000000000000419
 20
113.7999999999997556
 30
0.0
 11
2.7712812911524147
 21
108.9999999999997442
 31
0.0
  0
LINE
  5
99
100
AcDbEntity
  8
Layer_1
 62
30
420
16744192
370
-1
 48
1.0
  6
Continuous
100
AcDbLine
 10
68.2287187095771515
 20
-74.0999999999999659
 30
0.0
 11
2.7712812918819401
 21
-74.0999999999999943
 31
0.0
  0
LINE
  5
9A
100
AcDbEntity
  8
Layer_1
 62
30
420
16744192
370
-1
 48
1.0
  6
Continuous
100
AcDbLine
 10
68.2287187088475662
 20
10.7999999999999723
 30
0.0
 11
2.7712812911524165
 21
10.8000000000000096
 31
0.0
  0
LINE
  5
9B
100
AcDbEntity
  8
Layer_1
 62
30
420
16744192
370
-1
 48
1.0
  6
Continuous
100
AcDbLine
 10
94.2712812911443336
 20
49.5999999999999375
 30
0.0
 11
159.7287187088394944
 21
49.5999999999999517
 31
0.0
  0
LINE
  5
9C
100
AcDbEntity
  8
Layer_1
 62
30
420
16744192
370
-1
 48
1.0
  6
Continuous
100
AcDbLine
 10
68.2287187088476514
 20
108.9999999999997158
 30
0.0
 11
2.7712812911524147
 21
108.9999999999997442
 31
0.0
  0
CIRCLE
  5
9D
100
AcDbEntity
  8
Layer_1
 62
30
420
16744192
370
-1
 48
1.0
  6
Continuous
100
AcDbCircle
 10
11.7000000001234987
 20
-31.8999999999999773
 30
0.0
 40
2.1000000000000001
  0
CIRCLE
  5
9E
100
AcDbEntity
  8
Layer_1
 62
30
420
16744192
370
-1
 48
1.0
  6
Continuous
100
AcDbCircle
 10
11.7000000000000455
 20
36.6000000000000156
 30
0.0
 40
2.1000000000000001
  0
CIRCLE
  5
9F
100
AcDbEntity
  8
Layer_1
 62
30
420
16744192
370
-1
 48
1.0
  6
Continuous
100
AcDbCircle
 10
150.7999999999919112
 20
75.3999999999999488
 30
0.0
 40
2.1000000000000001
  0
CIRCLE
  5
A0
100
AcDbEntity
  8
Layer_1
 62
30
420
16744192
370
-1
 48
1.0
  6
Continuous
100
AcDbCircle
 10
11.7000000000000544
 20
83.1999999999997328
 30
0.0
 40
2.1000000000000001
  0
CIRCLE
  5
A1
100
AcDbEntity
  8
Layer_1
 62
30
420
16744192
370
-1
 48
1.0
  6
Continuous
100
AcDbCircle
 10
35.5000000001234568
 20
-31.8999999999999808
 30
0.0
 40
2.1000000000000001
  0
CIRCLE
  5
A2
100
AcDbEntity
  8
Layer_1
 62
30
420
16744192
370
-1
 48
1.0
  6
Continuous
100
AcDbCircle
 10
35.5000000000000071
 20
36.6000000000000156
 30
0.0
 40
2.1000000000000001
  0
CIRCLE
  5
A3
100
AcDbEntity
  8
Layer_1
 62
30
420
16744192
370
-1
 48
1.0
  6
Continuous
100
AcDbCircle
 10
126.9999999999919282
 20
75.3999999999999204
 30
0.0
 40
2.1000000000000001
  0
CIRCLE
  5
A4
100
AcDbEntity
  8
Layer_1
 62
30
420
16744192
370
-1
 48
1.0
  6
Continuous
100
AcDbCircle
 10
35.5000000000000213
 20
83.1999999999997328
 30
0.0
 40
2.1000000000000001
  0
CIRCLE
  5
A5
100
AcDbEntity
  8
Layer_1
 62
30
420
16744192
370
-1
 48
1.0
  6
Continuous
100
AcDbCircle
 10
59.3000000001234895
 20
-31.8999999999999311
 30
0.0
 40
2.1000000000000001
  0
CIRCLE
  5
A6
100
AcDbEntity
  8
Layer_1
 62
30
420
16744192
370
-1
 48
1.0
  6
Continuous
100
AcDbCircle
 10
59.3000000000000469
 20
36.5999999999999872
 30
0.0
 40
2.1000000000000001
  0
CIRCLE
  5
A7
100
AcDbEntity
  8
Layer_1
 62
30
420
16744192
370
-1
 48
1.0
  6
Continuous
100
AcDbCircle
 10
103.1999999999919453
 20
75.3999999999999204
 30
0.0
 40
2.1000000000000001
  0
CIRCLE
  5
A8
100
AcDbEntity
  8
Layer_1
 62
30
420
16744192
370
-1
 48
1.0
  6
Continuous
100
AcDbCircle
 10
59.3000000000000753
 20
83.199999999999676
 30
0.0
 40
2.1000000000000001
  0
LINE
  5
A9
100
AcDbEntity
  8
Layer_1
 62
30
420
16744192
370
-1
 48
1.0
  6
Continuous
100
AcDbLine
 10
71.0000000012377086
 20
-26.0999999999999872
 30
0.0
 11
71.0000000012377086
 21
-32.0999999999999872
 31
0.0
  0
LINE
  5
AA
100
AcDbEntity
  8
Layer_1
 62
30
420
16744192
370
-1
 48
1.0
  6
Continuous
100
AcDbLine
 10
71.0000000011142731
 20
41.3999999999999986
 30
0.0
 11
71.0000000011142447
 21
36.4000000000000483
 31
0.0
  0
LINE
  5
AB
100
AcDbEntity
  8
Layer_1
 62
30
420
16744192
370
-1
 48
1.0
  6
Continuous
100
AcDbLine
 10
91.4999999988776693
 20
80.199999999999946
 30
0.0
 11
91.4999999988777404
 21
75.1999999999999602
 31
0.0
  0
LINE
  5
AC
100
AcDbEntity
  8
Layer_1
 62
30
420
16744192
370
-1
 48
1.0
  6
Continuous
100
AcDbLine
 10
71.0000000011143015
 20
78.3999999999996504
 30
0.0
 11
71.0000000011141736
 21
83.399999999999693
 31
0.0
  0
LINE
  5
AD
100
AcDbEntity
  8
Layer_1
 62
30
420
16744192
370
-1
 48
1.0
  6
Continuous
100
AcDbLine
 10
71.0000000012377086
 20
-26.0999999999999872
 30
0.0
 11
0.0000000012377066
 21
-26.0999999999999766
 31
0.0
  0
LINE
  5
AE
100
AcDbEntity
  8
Layer_1
 62
30
420
16744192
370
-1
 48
1.0
  6
Continuous
100
AcDbLine
 10
70.0000000011142731
 20
42.3999999999999986
 30
0.0
 11
1.0000000011142731
 21
42.4000000000000341
 31
0.0
  0
LINE
  5
AF
100
AcDbEntity
  8
Layer_1
 62
30
420
16744192
370
-1
 48
1.0
  6
Continuous
100
AcDbLine
 10
92.4999999988776551
 20
81.1999999999999602
 30
0.0
 11
161.4999999988776267
 21
81.1999999999999602
 31
0.0
  0
LINE
  5
B0
100
AcDbEntity
  8
Layer_1
 62
30
420
16744192
370
-1
 48
1.0
  6
Continuous
100
AcDbLine
 10
70.0000000011143158
 20
77.3999999999996362
 30
0.0
 11
1.0000000011142447
 21
77.3999999999997215
 31
0.0
  0
LINE
  5
B1
100
AcDbEntity
  8
Layer_1
 62
30
420
16744192
370
-1
 48
1.0
  6
Continuous
100
AcDbLine
 10
0.0000000012377066
 20
-26.0999999999999766
 30
0.0
 11
0.0000000012377287
 21
-32.0999999999999801
 31
0.0
  0
LINE
  5
B2
100
AcDbEntity
  8
Layer_1
 62
30
420
16744192
370
-1
 48
1.0
  6
Continuous
100
AcDbLine
 10
0.0000000011142665
 20
41.4000000000000341
 30
0.0
 11
0.0000000011142612
 21
36.4000000000000341
 31
0.0
  0
LINE
  5
B3
100
AcDbEntity
  8
Layer_1
 62
30
420
16744192
370
-1
 48
1.0
  6
Continuous
100
AcDbLine
 10
162.4999999988776267
 20
80.199999999999946
 30
0.0
 11
162.4999999988776551
 21
75.1999999999999034
 31
0.0
  0
LINE
  5
B4
100
AcDbEntity
  8
Layer_1
 62
30
420
16744192
370
-1
 48
1.0
  6
Continuous
100
AcDbLine
 10
0.0000000011142508
 20
78.3999999999997215
 30
0.0
 11
0.000000001114255
 21
83.3999999999997215
 31
0.0
  0
LINE
  5
B5
100
AcDbEntity
  8
Layer_1
 62
30
420
16744192
370
-1
 48
1.0
  6
Continuous
100
AcDbLine
 10
71.0000000012377086
 20
-32.0999999999999872
 30
0.0
 11
68.2287187100852748
 21
-36.9000000000000199
 31
0.0
  0
LINE
  5
B6
100
AcDbEntity
  8
Layer_1
 62
30
420
16744192
370
-1
 48
1.0
  6
Continuous
100
AcDbLine
 10
71.0000000011142447
 20
36.4000000000000483
 30
0.0
 11
68.2287187099618393
 21
31.6000000000000583
 31
0.0
  0
LINE
  5
B7
100
AcDbEntity
  8
Layer_1
 62
30
420
16744192
370
-1
 48
1.0
  6
Continuous
100
AcDbLine
 10
91.4999999988777404
 20
75.1999999999999602
 30
0.0
 11
94.2712812900300321
 21
70.4000000000000341
 31
0.0
  0
LINE
  5
B8
100
AcDbEntity
  8
Layer_1
 62
30
420
16744192
370
-1
 48
1.0
  6
Continuous
100
AcDbLine
 10
71.0000000011143015
 20
83.399999999999693
 30
0.0
 11
68.2287187099618961
 21
88.1999999999997044
 31
0.0
  0
LINE
  5
B9
100
AcDbEntity
  8
Layer_1
 62
30
420
16744192
370
-1
 48
1.0
  6
Continuous
100
AcDbLine
 10
0.0000000012377287
 20
-32.0999999999999801
 30
0.0
 11
2.7712812923901406
 21
-36.8999999999999702
 31
0.0
  0
LINE
  5
BA
100
AcDbEntity
  8
Layer_1
 62
30
420
16744192
370
-1
 48
1.0
  6
Continuous
100
AcDbLine
 10
0.0000000011142612
 20
36.4000000000000341
 30
0.0
 11
2.7712812922666696
 21
31.6000000000000227
 31
0.0
  0
LINE
  5
BB
100
AcDbEntity
  8
Layer_1
 62
30
420
16744192
370
-1
 48
1.0
  6
Continuous
100
AcDbLine
 10
162.4999999988776551
 20
75.1999999999999034
 30
0.0
 11
159.7287187077252497
 21
70.4000000000000057
 31
0.0
  0
LINE
  5
BC
100
AcDbEntity
  8
Layer_1
 62
30
420
16744192
370
-1
 48
1.0
  6
Continuous
100
AcDbLine
 10
0.000000001114255
 20
83.3999999999997215
 30
0.0
 11
2.7712812922666439
 21
88.1999999999997328
 31
0.0
  0
LINE
  5
BD
100
AcDbEntity
  8
Layer_1
 62
30
420
16744192
370
-1
 48
1.0
  6
Continuous
100
AcDbLine
 10
68.2287187100852748
 20
-36.9000000000000199
 30
0.0
 11
2.7712812923901406
 21
-36.8999999999999702
 31
0.0
  0
LINE
  5
BE
100
AcDbEntity
  8
Layer_1
 62
30
420
16744192
370
-1
 48
1.0
  6
Continuous
100
AcDbLine
 10
68.2287187099618393
 20
31.6000000000000583
 30
0.0
 11
2.7712812922666696
 21
31.6000000000000227
 31
0.0
  0
LINE
  5
BF
100
AcDbEntity
  8
Layer_1
 62
30
420
16744192
370
-1
 48
1.0
  6
Continuous
100
AcDbLine
 10
94.2712812900300321
 20
70.4000000000000341
 30
0.0
 11
159.7287187077252497
 21
70.4000000000000057
 31
0.0
  0
LINE
  5
C0
100
AcDbEntity
  8
Layer_1
 62
30
420
16744192
370
-1
 48
1.0
  6
Continuous
100
AcDbLine
 10
68.2287187099618961
 20
88.1999999999997044
 30
0.0
 11
2.7712812922666439
 21
88.1999999999997328
 31
0.0
  0
CIRCLE
  5
C1
100
AcDbEntity
  8
Layer_1
 62
30
420
16744192
370
-1
 48
1.0
  6
Continuous
100
AcDbCircle
 10
11.7000000000081332
 20
-54.8999999999999702
 30
0.0
 40
2.1000000000000001
  0
CIRCLE
  5
C2
100
AcDbEntity
  8
Layer_1
 62
30
420
16744192
370
-1
 48
1.0
  6
Continuous
100
AcDbCircle
 10
11.7000000000000117
 20
21.6000000000000192
 30
0.0
 40
2.1000000000000001
  0
CIRCLE
  5
C3
100
AcDbEntity
  8
Layer_1
 62
30
420
16744192
370
-1
 48
1.0
  6
Continuous
100
AcDbCircle
 10
150.7999999999919112
 20
60.3999999999999062
 30
0.0
 40
2.1000000000000001
  0
CIRCLE
  5
C4
100
AcDbEntity
  8
Layer_1
 62
30
420
16744192
370
-1
 48
1.0
  6
Continuous
100
AcDbCircle
 10
11.7000000000000774
 20
98.1999999999997328
 30
0.0
 40
2.1000000000000001
  0
CIRCLE
  5
C5
100
AcDbEntity
  8
Layer_1
 62
30
420
16744192
370
-1
 48
1.0
  6
Continuous
100
AcDbCircle
 10
35.5000000000081357
 20
-54.8999999999999773
 30
0.0
 40
2.1000000000000001
  0
CIRCLE
  5
C6
100
AcDbEntity
  8
Layer_1
 62
30
420
16744192
370
-1
 48
1.0
  6
Continuous
100
AcDbCircle
 10
35.5
 20
21.6000000000000192
 30
0.0
 40
2.1000000000000001
  0
CIRCLE
  5
C7
100
AcDbEntity
  8
Layer_1
 62
30
420
16744192
370
-1
 48
1.0
  6
Continuous
100
AcDbCircle
 10
126.9999999999919282
 20
60.3999999999999559
 30
0.0
 40
2.1000000000000001
  0
CIRCLE
  5
C8
100
AcDbEntity
  8
Layer_1
 62
30
420
16744192
370
-1
 48
1.0
  6
Continuous
100
AcDbCircle
 10
35.5000000000000426
 20
98.1999999999997044
 30
0.0
 40
2.1000000000000001
  0
CIRCLE
  5
C9
100
AcDbEntity
  8
Layer_1
 62
30
420
16744192
370
-1
 48
1.0
  6
Continuous
100
AcDbCircle
 10
59.300000000008076
 20
-54.900000000000027
 30
0.0
 40
2.1000000000000001
  0
CIRCLE
  5
CA
100
AcDbEntity
  8
Layer_1
 62
30
420
16744192
370
-1
 48
1.0
  6
Continuous
100
AcDbCircle
 10
59.3000000000000043
 20
21.6000000000000263
 30
0.0
 40
2.1000000000000001
  0
CIRCLE
  5
CB
100
AcDbEntity
  8
Layer_1
 62
30
420
16744192
370
-1
 48
1.0
  6
Continuous
100
AcDbCircle
 10
103.1999999999919453
 20
60.3999999999999346
 30
0.0
 40
2.1000000000000001
  0
CIRCLE
  5
CC
100
AcDbEntity
  8
Layer_1
 62
30
420
16744192
370
-1
 48
1.0
  6
Continuous
100
AcDbCircle
 10
59.3000000000000185
 20
98.1999999999997044
 30
0.0
 40
2.1000000000000001
  0
LINE
  5
CD
100
AcDbEntity
  8
Layer_1
 62
30
420
16744192
370
-1
 48
1.0
  6
Continuous
100
AcDbLine
 10
73.9999999999139675
 20
-60.6999999999999815
 30
0.0
 11
0.0000000011223449
 21
-60.6999999999999744
 31
0.0
  0
LINE
  5
CE
100
AcDbEntity
  8
Layer_1
 62
30
420
16744192
370
-1
 48
1.0
  6
Continuous
100
AcDbLine
 10
73.9999999999058673
 20
15.7999999999999687
 30
0.0
 11
0.0000000011142636
 21
15.8000000000000114
 31
0.0
  0
LINE
  5
CF
100
AcDbEntity
  8
Layer_1
 62
30
420
16744192
370
-1
 48
1.0
  6
Continuous
100
AcDbLine
 10
88.5000000000860609
 20
54.5999999999999801
 30
0.0
 11
162.4999999988776835
 21
54.5999999999997172
 31
0.0
  0
LINE
  5
D0
100
AcDbEntity
  8
Layer_1
 62
30
420
16744192
370
-1
 48
1.0
  6
Continuous
100
AcDbLine
 10
73.9999999999058957
 20
103.9999999999997158
 30
0.0
 11
0.000000001114305
 21
103.9999999999997442
 31
0.0
  0
LINE
  5
D1
100
AcDbEntity
  8
Layer_1
 62
30
420
16744192
370
-1
 48
1.0
  6
Continuous
100
AcDbLine
 10
0.0000000011223449
 20
-60.6999999999999744
 30
0.0
 11
0.0000000011223698
 21
-54.6999999999999744
 31
0.0
  0
LINE
  5
D2
100
AcDbEntity
  8
Layer_1
 62
30
420
16744192
370
-1
 48
1.0
  6
Continuous
100
AcDbLine
 10
0.0000000011223698
 20
-54.6999999999999744
 30
0.0
 11
2.7712812922747858
 21
-49.8999999999999773
 31
0.0
  0
LINE
  5
D3
100
AcDbEntity
  8
Layer_1
 62
30
420
16744192
370
-1
 48
1.0
  6
Continuous
100
AcDbLine
 10
0.0000000011142748
 20
21.8000000000000114
 30
0.0
 11
2.7712812922666865
 21
26.6000000000000227
 31
0.0
  0
LINE
  5
D4
100
AcDbEntity
  8
Layer_1
 62
30
420
16744192
370
-1
 48
1.0
  6
Continuous
100
AcDbLine
 10
162.4999999988776551
 20
60.5999999999987367
 30
0.0
 11
159.7287187077252781
 21
65.3999999999999204
 31
0.0
  0
LINE
  5
D5
100
AcDbEntity
  8
Layer_1
 62
30
420
16744192
370
-1
 48
1.0
  6
Continuous
100
AcDbLine
 10
0.0000000011143422
 20
97.9999999999997726
 30
0.0
 11
2.7712812922667016
 21
93.1999999999997613
 31
0.0
  0
LINE
  5
D6
100
AcDbEntity
  8
Layer_1
 62
30
420
16744192
370
-1
 48
1.0
  6
Continuous
100
AcDbLine
 10
74.0000000000892157
 20
-49.900000000000027
 30
0.0
 11
2.7712812922747858
 21
-49.8999999999999773
 31
0.0
  0
LINE
  5
D7
100
AcDbEntity
  8
Layer_1
 62
30
420
16744192
370
-1
 48
1.0
  6
Continuous
100
AcDbLine
 10
98.5
 20
-49.8999999999999773
 30
0.0
 11
90.0000000000892726
 21
-49.8999999999999773
 31
0.0
  0
LINE
  5
D8
100
AcDbEntity
  8
Layer_1
 62
30
420
16744192
370
-1
 48
1.0
  6
Continuous
100
AcDbLine
 10
74.0000000000811724
 20
26.5999999999999872
 30
0.0
 11
2.7712812922666865
 21
26.6000000000000227
 31
0.0
  0
LINE
  5
D9
100
AcDbEntity
  8
Layer_1
 62
30
420
16744192
370
-1
 48
1.0
  6
Continuous
100
AcDbLine
 10
98.4999999999918714
 20
26.6000000000000298
 30
0.0
 11
90.000000000081144
 21
26.6000000000000085
 31
0.0
  0
LINE
  5
DA
100
AcDbEntity
  8
Layer_1
 62
30
420
16744192
370
-1
 48
1.0
  6
Continuous
100
AcDbLine
 10
88.4999999999107558
 20
65.3999999999999773
 30
0.0
 11
159.7287187077252781
 21
65.3999999999999204
 31
0.0
  0
LINE
  5
DB
100
AcDbEntity
  8
Layer_1
 62
30
420
16744192
370
-1
 48
1.0
  6
Continuous
100
AcDbLine
 10
64.0
 20
65.4000000000000341
 30
0.0
 11
72.4999999999107843
 21
65.3999999999998352
 31
0.0
  0
LINE
  5
DC
100
AcDbEntity
  8
Layer_1
 62
30
420
16744192
370
-1
 48
1.0
  6
Continuous
100
AcDbLine
 10
74.000000000081144
 20
93.1999999999997613
 30
0.0
 11
2.7712812922667016
 21
93.1999999999997613
 31
0.0
  0
LINE
  5
DD
100
AcDbEntity
  8
Layer_1
 62
30
420
16744192
370
-1
 48
1.0
  6
Continuous
100
AcDbLine
 10
98.4999999999918998
 20
93.1999999999997044
 30
0.0
 11
90.000000000081144
 21
93.1999999999997613
 31
0.0
  0
LWPOLYLINE
  5
DE
100
AcDbEntity
  8
Layer_1
 62
5
420
255
370
-1
 48
1.0
  6
Continuous
100
AcDbPolyline
 90
4
 70
129
 10
75.8999999996834731
 20
-68.2999999999999829
 10
88.0999999996834902
 20
-68.2999999999999261
 10
88.0999999996834333
 20
-62.1000000000000227
 10
75.8999999996834447
 20
-62.1000000000000085
  0
LWPOLYLINE
  5
DF
100
AcDbEntity
  8
Layer_1
 62
5
420
255
370
-1
 48
1.0
  6
Continuous
100
AcDbPolyline
 90
4
 70
129
 10
75.9000000000000341
 20
-48.7999999999999474
 10
88.0999999999999943
 20
-48.7999999999999758
 10
88.0999999999999943
 20
-42.5999999999999588
 10
75.9000000000000057
 20
-42.5999999999999659
  0
LINE
  5
E0
100
AcDbEntity
  8
0
 62
30
420
16744192
370
-1
 48
1.0
  6
ByLayer
100
AcDbLine
 10
85.9999999999391207
 20
-59.1500000003270046
 30
0.0
 11
77.9999999999417639
 21
-59.1500000003263438
 31
0.0
  0
LINE
  5
E1
100
AcDbEntity
  8
0
 62
30
420
16744192
370
-1
 48
1.0
  6
ByLayer
100
AcDbLine
 10
85.9999999999309921
 20
17.349999999672967
 30
0.0
 11
77.9999999999336353
 21
17.349999999673674
 31
0.0
  0
LINE
  5
E2
100
AcDbEntity
  8
0
 62
30
420
16744192
370
-1
 48
1.0
  6
ByLayer
100
AcDbLine
 10
76.5000000000609361
 20
56.149999999672886
 30
0.0
 11
84.5000000000582929
 21
56.1499999996736037
 31
0.0
  0
LINE
  5
E3
100
AcDbEntity
  8
0
 62
30
420
16744192
370
-1
 48
1.0
  6
ByLayer
100
AcDbLine
 10
85.9999999999309921
 20
102.4500000003267814
 30
0.0
 11
77.9999999999336922
 21
102.4500000003260993
 31
0.0
  0
LINE
  5
E4
100
AcDbEntity
  8
0
 62
30
420
16744192
370
-1
 48
1.0
  6
ByLayer
100
AcDbLine
 10
86.0000000000608793
 20
-51.650000000387557
 30
0.0
 11
78.0000000000608793
 21
-51.6500000003580837
 31
0.0
  0
LINE
  5
E5
100
AcDbEntity
  8
0
 62
30
420
16744192
370
-1
 48
1.0
  6
ByLayer
100
AcDbLine
 10
86.0000000000527791
 20
24.8499999996123897
 30
0.0
 11
78.0000000000527507
 21
24.8499999996417564
 31
0.0
  0
LINE
  5
E6
100
AcDbEntity
  8
0
 62
30
420
16744192
370
-1
 48
1.0
  6
ByLayer
100
AcDbLine
 10
76.4999999999391775
 20
63.6499999996123833
 30
0.0
 11
84.499999999939206
 21
63.6499999996417429
 31
0.0
  0
LINE
  5
E7
100
AcDbEntity
  8
0
 62
30
420
16744192
370
-1
 48
1.0
  6
ByLayer
100
AcDbLine
 10
86.000000000052836
 20
94.9500000003872344
 30
0.0
 11
78.0000000000527791
 21
94.9500000003578464
 31
0.0
  0
LINE
  5
E8
100
AcDbEntity
  8
0
 62
30
420
16744192
370
-1
 48
1.0
  6
ByLayer
100
AcDbLine
 10
73.9999999999139675
 20
-60.6999999999999815
 30
0.0
 11
77.9999999999390923
 21
-59.1500000003273954
 31
0.0
  0
LINE
  5
E9
100
AcDbEntity
  8
0
 62
30
420
16744192
370
-1
 48
1.0
  6
ByLayer
100
AcDbLine
 10
73.9999999999058673
 20
15.7999999999999687
 30
0.0
 11
77.9999999999309921
 21
17.3499999996726508
 31
0.0
  0
LINE
  5
EA
100
AcDbEntity
  8
0
 62
30
420
16744192
370
-1
 48
1.0
  6
ByLayer
100
AcDbLine
 10
88.5000000000860894
 20
54.6000000000000014
 30
0.0
 11
84.5000000000609077
 21
56.1499999996725379
 31
0.0
  0
LINE
  5
EB
100
AcDbEntity
  8
0
 62
30
420
16744192
370
-1
 48
1.0
  6
ByLayer
100
AcDbLine
 10
73.9999999999058673
 20
103.9999999999997158
 30
0.0
 11
77.9999999999310205
 21
102.4500000003271509
 31
0.0
  0
LINE
  5
EC
100
AcDbEntity
  8
0
 62
256
370
-1
 48
1.0
  6
ByLayer
100
AcDbLine
 10
77.9999999999390923
 20
-59.1500000003273954
 30
0.0
 11
77.9999999999390923
 21
-59.1500000003273954
 31
0.0
  0
LINE
  5
ED
100
AcDbEntity
  8
0
 62
256
370
-1
 48
1.0
  6
ByLayer
100
AcDbLine
 10
77.9999999999309921
 20
17.3499999996726508
 30
0.0
 11
77.9999999999309921
 21
17.3499999996726508
 31
0.0
  0
LINE
  5
EE
100
AcDbEntity
  8
0
 62
30
420
16744192
370
-1
 48
1.0
  6
ByLayer
100
AcDbLine
 10
84.5000000000609077
 20
56.1499999996725379
 30
0.0
 11
84.5000000000609077
 21
56.1499999996725379
 31
0.0
  0
LINE
  5
EF
100
AcDbEntity
  8
0
 62
256
370
-1
 48
1.0
  6
ByLayer
100
AcDbLine
 10
77.9999999999310205
 20
102.4500000003271509
 30
0.0
 11
77.9999999999310205
 21
102.4500000003271509
 31
0.0
  0
LINE
  5
F0
100
AcDbEntity
  8
0
 62
30
420
16744192
370
-1
 48
1.0
  6
ByLayer
100
AcDbLine
 10
74.0000000000892726
 20
-49.8999999999999702
 30
0.0
 11
78.0000000000608793
 21
-51.6500000003580837
 31
0.0
  0
LINE
  5
F1
100
AcDbEntity
  8
0
 62
30
420
16744192
370
-1
 48
1.0
  6
ByLayer
100
AcDbLine
 10
74.0000000000811724
 20
26.5999999999999872
 30
0.0
 11
78.0000000000527791
 21
24.8499999996417635
 31
0.0
  0
LINE
  5
F2
100
AcDbEntity
  8
0
 62
30
420
16744192
370
-1
 48
1.0
  6
ByLayer
100
AcDbLine
 10
88.4999999999107558
 20
65.3999999999999773
 30
0.0
 11
84.499999999939206
 21
63.6499999996417429
 31
0.0
  0
LINE
  5
F3
100
AcDbEntity
  8
0
 62
30
420
16744192
370
-1
 48
1.0
  6
ByLayer
100
AcDbLine
 10
74.0000000000811156
 20
93.1999999999997328
 30
0.0
 11
78.0000000000527791
 21
94.9500000003578464
 31
0.0
  0
LINE
  5
F4
100
AcDbEntity
  8
0
 62
256
370
-1
 48
1.0
  6
ByLayer
100
AcDbLine
 10
78.0000000000608793
 20
-51.6500000003580837
 30
0.0
 11
78.0000000000608793
 21
-51.6500000003580837
 31
0.0
  0
LINE
  5
F5
100
AcDbEntity
  8
0
 62
256
370
-1
 48
1.0
  6
ByLayer
100
AcDbLine
 10
78.0000000000527791
 20
24.8499999996417635
 30
0.0
 11
78.0000000000527507
 21
24.8499999996417564
 31
0.0
  0
LINE
  5
F6
100
AcDbEntity
  8
0
 62
30
420
16744192
370
-1
 48
1.0
  6
ByLayer
100
AcDbLine
 10
84.499999999939206
 20
63.6499999996417429
 30
0.0
 11
84.499999999939206
 21
63.6499999996417429
 31
0.0
  0
LINE
  5
F7
100
AcDbEntity
  8
0
 62
256
370
-1
 48
1.0
  6
ByLayer
100
AcDbLine
 10
78.0000000000527791
 20
94.9500000003578464
 30
0.0
 11
78.0000000000527791
 21
94.9500000003578464
 31
0.0
  0
LINE
  5
F8
100
AcDbEntity
  8
0
 62
256
370
-1
 48
1.0
  6
ByLayer
100
AcDbLine
 10
89.9999999994724078
 20
-87.9000000043052694
 30
0.0
 11
90.0000000005275069
 21
-22.9000000043052871
 31
0.0
  0
LINE
  5
F9
100
AcDbEntity
  8
0
 62
30
420
16744192
370
-1
 48
1.0
  6
ByLayer
100
AcDbLine
 10
86.0000000000608509
 20
-51.6500000003875428
 30
0.0
 11
90.0000000000892726
 21
-49.8999999999999773
 31
0.0
  0
LINE
  5
FA
100
AcDbEntity
  8
0
 62
30
420
16744192
370
-1
 48
1.0
  6
ByLayer
100
AcDbLine
 10
86.0000000000527791
 20
24.8499999996123897
 30
0.0
 11
90.000000000081144
 21
26.6000000000000085
 31
0.0
  0
LINE
  5
FB
100
AcDbEntity
  8
0
 62
30
420
16744192
370
-1
 48
1.0
  6
ByLayer
100
AcDbLine
 10
76.4999999999391207
 20
63.6499999996123478
 30
0.0
 11
72.4999999999107843
 21
65.3999999999998352
 31
0.0
  0
LINE
  5
FC
100
AcDbEntity
  8
0
 62
30
420
16744192
370
-1
 48
1.0
  6
ByLayer
100
AcDbLine
 10
86.000000000052836
 20
94.9500000003872344
 30
0.0
 11
90.000000000081144
 21
93.1999999999997613
 31
0.0
  0
LINE
  5
FD
100
AcDbEntity
  8
0
 62
30
420
16744192
370
-1
 48
1.0
  6
ByLayer
100
AcDbLine
 10
98.5
 20
-60.8999999999999986
 30
0.0
 11
89.999999999910699
 21
-60.8999999999999986
 31
0.0
  0
LINE
  5
FE
100
AcDbEntity
  8
0
 62
30
420
16744192
370
-1
 48
1.0
  6
ByLayer
100
AcDbLine
 10
98.4999999999918714
 20
15.6000000000000369
 30
0.0
 11
89.9999999999025988
 21
15.6000000000000423
 31
0.0
  0
LINE
  5
FF
100
AcDbEntity
  8
0
 62
30
420
16744192
370
-1
 48
1.0
  6
ByLayer
100
AcDbLine
 10
64.0000000000000284
 20
54.3999999999999488
 30
0.0
 11
72.5000000000893294
 21
54.3999999999999133
 31
0.0
  0
LINE
  5
100
100
AcDbEntity
  8
0
 62
30
420
16744192
370
-1
 48
1.0
  6
ByLayer
100
AcDbLine
 10
98.4999999999918998
 20
104.1999999999997328
 30
0.0
 11
89.9999999999027125
 21
104.1999999999996476
 31
0.0
  0
LINE
  5
101
100
AcDbEntity
  8
0
 62
30
420
16744192
370
-1
 48
1.0
  6
ByLayer
100
AcDbLine
 10
85.9999999999391207
 20
-59.1500000003270046
 30
0.0
 11
89.999999999910699
 21
-60.8999999999999986
 31
0.0
  0
LINE
  5
102
100
AcDbEntity
  8
0
 62
30
420
16744192
370
-1
 48
1.0
  6
ByLayer
100
AcDbLine
 10
85.9999999999309921
 20
17.349999999672967
 30
0.0
 11
89.9999999999025988
 21
15.6000000000000423
 31
0.0
  0
LINE
  5
103
100
AcDbEntity
  8
0
 62
30
420
16744192
370
-1
 48
1.0
  6
ByLayer
100
AcDbLine
 10
76.5000000000609361
 20
56.149999999672886
 30
0.0
 11
72.5000000000893294
 21
54.3999999999999133
 31
0.0
  0
LINE
  5
104
100
AcDbEntity
  8
0
 62
30
420
16744192
370
-1
 48
1.0
  6
ByLayer
100
AcDbLine
 10
85.9999999999309921
 20
102.4500000003267814
 30
0.0
 11
89.9999999999027125
 21
104.1999999999996476
 31
0.0
  0
LINE
  5
105
100
AcDbEntity
  8
0
 62
30
420
16744192
370
-1
 48
1.0
  6
ByLayer
100
AcDbLine
 10
98.5
 20
-60.8999999999999986
 30
0.0
 11
105.4999999999999716
 21
-67.9000000000000057
 31
0.0
  0
LINE
  5
106
100
AcDbEntity
  8
0
 62
30
420
16744192
370
-1
 48
1.0
  6
ByLayer
100
AcDbLine
 10
98.5
 20
-49.8999999999999773
 30
0.0
 11
105.4999999999999716
 21
-42.900000000000027
 31
0.0
  0
LINE
  5
107
100
AcDbEntity
  8
0
 62
30
420
16744192
370
-1
 48
1.0
  6
ByLayer
100
AcDbLine
 10
98.4999999999918714
 20
15.6000000000000369
 30
0.0
 11
105.4999999999918714
 21
8.5999999999998522
 31
0.0
  0
LINE
  5
108
100
AcDbEntity
  8
0
 62
30
420
16744192
370
-1
 48
1.0
  6
ByLayer
100
AcDbLine
 10
98.4999999999918998
 20
26.5999999999999375
 30
0.0
 11
105.4999999999918998
 21
33.6000000000000298
 31
0.0
  0
LINE
  5
109
100
AcDbEntity
  8
0
 62
30
420
16744192
370
-1
 48
1.0
  6
ByLayer
100
AcDbLine
 10
64.0000000000000284
 20
54.3999999999999488
 30
0.0
 11
57.0000000000000497
 21
47.3999999999999631
 31
0.0
  0
LINE
  5
10A
100
AcDbEntity
  8
0
 62
30
420
16744192
370
-1
 48
1.0
  6
ByLayer
100
AcDbLine
 10
64.0000000000000853
 20
65.399999999999892
 30
0.0
 11
57.0000000000000497
 21
72.3999999999999773
 31
0.0
  0
LINE
  5
10B
100
AcDbEntity
  8
0
 62
30
420
16744192
370
-1
 48
1.0
  6
ByLayer
100
AcDbLine
 10
98.4999999999918998
 20
104.1999999999997328
 30
0.0
 11
105.4999999999919282
 21
111.1999999999997044
 31
0.0
  0
LINE
  5
10C
100
AcDbEntity
  8
0
 62
30
420
16744192
370
-1
 48
1.0
  6
ByLayer
100
AcDbLine
 10
98.4999999999919282
 20
93.1999999999997328
 30
0.0
 11
105.4999999999919282
 21
86.199999999999676
 31
0.0
  0
LINE
  5
10D
100
AcDbEntity
  8
0
 62
30
420
16744192
370
-1
 48
1.0
  6
ByLayer
100
AcDbLine
 10
160.5000000000000284
 20
-67.899999999999892
 30
0.0
 11
105.4999999999999716
 21
-67.9000000000000057
 31
0.0
  0
LINE
  5
10E
100
AcDbEntity
  8
0
 62
30
420
16744192
370
-1
 48
1.0
  6
ByLayer
100
AcDbLine
 10
160.5
 20
-42.8999999999999773
 30
0.0
 11
105.4999999999999716
 21
-42.900000000000027
 31
0.0
  0
LINE
  5
10F
100
AcDbEntity
  8
0
 62
30
420
16744192
370
-1
 48
1.0
  6
ByLayer
100
AcDbLine
 10
160.4999999999918714
 20
8.6000000000001773
 30
0.0
 11
105.4999999999918714
 21
8.6000000000001329
 31
0.0
  0
LINE
  5
110
100
AcDbEntity
  8
0
 62
30
420
16744192
370
-1
 48
1.0
  6
ByLayer
100
AcDbLine
 10
160.4999999999918714
 20
33.6000000000001862
 30
0.0
 11
105.4999999999918998
 21
33.6000000000000298
 31
0.0
  0
LINE
  5
111
100
AcDbEntity
  8
0
 62
30
420
16744192
370
-1
 48
1.0
  6
ByLayer
100
AcDbLine
 10
1.9999999999999889
 20
47.4000000000000199
 30
0.0
 11
57.0000000000000213
 21
47.4000000000001265
 31
0.0
  0
LINE
  5
112
100
AcDbEntity
  8
0
 62
30
420
16744192
370
-1
 48
1.0
  6
ByLayer
100
AcDbLine
 10
2.0000000000000591
 20
72.4000000000001478
 30
0.0
 11
57.0000000000000497
 21
72.3999999999999773
 31
0.0
  0
LINE
  5
113
100
AcDbEntity
  8
0
 62
30
420
16744192
370
-1
 48
1.0
  6
ByLayer
100
AcDbLine
 10
160.4999999999919282
 20
111.1999999999997044
 30
0.0
 11
105.4999999999918998
 21
111.1999999999996618
 31
0.0
  0
LINE
  5
114
100
AcDbEntity
  8
0
 62
30
420
16744192
370
-1
 48
1.0
  6
ByLayer
100
AcDbLine
 10
160.4999999999919567
 20
86.1999999999995907
 30
0.0
 11
105.4999999999918714
 21
86.1999999999997613
 31
0.0
  0
LINE
  5
115
100
AcDbEntity
  8
0
 62
256
370
-1
 48
1.0
  6
ByLayer
100
AcDbLine
 10
98.5
 20
-35.4000000000000057
 30
0.0
 11
98.5
 21
-35.4000000000000057
 31
0.0
  0
LINE
  5
116
100
AcDbEntity
  8
0
 62
30
420
16744192
370
-1
 48
1.0
  6
ByLayer
100
AcDbLine
 10
162.4999999999999716
 20
-65.9000000000000341
 30
0.0
 11
162.5
 21
-44.8999999999999631
 31
0.0
  0
LINE
  5
117
100
AcDbEntity
  8
0
 62
30
420
16744192
370
-1
 48
1.0
  6
ByLayer
100
AcDbLine
 10
162.4999999999918714
 20
10.5999999999998398
 30
0.0
 11
162.4999999999918998
 21
31.5999999999999055
 31
0.0
  0
LINE
  5
118
100
AcDbEntity
  8
0
 62
30
420
16744192
370
-1
 48
1.0
  6
ByLayer
100
AcDbLine
 10
0.0000000000000222
 20
49.3999999999999631
 30
0.0
 11
0.0000000000000287
 21
70.3999999999999204
 31
0.0
  0
LINE
  5
119
100
AcDbEntity
  8
0
 62
30
420
16744192
370
-1
 48
1.0
  6
ByLayer
100
AcDbLine
 10
162.4999999999919282
 20
109.1999999999996191
 30
0.0
 11
162.4999999999918998
 21
88.1999999999996191
 31
0.0
  0
LINE
  5
11A
100
AcDbEntity
  8
0
 62
30
420
16744192
370
-1
 48
1.0
  6
ByLayer
100
AcDbLine
 10
160.5000000000000284
 20
-67.899999999999892
 30
0.0
 11
162.4999999999999716
 21
-65.9000000000000341
 31
0.0
  0
LINE
  5
11B
100
AcDbEntity
  8
0
 62
30
420
16744192
370
-1
 48
1.0
  6
ByLayer
100
AcDbLine
 10
160.5
 20
-42.8999999999999773
 30
0.0
 11
162.5
 21
-44.8999999999999631
 31
0.0
  0
LINE
  5
11C
100
AcDbEntity
  8
0
 62
30
420
16744192
370
-1
 48
1.0
  6
ByLayer
100
AcDbLine
 10
160.4999999999918714
 20
8.6000000000001773
 30
0.0
 11
162.4999999999918714
 21
10.5999999999998398
 31
0.0
  0
LINE
  5
11D
100
AcDbEntity
  8
0
 62
30
420
16744192
370
-1
 48
1.0
  6
ByLayer
100
AcDbLine
 10
160.4999999999918714
 20
33.6000000000001862
 30
0.0
 11
162.4999999999918998
 21
31.5999999999999055
 31
0.0
  0
LINE
  5
11E
100
AcDbEntity
  8
0
 62
30
420
16744192
370
-1
 48
1.0
  6
ByLayer
100
AcDbLine
 10
1.9999999999999889
 20
47.4000000000000199
 30
0.0
 11
0.0000000000000222
 21
49.3999999999999631
 31
0.0
  0
LINE
  5
11F
100
AcDbEntity
  8
0
 62
30
420
16744192
370
-1
 48
1.0
  6
ByLayer
100
AcDbLine
 10
2.0000000000000591
 20
72.4000000000001478
 30
0.0
 11
0.0000000000000287
 21
70.3999999999999204
 31
0.0
  0
LINE
  5
120
100
AcDbEntity
  8
0
 62
30
420
16744192
370
-1
 48
1.0
  6
ByLayer
100
AcDbLine
 10
160.4999999999919282
 20
111.1999999999997044
 30
0.0
 11
162.4999999999919282
 21
109.1999999999996191
 31
0.0
  0
LINE
  5
121
100
AcDbEntity
  8
0
 62
30
420
16744192
370
-1
 48
1.0
  6
ByLayer
100
AcDbLine
 10
160.4999999999919567
 20
86.1999999999995907
 30
0.0
 11
162.4999999999918998
 21
88.1999999999996191
 31
0.0
  0
LINE
  5
122
100
AcDbEntity
  8
0
 62
256
370
-1
 48
1.0
  6
CENTER
100
AcDbLine
 10
134.5
 20
-67.3999999999999488
 30
0.0
 11
134.5
 21
-43.3999999999999275
 31
0.0
  0
LINE
  5
123
100
AcDbEntity
  8
0
 62
256
370
-1
 48
1.0
  6
CENTER
100
AcDbLine
 10
134.4999999999918714
 20
9.0999999999998966
 30
0.0
 11
134.4999999999918998
 21
33.0999999999998806
 31
0.0
  0
LINE
  5
124
100
AcDbEntity
  8
0
 62
256
370
-1
 48
1.0
  6
CENTER
100
AcDbLine
 10
28.0000000000000284
 20
47.9000000000000412
 30
0.0
 11
28.0000000000000568
 21
71.9000000000000909
 31
0.0
  0
LINE
  5
125
100
AcDbEntity
  8
0
 62
256
370
-1
 48
1.0
  6
CENTER
100
AcDbLine
 10
134.4999999999919851
 20
110.6999999999995623
 30
0.0
 11
134.4999999999918714
 21
86.6999999999997328
 31
0.0
  0
ARC
  5
126
100
AcDbEntity
  8
0
 62
256
370
-1
 48
1.0
  6
ByLayer
100
AcDbCircle
 10
131.4999999999999432
 20
-55.4000000000001194
 30
0.0
 40
2.25
100
AcDbArc
 50
90.0
 51
270.0
  0
ARC
  5
127
100
AcDbEntity
  8
0
 62
256
370
-1
 48
1.0
  6
ByLayer
100
AcDbCircle
 10
131.4999999999918714
 20
21.099999999999941
 30
0.0
 40
2.25
100
AcDbArc
 50
90.0
 51
270.0
  0
ARC
  5
128
100
AcDbEntity
  8
0
 62
256
370
-1
 48
1.0
  6
ByLayer
100
AcDbCircle
 10
31.0000000000000178
 20
59.9000000000010502
 30
0.0
 40
2.25
100
AcDbArc
 50
270.0
 51
90.0
  0
ARC
  5
129
100
AcDbEntity
  8
0
 62
256
370
-1
 48
1.0
  6
ByLayer
100
AcDbCircle
 10
131.4999999999918998
 20
98.699999999999676
 30
0.0
 40
2.25
100
AcDbArc
 50
90.0
 51
270.0
  0
ARC
  5
12A
100
AcDbEntity
  8
0
 62
256
370
-1
 48
1.0
  6
ByLayer
100
AcDbCircle
 10
137.5
 20
-55.3999999999999631
 30
0.0
 40
2.25
100
AcDbArc
 50
270.0
 51
90.0
  0
ARC
  5
12B
100
AcDbEntity
  8
0
 62
256
370
-1
 48
1.0
  6
ByLayer
100
AcDbCircle
 10
137.4999999999918714
 20
21.1000000000001151
 30
0.0
 40
2.25
100
AcDbArc
 50
270.0
 51
90.0
  0
ARC
  5
12C
100
AcDbEntity
  8
0
 62
256
370
-1
 48
1.0
  6
ByLayer
100
AcDbCircle
 10
25.0000000000000675
 20
59.9000000000008868
 30
0.0
 40
2.25
100
AcDbArc
 50
90.0
 51
270.0
  0
ARC
  5
12D
100
AcDbEntity
  8
0
 62
256
370
-1
 48
1.0
  6
ByLayer
100
AcDbCircle
 10
137.4999999999919567
 20
98.6999999999996191
 30
0.0
 40
2.25
100
AcDbArc
 50
270.0
 51
90.0
  0
LINE
  5
12E
100
AcDbEntity
  8
0
 62
256
370
-1
 48
1.0
  6
ByLayer
100
AcDbLine
 10
137.5
 20
-57.6499999999999915
 30
0.0
 11
131.5
 21
-57.6500000000000199
 31
0.0
  0
LINE
  5
12F
100
AcDbEntity
  8
0
 62
256
370
-1
 48
1.0
  6
ByLayer
100
AcDbLine
 10
137.4999999999918714
 20
18.8499999999999162
 30
0.0
 11
131.4999999999918714
 21
18.8499999999999304
 31
0.0
  0
LINE
  5
130
100
AcDbEntity
  8
0
 62
256
370
-1
 48
1.0
  6
ByLayer
100
AcDbLine
 10
25.0000000000000142
 20
57.6499999999999559
 30
0.0
 11
31.0000000000000107
 21
57.6500000000000767
 31
0.0
  0
LINE
  5
131
100
AcDbEntity
  8
0
 62
256
370
-1
 48
1.0
  6
ByLayer
100
AcDbLine
 10
137.4999999999919282
 20
100.9499999999995907
 30
0.0
 11
131.4999999999918998
 21
100.9499999999996191
 31
0.0
  0
LINE
  5
132
100
AcDbEntity
  8
0
 62
256
370
-1
 48
1.0
  6
ByLayer
100
AcDbLine
 10
131.4999999999999716
 20
-53.1500000000000199
 30
0.0
 11
137.5
 21
-53.1499999999999773
 31
0.0
  0
LINE
  5
133
100
AcDbEntity
  8
0
 62
256
370
-1
 48
1.0
  6
ByLayer
100
AcDbLine
 10
131.4999999999918998
 20
23.3499999999999268
 30
0.0
 11
137.4999999999918714
 21
23.3500000000000298
 31
0.0
  0
LINE
  5
134
100
AcDbEntity
  8
0
 62
256
370
-1
 48
1.0
  6
ByLayer
100
AcDbLine
 10
31.0000000000000462
 20
62.1500000000000057
 30
0.0
 11
24.9999999999999929
 21
62.150000000000432
 31
0.0
  0
LINE
  5
135
100
AcDbEntity
  8
0
 62
256
370
-1
 48
1.0
  6
ByLayer
100
AcDbLine
 10
131.4999999999918714
 20
96.4499999999997044
 30
0.0
 11
137.4999999999918714
 21
96.4499999999997044
 31
0.0
  0
LINE
  5
136
100
AcDbEntity
  8
0
 62
256
370
-1
 48
1.0
  6
CENTERX2
100
AcDbLine
 10
150.5
 20
-65.9000000000000057
 30
0.0
 11
150.5
 21
-44.8999999999999559
 31
0.0
  0
LINE
  5
137
100
AcDbEntity
  8
0
 62
256
370
-1
 48
1.0
  6
CENTERX2
100
AcDbLine
 10
150.4999999999918998
 20
10.5999999999997421
 30
0.0
 11
150.4999999999918998
 21
31.5999999999998344
 31
0.0
  0
LINE
  5
138
100
AcDbEntity
  8
0
 62
256
370
-1
 48
1.0
  6
CENTERX2
100
AcDbLine
 10
12.0000000000000409
 20
49.3999999999999702
 30
0.0
 11
12.0000000000000568
 21
70.3999999999997499
 31
0.0
  0
LINE
  5
139
100
AcDbEntity
  8
0
 62
256
370
-1
 48
1.0
  6
CENTERX2
100
AcDbLine
 10
150.4999999999919567
 20
109.1999999999995623
 30
0.0
 11
150.4999999999918998
 21
88.1999999999997328
 31
0.0
  0
CIRCLE
  5
13A
100
AcDbEntity
  8
0
 62
256
370
-1
 48
1.0
  6
ByLayer
100
AcDbCircle
 10
150.5
 20
-55.4000000000000057
 30
0.0
 40
3.0
  0
CIRCLE
  5
13B
100
AcDbEntity
  8
0
 62
256
370
-1
 48
1.0
  6
ByLayer
100
AcDbCircle
 10
150.4999999999918714
 20
21.0999999999998558
 30
0.0
 40
3.0
  0
CIRCLE
  5
13C
100
AcDbEntity
  8
0
 62
256
370
-1
 48
1.0
  6
ByLayer
100
AcDbCircle
 10
12.0000000000000178
 20
59.8999999999976467
 30
0.0
 40
3.0
  0
CIRCLE
  5
13D
100
AcDbEntity
  8
0
 62
256
370
-1
 48
1.0
  6
ByLayer
100
AcDbCircle
 10
150.4999999999919567
 20
98.699999999999676
 30
0.0
 40
3.0
  0
LINE
  5
13E
100
AcDbEntity
  8
0
 62
30
420
16744192
370
-1
 48
1.0
  6
ByLayer
100
AcDbLine
 10
0.0000000011142636
 20
15.8000000000000114
 30
0.0
 11
0.0000000011142748
 21
21.8000000000000114
 31
0.0
  0
LINE
  5
13F
100
AcDbEntity
  8
0
 62
30
420
16744192
370
-1
 48
1.0
  6
ByLayer
100
AcDbLine
 10
162.4999999988776835
 20
54.5999999999997172
 30
0.0
 11
162.4999999988776551
 21
60.5999999999987367
 31
0.0
  0
LINE
  5
140
100
AcDbEntity
  8
0
 62
30
420
16744192
370
-1
 48
1.0
  6
ByLayer
100
AcDbLine
 10
0.000000001114305
 20
103.9999999999997442
 30
0.0
 11
0.0000000011143422
 21
97.9999999999997726
 31
0.0
  0
LINE
  5
141
100
AcDbEntity
  8
0
 62
30
420
16744192
370
-1
 48
1.0
  6
ByLayer
100
AcDbLine
 10
0.0000000011142748
 20
21.8000000000000114
 30
0.0
 11
0.0000000011142748
 21
21.7999999999999972
 31
0.0
  0
LINE
  5
142
100
AcDbEntity
  8
0
 62
30
420
16744192
370
-1
 48
1.0
  6
ByLayer
100
AcDbLine
 10
162.4999999988776551
 20
60.5999999999987367
 30
0.0
 11
162.4999999988776551
 21
60.5999999999987367
 31
0.0
  0
LINE
  5
143
100
AcDbEntity
  8
0
 62
30
420
16744192
370
-1
 48
1.0
  6
ByLayer
100
AcDbLine
 10
0.0000000011143422
 20
97.9999999999997726
 30
0.0
 11
0.0000000011143422
 21
97.9999999999997726
 31
0.0
  0
LINE
  5
144
100
AcDbEntity
  8
0
 62
256
370
-1
 48
1.0
  6
ByLayer
100
AcDbLine
 10
12.0000000000000728
 20
59.8999999999998565
 30
0.0
 11
28.0000000000000711
 21
59.9000000000000625
 31
0.0
  0
ARC
  5
145
100
AcDbEntity
  8
0
 62
30
420
16744192
370
-1
 48
1.0
  6
ByLayer
100
AcDbCircle
 10
1.0000000000000435
 20
118.7999999999997556
 30
0.0
 40
1.0
100
AcDbArc
 50
90.0000000000000568
 51
180.0
  0
ARC
  5
146
100
AcDbEntity
  8
0
 62
30
420
16744192
370
-1
 48
1.0
  6
ByLayer
100
AcDbCircle
 10
70.0000000000000568
 20
118.7999999999996703
 30
0.0
 40
1.0
100
AcDbArc
 50
0.0
 51
90.0
  0
ARC
  5
147
100
AcDbEntity
  8
0
 62
30
420
16744192
370
-1
 48
1.0
  6
ByLayer
100
AcDbCircle
 10
70.0000000011143158
 20
78.399999999999622
 30
0.0
 40
1.0
100
AcDbArc
 50
270.0
 51
0.0
  0
ARC
  5
148
100
AcDbEntity
  8
0
 62
30
420
16744192
370
-1
 48
1.0
  6
ByLayer
100
AcDbCircle
 10
1.0000000011142507
 20
78.3999999999997215
 30
0.0
 40
1.0
100
AcDbArc
 50
180.0
 51
269.9999999999996589
  0
ARC
  5
149
100
AcDbEntity
  8
0
 62
30
420
16744192
370
-1
 48
1.0
  6
ByLayer
100
AcDbCircle
 10
1.0000000011142665
 20
41.4000000000000341
 30
0.0
 40
1.0
100
AcDbArc
 50
89.9999999999996163
 51
180.0
  0
ARC
  5
14A
100
AcDbEntity
  8
0
 62
30
420
16744192
370
-1
 48
1.0
  6
ByLayer
100
AcDbCircle
 10
70.0000000011142731
 20
41.4000000000000057
 30
0.0
 40
1.0
100
AcDbArc
 50
360.0
 51
90.0
  0
ARC
  5
14B
100
AcDbEntity
  8
0
 62
30
420
16744192
370
-1
 48
1.0
  6
ByLayer
100
AcDbCircle
 10
70.0
 20
0.9999999999999899
 30
0.0
 40
1.0
100
AcDbArc
 50
270.0
 51
360.0
  0
ARC
  5
14C
100
AcDbEntity
  8
0
 62
30
420
16744192
370
-1
 48
1.0
  6
ByLayer
100
AcDbCircle
 10
1.0000000000000075
 20
1.0000000000000069
 30
0.0
 40
1.0
100
AcDbArc
 50
180.0
 51
270.0000000000003979
  0
ARC
  5
14D
100
AcDbEntity
  8
0
 62
30
420
16744192
370
-1
 48
1.0
  6
ByLayer
100
AcDbCircle
 10
92.4999999988776551
 20
80.1999999999999602
 30
0.0
 40
1.0
100
AcDbArc
 50
90.0
 51
180.0
  0
ARC
  5
14E
100
AcDbEntity
  8
0
 62
30
420
16744192
370
-1
 48
1.0
  6
ByLayer
100
AcDbCircle
 10
161.4999999988776267
 20
80.199999999999946
 30
0.0
 40
1.0
100
AcDbArc
 50
0.0
 51
90.0
  0
ARC
  5
14F
100
AcDbEntity
  8
0
 62
30
420
16744192
370
-1
 48
1.0
  6
ByLayer
100
AcDbCircle
 10
161.4999999999918998
 20
39.7999999999999829
 30
0.0
 40
1.0
100
AcDbArc
 50
270.0000000000016485
 51
360.0
  0
ARC
  5
150
100
AcDbEntity
  8
0
 62
30
420
16744192
370
-1
 48
1.0
  6
ByLayer
100
AcDbCircle
 10
92.4999999999918714
 20
39.7999999999999972
 30
0.0
 40
1.0
100
AcDbArc
 50
180.0
 51
270.0
  0
ENDSEC
  0
SECTION
  2
OBJECTS
  0
DICTIONARY
  5
C
100
AcDbDictionary
280
0
281
1
  3
ACAD_GROUP
350
D
  3
ACAD_LAYOUT
350
1A
  3
ACAD_MLINESTYLE
350
17
  3
ACAD_PLOTSETTINGS
350
19
  3
ACAD_PLOTSTYLENAME
350
E
  3
AcDbVariableDictionary
350
151
  3
QCAD_OBJECTS
350
152
  0
DICTIONARY
  5
D
100
AcDbDictionary
280
0
281
1
  0
ACDBDICTIONARYWDFLT
  5
E
100
AcDbDictionary
281
1
  3
Normal
350
F
100
AcDbDictionaryWithDefault
340
F
  0
ACDBPLACEHOLDER
  5
F
  0
DICTIONARY
  5
17
100
AcDbDictionary
280
0
281
1
  3
Standard
350
18
  0
MLINESTYLE
  5
18
100
AcDbMlineStyle
  2
STANDARD
 70
0
  3

 62
256
 51
90.0
 52
90.0
 71
2
 49
0.5
 62
256
  6
BYLAYER
 49
-0.5
 62
256
  6
BYLAYER
  0
DICTIONARY
  5
19
100
AcDbDictionary
280
0
281
1
  0
DICTIONARY
  5
1A
100
AcDbDictionary
281
1
  3
Layout1
350
1E
  3
Layout2
350
26
  3
Model
350
22
  0
LAYOUT
  5
1E
100
AcDbPlotSettings
  1

  2
none_device
  4

  6

 40
0.0
 41
0.0
 42
0.0
 43
0.0
 44
0.0
 45
0.0
 46
0.0
 47
0.0
 48
0.0
 49
0.0
140
0.0
141
0.0
142
1.0
143
1.0
 70
688
 72
0
 73
0
 74
5
  7

 75
16
147
1.0
148
0.0
149
0.0
100
AcDbLayout
  1
Layout1
 70
1
 71
1
 10
0.0
 20
0.0
 11
420.0
 21
297.0
 12
0.0
 22
0.0
 32
0.0
 14
100000000000000000000.0
 24
100000000000000000000.0
 34
100000000000000000000.0
 15
-100000000000000000000.0
 25
-100000000000000000000.0
 35
-100000000000000000000.0
146
0.0
 13
0.0
 23
0.0
 33
0.0
 16
1.0
 26
0.0
 36
0.0
 17
0.0
 27
1.0
 37
0.0
 76
0
330
1B
  0
LAYOUT
  5
22
100
AcDbPlotSettings
  1

  2
none_device
  4

  6

 40
0.0
 41
0.0
 42
0.0
 43
0.0
 44
0.0
 45
0.0
 46
0.0
 47
0.0
 48
0.0
 49
0.0
140
0.0
141
0.0
142
1.0
143
1.0
 70
1712
 72
0
 73
0
 74
0
  7

 75
0
147
1.0
148
0.0
149
0.0
100
AcDbLayout
  1
Model
 70
1
 71
0
 10
0.0
 20
0.0
 11
12.0
 21
9.0
 12
0.0
 22
0.0
 32
0.0
 14
0.0
 24
0.0
 34
0.0
 15
0.0
 25
0.0
 35
0.0
146
0.0
 13
0.0
 23
0.0
 33
0.0
 16
1.0
 26
0.0
 36
0.0
 17
0.0
 27
1.0
 37
0.0
 76
0
330
1F
  0
LAYOUT
  5
26
100
AcDbPlotSettings
  1

  2
none_device
  4

  6

 40
0.0
 41
0.0
 42
0.0
 43
0.0
 44
0.0
 45
0.0
 46
0.0
 47
0.0
 48
0.0
 49
0.0
140
0.0
141
0.0
142
1.0
143
1.0
 70
688
 72
0
 73
0
 74
5
  7

 75
16
147
1.0
148
0.0
149
0.0
100
AcDbLayout
  1
Layout2
 70
1
 71
2
 10
0.0
 20
0.0
 11
12.0
 21
9.0
 12
0.0
 22
0.0
 32
0.0
 14
0.0
 24
0.0
 34
0.0
 15
0.0
 25
0.0
 35
0.0
146
0.0
 13
0.0
 23
0.0
 33
0.0
 16
1.0
 26
0.0
 36
0.0
 17
0.0
 27
1.0
 37
0.0
 76
0
330
23
  0
DICTIONARY
  5
151
100
AcDbDictionary
281
1
  3
DIMASSOC
350
154
  3
HIDETEXT
350
153
  0
DICTIONARYVAR
  5
153
100
DictionaryVariables
280
0
  1
2
  0
DICTIONARYVAR
  5
154
100
DictionaryVariables
280
0
  1
1
  0
DICTIONARY
  5
152
100
AcDbDictionary
281
1
  3
ColorSettings/BackgroundColor
350
155
  3
ColorSettings/ColorMode
350
156
  3
DimensionSettings/AngularFormat
350
157
  3
DimensionSettings/AngularPrecision
350
158
  3
DimensionSettings/DecimalPoint
350
159
  3
DimensionSettings/DimensionFont
350
15A
  3
DimensionSettings/KeepProportions
350
15B
  3
DimensionSettings/LinearFormat
350
15C
  3
DimensionSettings/LinearPrecision
350
15D
  3
Grid/DisplayGrid00
350
15E
  3
Grid/DisplayGrid01
350
15F
  3
Grid/DisplayGrid02
350
160
  3
Grid/DisplayGrid03
350
161
  3
Grid/GridSpacingX00
350
162
  3
Grid/GridSpacingX01
350
163
  3
Grid/GridSpacingX02
350
164
  3
Grid/GridSpacingX03
350
165
  3
Grid/GridSpacingY00
350
166
  3
Grid/GridSpacingY01
350
167
  3
Grid/GridSpacingY02
350
168
  3
Grid/GridSpacingY03
350
169
  3
Grid/IsometricGrid00
350
16A
  3
Grid/IsometricGrid01
350
16B
  3
Grid/IsometricGrid02
350
16C
  3
Grid/IsometricGrid03
350
16D
  3
Grid/IsometricProjection00
350
16E
  3
Grid/IsometricProjection01
350
16F
  3
Grid/IsometricProjection02
350
170
  3
Grid/IsometricProjection03
350
171
  3
Grid/MetaGridSpacingX00
350
172
  3
Grid/MetaGridSpacingX01
350
173
  3
Grid/MetaGridSpacingX02
350
174
  3
Grid/MetaGridSpacingX03
350
175
  3
Grid/MetaGridSpacingY00
350
176
  3
Grid/MetaGridSpacingY01
350
177
  3
Grid/MetaGridSpacingY02
350
178
  3
Grid/MetaGridSpacingY03
350
179
  3
MultiPageSettings/Columns
350
17A
  3
MultiPageSettings/GlueMarginsBottom
350
17B
  3
MultiPageSettings/GlueMarginsLeft
350
17C
  3
MultiPageSettings/GlueMarginsRight
350
17D
  3
MultiPageSettings/GlueMarginsTop
350
17E
  3
MultiPageSettings/PrintCropMarks
350
17F
  3
MultiPageSettings/Rows
350
180
  3
PageSettings/OffsetX
350
181
  3
PageSettings/OffsetY
350
182
  3
PageSettings/PageOrientation
350
183
  3
PageSettings/PaperHeight
350
184
  3
PageSettings/PaperWidth
350
185
  3
PageSettings/Scale
350
186
  3
PageSettings/ShowPaperBorders
350
187
  3
QCADVersion
350
188
  3
UnitSettings/PaperUnit
350
189
  3
ViewportCenter
350
18A
  3
ViewportHeight
350
18B
  3
ViewportWidth
350
18C
  0
XRECORD
  5
155
330
152
100
AcDbXrecord
280
1
1000
White
  0
XRECORD
  5
156
330
152
100
AcDbXrecord
280
1
1000
FullColor
  0
XRECORD
  5
157
330
152
100
AcDbXrecord
280
1
 90
0
  0
XRECORD
  5
158
330
152
100
AcDbXrecord
280
1
 90
0
  0
XRECORD
  5
159
330
152
100
AcDbXrecord
280
1
 90
46
  0
XRECORD
  5
15A
330
152
100
AcDbXrecord
280
1
1000
Noto Sans
  0
XRECORD
  5
15B
330
152
100
AcDbXrecord
280
1
290
0
  0
XRECORD
  5
15C
330
152
100
AcDbXrecord
280
1
 90
2
  0
XRECORD
  5
15D
330
152
100
AcDbXrecord
280
1
 90
4
  0
XRECORD
  5
15E
330
152
100
AcDbXrecord
280
1
290
1
  0
XRECORD
  5
15F
330
152
100
AcDbXrecord
280
1
290
1
  0
XRECORD
  5
160
330
152
100
AcDbXrecord
280
1
290
1
  0
XRECORD
  5
161
330
152
100
AcDbXrecord
280
1
290
1
  0
XRECORD
  5
162
330
152
100
AcDbXrecord
280
1
1000
auto
  0
XRECORD
  5
163
330
152
100
AcDbXrecord
280
1
1000
auto
  0
XRECORD
  5
164
330
152
100
AcDbXrecord
280
1
1000
auto
  0
XRECORD
  5
165
330
152
100
AcDbXrecord
280
1
1000
auto
  0
XRECORD
  5
166
330
152
100
AcDbXrecord
280
1
1000
auto
  0
XRECORD
  5
167
330
152
100
AcDbXrecord
280
1
1000
auto
  0
XRECORD
  5
168
330
152
100
AcDbXrecord
280
1
1000
auto
  0
XRECORD
  5
169
330
152
100
AcDbXrecord
280
1
1000
auto
  0
XRECORD
  5
16A
330
152
100
AcDbXrecord
280
1
290
0
  0
XRECORD
  5
16B
330
152
100
AcDbXrecord
280
1
290
0
  0
XRECORD
  5
16C
330
152
100
AcDbXrecord
280
1
290
0
  0
XRECORD
  5
16D
330
152
100
AcDbXrecord
280
1
290
0
  0
XRECORD
  5
16E
330
152
100
AcDbXrecord
280
1
 90
65537
  0
XRECORD
  5
16F
330
152
100
AcDbXrecord
280
1
 90
65537
  0
XRECORD
  5
170
330
152
100
AcDbXrecord
280
1
 90
65537
  0
XRECORD
  5
171
330
152
100
AcDbXrecord
280
1
 90
65537
  0
XRECORD
  5
172
330
152
100
AcDbXrecord
280
1
1000
auto
  0
XRECORD
  5
173
330
152
100
AcDbXrecord
280
1
1000
auto
  0
XRECORD
  5
174
330
152
100
AcDbXrecord
280
1
1000
auto
  0
XRECORD
  5
175
330
152
100
AcDbXrecord
280
1
1000
auto
  0
XRECORD
  5
176
330
152
100
AcDbXrecord
280
1
1000
auto
  0
XRECORD
  5
177
330
152
100
AcDbXrecord
280
1
1000
auto
  0
XRECORD
  5
178
330
152
100
AcDbXrecord
280
1
1000
auto
  0
XRECORD
  5
179
330
152
100
AcDbXrecord
280
1
1000
auto
  0
XRECORD
  5
17A
330
152
100
AcDbXrecord
280
1
 90
1
  0
XRECORD
  5
17B
330
152
100
AcDbXrecord
280
1
 40
10.0
  0
XRECORD
  5
17C
330
152
100
AcDbXrecord
280
1
 40
10.0
  0
XRECORD
  5
17D
330
152
100
AcDbXrecord
280
1
 40
10.0
  0
XRECORD
  5
17E
330
152
100
AcDbXrecord
280
1
 40
10.0
  0
XRECORD
  5
17F
330
152
100
AcDbXrecord
280
1
290
0
  0
XRECORD
  5
180
330
152
100
AcDbXrecord
280
1
 90
1
  0
XRECORD
  5
181
330
152
100
AcDbXrecord
280
1
 40
0.0
  0
XRECORD
  5
182
330
152
100
AcDbXrecord
280
1
 40
0.0
  0
XRECORD
  5
183
330
152
100
AcDbXrecord
280
1
1000
Portrait
  0
XRECORD
  5
184
330
152
100
AcDbXrecord
280
1
 40
297.0
  0
XRECORD
  5
185
330
152
100
AcDbXrecord
280
1
 40
210.0
  0
XRECORD
  5
186
330
152
100
AcDbXrecord
280
1
1000
1:1
  0
XRECORD
  5
187
330
152
100
AcDbXrecord
280
1
290
1
  0
XRECORD
  5
188
330
152
100
AcDbXrecord
280
1
1000
3.19.2.3
  0
XRECORD
  5
189
330
152
100
AcDbXrecord
280
1
 90
4
  0
XRECORD
  5
18B
330
152
100
AcDbXrecord
280
1
 40
195.9523902451020376
  0
XRECORD
  5
18C
330
152
100
AcDbXrecord
280
1
 40
364.0881951241801175
  0
ENDSEC
  0
EOF
