0
SECTION
2
HEADER
9
$ANGDIR
70
0
9
$CHAMFERA
40
10
9
$CHAMFERB
40
10
9
$CLAYER
8
Layer_1
9
$EXTMAX
10
93.454831382363196
20
54.761075041802698
9
$EXTMIN
10
-102.82060693949025
20
-78.45837288138658
9
$LIMMAX
10
420
20
297
9
$LIMMIN
10
-102.82060693949025
20
-78.45837288138658
9
$LTSCALE
40
10
9
$PLINEGEN
70
0
9
$TEXTSIZE
40
20
9
$GRIDUNIT
10
10
20
10
9
$SNAPUNIT
10
0.20000000000000001
20
0.20000000000000001
0
ENDSEC
0
SECTION
2
TABLES
0
TABLE
2
STYLE
70
1
0
STYLE
2
STANDARD
70
0
40
0
41
1
50
0
71
0
42
0.20000000000000001
3
txt
4

0
ENDTAB
0
TABLE
2
LTYPE
70
14
0
LTYPE
2
CONTINUOUS
70
0
3
Solid line
72
65
73
0
40
0
0
LTYPE
2
DOT
70
0
3
............................................
72
65
73
2
40
0.25
49
0
49
-0.25
0
LTYPE
2
HIDDEN
70
0
3
_ _ _ _ _ _ _ _ _ _ _ _ _ _ _ _ _ _ _ _ _ _ 
72
65
73
2
40
0.375
49
0.25
49
-0.125
0
LTYPE
2
TSLONGDASH
70
0
3
__ __ __ __ __ __ __ __ __ __ __ __ __ __ _ 
72
65
73
2
40
1.28
49
1
49
-0.28000000000000003
0
LTYPE
2
TSDASHDOT
70
0
3
______ . ______ . ______ . ______ . ______ .
72
65
73
4
40
1.28
49
1
49
-0.14000000000000001
49
0
49
-0.14000000000000001
0
LTYPE
2
TSCENTER
70
0
3
______ _ ______ _ ______ _ ______ _ ______ _
72
65
73
4
40
2
49
1.5
49
-0.17999999999999999
49
0.14000000000000001
49
-0.17999999999999999
0
LTYPE
2
TSPHANTOM
70
0
3
_____ _ _ _____ _ _ _____ _ _ _____ _ _ ____
72
65
73
6
40
2.5
49
1.6299999999999999
49
-0.19
49
0.14999999999999999
49
-0.19
49
0.14999999999999999
49
-0.19
0
LTYPE
2
DASHED
70
0
3
__ __ __ __ __ __ __ __ __ __ __ __ __ __ __
72
65
73
2
40
0.75
49
0.5
49
-0.25
0
LTYPE
2
CENTER
70
0
3
____ _ ____ _ ____ _ ____ _ ____ _ ____ _ __
72
65
73
4
40
2
49
1.25
49
-0.25
49
0.25
49
-0.25
0
LTYPE
2
PHANTOM
70
0
3
_____ _ _ _____ _ _ _____ _ _ _____ _ _ ____
72
65
73
6
40
2.5
49
1.25
49
-0.25
49
0.25
49
-0.25
49
0.25
49
-0.25
0
LTYPE
2
DASHDOT
70
0
3
__ . __ . __ . __ . __ . __ . __ . __ . __ .
72
65
73
4
40
1
49
0.5
49
-0.25
49
0
49
-0.25
0
LTYPE
2
BORDER
70
0
3
__ __ . __ __ . __ __ . __ __ . __ __ . __ _
72
65
73
6
40
1.75
49
0.5
49
-0.25
49
0.5
49
-0.25
49
0
49
-0.25
0
LTYPE
2
DIVIDE
70
0
3
__ . . __ . . __ . . __ . . __ . . __ . . __
72
65
73
6
40
1.25
49
0.5
49
-0.25
49
0
49
-0.25
49
0
49
-0.25
0
ENDTAB
0
TABLE
2
LAYER
70
3
0
LAYER
2
Layer_1
70
0
62
7
6
CONTINUOUS
0
LAYER
2
Layer_2
70
0
62
7
6
CONTINUOUS
0
LAYER
2
Layer_3
70
0
62
7
6
CONTINUOUS
0
ENDTAB
0
ENDSEC
0
SECTION
2
ENTITIES
0
LINE
8
Layer_1
6
CONTINUOUS
62
7
10
-55.000000000325485
20
-23.499999999595932
11
-54.999999998215344
21
23.500000000404071
0
ARC
8
Layer_1
6
CONTINUOUS
62
7
10
-46.000000000325485
20
-23.5
40
9
50
180
51
270
0
LINE
8
Layer_1
6
CONTINUOUS
62
7
10
45.999999999270429
20
-32.5
11
-46.000000000325485
21
-32.5
0
ARC
8
Layer_1
6
CONTINUOUS
62
7
10
45.999999999270443
20
-23.5
40
9
50
270
51
0
0
LINE
8
Layer_1
6
CONTINUOUS
62
7
10
54.999999999270443
20
23.499999999999986
11
54.999999999270443
21
-23.5
0
LINE
8
Layer_1
6
CONTINUOUS
62
7
10
-45.999999998215351
20
32.499999999999986
11
45.999999999270443
21
32.5
0
ARC
8
Layer_1
6
CONTINUOUS
62
7
10
45.999999999270429
20
23.499999999999986
40
9.0000000000000142
50
0
51
90
0
ARC
8
Layer_1
6
CONTINUOUS
62
7
10
-45.999999998215344
20
23.5
40
8.9999999999999858
50
90
51
180
0
LINE
8
Layer_1
6
TSCENTER
62
7
10
-0.000000000527535348737729
20
-32.5
11
0.000000000527549559592444
21
32.5
0
LINE
8
Layer_1
6
TSCENTER
62
7
10
-54.999999999270415
20
0.000000000404071442972054
11
54.999999999270443
21
-0.000000000000007105427358
0
LINE
8
Layer_1
6
TSCENTER
62
7
10
-46.49999999947245
20
32.500000004175376
11
-46.500000000527535
21
-32.499999995824616
0
LINE
8
Layer_1
6
TSCENTER
62
7
10
46.50000000052755
20
32.5
11
46.499999999472465
21
-32.5
0
LINE
8
Layer_1
6
TSCENTER
62
7
10
-54.999999998192898
20
24.000000000404071
11
55.000000000347967
21
24
0
LINE
8
Layer_1
6
TSCENTER
62
7
10
55.000000000347967
20
-24.000000000000007
11
-54.999999998192898
21
-23.999999999595929
0
CIRCLE
8
Layer_1
6
CONTINUOUS
62
7
10
46.500000000389576
20
24.000000000031221
40
3.25
0
CIRCLE
8
Layer_1
6
CONTINUOUS
62
7
10
46.500000000389576
20
24.000000000031221
40
5.4500000000000028
0
CIRCLE
8
Layer_1
6
CONTINUOUS
62
7
10
-46.499999999610424
20
24.000000000372836
40
3.25
0
CIRCLE
8
Layer_1
6
CONTINUOUS
62
7
10
-46.499999999610424
20
24.000000000372836
40
5.4500000000000028
0
CIRCLE
8
Layer_1
6
CONTINUOUS
62
7
10
46.500000000389548
20
-24.000000000031235
40
3.2499999999999716
0
CIRCLE
8
Layer_1
6
CONTINUOUS
62
7
10
46.500000000389548
20
-24.000000000031235
40
5.4499999999999744
0
CIRCLE
8
Layer_1
6
CONTINUOUS
62
7
10
-46.499999999610431
20
-24.000000000372822
40
3.2499999999999929
0
CIRCLE
8
Layer_1
6
CONTINUOUS
62
7
10
-46.499999999610431
20
-24.000000000372822
40
5.4499999999999957
0
CIRCLE
8
Layer_1
6
CONTINUOUS
62
30
10
23.800000000384699
20
23.700000000000003
40
2
0
CIRCLE
8
Layer_1
6
CONTINUOUS
62
30
10
0.000000000384702047995233
20
23.700000000000003
40
2
0
CIRCLE
8
Layer_1
6
CONTINUOUS
62
30
10
-23.799999999615295
20
23.700000000000003
40
2
0
LINE
8
Layer_1
6
CONTINUOUS
62
30
10
-35.500000000729557
20
29.5
11
-35.500000000729557
21
23.5
0
LINE
8
Layer_1
6
CONTINUOUS
62
30
10
-35.500000000729557
20
29.5
11
35.499999999270443
21
29.5
0
LINE
8
Layer_1
6
CONTINUOUS
62
30
10
35.499999999270443
20
29.5
11
35.499999999270443
21
23.5
0
LINE
8
Layer_1
6
CONTINUOUS
62
30
10
-35.500000000729557
20
23.5
11
-32.728718709577144
21
18.700000000000003
0
LINE
8
Layer_1
6
CONTINUOUS
62
30
10
35.499999999270443
20
23.5
11
32.728718708118038
21
18.700000000000003
0
LINE
8
Layer_1
6
CONTINUOUS
62
30
10
-32.728718709577144
20
18.700000000000003
11
32.728718708118038
21
18.700000000000003
0
CIRCLE
8
Layer_1
6
CONTINUOUS
62
30
10
23.799999999876505
20
-23.5
40
2
0
CIRCLE
8
Layer_1
6
CONTINUOUS
62
30
10
-0.000000000123463905765675
20
-23.5
40
2
0
CIRCLE
8
Layer_1
6
CONTINUOUS
62
30
10
-23.800000000123475
20
-23.5
40
2
0
LINE
8
Layer_1
6
CONTINUOUS
62
30
10
-35.500000001237723
20
-29.299999999999997
11
-35.500000001237723
21
-23.299999999999997
0
LINE
8
Layer_1
6
CONTINUOUS
62
30
10
-35.500000001237723
20
-29.299999999999997
11
35.499999998762277
21
-29.299999999999997
0
LINE
8
Layer_1
6
CONTINUOUS
62
30
10
35.499999998762277
20
-29.299999999999997
11
35.499999998762277
21
-23.299999999999997
0
LINE
8
Layer_1
6
CONTINUOUS
62
30
10
-35.500000001237723
20
-23.299999999999997
11
-32.72871871008531
21
-18.5
0
LINE
8
Layer_1
6
CONTINUOUS
62
30
10
35.499999998762277
20
-23.299999999999997
11
32.728718707609872
21
-18.5
0
LINE
8
Layer_1
6
CONTINUOUS
62
30
10
-32.72871871008531
20
-18.5
11
32.728718707609872
21
-18.5
0
CIRCLE
8
Layer_1
6
CONTINUOUS
62
30
10
23.799999999991883
20
-0.5
40
2
0
CIRCLE
8
Layer_1
6
CONTINUOUS
62
30
10
-0.000000000008114398042380
20
-0.5
40
2
0
CIRCLE
8
Layer_1
6
CONTINUOUS
62
30
10
-23.800000000008112
20
-0.5
40
2
0
LINE
8
Layer_1
6
CONTINUOUS
62
30
10
-35.500000001122373
20
5.2999999999999972
11
-35.500000001122373
21
-0.70000000000000284
0
LINE
8
Layer_1
6
CONTINUOUS
62
30
10
-35.500000001122373
20
5.2999999999999972
11
35.499999998877627
21
5.2999999999999972
0
LINE
8
Layer_1
6
CONTINUOUS
62
30
10
35.499999998877627
20
5.2999999999999972
11
35.499999998877627
21
-0.70000000000000284
0
LINE
8
Layer_1
6
CONTINUOUS
62
30
10
-35.500000001122373
20
-0.70000000000000284
11
-32.728718709969961
21
-5.5
0
LINE
8
Layer_1
6
CONTINUOUS
62
30
10
35.499999998877627
20
-0.70000000000000284
11
32.728718707725221
21
-5.5
0
LINE
8
Layer_1
6
CONTINUOUS
62
30
10
-32.728718709969961
20
-5.5
11
32.728718707725221
21
-5.5
0
POLYLINE
8
Layer_1
6
CONTINUOUS
62
5
66
1
10
0
20
0
70
129
40
0
41
0
0
VERTEX
8
Layer_1
6
CONTINUOUS
62
5
10
-40.399999999683487
20
12.899999999999995
0
VERTEX
8
Layer_1
6
CONTINUOUS
62
5
10
-52.599999999683483
20
12.899999999999995
0
VERTEX
8
Layer_1
6
CONTINUOUS
62
5
10
-52.599999999683483
20
6.6999999999999957
0
VERTEX
8
Layer_1
6
CONTINUOUS
62
5
10
-40.399999999683487
20
6.6999999999999957
0
VERTEX
8
Layer_1
6
CONTINUOUS
62
5
10
-40.399999999683487
20
12.899999999999995
0
SEQEND
0
POLYLINE
8
Layer_1
6
CONTINUOUS
62
5
66
1
10
0
20
0
70
129
40
0
41
0
0
VERTEX
8
Layer_1
6
CONTINUOUS
62
5
10
-40.400000000000006
20
-6.6000000000000014
0
VERTEX
8
Layer_1
6
CONTINUOUS
62
5
10
-52.600000000000001
20
-6.6000000000000014
0
VERTEX
8
Layer_1
6
CONTINUOUS
62
5
10
-52.600000000000001
20
-12.800000000000001
0
VERTEX
8
Layer_1
6
CONTINUOUS
62
5
10
-40.400000000000006
20
-12.800000000000001
0
VERTEX
8
Layer_1
6
CONTINUOUS
62
5
10
-40.400000000000006
20
-6.6000000000000014
0
SEQEND
0
ENDSEC
0
EOF
