0
SECTION
2
HEADER
9
$ANGDIR
70
0
9
$CHAMFERA
40
10
9
$CHAMFERB
40
10
9
$CLAYER
8
Layer_1
9
$EXTMAX
10
183.01300000000001
20
110
9
$EXTMIN
10
55
20
-110
9
$LIMMAX
10
420
20
297
9
$LIMMIN
10
0
20
-110
9
$LTSCALE
40
10
9
$PLINEGEN
70
0
9
$TEXTSIZE
40
20
9
$GRIDUNIT
10
10
20
10
9
$SNAPUNIT
10
1
20
1
0
ENDSEC
0
SECTION
2
TABLES
0
TABLE
2
STYLE
70
1
0
STYLE
2
STANDARD
70
0
40
0
41
1
50
0
71
0
42
0.20000000000000001
3
txt
4

0
ENDTAB
0
TABLE
2
LTYPE
70
14
0
LTYPE
2
CONTINUOUS
70
0
3
Solid line
72
65
73
0
40
0
0
LTYPE
2
DOT
70
0
3
............................................
72
65
73
2
40
0.25
49
0
49
-0.25
0
LTYPE
2
HIDDEN
70
0
3
_ _ _ _ _ _ _ _ _ _ _ _ _ _ _ _ _ _ _ _ _ _ 
72
65
73
2
40
0.375
49
0.25
49
-0.125
0
LTYPE
2
TSLONGDASH
70
0
3
__ __ __ __ __ __ __ __ __ __ __ __ __ __ _ 
72
65
73
2
40
1.28
49
1
49
-0.28000000000000003
0
LTYPE
2
TSDASHDOT
70
0
3
______ . ______ . ______ . ______ . ______ .
72
65
73
4
40
1.28
49
1
49
-0.14000000000000001
49
0
49
-0.14000000000000001
0
LTYPE
2
TSCENTER
70
0
3
______ _ ______ _ ______ _ ______ _ ______ _
72
65
73
4
40
2
49
1.5
49
-0.17999999999999999
49
0.14000000000000001
49
-0.17999999999999999
0
LTYPE
2
TSPHANTOM
70
0
3
_____ _ _ _____ _ _ _____ _ _ _____ _ _ ____
72
65
73
6
40
2.5
49
1.6299999999999999
49
-0.19
49
0.14999999999999999
49
-0.19
49
0.14999999999999999
49
-0.19
0
LTYPE
2
DASHED
70
0
3
__ __ __ __ __ __ __ __ __ __ __ __ __ __ __
72
65
73
2
40
0.75
49
0.5
49
-0.25
0
LTYPE
2
CENTER
70
0
3
____ _ ____ _ ____ _ ____ _ ____ _ ____ _ __
72
65
73
4
40
2
49
1.25
49
-0.25
49
0.25
49
-0.25
0
LTYPE
2
PHANTOM
70
0
3
_____ _ _ _____ _ _ _____ _ _ _____ _ _ ____
72
65
73
6
40
2.5
49
1.25
49
-0.25
49
0.25
49
-0.25
49
0.25
49
-0.25
0
LTYPE
2
DASHDOT
70
0
3
__ . __ . __ . __ . __ . __ . __ . __ . __ .
72
65
73
4
40
1
49
0.5
49
-0.25
49
0
49
-0.25
0
LTYPE
2
BORDER
70
0
3
__ __ . __ __ . __ __ . __ __ . __ __ . __ _
72
65
73
6
40
1.75
49
0.5
49
-0.25
49
0.5
49
-0.25
49
0
49
-0.25
0
LTYPE
2
DIVIDE
70
0
3
__ . . __ . . __ . . __ . . __ . . __ . . __
72
65
73
6
40
1.25
49
0.5
49
-0.25
49
0
49
-0.25
49
0
49
-0.25
0
ENDTAB
0
TABLE
2
LAYER
70
6
0
LAYER
2
Layer_1
70
0
62
7
6
CONTINUOUS
0
LAYER
2
Layer_2
70
0
62
7
6
CONTINUOUS
0
LAYER
2
Layer_3
70
0
62
7
6
CONTINUOUS
0
LAYER
2
edge_cuts
70
0
62
7
6
CONTINUOUS
0
LAYER
2
support_2mm_layer
70
0
62
7
6
CONTINUOUS
0
LAYER
2
devices
70
0
62
7
6
CONTINUOUS
0
ENDTAB
0
ENDSEC
0
SECTION
2
ENTITIES
0
LINE
8
support_2mm_layer
6
CONTINUOUS
62
5
10
163
20
100
11
129
21
100
0
LINE
8
support_2mm_layer
6
CONTINUOUS
62
5
10
169
20
110
11
178
21
110
0
LINE
8
support_2mm_layer
6
CONTINUOUS
62
5
10
56
20
-107
11
56
21
107
0
LINE
8
support_2mm_layer
6
CONTINUOUS
62
5
10
166
20
107
11
166
21
102.99999999999999
0
LINE
8
support_2mm_layer
6
CONTINUOUS
62
5
10
166
20
-19.5
11
166
21
19.5
0
ARC
8
support_2mm_layer
6
CONTINUOUS
62
5
10
59
20
107
40
3
50
90
51
180
0
ARC
8
support_2mm_layer
6
CONTINUOUS
62
5
10
169
20
107
40
3
50
90
51
180
0
ARC
8
support_2mm_layer
6
CONTINUOUS
62
5
10
178
20
107
40
3
50
0
51
90
0
LINE
8
support_2mm_layer
6
CONTINUOUS
62
5
10
59
20
110
11
68
21
110
0
CIRCLE
8
support_2mm_layer
6
CONTINUOUS
62
5
10
63.5
20
105
40
2.75
0
CIRCLE
8
support_2mm_layer
6
CONTINUOUS
62
5
10
173.5
20
105
40
2.75
0
LINE
8
support_2mm_layer
6
CONTINUOUS
62
5
10
126
20
107
11
126
21
103
0
ARC
8
support_2mm_layer
6
CONTINUOUS
62
5
10
123
20
107
40
3
50
0
51
90
0
LINE
8
support_2mm_layer
6
CONTINUOUS
62
5
10
114
20
110
11
123
21
110
0
CIRCLE
8
support_2mm_layer
6
CONTINUOUS
62
5
10
118.5
20
105
40
2.75
0
ARC
8
support_2mm_layer
6
CONTINUOUS
62
5
10
129
20
103
40
3
50
180
51
270
0
ARC
8
support_2mm_layer
6
CONTINUOUS
62
5
10
163
20
103
40
3
50
270
51
0
0
LINE
8
support_2mm_layer
6
CONTINUOUS
62
5
10
108
20
100
11
74
21
100
0
LINE
8
support_2mm_layer
6
CONTINUOUS
62
5
10
111
20
107
11
111
21
102.99999999999999
0
ARC
8
support_2mm_layer
6
CONTINUOUS
62
5
10
114
20
107
40
3
50
90
51
180
0
LINE
8
support_2mm_layer
6
CONTINUOUS
62
5
10
71
20
107
11
71
21
103
0
ARC
8
support_2mm_layer
6
CONTINUOUS
62
5
10
68
20
107
40
3
50
0
51
90
0
ARC
8
support_2mm_layer
6
CONTINUOUS
62
5
10
74
20
103
40
3
50
180
51
270
0
ARC
8
support_2mm_layer
6
CONTINUOUS
62
5
10
108
20
103
40
3
50
270
51
0
0
LINE
8
edge_cuts
6
CONTINUOUS
62
7
10
183.006
20
100.074
11
183.01300000000001
21
100.074
0
LINE
8
edge_cuts
6
CONTINUOUS
62
7
10
183
20
100.075
11
183.006
21
100.074
0
CIRCLE
8
support_2mm_layer
6
CONTINUOUS
62
5
10
65.849999999999994
20
92.75
40
2.75
0
CIRCLE
8
support_2mm_layer
6
CONTINUOUS
62
5
10
86.150000000000006
20
92.75
40
2.75
0
CIRCLE
8
support_2mm_layer
6
CONTINUOUS
62
5
10
65.849999999999994
20
40.25
40
2.75
0
CIRCLE
8
support_2mm_layer
6
CONTINUOUS
62
5
10
86.150000000000006
20
40.25
40
2.75
0
CIRCLE
8
support_2mm_layer
6
CONTINUOUS
62
5
10
101.84999999999999
20
92.75
40
2.75
0
CIRCLE
8
support_2mm_layer
6
CONTINUOUS
62
5
10
122.15000000000001
20
92.75
40
2.75
0
CIRCLE
8
support_2mm_layer
6
CONTINUOUS
62
5
10
101.84999999999999
20
40.25
40
2.75
0
CIRCLE
8
support_2mm_layer
6
CONTINUOUS
62
5
10
122.15000000000001
20
40.25
40
2.75
0
CIRCLE
8
support_2mm_layer
6
CONTINUOUS
62
5
10
137.84999999999997
20
92.75
40
2.75
0
CIRCLE
8
support_2mm_layer
6
CONTINUOUS
62
5
10
158.14999999999998
20
92.75
40
2.75
0
CIRCLE
8
support_2mm_layer
6
CONTINUOUS
62
5
10
137.84999999999997
20
40.25
40
2.75
0
CIRCLE
8
support_2mm_layer
6
CONTINUOUS
62
5
10
158.14999999999998
20
40.25
40
2.75
0
CIRCLE
8
support_2mm_layer
6
CONTINUOUS
62
5
10
65.849999999999994
20
26.25
40
2.75
0
CIRCLE
8
support_2mm_layer
6
CONTINUOUS
62
5
10
86.150000000000006
20
26.25
40
2.75
0
CIRCLE
8
support_2mm_layer
6
CONTINUOUS
62
5
10
65.849999999999994
20
-26.25
40
2.75
0
CIRCLE
8
support_2mm_layer
6
CONTINUOUS
62
5
10
86.150000000000006
20
-26.25
40
2.75
0
CIRCLE
8
support_2mm_layer
6
CONTINUOUS
62
5
10
101.84999999999999
20
26.25
40
2.75
0
CIRCLE
8
support_2mm_layer
6
CONTINUOUS
62
5
10
122.15000000000001
20
26.25
40
2.75
0
CIRCLE
8
support_2mm_layer
6
CONTINUOUS
62
5
10
101.84999999999999
20
-26.25
40
2.75
0
CIRCLE
8
support_2mm_layer
6
CONTINUOUS
62
5
10
122.15000000000001
20
-26.25
40
2.75
0
CIRCLE
8
support_2mm_layer
6
CONTINUOUS
62
5
10
137.84999999999997
20
26.25
40
2.75
0
CIRCLE
8
support_2mm_layer
6
CONTINUOUS
62
5
10
158.14999999999998
20
26.25
40
2.75
0
CIRCLE
8
support_2mm_layer
6
CONTINUOUS
62
5
10
137.84999999999997
20
-26.25
40
2.75
0
CIRCLE
8
support_2mm_layer
6
CONTINUOUS
62
5
10
158.14999999999998
20
-26.25
40
2.75
0
CIRCLE
8
support_2mm_layer
6
CONTINUOUS
62
5
10
65.849999999999994
20
-40.25
40
2.75
0
CIRCLE
8
support_2mm_layer
6
CONTINUOUS
62
5
10
86.150000000000006
20
-40.25
40
2.75
0
CIRCLE
8
support_2mm_layer
6
CONTINUOUS
62
5
10
65.849999999999994
20
-92.75
40
2.75
0
CIRCLE
8
support_2mm_layer
6
CONTINUOUS
62
5
10
86.150000000000006
20
-92.75
40
2.75
0
CIRCLE
8
support_2mm_layer
6
CONTINUOUS
62
5
10
101.84999999999999
20
-40.25
40
2.75
0
CIRCLE
8
support_2mm_layer
6
CONTINUOUS
62
5
10
122.15000000000001
20
-40.25
40
2.75
0
CIRCLE
8
support_2mm_layer
6
CONTINUOUS
62
5
10
101.84999999999999
20
-92.75
40
2.75
0
CIRCLE
8
support_2mm_layer
6
CONTINUOUS
62
5
10
122.15000000000001
20
-92.75
40
2.75
0
CIRCLE
8
support_2mm_layer
6
CONTINUOUS
62
5
10
137.84999999999997
20
-40.25
40
2.75
0
CIRCLE
8
support_2mm_layer
6
CONTINUOUS
62
5
10
158.14999999999998
20
-40.25
40
2.75
0
CIRCLE
8
support_2mm_layer
6
CONTINUOUS
62
5
10
137.84999999999997
20
-92.75
40
2.75
0
CIRCLE
8
support_2mm_layer
6
CONTINUOUS
62
5
10
158.14999999999998
20
-92.75
40
2.75
0
LINE
8
devices
6
CONTINUOUS
62
7
10
55
20
-42.450000000000003
11
55.017099999999999
21
-42.453000000000003
0
LINE
8
devices
6
CONTINUOUS
62
7
10
55.017099999999999
20
-42.453000000000003
11
55.0321
21
-42.4617
0
LINE
8
devices
6
CONTINUOUS
62
7
10
55.0321
20
-42.4617
11
55.043300000000002
21
-42.475000000000001
0
LINE
8
devices
6
CONTINUOUS
62
7
10
55.043300000000002
20
-42.475000000000001
11
55.049199999999999
21
-42.491300000000003
0
LINE
8
devices
6
CONTINUOUS
62
7
10
55.049199999999999
20
-42.491300000000003
11
55.049199999999999
21
-42.508699999999997
0
LINE
8
devices
6
CONTINUOUS
62
7
10
55.049199999999999
20
-42.508699999999997
11
55.043300000000002
21
-42.524999999999999
0
LINE
8
devices
6
CONTINUOUS
62
7
10
55.043300000000002
20
-42.524999999999999
11
55.0321
21
-42.5383
0
LINE
8
devices
6
CONTINUOUS
62
7
10
55.0321
20
-42.5383
11
55.017099999999999
21
-42.546999999999997
0
LINE
8
devices
6
CONTINUOUS
62
7
10
55.017099999999999
20
-42.546999999999997
11
55
21
-42.549999999999997
0
LINE
8
devices
6
CONTINUOUS
62
7
10
55
20
-66.450000000000003
11
55.017099999999999
21
-66.453000000000003
0
LINE
8
devices
6
CONTINUOUS
62
7
10
55.017099999999999
20
-66.453000000000003
11
55.0321
21
-66.461699999999993
0
LINE
8
devices
6
CONTINUOUS
62
7
10
55.0321
20
-66.461699999999993
11
55.043300000000002
21
-66.474999999999994
0
LINE
8
devices
6
CONTINUOUS
62
7
10
55.043300000000002
20
-66.474999999999994
11
55.049199999999999
21
-66.491299999999995
0
LINE
8
devices
6
CONTINUOUS
62
7
10
55.049199999999999
20
-66.491299999999995
11
55.049199999999999
21
-66.508700000000005
0
LINE
8
devices
6
CONTINUOUS
62
7
10
55.049199999999999
20
-66.508700000000005
11
55.043300000000002
21
-66.525000000000006
0
LINE
8
devices
6
CONTINUOUS
62
7
10
55.043300000000002
20
-66.525000000000006
11
55.0321
21
-66.538300000000007
0
LINE
8
devices
6
CONTINUOUS
62
7
10
55.0321
20
-66.538300000000007
11
55.017099999999999
21
-66.546999999999997
0
LINE
8
devices
6
CONTINUOUS
62
7
10
55.017099999999999
20
-66.546999999999997
11
55
21
-66.549999999999997
0
LINE
8
devices
6
CONTINUOUS
62
7
10
55
20
-90.450000000000003
11
55.017099999999999
21
-90.453000000000003
0
LINE
8
devices
6
CONTINUOUS
62
7
10
55.017099999999999
20
-90.453000000000003
11
55.0321
21
-90.461699999999993
0
LINE
8
devices
6
CONTINUOUS
62
7
10
55.0321
20
-90.461699999999993
11
55.043300000000002
21
-90.474999999999994
0
LINE
8
devices
6
CONTINUOUS
62
7
10
55.043300000000002
20
-90.474999999999994
11
55.049199999999999
21
-90.491299999999995
0
LINE
8
devices
6
CONTINUOUS
62
7
10
55.049199999999999
20
-90.491299999999995
11
55.049199999999999
21
-90.508700000000005
0
LINE
8
devices
6
CONTINUOUS
62
7
10
55.049199999999999
20
-90.508700000000005
11
55.043300000000002
21
-90.525000000000006
0
LINE
8
devices
6
CONTINUOUS
62
7
10
55.043300000000002
20
-90.525000000000006
11
55.0321
21
-90.538300000000007
0
LINE
8
devices
6
CONTINUOUS
62
7
10
55.0321
20
-90.538300000000007
11
55.017099999999999
21
-90.546999999999997
0
LINE
8
devices
6
CONTINUOUS
62
7
10
55.017099999999999
20
-90.546999999999997
11
55
21
-90.549999999999997
0
LINE
8
devices
6
CONTINUOUS
62
7
10
55
20
24.050000000000001
11
55.017099999999999
21
24.047000000000001
0
LINE
8
devices
6
CONTINUOUS
62
7
10
55.017099999999999
20
24.047000000000001
11
55.0321
21
24.0383
0
LINE
8
devices
6
CONTINUOUS
62
7
10
55.0321
20
24.0383
11
55.043300000000002
21
24.024999999999999
0
LINE
8
devices
6
CONTINUOUS
62
7
10
55.043300000000002
20
24.024999999999999
11
55.049199999999999
21
24.008700000000001
0
LINE
8
devices
6
CONTINUOUS
62
7
10
55.049199999999999
20
24.008700000000001
11
55.049199999999999
21
23.991299999999999
0
LINE
8
devices
6
CONTINUOUS
62
7
10
55.049199999999999
20
23.991299999999999
11
55.043300000000002
21
23.975000000000001
0
LINE
8
devices
6
CONTINUOUS
62
7
10
55.043300000000002
20
23.975000000000001
11
55.0321
21
23.9617
0
LINE
8
devices
6
CONTINUOUS
62
7
10
55.0321
20
23.9617
11
55.017099999999999
21
23.952999999999999
0
LINE
8
devices
6
CONTINUOUS
62
7
10
55.017099999999999
20
23.952999999999999
11
55
21
23.949999999999999
0
LINE
8
devices
6
CONTINUOUS
62
7
10
55
20
0.050000000000000003
11
55.017099999999999
21
0.046984999999999999
0
LINE
8
devices
6
CONTINUOUS
62
7
10
55.017099999999999
20
0.046984999999999999
11
55.0321
21
0.038302000000000003
0
LINE
8
devices
6
CONTINUOUS
62
7
10
55.0321
20
0.038302000000000003
11
55.043300000000002
21
0.025000000000000001
0
LINE
8
devices
6
CONTINUOUS
62
7
10
55.043300000000002
20
0.025000000000000001
11
55.049199999999999
21
0.0086820000000000005
0
LINE
8
devices
6
CONTINUOUS
62
7
10
55.049199999999999
20
0.0086820000000000005
11
55.049199999999999
21
-0.0086820000000000005
0
LINE
8
devices
6
CONTINUOUS
62
7
10
55.049199999999999
20
-0.0086820000000000005
11
55.043300000000002
21
-0.025000000000000001
0
LINE
8
devices
6
CONTINUOUS
62
7
10
55.043300000000002
20
-0.025000000000000001
11
55.0321
21
-0.038302000000000003
0
LINE
8
devices
6
CONTINUOUS
62
7
10
55.0321
20
-0.038302000000000003
11
55.017099999999999
21
-0.046984999999999999
0
LINE
8
devices
6
CONTINUOUS
62
7
10
55.017099999999999
20
-0.046984999999999999
11
55
21
-0.050000000000000003
0
LINE
8
devices
6
CONTINUOUS
62
7
10
55
20
-23.949999999999999
11
55.017099999999999
21
-23.952999999999999
0
LINE
8
devices
6
CONTINUOUS
62
7
10
55.017099999999999
20
-23.952999999999999
11
55.0321
21
-23.9617
0
LINE
8
devices
6
CONTINUOUS
62
7
10
55.0321
20
-23.9617
11
55.043300000000002
21
-23.975000000000001
0
LINE
8
devices
6
CONTINUOUS
62
7
10
55.043300000000002
20
-23.975000000000001
11
55.049199999999999
21
-23.991299999999999
0
LINE
8
devices
6
CONTINUOUS
62
7
10
55.049199999999999
20
-23.991299999999999
11
55.049199999999999
21
-24.008700000000001
0
LINE
8
devices
6
CONTINUOUS
62
7
10
55.049199999999999
20
-24.008700000000001
11
55.043300000000002
21
-24.024999999999999
0
LINE
8
devices
6
CONTINUOUS
62
7
10
55.043300000000002
20
-24.024999999999999
11
55.0321
21
-24.0383
0
LINE
8
devices
6
CONTINUOUS
62
7
10
55.0321
20
-24.0383
11
55.017099999999999
21
-24.047000000000001
0
LINE
8
devices
6
CONTINUOUS
62
7
10
55.017099999999999
20
-24.047000000000001
11
55
21
-24.050000000000001
0
LINE
8
devices
6
CONTINUOUS
62
7
10
55
20
90.5
11
55.017099999999999
21
90.497
0
LINE
8
devices
6
CONTINUOUS
62
7
10
55.017099999999999
20
90.497
11
55.0321
21
90.488299999999995
0
LINE
8
devices
6
CONTINUOUS
62
7
10
55.0321
20
90.488299999999995
11
55.043300000000002
21
90.474999999999994
0
LINE
8
devices
6
CONTINUOUS
62
7
10
55.043300000000002
20
90.474999999999994
11
55.049199999999999
21
90.458699999999993
0
LINE
8
devices
6
CONTINUOUS
62
7
10
55.049199999999999
20
90.458699999999993
11
55.049199999999999
21
90.441299999999998
0
LINE
8
devices
6
CONTINUOUS
62
7
10
55.049199999999999
20
90.441299999999998
11
55.043300000000002
21
90.424999999999997
0
LINE
8
devices
6
CONTINUOUS
62
7
10
55.043300000000002
20
90.424999999999997
11
55.0321
21
90.411699999999996
0
LINE
8
devices
6
CONTINUOUS
62
7
10
55.0321
20
90.411699999999996
11
55.017099999999999
21
90.403000000000006
0
LINE
8
devices
6
CONTINUOUS
62
7
10
55.017099999999999
20
90.403000000000006
11
55
21
90.400000000000006
0
LINE
8
devices
6
CONTINUOUS
62
7
10
55
20
42.5
11
55.017099999999999
21
42.497
0
LINE
8
devices
6
CONTINUOUS
62
7
10
55.017099999999999
20
42.497
11
55.0321
21
42.488300000000002
0
LINE
8
devices
6
CONTINUOUS
62
7
10
55.0321
20
42.488300000000002
11
55.043300000000002
21
42.475000000000001
0
LINE
8
devices
6
CONTINUOUS
62
7
10
55.043300000000002
20
42.475000000000001
11
55.049199999999999
21
42.4587
0
LINE
8
devices
6
CONTINUOUS
62
7
10
55.049199999999999
20
42.4587
11
55.049199999999999
21
42.441299999999998
0
LINE
8
devices
6
CONTINUOUS
62
7
10
55.049199999999999
20
42.441299999999998
11
55.043300000000002
21
42.424999999999997
0
LINE
8
devices
6
CONTINUOUS
62
7
10
55.043300000000002
20
42.424999999999997
11
55.0321
21
42.411700000000003
0
LINE
8
devices
6
CONTINUOUS
62
7
10
55.0321
20
42.411700000000003
11
55.017099999999999
21
42.402999999999999
0
LINE
8
devices
6
CONTINUOUS
62
7
10
55.017099999999999
20
42.402999999999999
11
55
21
42.399999999999999
0
LINE
8
devices
6
CONTINUOUS
62
7
10
181.90000000000001
20
98.099999999999994
11
181.90100000000001
21
98.104299999999995
0
LINE
8
devices
6
CONTINUOUS
62
7
10
181.90100000000001
20
98.104299999999995
11
181.90100000000001
21
98.108699999999999
0
LINE
8
devices
6
CONTINUOUS
62
7
10
181.90100000000001
20
98.108699999999999
11
181.90199999999999
21
98.112799999999993
0
LINE
8
devices
6
CONTINUOUS
62
7
10
181.90199999999999
20
98.112799999999993
11
181.90299999999999
21
98.117099999999994
0
LINE
8
devices
6
CONTINUOUS
62
7
10
181.90299999999999
20
98.117099999999994
11
181.905
21
98.120900000000006
0
LINE
8
devices
6
CONTINUOUS
62
7
10
181.905
20
98.120900000000006
11
181.90700000000001
21
98.125
0
LINE
8
devices
6
CONTINUOUS
62
7
10
181.90700000000001
20
98.125
11
181.91
21
98.128399999999999
0
LINE
8
devices
6
CONTINUOUS
62
7
10
181.91
20
98.128399999999999
11
181.91200000000001
21
98.132099999999994
0
LINE
8
devices
6
CONTINUOUS
62
7
10
181.91200000000001
20
98.132099999999994
11
181.91499999999999
21
98.135000000000005
0
LINE
8
devices
6
CONTINUOUS
62
7
10
181.91499999999999
20
98.135000000000005
11
181.91800000000001
21
98.138300000000001
0
LINE
8
devices
6
CONTINUOUS
62
7
10
181.91800000000001
20
98.138300000000001
11
181.922
21
98.140500000000003
0
LINE
8
devices
6
CONTINUOUS
62
7
10
181.922
20
98.140500000000003
11
181.92500000000001
21
98.143299999999996
0
LINE
8
devices
6
CONTINUOUS
62
7
10
181.92500000000001
20
98.143299999999996
11
181.929
21
98.144800000000004
0
LINE
8
devices
6
CONTINUOUS
62
7
10
181.929
20
98.144800000000004
11
181.93299999999999
21
98.147000000000006
0
LINE
8
devices
6
CONTINUOUS
62
7
10
181.93299999999999
20
98.147000000000006
11
181.93700000000001
21
98.1477
0
LINE
8
devices
6
CONTINUOUS
62
7
10
181.93700000000001
20
98.1477
11
181.941
21
98.149199999999993
0
LINE
8
devices
6
CONTINUOUS
62
7
10
181.941
20
98.149199999999993
11
181.946
21
98.149199999999993
0
LINE
8
devices
6
CONTINUOUS
62
7
10
181.946
20
98.149199999999993
11
181.94999999999999
21
98.150000000000006
0
LINE
8
support_2mm_layer
6
CONTINUOUS
62
5
10
169
20
44.5
11
178
21
44.5
0
LINE
8
support_2mm_layer
6
CONTINUOUS
62
5
10
178
20
22.5
11
169
21
22.500000000000004
0
LINE
8
support_2mm_layer
6
CONTINUOUS
62
5
10
181
20
92
11
181
21
107
0
ARC
8
support_2mm_layer
6
CONTINUOUS
62
5
10
178
20
41.5
40
3
50
0
51
90
0
ARC
8
support_2mm_layer
6
CONTINUOUS
62
5
10
178
20
25.5
40
3
50
270
51
0
0
ARC
8
support_2mm_layer
6
CONTINUOUS
62
5
10
169
20
47.5
40
3
50
180
51
270
0
ARC
8
support_2mm_layer
6
CONTINUOUS
62
5
10
169
20
19.5
40
3.0000000000000036
50
90
51
180
0
LINE
8
support_2mm_layer
6
CONTINUOUS
62
5
10
166
20
86
11
166
21
47.5
0
LINE
8
support_2mm_layer
6
CONTINUOUS
62
5
10
169
20
-45.5
11
178
21
-45.5
0
LINE
8
support_2mm_layer
6
CONTINUOUS
62
5
10
178
20
-22.5
11
169
21
-22.500000000000004
0
LINE
8
support_2mm_layer
6
CONTINUOUS
62
5
10
181
20
-25.5
11
181
21
-42.5
0
ARC
8
support_2mm_layer
6
CONTINUOUS
62
5
10
178
20
-42.5
40
3
50
270
51
0
0
ARC
8
support_2mm_layer
6
CONTINUOUS
62
5
10
178
20
-25.5
40
3
50
0
51
90
0
ARC
8
support_2mm_layer
6
CONTINUOUS
62
5
10
169
20
-48.5
40
3
50
90
51
180
0
ARC
8
support_2mm_layer
6
CONTINUOUS
62
5
10
169
20
-19.5
40
3
50
180
51
270
0
LINE
8
support_2mm_layer
6
CONTINUOUS
62
5
10
169
20
89
11
178
21
89
0
ARC
8
support_2mm_layer
6
CONTINUOUS
62
5
10
169
20
86
40
3
50
90
51
180
0
ARC
8
support_2mm_layer
6
CONTINUOUS
62
5
10
178
20
92
40
3
50
270
51
0
0
LINE
8
support_2mm_layer
6
CONTINUOUS
62
5
10
181
20
41.5
11
181
21
25.5
0
LINE
8
support_2mm_layer
6
CONTINUOUS
62
5
10
163
20
-100
11
129
21
-100
0
LINE
8
support_2mm_layer
6
CONTINUOUS
62
5
10
169
20
-110
11
178
21
-110
0
LINE
8
support_2mm_layer
6
CONTINUOUS
62
5
10
166
20
-107
11
166
21
-102.99999999999999
0
ARC
8
support_2mm_layer
6
CONTINUOUS
62
5
10
59
20
-107
40
3
50
180
51
270
0
ARC
8
support_2mm_layer
6
CONTINUOUS
62
5
10
169
20
-107
40
3
50
180
51
270
0
ARC
8
support_2mm_layer
6
CONTINUOUS
62
5
10
178
20
-107
40
3
50
270
51
0
0
LINE
8
support_2mm_layer
6
CONTINUOUS
62
5
10
59
20
-110
11
68
21
-110
0
CIRCLE
8
support_2mm_layer
6
CONTINUOUS
62
5
10
63.5
20
-105
40
2.75
0
CIRCLE
8
support_2mm_layer
6
CONTINUOUS
62
5
10
173.5
20
-105
40
2.75
0
LINE
8
support_2mm_layer
6
CONTINUOUS
62
5
10
126
20
-107
11
126
21
-103
0
ARC
8
support_2mm_layer
6
CONTINUOUS
62
5
10
123
20
-107
40
3
50
270
51
0
0
LINE
8
support_2mm_layer
6
CONTINUOUS
62
5
10
114
20
-110
11
123
21
-110
0
CIRCLE
8
support_2mm_layer
6
CONTINUOUS
62
5
10
118.5
20
-105
40
2.75
0
ARC
8
support_2mm_layer
6
CONTINUOUS
62
5
10
129
20
-103
40
3
50
90
51
180
0
ARC
8
support_2mm_layer
6
CONTINUOUS
62
5
10
163
20
-103
40
3
50
0
51
90
0
LINE
8
support_2mm_layer
6
CONTINUOUS
62
5
10
108
20
-100
11
74
21
-100
0
LINE
8
support_2mm_layer
6
CONTINUOUS
62
5
10
111
20
-107
11
111
21
-102.99999999999999
0
ARC
8
support_2mm_layer
6
CONTINUOUS
62
5
10
114
20
-107
40
3
50
180
51
270
0
LINE
8
support_2mm_layer
6
CONTINUOUS
62
5
10
71
20
-107
11
71
21
-103
0
ARC
8
support_2mm_layer
6
CONTINUOUS
62
5
10
68
20
-107
40
3
50
270
51
0
0
ARC
8
support_2mm_layer
6
CONTINUOUS
62
5
10
74
20
-103
40
3
50
90
51
180
0
ARC
8
support_2mm_layer
6
CONTINUOUS
62
5
10
108
20
-103
40
3
50
0
51
90
0
CIRCLE
8
support_2mm_layer
6
CONTINUOUS
62
5
10
65.849999999999994
20
-92.75
40
2.75
0
CIRCLE
8
support_2mm_layer
6
CONTINUOUS
62
5
10
86.150000000000006
20
-92.75
40
2.75
0
CIRCLE
8
support_2mm_layer
6
CONTINUOUS
62
5
10
101.84999999999999
20
-92.75
40
2.75
0
CIRCLE
8
support_2mm_layer
6
CONTINUOUS
62
5
10
122.15000000000001
20
-92.75
40
2.75
0
CIRCLE
8
support_2mm_layer
6
CONTINUOUS
62
5
10
137.84999999999997
20
-92.75
40
2.75
0
CIRCLE
8
support_2mm_layer
6
CONTINUOUS
62
5
10
158.14999999999998
20
-92.75
40
2.75
0
LINE
8
support_2mm_layer
6
CONTINUOUS
62
5
10
181
20
-92
11
181
21
-107
0
LINE
8
support_2mm_layer
6
CONTINUOUS
62
5
10
169
20
-89
11
178
21
-89
0
ARC
8
support_2mm_layer
6
CONTINUOUS
62
5
10
169
20
-86
40
3
50
180
51
270
0
ARC
8
support_2mm_layer
6
CONTINUOUS
62
5
10
178
20
-92
40
3
50
0
51
90
0
LINE
8
support_2mm_layer
6
CONTINUOUS
62
5
10
166
20
-48.5
11
166
21
-86
0
ENDSEC
0
EOF
