M48
;DRILL file {KiCad 4.0.1-stable} date 11/01/2018 20:25:41
;FORMAT={-:-/ absolute / metric / decimal}
FMAT,2
METRIC,TZ
T1C0.800
T2C1.475
T3C1.600
T4C4.000
T5C6.500
%
G90
G05
M71
T1
X66.Y-54.5
X66.Y-56.5
X66.Y-58.5
X66.Y-60.5
X66.Y-62.5
X66.Y-121.
X66.Y-123.
X66.Y-125.
X66.Y-127.
X66.Y-129.
X66.Y-187.5
X66.Y-189.5
X66.Y-191.5
X66.Y-193.5
X66.Y-195.5
X68.Y-54.5
X68.Y-56.5
X68.Y-58.5
X68.Y-60.5
X68.Y-62.5
X68.Y-121.
X68.Y-123.
X68.Y-125.
X68.Y-127.
X68.Y-129.
X68.Y-187.5
X68.Y-189.5
X68.Y-191.5
X68.Y-193.5
X68.Y-195.5
X70.Y-54.5
X70.Y-56.5
X70.Y-58.5
X70.Y-60.5
X70.Y-62.5
X70.Y-121.
X70.Y-123.
X70.Y-125.
X70.Y-127.
X70.Y-129.
X70.Y-187.5
X70.Y-189.5
X70.Y-191.5
X70.Y-193.5
X70.Y-195.5
X71.Y-170.5
X71.Y-172.5
X71.Y-174.5
X71.Y-176.5
X71.Y-178.5
X73.Y-178.5
X80.Y-69.5
X80.Y-73.5
X80.Y-77.5
X80.Y-81.5
X80.Y-85.5
X80.Y-89.5
X80.Y-93.5
X80.Y-97.5
X80.Y-112.
X80.Y-136.
X80.Y-140.
X80.Y-144.
X80.Y-148.
X80.Y-152.
X80.Y-156.
X80.Y-160.
X80.Y-164.
X80.Y-178.5
X80.Y-202.5
X80.Y-206.5
X80.Y-210.5
X80.Y-214.5
X80.Y-218.5
X80.Y-222.5
X80.Y-226.5
X80.Y-230.5
X80.Y-245.
X82.Y-54.5
X82.Y-56.5
X82.Y-58.5
X82.Y-60.5
X82.Y-62.5
X82.Y-104.
X82.Y-106.
X82.Y-108.
X82.Y-110.
X82.Y-112.
X82.Y-121.
X82.Y-123.
X82.Y-125.
X82.Y-127.
X82.Y-129.
X82.Y-170.5
X82.Y-172.5
X82.Y-174.5
X82.Y-176.5
X82.Y-178.5
X82.Y-187.5
X82.Y-189.5
X82.Y-191.5
X82.Y-193.5
X82.Y-195.5
X82.Y-237.
X82.Y-239.
X82.Y-241.
X82.Y-243.
X82.Y-245.
X84.Y-54.5
X84.Y-56.5
X84.Y-58.5
X84.Y-60.5
X84.Y-62.5
X84.Y-104.
X84.Y-106.
X84.Y-108.
X84.Y-110.
X84.Y-112.
X84.Y-121.
X84.Y-123.
X84.Y-125.
X84.Y-127.
X84.Y-129.
X84.Y-170.5
X84.Y-172.5
X84.Y-174.5
X84.Y-176.5
X84.Y-178.5
X84.Y-187.5
X84.Y-189.5
X84.Y-191.5
X84.Y-193.5
X84.Y-195.5
X84.Y-237.
X84.Y-239.
X84.Y-241.
X84.Y-243.
X84.Y-245.
X86.Y-54.5
X86.Y-56.5
X86.Y-58.5
X86.Y-60.5
X86.Y-62.5
X86.Y-104.
X86.Y-106.
X86.Y-108.
X86.Y-110.
X86.Y-112.
X86.Y-121.
X86.Y-123.
X86.Y-125.
X86.Y-127.
X86.Y-129.
X86.Y-170.5
X86.Y-172.5
X86.Y-174.5
X86.Y-176.5
X86.Y-178.5
X86.Y-187.5
X86.Y-189.5
X86.Y-191.5
X86.Y-193.5
X86.Y-195.5
X86.Y-237.
X86.Y-239.
X86.Y-241.
X86.Y-243.
X86.Y-245.
X88.Y-54.5
X88.Y-56.5
X88.Y-58.5
X88.Y-60.5
X88.Y-62.5
X88.Y-104.
X88.Y-106.
X88.Y-108.
X88.Y-110.
X88.Y-112.
X88.Y-121.
X88.Y-123.
X88.Y-125.
X88.Y-127.
X88.Y-129.
X88.Y-170.5
X88.Y-172.5
X88.Y-174.5
X88.Y-176.5
X88.Y-178.5
X88.Y-187.5
X88.Y-189.5
X88.Y-191.5
X88.Y-193.5
X88.Y-195.5
X88.Y-237.
X88.Y-239.
X88.Y-241.
X88.Y-243.
X88.Y-245.
X90.Y-54.5
X90.Y-56.5
X90.Y-58.5
X90.Y-60.5
X90.Y-62.5
X90.Y-104.
X90.Y-106.
X90.Y-108.
X90.Y-110.
X90.Y-112.
X90.Y-121.
X90.Y-123.
X90.Y-125.
X90.Y-127.
X90.Y-129.
X90.Y-170.5
X90.Y-172.5
X90.Y-174.5
X90.Y-176.5
X90.Y-178.5
X90.Y-187.5
X90.Y-189.5
X90.Y-191.5
X90.Y-193.5
X90.Y-195.5
X90.Y-237.
X90.Y-239.
X90.Y-241.
X90.Y-243.
X90.Y-245.
X92.Y-54.5
X92.Y-56.5
X92.Y-58.5
X92.Y-60.5
X92.Y-62.5
X92.Y-104.
X92.Y-106.
X92.Y-108.
X92.Y-110.
X92.Y-112.
X92.Y-121.
X92.Y-123.
X92.Y-125.
X92.Y-127.
X92.Y-129.
X92.Y-170.5
X92.Y-172.5
X92.Y-174.5
X92.Y-176.5
X92.Y-178.5
X92.Y-187.5
X92.Y-189.5
X92.Y-191.5
X92.Y-193.5
X92.Y-195.5
X92.Y-237.
X92.Y-239.
X92.Y-241.
X92.Y-243.
X92.Y-245.
X94.Y-54.5
X94.Y-56.5
X94.Y-58.5
X94.Y-60.5
X94.Y-62.5
X94.Y-104.
X94.Y-106.
X94.Y-108.
X94.Y-110.
X94.Y-112.
X94.Y-121.
X94.Y-123.
X94.Y-125.
X94.Y-127.
X94.Y-129.
X94.Y-170.5
X94.Y-172.5
X94.Y-174.5
X94.Y-176.5
X94.Y-178.5
X94.Y-187.5
X94.Y-189.5
X94.Y-191.5
X94.Y-193.5
X94.Y-195.5
X94.Y-237.
X94.Y-239.
X94.Y-241.
X94.Y-243.
X94.Y-245.
X96.Y-69.5
X96.Y-73.5
X96.Y-77.5
X96.Y-81.5
X96.Y-85.5
X96.Y-89.5
X96.Y-93.5
X96.Y-97.5
X96.Y-112.
X96.Y-136.
X96.Y-140.
X96.Y-144.
X96.Y-148.
X96.Y-152.
X96.Y-156.
X96.Y-160.
X96.Y-164.
X96.Y-178.5
X96.Y-202.5
X96.Y-206.5
X96.Y-210.5
X96.Y-214.5
X96.Y-218.5
X96.Y-222.5
X96.Y-226.5
X96.Y-230.5
X96.Y-245.
X104.Y-112.
X104.Y-178.5
X104.Y-245.
X106.Y-54.5
X106.Y-56.5
X106.Y-58.5
X106.Y-60.5
X106.Y-62.5
X106.Y-104.
X106.Y-106.
X106.Y-108.
X106.Y-110.
X106.Y-112.
X106.Y-121.
X106.Y-123.
X106.Y-125.
X106.Y-127.
X106.Y-129.
X106.Y-170.5
X106.Y-172.5
X106.Y-174.5
X106.Y-176.5
X106.Y-178.5
X106.Y-187.5
X106.Y-189.5
X106.Y-191.5
X106.Y-193.5
X106.Y-195.5
X106.Y-237.
X106.Y-239.
X106.Y-241.
X106.Y-243.
X106.Y-245.
X108.Y-54.5
X108.Y-56.5
X108.Y-58.5
X108.Y-60.5
X108.Y-62.5
X108.Y-104.
X108.Y-106.
X108.Y-108.
X108.Y-110.
X108.Y-112.
X108.Y-121.
X108.Y-123.
X108.Y-125.
X108.Y-127.
X108.Y-129.
X108.Y-170.5
X108.Y-172.5
X108.Y-174.5
X108.Y-176.5
X108.Y-178.5
X108.Y-187.5
X108.Y-189.5
X108.Y-191.5
X108.Y-193.5
X108.Y-195.5
X108.Y-237.
X108.Y-239.
X108.Y-241.
X108.Y-243.
X108.Y-245.
X110.Y-54.5
X110.Y-56.5
X110.Y-58.5
X110.Y-60.5
X110.Y-62.5
X110.Y-104.
X110.Y-106.
X110.Y-108.
X110.Y-110.
X110.Y-112.
X110.Y-121.
X110.Y-123.
X110.Y-125.
X110.Y-127.
X110.Y-129.
X110.Y-170.5
X110.Y-172.5
X110.Y-174.5
X110.Y-176.5
X110.Y-178.5
X110.Y-187.5
X110.Y-189.5
X110.Y-191.5
X110.Y-193.5
X110.Y-195.5
X110.Y-237.
X110.Y-239.
X110.Y-241.
X110.Y-243.
X110.Y-245.
X112.Y-54.5
X112.Y-56.5
X112.Y-58.5
X112.Y-60.5
X112.Y-62.5
X112.Y-69.5
X112.Y-73.5
X112.Y-77.5
X112.Y-81.5
X112.Y-85.5
X112.Y-89.5
X112.Y-93.5
X112.Y-97.5
X112.Y-104.
X112.Y-106.
X112.Y-108.
X112.Y-110.
X112.Y-112.
X112.Y-121.
X112.Y-123.
X112.Y-125.
X112.Y-127.
X112.Y-129.
X112.Y-136.
X112.Y-140.
X112.Y-144.
X112.Y-148.
X112.Y-152.
X112.Y-156.
X112.Y-160.
X112.Y-164.
X112.Y-170.5
X112.Y-172.5
X112.Y-174.5
X112.Y-176.5
X112.Y-178.5
X112.Y-187.5
X112.Y-189.5
X112.Y-191.5
X112.Y-193.5
X112.Y-195.5
X112.Y-202.5
X112.Y-206.5
X112.Y-210.5
X112.Y-214.5
X112.Y-218.5
X112.Y-222.5
X112.Y-226.5
X112.Y-230.5
X112.Y-237.
X112.Y-239.
X112.Y-241.
X112.Y-243.
X112.Y-245.
X114.Y-54.5
X114.Y-56.5
X114.Y-58.5
X114.Y-60.5
X114.Y-62.5
X114.Y-104.
X114.Y-106.
X114.Y-108.
X114.Y-110.
X114.Y-112.
X114.Y-121.
X114.Y-123.
X114.Y-125.
X114.Y-127.
X114.Y-129.
X114.Y-170.5
X114.Y-172.5
X114.Y-174.5
X114.Y-176.5
X114.Y-178.5
X114.Y-187.5
X114.Y-189.5
X114.Y-191.5
X114.Y-193.5
X114.Y-195.5
X114.Y-237.
X114.Y-239.
X114.Y-241.
X114.Y-243.
X114.Y-245.
X116.Y-54.5
X116.Y-56.5
X116.Y-58.5
X116.Y-60.5
X116.Y-62.5
X116.Y-104.
X116.Y-106.
X116.Y-108.
X116.Y-110.
X116.Y-112.
X116.Y-121.
X116.Y-123.
X116.Y-125.
X116.Y-127.
X116.Y-129.
X116.Y-170.5
X116.Y-172.5
X116.Y-174.5
X116.Y-176.5
X116.Y-178.5
X116.Y-187.5
X116.Y-189.5
X116.Y-191.5
X116.Y-193.5
X116.Y-195.5
X116.Y-237.
X116.Y-239.
X116.Y-241.
X116.Y-243.
X116.Y-245.
X118.Y-54.5
X118.Y-56.5
X118.Y-58.5
X118.Y-60.5
X118.Y-62.5
X118.Y-104.
X118.Y-106.
X118.Y-108.
X118.Y-110.
X118.Y-112.
X118.Y-121.
X118.Y-123.
X118.Y-125.
X118.Y-127.
X118.Y-129.
X118.Y-170.5
X118.Y-172.5
X118.Y-174.5
X118.Y-176.5
X118.Y-178.5
X118.Y-187.5
X118.Y-189.5
X118.Y-191.5
X118.Y-193.5
X118.Y-195.5
X118.Y-237.
X118.Y-239.
X118.Y-241.
X118.Y-243.
X118.Y-245.
X120.Y-112.
X120.Y-178.5
X120.Y-245.
X128.Y-69.5
X128.Y-73.5
X128.Y-77.5
X128.Y-81.5
X128.Y-85.5
X128.Y-89.5
X128.Y-93.5
X128.Y-97.5
X128.Y-112.
X128.Y-136.
X128.Y-140.
X128.Y-144.
X128.Y-148.
X128.Y-152.
X128.Y-156.
X128.Y-160.
X128.Y-164.
X128.Y-178.5
X128.Y-202.5
X128.Y-206.5
X128.Y-210.5
X128.Y-214.5
X128.Y-218.5
X128.Y-222.5
X128.Y-226.5
X128.Y-230.5
X128.Y-245.
X130.Y-54.5
X130.Y-56.5
X130.Y-58.5
X130.Y-60.5
X130.Y-62.5
X130.Y-104.
X130.Y-106.
X130.Y-108.
X130.Y-110.
X130.Y-112.
X130.Y-121.
X130.Y-123.
X130.Y-125.
X130.Y-127.
X130.Y-129.
X130.Y-170.5
X130.Y-172.5
X130.Y-174.5
X130.Y-176.5
X130.Y-178.5
X130.Y-187.5
X130.Y-189.5
X130.Y-191.5
X130.Y-193.5
X130.Y-195.5
X130.Y-237.
X130.Y-239.
X130.Y-241.
X130.Y-243.
X130.Y-245.
X132.Y-54.5
X132.Y-56.5
X132.Y-58.5
X132.Y-60.5
X132.Y-62.5
X132.Y-104.
X132.Y-106.
X132.Y-108.
X132.Y-110.
X132.Y-112.
X132.Y-121.
X132.Y-123.
X132.Y-125.
X132.Y-127.
X132.Y-129.
X132.Y-170.5
X132.Y-172.5
X132.Y-174.5
X132.Y-176.5
X132.Y-178.5
X132.Y-187.5
X132.Y-189.5
X132.Y-191.5
X132.Y-193.5
X132.Y-195.5
X132.Y-237.
X132.Y-239.
X132.Y-241.
X132.Y-243.
X132.Y-245.
X134.Y-54.5
X134.Y-56.5
X134.Y-58.5
X134.Y-60.5
X134.Y-62.5
X134.Y-104.
X134.Y-106.
X134.Y-108.
X134.Y-110.
X134.Y-112.
X134.Y-121.
X134.Y-123.
X134.Y-125.
X134.Y-127.
X134.Y-129.
X134.Y-170.5
X134.Y-172.5
X134.Y-174.5
X134.Y-176.5
X134.Y-178.5
X134.Y-187.5
X134.Y-189.5
X134.Y-191.5
X134.Y-193.5
X134.Y-195.5
X134.Y-237.
X134.Y-239.
X134.Y-241.
X134.Y-243.
X134.Y-245.
T2
X273.15Y-65.55
X273.15Y-68.09
X273.15Y-70.63
X273.15Y-73.17
X273.15Y-75.71
X273.15Y-78.25
X273.15Y-87.55
X273.15Y-90.09
X273.15Y-92.63
X273.15Y-95.17
X273.15Y-97.71
X273.15Y-100.25
X273.15Y-132.65
X273.15Y-135.19
X273.15Y-137.73
X273.15Y-140.27
X273.15Y-142.81
X273.15Y-145.35
X273.15Y-154.65
X273.15Y-157.19
X273.15Y-159.73
X273.15Y-162.27
X273.15Y-164.81
X273.15Y-167.35
X273.15Y-199.75
X273.15Y-202.29
X273.15Y-204.83
X273.15Y-207.37
X273.15Y-209.91
X273.15Y-212.45
X273.15Y-221.75
X273.15Y-224.29
X273.15Y-226.83
X273.15Y-229.37
X273.15Y-231.91
X273.15Y-234.45
X275.69Y-65.55
X275.69Y-68.09
X275.69Y-75.71
X275.69Y-78.25
X275.69Y-87.55
X275.69Y-90.09
X275.69Y-97.71
X275.69Y-100.25
X275.69Y-132.65
X275.69Y-135.19
X275.69Y-142.81
X275.69Y-145.35
X275.69Y-154.65
X275.69Y-157.19
X275.69Y-164.81
X275.69Y-167.35
X275.69Y-199.75
X275.69Y-202.29
X275.69Y-209.91
X275.69Y-212.45
X275.69Y-221.75
X275.69Y-224.29
X275.69Y-231.91
X275.69Y-234.45
X278.23Y-65.55
X278.23Y-78.25
X278.23Y-87.55
X278.23Y-100.25
X278.23Y-132.65
X278.23Y-145.35
X278.23Y-154.65
X278.23Y-167.35
X278.23Y-199.75
X278.23Y-212.45
X278.23Y-221.75
X278.23Y-234.45
X280.77Y-65.55
X280.77Y-78.25
X280.77Y-87.55
X280.77Y-100.25
X280.77Y-132.65
X280.77Y-145.35
X280.77Y-154.65
X280.77Y-167.35
X280.77Y-199.75
X280.77Y-212.45
X280.77Y-221.75
X280.77Y-234.45
X283.31Y-65.55
X283.31Y-68.09
X283.31Y-75.71
X283.31Y-78.25
X283.31Y-87.55
X283.31Y-90.09
X283.31Y-97.71
X283.31Y-100.25
X283.31Y-132.65
X283.31Y-135.19
X283.31Y-142.81
X283.31Y-145.35
X283.31Y-154.65
X283.31Y-157.19
X283.31Y-164.81
X283.31Y-167.35
X283.31Y-199.75
X283.31Y-202.29
X283.31Y-209.91
X283.31Y-212.45
X283.31Y-221.75
X283.31Y-224.29
X283.31Y-231.91
X283.31Y-234.45
X285.85Y-65.55
X285.85Y-68.09
X285.85Y-70.63
X285.85Y-73.17
X285.85Y-75.71
X285.85Y-78.25
X285.85Y-87.55
X285.85Y-90.09
X285.85Y-92.63
X285.85Y-95.17
X285.85Y-97.71
X285.85Y-100.25
X285.85Y-132.65
X285.85Y-135.19
X285.85Y-137.73
X285.85Y-140.27
X285.85Y-142.81
X285.85Y-145.35
X285.85Y-154.65
X285.85Y-157.19
X285.85Y-159.73
X285.85Y-162.27
X285.85Y-164.81
X285.85Y-167.35
X285.85Y-199.75
X285.85Y-202.29
X285.85Y-204.83
X285.85Y-207.37
X285.85Y-209.91
X285.85Y-212.45
X285.85Y-221.75
X285.85Y-224.29
X285.85Y-226.83
X285.85Y-229.37
X285.85Y-231.91
X285.85Y-234.45
T3
X165.85Y-57.25
X165.85Y-109.75
X165.85Y-123.75
X165.85Y-176.25
X165.85Y-190.25
X165.85Y-242.75
X186.15Y-57.25
X186.15Y-109.75
X186.15Y-123.75
X186.15Y-176.25
X186.15Y-190.25
X186.15Y-242.75
X203.85Y-57.25
X203.85Y-109.75
X203.85Y-123.75
X203.85Y-176.25
X203.85Y-190.25
X203.85Y-242.75
X224.15Y-57.25
X224.15Y-109.75
X224.15Y-123.75
X224.15Y-176.25
X224.15Y-190.25
X224.15Y-242.75
X241.85Y-57.25
X241.85Y-109.75
X241.85Y-123.75
X241.85Y-176.25
X241.85Y-190.25
X241.85Y-242.75
X262.15Y-57.25
X262.15Y-109.75
X262.15Y-123.75
X262.15Y-176.25
X262.15Y-190.25
X262.15Y-242.75
T4
X76.2Y-59.85
X76.2Y-107.05
X76.2Y-126.3
X76.2Y-173.5
X76.2Y-192.8
X76.2Y-192.8
X76.2Y-240.
X76.2Y-240.
X100.Y-59.85
X100.Y-107.05
X100.Y-126.3
X100.Y-173.5
X100.Y-192.8
X100.Y-192.8
X100.Y-240.
X100.Y-240.
X123.8Y-59.85
X123.8Y-107.05
X123.8Y-126.3
X123.8Y-173.5
X123.8Y-192.8
X123.8Y-192.8
X123.8Y-240.
X123.8Y-240.
T5
X279.5Y-71.4G85X279.5Y-72.4
G05
X279.5Y-93.4G85X279.5Y-94.4
G05
X279.5Y-138.5G85X279.5Y-139.5
G05
X279.5Y-160.5G85X279.5Y-161.5
G05
X279.5Y-205.6G85X279.5Y-206.6
G05
X279.5Y-227.6G85X279.5Y-228.6
G05
X416.5Y-71.4G85X416.5Y-72.4
G05
X416.5Y-93.4G85X416.5Y-94.4
G05
X416.5Y-138.5G85X416.5Y-139.5
G05
X416.5Y-160.5G85X416.5Y-161.5
G05
X416.5Y-205.6G85X416.5Y-206.6
G05
X416.5Y-227.6G85X416.5Y-228.6
G05
T0
M30
