  0
SECTION
  2
HEADER
  9
$ANGBASE
  50
0.0
  9
$ANGDIR
  70
  1
  9
$MEASUREMENT
  70
0
  0
ENDSEC
  0
SECTION
  2
TABLES
  0
TABLE
  2
LTYPE
  70
1
  0
LTYPE
  2
CONTINUOUS
  70
0
  3
Solid line
  72
65
  73
0
  40
0.0
  0
ENDTAB
  0
TABLE
  2
STYLE
  70
4
  0
STYLE
  2
KICAD
  70
0
  40
0
  41
1
  42
1
  50
0
  71
0
  3
isocp.shx
  0
STYLE
  2
KICADB
  70
0
  40
0
  41
1
  42
1
  50
0
  71
0
  3
isocp.shx
  0
STYLE
  2
KICADI
  70
0
  40
0
  41
1
  42
1
  50
15
  71
0
  3
isocp.shx
  0
STYLE
  2
KICADBI
  70
0
  40
0
  41
1
  42
1
  50
15
  71
0
  3
isocp.shx
  0
ENDTAB
  0
TABLE
  2
LAYER
  70
30
  0
LAYER
  2
BLACK
  70
0
  62
7
  6
CONTINUOUS
  0
LAYER
  2
GRAY1
  70
0
  62
251
  6
CONTINUOUS
  0
LAYER
  2
GRAY2
  70
0
  62
8
  6
CONTINUOUS
  0
LAYER
  2
GRAY3
  70
0
  62
9
  6
CONTINUOUS
  0
LAYER
  2
WHITE
  70
0
  62
7
  6
CONTINUOUS
  0
LAYER
  2
LYELLOW
  70
0
  62
51
  6
CONTINUOUS
  0
LAYER
  2
BLUE1
  70
0
  62
178
  6
CONTINUOUS
  0
LAYER
  2
GREEN1
  70
0
  62
98
  6
CONTINUOUS
  0
LAYER
  2
CYAN1
  70
0
  62
138
  6
CONTINUOUS
  0
LAYER
  2
RED1
  70
0
  62
18
  6
CONTINUOUS
  0
LAYER
  2
MAGENTA1
  70
0
  62
228
  6
CONTINUOUS
  0
LAYER
  2
BROWN1
  70
0
  62
58
  6
CONTINUOUS
  0
LAYER
  2
BLUE2
  70
0
  62
5
  6
CONTINUOUS
  0
LAYER
  2
GREEN2
  70
0
  62
3
  6
CONTINUOUS
  0
LAYER
  2
CYAN2
  70
0
  62
4
  6
CONTINUOUS
  0
LAYER
  2
RED2
  70
0
  62
1
  6
CONTINUOUS
  0
LAYER
  2
MAGENTA2
  70
0
  62
6
  6
CONTINUOUS
  0
LAYER
  2
BROWN2
  70
0
  62
54
  6
CONTINUOUS
  0
LAYER
  2
BLUE3
  70
0
  62
171
  6
CONTINUOUS
  0
LAYER
  2
GREEN3
  70
0
  62
91
  6
CONTINUOUS
  0
LAYER
  2
CYAN3
  70
0
  62
131
  6
CONTINUOUS
  0
LAYER
  2
RED3
  70
0
  62
11
  6
CONTINUOUS
  0
LAYER
  2
MAGENTA3
  70
0
  62
221
  6
CONTINUOUS
  0
LAYER
  2
YELLOW3
  70
0
  62
2
  6
CONTINUOUS
  0
LAYER
  2
BLUE4
  70
0
  62
5
  6
CONTINUOUS
  0
LAYER
  2
GREEN4
  70
0
  62
3
  6
CONTINUOUS
  0
LAYER
  2
CYAN4
  70
0
  62
4
  6
CONTINUOUS
  0
LAYER
  2
RED4
  70
0
  62
1
  6
CONTINUOUS
  0
LAYER
  2
MAGENTA4
  70
0
  62
6
  6
CONTINUOUS
  0
LAYER
  2
YELLOW4
  70
0
  62
2
  6
CONTINUOUS
  0
ENDTAB
  0
ENDSEC
  0
SECTION
  2
ENTITIES
0
LINE
8
Black
10
183.006
20
100.074
11
183.013
21
100.074
0
LINE
8
Black
10
183.013
20
100.074
11
183.868
21
99.9231
0
LINE
8
Black
10
183.868
20
99.9231
11
183.893
21
99.9142
0
LINE
8
Black
10
183.893
20
99.9142
11
184.644
21
99.4801
0
LINE
8
Black
10
184.644
20
99.4801
11
184.664
21
99.4633
0
LINE
8
Black
10
184.664
20
99.4633
11
185.223
21
98.7982
0
LINE
8
Black
10
185.223
20
98.7982
11
185.236
21
98.7757
0
LINE
8
Black
10
185.236
20
98.7757
11
185.532
21
97.9598
0
LINE
8
Black
10
185.532
20
97.9598
11
185.534
21
97.9501
0
LINE
8
Black
10
185.534
20
97.9501
11
185.537
21
97.9407
0
LINE
8
Black
10
185.537
20
97.9407
11
185.575
21
97.5065
0
LINE
8
Black
10
185.575
20
97.5065
11
185.574
21
97.5032
0
LINE
8
Black
10
185.574
20
97.5032
11
185.575
21
97.5
0
LINE
8
Black
10
185.575
20
97.5
11
185.575
21
70.6
0
LINE
8
Black
10
185.575
20
70.6
11
185.574
21
70.5935
0
LINE
8
Black
10
185.574
20
70.5935
11
185.574
21
70.587
0
LINE
8
Black
10
185.574
20
70.587
11
185.423
21
69.7319
0
LINE
8
Black
10
185.423
20
69.7319
11
185.414
21
69.7074
0
LINE
8
Black
10
185.414
20
69.7074
11
184.98
21
68.9555
0
LINE
8
Black
10
184.98
20
68.9555
11
184.963
21
68.9356
0
LINE
8
Black
10
184.963
20
68.9356
11
184.963
21
68.9356
0
LINE
8
Black
10
184.963
20
68.9356
11
184.298
21
68.3775
0
LINE
8
Black
10
184.298
20
68.3775
11
184.276
21
68.3645
0
LINE
8
Black
10
184.276
20
68.3645
11
183.46
21
68.0675
0
LINE
8
Black
10
183.46
20
68.0675
11
183.45
21
68.0658
0
LINE
8
Black
10
183.45
20
68.0658
11
183.441
21
68.0633
0
LINE
8
Black
10
183.441
20
68.0633
11
183.007
21
68.0253
0
LINE
8
Black
10
183.007
20
68.0253
11
183.003
21
68.0256
0
LINE
8
Black
10
183.003
20
68.0256
11
183
21
68.025
0
LINE
8
Black
10
183
20
68.025
11
164.507
21
68.025
0
LINE
8
Black
10
164.507
20
68.025
11
164.184
21
67.9681
0
LINE
8
Black
10
164.184
20
67.9681
11
163.906
21
67.8077
0
LINE
8
Black
10
163.906
20
67.8077
11
163.7
21
67.5619
0
LINE
8
Black
10
163.7
20
67.5619
11
163.59
21
67.2604
0
LINE
8
Black
10
163.59
20
67.2604
11
163.59
21
66.9396
0
LINE
8
Black
10
163.59
20
66.9396
11
163.7
21
66.6381
0
LINE
8
Black
10
163.7
20
66.6381
11
163.906
21
66.3923
0
LINE
8
Black
10
163.906
20
66.3923
11
164.184
21
66.2319
0
LINE
8
Black
10
164.184
20
66.2319
11
164.507
21
66.175
0
LINE
8
Black
10
164.507
20
66.175
11
183
21
66.175
0
LINE
8
Black
10
183
20
66.175
11
183.006
21
66.1739
0
LINE
8
Black
10
183.006
20
66.1739
11
183.013
21
66.1739
0
LINE
8
Black
10
183.013
20
66.1739
11
183.868
21
66.0231
0
LINE
8
Black
10
183.868
20
66.0231
11
183.893
21
66.0142
0
LINE
8
Black
10
183.893
20
66.0142
11
184.644
21
65.5801
0
LINE
8
Black
10
184.644
20
65.5801
11
184.664
21
65.5633
0
LINE
8
Black
10
184.664
20
65.5633
11
185.223
21
64.8982
0
LINE
8
Black
10
185.223
20
64.8982
11
185.236
21
64.8757
0
LINE
8
Black
10
185.236
20
64.8757
11
185.532
21
64.0598
0
LINE
8
Black
10
185.532
20
64.0598
11
185.534
21
64.0501
0
LINE
8
Black
10
185.534
20
64.0501
11
185.537
21
64.0407
0
LINE
8
Black
10
185.537
20
64.0407
11
185.575
21
63.6065
0
LINE
8
Black
10
185.575
20
63.6065
11
185.574
21
63.6032
0
LINE
8
Black
10
185.574
20
63.6032
11
185.575
21
63.6
0
LINE
8
Black
10
185.575
20
63.6
11
185.575
21
3.5
0
LINE
8
Black
10
185.575
20
3.5
11
185.574
21
3.49354
0
LINE
8
Black
10
185.574
20
3.49354
11
185.574
21
3.48698
0
LINE
8
Black
10
185.574
20
3.48698
11
185.423
21
2.63193
0
LINE
8
Black
10
185.423
20
2.63193
11
185.414
21
2.60745
0
LINE
8
Black
10
185.414
20
2.60745
11
184.98
21
1.85553
0
LINE
8
Black
10
184.98
20
1.85553
11
184.963
21
1.83558
0
LINE
8
Black
10
184.963
20
1.83558
11
184.963
21
1.83558
0
LINE
8
Black
10
184.963
20
1.83558
11
184.298
21
1.27748
0
LINE
8
Black
10
184.298
20
1.27748
11
184.276
21
1.26446
0
LINE
8
Black
10
184.276
20
1.26446
11
183.46
21
0.967505
0
LINE
8
Black
10
183.46
20
0.967505
11
183.45
21
0.965804
0
LINE
8
Black
10
183.45
20
0.965804
11
183.441
21
0.963267
0
LINE
8
Black
10
183.441
20
0.963267
11
183.007
21
0.925286
0
LINE
8
Black
10
183.007
20
0.925286
11
183.003
21
0.925574
0
LINE
8
Black
10
183.003
20
0.925574
11
183
21
0.925001
0
LINE
8
Black
10
183
20
0.925001
11
164.507
21
0.925
0
LINE
8
Black
10
164.507
20
0.925
11
164.184
21
0.868129
0
LINE
8
Black
10
164.184
20
0.868129
11
163.906
21
0.707706
0
LINE
8
Black
10
163.906
20
0.707706
11
163.7
21
0.461923
0
LINE
8
Black
10
163.7
20
0.461923
11
163.59
21
0.160424
0
LINE
8
Black
10
163.59
20
0.160424
11
163.59
21
-0.160422
0
LINE
8
Black
10
163.59
20
-0.160422
11
163.7
21
-0.461921
0
LINE
8
Black
10
163.7
20
-0.461921
11
163.906
21
-0.707704
0
LINE
8
Black
10
163.906
20
-0.707704
11
164.184
21
-0.868127
0
LINE
8
Black
10
164.184
20
-0.868127
11
164.507
21
-0.925
0
LINE
8
Black
10
164.507
20
-0.925
11
183
21
-0.924999
0
LINE
8
Black
10
183
20
-0.924999
11
183.006
21
-0.926138
0
LINE
8
Black
10
183.006
20
-0.926138
11
183.013
21
-0.926138
0
LINE
8
Black
10
183.013
20
-0.926138
11
183.868
21
-1.07691
0
LINE
8
Black
10
183.868
20
-1.07691
11
183.893
21
-1.08581
0
LINE
8
Black
10
183.893
20
-1.08581
11
184.644
21
-1.51994
0
LINE
8
Black
10
184.644
20
-1.51994
11
184.664
21
-1.53668
0
LINE
8
Black
10
184.664
20
-1.53668
11
185.223
21
-2.20179
0
LINE
8
Black
10
185.223
20
-2.20179
11
185.236
21
-2.22435
0
LINE
8
Black
10
185.236
20
-2.22435
11
185.532
21
-3.04023
0
LINE
8
Black
10
185.532
20
-3.04023
11
185.534
21
-3.04987
0
LINE
8
Black
10
185.534
20
-3.04987
11
185.537
21
-3.05934
0
LINE
8
Black
10
185.537
20
-3.05934
11
185.575
21
-3.49346
0
LINE
8
Black
10
185.575
20
-3.49346
11
185.574
21
-3.49675
0
LINE
8
Black
10
185.574
20
-3.49675
11
185.575
21
-3.5
0
LINE
8
Black
10
185.575
20
-3.5
11
185.575
21
-63.6
0
LINE
8
Black
10
185.575
20
-63.6
11
185.574
21
-63.6065
0
LINE
8
Black
10
185.574
20
-63.6065
11
185.574
21
-63.613
0
LINE
8
Black
10
185.574
20
-63.613
11
185.423
21
-64.4681
0
LINE
8
Black
10
185.423
20
-64.4681
11
185.414
21
-64.4925
0
LINE
8
Black
10
185.414
20
-64.4925
11
184.98
21
-65.2445
0
LINE
8
Black
10
184.98
20
-65.2445
11
184.963
21
-65.2644
0
LINE
8
Black
10
184.963
20
-65.2644
11
184.963
21
-65.2644
0
LINE
8
Black
10
184.963
20
-65.2644
11
184.298
21
-65.8225
0
LINE
8
Black
10
184.298
20
-65.8225
11
184.276
21
-65.8355
0
LINE
8
Black
10
184.276
20
-65.8355
11
183.46
21
-66.1325
0
LINE
8
Black
10
183.46
20
-66.1325
11
183.45
21
-66.1342
0
LINE
8
Black
10
183.45
20
-66.1342
11
183.441
21
-66.1367
0
LINE
8
Black
10
183.441
20
-66.1367
11
183.007
21
-66.1747
0
LINE
8
Black
10
183.007
20
-66.1747
11
183.003
21
-66.1744
0
LINE
8
Black
10
183.003
20
-66.1744
11
183
21
-66.175
0
LINE
8
Black
10
183
20
-66.175
11
164.507
21
-66.175
0
LINE
8
Black
10
164.507
20
-66.175
11
164.184
21
-66.2319
0
LINE
8
Black
10
164.184
20
-66.2319
11
163.906
21
-66.3923
0
LINE
8
Black
10
163.906
20
-66.3923
11
163.7
21
-66.6381
0
LINE
8
Black
10
163.7
20
-66.6381
11
163.59
21
-66.9396
0
LINE
8
Black
10
163.59
20
-66.9396
11
163.59
21
-67.2604
0
LINE
8
Black
10
163.59
20
-67.2604
11
163.7
21
-67.5619
0
LINE
8
Black
10
163.7
20
-67.5619
11
163.906
21
-67.8077
0
LINE
8
Black
10
163.906
20
-67.8077
11
164.184
21
-67.9681
0
LINE
8
Black
10
164.184
20
-67.9681
11
164.507
21
-68.025
0
LINE
8
Black
10
164.507
20
-68.025
11
183
21
-68.025
0
LINE
8
Black
10
183
20
-68.025
11
183.006
21
-68.0261
0
LINE
8
Black
10
183.006
20
-68.0261
11
183.013
21
-68.0261
0
LINE
8
Black
10
183.013
20
-68.0261
11
183.868
21
-68.1769
0
LINE
8
Black
10
183.868
20
-68.1769
11
183.893
21
-68.1858
0
LINE
8
Black
10
183.893
20
-68.1858
11
184.644
21
-68.6199
0
LINE
8
Black
10
184.644
20
-68.6199
11
184.664
21
-68.6367
0
LINE
8
Black
10
184.664
20
-68.6367
11
185.223
21
-69.3018
0
LINE
8
Black
10
185.223
20
-69.3018
11
185.236
21
-69.3243
0
LINE
8
Black
10
185.236
20
-69.3243
11
185.532
21
-70.1402
0
LINE
8
Black
10
185.532
20
-70.1402
11
185.534
21
-70.1499
0
LINE
8
Black
10
185.534
20
-70.1499
11
185.537
21
-70.1593
0
LINE
8
Black
10
185.537
20
-70.1593
11
185.575
21
-70.5935
0
LINE
8
Black
10
185.575
20
-70.5935
11
185.574
21
-70.5968
0
LINE
8
Black
10
185.574
20
-70.5968
11
185.575
21
-70.6
0
LINE
8
Black
10
185.575
20
-70.6
11
185.575
21
-97.5
0
LINE
8
Black
10
185.575
20
-97.5
11
185.574
21
-97.5065
0
LINE
8
Black
10
185.574
20
-97.5065
11
185.574
21
-97.513
0
LINE
8
Black
10
185.574
20
-97.513
11
185.423
21
-98.3681
0
LINE
8
Black
10
185.423
20
-98.3681
11
185.414
21
-98.3925
0
LINE
8
Black
10
185.414
20
-98.3925
11
184.98
21
-99.1445
0
LINE
8
Black
10
184.98
20
-99.1445
11
184.963
21
-99.1644
0
LINE
8
Black
10
184.963
20
-99.1644
11
184.963
21
-99.1644
0
LINE
8
Black
10
184.963
20
-99.1644
11
184.298
21
-99.7225
0
LINE
8
Black
10
184.298
20
-99.7225
11
184.276
21
-99.7355
0
LINE
8
Black
10
184.276
20
-99.7355
11
183.46
21
-100.032
0
LINE
8
Black
10
183.46
20
-100.032
11
183.45
21
-100.034
0
LINE
8
Black
10
183.45
20
-100.034
11
183.441
21
-100.037
0
LINE
8
Black
10
183.441
20
-100.037
11
183.007
21
-100.075
0
LINE
8
Black
10
183.007
20
-100.075
11
183.003
21
-100.074
0
LINE
8
Black
10
183.003
20
-100.074
11
183
21
-100.075
0
LINE
8
Black
10
183
20
-100.075
11
-37
21
-100.075
0
LINE
8
Black
10
-37
20
-100.075
11
-37.0065
21
-100.074
0
LINE
8
Black
10
-37.0065
20
-100.074
11
-37.013
21
-100.074
0
LINE
8
Black
10
-37.013
20
-100.074
11
-37.8681
21
-99.9231
0
LINE
8
Black
10
-37.8681
20
-99.9231
11
-37.8925
21
-99.9142
0
LINE
8
Black
10
-37.8925
20
-99.9142
11
-38.6445
21
-99.4801
0
LINE
8
Black
10
-38.6445
20
-99.4801
11
-38.6644
21
-99.4633
0
LINE
8
Black
10
-38.6644
20
-99.4633
11
-38.6644
21
-99.4633
0
LINE
8
Black
10
-38.6644
20
-99.4633
11
-39.2225
21
-98.7982
0
LINE
8
Black
10
-39.2225
20
-98.7982
11
-39.2355
21
-98.7757
0
LINE
8
Black
10
-39.2355
20
-98.7757
11
-39.5325
21
-97.9598
0
LINE
8
Black
10
-39.5325
20
-97.9598
11
-39.5342
21
-97.9501
0
LINE
8
Black
10
-39.5342
20
-97.9501
11
-39.5367
21
-97.9407
0
LINE
8
Black
10
-39.5367
20
-97.9407
11
-39.5747
21
-97.5065
0
LINE
8
Black
10
-39.5747
20
-97.5065
11
-39.5744
21
-97.5032
0
LINE
8
Black
10
-39.5744
20
-97.5032
11
-39.575
21
-97.5
0
LINE
8
Black
10
-39.575
20
-97.5
11
-39.575
21
97.5
0
LINE
8
Black
10
-39.575
20
97.5
11
-39.5739
21
97.5065
0
LINE
8
Black
10
-39.5739
20
97.5065
11
-39.5739
21
97.513
0
LINE
8
Black
10
-39.5739
20
97.513
11
-39.4231
21
98.3681
0
LINE
8
Black
10
-39.4231
20
98.3681
11
-39.4142
21
98.3925
0
LINE
8
Black
10
-39.4142
20
98.3925
11
-38.9801
21
99.1445
0
LINE
8
Black
10
-38.9801
20
99.1445
11
-38.9633
21
99.1644
0
LINE
8
Black
10
-38.9633
20
99.1644
11
-38.2982
21
99.7225
0
LINE
8
Black
10
-38.2982
20
99.7225
11
-38.2757
21
99.7355
0
LINE
8
Black
10
-38.2757
20
99.7355
11
-37.4598
21
100.032
0
LINE
8
Black
10
-37.4598
20
100.032
11
-37.4501
21
100.034
0
LINE
8
Black
10
-37.4501
20
100.034
11
-37.4407
21
100.037
0
LINE
8
Black
10
-37.4407
20
100.037
11
-37.0065
21
100.075
0
LINE
8
Black
10
-37.0065
20
100.075
11
-37.0032
21
100.074
0
LINE
8
Black
10
-37.0032
20
100.074
11
-37
21
100.075
0
LINE
8
Black
10
-37
20
100.075
11
183
21
100.075
0
LINE
8
Black
10
183
20
100.075
11
183.006
21
100.074
0
LINE
8
Black
10
-36.9967
20
99.925
11
-37.4177
21
99.8882
0
LINE
8
Black
10
-37.4177
20
99.8882
11
-38.2119
21
99.5991
0
LINE
8
Black
10
-38.2119
20
99.5991
11
-38.8568
21
99.058
0
LINE
8
Black
10
-38.8568
20
99.058
11
-39.2777
21
98.329
0
LINE
8
Black
10
-39.2777
20
98.329
11
-39.425
21
97.4934
0
LINE
8
Black
10
-39.425
20
97.4934
11
-39.425
21
-97.4967
0
LINE
8
Black
10
-39.425
20
-97.4967
11
-39.3882
21
-97.9177
0
LINE
8
Black
10
-39.3882
20
-97.9177
11
-39.0991
21
-98.7119
0
LINE
8
Black
10
-39.0991
20
-98.7119
11
-38.558
21
-99.3568
0
LINE
8
Black
10
-38.558
20
-99.3568
11
-37.829
21
-99.7777
0
LINE
8
Black
10
-37.829
20
-99.7777
11
-36.9934
21
-99.925
0
LINE
8
Black
10
-36.9934
20
-99.925
11
182.997
21
-99.925
0
LINE
8
Black
10
182.997
20
-99.925
11
183.418
21
-99.8882
0
LINE
8
Black
10
183.418
20
-99.8882
11
184.212
21
-99.5991
0
LINE
8
Black
10
184.212
20
-99.5991
11
184.857
21
-99.058
0
LINE
8
Black
10
184.857
20
-99.058
11
185.278
21
-98.329
0
LINE
8
Black
10
185.278
20
-98.329
11
185.425
21
-97.4934
0
LINE
8
Black
10
185.425
20
-97.4934
11
185.425
21
-70.6033
0
LINE
8
Black
10
185.425
20
-70.6033
11
185.388
21
-70.1822
0
LINE
8
Black
10
185.388
20
-70.1822
11
185.099
21
-69.3881
0
LINE
8
Black
10
185.099
20
-69.3881
11
184.558
21
-68.7432
0
LINE
8
Black
10
184.558
20
-68.7432
11
183.829
21
-68.3223
0
LINE
8
Black
10
183.829
20
-68.3223
11
182.993
21
-68.175
0
LINE
8
Black
10
182.993
20
-68.175
11
164.5
21
-68.175
0
LINE
8
Black
10
164.5
20
-68.175
11
164.494
21
-68.1739
0
LINE
8
Black
10
164.494
20
-68.1739
11
164.487
21
-68.1739
0
LINE
8
Black
10
164.487
20
-68.1739
11
164.145
21
-68.1136
0
LINE
8
Black
10
164.145
20
-68.1136
11
164.12
21
-68.1046
0
LINE
8
Black
10
164.12
20
-68.1046
11
163.82
21
-67.931
0
LINE
8
Black
10
163.82
20
-67.931
11
163.82
21
-67.931
0
LINE
8
Black
10
163.82
20
-67.931
11
163.817
21
-67.9283
0
LINE
8
Black
10
163.817
20
-67.9283
11
163.8
21
-67.9143
0
LINE
8
Black
10
163.8
20
-67.9143
11
163.8
21
-67.9142
0
LINE
8
Black
10
163.8
20
-67.9142
11
163.577
21
-67.6482
0
LINE
8
Black
10
163.577
20
-67.6482
11
163.577
21
-67.6482
0
LINE
8
Black
10
163.577
20
-67.6482
11
163.563
21
-67.6256
0
LINE
8
Black
10
163.563
20
-67.6256
11
163.445
21
-67.2993
0
LINE
8
Black
10
163.445
20
-67.2993
11
163.44
21
-67.2736
0
LINE
8
Black
10
163.44
20
-67.2736
11
163.44
21
-66.9263
0
LINE
8
Black
10
163.44
20
-66.9263
11
163.445
21
-66.9007
0
LINE
8
Black
10
163.445
20
-66.9007
11
163.563
21
-66.5743
0
LINE
8
Black
10
163.563
20
-66.5743
11
163.577
21
-66.5518
0
LINE
8
Black
10
163.577
20
-66.5518
11
163.577
21
-66.5518
0
LINE
8
Black
10
163.577
20
-66.5518
11
163.8
21
-66.2857
0
LINE
8
Black
10
163.8
20
-66.2857
11
163.8
21
-66.2857
0
LINE
8
Black
10
163.8
20
-66.2857
11
163.82
21
-66.269
0
LINE
8
Black
10
163.82
20
-66.269
11
163.82
21
-66.269
0
LINE
8
Black
10
163.82
20
-66.269
11
163.82
21
-66.269
0
LINE
8
Black
10
163.82
20
-66.269
11
163.82
21
-66.269
0
LINE
8
Black
10
163.82
20
-66.269
11
164.12
21
-66.0954
0
LINE
8
Black
10
164.12
20
-66.0954
11
164.145
21
-66.0864
0
LINE
8
Black
10
164.145
20
-66.0864
11
164.487
21
-66.0261
0
LINE
8
Black
10
164.487
20
-66.0261
11
164.494
21
-66.0261
0
LINE
8
Black
10
164.494
20
-66.0261
11
164.5
21
-66.025
0
LINE
8
Black
10
164.5
20
-66.025
11
182.997
21
-66.025
0
LINE
8
Black
10
182.997
20
-66.025
11
183.418
21
-65.9882
0
LINE
8
Black
10
183.418
20
-65.9882
11
184.212
21
-65.6991
0
LINE
8
Black
10
184.212
20
-65.6991
11
184.857
21
-65.158
0
LINE
8
Black
10
184.857
20
-65.158
11
185.278
21
-64.429
0
LINE
8
Black
10
185.278
20
-64.429
11
185.425
21
-63.5934
0
LINE
8
Black
10
185.425
20
-63.5934
11
185.425
21
-3.50328
0
LINE
8
Black
10
185.425
20
-3.50328
11
185.388
21
-3.08225
0
LINE
8
Black
10
185.388
20
-3.08225
11
185.099
21
-2.28808
0
LINE
8
Black
10
185.099
20
-2.28808
11
184.558
21
-1.64323
0
LINE
8
Black
10
184.558
20
-1.64323
11
183.829
21
-1.22233
0
LINE
8
Black
10
183.829
20
-1.22233
11
182.993
21
-1.075
0
LINE
8
Black
10
182.993
20
-1.075
11
164.5
21
-1.075
0
LINE
8
Black
10
164.5
20
-1.075
11
164.494
21
-1.07386
0
LINE
8
Black
10
164.494
20
-1.07386
11
164.487
21
-1.07386
0
LINE
8
Black
10
164.487
20
-1.07386
11
164.145
21
-1.01355
0
LINE
8
Black
10
164.145
20
-1.01355
11
164.12
21
-1.00464
0
LINE
8
Black
10
164.12
20
-1.00464
11
163.82
21
-0.830997
0
LINE
8
Black
10
163.82
20
-0.830997
11
163.82
21
-0.830996
0
LINE
8
Black
10
163.82
20
-0.830996
11
163.817
21
-0.828302
0
LINE
8
Black
10
163.817
20
-0.828302
11
163.8
21
-0.814252
0
LINE
8
Black
10
163.8
20
-0.814252
11
163.8
21
-0.814248
0
LINE
8
Black
10
163.8
20
-0.814248
11
163.577
21
-0.548211
0
LINE
8
Black
10
163.577
20
-0.548211
11
163.577
21
-0.548209
0
LINE
8
Black
10
163.577
20
-0.548209
11
163.563
21
-0.525651
0
LINE
8
Black
10
163.563
20
-0.525651
11
163.445
21
-0.199299
0
LINE
8
Black
10
163.445
20
-0.199299
11
163.44
21
-0.173647
0
LINE
8
Black
10
163.44
20
-0.173647
11
163.44
21
0.173649
0
LINE
8
Black
10
163.44
20
0.173649
11
163.445
21
0.199301
0
LINE
8
Black
10
163.445
20
0.199301
11
163.563
21
0.525653
0
LINE
8
Black
10
163.563
20
0.525653
11
163.577
21
0.548211
0
LINE
8
Black
10
163.577
20
0.548211
11
163.577
21
0.548213
0
LINE
8
Black
10
163.577
20
0.548213
11
163.8
21
0.81425
0
LINE
8
Black
10
163.8
20
0.81425
11
163.8
21
0.814254
0
LINE
8
Black
10
163.8
20
0.814254
11
163.82
21
0.830997
0
LINE
8
Black
10
163.82
20
0.830997
11
163.82
21
0.830997
0
LINE
8
Black
10
163.82
20
0.830997
11
163.82
21
0.830998
0
LINE
8
Black
10
163.82
20
0.830998
11
163.82
21
0.830999
0
LINE
8
Black
10
163.82
20
0.830999
11
164.12
21
1.00465
0
LINE
8
Black
10
164.12
20
1.00465
11
164.145
21
1.01355
0
LINE
8
Black
10
164.145
20
1.01355
11
164.487
21
1.07386
0
LINE
8
Black
10
164.487
20
1.07386
11
164.494
21
1.07386
0
LINE
8
Black
10
164.494
20
1.07386
11
164.5
21
1.075
0
LINE
8
Black
10
164.5
20
1.075
11
182.997
21
1.075
0
LINE
8
Black
10
182.997
20
1.075
11
183.418
21
1.11184
0
LINE
8
Black
10
183.418
20
1.11184
11
184.212
21
1.40089
0
LINE
8
Black
10
184.212
20
1.40089
11
184.857
21
1.94198
0
LINE
8
Black
10
184.857
20
1.94198
11
185.278
21
2.671
0
LINE
8
Black
10
185.278
20
2.671
11
185.425
21
3.50656
0
LINE
8
Black
10
185.425
20
3.50656
11
185.425
21
63.5967
0
LINE
8
Black
10
185.425
20
63.5967
11
185.388
21
64.0177
0
LINE
8
Black
10
185.388
20
64.0177
11
185.099
21
64.8119
0
LINE
8
Black
10
185.099
20
64.8119
11
184.558
21
65.4568
0
LINE
8
Black
10
184.558
20
65.4568
11
183.829
21
65.8777
0
LINE
8
Black
10
183.829
20
65.8777
11
182.993
21
66.025
0
LINE
8
Black
10
182.993
20
66.025
11
164.5
21
66.025
0
LINE
8
Black
10
164.5
20
66.025
11
164.494
21
66.0261
0
LINE
8
Black
10
164.494
20
66.0261
11
164.487
21
66.0261
0
LINE
8
Black
10
164.487
20
66.0261
11
164.145
21
66.0864
0
LINE
8
Black
10
164.145
20
66.0864
11
164.12
21
66.0954
0
LINE
8
Black
10
164.12
20
66.0954
11
163.82
21
66.269
0
LINE
8
Black
10
163.82
20
66.269
11
163.82
21
66.269
0
LINE
8
Black
10
163.82
20
66.269
11
163.817
21
66.2717
0
LINE
8
Black
10
163.817
20
66.2717
11
163.8
21
66.2857
0
LINE
8
Black
10
163.8
20
66.2857
11
163.8
21
66.2858
0
LINE
8
Black
10
163.8
20
66.2858
11
163.577
21
66.5518
0
LINE
8
Black
10
163.577
20
66.5518
11
163.577
21
66.5518
0
LINE
8
Black
10
163.577
20
66.5518
11
163.563
21
66.5743
0
LINE
8
Black
10
163.563
20
66.5743
11
163.445
21
66.9007
0
LINE
8
Black
10
163.445
20
66.9007
11
163.44
21
66.9264
0
LINE
8
Black
10
163.44
20
66.9264
11
163.44
21
67.2736
0
LINE
8
Black
10
163.44
20
67.2736
11
163.445
21
67.2993
0
LINE
8
Black
10
163.445
20
67.2993
11
163.563
21
67.6257
0
LINE
8
Black
10
163.563
20
67.6257
11
163.577
21
67.6482
0
LINE
8
Black
10
163.577
20
67.6482
11
163.577
21
67.6482
0
LINE
8
Black
10
163.577
20
67.6482
11
163.8
21
67.9142
0
LINE
8
Black
10
163.8
20
67.9142
11
163.8
21
67.9143
0
LINE
8
Black
10
163.8
20
67.9143
11
163.82
21
67.931
0
LINE
8
Black
10
163.82
20
67.931
11
163.82
21
67.931
0
LINE
8
Black
10
163.82
20
67.931
11
163.82
21
67.931
0
LINE
8
Black
10
163.82
20
67.931
11
163.82
21
67.931
0
LINE
8
Black
10
163.82
20
67.931
11
164.12
21
68.1046
0
LINE
8
Black
10
164.12
20
68.1046
11
164.145
21
68.1136
0
LINE
8
Black
10
164.145
20
68.1136
11
164.487
21
68.1739
0
LINE
8
Black
10
164.487
20
68.1739
11
164.494
21
68.1739
0
LINE
8
Black
10
164.494
20
68.1739
11
164.5
21
68.175
0
LINE
8
Black
10
164.5
20
68.175
11
182.997
21
68.175
0
LINE
8
Black
10
182.997
20
68.175
11
183.418
21
68.2118
0
LINE
8
Black
10
183.418
20
68.2118
11
184.212
21
68.5009
0
LINE
8
Black
10
184.212
20
68.5009
11
184.857
21
69.042
0
LINE
8
Black
10
184.857
20
69.042
11
185.278
21
69.771
0
LINE
8
Black
10
185.278
20
69.771
11
185.425
21
70.6066
0
LINE
8
Black
10
185.425
20
70.6066
11
185.425
21
97.4967
0
LINE
8
Black
10
185.425
20
97.4967
11
185.388
21
97.9177
0
LINE
8
Black
10
185.388
20
97.9177
11
185.099
21
98.7119
0
LINE
8
Black
10
185.099
20
98.7119
11
184.558
21
99.3568
0
LINE
8
Black
10
184.558
20
99.3568
11
183.829
21
99.7777
0
LINE
8
Black
10
183.829
20
99.7777
11
182.993
21
99.925
0
LINE
8
Black
10
182.993
20
99.925
11
-36.9967
21
99.925
  0
ENDSEC
  0
EOF
