G04 #@! TF.FileFunction,Soldermask,Bot*
%FSLAX46Y46*%
G04 Gerber Fmt 4.6, Leading zero omitted, Abs format (unit mm)*
G04 Created by KiCad (PCBNEW 4.0.1-stable) date 11/01/2018 20:27:04*
%MOMM*%
G01*
G04 APERTURE LIST*
%ADD10C,0.100000*%
%ADD11C,8.400000*%
%ADD12R,71.400000X11.200000*%
%ADD13C,3.400000*%
%ADD14R,13.400000X14.400000*%
%ADD15C,2.200000*%
G04 APERTURE END LIST*
D10*
D11*
X100000000Y-126300000D03*
X76200000Y-126300000D03*
X123800000Y-126300000D03*
X76200000Y-173500000D03*
X100000000Y-173500000D03*
X123800000Y-173500000D03*
D12*
X100000000Y-125900000D03*
X100000000Y-173900000D03*
D13*
X165850000Y-57250000D03*
X165850000Y-109750000D03*
X186150000Y-109750000D03*
X186150000Y-57250000D03*
D14*
X279500000Y-139000000D03*
X279500000Y-161000000D03*
X416500000Y-139000000D03*
X416500000Y-161000000D03*
X279500000Y-71900000D03*
X279500000Y-93900000D03*
X416500000Y-71900000D03*
X416500000Y-93900000D03*
D11*
X100000000Y-192800000D03*
X76200000Y-192800000D03*
X123800000Y-192800000D03*
X76200000Y-240000000D03*
X100000000Y-240000000D03*
X123800000Y-240000000D03*
D12*
X100000000Y-192400000D03*
X100000000Y-240400000D03*
D11*
X100000000Y-192800000D03*
X76200000Y-192800000D03*
X123800000Y-192800000D03*
X76200000Y-240000000D03*
X100000000Y-240000000D03*
X123800000Y-240000000D03*
D12*
X100000000Y-192400000D03*
X100000000Y-240400000D03*
D11*
X100000000Y-59850000D03*
X76200000Y-59850000D03*
X123800000Y-59850000D03*
X76200000Y-107050000D03*
X100000000Y-107050000D03*
X123800000Y-107050000D03*
D12*
X100000000Y-59450000D03*
X100000000Y-107450000D03*
D14*
X279500000Y-206100000D03*
X279500000Y-228100000D03*
X416500000Y-206100000D03*
X416500000Y-228100000D03*
D15*
X273150000Y-199750000D03*
X278230000Y-199750000D03*
X280770000Y-199750000D03*
X283310000Y-199750000D03*
X285850000Y-199750000D03*
X283310000Y-202290000D03*
X275690000Y-199750000D03*
X285850000Y-202290000D03*
X273150000Y-204830000D03*
X273150000Y-207370000D03*
X273150000Y-212450000D03*
X273150000Y-202290000D03*
X275690000Y-202290000D03*
X275690000Y-212450000D03*
X278230000Y-212450000D03*
X280770000Y-212450000D03*
X283310000Y-209910000D03*
X285850000Y-209910000D03*
X273150000Y-209910000D03*
X275690000Y-209910000D03*
X285850000Y-207370000D03*
X285850000Y-204830000D03*
X283310000Y-212450000D03*
X285850000Y-212450000D03*
X273150000Y-221750000D03*
X278230000Y-221750000D03*
X280770000Y-221750000D03*
X283310000Y-221750000D03*
X285850000Y-221750000D03*
X283310000Y-224290000D03*
X275690000Y-221750000D03*
X285850000Y-224290000D03*
X273150000Y-226830000D03*
X273150000Y-229370000D03*
X273150000Y-234450000D03*
X273150000Y-224290000D03*
X275690000Y-224290000D03*
X275690000Y-234450000D03*
X278230000Y-234450000D03*
X280770000Y-234450000D03*
X283310000Y-231910000D03*
X285850000Y-231910000D03*
X273150000Y-231910000D03*
X275690000Y-231910000D03*
X285850000Y-229370000D03*
X285850000Y-226830000D03*
X283310000Y-234450000D03*
X285850000Y-234450000D03*
X273150000Y-132650000D03*
X278230000Y-132650000D03*
X280770000Y-132650000D03*
X283310000Y-132650000D03*
X285850000Y-132650000D03*
X283310000Y-135190000D03*
X275690000Y-132650000D03*
X285850000Y-135190000D03*
X273150000Y-137730000D03*
X273150000Y-140270000D03*
X273150000Y-145350000D03*
X273150000Y-135190000D03*
X275690000Y-135190000D03*
X275690000Y-145350000D03*
X278230000Y-145350000D03*
X280770000Y-145350000D03*
X283310000Y-142810000D03*
X285850000Y-142810000D03*
X273150000Y-142810000D03*
X275690000Y-142810000D03*
X285850000Y-140270000D03*
X285850000Y-137730000D03*
X283310000Y-145350000D03*
X285850000Y-145350000D03*
X273150000Y-87550000D03*
X278230000Y-87550000D03*
X280770000Y-87550000D03*
X283310000Y-87550000D03*
X285850000Y-87550000D03*
X283310000Y-90090000D03*
X275690000Y-87550000D03*
X285850000Y-90090000D03*
X273150000Y-92630000D03*
X273150000Y-95170000D03*
X273150000Y-100250000D03*
X273150000Y-90090000D03*
X275690000Y-90090000D03*
X275690000Y-100250000D03*
X278230000Y-100250000D03*
X280770000Y-100250000D03*
X283310000Y-97710000D03*
X285850000Y-97710000D03*
X273150000Y-97710000D03*
X275690000Y-97710000D03*
X285850000Y-95170000D03*
X285850000Y-92630000D03*
X283310000Y-100250000D03*
X285850000Y-100250000D03*
X273150000Y-65550000D03*
X278230000Y-65550000D03*
X280770000Y-65550000D03*
X283310000Y-65550000D03*
X285850000Y-65550000D03*
X283310000Y-68090000D03*
X275690000Y-65550000D03*
X285850000Y-68090000D03*
X273150000Y-70630000D03*
X273150000Y-73170000D03*
X273150000Y-78250000D03*
X273150000Y-68090000D03*
X275690000Y-68090000D03*
X275690000Y-78250000D03*
X278230000Y-78250000D03*
X280770000Y-78250000D03*
X283310000Y-75710000D03*
X285850000Y-75710000D03*
X273150000Y-75710000D03*
X275690000Y-75710000D03*
X285850000Y-73170000D03*
X285850000Y-70630000D03*
X283310000Y-78250000D03*
X285850000Y-78250000D03*
X273150000Y-154650000D03*
X278230000Y-154650000D03*
X280770000Y-154650000D03*
X283310000Y-154650000D03*
X285850000Y-154650000D03*
X283310000Y-157190000D03*
X275690000Y-154650000D03*
X285850000Y-157190000D03*
X273150000Y-159730000D03*
X273150000Y-162270000D03*
X273150000Y-167350000D03*
X273150000Y-157190000D03*
X275690000Y-157190000D03*
X275690000Y-167350000D03*
X278230000Y-167350000D03*
X280770000Y-167350000D03*
X283310000Y-164810000D03*
X285850000Y-164810000D03*
X273150000Y-164810000D03*
X275690000Y-164810000D03*
X285850000Y-162270000D03*
X285850000Y-159730000D03*
X283310000Y-167350000D03*
X285850000Y-167350000D03*
D13*
X224150000Y-109750000D03*
X224150000Y-57250000D03*
X203850000Y-57250000D03*
X203850000Y-109750000D03*
X241850000Y-190250000D03*
X241850000Y-242750000D03*
X262150000Y-242750000D03*
X262150000Y-190250000D03*
X241850000Y-123750000D03*
X241850000Y-176250000D03*
X262150000Y-176250000D03*
X262150000Y-123750000D03*
X241850000Y-57250000D03*
X241850000Y-109750000D03*
X262150000Y-109750000D03*
X262150000Y-57250000D03*
X224150000Y-242750000D03*
X224150000Y-190250000D03*
X203850000Y-190250000D03*
X203850000Y-242750000D03*
X165850000Y-190250000D03*
X165850000Y-242750000D03*
X186150000Y-242750000D03*
X186150000Y-190250000D03*
X165850000Y-123750000D03*
X165850000Y-176250000D03*
X186150000Y-176250000D03*
X186150000Y-123750000D03*
X224150000Y-176250000D03*
X224150000Y-123750000D03*
X203850000Y-123750000D03*
X203850000Y-176250000D03*
M02*
