G04 #@! TF.FileFunction,Copper,L2,Bot,Signal*
%FSLAX46Y46*%
G04 Gerber Fmt 4.6, Leading zero omitted, Abs format (unit mm)*
G04 Created by KiCad (PCBNEW 4.0.1-stable) date 11/01/2018 20:27:04*
%MOMM*%
G01*
G04 APERTURE LIST*
%ADD10C,0.100000*%
%ADD11C,8.000000*%
%ADD12R,71.000000X10.800000*%
%ADD13C,3.000000*%
%ADD14R,13.000000X14.000000*%
%ADD15C,1.800000*%
%ADD16C,1.200000*%
%ADD17C,0.600000*%
%ADD18C,0.254000*%
G04 APERTURE END LIST*
D10*
D11*
X100000000Y-126300000D03*
X76200000Y-126300000D03*
X123800000Y-126300000D03*
X76200000Y-173500000D03*
X100000000Y-173500000D03*
X123800000Y-173500000D03*
D12*
X100000000Y-125900000D03*
X100000000Y-173900000D03*
D13*
X165850000Y-57250000D03*
X165850000Y-109750000D03*
X186150000Y-109750000D03*
X186150000Y-57250000D03*
D14*
X279500000Y-139000000D03*
X279500000Y-161000000D03*
X416500000Y-139000000D03*
X416500000Y-161000000D03*
X279500000Y-71900000D03*
X279500000Y-93900000D03*
X416500000Y-71900000D03*
X416500000Y-93900000D03*
D11*
X100000000Y-192800000D03*
X76200000Y-192800000D03*
X123800000Y-192800000D03*
X76200000Y-240000000D03*
X100000000Y-240000000D03*
X123800000Y-240000000D03*
D12*
X100000000Y-192400000D03*
X100000000Y-240400000D03*
D11*
X100000000Y-192800000D03*
X76200000Y-192800000D03*
X123800000Y-192800000D03*
X76200000Y-240000000D03*
X100000000Y-240000000D03*
X123800000Y-240000000D03*
D12*
X100000000Y-192400000D03*
X100000000Y-240400000D03*
D11*
X100000000Y-59850000D03*
X76200000Y-59850000D03*
X123800000Y-59850000D03*
X76200000Y-107050000D03*
X100000000Y-107050000D03*
X123800000Y-107050000D03*
D12*
X100000000Y-59450000D03*
X100000000Y-107450000D03*
D14*
X279500000Y-206100000D03*
X279500000Y-228100000D03*
X416500000Y-206100000D03*
X416500000Y-228100000D03*
D15*
X273150000Y-199750000D03*
X278230000Y-199750000D03*
X280770000Y-199750000D03*
X283310000Y-199750000D03*
X285850000Y-199750000D03*
X283310000Y-202290000D03*
X275690000Y-199750000D03*
X285850000Y-202290000D03*
X273150000Y-204830000D03*
X273150000Y-207370000D03*
X273150000Y-212450000D03*
X273150000Y-202290000D03*
X275690000Y-202290000D03*
X275690000Y-212450000D03*
X278230000Y-212450000D03*
X280770000Y-212450000D03*
X283310000Y-209910000D03*
X285850000Y-209910000D03*
X273150000Y-209910000D03*
X275690000Y-209910000D03*
X285850000Y-207370000D03*
X285850000Y-204830000D03*
X283310000Y-212450000D03*
X285850000Y-212450000D03*
X273150000Y-221750000D03*
X278230000Y-221750000D03*
X280770000Y-221750000D03*
X283310000Y-221750000D03*
X285850000Y-221750000D03*
X283310000Y-224290000D03*
X275690000Y-221750000D03*
X285850000Y-224290000D03*
X273150000Y-226830000D03*
X273150000Y-229370000D03*
X273150000Y-234450000D03*
X273150000Y-224290000D03*
X275690000Y-224290000D03*
X275690000Y-234450000D03*
X278230000Y-234450000D03*
X280770000Y-234450000D03*
X283310000Y-231910000D03*
X285850000Y-231910000D03*
X273150000Y-231910000D03*
X275690000Y-231910000D03*
X285850000Y-229370000D03*
X285850000Y-226830000D03*
X283310000Y-234450000D03*
X285850000Y-234450000D03*
X273150000Y-132650000D03*
X278230000Y-132650000D03*
X280770000Y-132650000D03*
X283310000Y-132650000D03*
X285850000Y-132650000D03*
X283310000Y-135190000D03*
X275690000Y-132650000D03*
X285850000Y-135190000D03*
X273150000Y-137730000D03*
X273150000Y-140270000D03*
X273150000Y-145350000D03*
X273150000Y-135190000D03*
X275690000Y-135190000D03*
X275690000Y-145350000D03*
X278230000Y-145350000D03*
X280770000Y-145350000D03*
X283310000Y-142810000D03*
X285850000Y-142810000D03*
X273150000Y-142810000D03*
X275690000Y-142810000D03*
X285850000Y-140270000D03*
X285850000Y-137730000D03*
X283310000Y-145350000D03*
X285850000Y-145350000D03*
X273150000Y-87550000D03*
X278230000Y-87550000D03*
X280770000Y-87550000D03*
X283310000Y-87550000D03*
X285850000Y-87550000D03*
X283310000Y-90090000D03*
X275690000Y-87550000D03*
X285850000Y-90090000D03*
X273150000Y-92630000D03*
X273150000Y-95170000D03*
X273150000Y-100250000D03*
X273150000Y-90090000D03*
X275690000Y-90090000D03*
X275690000Y-100250000D03*
X278230000Y-100250000D03*
X280770000Y-100250000D03*
X283310000Y-97710000D03*
X285850000Y-97710000D03*
X273150000Y-97710000D03*
X275690000Y-97710000D03*
X285850000Y-95170000D03*
X285850000Y-92630000D03*
X283310000Y-100250000D03*
X285850000Y-100250000D03*
X273150000Y-65550000D03*
X278230000Y-65550000D03*
X280770000Y-65550000D03*
X283310000Y-65550000D03*
X285850000Y-65550000D03*
X283310000Y-68090000D03*
X275690000Y-65550000D03*
X285850000Y-68090000D03*
X273150000Y-70630000D03*
X273150000Y-73170000D03*
X273150000Y-78250000D03*
X273150000Y-68090000D03*
X275690000Y-68090000D03*
X275690000Y-78250000D03*
X278230000Y-78250000D03*
X280770000Y-78250000D03*
X283310000Y-75710000D03*
X285850000Y-75710000D03*
X273150000Y-75710000D03*
X275690000Y-75710000D03*
X285850000Y-73170000D03*
X285850000Y-70630000D03*
X283310000Y-78250000D03*
X285850000Y-78250000D03*
X273150000Y-154650000D03*
X278230000Y-154650000D03*
X280770000Y-154650000D03*
X283310000Y-154650000D03*
X285850000Y-154650000D03*
X283310000Y-157190000D03*
X275690000Y-154650000D03*
X285850000Y-157190000D03*
X273150000Y-159730000D03*
X273150000Y-162270000D03*
X273150000Y-167350000D03*
X273150000Y-157190000D03*
X275690000Y-157190000D03*
X275690000Y-167350000D03*
X278230000Y-167350000D03*
X280770000Y-167350000D03*
X283310000Y-164810000D03*
X285850000Y-164810000D03*
X273150000Y-164810000D03*
X275690000Y-164810000D03*
X285850000Y-162270000D03*
X285850000Y-159730000D03*
X283310000Y-167350000D03*
X285850000Y-167350000D03*
D13*
X224150000Y-109750000D03*
X224150000Y-57250000D03*
X203850000Y-57250000D03*
X203850000Y-109750000D03*
X241850000Y-190250000D03*
X241850000Y-242750000D03*
X262150000Y-242750000D03*
X262150000Y-190250000D03*
X241850000Y-123750000D03*
X241850000Y-176250000D03*
X262150000Y-176250000D03*
X262150000Y-123750000D03*
X241850000Y-57250000D03*
X241850000Y-109750000D03*
X262150000Y-109750000D03*
X262150000Y-57250000D03*
X224150000Y-242750000D03*
X224150000Y-190250000D03*
X203850000Y-190250000D03*
X203850000Y-242750000D03*
X165850000Y-190250000D03*
X165850000Y-242750000D03*
X186150000Y-242750000D03*
X186150000Y-190250000D03*
X165850000Y-123750000D03*
X165850000Y-176250000D03*
X186150000Y-176250000D03*
X186150000Y-123750000D03*
X224150000Y-176250000D03*
X224150000Y-123750000D03*
X203850000Y-123750000D03*
X203850000Y-176250000D03*
D16*
X66000000Y-54500000D03*
X68000000Y-54500000D03*
X70000000Y-54500000D03*
X82000000Y-54500000D03*
X84000000Y-54500000D03*
X86000000Y-54500000D03*
X88000000Y-54500000D03*
X90000000Y-54500000D03*
X92000000Y-54500000D03*
X94000000Y-54500000D03*
X106000000Y-54500000D03*
X108000000Y-54500000D03*
X110000000Y-54500000D03*
X112000000Y-54500000D03*
X114000000Y-54500000D03*
X116000000Y-54500000D03*
X118000000Y-54500000D03*
X130000000Y-54500000D03*
X132000000Y-54500000D03*
X134000000Y-54500000D03*
X66000000Y-121000000D03*
X68000000Y-121000000D03*
X70000000Y-121000000D03*
X82000000Y-121000000D03*
X84000000Y-121000000D03*
X86000000Y-121000000D03*
X88000000Y-121000000D03*
X90000000Y-121000000D03*
X92000000Y-121000000D03*
X94000000Y-121000000D03*
X106000000Y-121000000D03*
X108000000Y-121000000D03*
X110000000Y-121000000D03*
X112000000Y-121000000D03*
X114000000Y-121000000D03*
X116000000Y-121000000D03*
X118000000Y-121000000D03*
X130000000Y-121000000D03*
X132000000Y-121000000D03*
X134000000Y-121000000D03*
X66000000Y-187500000D03*
X68000000Y-187500000D03*
X70000000Y-187500000D03*
X82000000Y-187500000D03*
X84000000Y-187500000D03*
X86000000Y-187500000D03*
X88000000Y-187500000D03*
X90000000Y-187500000D03*
X92000000Y-187500000D03*
X94000000Y-187500000D03*
X106000000Y-187500000D03*
X108000000Y-187500000D03*
X110000000Y-187500000D03*
X112000000Y-187500000D03*
X114000000Y-187500000D03*
X116000000Y-187500000D03*
X118000000Y-187500000D03*
X130000000Y-187500000D03*
X132000000Y-187500000D03*
X134000000Y-187500000D03*
X82000000Y-191500000D03*
X82000000Y-125000000D03*
X84000000Y-189500000D03*
X84000000Y-123000000D03*
X82000000Y-189500000D03*
X82000000Y-123000000D03*
X84000000Y-191500000D03*
X84000000Y-125000000D03*
X86000000Y-191500000D03*
X86000000Y-125000000D03*
X86000000Y-189500000D03*
X86000000Y-123000000D03*
X86000000Y-193500000D03*
X86000000Y-127000000D03*
X94000000Y-189500000D03*
X94000000Y-123000000D03*
X94000000Y-191500000D03*
X94000000Y-125000000D03*
X92000000Y-189500000D03*
X92000000Y-123000000D03*
X94000000Y-193500000D03*
X94000000Y-127000000D03*
X92000000Y-191500000D03*
X92000000Y-125000000D03*
X84000000Y-193500000D03*
X84000000Y-127000000D03*
X84000000Y-195500000D03*
X84000000Y-129000000D03*
X82000000Y-193500000D03*
X82000000Y-127000000D03*
X86000000Y-195500000D03*
X86000000Y-129000000D03*
X82000000Y-195500000D03*
X82000000Y-129000000D03*
X90000000Y-195500000D03*
X90000000Y-129000000D03*
X92000000Y-195500000D03*
X92000000Y-129000000D03*
X92000000Y-193500000D03*
X92000000Y-127000000D03*
X90000000Y-193500000D03*
X90000000Y-127000000D03*
X94000000Y-195500000D03*
X94000000Y-129000000D03*
X90000000Y-191500000D03*
X90000000Y-125000000D03*
X88000000Y-195500000D03*
X88000000Y-129000000D03*
X88000000Y-193500000D03*
X88000000Y-127000000D03*
X88000000Y-189500000D03*
X88000000Y-123000000D03*
X88000000Y-191500000D03*
X88000000Y-125000000D03*
X90000000Y-189500000D03*
X90000000Y-123000000D03*
X68000000Y-191500000D03*
X68000000Y-125000000D03*
X66000000Y-191500000D03*
X66000000Y-125000000D03*
X70000000Y-191500000D03*
X70000000Y-125000000D03*
X68000000Y-189500000D03*
X68000000Y-123000000D03*
X70000000Y-189500000D03*
X70000000Y-123000000D03*
X66000000Y-189500000D03*
X66000000Y-123000000D03*
X70000000Y-193500000D03*
X70000000Y-127000000D03*
X66000000Y-193500000D03*
X66000000Y-127000000D03*
X66000000Y-195500000D03*
X66000000Y-129000000D03*
X70000000Y-195500000D03*
X70000000Y-129000000D03*
X68000000Y-195500000D03*
X68000000Y-129000000D03*
X68000000Y-193500000D03*
X68000000Y-127000000D03*
X116000000Y-191500000D03*
X116000000Y-125000000D03*
X116000000Y-193500000D03*
X116000000Y-127000000D03*
X118000000Y-193500000D03*
X118000000Y-127000000D03*
X116000000Y-195500000D03*
X116000000Y-129000000D03*
X118000000Y-195500000D03*
X118000000Y-129000000D03*
X118000000Y-191500000D03*
X118000000Y-125000000D03*
X106000000Y-191500000D03*
X106000000Y-125000000D03*
X110000000Y-189500000D03*
X110000000Y-123000000D03*
X108000000Y-189500000D03*
X108000000Y-123000000D03*
X110000000Y-191500000D03*
X110000000Y-125000000D03*
X106000000Y-189500000D03*
X106000000Y-123000000D03*
X108000000Y-191500000D03*
X108000000Y-125000000D03*
X130000000Y-195500000D03*
X130000000Y-129000000D03*
X132000000Y-195500000D03*
X132000000Y-129000000D03*
X134000000Y-193500000D03*
X134000000Y-127000000D03*
X134000000Y-195500000D03*
X134000000Y-129000000D03*
X132000000Y-193500000D03*
X132000000Y-127000000D03*
X130000000Y-193500000D03*
X130000000Y-127000000D03*
X114000000Y-189500000D03*
X114000000Y-123000000D03*
X118000000Y-189500000D03*
X118000000Y-123000000D03*
X116000000Y-189500000D03*
X116000000Y-123000000D03*
X114000000Y-191500000D03*
X114000000Y-125000000D03*
X132000000Y-189500000D03*
X132000000Y-123000000D03*
X134000000Y-191500000D03*
X134000000Y-125000000D03*
X132000000Y-191500000D03*
X132000000Y-125000000D03*
X134000000Y-189500000D03*
X134000000Y-123000000D03*
X130000000Y-189500000D03*
X130000000Y-123000000D03*
X130000000Y-191500000D03*
X130000000Y-125000000D03*
X112000000Y-195500000D03*
X112000000Y-129000000D03*
X114000000Y-193500000D03*
X114000000Y-127000000D03*
X114000000Y-195500000D03*
X114000000Y-129000000D03*
X110000000Y-195500000D03*
X110000000Y-129000000D03*
X112000000Y-189500000D03*
X112000000Y-123000000D03*
X112000000Y-193500000D03*
X112000000Y-127000000D03*
X110000000Y-193500000D03*
X110000000Y-127000000D03*
X112000000Y-191500000D03*
X112000000Y-125000000D03*
X106000000Y-193500000D03*
X106000000Y-127000000D03*
X106000000Y-195500000D03*
X106000000Y-129000000D03*
X108000000Y-193500000D03*
X108000000Y-127000000D03*
X108000000Y-195500000D03*
X108000000Y-129000000D03*
X134000000Y-62500000D03*
X132000000Y-62500000D03*
X130000000Y-62500000D03*
X134000000Y-60500000D03*
X132000000Y-60500000D03*
X130000000Y-60500000D03*
X134000000Y-58500000D03*
X132000000Y-58500000D03*
X130000000Y-58500000D03*
X134000000Y-56500000D03*
X132000000Y-56500000D03*
X130000000Y-56500000D03*
X118000000Y-62500000D03*
X116000000Y-62500000D03*
X114000000Y-62500000D03*
X112000000Y-62500000D03*
X110000000Y-62500000D03*
X108000000Y-62500000D03*
X106000000Y-62500000D03*
X118000000Y-60500000D03*
X116000000Y-60500000D03*
X114000000Y-60500000D03*
X112000000Y-60500000D03*
X110000000Y-60500000D03*
X108000000Y-60500000D03*
X106000000Y-60500000D03*
X118000000Y-58500000D03*
X116000000Y-58500000D03*
X114000000Y-58500000D03*
X112000000Y-58500000D03*
X110000000Y-58500000D03*
X108000000Y-58500000D03*
X106000000Y-58500000D03*
X118000000Y-56500000D03*
X116000000Y-56500000D03*
X114000000Y-56500000D03*
X112000000Y-56500000D03*
X110000000Y-56500000D03*
X108000000Y-56500000D03*
X106000000Y-56500000D03*
X94000000Y-62500000D03*
X92000000Y-62500000D03*
X90000000Y-62500000D03*
X88000000Y-62500000D03*
X86000000Y-62500000D03*
X84000000Y-62500000D03*
X82000000Y-62500000D03*
X94000000Y-60500000D03*
X92000000Y-60500000D03*
X90000000Y-60500000D03*
X88000000Y-60500000D03*
X86000000Y-60500000D03*
X84000000Y-60500000D03*
X82000000Y-60500000D03*
X94000000Y-58500000D03*
X92000000Y-58500000D03*
X90000000Y-58500000D03*
X88000000Y-58500000D03*
X86000000Y-58500000D03*
X84000000Y-58500000D03*
X82000000Y-58500000D03*
X94000000Y-56500000D03*
X92000000Y-56500000D03*
X90000000Y-56500000D03*
X88000000Y-56500000D03*
X86000000Y-56500000D03*
X84000000Y-56500000D03*
X82000000Y-56500000D03*
X70000000Y-62500000D03*
X68000000Y-62500000D03*
X66000000Y-62500000D03*
X70000000Y-60500000D03*
X68000000Y-60500000D03*
X66000000Y-60500000D03*
X70000000Y-58500000D03*
X68000000Y-58500000D03*
X66000000Y-58500000D03*
X70000000Y-56500000D03*
X68000000Y-56500000D03*
X66000000Y-56500000D03*
X71000000Y-170500000D03*
X71000000Y-172500000D03*
X71000000Y-174500000D03*
X71000000Y-176500000D03*
X71000000Y-178500000D03*
X73000000Y-178500000D03*
X80000000Y-245000000D03*
X128000000Y-245000000D03*
X120000000Y-245000000D03*
X104000000Y-245000000D03*
X96000000Y-245000000D03*
X128000000Y-178500000D03*
X80000000Y-178500000D03*
X120000000Y-178500000D03*
X104000000Y-178500000D03*
X96000000Y-178500000D03*
X128000000Y-112000000D03*
X120000000Y-112000000D03*
X104000000Y-112000000D03*
X96000000Y-112000000D03*
X80000000Y-112000000D03*
X128000000Y-230500000D03*
X128000000Y-226500000D03*
X128000000Y-222500000D03*
X128000000Y-218500000D03*
X128000000Y-214500000D03*
X128000000Y-210500000D03*
X128000000Y-206500000D03*
X128000000Y-202500000D03*
X112000000Y-230500000D03*
X112000000Y-226500000D03*
X112000000Y-222500000D03*
X112000000Y-218500000D03*
X112000000Y-214500000D03*
X112000000Y-210500000D03*
X112000000Y-206500000D03*
X112000000Y-202500000D03*
X96000000Y-202500000D03*
X96000000Y-206500000D03*
X96000000Y-210500000D03*
X96000000Y-214500000D03*
X96000000Y-218500000D03*
X96000000Y-222500000D03*
X96000000Y-226500000D03*
X96000000Y-230500000D03*
X80000000Y-230500000D03*
X80000000Y-226500000D03*
X80000000Y-222500000D03*
X80000000Y-218500000D03*
X80000000Y-214500000D03*
X80000000Y-210500000D03*
X80000000Y-206500000D03*
X80000000Y-202500000D03*
X128000000Y-69500000D03*
X128000000Y-73500000D03*
X128000000Y-77500000D03*
X128000000Y-81500000D03*
X128000000Y-85500000D03*
X128000000Y-89500000D03*
X128000000Y-93500000D03*
X128000000Y-97500000D03*
X112000000Y-97500000D03*
X112000000Y-93500000D03*
X112000000Y-89500000D03*
X112000000Y-85500000D03*
X112000000Y-81500000D03*
X112000000Y-77500000D03*
X112000000Y-73500000D03*
X112000000Y-69500000D03*
X96000000Y-69500000D03*
X96000000Y-73500000D03*
X96000000Y-77500000D03*
X96000000Y-81500000D03*
X96000000Y-85500000D03*
X96000000Y-89500000D03*
X96000000Y-93500000D03*
X96000000Y-97500000D03*
X80000000Y-97500000D03*
X80000000Y-93500000D03*
X80000000Y-89500000D03*
X80000000Y-85500000D03*
X80000000Y-81500000D03*
X80000000Y-77500000D03*
X80000000Y-73500000D03*
X80000000Y-69500000D03*
X128000000Y-164000000D03*
X128000000Y-160000000D03*
X128000000Y-156000000D03*
X128000000Y-152000000D03*
X128000000Y-148000000D03*
X128000000Y-144000000D03*
X128000000Y-140000000D03*
X128000000Y-136000000D03*
X112000000Y-164000000D03*
X112000000Y-160000000D03*
X112000000Y-156000000D03*
X112000000Y-152000000D03*
X112000000Y-148000000D03*
X112000000Y-144000000D03*
X112000000Y-140000000D03*
X112000000Y-136000000D03*
X96000000Y-164000000D03*
X96000000Y-160000000D03*
X96000000Y-156000000D03*
X96000000Y-152000000D03*
X96000000Y-148000000D03*
X96000000Y-144000000D03*
X96000000Y-140000000D03*
X96000000Y-136000000D03*
X80000000Y-164000000D03*
X80000000Y-160000000D03*
X80000000Y-156000000D03*
X80000000Y-152000000D03*
X80000000Y-148000000D03*
X80000000Y-144000000D03*
X80000000Y-140000000D03*
X80000000Y-136000000D03*
X94000000Y-112000000D03*
X92000000Y-112000000D03*
X90000000Y-112000000D03*
X88000000Y-112000000D03*
X86000000Y-112000000D03*
X84000000Y-112000000D03*
X82000000Y-112000000D03*
X134000000Y-112000000D03*
X132000000Y-112000000D03*
X130000000Y-112000000D03*
X118000000Y-112000000D03*
X116000000Y-112000000D03*
X114000000Y-112000000D03*
X112000000Y-112000000D03*
X110000000Y-112000000D03*
X108000000Y-112000000D03*
X106000000Y-112000000D03*
X134000000Y-245000000D03*
X132000000Y-245000000D03*
X130000000Y-245000000D03*
X118000000Y-245000000D03*
X116000000Y-245000000D03*
X114000000Y-245000000D03*
X112000000Y-245000000D03*
X110000000Y-245000000D03*
X108000000Y-245000000D03*
X106000000Y-245000000D03*
X94000000Y-245000000D03*
X92000000Y-245000000D03*
X90000000Y-245000000D03*
X88000000Y-245000000D03*
X86000000Y-245000000D03*
X84000000Y-245000000D03*
X82000000Y-245000000D03*
X134000000Y-178500000D03*
X132000000Y-178500000D03*
X130000000Y-178500000D03*
X118000000Y-178500000D03*
X116000000Y-178500000D03*
X114000000Y-178500000D03*
X112000000Y-178500000D03*
X110000000Y-178500000D03*
X108000000Y-178500000D03*
X106000000Y-178500000D03*
X94000000Y-178500000D03*
X92000000Y-178500000D03*
X90000000Y-178500000D03*
X88000000Y-178500000D03*
X86000000Y-178500000D03*
X84000000Y-178500000D03*
X82000000Y-178500000D03*
X106000000Y-239000000D03*
X106000000Y-172500000D03*
X106000000Y-237000000D03*
X106000000Y-170500000D03*
X108000000Y-239000000D03*
X108000000Y-172500000D03*
X108000000Y-237000000D03*
X108000000Y-170500000D03*
X108000000Y-241000000D03*
X108000000Y-174500000D03*
X112000000Y-237000000D03*
X112000000Y-170500000D03*
X110000000Y-239000000D03*
X110000000Y-172500000D03*
X110000000Y-237000000D03*
X110000000Y-170500000D03*
X114000000Y-237000000D03*
X114000000Y-170500000D03*
X114000000Y-239000000D03*
X114000000Y-172500000D03*
X112000000Y-239000000D03*
X112000000Y-172500000D03*
X116000000Y-237000000D03*
X116000000Y-170500000D03*
X116000000Y-239000000D03*
X116000000Y-172500000D03*
X110000000Y-243000000D03*
X110000000Y-176500000D03*
X110000000Y-241000000D03*
X110000000Y-174500000D03*
X106000000Y-243000000D03*
X106000000Y-176500000D03*
X108000000Y-243000000D03*
X108000000Y-176500000D03*
X106000000Y-241000000D03*
X106000000Y-174500000D03*
X112000000Y-243000000D03*
X112000000Y-176500000D03*
X116000000Y-243000000D03*
X116000000Y-176500000D03*
X116000000Y-241000000D03*
X116000000Y-174500000D03*
X112000000Y-241000000D03*
X112000000Y-174500000D03*
X114000000Y-243000000D03*
X114000000Y-176500000D03*
X114000000Y-241000000D03*
X114000000Y-174500000D03*
X118000000Y-239000000D03*
X118000000Y-172500000D03*
X118000000Y-241000000D03*
X118000000Y-174500000D03*
X118000000Y-243000000D03*
X118000000Y-176500000D03*
X118000000Y-237000000D03*
X118000000Y-170500000D03*
X130000000Y-237000000D03*
X130000000Y-170500000D03*
X134000000Y-239000000D03*
X134000000Y-172500000D03*
X132000000Y-237000000D03*
X132000000Y-170500000D03*
X134000000Y-237000000D03*
X134000000Y-170500000D03*
X132000000Y-239000000D03*
X132000000Y-172500000D03*
X130000000Y-239000000D03*
X130000000Y-172500000D03*
X132000000Y-241000000D03*
X132000000Y-174500000D03*
X132000000Y-243000000D03*
X132000000Y-176500000D03*
X130000000Y-241000000D03*
X130000000Y-174500000D03*
X134000000Y-243000000D03*
X134000000Y-176500000D03*
X134000000Y-241000000D03*
X134000000Y-174500000D03*
X130000000Y-243000000D03*
X130000000Y-176500000D03*
X82000000Y-241000000D03*
X82000000Y-174500000D03*
X82000000Y-243000000D03*
X82000000Y-176500000D03*
X84000000Y-241000000D03*
X84000000Y-174500000D03*
X84000000Y-243000000D03*
X84000000Y-176500000D03*
X86000000Y-241000000D03*
X86000000Y-174500000D03*
X86000000Y-243000000D03*
X86000000Y-176500000D03*
X88000000Y-241000000D03*
X88000000Y-174500000D03*
X92000000Y-241000000D03*
X92000000Y-174500000D03*
X90000000Y-243000000D03*
X90000000Y-176500000D03*
X90000000Y-241000000D03*
X90000000Y-174500000D03*
X92000000Y-243000000D03*
X92000000Y-176500000D03*
X88000000Y-243000000D03*
X88000000Y-176500000D03*
X94000000Y-241000000D03*
X94000000Y-174500000D03*
X94000000Y-239000000D03*
X94000000Y-172500000D03*
X92000000Y-239000000D03*
X92000000Y-172500000D03*
X90000000Y-239000000D03*
X90000000Y-172500000D03*
X90000000Y-237000000D03*
X90000000Y-170500000D03*
X94000000Y-237000000D03*
X94000000Y-170500000D03*
X94000000Y-243000000D03*
X94000000Y-176500000D03*
X92000000Y-237000000D03*
X92000000Y-170500000D03*
X84000000Y-237000000D03*
X84000000Y-170500000D03*
X88000000Y-239000000D03*
X88000000Y-172500000D03*
X84000000Y-239000000D03*
X84000000Y-172500000D03*
X88000000Y-237000000D03*
X88000000Y-170500000D03*
X82000000Y-239000000D03*
X82000000Y-172500000D03*
X82000000Y-237000000D03*
X82000000Y-170500000D03*
X86000000Y-237000000D03*
X86000000Y-170500000D03*
X86000000Y-239000000D03*
X86000000Y-172500000D03*
X134000000Y-110000000D03*
X132000000Y-110000000D03*
X130000000Y-110000000D03*
X134000000Y-108000000D03*
X132000000Y-108000000D03*
X130000000Y-108000000D03*
X134000000Y-106000000D03*
X132000000Y-106000000D03*
X130000000Y-106000000D03*
X134000000Y-104000000D03*
X132000000Y-104000000D03*
X130000000Y-104000000D03*
X118000000Y-110000000D03*
X116000000Y-110000000D03*
X114000000Y-110000000D03*
X112000000Y-110000000D03*
X110000000Y-110000000D03*
X108000000Y-110000000D03*
X106000000Y-110000000D03*
X118000000Y-108000000D03*
X116000000Y-108000000D03*
X114000000Y-108000000D03*
X112000000Y-108000000D03*
X110000000Y-108000000D03*
X108000000Y-108000000D03*
X106000000Y-108000000D03*
X118000000Y-106000000D03*
X116000000Y-106000000D03*
X114000000Y-106000000D03*
X112000000Y-106000000D03*
X110000000Y-106000000D03*
X108000000Y-106000000D03*
X106000000Y-106000000D03*
X118000000Y-104000000D03*
X116000000Y-104000000D03*
X114000000Y-104000000D03*
X112000000Y-104000000D03*
X110000000Y-104000000D03*
X108000000Y-104000000D03*
X106000000Y-104000000D03*
X94000000Y-110000000D03*
X92000000Y-110000000D03*
X90000000Y-110000000D03*
X88000000Y-110000000D03*
X86000000Y-110000000D03*
X84000000Y-110000000D03*
X82000000Y-110000000D03*
X94000000Y-108000000D03*
X92000000Y-108000000D03*
X90000000Y-108000000D03*
X88000000Y-108000000D03*
X86000000Y-108000000D03*
X84000000Y-108000000D03*
X82000000Y-108000000D03*
X94000000Y-106000000D03*
X92000000Y-106000000D03*
X90000000Y-106000000D03*
X88000000Y-106000000D03*
X86000000Y-106000000D03*
X84000000Y-106000000D03*
X82000000Y-106000000D03*
X94000000Y-104000000D03*
X92000000Y-104000000D03*
X90000000Y-104000000D03*
X88000000Y-104000000D03*
X86000000Y-104000000D03*
X84000000Y-104000000D03*
X82000000Y-104000000D03*
D17*
X128000000Y-226500000D02*
X128000000Y-230500000D01*
X128000000Y-218500000D02*
X128000000Y-222500000D01*
X128000000Y-210500000D02*
X128000000Y-214500000D01*
X128000000Y-202500000D02*
X128000000Y-206500000D01*
X112000000Y-226500000D02*
X112000000Y-230500000D01*
X112000000Y-218500000D02*
X112000000Y-222500000D01*
X112000000Y-210500000D02*
X112000000Y-214500000D01*
X112000000Y-202500000D02*
X112000000Y-206500000D01*
X96000000Y-210500000D02*
X96000000Y-206500000D01*
X96000000Y-218500000D02*
X96000000Y-214500000D01*
X96000000Y-226500000D02*
X96000000Y-222500000D01*
X80000000Y-226500000D02*
X80000000Y-230500000D01*
X80000000Y-218500000D02*
X80000000Y-222500000D01*
X80000000Y-210500000D02*
X80000000Y-214500000D01*
X80000000Y-202500000D02*
X80000000Y-206500000D01*
X128000000Y-73500000D02*
X128000000Y-69500000D01*
X128000000Y-81500000D02*
X128000000Y-77500000D01*
X128000000Y-89500000D02*
X128000000Y-85500000D01*
X128000000Y-97500000D02*
X128000000Y-93500000D01*
X112000000Y-93500000D02*
X112000000Y-97500000D01*
X112000000Y-85500000D02*
X112000000Y-89500000D01*
X112000000Y-77500000D02*
X112000000Y-81500000D01*
X112000000Y-69500000D02*
X112000000Y-73500000D01*
X96000000Y-73500000D02*
X96000000Y-69500000D01*
X96000000Y-81500000D02*
X96000000Y-77500000D01*
X96000000Y-89500000D02*
X96000000Y-85500000D01*
X96000000Y-97500000D02*
X96000000Y-93500000D01*
X80000000Y-93500000D02*
X80000000Y-97500000D01*
X80000000Y-85500000D02*
X80000000Y-89500000D01*
X80000000Y-77500000D02*
X80000000Y-81500000D01*
X80000000Y-69500000D02*
X80000000Y-73500000D01*
X128000000Y-160000000D02*
X128000000Y-164000000D01*
X128000000Y-152000000D02*
X128000000Y-156000000D01*
X128000000Y-144000000D02*
X128000000Y-148000000D01*
X128000000Y-136000000D02*
X128000000Y-140000000D01*
X112000000Y-156000000D02*
X112000000Y-160000000D01*
X112000000Y-148000000D02*
X112000000Y-152000000D01*
X112000000Y-140000000D02*
X112000000Y-144000000D01*
X96000000Y-156000000D02*
X96000000Y-160000000D01*
X96000000Y-148000000D02*
X96000000Y-152000000D01*
X96000000Y-140000000D02*
X96000000Y-144000000D01*
X80000000Y-160000000D02*
X80000000Y-164000000D01*
X80000000Y-152000000D02*
X80000000Y-156000000D01*
X80000000Y-144000000D02*
X80000000Y-148000000D01*
X80000000Y-136000000D02*
X80000000Y-140000000D01*
D18*
G36*
X161903487Y-53938482D02*
X161335437Y-54768098D01*
X160939346Y-55692249D01*
X160730299Y-56675734D01*
X160716261Y-57681092D01*
X160897765Y-58670030D01*
X161267899Y-59604880D01*
X161812563Y-60450033D01*
X162511011Y-61173298D01*
X163336641Y-61747126D01*
X164258004Y-62149660D01*
X165240006Y-62365567D01*
X166245242Y-62386623D01*
X167235423Y-62212028D01*
X168172834Y-61848430D01*
X169021769Y-61309679D01*
X169749892Y-60616297D01*
X170329470Y-59794693D01*
X170738426Y-58876163D01*
X170961183Y-57895693D01*
X170977219Y-56747272D01*
X170781925Y-55760964D01*
X170398776Y-54831373D01*
X169842364Y-53993907D01*
X169552488Y-53702000D01*
X182444974Y-53702000D01*
X182203487Y-53938482D01*
X181635437Y-54768098D01*
X181239346Y-55692249D01*
X181030299Y-56675734D01*
X181016261Y-57681092D01*
X181197765Y-58670030D01*
X181567899Y-59604880D01*
X182112563Y-60450033D01*
X182811011Y-61173298D01*
X183636641Y-61747126D01*
X184558004Y-62149660D01*
X185540006Y-62365567D01*
X186545242Y-62386623D01*
X187535423Y-62212028D01*
X188472834Y-61848430D01*
X189321769Y-61309679D01*
X190049892Y-60616297D01*
X190629470Y-59794693D01*
X191038426Y-58876163D01*
X191062155Y-58771717D01*
X202572942Y-58771717D01*
X202733074Y-59081643D01*
X203111871Y-59264349D01*
X203519034Y-59369646D01*
X203938917Y-59393486D01*
X204355381Y-59334953D01*
X204752425Y-59196297D01*
X204966926Y-59081643D01*
X205127058Y-58771717D01*
X222872942Y-58771717D01*
X223033074Y-59081643D01*
X223411871Y-59264349D01*
X223819034Y-59369646D01*
X224238917Y-59393486D01*
X224655381Y-59334953D01*
X225052425Y-59196297D01*
X225266926Y-59081643D01*
X225427058Y-58771717D01*
X224150000Y-57494659D01*
X222872942Y-58771717D01*
X205127058Y-58771717D01*
X203850000Y-57494659D01*
X202572942Y-58771717D01*
X191062155Y-58771717D01*
X191261183Y-57895693D01*
X191268957Y-57338917D01*
X201706514Y-57338917D01*
X201765047Y-57755381D01*
X201903703Y-58152425D01*
X202018357Y-58366926D01*
X202328283Y-58527058D01*
X203605341Y-57250000D01*
X204094659Y-57250000D01*
X205371717Y-58527058D01*
X205681643Y-58366926D01*
X205864349Y-57988129D01*
X205969646Y-57580966D01*
X205983388Y-57338917D01*
X222006514Y-57338917D01*
X222065047Y-57755381D01*
X222203703Y-58152425D01*
X222318357Y-58366926D01*
X222628283Y-58527058D01*
X223905341Y-57250000D01*
X224394659Y-57250000D01*
X225671717Y-58527058D01*
X225981643Y-58366926D01*
X226164349Y-57988129D01*
X226269646Y-57580966D01*
X226293486Y-57161083D01*
X226234953Y-56744619D01*
X226096297Y-56347575D01*
X225981643Y-56133074D01*
X225671717Y-55972942D01*
X224394659Y-57250000D01*
X223905341Y-57250000D01*
X222628283Y-55972942D01*
X222318357Y-56133074D01*
X222135651Y-56511871D01*
X222030354Y-56919034D01*
X222006514Y-57338917D01*
X205983388Y-57338917D01*
X205993486Y-57161083D01*
X205934953Y-56744619D01*
X205796297Y-56347575D01*
X205681643Y-56133074D01*
X205371717Y-55972942D01*
X204094659Y-57250000D01*
X203605341Y-57250000D01*
X202328283Y-55972942D01*
X202018357Y-56133074D01*
X201835651Y-56511871D01*
X201730354Y-56919034D01*
X201706514Y-57338917D01*
X191268957Y-57338917D01*
X191277219Y-56747272D01*
X191081925Y-55760964D01*
X191068455Y-55728283D01*
X202572942Y-55728283D01*
X203850000Y-57005341D01*
X205127058Y-55728283D01*
X222872942Y-55728283D01*
X224150000Y-57005341D01*
X225427058Y-55728283D01*
X225266926Y-55418357D01*
X224888129Y-55235651D01*
X224480966Y-55130354D01*
X224061083Y-55106514D01*
X223644619Y-55165047D01*
X223247575Y-55303703D01*
X223033074Y-55418357D01*
X222872942Y-55728283D01*
X205127058Y-55728283D01*
X204966926Y-55418357D01*
X204588129Y-55235651D01*
X204180966Y-55130354D01*
X203761083Y-55106514D01*
X203344619Y-55165047D01*
X202947575Y-55303703D01*
X202733074Y-55418357D01*
X202572942Y-55728283D01*
X191068455Y-55728283D01*
X190698776Y-54831373D01*
X190142364Y-53993907D01*
X189852488Y-53702000D01*
X238144974Y-53702000D01*
X237903487Y-53938482D01*
X237335437Y-54768098D01*
X236939346Y-55692249D01*
X236730299Y-56675734D01*
X236716261Y-57681092D01*
X236897765Y-58670030D01*
X237267899Y-59604880D01*
X237812563Y-60450033D01*
X238511011Y-61173298D01*
X239336641Y-61747126D01*
X240258004Y-62149660D01*
X241240006Y-62365567D01*
X242245242Y-62386623D01*
X243235423Y-62212028D01*
X244172834Y-61848430D01*
X245021769Y-61309679D01*
X245749892Y-60616297D01*
X246329470Y-59794693D01*
X246738426Y-58876163D01*
X246961183Y-57895693D01*
X246977219Y-56747272D01*
X246781925Y-55760964D01*
X246398776Y-54831373D01*
X245842364Y-53993907D01*
X245552488Y-53702000D01*
X258444974Y-53702000D01*
X258203487Y-53938482D01*
X257635437Y-54768098D01*
X257239346Y-55692249D01*
X257030299Y-56675734D01*
X257016261Y-57681092D01*
X257197765Y-58670030D01*
X257567899Y-59604880D01*
X258112563Y-60450033D01*
X258811011Y-61173298D01*
X259636641Y-61747126D01*
X260558004Y-62149660D01*
X261540006Y-62365567D01*
X262545242Y-62386623D01*
X263535423Y-62212028D01*
X264472834Y-61848430D01*
X265321769Y-61309679D01*
X266049892Y-60616297D01*
X266629470Y-59794693D01*
X267038426Y-58876163D01*
X267261183Y-57895693D01*
X267277219Y-56747272D01*
X267081925Y-55760964D01*
X266698776Y-54831373D01*
X266142364Y-53993907D01*
X265852488Y-53702000D01*
X285873000Y-53702000D01*
X285873000Y-78198000D01*
X269500000Y-78198000D01*
X269499083Y-78198090D01*
X269474281Y-78198089D01*
X269460319Y-78198186D01*
X269293009Y-78215765D01*
X269073379Y-78221168D01*
X268879430Y-78242923D01*
X268551168Y-78312697D01*
X268222079Y-78377860D01*
X268172724Y-78393138D01*
X268172714Y-78393140D01*
X268172706Y-78393144D01*
X268172701Y-78393145D01*
X267986671Y-78452158D01*
X267678273Y-78584339D01*
X267368071Y-78712195D01*
X267322603Y-78736779D01*
X267151578Y-78830801D01*
X266874716Y-79020373D01*
X266595265Y-79206039D01*
X266555438Y-79238986D01*
X266405932Y-79364436D01*
X266171136Y-79604201D01*
X265933082Y-79840600D01*
X265900427Y-79880639D01*
X265900421Y-79880645D01*
X265900417Y-79880651D01*
X265900413Y-79880656D01*
X265778122Y-80032756D01*
X265594379Y-80313546D01*
X265406783Y-80591665D01*
X265382516Y-80637304D01*
X265382509Y-80637318D01*
X265382506Y-80637322D01*
X265382504Y-80637327D01*
X265292096Y-80810259D01*
X265166385Y-81121401D01*
X265036372Y-81430693D01*
X265021432Y-81480176D01*
X264966330Y-81667402D01*
X264903463Y-81996966D01*
X264835994Y-82325642D01*
X264830950Y-82377085D01*
X264813261Y-82571447D01*
X264815603Y-82906980D01*
X264813261Y-83242514D01*
X264818305Y-83293956D01*
X264838706Y-83488053D01*
X264906177Y-83816742D01*
X264969044Y-84146303D01*
X264983983Y-84195786D01*
X265041695Y-84382224D01*
X265171732Y-84691570D01*
X265297408Y-85002632D01*
X265321674Y-85048269D01*
X265321676Y-85048274D01*
X265321679Y-85048279D01*
X265414500Y-85219948D01*
X265602146Y-85498146D01*
X265785858Y-85778886D01*
X265818514Y-85818926D01*
X265818518Y-85818932D01*
X265818522Y-85818936D01*
X265818527Y-85818942D01*
X265942930Y-85969320D01*
X266181032Y-86205764D01*
X266415766Y-86445467D01*
X266455593Y-86478415D01*
X266606835Y-86601765D01*
X266886320Y-86787454D01*
X267163159Y-86977010D01*
X267208628Y-87001595D01*
X267380950Y-87093220D01*
X267691189Y-87221091D01*
X267999559Y-87353258D01*
X268048936Y-87368543D01*
X268235773Y-87424952D01*
X268564919Y-87490125D01*
X268623028Y-87502476D01*
X268617050Y-87930642D01*
X268777313Y-88803848D01*
X268788851Y-88832990D01*
X268629445Y-89582939D01*
X268617050Y-90470642D01*
X268777313Y-91343848D01*
X268788851Y-91372990D01*
X268629445Y-92122939D01*
X268617050Y-93010642D01*
X268777313Y-93883848D01*
X268788851Y-93912990D01*
X268629445Y-94662939D01*
X268617050Y-95550642D01*
X268777313Y-96423848D01*
X268788851Y-96452990D01*
X268629445Y-97202939D01*
X268617050Y-98090642D01*
X268777313Y-98963848D01*
X268788851Y-98992990D01*
X268629445Y-99742939D01*
X268617050Y-100630642D01*
X268777313Y-101503848D01*
X269104130Y-102329295D01*
X269585054Y-103075542D01*
X270201765Y-103714165D01*
X270930773Y-104220839D01*
X271744311Y-104576265D01*
X272611392Y-104766905D01*
X273498987Y-104785497D01*
X274373290Y-104631334D01*
X274431713Y-104608673D01*
X275151392Y-104766905D01*
X276038987Y-104785497D01*
X276913290Y-104631334D01*
X276971713Y-104608673D01*
X277691392Y-104766905D01*
X278578987Y-104785497D01*
X279453290Y-104631334D01*
X279511713Y-104608673D01*
X280231392Y-104766905D01*
X281118987Y-104785497D01*
X281993290Y-104631334D01*
X282051713Y-104608673D01*
X282771392Y-104766905D01*
X283658987Y-104785497D01*
X284533290Y-104631334D01*
X284591713Y-104608673D01*
X285311392Y-104766905D01*
X285873000Y-104778669D01*
X285873000Y-145297999D01*
X269500000Y-145298000D01*
X269499093Y-145298089D01*
X269474281Y-145298088D01*
X269460319Y-145298185D01*
X269293009Y-145315764D01*
X269073379Y-145321167D01*
X268879430Y-145342922D01*
X268551168Y-145412696D01*
X268222079Y-145477859D01*
X268172724Y-145493137D01*
X268172714Y-145493139D01*
X268172706Y-145493143D01*
X268172701Y-145493144D01*
X267986671Y-145552157D01*
X267678273Y-145684338D01*
X267368071Y-145812194D01*
X267322603Y-145836778D01*
X267151578Y-145930800D01*
X266874716Y-146120372D01*
X266595265Y-146306038D01*
X266555438Y-146338985D01*
X266405932Y-146464435D01*
X266171136Y-146704200D01*
X265933082Y-146940599D01*
X265900427Y-146980638D01*
X265900421Y-146980644D01*
X265900417Y-146980650D01*
X265900413Y-146980655D01*
X265778122Y-147132755D01*
X265594379Y-147413545D01*
X265406783Y-147691664D01*
X265382516Y-147737303D01*
X265382509Y-147737317D01*
X265382506Y-147737321D01*
X265382504Y-147737326D01*
X265292096Y-147910258D01*
X265166385Y-148221400D01*
X265036372Y-148530692D01*
X265021432Y-148580175D01*
X264966330Y-148767401D01*
X264903463Y-149096965D01*
X264835994Y-149425641D01*
X264830950Y-149477084D01*
X264813261Y-149671446D01*
X264815603Y-150006980D01*
X264813261Y-150342513D01*
X264818305Y-150393955D01*
X264838706Y-150588052D01*
X264906177Y-150916741D01*
X264969044Y-151246302D01*
X264983983Y-151295785D01*
X265041695Y-151482223D01*
X265171732Y-151791569D01*
X265297408Y-152102631D01*
X265321674Y-152148268D01*
X265321676Y-152148273D01*
X265321679Y-152148278D01*
X265414500Y-152319947D01*
X265602146Y-152598145D01*
X265785858Y-152878885D01*
X265818514Y-152918925D01*
X265818518Y-152918931D01*
X265818522Y-152918935D01*
X265818527Y-152918941D01*
X265942930Y-153069319D01*
X266181032Y-153305763D01*
X266415766Y-153545466D01*
X266455593Y-153578414D01*
X266606835Y-153701764D01*
X266886320Y-153887453D01*
X267163159Y-154077009D01*
X267208628Y-154101594D01*
X267380950Y-154193219D01*
X267691189Y-154321090D01*
X267999559Y-154453257D01*
X268048936Y-154468542D01*
X268235773Y-154524951D01*
X268564919Y-154590124D01*
X268623028Y-154602475D01*
X268617050Y-155030642D01*
X268777313Y-155903848D01*
X268788851Y-155932990D01*
X268629445Y-156682939D01*
X268617050Y-157570642D01*
X268777313Y-158443848D01*
X268788851Y-158472990D01*
X268629445Y-159222939D01*
X268617050Y-160110642D01*
X268777313Y-160983848D01*
X268788851Y-161012990D01*
X268629445Y-161762939D01*
X268617050Y-162650642D01*
X268777313Y-163523848D01*
X268788851Y-163552990D01*
X268629445Y-164302939D01*
X268617050Y-165190642D01*
X268777313Y-166063848D01*
X268788851Y-166092990D01*
X268629445Y-166842939D01*
X268617050Y-167730642D01*
X268777313Y-168603848D01*
X269104130Y-169429295D01*
X269585054Y-170175542D01*
X270201765Y-170814165D01*
X270930773Y-171320839D01*
X271744311Y-171676265D01*
X272611392Y-171866905D01*
X273498987Y-171885497D01*
X274373290Y-171731334D01*
X274431713Y-171708673D01*
X275151392Y-171866905D01*
X276038987Y-171885497D01*
X276913290Y-171731334D01*
X276971713Y-171708673D01*
X277691392Y-171866905D01*
X278578987Y-171885497D01*
X279453290Y-171731334D01*
X279511713Y-171708673D01*
X280231392Y-171866905D01*
X281118987Y-171885497D01*
X281993290Y-171731334D01*
X282051713Y-171708673D01*
X282771392Y-171866905D01*
X283658987Y-171885497D01*
X284533290Y-171731334D01*
X284591713Y-171708673D01*
X285311392Y-171866905D01*
X285873000Y-171878669D01*
X285873000Y-212397998D01*
X269500000Y-212397998D01*
X269499083Y-212398088D01*
X269474281Y-212398087D01*
X269460319Y-212398184D01*
X269293009Y-212415763D01*
X269073379Y-212421166D01*
X268879430Y-212442921D01*
X268551168Y-212512695D01*
X268222079Y-212577858D01*
X268172724Y-212593136D01*
X268172714Y-212593138D01*
X268172706Y-212593142D01*
X268172701Y-212593143D01*
X267986671Y-212652156D01*
X267678273Y-212784337D01*
X267368071Y-212912193D01*
X267322603Y-212936777D01*
X267151578Y-213030799D01*
X266874716Y-213220371D01*
X266595265Y-213406037D01*
X266555438Y-213438984D01*
X266405932Y-213564434D01*
X266171136Y-213804199D01*
X265933082Y-214040598D01*
X265900427Y-214080637D01*
X265900421Y-214080643D01*
X265900417Y-214080649D01*
X265900413Y-214080654D01*
X265778122Y-214232754D01*
X265594379Y-214513544D01*
X265406783Y-214791663D01*
X265382516Y-214837302D01*
X265382509Y-214837316D01*
X265382506Y-214837320D01*
X265382504Y-214837325D01*
X265292096Y-215010257D01*
X265166385Y-215321399D01*
X265036372Y-215630691D01*
X265021432Y-215680174D01*
X264966330Y-215867400D01*
X264903463Y-216196964D01*
X264835994Y-216525640D01*
X264830950Y-216577083D01*
X264813261Y-216771445D01*
X264815603Y-217106979D01*
X264813261Y-217442512D01*
X264818305Y-217493954D01*
X264838706Y-217688051D01*
X264906177Y-218016740D01*
X264969044Y-218346301D01*
X264983983Y-218395784D01*
X265041695Y-218582222D01*
X265171732Y-218891568D01*
X265297408Y-219202630D01*
X265321674Y-219248267D01*
X265321676Y-219248272D01*
X265321679Y-219248277D01*
X265414500Y-219419946D01*
X265602146Y-219698144D01*
X265785858Y-219978884D01*
X265818514Y-220018924D01*
X265818518Y-220018930D01*
X265818522Y-220018934D01*
X265818527Y-220018940D01*
X265942930Y-220169318D01*
X266181032Y-220405762D01*
X266415766Y-220645465D01*
X266455593Y-220678413D01*
X266606835Y-220801763D01*
X266886320Y-220987452D01*
X267163159Y-221177008D01*
X267208628Y-221201593D01*
X267380950Y-221293218D01*
X267691189Y-221421089D01*
X267999559Y-221553256D01*
X268048936Y-221568541D01*
X268235773Y-221624950D01*
X268564919Y-221690123D01*
X268623029Y-221702474D01*
X268617050Y-222130642D01*
X268777313Y-223003848D01*
X268788851Y-223032990D01*
X268629445Y-223782939D01*
X268617050Y-224670642D01*
X268777313Y-225543848D01*
X268788851Y-225572990D01*
X268629445Y-226322939D01*
X268617050Y-227210642D01*
X268777313Y-228083848D01*
X268788851Y-228112990D01*
X268629445Y-228862939D01*
X268617050Y-229750642D01*
X268777313Y-230623848D01*
X268788851Y-230652990D01*
X268629445Y-231402939D01*
X268617050Y-232290642D01*
X268777313Y-233163848D01*
X268788851Y-233192990D01*
X268629445Y-233942939D01*
X268617050Y-234830642D01*
X268777313Y-235703848D01*
X269104130Y-236529295D01*
X269585054Y-237275542D01*
X270201765Y-237914165D01*
X270930773Y-238420839D01*
X271744311Y-238776265D01*
X272611392Y-238966905D01*
X273498987Y-238985497D01*
X274373290Y-238831334D01*
X274431713Y-238808673D01*
X275151392Y-238966905D01*
X276038987Y-238985497D01*
X276913290Y-238831334D01*
X276971713Y-238808673D01*
X277691392Y-238966905D01*
X278578987Y-238985497D01*
X279453290Y-238831334D01*
X279511713Y-238808673D01*
X280231392Y-238966905D01*
X281118987Y-238985497D01*
X281993290Y-238831334D01*
X282051713Y-238808673D01*
X282771392Y-238966905D01*
X283658987Y-238985497D01*
X284533290Y-238831334D01*
X284591713Y-238808673D01*
X285311392Y-238966905D01*
X285873000Y-238978669D01*
X285873000Y-246298000D01*
X227859085Y-246298000D01*
X228049892Y-246116297D01*
X228629470Y-245294693D01*
X229038426Y-244376163D01*
X229062155Y-244271717D01*
X240572942Y-244271717D01*
X240733074Y-244581643D01*
X241111871Y-244764349D01*
X241519034Y-244869646D01*
X241938917Y-244893486D01*
X242355381Y-244834953D01*
X242752425Y-244696297D01*
X242966926Y-244581643D01*
X243127058Y-244271717D01*
X260872942Y-244271717D01*
X261033074Y-244581643D01*
X261411871Y-244764349D01*
X261819034Y-244869646D01*
X262238917Y-244893486D01*
X262655381Y-244834953D01*
X263052425Y-244696297D01*
X263266926Y-244581643D01*
X263427058Y-244271717D01*
X262150000Y-242994659D01*
X260872942Y-244271717D01*
X243127058Y-244271717D01*
X241850000Y-242994659D01*
X240572942Y-244271717D01*
X229062155Y-244271717D01*
X229261183Y-243395693D01*
X229268957Y-242838917D01*
X239706514Y-242838917D01*
X239765047Y-243255381D01*
X239903703Y-243652425D01*
X240018357Y-243866926D01*
X240328283Y-244027058D01*
X241605341Y-242750000D01*
X242094659Y-242750000D01*
X243371717Y-244027058D01*
X243681643Y-243866926D01*
X243864349Y-243488129D01*
X243969646Y-243080966D01*
X243983388Y-242838917D01*
X260006514Y-242838917D01*
X260065047Y-243255381D01*
X260203703Y-243652425D01*
X260318357Y-243866926D01*
X260628283Y-244027058D01*
X261905341Y-242750000D01*
X262394659Y-242750000D01*
X263671717Y-244027058D01*
X263981643Y-243866926D01*
X264164349Y-243488129D01*
X264269646Y-243080966D01*
X264293486Y-242661083D01*
X264234953Y-242244619D01*
X264096297Y-241847575D01*
X263981643Y-241633074D01*
X263671717Y-241472942D01*
X262394659Y-242750000D01*
X261905341Y-242750000D01*
X260628283Y-241472942D01*
X260318357Y-241633074D01*
X260135651Y-242011871D01*
X260030354Y-242419034D01*
X260006514Y-242838917D01*
X243983388Y-242838917D01*
X243993486Y-242661083D01*
X243934953Y-242244619D01*
X243796297Y-241847575D01*
X243681643Y-241633074D01*
X243371717Y-241472942D01*
X242094659Y-242750000D01*
X241605341Y-242750000D01*
X240328283Y-241472942D01*
X240018357Y-241633074D01*
X239835651Y-242011871D01*
X239730354Y-242419034D01*
X239706514Y-242838917D01*
X229268957Y-242838917D01*
X229277219Y-242247272D01*
X229081925Y-241260964D01*
X229068455Y-241228283D01*
X240572942Y-241228283D01*
X241850000Y-242505341D01*
X243127058Y-241228283D01*
X260872942Y-241228283D01*
X262150000Y-242505341D01*
X263427058Y-241228283D01*
X263266926Y-240918357D01*
X262888129Y-240735651D01*
X262480966Y-240630354D01*
X262061083Y-240606514D01*
X261644619Y-240665047D01*
X261247575Y-240803703D01*
X261033074Y-240918357D01*
X260872942Y-241228283D01*
X243127058Y-241228283D01*
X242966926Y-240918357D01*
X242588129Y-240735651D01*
X242180966Y-240630354D01*
X241761083Y-240606514D01*
X241344619Y-240665047D01*
X240947575Y-240803703D01*
X240733074Y-240918357D01*
X240572942Y-241228283D01*
X229068455Y-241228283D01*
X228698776Y-240331373D01*
X228142364Y-239493907D01*
X227433885Y-238780464D01*
X226600324Y-238218220D01*
X225673431Y-237828590D01*
X224688510Y-237626415D01*
X223683078Y-237619396D01*
X222695431Y-237807800D01*
X221763188Y-238184450D01*
X220921858Y-238735001D01*
X220203487Y-239438482D01*
X219635437Y-240268098D01*
X219239346Y-241192249D01*
X219030299Y-242175734D01*
X219016261Y-243181092D01*
X219197765Y-244170030D01*
X219567899Y-245104880D01*
X220112563Y-245950033D01*
X220448590Y-246298000D01*
X207559085Y-246298000D01*
X207749892Y-246116297D01*
X208329470Y-245294693D01*
X208738426Y-244376163D01*
X208961183Y-243395693D01*
X208977219Y-242247272D01*
X208781925Y-241260964D01*
X208398776Y-240331373D01*
X207842364Y-239493907D01*
X207133885Y-238780464D01*
X206300324Y-238218220D01*
X205373431Y-237828590D01*
X204388510Y-237626415D01*
X203383078Y-237619396D01*
X202395431Y-237807800D01*
X201463188Y-238184450D01*
X200621858Y-238735001D01*
X199903487Y-239438482D01*
X199335437Y-240268098D01*
X198939346Y-241192249D01*
X198730299Y-242175734D01*
X198716261Y-243181092D01*
X198897765Y-244170030D01*
X199267899Y-245104880D01*
X199812563Y-245950033D01*
X200148590Y-246298000D01*
X64202000Y-246298000D01*
X64202000Y-244271717D01*
X164572942Y-244271717D01*
X164733074Y-244581643D01*
X165111871Y-244764349D01*
X165519034Y-244869646D01*
X165938917Y-244893486D01*
X166355381Y-244834953D01*
X166752425Y-244696297D01*
X166966926Y-244581643D01*
X167127058Y-244271717D01*
X184872942Y-244271717D01*
X185033074Y-244581643D01*
X185411871Y-244764349D01*
X185819034Y-244869646D01*
X186238917Y-244893486D01*
X186655381Y-244834953D01*
X187052425Y-244696297D01*
X187266926Y-244581643D01*
X187427058Y-244271717D01*
X186150000Y-242994659D01*
X184872942Y-244271717D01*
X167127058Y-244271717D01*
X165850000Y-242994659D01*
X164572942Y-244271717D01*
X64202000Y-244271717D01*
X64202000Y-242838917D01*
X163706514Y-242838917D01*
X163765047Y-243255381D01*
X163903703Y-243652425D01*
X164018357Y-243866926D01*
X164328283Y-244027058D01*
X165605341Y-242750000D01*
X166094659Y-242750000D01*
X167371717Y-244027058D01*
X167681643Y-243866926D01*
X167864349Y-243488129D01*
X167969646Y-243080966D01*
X167983388Y-242838917D01*
X184006514Y-242838917D01*
X184065047Y-243255381D01*
X184203703Y-243652425D01*
X184318357Y-243866926D01*
X184628283Y-244027058D01*
X185905341Y-242750000D01*
X186394659Y-242750000D01*
X187671717Y-244027058D01*
X187981643Y-243866926D01*
X188164349Y-243488129D01*
X188269646Y-243080966D01*
X188293486Y-242661083D01*
X188234953Y-242244619D01*
X188096297Y-241847575D01*
X187981643Y-241633074D01*
X187671717Y-241472942D01*
X186394659Y-242750000D01*
X185905341Y-242750000D01*
X184628283Y-241472942D01*
X184318357Y-241633074D01*
X184135651Y-242011871D01*
X184030354Y-242419034D01*
X184006514Y-242838917D01*
X167983388Y-242838917D01*
X167993486Y-242661083D01*
X167934953Y-242244619D01*
X167796297Y-241847575D01*
X167681643Y-241633074D01*
X167371717Y-241472942D01*
X166094659Y-242750000D01*
X165605341Y-242750000D01*
X164328283Y-241472942D01*
X164018357Y-241633074D01*
X163835651Y-242011871D01*
X163730354Y-242419034D01*
X163706514Y-242838917D01*
X64202000Y-242838917D01*
X64202000Y-241228283D01*
X164572942Y-241228283D01*
X165850000Y-242505341D01*
X167127058Y-241228283D01*
X184872942Y-241228283D01*
X186150000Y-242505341D01*
X187427058Y-241228283D01*
X187266926Y-240918357D01*
X186888129Y-240735651D01*
X186480966Y-240630354D01*
X186061083Y-240606514D01*
X185644619Y-240665047D01*
X185247575Y-240803703D01*
X185033074Y-240918357D01*
X184872942Y-241228283D01*
X167127058Y-241228283D01*
X166966926Y-240918357D01*
X166588129Y-240735651D01*
X166180966Y-240630354D01*
X165761083Y-240606514D01*
X165344619Y-240665047D01*
X164947575Y-240803703D01*
X164733074Y-240918357D01*
X164572942Y-241228283D01*
X64202000Y-241228283D01*
X64202000Y-201402200D01*
X64500000Y-201444549D01*
X135500000Y-201444549D01*
X136077587Y-201398490D01*
X137057235Y-201095111D01*
X137913579Y-200530820D01*
X138578811Y-199750297D01*
X139000258Y-198815347D01*
X139144549Y-197800000D01*
X139144549Y-190681092D01*
X160716261Y-190681092D01*
X160897765Y-191670030D01*
X161267899Y-192604880D01*
X161812563Y-193450033D01*
X162511011Y-194173298D01*
X163336641Y-194747126D01*
X164258004Y-195149660D01*
X165240006Y-195365567D01*
X166245242Y-195386623D01*
X167235423Y-195212028D01*
X168172834Y-194848430D01*
X169021769Y-194309679D01*
X169749892Y-193616297D01*
X170329470Y-192794693D01*
X170738426Y-191876163D01*
X170961183Y-190895693D01*
X170964179Y-190681092D01*
X181016261Y-190681092D01*
X181197765Y-191670030D01*
X181567899Y-192604880D01*
X182112563Y-193450033D01*
X182811011Y-194173298D01*
X183636641Y-194747126D01*
X184558004Y-195149660D01*
X185540006Y-195365567D01*
X186545242Y-195386623D01*
X187535423Y-195212028D01*
X188472834Y-194848430D01*
X189321769Y-194309679D01*
X190049892Y-193616297D01*
X190629470Y-192794693D01*
X191038426Y-191876163D01*
X191062155Y-191771717D01*
X202572942Y-191771717D01*
X202733074Y-192081643D01*
X203111871Y-192264349D01*
X203519034Y-192369646D01*
X203938917Y-192393486D01*
X204355381Y-192334953D01*
X204752425Y-192196297D01*
X204966926Y-192081643D01*
X205127058Y-191771717D01*
X222872942Y-191771717D01*
X223033074Y-192081643D01*
X223411871Y-192264349D01*
X223819034Y-192369646D01*
X224238917Y-192393486D01*
X224655381Y-192334953D01*
X225052425Y-192196297D01*
X225266926Y-192081643D01*
X225427058Y-191771717D01*
X224150000Y-190494659D01*
X222872942Y-191771717D01*
X205127058Y-191771717D01*
X203850000Y-190494659D01*
X202572942Y-191771717D01*
X191062155Y-191771717D01*
X191261183Y-190895693D01*
X191268957Y-190338917D01*
X201706514Y-190338917D01*
X201765047Y-190755381D01*
X201903703Y-191152425D01*
X202018357Y-191366926D01*
X202328283Y-191527058D01*
X203605341Y-190250000D01*
X204094659Y-190250000D01*
X205371717Y-191527058D01*
X205681643Y-191366926D01*
X205864349Y-190988129D01*
X205969646Y-190580966D01*
X205983388Y-190338917D01*
X222006514Y-190338917D01*
X222065047Y-190755381D01*
X222203703Y-191152425D01*
X222318357Y-191366926D01*
X222628283Y-191527058D01*
X223905341Y-190250000D01*
X224394659Y-190250000D01*
X225671717Y-191527058D01*
X225981643Y-191366926D01*
X226164349Y-190988129D01*
X226243752Y-190681092D01*
X236716261Y-190681092D01*
X236897765Y-191670030D01*
X237267899Y-192604880D01*
X237812563Y-193450033D01*
X238511011Y-194173298D01*
X239336641Y-194747126D01*
X240258004Y-195149660D01*
X241240006Y-195365567D01*
X242245242Y-195386623D01*
X243235423Y-195212028D01*
X244172834Y-194848430D01*
X245021769Y-194309679D01*
X245749892Y-193616297D01*
X246329470Y-192794693D01*
X246738426Y-191876163D01*
X246961183Y-190895693D01*
X246964179Y-190681092D01*
X257016261Y-190681092D01*
X257197765Y-191670030D01*
X257567899Y-192604880D01*
X258112563Y-193450033D01*
X258811011Y-194173298D01*
X259636641Y-194747126D01*
X260558004Y-195149660D01*
X261540006Y-195365567D01*
X262545242Y-195386623D01*
X263535423Y-195212028D01*
X264472834Y-194848430D01*
X265321769Y-194309679D01*
X266049892Y-193616297D01*
X266629470Y-192794693D01*
X267038426Y-191876163D01*
X267261183Y-190895693D01*
X267277219Y-189747272D01*
X267081925Y-188760964D01*
X266698776Y-187831373D01*
X266142364Y-186993907D01*
X265433885Y-186280464D01*
X264600324Y-185718220D01*
X263673431Y-185328590D01*
X262688510Y-185126415D01*
X261683078Y-185119396D01*
X260695431Y-185307800D01*
X259763188Y-185684450D01*
X258921858Y-186235001D01*
X258203487Y-186938482D01*
X257635437Y-187768098D01*
X257239346Y-188692249D01*
X257030299Y-189675734D01*
X257016261Y-190681092D01*
X246964179Y-190681092D01*
X246977219Y-189747272D01*
X246781925Y-188760964D01*
X246398776Y-187831373D01*
X245842364Y-186993907D01*
X245133885Y-186280464D01*
X244300324Y-185718220D01*
X243373431Y-185328590D01*
X242388510Y-185126415D01*
X241383078Y-185119396D01*
X240395431Y-185307800D01*
X239463188Y-185684450D01*
X238621858Y-186235001D01*
X237903487Y-186938482D01*
X237335437Y-187768098D01*
X236939346Y-188692249D01*
X236730299Y-189675734D01*
X236716261Y-190681092D01*
X226243752Y-190681092D01*
X226269646Y-190580966D01*
X226293486Y-190161083D01*
X226234953Y-189744619D01*
X226096297Y-189347575D01*
X225981643Y-189133074D01*
X225671717Y-188972942D01*
X224394659Y-190250000D01*
X223905341Y-190250000D01*
X222628283Y-188972942D01*
X222318357Y-189133074D01*
X222135651Y-189511871D01*
X222030354Y-189919034D01*
X222006514Y-190338917D01*
X205983388Y-190338917D01*
X205993486Y-190161083D01*
X205934953Y-189744619D01*
X205796297Y-189347575D01*
X205681643Y-189133074D01*
X205371717Y-188972942D01*
X204094659Y-190250000D01*
X203605341Y-190250000D01*
X202328283Y-188972942D01*
X202018357Y-189133074D01*
X201835651Y-189511871D01*
X201730354Y-189919034D01*
X201706514Y-190338917D01*
X191268957Y-190338917D01*
X191277219Y-189747272D01*
X191081925Y-188760964D01*
X191068455Y-188728283D01*
X202572942Y-188728283D01*
X203850000Y-190005341D01*
X205127058Y-188728283D01*
X222872942Y-188728283D01*
X224150000Y-190005341D01*
X225427058Y-188728283D01*
X225266926Y-188418357D01*
X224888129Y-188235651D01*
X224480966Y-188130354D01*
X224061083Y-188106514D01*
X223644619Y-188165047D01*
X223247575Y-188303703D01*
X223033074Y-188418357D01*
X222872942Y-188728283D01*
X205127058Y-188728283D01*
X204966926Y-188418357D01*
X204588129Y-188235651D01*
X204180966Y-188130354D01*
X203761083Y-188106514D01*
X203344619Y-188165047D01*
X202947575Y-188303703D01*
X202733074Y-188418357D01*
X202572942Y-188728283D01*
X191068455Y-188728283D01*
X190698776Y-187831373D01*
X190142364Y-186993907D01*
X189433885Y-186280464D01*
X188600324Y-185718220D01*
X187673431Y-185328590D01*
X186688510Y-185126415D01*
X185683078Y-185119396D01*
X184695431Y-185307800D01*
X183763188Y-185684450D01*
X182921858Y-186235001D01*
X182203487Y-186938482D01*
X181635437Y-187768098D01*
X181239346Y-188692249D01*
X181030299Y-189675734D01*
X181016261Y-190681092D01*
X170964179Y-190681092D01*
X170977219Y-189747272D01*
X170781925Y-188760964D01*
X170398776Y-187831373D01*
X169842364Y-186993907D01*
X169133885Y-186280464D01*
X168300324Y-185718220D01*
X167373431Y-185328590D01*
X166388510Y-185126415D01*
X165383078Y-185119396D01*
X164395431Y-185307800D01*
X163463188Y-185684450D01*
X162621858Y-186235001D01*
X161903487Y-186938482D01*
X161335437Y-187768098D01*
X160939346Y-188692249D01*
X160730299Y-189675734D01*
X160716261Y-190681092D01*
X139144549Y-190681092D01*
X139144549Y-187000000D01*
X139098490Y-186422413D01*
X138795111Y-185442765D01*
X138230820Y-184586421D01*
X137450297Y-183921189D01*
X136515347Y-183499742D01*
X135500000Y-183355451D01*
X134831936Y-183355451D01*
X134443980Y-183275815D01*
X133615042Y-183270028D01*
X133167239Y-183355451D01*
X132831936Y-183355451D01*
X132443980Y-183275815D01*
X131615042Y-183270028D01*
X131167239Y-183355451D01*
X130831936Y-183355451D01*
X130443980Y-183275815D01*
X129615042Y-183270028D01*
X129167239Y-183355451D01*
X118831936Y-183355451D01*
X118443980Y-183275815D01*
X117615042Y-183270028D01*
X117167239Y-183355451D01*
X116831936Y-183355451D01*
X116443980Y-183275815D01*
X115615042Y-183270028D01*
X115167239Y-183355451D01*
X114831936Y-183355451D01*
X114443980Y-183275815D01*
X113615042Y-183270028D01*
X113167239Y-183355451D01*
X112831936Y-183355451D01*
X112443980Y-183275815D01*
X111615042Y-183270028D01*
X111167239Y-183355451D01*
X110831936Y-183355451D01*
X110443980Y-183275815D01*
X109615042Y-183270028D01*
X109167239Y-183355451D01*
X108831936Y-183355451D01*
X108443980Y-183275815D01*
X107615042Y-183270028D01*
X107167239Y-183355451D01*
X106831936Y-183355451D01*
X106443980Y-183275815D01*
X105615042Y-183270028D01*
X105167239Y-183355451D01*
X94831936Y-183355451D01*
X94443980Y-183275815D01*
X93615042Y-183270028D01*
X93167239Y-183355451D01*
X92831936Y-183355451D01*
X92443980Y-183275815D01*
X91615042Y-183270028D01*
X91167239Y-183355451D01*
X90831936Y-183355451D01*
X90443980Y-183275815D01*
X89615042Y-183270028D01*
X89167239Y-183355451D01*
X88831936Y-183355451D01*
X88443980Y-183275815D01*
X87615042Y-183270028D01*
X87167239Y-183355451D01*
X86831936Y-183355451D01*
X86443980Y-183275815D01*
X85615042Y-183270028D01*
X85167239Y-183355451D01*
X84831936Y-183355451D01*
X84443980Y-183275815D01*
X83615042Y-183270028D01*
X83167239Y-183355451D01*
X82831936Y-183355451D01*
X82443980Y-183275815D01*
X81615042Y-183270028D01*
X81167239Y-183355451D01*
X70831936Y-183355451D01*
X70443980Y-183275815D01*
X69615042Y-183270028D01*
X69167239Y-183355451D01*
X68831936Y-183355451D01*
X68443980Y-183275815D01*
X67615042Y-183270028D01*
X67167239Y-183355451D01*
X66831936Y-183355451D01*
X66443980Y-183275815D01*
X65615042Y-183270028D01*
X65167239Y-183355451D01*
X64500000Y-183355451D01*
X64202000Y-183379215D01*
X64202000Y-177771717D01*
X164572942Y-177771717D01*
X164733074Y-178081643D01*
X165111871Y-178264349D01*
X165519034Y-178369646D01*
X165938917Y-178393486D01*
X166355381Y-178334953D01*
X166752425Y-178196297D01*
X166966926Y-178081643D01*
X167127058Y-177771717D01*
X184872942Y-177771717D01*
X185033074Y-178081643D01*
X185411871Y-178264349D01*
X185819034Y-178369646D01*
X186238917Y-178393486D01*
X186655381Y-178334953D01*
X187052425Y-178196297D01*
X187266926Y-178081643D01*
X187427058Y-177771717D01*
X186150000Y-176494659D01*
X184872942Y-177771717D01*
X167127058Y-177771717D01*
X165850000Y-176494659D01*
X164572942Y-177771717D01*
X64202000Y-177771717D01*
X64202000Y-176338917D01*
X163706514Y-176338917D01*
X163765047Y-176755381D01*
X163903703Y-177152425D01*
X164018357Y-177366926D01*
X164328283Y-177527058D01*
X165605341Y-176250000D01*
X166094659Y-176250000D01*
X167371717Y-177527058D01*
X167681643Y-177366926D01*
X167864349Y-176988129D01*
X167969646Y-176580966D01*
X167983388Y-176338917D01*
X184006514Y-176338917D01*
X184065047Y-176755381D01*
X184203703Y-177152425D01*
X184318357Y-177366926D01*
X184628283Y-177527058D01*
X185905341Y-176250000D01*
X186394659Y-176250000D01*
X187671717Y-177527058D01*
X187981643Y-177366926D01*
X188164349Y-176988129D01*
X188243752Y-176681092D01*
X198716261Y-176681092D01*
X198897765Y-177670030D01*
X199267899Y-178604880D01*
X199812563Y-179450033D01*
X200511011Y-180173298D01*
X201336641Y-180747126D01*
X202258004Y-181149660D01*
X203240006Y-181365567D01*
X204245242Y-181386623D01*
X205235423Y-181212028D01*
X206172834Y-180848430D01*
X207021769Y-180309679D01*
X207749892Y-179616297D01*
X208329470Y-178794693D01*
X208738426Y-177876163D01*
X208961183Y-176895693D01*
X208964179Y-176681092D01*
X219016261Y-176681092D01*
X219197765Y-177670030D01*
X219567899Y-178604880D01*
X220112563Y-179450033D01*
X220811011Y-180173298D01*
X221636641Y-180747126D01*
X222558004Y-181149660D01*
X223540006Y-181365567D01*
X224545242Y-181386623D01*
X225535423Y-181212028D01*
X226472834Y-180848430D01*
X227321769Y-180309679D01*
X228049892Y-179616297D01*
X228629470Y-178794693D01*
X229038426Y-177876163D01*
X229062155Y-177771717D01*
X240572942Y-177771717D01*
X240733074Y-178081643D01*
X241111871Y-178264349D01*
X241519034Y-178369646D01*
X241938917Y-178393486D01*
X242355381Y-178334953D01*
X242752425Y-178196297D01*
X242966926Y-178081643D01*
X243127058Y-177771717D01*
X260872942Y-177771717D01*
X261033074Y-178081643D01*
X261411871Y-178264349D01*
X261819034Y-178369646D01*
X262238917Y-178393486D01*
X262655381Y-178334953D01*
X263052425Y-178196297D01*
X263266926Y-178081643D01*
X263427058Y-177771717D01*
X262150000Y-176494659D01*
X260872942Y-177771717D01*
X243127058Y-177771717D01*
X241850000Y-176494659D01*
X240572942Y-177771717D01*
X229062155Y-177771717D01*
X229261183Y-176895693D01*
X229268957Y-176338917D01*
X239706514Y-176338917D01*
X239765047Y-176755381D01*
X239903703Y-177152425D01*
X240018357Y-177366926D01*
X240328283Y-177527058D01*
X241605341Y-176250000D01*
X242094659Y-176250000D01*
X243371717Y-177527058D01*
X243681643Y-177366926D01*
X243864349Y-176988129D01*
X243969646Y-176580966D01*
X243983388Y-176338917D01*
X260006514Y-176338917D01*
X260065047Y-176755381D01*
X260203703Y-177152425D01*
X260318357Y-177366926D01*
X260628283Y-177527058D01*
X261905341Y-176250000D01*
X262394659Y-176250000D01*
X263671717Y-177527058D01*
X263981643Y-177366926D01*
X264164349Y-176988129D01*
X264269646Y-176580966D01*
X264293486Y-176161083D01*
X264234953Y-175744619D01*
X264096297Y-175347575D01*
X263981643Y-175133074D01*
X263671717Y-174972942D01*
X262394659Y-176250000D01*
X261905341Y-176250000D01*
X260628283Y-174972942D01*
X260318357Y-175133074D01*
X260135651Y-175511871D01*
X260030354Y-175919034D01*
X260006514Y-176338917D01*
X243983388Y-176338917D01*
X243993486Y-176161083D01*
X243934953Y-175744619D01*
X243796297Y-175347575D01*
X243681643Y-175133074D01*
X243371717Y-174972942D01*
X242094659Y-176250000D01*
X241605341Y-176250000D01*
X240328283Y-174972942D01*
X240018357Y-175133074D01*
X239835651Y-175511871D01*
X239730354Y-175919034D01*
X239706514Y-176338917D01*
X229268957Y-176338917D01*
X229277219Y-175747272D01*
X229081925Y-174760964D01*
X229068455Y-174728283D01*
X240572942Y-174728283D01*
X241850000Y-176005341D01*
X243127058Y-174728283D01*
X260872942Y-174728283D01*
X262150000Y-176005341D01*
X263427058Y-174728283D01*
X263266926Y-174418357D01*
X262888129Y-174235651D01*
X262480966Y-174130354D01*
X262061083Y-174106514D01*
X261644619Y-174165047D01*
X261247575Y-174303703D01*
X261033074Y-174418357D01*
X260872942Y-174728283D01*
X243127058Y-174728283D01*
X242966926Y-174418357D01*
X242588129Y-174235651D01*
X242180966Y-174130354D01*
X241761083Y-174106514D01*
X241344619Y-174165047D01*
X240947575Y-174303703D01*
X240733074Y-174418357D01*
X240572942Y-174728283D01*
X229068455Y-174728283D01*
X228698776Y-173831373D01*
X228142364Y-172993907D01*
X227433885Y-172280464D01*
X226600324Y-171718220D01*
X225673431Y-171328590D01*
X224688510Y-171126415D01*
X223683078Y-171119396D01*
X222695431Y-171307800D01*
X221763188Y-171684450D01*
X220921858Y-172235001D01*
X220203487Y-172938482D01*
X219635437Y-173768098D01*
X219239346Y-174692249D01*
X219030299Y-175675734D01*
X219016261Y-176681092D01*
X208964179Y-176681092D01*
X208977219Y-175747272D01*
X208781925Y-174760964D01*
X208398776Y-173831373D01*
X207842364Y-172993907D01*
X207133885Y-172280464D01*
X206300324Y-171718220D01*
X205373431Y-171328590D01*
X204388510Y-171126415D01*
X203383078Y-171119396D01*
X202395431Y-171307800D01*
X201463188Y-171684450D01*
X200621858Y-172235001D01*
X199903487Y-172938482D01*
X199335437Y-173768098D01*
X198939346Y-174692249D01*
X198730299Y-175675734D01*
X198716261Y-176681092D01*
X188243752Y-176681092D01*
X188269646Y-176580966D01*
X188293486Y-176161083D01*
X188234953Y-175744619D01*
X188096297Y-175347575D01*
X187981643Y-175133074D01*
X187671717Y-174972942D01*
X186394659Y-176250000D01*
X185905341Y-176250000D01*
X184628283Y-174972942D01*
X184318357Y-175133074D01*
X184135651Y-175511871D01*
X184030354Y-175919034D01*
X184006514Y-176338917D01*
X167983388Y-176338917D01*
X167993486Y-176161083D01*
X167934953Y-175744619D01*
X167796297Y-175347575D01*
X167681643Y-175133074D01*
X167371717Y-174972942D01*
X166094659Y-176250000D01*
X165605341Y-176250000D01*
X164328283Y-174972942D01*
X164018357Y-175133074D01*
X163835651Y-175511871D01*
X163730354Y-175919034D01*
X163706514Y-176338917D01*
X64202000Y-176338917D01*
X64202000Y-174728283D01*
X164572942Y-174728283D01*
X165850000Y-176005341D01*
X167127058Y-174728283D01*
X184872942Y-174728283D01*
X186150000Y-176005341D01*
X187427058Y-174728283D01*
X187266926Y-174418357D01*
X186888129Y-174235651D01*
X186480966Y-174130354D01*
X186061083Y-174106514D01*
X185644619Y-174165047D01*
X185247575Y-174303703D01*
X185033074Y-174418357D01*
X184872942Y-174728283D01*
X167127058Y-174728283D01*
X166966926Y-174418357D01*
X166588129Y-174235651D01*
X166180966Y-174130354D01*
X165761083Y-174106514D01*
X165344619Y-174165047D01*
X164947575Y-174303703D01*
X164733074Y-174418357D01*
X164572942Y-174728283D01*
X64202000Y-174728283D01*
X64202000Y-134902200D01*
X64500000Y-134944549D01*
X135500000Y-134944549D01*
X136077587Y-134898490D01*
X137057235Y-134595111D01*
X137913579Y-134030820D01*
X138578811Y-133250297D01*
X139000258Y-132315347D01*
X139144549Y-131300000D01*
X139144549Y-124181092D01*
X160716261Y-124181092D01*
X160897765Y-125170030D01*
X161267899Y-126104880D01*
X161812563Y-126950033D01*
X162511011Y-127673298D01*
X163336641Y-128247126D01*
X164258004Y-128649660D01*
X165240006Y-128865567D01*
X166245242Y-128886623D01*
X167235423Y-128712028D01*
X168172834Y-128348430D01*
X169021769Y-127809679D01*
X169749892Y-127116297D01*
X170329470Y-126294693D01*
X170738426Y-125376163D01*
X170961183Y-124395693D01*
X170964179Y-124181092D01*
X181016261Y-124181092D01*
X181197765Y-125170030D01*
X181567899Y-126104880D01*
X182112563Y-126950033D01*
X182811011Y-127673298D01*
X183636641Y-128247126D01*
X184558004Y-128649660D01*
X185540006Y-128865567D01*
X186545242Y-128886623D01*
X187535423Y-128712028D01*
X188472834Y-128348430D01*
X189321769Y-127809679D01*
X190049892Y-127116297D01*
X190629470Y-126294693D01*
X191038426Y-125376163D01*
X191062155Y-125271717D01*
X202572942Y-125271717D01*
X202733074Y-125581643D01*
X203111871Y-125764349D01*
X203519034Y-125869646D01*
X203938917Y-125893486D01*
X204355381Y-125834953D01*
X204752425Y-125696297D01*
X204966926Y-125581643D01*
X205127058Y-125271717D01*
X222872942Y-125271717D01*
X223033074Y-125581643D01*
X223411871Y-125764349D01*
X223819034Y-125869646D01*
X224238917Y-125893486D01*
X224655381Y-125834953D01*
X225052425Y-125696297D01*
X225266926Y-125581643D01*
X225427058Y-125271717D01*
X224150000Y-123994659D01*
X222872942Y-125271717D01*
X205127058Y-125271717D01*
X203850000Y-123994659D01*
X202572942Y-125271717D01*
X191062155Y-125271717D01*
X191261183Y-124395693D01*
X191268957Y-123838917D01*
X201706514Y-123838917D01*
X201765047Y-124255381D01*
X201903703Y-124652425D01*
X202018357Y-124866926D01*
X202328283Y-125027058D01*
X203605341Y-123750000D01*
X204094659Y-123750000D01*
X205371717Y-125027058D01*
X205681643Y-124866926D01*
X205864349Y-124488129D01*
X205969646Y-124080966D01*
X205983388Y-123838917D01*
X222006514Y-123838917D01*
X222065047Y-124255381D01*
X222203703Y-124652425D01*
X222318357Y-124866926D01*
X222628283Y-125027058D01*
X223905341Y-123750000D01*
X224394659Y-123750000D01*
X225671717Y-125027058D01*
X225981643Y-124866926D01*
X226164349Y-124488129D01*
X226243752Y-124181092D01*
X236716261Y-124181092D01*
X236897765Y-125170030D01*
X237267899Y-126104880D01*
X237812563Y-126950033D01*
X238511011Y-127673298D01*
X239336641Y-128247126D01*
X240258004Y-128649660D01*
X241240006Y-128865567D01*
X242245242Y-128886623D01*
X243235423Y-128712028D01*
X244172834Y-128348430D01*
X245021769Y-127809679D01*
X245749892Y-127116297D01*
X246329470Y-126294693D01*
X246738426Y-125376163D01*
X246961183Y-124395693D01*
X246964179Y-124181092D01*
X257016261Y-124181092D01*
X257197765Y-125170030D01*
X257567899Y-126104880D01*
X258112563Y-126950033D01*
X258811011Y-127673298D01*
X259636641Y-128247126D01*
X260558004Y-128649660D01*
X261540006Y-128865567D01*
X262545242Y-128886623D01*
X263535423Y-128712028D01*
X264472834Y-128348430D01*
X265321769Y-127809679D01*
X266049892Y-127116297D01*
X266629470Y-126294693D01*
X267038426Y-125376163D01*
X267261183Y-124395693D01*
X267277219Y-123247272D01*
X267081925Y-122260964D01*
X266698776Y-121331373D01*
X266142364Y-120493907D01*
X265433885Y-119780464D01*
X264600324Y-119218220D01*
X263673431Y-118828590D01*
X262688510Y-118626415D01*
X261683078Y-118619396D01*
X260695431Y-118807800D01*
X259763188Y-119184450D01*
X258921858Y-119735001D01*
X258203487Y-120438482D01*
X257635437Y-121268098D01*
X257239346Y-122192249D01*
X257030299Y-123175734D01*
X257016261Y-124181092D01*
X246964179Y-124181092D01*
X246977219Y-123247272D01*
X246781925Y-122260964D01*
X246398776Y-121331373D01*
X245842364Y-120493907D01*
X245133885Y-119780464D01*
X244300324Y-119218220D01*
X243373431Y-118828590D01*
X242388510Y-118626415D01*
X241383078Y-118619396D01*
X240395431Y-118807800D01*
X239463188Y-119184450D01*
X238621858Y-119735001D01*
X237903487Y-120438482D01*
X237335437Y-121268098D01*
X236939346Y-122192249D01*
X236730299Y-123175734D01*
X236716261Y-124181092D01*
X226243752Y-124181092D01*
X226269646Y-124080966D01*
X226293486Y-123661083D01*
X226234953Y-123244619D01*
X226096297Y-122847575D01*
X225981643Y-122633074D01*
X225671717Y-122472942D01*
X224394659Y-123750000D01*
X223905341Y-123750000D01*
X222628283Y-122472942D01*
X222318357Y-122633074D01*
X222135651Y-123011871D01*
X222030354Y-123419034D01*
X222006514Y-123838917D01*
X205983388Y-123838917D01*
X205993486Y-123661083D01*
X205934953Y-123244619D01*
X205796297Y-122847575D01*
X205681643Y-122633074D01*
X205371717Y-122472942D01*
X204094659Y-123750000D01*
X203605341Y-123750000D01*
X202328283Y-122472942D01*
X202018357Y-122633074D01*
X201835651Y-123011871D01*
X201730354Y-123419034D01*
X201706514Y-123838917D01*
X191268957Y-123838917D01*
X191277219Y-123247272D01*
X191081925Y-122260964D01*
X191068455Y-122228283D01*
X202572942Y-122228283D01*
X203850000Y-123505341D01*
X205127058Y-122228283D01*
X222872942Y-122228283D01*
X224150000Y-123505341D01*
X225427058Y-122228283D01*
X225266926Y-121918357D01*
X224888129Y-121735651D01*
X224480966Y-121630354D01*
X224061083Y-121606514D01*
X223644619Y-121665047D01*
X223247575Y-121803703D01*
X223033074Y-121918357D01*
X222872942Y-122228283D01*
X205127058Y-122228283D01*
X204966926Y-121918357D01*
X204588129Y-121735651D01*
X204180966Y-121630354D01*
X203761083Y-121606514D01*
X203344619Y-121665047D01*
X202947575Y-121803703D01*
X202733074Y-121918357D01*
X202572942Y-122228283D01*
X191068455Y-122228283D01*
X190698776Y-121331373D01*
X190142364Y-120493907D01*
X189433885Y-119780464D01*
X188600324Y-119218220D01*
X187673431Y-118828590D01*
X186688510Y-118626415D01*
X185683078Y-118619396D01*
X184695431Y-118807800D01*
X183763188Y-119184450D01*
X182921858Y-119735001D01*
X182203487Y-120438482D01*
X181635437Y-121268098D01*
X181239346Y-122192249D01*
X181030299Y-123175734D01*
X181016261Y-124181092D01*
X170964179Y-124181092D01*
X170977219Y-123247272D01*
X170781925Y-122260964D01*
X170398776Y-121331373D01*
X169842364Y-120493907D01*
X169133885Y-119780464D01*
X168300324Y-119218220D01*
X167373431Y-118828590D01*
X166388510Y-118626415D01*
X165383078Y-118619396D01*
X164395431Y-118807800D01*
X163463188Y-119184450D01*
X162621858Y-119735001D01*
X161903487Y-120438482D01*
X161335437Y-121268098D01*
X160939346Y-122192249D01*
X160730299Y-123175734D01*
X160716261Y-124181092D01*
X139144549Y-124181092D01*
X139144549Y-120500000D01*
X139098490Y-119922413D01*
X138795111Y-118942765D01*
X138230820Y-118086421D01*
X137450297Y-117421189D01*
X136515347Y-116999742D01*
X135500000Y-116855451D01*
X134831936Y-116855451D01*
X134443980Y-116775815D01*
X133615042Y-116770028D01*
X133167239Y-116855451D01*
X132831936Y-116855451D01*
X132443980Y-116775815D01*
X131615042Y-116770028D01*
X131167239Y-116855451D01*
X130831936Y-116855451D01*
X130443980Y-116775815D01*
X129615042Y-116770028D01*
X129167239Y-116855451D01*
X118831936Y-116855451D01*
X118443980Y-116775815D01*
X117615042Y-116770028D01*
X117167239Y-116855451D01*
X116831936Y-116855451D01*
X116443980Y-116775815D01*
X115615042Y-116770028D01*
X115167239Y-116855451D01*
X114831936Y-116855451D01*
X114443980Y-116775815D01*
X113615042Y-116770028D01*
X113167239Y-116855451D01*
X112831936Y-116855451D01*
X112443980Y-116775815D01*
X111615042Y-116770028D01*
X111167239Y-116855451D01*
X110831936Y-116855451D01*
X110443980Y-116775815D01*
X109615042Y-116770028D01*
X109167239Y-116855451D01*
X108831936Y-116855451D01*
X108443980Y-116775815D01*
X107615042Y-116770028D01*
X107167239Y-116855451D01*
X106831936Y-116855451D01*
X106443980Y-116775815D01*
X105615042Y-116770028D01*
X105167239Y-116855451D01*
X94831936Y-116855451D01*
X94443980Y-116775815D01*
X93615042Y-116770028D01*
X93167239Y-116855451D01*
X92831936Y-116855451D01*
X92443980Y-116775815D01*
X91615042Y-116770028D01*
X91167239Y-116855451D01*
X90831936Y-116855451D01*
X90443980Y-116775815D01*
X89615042Y-116770028D01*
X89167239Y-116855451D01*
X88831936Y-116855451D01*
X88443980Y-116775815D01*
X87615042Y-116770028D01*
X87167239Y-116855451D01*
X86831936Y-116855451D01*
X86443980Y-116775815D01*
X85615042Y-116770028D01*
X85167239Y-116855451D01*
X84831936Y-116855451D01*
X84443980Y-116775815D01*
X83615042Y-116770028D01*
X83167239Y-116855451D01*
X82831936Y-116855451D01*
X82443980Y-116775815D01*
X81615042Y-116770028D01*
X81167239Y-116855451D01*
X70831936Y-116855451D01*
X70443980Y-116775815D01*
X69615042Y-116770028D01*
X69167239Y-116855451D01*
X68831936Y-116855451D01*
X68443980Y-116775815D01*
X67615042Y-116770028D01*
X67167239Y-116855451D01*
X66831936Y-116855451D01*
X66443980Y-116775815D01*
X65615042Y-116770028D01*
X65167239Y-116855451D01*
X64500000Y-116855451D01*
X64202000Y-116879215D01*
X64202000Y-111271717D01*
X164572942Y-111271717D01*
X164733074Y-111581643D01*
X165111871Y-111764349D01*
X165519034Y-111869646D01*
X165938917Y-111893486D01*
X166355381Y-111834953D01*
X166752425Y-111696297D01*
X166966926Y-111581643D01*
X167127058Y-111271717D01*
X184872942Y-111271717D01*
X185033074Y-111581643D01*
X185411871Y-111764349D01*
X185819034Y-111869646D01*
X186238917Y-111893486D01*
X186655381Y-111834953D01*
X187052425Y-111696297D01*
X187266926Y-111581643D01*
X187427058Y-111271717D01*
X186150000Y-109994659D01*
X184872942Y-111271717D01*
X167127058Y-111271717D01*
X165850000Y-109994659D01*
X164572942Y-111271717D01*
X64202000Y-111271717D01*
X64202000Y-109838917D01*
X163706514Y-109838917D01*
X163765047Y-110255381D01*
X163903703Y-110652425D01*
X164018357Y-110866926D01*
X164328283Y-111027058D01*
X165605341Y-109750000D01*
X166094659Y-109750000D01*
X167371717Y-111027058D01*
X167681643Y-110866926D01*
X167864349Y-110488129D01*
X167969646Y-110080966D01*
X167983388Y-109838917D01*
X184006514Y-109838917D01*
X184065047Y-110255381D01*
X184203703Y-110652425D01*
X184318357Y-110866926D01*
X184628283Y-111027058D01*
X185905341Y-109750000D01*
X186394659Y-109750000D01*
X187671717Y-111027058D01*
X187981643Y-110866926D01*
X188164349Y-110488129D01*
X188243752Y-110181092D01*
X198716261Y-110181092D01*
X198897765Y-111170030D01*
X199267899Y-112104880D01*
X199812563Y-112950033D01*
X200511011Y-113673298D01*
X201336641Y-114247126D01*
X202258004Y-114649660D01*
X203240006Y-114865567D01*
X204245242Y-114886623D01*
X205235423Y-114712028D01*
X206172834Y-114348430D01*
X207021769Y-113809679D01*
X207749892Y-113116297D01*
X208329470Y-112294693D01*
X208738426Y-111376163D01*
X208961183Y-110395693D01*
X208964179Y-110181092D01*
X219016261Y-110181092D01*
X219197765Y-111170030D01*
X219567899Y-112104880D01*
X220112563Y-112950033D01*
X220811011Y-113673298D01*
X221636641Y-114247126D01*
X222558004Y-114649660D01*
X223540006Y-114865567D01*
X224545242Y-114886623D01*
X225535423Y-114712028D01*
X226472834Y-114348430D01*
X227321769Y-113809679D01*
X228049892Y-113116297D01*
X228629470Y-112294693D01*
X229038426Y-111376163D01*
X229062155Y-111271717D01*
X240572942Y-111271717D01*
X240733074Y-111581643D01*
X241111871Y-111764349D01*
X241519034Y-111869646D01*
X241938917Y-111893486D01*
X242355381Y-111834953D01*
X242752425Y-111696297D01*
X242966926Y-111581643D01*
X243127058Y-111271717D01*
X260872942Y-111271717D01*
X261033074Y-111581643D01*
X261411871Y-111764349D01*
X261819034Y-111869646D01*
X262238917Y-111893486D01*
X262655381Y-111834953D01*
X263052425Y-111696297D01*
X263266926Y-111581643D01*
X263427058Y-111271717D01*
X262150000Y-109994659D01*
X260872942Y-111271717D01*
X243127058Y-111271717D01*
X241850000Y-109994659D01*
X240572942Y-111271717D01*
X229062155Y-111271717D01*
X229261183Y-110395693D01*
X229268957Y-109838917D01*
X239706514Y-109838917D01*
X239765047Y-110255381D01*
X239903703Y-110652425D01*
X240018357Y-110866926D01*
X240328283Y-111027058D01*
X241605341Y-109750000D01*
X242094659Y-109750000D01*
X243371717Y-111027058D01*
X243681643Y-110866926D01*
X243864349Y-110488129D01*
X243969646Y-110080966D01*
X243983388Y-109838917D01*
X260006514Y-109838917D01*
X260065047Y-110255381D01*
X260203703Y-110652425D01*
X260318357Y-110866926D01*
X260628283Y-111027058D01*
X261905341Y-109750000D01*
X262394659Y-109750000D01*
X263671717Y-111027058D01*
X263981643Y-110866926D01*
X264164349Y-110488129D01*
X264269646Y-110080966D01*
X264293486Y-109661083D01*
X264234953Y-109244619D01*
X264096297Y-108847575D01*
X263981643Y-108633074D01*
X263671717Y-108472942D01*
X262394659Y-109750000D01*
X261905341Y-109750000D01*
X260628283Y-108472942D01*
X260318357Y-108633074D01*
X260135651Y-109011871D01*
X260030354Y-109419034D01*
X260006514Y-109838917D01*
X243983388Y-109838917D01*
X243993486Y-109661083D01*
X243934953Y-109244619D01*
X243796297Y-108847575D01*
X243681643Y-108633074D01*
X243371717Y-108472942D01*
X242094659Y-109750000D01*
X241605341Y-109750000D01*
X240328283Y-108472942D01*
X240018357Y-108633074D01*
X239835651Y-109011871D01*
X239730354Y-109419034D01*
X239706514Y-109838917D01*
X229268957Y-109838917D01*
X229277219Y-109247272D01*
X229081925Y-108260964D01*
X229068455Y-108228283D01*
X240572942Y-108228283D01*
X241850000Y-109505341D01*
X243127058Y-108228283D01*
X260872942Y-108228283D01*
X262150000Y-109505341D01*
X263427058Y-108228283D01*
X263266926Y-107918357D01*
X262888129Y-107735651D01*
X262480966Y-107630354D01*
X262061083Y-107606514D01*
X261644619Y-107665047D01*
X261247575Y-107803703D01*
X261033074Y-107918357D01*
X260872942Y-108228283D01*
X243127058Y-108228283D01*
X242966926Y-107918357D01*
X242588129Y-107735651D01*
X242180966Y-107630354D01*
X241761083Y-107606514D01*
X241344619Y-107665047D01*
X240947575Y-107803703D01*
X240733074Y-107918357D01*
X240572942Y-108228283D01*
X229068455Y-108228283D01*
X228698776Y-107331373D01*
X228142364Y-106493907D01*
X227433885Y-105780464D01*
X226600324Y-105218220D01*
X225673431Y-104828590D01*
X224688510Y-104626415D01*
X223683078Y-104619396D01*
X222695431Y-104807800D01*
X221763188Y-105184450D01*
X220921858Y-105735001D01*
X220203487Y-106438482D01*
X219635437Y-107268098D01*
X219239346Y-108192249D01*
X219030299Y-109175734D01*
X219016261Y-110181092D01*
X208964179Y-110181092D01*
X208977219Y-109247272D01*
X208781925Y-108260964D01*
X208398776Y-107331373D01*
X207842364Y-106493907D01*
X207133885Y-105780464D01*
X206300324Y-105218220D01*
X205373431Y-104828590D01*
X204388510Y-104626415D01*
X203383078Y-104619396D01*
X202395431Y-104807800D01*
X201463188Y-105184450D01*
X200621858Y-105735001D01*
X199903487Y-106438482D01*
X199335437Y-107268098D01*
X198939346Y-108192249D01*
X198730299Y-109175734D01*
X198716261Y-110181092D01*
X188243752Y-110181092D01*
X188269646Y-110080966D01*
X188293486Y-109661083D01*
X188234953Y-109244619D01*
X188096297Y-108847575D01*
X187981643Y-108633074D01*
X187671717Y-108472942D01*
X186394659Y-109750000D01*
X185905341Y-109750000D01*
X184628283Y-108472942D01*
X184318357Y-108633074D01*
X184135651Y-109011871D01*
X184030354Y-109419034D01*
X184006514Y-109838917D01*
X167983388Y-109838917D01*
X167993486Y-109661083D01*
X167934953Y-109244619D01*
X167796297Y-108847575D01*
X167681643Y-108633074D01*
X167371717Y-108472942D01*
X166094659Y-109750000D01*
X165605341Y-109750000D01*
X164328283Y-108472942D01*
X164018357Y-108633074D01*
X163835651Y-109011871D01*
X163730354Y-109419034D01*
X163706514Y-109838917D01*
X64202000Y-109838917D01*
X64202000Y-108228283D01*
X164572942Y-108228283D01*
X165850000Y-109505341D01*
X167127058Y-108228283D01*
X184872942Y-108228283D01*
X186150000Y-109505341D01*
X187427058Y-108228283D01*
X187266926Y-107918357D01*
X186888129Y-107735651D01*
X186480966Y-107630354D01*
X186061083Y-107606514D01*
X185644619Y-107665047D01*
X185247575Y-107803703D01*
X185033074Y-107918357D01*
X184872942Y-108228283D01*
X167127058Y-108228283D01*
X166966926Y-107918357D01*
X166588129Y-107735651D01*
X166180966Y-107630354D01*
X165761083Y-107606514D01*
X165344619Y-107665047D01*
X164947575Y-107803703D01*
X164733074Y-107918357D01*
X164572942Y-108228283D01*
X64202000Y-108228283D01*
X64202000Y-68452200D01*
X64500000Y-68494549D01*
X135500000Y-68494549D01*
X136077587Y-68448490D01*
X137057235Y-68145111D01*
X137913579Y-67580820D01*
X138578811Y-66800297D01*
X139000258Y-65865347D01*
X139144549Y-64850000D01*
X139144549Y-54050000D01*
X139116798Y-53702000D01*
X162144974Y-53702000D01*
X161903487Y-53938482D01*
X161903487Y-53938482D01*
G37*
X161903487Y-53938482D02*
X161335437Y-54768098D01*
X160939346Y-55692249D01*
X160730299Y-56675734D01*
X160716261Y-57681092D01*
X160897765Y-58670030D01*
X161267899Y-59604880D01*
X161812563Y-60450033D01*
X162511011Y-61173298D01*
X163336641Y-61747126D01*
X164258004Y-62149660D01*
X165240006Y-62365567D01*
X166245242Y-62386623D01*
X167235423Y-62212028D01*
X168172834Y-61848430D01*
X169021769Y-61309679D01*
X169749892Y-60616297D01*
X170329470Y-59794693D01*
X170738426Y-58876163D01*
X170961183Y-57895693D01*
X170977219Y-56747272D01*
X170781925Y-55760964D01*
X170398776Y-54831373D01*
X169842364Y-53993907D01*
X169552488Y-53702000D01*
X182444974Y-53702000D01*
X182203487Y-53938482D01*
X181635437Y-54768098D01*
X181239346Y-55692249D01*
X181030299Y-56675734D01*
X181016261Y-57681092D01*
X181197765Y-58670030D01*
X181567899Y-59604880D01*
X182112563Y-60450033D01*
X182811011Y-61173298D01*
X183636641Y-61747126D01*
X184558004Y-62149660D01*
X185540006Y-62365567D01*
X186545242Y-62386623D01*
X187535423Y-62212028D01*
X188472834Y-61848430D01*
X189321769Y-61309679D01*
X190049892Y-60616297D01*
X190629470Y-59794693D01*
X191038426Y-58876163D01*
X191062155Y-58771717D01*
X202572942Y-58771717D01*
X202733074Y-59081643D01*
X203111871Y-59264349D01*
X203519034Y-59369646D01*
X203938917Y-59393486D01*
X204355381Y-59334953D01*
X204752425Y-59196297D01*
X204966926Y-59081643D01*
X205127058Y-58771717D01*
X222872942Y-58771717D01*
X223033074Y-59081643D01*
X223411871Y-59264349D01*
X223819034Y-59369646D01*
X224238917Y-59393486D01*
X224655381Y-59334953D01*
X225052425Y-59196297D01*
X225266926Y-59081643D01*
X225427058Y-58771717D01*
X224150000Y-57494659D01*
X222872942Y-58771717D01*
X205127058Y-58771717D01*
X203850000Y-57494659D01*
X202572942Y-58771717D01*
X191062155Y-58771717D01*
X191261183Y-57895693D01*
X191268957Y-57338917D01*
X201706514Y-57338917D01*
X201765047Y-57755381D01*
X201903703Y-58152425D01*
X202018357Y-58366926D01*
X202328283Y-58527058D01*
X203605341Y-57250000D01*
X204094659Y-57250000D01*
X205371717Y-58527058D01*
X205681643Y-58366926D01*
X205864349Y-57988129D01*
X205969646Y-57580966D01*
X205983388Y-57338917D01*
X222006514Y-57338917D01*
X222065047Y-57755381D01*
X222203703Y-58152425D01*
X222318357Y-58366926D01*
X222628283Y-58527058D01*
X223905341Y-57250000D01*
X224394659Y-57250000D01*
X225671717Y-58527058D01*
X225981643Y-58366926D01*
X226164349Y-57988129D01*
X226269646Y-57580966D01*
X226293486Y-57161083D01*
X226234953Y-56744619D01*
X226096297Y-56347575D01*
X225981643Y-56133074D01*
X225671717Y-55972942D01*
X224394659Y-57250000D01*
X223905341Y-57250000D01*
X222628283Y-55972942D01*
X222318357Y-56133074D01*
X222135651Y-56511871D01*
X222030354Y-56919034D01*
X222006514Y-57338917D01*
X205983388Y-57338917D01*
X205993486Y-57161083D01*
X205934953Y-56744619D01*
X205796297Y-56347575D01*
X205681643Y-56133074D01*
X205371717Y-55972942D01*
X204094659Y-57250000D01*
X203605341Y-57250000D01*
X202328283Y-55972942D01*
X202018357Y-56133074D01*
X201835651Y-56511871D01*
X201730354Y-56919034D01*
X201706514Y-57338917D01*
X191268957Y-57338917D01*
X191277219Y-56747272D01*
X191081925Y-55760964D01*
X191068455Y-55728283D01*
X202572942Y-55728283D01*
X203850000Y-57005341D01*
X205127058Y-55728283D01*
X222872942Y-55728283D01*
X224150000Y-57005341D01*
X225427058Y-55728283D01*
X225266926Y-55418357D01*
X224888129Y-55235651D01*
X224480966Y-55130354D01*
X224061083Y-55106514D01*
X223644619Y-55165047D01*
X223247575Y-55303703D01*
X223033074Y-55418357D01*
X222872942Y-55728283D01*
X205127058Y-55728283D01*
X204966926Y-55418357D01*
X204588129Y-55235651D01*
X204180966Y-55130354D01*
X203761083Y-55106514D01*
X203344619Y-55165047D01*
X202947575Y-55303703D01*
X202733074Y-55418357D01*
X202572942Y-55728283D01*
X191068455Y-55728283D01*
X190698776Y-54831373D01*
X190142364Y-53993907D01*
X189852488Y-53702000D01*
X238144974Y-53702000D01*
X237903487Y-53938482D01*
X237335437Y-54768098D01*
X236939346Y-55692249D01*
X236730299Y-56675734D01*
X236716261Y-57681092D01*
X236897765Y-58670030D01*
X237267899Y-59604880D01*
X237812563Y-60450033D01*
X238511011Y-61173298D01*
X239336641Y-61747126D01*
X240258004Y-62149660D01*
X241240006Y-62365567D01*
X242245242Y-62386623D01*
X243235423Y-62212028D01*
X244172834Y-61848430D01*
X245021769Y-61309679D01*
X245749892Y-60616297D01*
X246329470Y-59794693D01*
X246738426Y-58876163D01*
X246961183Y-57895693D01*
X246977219Y-56747272D01*
X246781925Y-55760964D01*
X246398776Y-54831373D01*
X245842364Y-53993907D01*
X245552488Y-53702000D01*
X258444974Y-53702000D01*
X258203487Y-53938482D01*
X257635437Y-54768098D01*
X257239346Y-55692249D01*
X257030299Y-56675734D01*
X257016261Y-57681092D01*
X257197765Y-58670030D01*
X257567899Y-59604880D01*
X258112563Y-60450033D01*
X258811011Y-61173298D01*
X259636641Y-61747126D01*
X260558004Y-62149660D01*
X261540006Y-62365567D01*
X262545242Y-62386623D01*
X263535423Y-62212028D01*
X264472834Y-61848430D01*
X265321769Y-61309679D01*
X266049892Y-60616297D01*
X266629470Y-59794693D01*
X267038426Y-58876163D01*
X267261183Y-57895693D01*
X267277219Y-56747272D01*
X267081925Y-55760964D01*
X266698776Y-54831373D01*
X266142364Y-53993907D01*
X265852488Y-53702000D01*
X285873000Y-53702000D01*
X285873000Y-78198000D01*
X269500000Y-78198000D01*
X269499083Y-78198090D01*
X269474281Y-78198089D01*
X269460319Y-78198186D01*
X269293009Y-78215765D01*
X269073379Y-78221168D01*
X268879430Y-78242923D01*
X268551168Y-78312697D01*
X268222079Y-78377860D01*
X268172724Y-78393138D01*
X268172714Y-78393140D01*
X268172706Y-78393144D01*
X268172701Y-78393145D01*
X267986671Y-78452158D01*
X267678273Y-78584339D01*
X267368071Y-78712195D01*
X267322603Y-78736779D01*
X267151578Y-78830801D01*
X266874716Y-79020373D01*
X266595265Y-79206039D01*
X266555438Y-79238986D01*
X266405932Y-79364436D01*
X266171136Y-79604201D01*
X265933082Y-79840600D01*
X265900427Y-79880639D01*
X265900421Y-79880645D01*
X265900417Y-79880651D01*
X265900413Y-79880656D01*
X265778122Y-80032756D01*
X265594379Y-80313546D01*
X265406783Y-80591665D01*
X265382516Y-80637304D01*
X265382509Y-80637318D01*
X265382506Y-80637322D01*
X265382504Y-80637327D01*
X265292096Y-80810259D01*
X265166385Y-81121401D01*
X265036372Y-81430693D01*
X265021432Y-81480176D01*
X264966330Y-81667402D01*
X264903463Y-81996966D01*
X264835994Y-82325642D01*
X264830950Y-82377085D01*
X264813261Y-82571447D01*
X264815603Y-82906980D01*
X264813261Y-83242514D01*
X264818305Y-83293956D01*
X264838706Y-83488053D01*
X264906177Y-83816742D01*
X264969044Y-84146303D01*
X264983983Y-84195786D01*
X265041695Y-84382224D01*
X265171732Y-84691570D01*
X265297408Y-85002632D01*
X265321674Y-85048269D01*
X265321676Y-85048274D01*
X265321679Y-85048279D01*
X265414500Y-85219948D01*
X265602146Y-85498146D01*
X265785858Y-85778886D01*
X265818514Y-85818926D01*
X265818518Y-85818932D01*
X265818522Y-85818936D01*
X265818527Y-85818942D01*
X265942930Y-85969320D01*
X266181032Y-86205764D01*
X266415766Y-86445467D01*
X266455593Y-86478415D01*
X266606835Y-86601765D01*
X266886320Y-86787454D01*
X267163159Y-86977010D01*
X267208628Y-87001595D01*
X267380950Y-87093220D01*
X267691189Y-87221091D01*
X267999559Y-87353258D01*
X268048936Y-87368543D01*
X268235773Y-87424952D01*
X268564919Y-87490125D01*
X268623028Y-87502476D01*
X268617050Y-87930642D01*
X268777313Y-88803848D01*
X268788851Y-88832990D01*
X268629445Y-89582939D01*
X268617050Y-90470642D01*
X268777313Y-91343848D01*
X268788851Y-91372990D01*
X268629445Y-92122939D01*
X268617050Y-93010642D01*
X268777313Y-93883848D01*
X268788851Y-93912990D01*
X268629445Y-94662939D01*
X268617050Y-95550642D01*
X268777313Y-96423848D01*
X268788851Y-96452990D01*
X268629445Y-97202939D01*
X268617050Y-98090642D01*
X268777313Y-98963848D01*
X268788851Y-98992990D01*
X268629445Y-99742939D01*
X268617050Y-100630642D01*
X268777313Y-101503848D01*
X269104130Y-102329295D01*
X269585054Y-103075542D01*
X270201765Y-103714165D01*
X270930773Y-104220839D01*
X271744311Y-104576265D01*
X272611392Y-104766905D01*
X273498987Y-104785497D01*
X274373290Y-104631334D01*
X274431713Y-104608673D01*
X275151392Y-104766905D01*
X276038987Y-104785497D01*
X276913290Y-104631334D01*
X276971713Y-104608673D01*
X277691392Y-104766905D01*
X278578987Y-104785497D01*
X279453290Y-104631334D01*
X279511713Y-104608673D01*
X280231392Y-104766905D01*
X281118987Y-104785497D01*
X281993290Y-104631334D01*
X282051713Y-104608673D01*
X282771392Y-104766905D01*
X283658987Y-104785497D01*
X284533290Y-104631334D01*
X284591713Y-104608673D01*
X285311392Y-104766905D01*
X285873000Y-104778669D01*
X285873000Y-145297999D01*
X269500000Y-145298000D01*
X269499093Y-145298089D01*
X269474281Y-145298088D01*
X269460319Y-145298185D01*
X269293009Y-145315764D01*
X269073379Y-145321167D01*
X268879430Y-145342922D01*
X268551168Y-145412696D01*
X268222079Y-145477859D01*
X268172724Y-145493137D01*
X268172714Y-145493139D01*
X268172706Y-145493143D01*
X268172701Y-145493144D01*
X267986671Y-145552157D01*
X267678273Y-145684338D01*
X267368071Y-145812194D01*
X267322603Y-145836778D01*
X267151578Y-145930800D01*
X266874716Y-146120372D01*
X266595265Y-146306038D01*
X266555438Y-146338985D01*
X266405932Y-146464435D01*
X266171136Y-146704200D01*
X265933082Y-146940599D01*
X265900427Y-146980638D01*
X265900421Y-146980644D01*
X265900417Y-146980650D01*
X265900413Y-146980655D01*
X265778122Y-147132755D01*
X265594379Y-147413545D01*
X265406783Y-147691664D01*
X265382516Y-147737303D01*
X265382509Y-147737317D01*
X265382506Y-147737321D01*
X265382504Y-147737326D01*
X265292096Y-147910258D01*
X265166385Y-148221400D01*
X265036372Y-148530692D01*
X265021432Y-148580175D01*
X264966330Y-148767401D01*
X264903463Y-149096965D01*
X264835994Y-149425641D01*
X264830950Y-149477084D01*
X264813261Y-149671446D01*
X264815603Y-150006980D01*
X264813261Y-150342513D01*
X264818305Y-150393955D01*
X264838706Y-150588052D01*
X264906177Y-150916741D01*
X264969044Y-151246302D01*
X264983983Y-151295785D01*
X265041695Y-151482223D01*
X265171732Y-151791569D01*
X265297408Y-152102631D01*
X265321674Y-152148268D01*
X265321676Y-152148273D01*
X265321679Y-152148278D01*
X265414500Y-152319947D01*
X265602146Y-152598145D01*
X265785858Y-152878885D01*
X265818514Y-152918925D01*
X265818518Y-152918931D01*
X265818522Y-152918935D01*
X265818527Y-152918941D01*
X265942930Y-153069319D01*
X266181032Y-153305763D01*
X266415766Y-153545466D01*
X266455593Y-153578414D01*
X266606835Y-153701764D01*
X266886320Y-153887453D01*
X267163159Y-154077009D01*
X267208628Y-154101594D01*
X267380950Y-154193219D01*
X267691189Y-154321090D01*
X267999559Y-154453257D01*
X268048936Y-154468542D01*
X268235773Y-154524951D01*
X268564919Y-154590124D01*
X268623028Y-154602475D01*
X268617050Y-155030642D01*
X268777313Y-155903848D01*
X268788851Y-155932990D01*
X268629445Y-156682939D01*
X268617050Y-157570642D01*
X268777313Y-158443848D01*
X268788851Y-158472990D01*
X268629445Y-159222939D01*
X268617050Y-160110642D01*
X268777313Y-160983848D01*
X268788851Y-161012990D01*
X268629445Y-161762939D01*
X268617050Y-162650642D01*
X268777313Y-163523848D01*
X268788851Y-163552990D01*
X268629445Y-164302939D01*
X268617050Y-165190642D01*
X268777313Y-166063848D01*
X268788851Y-166092990D01*
X268629445Y-166842939D01*
X268617050Y-167730642D01*
X268777313Y-168603848D01*
X269104130Y-169429295D01*
X269585054Y-170175542D01*
X270201765Y-170814165D01*
X270930773Y-171320839D01*
X271744311Y-171676265D01*
X272611392Y-171866905D01*
X273498987Y-171885497D01*
X274373290Y-171731334D01*
X274431713Y-171708673D01*
X275151392Y-171866905D01*
X276038987Y-171885497D01*
X276913290Y-171731334D01*
X276971713Y-171708673D01*
X277691392Y-171866905D01*
X278578987Y-171885497D01*
X279453290Y-171731334D01*
X279511713Y-171708673D01*
X280231392Y-171866905D01*
X281118987Y-171885497D01*
X281993290Y-171731334D01*
X282051713Y-171708673D01*
X282771392Y-171866905D01*
X283658987Y-171885497D01*
X284533290Y-171731334D01*
X284591713Y-171708673D01*
X285311392Y-171866905D01*
X285873000Y-171878669D01*
X285873000Y-212397998D01*
X269500000Y-212397998D01*
X269499083Y-212398088D01*
X269474281Y-212398087D01*
X269460319Y-212398184D01*
X269293009Y-212415763D01*
X269073379Y-212421166D01*
X268879430Y-212442921D01*
X268551168Y-212512695D01*
X268222079Y-212577858D01*
X268172724Y-212593136D01*
X268172714Y-212593138D01*
X268172706Y-212593142D01*
X268172701Y-212593143D01*
X267986671Y-212652156D01*
X267678273Y-212784337D01*
X267368071Y-212912193D01*
X267322603Y-212936777D01*
X267151578Y-213030799D01*
X266874716Y-213220371D01*
X266595265Y-213406037D01*
X266555438Y-213438984D01*
X266405932Y-213564434D01*
X266171136Y-213804199D01*
X265933082Y-214040598D01*
X265900427Y-214080637D01*
X265900421Y-214080643D01*
X265900417Y-214080649D01*
X265900413Y-214080654D01*
X265778122Y-214232754D01*
X265594379Y-214513544D01*
X265406783Y-214791663D01*
X265382516Y-214837302D01*
X265382509Y-214837316D01*
X265382506Y-214837320D01*
X265382504Y-214837325D01*
X265292096Y-215010257D01*
X265166385Y-215321399D01*
X265036372Y-215630691D01*
X265021432Y-215680174D01*
X264966330Y-215867400D01*
X264903463Y-216196964D01*
X264835994Y-216525640D01*
X264830950Y-216577083D01*
X264813261Y-216771445D01*
X264815603Y-217106979D01*
X264813261Y-217442512D01*
X264818305Y-217493954D01*
X264838706Y-217688051D01*
X264906177Y-218016740D01*
X264969044Y-218346301D01*
X264983983Y-218395784D01*
X265041695Y-218582222D01*
X265171732Y-218891568D01*
X265297408Y-219202630D01*
X265321674Y-219248267D01*
X265321676Y-219248272D01*
X265321679Y-219248277D01*
X265414500Y-219419946D01*
X265602146Y-219698144D01*
X265785858Y-219978884D01*
X265818514Y-220018924D01*
X265818518Y-220018930D01*
X265818522Y-220018934D01*
X265818527Y-220018940D01*
X265942930Y-220169318D01*
X266181032Y-220405762D01*
X266415766Y-220645465D01*
X266455593Y-220678413D01*
X266606835Y-220801763D01*
X266886320Y-220987452D01*
X267163159Y-221177008D01*
X267208628Y-221201593D01*
X267380950Y-221293218D01*
X267691189Y-221421089D01*
X267999559Y-221553256D01*
X268048936Y-221568541D01*
X268235773Y-221624950D01*
X268564919Y-221690123D01*
X268623029Y-221702474D01*
X268617050Y-222130642D01*
X268777313Y-223003848D01*
X268788851Y-223032990D01*
X268629445Y-223782939D01*
X268617050Y-224670642D01*
X268777313Y-225543848D01*
X268788851Y-225572990D01*
X268629445Y-226322939D01*
X268617050Y-227210642D01*
X268777313Y-228083848D01*
X268788851Y-228112990D01*
X268629445Y-228862939D01*
X268617050Y-229750642D01*
X268777313Y-230623848D01*
X268788851Y-230652990D01*
X268629445Y-231402939D01*
X268617050Y-232290642D01*
X268777313Y-233163848D01*
X268788851Y-233192990D01*
X268629445Y-233942939D01*
X268617050Y-234830642D01*
X268777313Y-235703848D01*
X269104130Y-236529295D01*
X269585054Y-237275542D01*
X270201765Y-237914165D01*
X270930773Y-238420839D01*
X271744311Y-238776265D01*
X272611392Y-238966905D01*
X273498987Y-238985497D01*
X274373290Y-238831334D01*
X274431713Y-238808673D01*
X275151392Y-238966905D01*
X276038987Y-238985497D01*
X276913290Y-238831334D01*
X276971713Y-238808673D01*
X277691392Y-238966905D01*
X278578987Y-238985497D01*
X279453290Y-238831334D01*
X279511713Y-238808673D01*
X280231392Y-238966905D01*
X281118987Y-238985497D01*
X281993290Y-238831334D01*
X282051713Y-238808673D01*
X282771392Y-238966905D01*
X283658987Y-238985497D01*
X284533290Y-238831334D01*
X284591713Y-238808673D01*
X285311392Y-238966905D01*
X285873000Y-238978669D01*
X285873000Y-246298000D01*
X227859085Y-246298000D01*
X228049892Y-246116297D01*
X228629470Y-245294693D01*
X229038426Y-244376163D01*
X229062155Y-244271717D01*
X240572942Y-244271717D01*
X240733074Y-244581643D01*
X241111871Y-244764349D01*
X241519034Y-244869646D01*
X241938917Y-244893486D01*
X242355381Y-244834953D01*
X242752425Y-244696297D01*
X242966926Y-244581643D01*
X243127058Y-244271717D01*
X260872942Y-244271717D01*
X261033074Y-244581643D01*
X261411871Y-244764349D01*
X261819034Y-244869646D01*
X262238917Y-244893486D01*
X262655381Y-244834953D01*
X263052425Y-244696297D01*
X263266926Y-244581643D01*
X263427058Y-244271717D01*
X262150000Y-242994659D01*
X260872942Y-244271717D01*
X243127058Y-244271717D01*
X241850000Y-242994659D01*
X240572942Y-244271717D01*
X229062155Y-244271717D01*
X229261183Y-243395693D01*
X229268957Y-242838917D01*
X239706514Y-242838917D01*
X239765047Y-243255381D01*
X239903703Y-243652425D01*
X240018357Y-243866926D01*
X240328283Y-244027058D01*
X241605341Y-242750000D01*
X242094659Y-242750000D01*
X243371717Y-244027058D01*
X243681643Y-243866926D01*
X243864349Y-243488129D01*
X243969646Y-243080966D01*
X243983388Y-242838917D01*
X260006514Y-242838917D01*
X260065047Y-243255381D01*
X260203703Y-243652425D01*
X260318357Y-243866926D01*
X260628283Y-244027058D01*
X261905341Y-242750000D01*
X262394659Y-242750000D01*
X263671717Y-244027058D01*
X263981643Y-243866926D01*
X264164349Y-243488129D01*
X264269646Y-243080966D01*
X264293486Y-242661083D01*
X264234953Y-242244619D01*
X264096297Y-241847575D01*
X263981643Y-241633074D01*
X263671717Y-241472942D01*
X262394659Y-242750000D01*
X261905341Y-242750000D01*
X260628283Y-241472942D01*
X260318357Y-241633074D01*
X260135651Y-242011871D01*
X260030354Y-242419034D01*
X260006514Y-242838917D01*
X243983388Y-242838917D01*
X243993486Y-242661083D01*
X243934953Y-242244619D01*
X243796297Y-241847575D01*
X243681643Y-241633074D01*
X243371717Y-241472942D01*
X242094659Y-242750000D01*
X241605341Y-242750000D01*
X240328283Y-241472942D01*
X240018357Y-241633074D01*
X239835651Y-242011871D01*
X239730354Y-242419034D01*
X239706514Y-242838917D01*
X229268957Y-242838917D01*
X229277219Y-242247272D01*
X229081925Y-241260964D01*
X229068455Y-241228283D01*
X240572942Y-241228283D01*
X241850000Y-242505341D01*
X243127058Y-241228283D01*
X260872942Y-241228283D01*
X262150000Y-242505341D01*
X263427058Y-241228283D01*
X263266926Y-240918357D01*
X262888129Y-240735651D01*
X262480966Y-240630354D01*
X262061083Y-240606514D01*
X261644619Y-240665047D01*
X261247575Y-240803703D01*
X261033074Y-240918357D01*
X260872942Y-241228283D01*
X243127058Y-241228283D01*
X242966926Y-240918357D01*
X242588129Y-240735651D01*
X242180966Y-240630354D01*
X241761083Y-240606514D01*
X241344619Y-240665047D01*
X240947575Y-240803703D01*
X240733074Y-240918357D01*
X240572942Y-241228283D01*
X229068455Y-241228283D01*
X228698776Y-240331373D01*
X228142364Y-239493907D01*
X227433885Y-238780464D01*
X226600324Y-238218220D01*
X225673431Y-237828590D01*
X224688510Y-237626415D01*
X223683078Y-237619396D01*
X222695431Y-237807800D01*
X221763188Y-238184450D01*
X220921858Y-238735001D01*
X220203487Y-239438482D01*
X219635437Y-240268098D01*
X219239346Y-241192249D01*
X219030299Y-242175734D01*
X219016261Y-243181092D01*
X219197765Y-244170030D01*
X219567899Y-245104880D01*
X220112563Y-245950033D01*
X220448590Y-246298000D01*
X207559085Y-246298000D01*
X207749892Y-246116297D01*
X208329470Y-245294693D01*
X208738426Y-244376163D01*
X208961183Y-243395693D01*
X208977219Y-242247272D01*
X208781925Y-241260964D01*
X208398776Y-240331373D01*
X207842364Y-239493907D01*
X207133885Y-238780464D01*
X206300324Y-238218220D01*
X205373431Y-237828590D01*
X204388510Y-237626415D01*
X203383078Y-237619396D01*
X202395431Y-237807800D01*
X201463188Y-238184450D01*
X200621858Y-238735001D01*
X199903487Y-239438482D01*
X199335437Y-240268098D01*
X198939346Y-241192249D01*
X198730299Y-242175734D01*
X198716261Y-243181092D01*
X198897765Y-244170030D01*
X199267899Y-245104880D01*
X199812563Y-245950033D01*
X200148590Y-246298000D01*
X64202000Y-246298000D01*
X64202000Y-244271717D01*
X164572942Y-244271717D01*
X164733074Y-244581643D01*
X165111871Y-244764349D01*
X165519034Y-244869646D01*
X165938917Y-244893486D01*
X166355381Y-244834953D01*
X166752425Y-244696297D01*
X166966926Y-244581643D01*
X167127058Y-244271717D01*
X184872942Y-244271717D01*
X185033074Y-244581643D01*
X185411871Y-244764349D01*
X185819034Y-244869646D01*
X186238917Y-244893486D01*
X186655381Y-244834953D01*
X187052425Y-244696297D01*
X187266926Y-244581643D01*
X187427058Y-244271717D01*
X186150000Y-242994659D01*
X184872942Y-244271717D01*
X167127058Y-244271717D01*
X165850000Y-242994659D01*
X164572942Y-244271717D01*
X64202000Y-244271717D01*
X64202000Y-242838917D01*
X163706514Y-242838917D01*
X163765047Y-243255381D01*
X163903703Y-243652425D01*
X164018357Y-243866926D01*
X164328283Y-244027058D01*
X165605341Y-242750000D01*
X166094659Y-242750000D01*
X167371717Y-244027058D01*
X167681643Y-243866926D01*
X167864349Y-243488129D01*
X167969646Y-243080966D01*
X167983388Y-242838917D01*
X184006514Y-242838917D01*
X184065047Y-243255381D01*
X184203703Y-243652425D01*
X184318357Y-243866926D01*
X184628283Y-244027058D01*
X185905341Y-242750000D01*
X186394659Y-242750000D01*
X187671717Y-244027058D01*
X187981643Y-243866926D01*
X188164349Y-243488129D01*
X188269646Y-243080966D01*
X188293486Y-242661083D01*
X188234953Y-242244619D01*
X188096297Y-241847575D01*
X187981643Y-241633074D01*
X187671717Y-241472942D01*
X186394659Y-242750000D01*
X185905341Y-242750000D01*
X184628283Y-241472942D01*
X184318357Y-241633074D01*
X184135651Y-242011871D01*
X184030354Y-242419034D01*
X184006514Y-242838917D01*
X167983388Y-242838917D01*
X167993486Y-242661083D01*
X167934953Y-242244619D01*
X167796297Y-241847575D01*
X167681643Y-241633074D01*
X167371717Y-241472942D01*
X166094659Y-242750000D01*
X165605341Y-242750000D01*
X164328283Y-241472942D01*
X164018357Y-241633074D01*
X163835651Y-242011871D01*
X163730354Y-242419034D01*
X163706514Y-242838917D01*
X64202000Y-242838917D01*
X64202000Y-241228283D01*
X164572942Y-241228283D01*
X165850000Y-242505341D01*
X167127058Y-241228283D01*
X184872942Y-241228283D01*
X186150000Y-242505341D01*
X187427058Y-241228283D01*
X187266926Y-240918357D01*
X186888129Y-240735651D01*
X186480966Y-240630354D01*
X186061083Y-240606514D01*
X185644619Y-240665047D01*
X185247575Y-240803703D01*
X185033074Y-240918357D01*
X184872942Y-241228283D01*
X167127058Y-241228283D01*
X166966926Y-240918357D01*
X166588129Y-240735651D01*
X166180966Y-240630354D01*
X165761083Y-240606514D01*
X165344619Y-240665047D01*
X164947575Y-240803703D01*
X164733074Y-240918357D01*
X164572942Y-241228283D01*
X64202000Y-241228283D01*
X64202000Y-201402200D01*
X64500000Y-201444549D01*
X135500000Y-201444549D01*
X136077587Y-201398490D01*
X137057235Y-201095111D01*
X137913579Y-200530820D01*
X138578811Y-199750297D01*
X139000258Y-198815347D01*
X139144549Y-197800000D01*
X139144549Y-190681092D01*
X160716261Y-190681092D01*
X160897765Y-191670030D01*
X161267899Y-192604880D01*
X161812563Y-193450033D01*
X162511011Y-194173298D01*
X163336641Y-194747126D01*
X164258004Y-195149660D01*
X165240006Y-195365567D01*
X166245242Y-195386623D01*
X167235423Y-195212028D01*
X168172834Y-194848430D01*
X169021769Y-194309679D01*
X169749892Y-193616297D01*
X170329470Y-192794693D01*
X170738426Y-191876163D01*
X170961183Y-190895693D01*
X170964179Y-190681092D01*
X181016261Y-190681092D01*
X181197765Y-191670030D01*
X181567899Y-192604880D01*
X182112563Y-193450033D01*
X182811011Y-194173298D01*
X183636641Y-194747126D01*
X184558004Y-195149660D01*
X185540006Y-195365567D01*
X186545242Y-195386623D01*
X187535423Y-195212028D01*
X188472834Y-194848430D01*
X189321769Y-194309679D01*
X190049892Y-193616297D01*
X190629470Y-192794693D01*
X191038426Y-191876163D01*
X191062155Y-191771717D01*
X202572942Y-191771717D01*
X202733074Y-192081643D01*
X203111871Y-192264349D01*
X203519034Y-192369646D01*
X203938917Y-192393486D01*
X204355381Y-192334953D01*
X204752425Y-192196297D01*
X204966926Y-192081643D01*
X205127058Y-191771717D01*
X222872942Y-191771717D01*
X223033074Y-192081643D01*
X223411871Y-192264349D01*
X223819034Y-192369646D01*
X224238917Y-192393486D01*
X224655381Y-192334953D01*
X225052425Y-192196297D01*
X225266926Y-192081643D01*
X225427058Y-191771717D01*
X224150000Y-190494659D01*
X222872942Y-191771717D01*
X205127058Y-191771717D01*
X203850000Y-190494659D01*
X202572942Y-191771717D01*
X191062155Y-191771717D01*
X191261183Y-190895693D01*
X191268957Y-190338917D01*
X201706514Y-190338917D01*
X201765047Y-190755381D01*
X201903703Y-191152425D01*
X202018357Y-191366926D01*
X202328283Y-191527058D01*
X203605341Y-190250000D01*
X204094659Y-190250000D01*
X205371717Y-191527058D01*
X205681643Y-191366926D01*
X205864349Y-190988129D01*
X205969646Y-190580966D01*
X205983388Y-190338917D01*
X222006514Y-190338917D01*
X222065047Y-190755381D01*
X222203703Y-191152425D01*
X222318357Y-191366926D01*
X222628283Y-191527058D01*
X223905341Y-190250000D01*
X224394659Y-190250000D01*
X225671717Y-191527058D01*
X225981643Y-191366926D01*
X226164349Y-190988129D01*
X226243752Y-190681092D01*
X236716261Y-190681092D01*
X236897765Y-191670030D01*
X237267899Y-192604880D01*
X237812563Y-193450033D01*
X238511011Y-194173298D01*
X239336641Y-194747126D01*
X240258004Y-195149660D01*
X241240006Y-195365567D01*
X242245242Y-195386623D01*
X243235423Y-195212028D01*
X244172834Y-194848430D01*
X245021769Y-194309679D01*
X245749892Y-193616297D01*
X246329470Y-192794693D01*
X246738426Y-191876163D01*
X246961183Y-190895693D01*
X246964179Y-190681092D01*
X257016261Y-190681092D01*
X257197765Y-191670030D01*
X257567899Y-192604880D01*
X258112563Y-193450033D01*
X258811011Y-194173298D01*
X259636641Y-194747126D01*
X260558004Y-195149660D01*
X261540006Y-195365567D01*
X262545242Y-195386623D01*
X263535423Y-195212028D01*
X264472834Y-194848430D01*
X265321769Y-194309679D01*
X266049892Y-193616297D01*
X266629470Y-192794693D01*
X267038426Y-191876163D01*
X267261183Y-190895693D01*
X267277219Y-189747272D01*
X267081925Y-188760964D01*
X266698776Y-187831373D01*
X266142364Y-186993907D01*
X265433885Y-186280464D01*
X264600324Y-185718220D01*
X263673431Y-185328590D01*
X262688510Y-185126415D01*
X261683078Y-185119396D01*
X260695431Y-185307800D01*
X259763188Y-185684450D01*
X258921858Y-186235001D01*
X258203487Y-186938482D01*
X257635437Y-187768098D01*
X257239346Y-188692249D01*
X257030299Y-189675734D01*
X257016261Y-190681092D01*
X246964179Y-190681092D01*
X246977219Y-189747272D01*
X246781925Y-188760964D01*
X246398776Y-187831373D01*
X245842364Y-186993907D01*
X245133885Y-186280464D01*
X244300324Y-185718220D01*
X243373431Y-185328590D01*
X242388510Y-185126415D01*
X241383078Y-185119396D01*
X240395431Y-185307800D01*
X239463188Y-185684450D01*
X238621858Y-186235001D01*
X237903487Y-186938482D01*
X237335437Y-187768098D01*
X236939346Y-188692249D01*
X236730299Y-189675734D01*
X236716261Y-190681092D01*
X226243752Y-190681092D01*
X226269646Y-190580966D01*
X226293486Y-190161083D01*
X226234953Y-189744619D01*
X226096297Y-189347575D01*
X225981643Y-189133074D01*
X225671717Y-188972942D01*
X224394659Y-190250000D01*
X223905341Y-190250000D01*
X222628283Y-188972942D01*
X222318357Y-189133074D01*
X222135651Y-189511871D01*
X222030354Y-189919034D01*
X222006514Y-190338917D01*
X205983388Y-190338917D01*
X205993486Y-190161083D01*
X205934953Y-189744619D01*
X205796297Y-189347575D01*
X205681643Y-189133074D01*
X205371717Y-188972942D01*
X204094659Y-190250000D01*
X203605341Y-190250000D01*
X202328283Y-188972942D01*
X202018357Y-189133074D01*
X201835651Y-189511871D01*
X201730354Y-189919034D01*
X201706514Y-190338917D01*
X191268957Y-190338917D01*
X191277219Y-189747272D01*
X191081925Y-188760964D01*
X191068455Y-188728283D01*
X202572942Y-188728283D01*
X203850000Y-190005341D01*
X205127058Y-188728283D01*
X222872942Y-188728283D01*
X224150000Y-190005341D01*
X225427058Y-188728283D01*
X225266926Y-188418357D01*
X224888129Y-188235651D01*
X224480966Y-188130354D01*
X224061083Y-188106514D01*
X223644619Y-188165047D01*
X223247575Y-188303703D01*
X223033074Y-188418357D01*
X222872942Y-188728283D01*
X205127058Y-188728283D01*
X204966926Y-188418357D01*
X204588129Y-188235651D01*
X204180966Y-188130354D01*
X203761083Y-188106514D01*
X203344619Y-188165047D01*
X202947575Y-188303703D01*
X202733074Y-188418357D01*
X202572942Y-188728283D01*
X191068455Y-188728283D01*
X190698776Y-187831373D01*
X190142364Y-186993907D01*
X189433885Y-186280464D01*
X188600324Y-185718220D01*
X187673431Y-185328590D01*
X186688510Y-185126415D01*
X185683078Y-185119396D01*
X184695431Y-185307800D01*
X183763188Y-185684450D01*
X182921858Y-186235001D01*
X182203487Y-186938482D01*
X181635437Y-187768098D01*
X181239346Y-188692249D01*
X181030299Y-189675734D01*
X181016261Y-190681092D01*
X170964179Y-190681092D01*
X170977219Y-189747272D01*
X170781925Y-188760964D01*
X170398776Y-187831373D01*
X169842364Y-186993907D01*
X169133885Y-186280464D01*
X168300324Y-185718220D01*
X167373431Y-185328590D01*
X166388510Y-185126415D01*
X165383078Y-185119396D01*
X164395431Y-185307800D01*
X163463188Y-185684450D01*
X162621858Y-186235001D01*
X161903487Y-186938482D01*
X161335437Y-187768098D01*
X160939346Y-188692249D01*
X160730299Y-189675734D01*
X160716261Y-190681092D01*
X139144549Y-190681092D01*
X139144549Y-187000000D01*
X139098490Y-186422413D01*
X138795111Y-185442765D01*
X138230820Y-184586421D01*
X137450297Y-183921189D01*
X136515347Y-183499742D01*
X135500000Y-183355451D01*
X134831936Y-183355451D01*
X134443980Y-183275815D01*
X133615042Y-183270028D01*
X133167239Y-183355451D01*
X132831936Y-183355451D01*
X132443980Y-183275815D01*
X131615042Y-183270028D01*
X131167239Y-183355451D01*
X130831936Y-183355451D01*
X130443980Y-183275815D01*
X129615042Y-183270028D01*
X129167239Y-183355451D01*
X118831936Y-183355451D01*
X118443980Y-183275815D01*
X117615042Y-183270028D01*
X117167239Y-183355451D01*
X116831936Y-183355451D01*
X116443980Y-183275815D01*
X115615042Y-183270028D01*
X115167239Y-183355451D01*
X114831936Y-183355451D01*
X114443980Y-183275815D01*
X113615042Y-183270028D01*
X113167239Y-183355451D01*
X112831936Y-183355451D01*
X112443980Y-183275815D01*
X111615042Y-183270028D01*
X111167239Y-183355451D01*
X110831936Y-183355451D01*
X110443980Y-183275815D01*
X109615042Y-183270028D01*
X109167239Y-183355451D01*
X108831936Y-183355451D01*
X108443980Y-183275815D01*
X107615042Y-183270028D01*
X107167239Y-183355451D01*
X106831936Y-183355451D01*
X106443980Y-183275815D01*
X105615042Y-183270028D01*
X105167239Y-183355451D01*
X94831936Y-183355451D01*
X94443980Y-183275815D01*
X93615042Y-183270028D01*
X93167239Y-183355451D01*
X92831936Y-183355451D01*
X92443980Y-183275815D01*
X91615042Y-183270028D01*
X91167239Y-183355451D01*
X90831936Y-183355451D01*
X90443980Y-183275815D01*
X89615042Y-183270028D01*
X89167239Y-183355451D01*
X88831936Y-183355451D01*
X88443980Y-183275815D01*
X87615042Y-183270028D01*
X87167239Y-183355451D01*
X86831936Y-183355451D01*
X86443980Y-183275815D01*
X85615042Y-183270028D01*
X85167239Y-183355451D01*
X84831936Y-183355451D01*
X84443980Y-183275815D01*
X83615042Y-183270028D01*
X83167239Y-183355451D01*
X82831936Y-183355451D01*
X82443980Y-183275815D01*
X81615042Y-183270028D01*
X81167239Y-183355451D01*
X70831936Y-183355451D01*
X70443980Y-183275815D01*
X69615042Y-183270028D01*
X69167239Y-183355451D01*
X68831936Y-183355451D01*
X68443980Y-183275815D01*
X67615042Y-183270028D01*
X67167239Y-183355451D01*
X66831936Y-183355451D01*
X66443980Y-183275815D01*
X65615042Y-183270028D01*
X65167239Y-183355451D01*
X64500000Y-183355451D01*
X64202000Y-183379215D01*
X64202000Y-177771717D01*
X164572942Y-177771717D01*
X164733074Y-178081643D01*
X165111871Y-178264349D01*
X165519034Y-178369646D01*
X165938917Y-178393486D01*
X166355381Y-178334953D01*
X166752425Y-178196297D01*
X166966926Y-178081643D01*
X167127058Y-177771717D01*
X184872942Y-177771717D01*
X185033074Y-178081643D01*
X185411871Y-178264349D01*
X185819034Y-178369646D01*
X186238917Y-178393486D01*
X186655381Y-178334953D01*
X187052425Y-178196297D01*
X187266926Y-178081643D01*
X187427058Y-177771717D01*
X186150000Y-176494659D01*
X184872942Y-177771717D01*
X167127058Y-177771717D01*
X165850000Y-176494659D01*
X164572942Y-177771717D01*
X64202000Y-177771717D01*
X64202000Y-176338917D01*
X163706514Y-176338917D01*
X163765047Y-176755381D01*
X163903703Y-177152425D01*
X164018357Y-177366926D01*
X164328283Y-177527058D01*
X165605341Y-176250000D01*
X166094659Y-176250000D01*
X167371717Y-177527058D01*
X167681643Y-177366926D01*
X167864349Y-176988129D01*
X167969646Y-176580966D01*
X167983388Y-176338917D01*
X184006514Y-176338917D01*
X184065047Y-176755381D01*
X184203703Y-177152425D01*
X184318357Y-177366926D01*
X184628283Y-177527058D01*
X185905341Y-176250000D01*
X186394659Y-176250000D01*
X187671717Y-177527058D01*
X187981643Y-177366926D01*
X188164349Y-176988129D01*
X188243752Y-176681092D01*
X198716261Y-176681092D01*
X198897765Y-177670030D01*
X199267899Y-178604880D01*
X199812563Y-179450033D01*
X200511011Y-180173298D01*
X201336641Y-180747126D01*
X202258004Y-181149660D01*
X203240006Y-181365567D01*
X204245242Y-181386623D01*
X205235423Y-181212028D01*
X206172834Y-180848430D01*
X207021769Y-180309679D01*
X207749892Y-179616297D01*
X208329470Y-178794693D01*
X208738426Y-177876163D01*
X208961183Y-176895693D01*
X208964179Y-176681092D01*
X219016261Y-176681092D01*
X219197765Y-177670030D01*
X219567899Y-178604880D01*
X220112563Y-179450033D01*
X220811011Y-180173298D01*
X221636641Y-180747126D01*
X222558004Y-181149660D01*
X223540006Y-181365567D01*
X224545242Y-181386623D01*
X225535423Y-181212028D01*
X226472834Y-180848430D01*
X227321769Y-180309679D01*
X228049892Y-179616297D01*
X228629470Y-178794693D01*
X229038426Y-177876163D01*
X229062155Y-177771717D01*
X240572942Y-177771717D01*
X240733074Y-178081643D01*
X241111871Y-178264349D01*
X241519034Y-178369646D01*
X241938917Y-178393486D01*
X242355381Y-178334953D01*
X242752425Y-178196297D01*
X242966926Y-178081643D01*
X243127058Y-177771717D01*
X260872942Y-177771717D01*
X261033074Y-178081643D01*
X261411871Y-178264349D01*
X261819034Y-178369646D01*
X262238917Y-178393486D01*
X262655381Y-178334953D01*
X263052425Y-178196297D01*
X263266926Y-178081643D01*
X263427058Y-177771717D01*
X262150000Y-176494659D01*
X260872942Y-177771717D01*
X243127058Y-177771717D01*
X241850000Y-176494659D01*
X240572942Y-177771717D01*
X229062155Y-177771717D01*
X229261183Y-176895693D01*
X229268957Y-176338917D01*
X239706514Y-176338917D01*
X239765047Y-176755381D01*
X239903703Y-177152425D01*
X240018357Y-177366926D01*
X240328283Y-177527058D01*
X241605341Y-176250000D01*
X242094659Y-176250000D01*
X243371717Y-177527058D01*
X243681643Y-177366926D01*
X243864349Y-176988129D01*
X243969646Y-176580966D01*
X243983388Y-176338917D01*
X260006514Y-176338917D01*
X260065047Y-176755381D01*
X260203703Y-177152425D01*
X260318357Y-177366926D01*
X260628283Y-177527058D01*
X261905341Y-176250000D01*
X262394659Y-176250000D01*
X263671717Y-177527058D01*
X263981643Y-177366926D01*
X264164349Y-176988129D01*
X264269646Y-176580966D01*
X264293486Y-176161083D01*
X264234953Y-175744619D01*
X264096297Y-175347575D01*
X263981643Y-175133074D01*
X263671717Y-174972942D01*
X262394659Y-176250000D01*
X261905341Y-176250000D01*
X260628283Y-174972942D01*
X260318357Y-175133074D01*
X260135651Y-175511871D01*
X260030354Y-175919034D01*
X260006514Y-176338917D01*
X243983388Y-176338917D01*
X243993486Y-176161083D01*
X243934953Y-175744619D01*
X243796297Y-175347575D01*
X243681643Y-175133074D01*
X243371717Y-174972942D01*
X242094659Y-176250000D01*
X241605341Y-176250000D01*
X240328283Y-174972942D01*
X240018357Y-175133074D01*
X239835651Y-175511871D01*
X239730354Y-175919034D01*
X239706514Y-176338917D01*
X229268957Y-176338917D01*
X229277219Y-175747272D01*
X229081925Y-174760964D01*
X229068455Y-174728283D01*
X240572942Y-174728283D01*
X241850000Y-176005341D01*
X243127058Y-174728283D01*
X260872942Y-174728283D01*
X262150000Y-176005341D01*
X263427058Y-174728283D01*
X263266926Y-174418357D01*
X262888129Y-174235651D01*
X262480966Y-174130354D01*
X262061083Y-174106514D01*
X261644619Y-174165047D01*
X261247575Y-174303703D01*
X261033074Y-174418357D01*
X260872942Y-174728283D01*
X243127058Y-174728283D01*
X242966926Y-174418357D01*
X242588129Y-174235651D01*
X242180966Y-174130354D01*
X241761083Y-174106514D01*
X241344619Y-174165047D01*
X240947575Y-174303703D01*
X240733074Y-174418357D01*
X240572942Y-174728283D01*
X229068455Y-174728283D01*
X228698776Y-173831373D01*
X228142364Y-172993907D01*
X227433885Y-172280464D01*
X226600324Y-171718220D01*
X225673431Y-171328590D01*
X224688510Y-171126415D01*
X223683078Y-171119396D01*
X222695431Y-171307800D01*
X221763188Y-171684450D01*
X220921858Y-172235001D01*
X220203487Y-172938482D01*
X219635437Y-173768098D01*
X219239346Y-174692249D01*
X219030299Y-175675734D01*
X219016261Y-176681092D01*
X208964179Y-176681092D01*
X208977219Y-175747272D01*
X208781925Y-174760964D01*
X208398776Y-173831373D01*
X207842364Y-172993907D01*
X207133885Y-172280464D01*
X206300324Y-171718220D01*
X205373431Y-171328590D01*
X204388510Y-171126415D01*
X203383078Y-171119396D01*
X202395431Y-171307800D01*
X201463188Y-171684450D01*
X200621858Y-172235001D01*
X199903487Y-172938482D01*
X199335437Y-173768098D01*
X198939346Y-174692249D01*
X198730299Y-175675734D01*
X198716261Y-176681092D01*
X188243752Y-176681092D01*
X188269646Y-176580966D01*
X188293486Y-176161083D01*
X188234953Y-175744619D01*
X188096297Y-175347575D01*
X187981643Y-175133074D01*
X187671717Y-174972942D01*
X186394659Y-176250000D01*
X185905341Y-176250000D01*
X184628283Y-174972942D01*
X184318357Y-175133074D01*
X184135651Y-175511871D01*
X184030354Y-175919034D01*
X184006514Y-176338917D01*
X167983388Y-176338917D01*
X167993486Y-176161083D01*
X167934953Y-175744619D01*
X167796297Y-175347575D01*
X167681643Y-175133074D01*
X167371717Y-174972942D01*
X166094659Y-176250000D01*
X165605341Y-176250000D01*
X164328283Y-174972942D01*
X164018357Y-175133074D01*
X163835651Y-175511871D01*
X163730354Y-175919034D01*
X163706514Y-176338917D01*
X64202000Y-176338917D01*
X64202000Y-174728283D01*
X164572942Y-174728283D01*
X165850000Y-176005341D01*
X167127058Y-174728283D01*
X184872942Y-174728283D01*
X186150000Y-176005341D01*
X187427058Y-174728283D01*
X187266926Y-174418357D01*
X186888129Y-174235651D01*
X186480966Y-174130354D01*
X186061083Y-174106514D01*
X185644619Y-174165047D01*
X185247575Y-174303703D01*
X185033074Y-174418357D01*
X184872942Y-174728283D01*
X167127058Y-174728283D01*
X166966926Y-174418357D01*
X166588129Y-174235651D01*
X166180966Y-174130354D01*
X165761083Y-174106514D01*
X165344619Y-174165047D01*
X164947575Y-174303703D01*
X164733074Y-174418357D01*
X164572942Y-174728283D01*
X64202000Y-174728283D01*
X64202000Y-134902200D01*
X64500000Y-134944549D01*
X135500000Y-134944549D01*
X136077587Y-134898490D01*
X137057235Y-134595111D01*
X137913579Y-134030820D01*
X138578811Y-133250297D01*
X139000258Y-132315347D01*
X139144549Y-131300000D01*
X139144549Y-124181092D01*
X160716261Y-124181092D01*
X160897765Y-125170030D01*
X161267899Y-126104880D01*
X161812563Y-126950033D01*
X162511011Y-127673298D01*
X163336641Y-128247126D01*
X164258004Y-128649660D01*
X165240006Y-128865567D01*
X166245242Y-128886623D01*
X167235423Y-128712028D01*
X168172834Y-128348430D01*
X169021769Y-127809679D01*
X169749892Y-127116297D01*
X170329470Y-126294693D01*
X170738426Y-125376163D01*
X170961183Y-124395693D01*
X170964179Y-124181092D01*
X181016261Y-124181092D01*
X181197765Y-125170030D01*
X181567899Y-126104880D01*
X182112563Y-126950033D01*
X182811011Y-127673298D01*
X183636641Y-128247126D01*
X184558004Y-128649660D01*
X185540006Y-128865567D01*
X186545242Y-128886623D01*
X187535423Y-128712028D01*
X188472834Y-128348430D01*
X189321769Y-127809679D01*
X190049892Y-127116297D01*
X190629470Y-126294693D01*
X191038426Y-125376163D01*
X191062155Y-125271717D01*
X202572942Y-125271717D01*
X202733074Y-125581643D01*
X203111871Y-125764349D01*
X203519034Y-125869646D01*
X203938917Y-125893486D01*
X204355381Y-125834953D01*
X204752425Y-125696297D01*
X204966926Y-125581643D01*
X205127058Y-125271717D01*
X222872942Y-125271717D01*
X223033074Y-125581643D01*
X223411871Y-125764349D01*
X223819034Y-125869646D01*
X224238917Y-125893486D01*
X224655381Y-125834953D01*
X225052425Y-125696297D01*
X225266926Y-125581643D01*
X225427058Y-125271717D01*
X224150000Y-123994659D01*
X222872942Y-125271717D01*
X205127058Y-125271717D01*
X203850000Y-123994659D01*
X202572942Y-125271717D01*
X191062155Y-125271717D01*
X191261183Y-124395693D01*
X191268957Y-123838917D01*
X201706514Y-123838917D01*
X201765047Y-124255381D01*
X201903703Y-124652425D01*
X202018357Y-124866926D01*
X202328283Y-125027058D01*
X203605341Y-123750000D01*
X204094659Y-123750000D01*
X205371717Y-125027058D01*
X205681643Y-124866926D01*
X205864349Y-124488129D01*
X205969646Y-124080966D01*
X205983388Y-123838917D01*
X222006514Y-123838917D01*
X222065047Y-124255381D01*
X222203703Y-124652425D01*
X222318357Y-124866926D01*
X222628283Y-125027058D01*
X223905341Y-123750000D01*
X224394659Y-123750000D01*
X225671717Y-125027058D01*
X225981643Y-124866926D01*
X226164349Y-124488129D01*
X226243752Y-124181092D01*
X236716261Y-124181092D01*
X236897765Y-125170030D01*
X237267899Y-126104880D01*
X237812563Y-126950033D01*
X238511011Y-127673298D01*
X239336641Y-128247126D01*
X240258004Y-128649660D01*
X241240006Y-128865567D01*
X242245242Y-128886623D01*
X243235423Y-128712028D01*
X244172834Y-128348430D01*
X245021769Y-127809679D01*
X245749892Y-127116297D01*
X246329470Y-126294693D01*
X246738426Y-125376163D01*
X246961183Y-124395693D01*
X246964179Y-124181092D01*
X257016261Y-124181092D01*
X257197765Y-125170030D01*
X257567899Y-126104880D01*
X258112563Y-126950033D01*
X258811011Y-127673298D01*
X259636641Y-128247126D01*
X260558004Y-128649660D01*
X261540006Y-128865567D01*
X262545242Y-128886623D01*
X263535423Y-128712028D01*
X264472834Y-128348430D01*
X265321769Y-127809679D01*
X266049892Y-127116297D01*
X266629470Y-126294693D01*
X267038426Y-125376163D01*
X267261183Y-124395693D01*
X267277219Y-123247272D01*
X267081925Y-122260964D01*
X266698776Y-121331373D01*
X266142364Y-120493907D01*
X265433885Y-119780464D01*
X264600324Y-119218220D01*
X263673431Y-118828590D01*
X262688510Y-118626415D01*
X261683078Y-118619396D01*
X260695431Y-118807800D01*
X259763188Y-119184450D01*
X258921858Y-119735001D01*
X258203487Y-120438482D01*
X257635437Y-121268098D01*
X257239346Y-122192249D01*
X257030299Y-123175734D01*
X257016261Y-124181092D01*
X246964179Y-124181092D01*
X246977219Y-123247272D01*
X246781925Y-122260964D01*
X246398776Y-121331373D01*
X245842364Y-120493907D01*
X245133885Y-119780464D01*
X244300324Y-119218220D01*
X243373431Y-118828590D01*
X242388510Y-118626415D01*
X241383078Y-118619396D01*
X240395431Y-118807800D01*
X239463188Y-119184450D01*
X238621858Y-119735001D01*
X237903487Y-120438482D01*
X237335437Y-121268098D01*
X236939346Y-122192249D01*
X236730299Y-123175734D01*
X236716261Y-124181092D01*
X226243752Y-124181092D01*
X226269646Y-124080966D01*
X226293486Y-123661083D01*
X226234953Y-123244619D01*
X226096297Y-122847575D01*
X225981643Y-122633074D01*
X225671717Y-122472942D01*
X224394659Y-123750000D01*
X223905341Y-123750000D01*
X222628283Y-122472942D01*
X222318357Y-122633074D01*
X222135651Y-123011871D01*
X222030354Y-123419034D01*
X222006514Y-123838917D01*
X205983388Y-123838917D01*
X205993486Y-123661083D01*
X205934953Y-123244619D01*
X205796297Y-122847575D01*
X205681643Y-122633074D01*
X205371717Y-122472942D01*
X204094659Y-123750000D01*
X203605341Y-123750000D01*
X202328283Y-122472942D01*
X202018357Y-122633074D01*
X201835651Y-123011871D01*
X201730354Y-123419034D01*
X201706514Y-123838917D01*
X191268957Y-123838917D01*
X191277219Y-123247272D01*
X191081925Y-122260964D01*
X191068455Y-122228283D01*
X202572942Y-122228283D01*
X203850000Y-123505341D01*
X205127058Y-122228283D01*
X222872942Y-122228283D01*
X224150000Y-123505341D01*
X225427058Y-122228283D01*
X225266926Y-121918357D01*
X224888129Y-121735651D01*
X224480966Y-121630354D01*
X224061083Y-121606514D01*
X223644619Y-121665047D01*
X223247575Y-121803703D01*
X223033074Y-121918357D01*
X222872942Y-122228283D01*
X205127058Y-122228283D01*
X204966926Y-121918357D01*
X204588129Y-121735651D01*
X204180966Y-121630354D01*
X203761083Y-121606514D01*
X203344619Y-121665047D01*
X202947575Y-121803703D01*
X202733074Y-121918357D01*
X202572942Y-122228283D01*
X191068455Y-122228283D01*
X190698776Y-121331373D01*
X190142364Y-120493907D01*
X189433885Y-119780464D01*
X188600324Y-119218220D01*
X187673431Y-118828590D01*
X186688510Y-118626415D01*
X185683078Y-118619396D01*
X184695431Y-118807800D01*
X183763188Y-119184450D01*
X182921858Y-119735001D01*
X182203487Y-120438482D01*
X181635437Y-121268098D01*
X181239346Y-122192249D01*
X181030299Y-123175734D01*
X181016261Y-124181092D01*
X170964179Y-124181092D01*
X170977219Y-123247272D01*
X170781925Y-122260964D01*
X170398776Y-121331373D01*
X169842364Y-120493907D01*
X169133885Y-119780464D01*
X168300324Y-119218220D01*
X167373431Y-118828590D01*
X166388510Y-118626415D01*
X165383078Y-118619396D01*
X164395431Y-118807800D01*
X163463188Y-119184450D01*
X162621858Y-119735001D01*
X161903487Y-120438482D01*
X161335437Y-121268098D01*
X160939346Y-122192249D01*
X160730299Y-123175734D01*
X160716261Y-124181092D01*
X139144549Y-124181092D01*
X139144549Y-120500000D01*
X139098490Y-119922413D01*
X138795111Y-118942765D01*
X138230820Y-118086421D01*
X137450297Y-117421189D01*
X136515347Y-116999742D01*
X135500000Y-116855451D01*
X134831936Y-116855451D01*
X134443980Y-116775815D01*
X133615042Y-116770028D01*
X133167239Y-116855451D01*
X132831936Y-116855451D01*
X132443980Y-116775815D01*
X131615042Y-116770028D01*
X131167239Y-116855451D01*
X130831936Y-116855451D01*
X130443980Y-116775815D01*
X129615042Y-116770028D01*
X129167239Y-116855451D01*
X118831936Y-116855451D01*
X118443980Y-116775815D01*
X117615042Y-116770028D01*
X117167239Y-116855451D01*
X116831936Y-116855451D01*
X116443980Y-116775815D01*
X115615042Y-116770028D01*
X115167239Y-116855451D01*
X114831936Y-116855451D01*
X114443980Y-116775815D01*
X113615042Y-116770028D01*
X113167239Y-116855451D01*
X112831936Y-116855451D01*
X112443980Y-116775815D01*
X111615042Y-116770028D01*
X111167239Y-116855451D01*
X110831936Y-116855451D01*
X110443980Y-116775815D01*
X109615042Y-116770028D01*
X109167239Y-116855451D01*
X108831936Y-116855451D01*
X108443980Y-116775815D01*
X107615042Y-116770028D01*
X107167239Y-116855451D01*
X106831936Y-116855451D01*
X106443980Y-116775815D01*
X105615042Y-116770028D01*
X105167239Y-116855451D01*
X94831936Y-116855451D01*
X94443980Y-116775815D01*
X93615042Y-116770028D01*
X93167239Y-116855451D01*
X92831936Y-116855451D01*
X92443980Y-116775815D01*
X91615042Y-116770028D01*
X91167239Y-116855451D01*
X90831936Y-116855451D01*
X90443980Y-116775815D01*
X89615042Y-116770028D01*
X89167239Y-116855451D01*
X88831936Y-116855451D01*
X88443980Y-116775815D01*
X87615042Y-116770028D01*
X87167239Y-116855451D01*
X86831936Y-116855451D01*
X86443980Y-116775815D01*
X85615042Y-116770028D01*
X85167239Y-116855451D01*
X84831936Y-116855451D01*
X84443980Y-116775815D01*
X83615042Y-116770028D01*
X83167239Y-116855451D01*
X82831936Y-116855451D01*
X82443980Y-116775815D01*
X81615042Y-116770028D01*
X81167239Y-116855451D01*
X70831936Y-116855451D01*
X70443980Y-116775815D01*
X69615042Y-116770028D01*
X69167239Y-116855451D01*
X68831936Y-116855451D01*
X68443980Y-116775815D01*
X67615042Y-116770028D01*
X67167239Y-116855451D01*
X66831936Y-116855451D01*
X66443980Y-116775815D01*
X65615042Y-116770028D01*
X65167239Y-116855451D01*
X64500000Y-116855451D01*
X64202000Y-116879215D01*
X64202000Y-111271717D01*
X164572942Y-111271717D01*
X164733074Y-111581643D01*
X165111871Y-111764349D01*
X165519034Y-111869646D01*
X165938917Y-111893486D01*
X166355381Y-111834953D01*
X166752425Y-111696297D01*
X166966926Y-111581643D01*
X167127058Y-111271717D01*
X184872942Y-111271717D01*
X185033074Y-111581643D01*
X185411871Y-111764349D01*
X185819034Y-111869646D01*
X186238917Y-111893486D01*
X186655381Y-111834953D01*
X187052425Y-111696297D01*
X187266926Y-111581643D01*
X187427058Y-111271717D01*
X186150000Y-109994659D01*
X184872942Y-111271717D01*
X167127058Y-111271717D01*
X165850000Y-109994659D01*
X164572942Y-111271717D01*
X64202000Y-111271717D01*
X64202000Y-109838917D01*
X163706514Y-109838917D01*
X163765047Y-110255381D01*
X163903703Y-110652425D01*
X164018357Y-110866926D01*
X164328283Y-111027058D01*
X165605341Y-109750000D01*
X166094659Y-109750000D01*
X167371717Y-111027058D01*
X167681643Y-110866926D01*
X167864349Y-110488129D01*
X167969646Y-110080966D01*
X167983388Y-109838917D01*
X184006514Y-109838917D01*
X184065047Y-110255381D01*
X184203703Y-110652425D01*
X184318357Y-110866926D01*
X184628283Y-111027058D01*
X185905341Y-109750000D01*
X186394659Y-109750000D01*
X187671717Y-111027058D01*
X187981643Y-110866926D01*
X188164349Y-110488129D01*
X188243752Y-110181092D01*
X198716261Y-110181092D01*
X198897765Y-111170030D01*
X199267899Y-112104880D01*
X199812563Y-112950033D01*
X200511011Y-113673298D01*
X201336641Y-114247126D01*
X202258004Y-114649660D01*
X203240006Y-114865567D01*
X204245242Y-114886623D01*
X205235423Y-114712028D01*
X206172834Y-114348430D01*
X207021769Y-113809679D01*
X207749892Y-113116297D01*
X208329470Y-112294693D01*
X208738426Y-111376163D01*
X208961183Y-110395693D01*
X208964179Y-110181092D01*
X219016261Y-110181092D01*
X219197765Y-111170030D01*
X219567899Y-112104880D01*
X220112563Y-112950033D01*
X220811011Y-113673298D01*
X221636641Y-114247126D01*
X222558004Y-114649660D01*
X223540006Y-114865567D01*
X224545242Y-114886623D01*
X225535423Y-114712028D01*
X226472834Y-114348430D01*
X227321769Y-113809679D01*
X228049892Y-113116297D01*
X228629470Y-112294693D01*
X229038426Y-111376163D01*
X229062155Y-111271717D01*
X240572942Y-111271717D01*
X240733074Y-111581643D01*
X241111871Y-111764349D01*
X241519034Y-111869646D01*
X241938917Y-111893486D01*
X242355381Y-111834953D01*
X242752425Y-111696297D01*
X242966926Y-111581643D01*
X243127058Y-111271717D01*
X260872942Y-111271717D01*
X261033074Y-111581643D01*
X261411871Y-111764349D01*
X261819034Y-111869646D01*
X262238917Y-111893486D01*
X262655381Y-111834953D01*
X263052425Y-111696297D01*
X263266926Y-111581643D01*
X263427058Y-111271717D01*
X262150000Y-109994659D01*
X260872942Y-111271717D01*
X243127058Y-111271717D01*
X241850000Y-109994659D01*
X240572942Y-111271717D01*
X229062155Y-111271717D01*
X229261183Y-110395693D01*
X229268957Y-109838917D01*
X239706514Y-109838917D01*
X239765047Y-110255381D01*
X239903703Y-110652425D01*
X240018357Y-110866926D01*
X240328283Y-111027058D01*
X241605341Y-109750000D01*
X242094659Y-109750000D01*
X243371717Y-111027058D01*
X243681643Y-110866926D01*
X243864349Y-110488129D01*
X243969646Y-110080966D01*
X243983388Y-109838917D01*
X260006514Y-109838917D01*
X260065047Y-110255381D01*
X260203703Y-110652425D01*
X260318357Y-110866926D01*
X260628283Y-111027058D01*
X261905341Y-109750000D01*
X262394659Y-109750000D01*
X263671717Y-111027058D01*
X263981643Y-110866926D01*
X264164349Y-110488129D01*
X264269646Y-110080966D01*
X264293486Y-109661083D01*
X264234953Y-109244619D01*
X264096297Y-108847575D01*
X263981643Y-108633074D01*
X263671717Y-108472942D01*
X262394659Y-109750000D01*
X261905341Y-109750000D01*
X260628283Y-108472942D01*
X260318357Y-108633074D01*
X260135651Y-109011871D01*
X260030354Y-109419034D01*
X260006514Y-109838917D01*
X243983388Y-109838917D01*
X243993486Y-109661083D01*
X243934953Y-109244619D01*
X243796297Y-108847575D01*
X243681643Y-108633074D01*
X243371717Y-108472942D01*
X242094659Y-109750000D01*
X241605341Y-109750000D01*
X240328283Y-108472942D01*
X240018357Y-108633074D01*
X239835651Y-109011871D01*
X239730354Y-109419034D01*
X239706514Y-109838917D01*
X229268957Y-109838917D01*
X229277219Y-109247272D01*
X229081925Y-108260964D01*
X229068455Y-108228283D01*
X240572942Y-108228283D01*
X241850000Y-109505341D01*
X243127058Y-108228283D01*
X260872942Y-108228283D01*
X262150000Y-109505341D01*
X263427058Y-108228283D01*
X263266926Y-107918357D01*
X262888129Y-107735651D01*
X262480966Y-107630354D01*
X262061083Y-107606514D01*
X261644619Y-107665047D01*
X261247575Y-107803703D01*
X261033074Y-107918357D01*
X260872942Y-108228283D01*
X243127058Y-108228283D01*
X242966926Y-107918357D01*
X242588129Y-107735651D01*
X242180966Y-107630354D01*
X241761083Y-107606514D01*
X241344619Y-107665047D01*
X240947575Y-107803703D01*
X240733074Y-107918357D01*
X240572942Y-108228283D01*
X229068455Y-108228283D01*
X228698776Y-107331373D01*
X228142364Y-106493907D01*
X227433885Y-105780464D01*
X226600324Y-105218220D01*
X225673431Y-104828590D01*
X224688510Y-104626415D01*
X223683078Y-104619396D01*
X222695431Y-104807800D01*
X221763188Y-105184450D01*
X220921858Y-105735001D01*
X220203487Y-106438482D01*
X219635437Y-107268098D01*
X219239346Y-108192249D01*
X219030299Y-109175734D01*
X219016261Y-110181092D01*
X208964179Y-110181092D01*
X208977219Y-109247272D01*
X208781925Y-108260964D01*
X208398776Y-107331373D01*
X207842364Y-106493907D01*
X207133885Y-105780464D01*
X206300324Y-105218220D01*
X205373431Y-104828590D01*
X204388510Y-104626415D01*
X203383078Y-104619396D01*
X202395431Y-104807800D01*
X201463188Y-105184450D01*
X200621858Y-105735001D01*
X199903487Y-106438482D01*
X199335437Y-107268098D01*
X198939346Y-108192249D01*
X198730299Y-109175734D01*
X198716261Y-110181092D01*
X188243752Y-110181092D01*
X188269646Y-110080966D01*
X188293486Y-109661083D01*
X188234953Y-109244619D01*
X188096297Y-108847575D01*
X187981643Y-108633074D01*
X187671717Y-108472942D01*
X186394659Y-109750000D01*
X185905341Y-109750000D01*
X184628283Y-108472942D01*
X184318357Y-108633074D01*
X184135651Y-109011871D01*
X184030354Y-109419034D01*
X184006514Y-109838917D01*
X167983388Y-109838917D01*
X167993486Y-109661083D01*
X167934953Y-109244619D01*
X167796297Y-108847575D01*
X167681643Y-108633074D01*
X167371717Y-108472942D01*
X166094659Y-109750000D01*
X165605341Y-109750000D01*
X164328283Y-108472942D01*
X164018357Y-108633074D01*
X163835651Y-109011871D01*
X163730354Y-109419034D01*
X163706514Y-109838917D01*
X64202000Y-109838917D01*
X64202000Y-108228283D01*
X164572942Y-108228283D01*
X165850000Y-109505341D01*
X167127058Y-108228283D01*
X184872942Y-108228283D01*
X186150000Y-109505341D01*
X187427058Y-108228283D01*
X187266926Y-107918357D01*
X186888129Y-107735651D01*
X186480966Y-107630354D01*
X186061083Y-107606514D01*
X185644619Y-107665047D01*
X185247575Y-107803703D01*
X185033074Y-107918357D01*
X184872942Y-108228283D01*
X167127058Y-108228283D01*
X166966926Y-107918357D01*
X166588129Y-107735651D01*
X166180966Y-107630354D01*
X165761083Y-107606514D01*
X165344619Y-107665047D01*
X164947575Y-107803703D01*
X164733074Y-107918357D01*
X164572942Y-108228283D01*
X64202000Y-108228283D01*
X64202000Y-68452200D01*
X64500000Y-68494549D01*
X135500000Y-68494549D01*
X136077587Y-68448490D01*
X137057235Y-68145111D01*
X137913579Y-67580820D01*
X138578811Y-66800297D01*
X139000258Y-65865347D01*
X139144549Y-64850000D01*
X139144549Y-54050000D01*
X139116798Y-53702000D01*
X162144974Y-53702000D01*
X161903487Y-53938482D01*
M02*
