G04 #@! TF.FileFunction,Paste,Top*
%FSLAX46Y46*%
G04 Gerber Fmt 4.6, Leading zero omitted, Abs format (unit mm)*
G04 Created by KiCad (PCBNEW 4.0.1-stable) date 11/01/2018 20:27:04*
%MOMM*%
G01*
G04 APERTURE LIST*
%ADD10C,0.100000*%
%ADD11R,1.000000X3.000000*%
G04 APERTURE END LIST*
D10*
D11*
X73700000Y-89500000D03*
X78300000Y-89500000D03*
X118300000Y-89500000D03*
X113700000Y-89500000D03*
X73700000Y-69500000D03*
X78300000Y-69500000D03*
X86300000Y-69500000D03*
X81700000Y-69500000D03*
X89700000Y-69500000D03*
X94300000Y-69500000D03*
X102300000Y-69500000D03*
X97700000Y-69500000D03*
X105700000Y-69500000D03*
X110300000Y-69500000D03*
X118300000Y-69500000D03*
X113700000Y-69500000D03*
X121700000Y-69500000D03*
X126300000Y-69500000D03*
X134300000Y-69500000D03*
X129700000Y-69500000D03*
X86300000Y-73500000D03*
X81700000Y-73500000D03*
X89700000Y-73500000D03*
X94300000Y-73500000D03*
X102300000Y-73500000D03*
X97700000Y-73500000D03*
X105700000Y-73500000D03*
X110300000Y-73500000D03*
X118300000Y-73500000D03*
X113700000Y-73500000D03*
X121700000Y-73500000D03*
X126300000Y-73500000D03*
X134300000Y-73500000D03*
X129700000Y-73500000D03*
X73700000Y-77500000D03*
X78300000Y-77500000D03*
X86300000Y-77500000D03*
X81700000Y-77500000D03*
X89700000Y-77500000D03*
X94300000Y-77500000D03*
X102300000Y-77500000D03*
X97700000Y-77500000D03*
X105700000Y-77500000D03*
X110300000Y-77500000D03*
X118300000Y-77500000D03*
X113700000Y-77500000D03*
X121700000Y-77500000D03*
X126300000Y-77500000D03*
X134300000Y-77500000D03*
X129700000Y-77500000D03*
X73700000Y-81500000D03*
X78300000Y-81500000D03*
X86300000Y-81500000D03*
X81700000Y-81500000D03*
X89700000Y-81500000D03*
X94300000Y-81500000D03*
X102300000Y-81500000D03*
X97700000Y-81500000D03*
X105700000Y-81500000D03*
X110300000Y-81500000D03*
X118300000Y-81500000D03*
X113700000Y-81500000D03*
X121700000Y-81500000D03*
X126300000Y-81500000D03*
X134300000Y-81500000D03*
X129700000Y-81500000D03*
X73700000Y-85500000D03*
X78300000Y-85500000D03*
X86300000Y-85500000D03*
X81700000Y-85500000D03*
X89700000Y-85500000D03*
X94300000Y-85500000D03*
X102300000Y-85500000D03*
X97700000Y-85500000D03*
X105700000Y-85500000D03*
X110300000Y-85500000D03*
X118300000Y-85500000D03*
X113700000Y-85500000D03*
X121700000Y-85500000D03*
X126300000Y-85500000D03*
X86300000Y-89500000D03*
X81700000Y-89500000D03*
X105700000Y-89500000D03*
X110300000Y-89500000D03*
X134300000Y-89500000D03*
X129700000Y-89500000D03*
X73700000Y-93500000D03*
X78300000Y-93500000D03*
X86300000Y-93500000D03*
X81700000Y-93500000D03*
X89700000Y-93500000D03*
X94300000Y-93500000D03*
X102300000Y-93500000D03*
X97700000Y-93500000D03*
X105700000Y-93500000D03*
X110300000Y-93500000D03*
X118300000Y-93500000D03*
X113700000Y-93500000D03*
X121700000Y-93500000D03*
X126300000Y-93500000D03*
X134300000Y-93500000D03*
X129700000Y-93500000D03*
X73700000Y-97500000D03*
X78300000Y-97500000D03*
X86300000Y-97500000D03*
X81700000Y-97500000D03*
X89700000Y-97500000D03*
X94300000Y-97500000D03*
X102300000Y-97500000D03*
X97700000Y-97500000D03*
X105700000Y-97500000D03*
X110300000Y-97500000D03*
X118300000Y-97500000D03*
X113700000Y-97500000D03*
X121700000Y-97500000D03*
X126300000Y-97500000D03*
X134300000Y-97500000D03*
X129700000Y-97500000D03*
X73700000Y-136000000D03*
X78300000Y-136000000D03*
X86300000Y-136000000D03*
X81700000Y-136000000D03*
X89700000Y-136000000D03*
X94300000Y-136000000D03*
X102300000Y-136000000D03*
X97700000Y-136000000D03*
X73700000Y-73500000D03*
X78300000Y-73500000D03*
X134300000Y-85500000D03*
X129700000Y-85500000D03*
X89700000Y-89500000D03*
X94300000Y-89500000D03*
X102300000Y-89500000D03*
X97700000Y-89500000D03*
X121700000Y-89500000D03*
X126300000Y-89500000D03*
X105700000Y-136000000D03*
X110300000Y-136000000D03*
X118300000Y-136000000D03*
X113700000Y-136000000D03*
X121700000Y-136000000D03*
X126300000Y-136000000D03*
X134300000Y-136000000D03*
X129700000Y-136000000D03*
X73700000Y-140000000D03*
X78300000Y-140000000D03*
X86300000Y-140000000D03*
X81700000Y-140000000D03*
X89700000Y-140000000D03*
X94300000Y-140000000D03*
X102300000Y-140000000D03*
X97700000Y-140000000D03*
X105700000Y-140000000D03*
X110300000Y-140000000D03*
X118300000Y-140000000D03*
X113700000Y-140000000D03*
X121700000Y-140000000D03*
X126300000Y-140000000D03*
X134300000Y-140000000D03*
X129700000Y-140000000D03*
X73700000Y-144000000D03*
X78300000Y-144000000D03*
X86300000Y-144000000D03*
X81700000Y-144000000D03*
X89700000Y-144000000D03*
X94300000Y-144000000D03*
X102300000Y-144000000D03*
X97700000Y-144000000D03*
X105700000Y-144000000D03*
X110300000Y-144000000D03*
X118300000Y-144000000D03*
X113700000Y-144000000D03*
X121700000Y-144000000D03*
X126300000Y-144000000D03*
X134300000Y-144000000D03*
X129700000Y-144000000D03*
X73700000Y-148000000D03*
X78300000Y-148000000D03*
X86300000Y-148000000D03*
X81700000Y-148000000D03*
X89700000Y-148000000D03*
X94300000Y-148000000D03*
X102300000Y-148000000D03*
X97700000Y-148000000D03*
X105700000Y-148000000D03*
X110300000Y-148000000D03*
X118300000Y-148000000D03*
X113700000Y-148000000D03*
X121700000Y-148000000D03*
X126300000Y-148000000D03*
X134300000Y-148000000D03*
X129700000Y-148000000D03*
X73700000Y-152000000D03*
X78300000Y-152000000D03*
X86300000Y-152000000D03*
X81700000Y-152000000D03*
X89700000Y-152000000D03*
X94300000Y-152000000D03*
X102300000Y-152000000D03*
X97700000Y-152000000D03*
X105700000Y-152000000D03*
X110300000Y-152000000D03*
X118300000Y-152000000D03*
X113700000Y-152000000D03*
X121700000Y-152000000D03*
X126300000Y-152000000D03*
X134300000Y-152000000D03*
X129700000Y-152000000D03*
X73700000Y-156000000D03*
X78300000Y-156000000D03*
X86300000Y-156000000D03*
X81700000Y-156000000D03*
X89700000Y-156000000D03*
X94300000Y-156000000D03*
X102300000Y-156000000D03*
X97700000Y-156000000D03*
X105700000Y-156000000D03*
X110300000Y-156000000D03*
X118300000Y-156000000D03*
X113700000Y-156000000D03*
X121700000Y-156000000D03*
X126300000Y-156000000D03*
X134300000Y-156000000D03*
X129700000Y-156000000D03*
X73700000Y-160000000D03*
X78300000Y-160000000D03*
X86300000Y-160000000D03*
X81700000Y-160000000D03*
X89700000Y-160000000D03*
X94300000Y-160000000D03*
X102300000Y-160000000D03*
X97700000Y-160000000D03*
X105700000Y-160000000D03*
X110300000Y-160000000D03*
X118300000Y-160000000D03*
X113700000Y-160000000D03*
X121700000Y-160000000D03*
X126300000Y-160000000D03*
X134300000Y-160000000D03*
X129700000Y-160000000D03*
X73700000Y-164000000D03*
X78300000Y-164000000D03*
X86300000Y-164000000D03*
X81700000Y-164000000D03*
X89700000Y-164000000D03*
X94300000Y-164000000D03*
X102300000Y-164000000D03*
X97700000Y-164000000D03*
X105700000Y-164000000D03*
X110300000Y-164000000D03*
X118300000Y-164000000D03*
X113700000Y-164000000D03*
X121700000Y-164000000D03*
X126300000Y-164000000D03*
X134300000Y-164000000D03*
X129700000Y-164000000D03*
X73700000Y-202500000D03*
X78300000Y-202500000D03*
X86300000Y-202500000D03*
X81700000Y-202500000D03*
X89700000Y-202500000D03*
X94300000Y-202500000D03*
X102300000Y-202500000D03*
X97700000Y-202500000D03*
X105700000Y-202500000D03*
X110300000Y-202500000D03*
X118300000Y-202500000D03*
X113700000Y-202500000D03*
X121700000Y-202500000D03*
X126300000Y-202500000D03*
X134300000Y-202500000D03*
X129700000Y-202500000D03*
X73700000Y-206500000D03*
X78300000Y-206500000D03*
X86300000Y-206500000D03*
X81700000Y-206500000D03*
X89700000Y-206500000D03*
X94300000Y-206500000D03*
X102300000Y-206500000D03*
X97700000Y-206500000D03*
X105700000Y-206500000D03*
X110300000Y-206500000D03*
X118300000Y-206500000D03*
X113700000Y-206500000D03*
X121700000Y-206500000D03*
X126300000Y-206500000D03*
X134300000Y-206500000D03*
X129700000Y-206500000D03*
X73700000Y-210500000D03*
X78300000Y-210500000D03*
X86300000Y-210500000D03*
X81700000Y-210500000D03*
X89700000Y-210500000D03*
X94300000Y-210500000D03*
X102300000Y-210500000D03*
X97700000Y-210500000D03*
X105700000Y-210500000D03*
X110300000Y-210500000D03*
X118300000Y-210500000D03*
X113700000Y-210500000D03*
X121700000Y-210500000D03*
X126300000Y-210500000D03*
X134300000Y-210500000D03*
X129700000Y-210500000D03*
X73700000Y-214500000D03*
X78300000Y-214500000D03*
X86300000Y-214500000D03*
X81700000Y-214500000D03*
X89700000Y-214500000D03*
X94300000Y-214500000D03*
X102300000Y-214500000D03*
X97700000Y-214500000D03*
X105700000Y-214500000D03*
X110300000Y-214500000D03*
X118300000Y-214500000D03*
X113700000Y-214500000D03*
X121700000Y-214500000D03*
X126300000Y-214500000D03*
X134300000Y-214500000D03*
X129700000Y-214500000D03*
X73700000Y-218500000D03*
X78300000Y-218500000D03*
X86300000Y-218500000D03*
X81700000Y-218500000D03*
X89700000Y-218500000D03*
X94300000Y-218500000D03*
X102300000Y-218500000D03*
X97700000Y-218500000D03*
X105700000Y-218500000D03*
X110300000Y-218500000D03*
X118300000Y-218500000D03*
X113700000Y-218500000D03*
X121700000Y-218500000D03*
X126300000Y-218500000D03*
X134300000Y-218500000D03*
X129700000Y-218500000D03*
X73700000Y-222500000D03*
X78300000Y-222500000D03*
X86300000Y-222500000D03*
X81700000Y-222500000D03*
X89700000Y-222500000D03*
X94300000Y-222500000D03*
X102300000Y-222500000D03*
X97700000Y-222500000D03*
X105700000Y-222500000D03*
X110300000Y-222500000D03*
X118300000Y-222500000D03*
X113700000Y-222500000D03*
X121700000Y-222500000D03*
X126300000Y-222500000D03*
X134300000Y-222500000D03*
X129700000Y-222500000D03*
X73700000Y-226500000D03*
X78300000Y-226500000D03*
X86300000Y-226500000D03*
X81700000Y-226500000D03*
X89700000Y-226500000D03*
X94300000Y-226500000D03*
X102300000Y-226500000D03*
X97700000Y-226500000D03*
X105700000Y-226500000D03*
X110300000Y-226500000D03*
X118300000Y-226500000D03*
X113700000Y-226500000D03*
X121700000Y-226500000D03*
X126300000Y-226500000D03*
X134300000Y-226500000D03*
X129700000Y-226500000D03*
X73700000Y-230500000D03*
X78300000Y-230500000D03*
X86300000Y-230500000D03*
X81700000Y-230500000D03*
X89700000Y-230500000D03*
X94300000Y-230500000D03*
X102300000Y-230500000D03*
X97700000Y-230500000D03*
X105700000Y-230500000D03*
X110300000Y-230500000D03*
X118300000Y-230500000D03*
X113700000Y-230500000D03*
X121700000Y-230500000D03*
X126300000Y-230500000D03*
X134300000Y-230500000D03*
X129700000Y-230500000D03*
M02*
