  0
SECTION
  2
HEADER
  9
$ANGBASE
  50
0.0
  9
$ANGDIR
  70
  1
  9
$MEASUREMENT
  70
0
  0
ENDSEC
  0
SECTION
  2
TABLES
  0
TABLE
  2
LTYPE
  70
4
  0
LTYPE
  5
40F
  2
CONTINUOUS
  70
0
  3
Solid line
  72
65
  73
0
  40
0.0
  0
LTYPE
  5
410
  2
DASHDOT
 70
0
  3
Dash Dot ____ _ ____ _
 72
65
 73
4
 40
2.0
 49
1.25
 49
-0.25
 49
0.25
 49
-0.25
  0
LTYPE
  5
411
  2
DASHED
 70
0
  3
Dashed __ __ __ __ __
 72
65
 73
2
 40
0.75
 49
0.5
 49
-0.25
  0
LTYPE
  5
43B
  2
DOTTED
 70
0
  3
Dotted .  .  .  .
 72
65
 73
2
 40
0.2
 49
0.0
 49
-0.2
  0
ENDTAB
  0
TABLE
  2
STYLE
  70
4
  0
STYLE
  2
KICAD
  70
0
  40
0
  41
1
  42
1
  50
0
  71
0
  3
isocp.shx
  0
STYLE
  2
KICADB
  70
0
  40
0
  41
1
  42
1
  50
0
  71
0
  3
isocp.shx
  0
STYLE
  2
KICADI
  70
0
  40
0
  41
1
  42
1
  50
15
  71
0
  3
isocp.shx
  0
STYLE
  2
KICADBI
  70
0
  40
0
  41
1
  42
1
  50
15
  71
0
  3
isocp.shx
  0
ENDTAB
  0
TABLE
  2
LAYER
  70
30
  0
LAYER
  2
BLACK
  70
0
  62
7
  6
CONTINUOUS
  0
LAYER
  2
GRAY1
  70
0
  62
251
  6
CONTINUOUS
  0
LAYER
  2
GRAY2
  70
0
  62
8
  6
CONTINUOUS
  0
LAYER
  2
GRAY3
  70
0
  62
9
  6
CONTINUOUS
  0
LAYER
  2
WHITE
  70
0
  62
7
  6
CONTINUOUS
  0
LAYER
  2
LYELLOW
  70
0
  62
51
  6
CONTINUOUS
  0
LAYER
  2
BLUE1
  70
0
  62
178
  6
CONTINUOUS
  0
LAYER
  2
GREEN1
  70
0
  62
98
  6
CONTINUOUS
  0
LAYER
  2
CYAN1
  70
0
  62
138
  6
CONTINUOUS
  0
LAYER
  2
RED1
  70
0
  62
18
  6
CONTINUOUS
  0
LAYER
  2
MAGENTA1
  70
0
  62
228
  6
CONTINUOUS
  0
LAYER
  2
BROWN1
  70
0
  62
58
  6
CONTINUOUS
  0
LAYER
  2
BLUE2
  70
0
  62
5
  6
CONTINUOUS
  0
LAYER
  2
GREEN2
  70
0
  62
3
  6
CONTINUOUS
  0
LAYER
  2
CYAN2
  70
0
  62
4
  6
CONTINUOUS
  0
LAYER
  2
RED2
  70
0
  62
1
  6
CONTINUOUS
  0
LAYER
  2
MAGENTA2
  70
0
  62
6
  6
CONTINUOUS
  0
LAYER
  2
BROWN2
  70
0
  62
54
  6
CONTINUOUS
  0
LAYER
  2
BLUE3
  70
0
  62
171
  6
CONTINUOUS
  0
LAYER
  2
GREEN3
  70
0
  62
91
  6
CONTINUOUS
  0
LAYER
  2
CYAN3
  70
0
  62
131
  6
CONTINUOUS
  0
LAYER
  2
RED3
  70
0
  62
11
  6
CONTINUOUS
  0
LAYER
  2
MAGENTA3
  70
0
  62
221
  6
CONTINUOUS
  0
LAYER
  2
YELLOW3
  70
0
  62
2
  6
CONTINUOUS
  0
LAYER
  2
BLUE4
  70
0
  62
5
  6
CONTINUOUS
  0
LAYER
  2
GREEN4
  70
0
  62
3
  6
CONTINUOUS
  0
LAYER
  2
CYAN4
  70
0
  62
4
  6
CONTINUOUS
  0
LAYER
  2
RED4
  70
0
  62
1
  6
CONTINUOUS
  0
LAYER
  2
MAGENTA4
  70
0
  62
6
  6
CONTINUOUS
  0
LAYER
  2
YELLOW4
  70
0
  62
2
  6
CONTINUOUS
  0
ENDTAB
  0
ENDSEC
  0
SECTION
  2
ENTITIES
0
LINE
8
BLACK
6
CONTINUOUS
10
168.214
20
-46.8286
11
169.143
21
-46.8286
0
LINE
8
BLACK
6
CONTINUOUS
10
169.143
20
-46.8286
11
168.643
21
-47.4
0
LINE
8
BLACK
6
CONTINUOUS
10
168.643
20
-47.4
11
168.857
21
-47.4
0
LINE
8
BLACK
6
CONTINUOUS
10
168.857
20
-47.4
11
169
21
-47.4714
0
LINE
8
BLACK
6
CONTINUOUS
10
169
20
-47.4714
11
169.071
21
-47.5429
0
LINE
8
BLACK
6
CONTINUOUS
10
169.071
20
-47.5429
11
169.143
21
-47.6857
0
LINE
8
BLACK
6
CONTINUOUS
10
169.143
20
-47.6857
11
169.143
21
-48.0429
0
LINE
8
BLACK
6
CONTINUOUS
10
169.143
20
-48.0429
11
169.071
21
-48.1857
0
LINE
8
BLACK
6
CONTINUOUS
10
169.071
20
-48.1857
11
169
21
-48.2571
0
LINE
8
BLACK
6
CONTINUOUS
10
169
20
-48.2571
11
168.857
21
-48.3286
0
LINE
8
BLACK
6
CONTINUOUS
10
168.857
20
-48.3286
11
168.429
21
-48.3286
0
LINE
8
BLACK
6
CONTINUOUS
10
168.429
20
-48.3286
11
168.286
21
-48.2571
0
LINE
8
BLACK
6
CONTINUOUS
10
168.286
20
-48.2571
11
168.214
21
-48.1857
0
LINE
8
BLACK
6
CONTINUOUS
10
170
20
-47.4714
11
169.857
21
-47.4
0
LINE
8
BLACK
6
CONTINUOUS
10
169.857
20
-47.4
11
169.786
21
-47.3286
0
LINE
8
BLACK
6
CONTINUOUS
10
169.786
20
-47.3286
11
169.714
21
-47.1857
0
LINE
8
BLACK
6
CONTINUOUS
10
169.714
20
-47.1857
11
169.714
21
-47.1143
0
LINE
8
BLACK
6
CONTINUOUS
10
169.714
20
-47.1143
11
169.786
21
-46.9714
0
LINE
8
BLACK
6
CONTINUOUS
10
169.786
20
-46.9714
11
169.857
21
-46.9
0
LINE
8
BLACK
6
CONTINUOUS
10
169.857
20
-46.9
11
170
21
-46.8286
0
LINE
8
BLACK
6
CONTINUOUS
10
170
20
-46.8286
11
170.286
21
-46.8286
0
LINE
8
BLACK
6
CONTINUOUS
10
170.286
20
-46.8286
11
170.429
21
-46.9
0
LINE
8
BLACK
6
CONTINUOUS
10
170.429
20
-46.9
11
170.5
21
-46.9714
0
LINE
8
BLACK
6
CONTINUOUS
10
170.5
20
-46.9714
11
170.571
21
-47.1143
0
LINE
8
BLACK
6
CONTINUOUS
10
170.571
20
-47.1143
11
170.571
21
-47.1857
0
LINE
8
BLACK
6
CONTINUOUS
10
170.571
20
-47.1857
11
170.5
21
-47.3286
0
LINE
8
BLACK
6
CONTINUOUS
10
170.5
20
-47.3286
11
170.429
21
-47.4
0
LINE
8
BLACK
6
CONTINUOUS
10
170.429
20
-47.4
11
170.286
21
-47.4714
0
LINE
8
BLACK
6
CONTINUOUS
10
170.286
20
-47.4714
11
170
21
-47.4714
0
LINE
8
BLACK
6
CONTINUOUS
10
170
20
-47.4714
11
169.857
21
-47.5429
0
LINE
8
BLACK
6
CONTINUOUS
10
169.857
20
-47.5429
11
169.786
21
-47.6143
0
LINE
8
BLACK
6
CONTINUOUS
10
169.786
20
-47.6143
11
169.714
21
-47.7571
0
LINE
8
BLACK
6
CONTINUOUS
10
169.714
20
-47.7571
11
169.714
21
-48.0429
0
LINE
8
BLACK
6
CONTINUOUS
10
169.714
20
-48.0429
11
169.786
21
-48.1857
0
LINE
8
BLACK
6
CONTINUOUS
10
169.786
20
-48.1857
11
169.857
21
-48.2571
0
LINE
8
BLACK
6
CONTINUOUS
10
169.857
20
-48.2571
11
170
21
-48.3286
0
LINE
8
BLACK
6
CONTINUOUS
10
170
20
-48.3286
11
170.286
21
-48.3286
0
LINE
8
BLACK
6
CONTINUOUS
10
170.286
20
-48.3286
11
170.429
21
-48.2571
0
LINE
8
BLACK
6
CONTINUOUS
10
170.429
20
-48.2571
11
170.5
21
-48.1857
0
LINE
8
BLACK
6
CONTINUOUS
10
170.5
20
-48.1857
11
170.571
21
-48.0429
0
LINE
8
BLACK
6
CONTINUOUS
10
170.571
20
-48.0429
11
170.571
21
-47.7571
0
LINE
8
BLACK
6
CONTINUOUS
10
170.571
20
-47.7571
11
170.5
21
-47.6143
0
LINE
8
BLACK
6
CONTINUOUS
10
170.5
20
-47.6143
11
170.429
21
-47.5429
0
LINE
8
BLACK
6
CONTINUOUS
10
170.429
20
-47.5429
11
170.286
21
-47.4714
0
LINE
8
BLACK
6
CONTINUOUS
10
171.214
20
-48.1857
11
171.286
21
-48.2571
0
LINE
8
BLACK
6
CONTINUOUS
10
171.286
20
-48.2571
11
171.214
21
-48.3286
0
LINE
8
BLACK
6
CONTINUOUS
10
171.214
20
-48.3286
11
171.143
21
-48.2571
0
LINE
8
BLACK
6
CONTINUOUS
10
171.143
20
-48.2571
11
171.214
21
-48.1857
0
LINE
8
BLACK
6
CONTINUOUS
10
171.214
20
-48.1857
11
171.214
21
-48.3286
0
LINE
8
BLACK
6
CONTINUOUS
10
172.214
20
-46.8286
11
172.357
21
-46.8286
0
LINE
8
BLACK
6
CONTINUOUS
10
172.357
20
-46.8286
11
172.5
21
-46.9
0
LINE
8
BLACK
6
CONTINUOUS
10
172.5
20
-46.9
11
172.571
21
-46.9714
0
LINE
8
BLACK
6
CONTINUOUS
10
172.571
20
-46.9714
11
172.643
21
-47.1143
0
LINE
8
BLACK
6
CONTINUOUS
10
172.643
20
-47.1143
11
172.714
21
-47.4
0
LINE
8
BLACK
6
CONTINUOUS
10
172.714
20
-47.4
11
172.714
21
-47.7571
0
LINE
8
BLACK
6
CONTINUOUS
10
172.714
20
-47.7571
11
172.643
21
-48.0429
0
LINE
8
BLACK
6
CONTINUOUS
10
172.643
20
-48.0429
11
172.571
21
-48.1857
0
LINE
8
BLACK
6
CONTINUOUS
10
172.571
20
-48.1857
11
172.5
21
-48.2571
0
LINE
8
BLACK
6
CONTINUOUS
10
172.5
20
-48.2571
11
172.357
21
-48.3286
0
LINE
8
BLACK
6
CONTINUOUS
10
172.357
20
-48.3286
11
172.214
21
-48.3286
0
LINE
8
BLACK
6
CONTINUOUS
10
172.214
20
-48.3286
11
172.071
21
-48.2571
0
LINE
8
BLACK
6
CONTINUOUS
10
172.071
20
-48.2571
11
172
21
-48.1857
0
LINE
8
BLACK
6
CONTINUOUS
10
172
20
-48.1857
11
171.929
21
-48.0429
0
LINE
8
BLACK
6
CONTINUOUS
10
171.929
20
-48.0429
11
171.857
21
-47.7571
0
LINE
8
BLACK
6
CONTINUOUS
10
171.857
20
-47.7571
11
171.857
21
-47.4
0
LINE
8
BLACK
6
CONTINUOUS
10
171.857
20
-47.4
11
171.929
21
-47.1143
0
LINE
8
BLACK
6
CONTINUOUS
10
171.929
20
-47.1143
11
172
21
-46.9714
0
LINE
8
BLACK
6
CONTINUOUS
10
172
20
-46.9714
11
172.071
21
-46.9
0
LINE
8
BLACK
6
CONTINUOUS
10
172.071
20
-46.9
11
172.214
21
-46.8286
0
LINE
8
BLACK
6
CONTINUOUS
10
173.643
20
-46.8286
11
173.786
21
-46.8286
0
LINE
8
BLACK
6
CONTINUOUS
10
173.786
20
-46.8286
11
173.929
21
-46.9
0
LINE
8
BLACK
6
CONTINUOUS
10
173.929
20
-46.9
11
174
21
-46.9714
0
LINE
8
BLACK
6
CONTINUOUS
10
174
20
-46.9714
11
174.071
21
-47.1143
0
LINE
8
BLACK
6
CONTINUOUS
10
174.071
20
-47.1143
11
174.143
21
-47.4
0
LINE
8
BLACK
6
CONTINUOUS
10
174.143
20
-47.4
11
174.143
21
-47.7571
0
LINE
8
BLACK
6
CONTINUOUS
10
174.143
20
-47.7571
11
174.071
21
-48.0429
0
LINE
8
BLACK
6
CONTINUOUS
10
174.071
20
-48.0429
11
174
21
-48.1857
0
LINE
8
BLACK
6
CONTINUOUS
10
174
20
-48.1857
11
173.929
21
-48.2571
0
LINE
8
BLACK
6
CONTINUOUS
10
173.929
20
-48.2571
11
173.786
21
-48.3286
0
LINE
8
BLACK
6
CONTINUOUS
10
173.786
20
-48.3286
11
173.643
21
-48.3286
0
LINE
8
BLACK
6
CONTINUOUS
10
173.643
20
-48.3286
11
173.5
21
-48.2571
0
LINE
8
BLACK
6
CONTINUOUS
10
173.5
20
-48.2571
11
173.429
21
-48.1857
0
LINE
8
BLACK
6
CONTINUOUS
10
173.429
20
-48.1857
11
173.357
21
-48.0429
0
LINE
8
BLACK
6
CONTINUOUS
10
173.357
20
-48.0429
11
173.286
21
-47.7571
0
LINE
8
BLACK
6
CONTINUOUS
10
173.286
20
-47.7571
11
173.286
21
-47.4
0
LINE
8
BLACK
6
CONTINUOUS
10
173.286
20
-47.4
11
173.357
21
-47.1143
0
LINE
8
BLACK
6
CONTINUOUS
10
173.357
20
-47.1143
11
173.429
21
-46.9714
0
LINE
8
BLACK
6
CONTINUOUS
10
173.429
20
-46.9714
11
173.5
21
-46.9
0
LINE
8
BLACK
6
CONTINUOUS
10
173.5
20
-46.9
11
173.643
21
-46.8286
0
LINE
8
BLACK
6
CONTINUOUS
10
175.071
20
-46.8286
11
175.214
21
-46.8286
0
LINE
8
BLACK
6
CONTINUOUS
10
175.214
20
-46.8286
11
175.357
21
-46.9
0
LINE
8
BLACK
6
CONTINUOUS
10
175.357
20
-46.9
11
175.429
21
-46.9714
0
LINE
8
BLACK
6
CONTINUOUS
10
175.429
20
-46.9714
11
175.5
21
-47.1143
0
LINE
8
BLACK
6
CONTINUOUS
10
175.5
20
-47.1143
11
175.571
21
-47.4
0
LINE
8
BLACK
6
CONTINUOUS
10
175.571
20
-47.4
11
175.571
21
-47.7571
0
LINE
8
BLACK
6
CONTINUOUS
10
175.571
20
-47.7571
11
175.5
21
-48.0429
0
LINE
8
BLACK
6
CONTINUOUS
10
175.5
20
-48.0429
11
175.429
21
-48.1857
0
LINE
8
BLACK
6
CONTINUOUS
10
175.429
20
-48.1857
11
175.357
21
-48.2571
0
LINE
8
BLACK
6
CONTINUOUS
10
175.357
20
-48.2571
11
175.214
21
-48.3286
0
LINE
8
BLACK
6
CONTINUOUS
10
175.214
20
-48.3286
11
175.071
21
-48.3286
0
LINE
8
BLACK
6
CONTINUOUS
10
175.071
20
-48.3286
11
174.929
21
-48.2571
0
LINE
8
BLACK
6
CONTINUOUS
10
174.929
20
-48.2571
11
174.857
21
-48.1857
0
LINE
8
BLACK
6
CONTINUOUS
10
174.857
20
-48.1857
11
174.786
21
-48.0429
0
LINE
8
BLACK
6
CONTINUOUS
10
174.786
20
-48.0429
11
174.714
21
-47.7571
0
LINE
8
BLACK
6
CONTINUOUS
10
174.714
20
-47.7571
11
174.714
21
-47.4
0
LINE
8
BLACK
6
CONTINUOUS
10
174.714
20
-47.4
11
174.786
21
-47.1143
0
LINE
8
BLACK
6
CONTINUOUS
10
174.786
20
-47.1143
11
174.857
21
-46.9714
0
LINE
8
BLACK
6
CONTINUOUS
10
174.857
20
-46.9714
11
174.929
21
-46.9
0
LINE
8
BLACK
6
CONTINUOUS
10
174.929
20
-46.9
11
175.071
21
-46.8286
0
LINE
8
BLACK
6
CONTINUOUS
10
177.357
20
-48.3286
11
177.357
21
-47.3286
0
LINE
8
BLACK
6
CONTINUOUS
10
177.357
20
-47.4714
11
177.429
21
-47.4
0
LINE
8
BLACK
6
CONTINUOUS
10
177.429
20
-47.4
11
177.571
21
-47.3286
0
LINE
8
BLACK
6
CONTINUOUS
10
177.571
20
-47.3286
11
177.786
21
-47.3286
0
LINE
8
BLACK
6
CONTINUOUS
10
177.786
20
-47.3286
11
177.929
21
-47.4
0
LINE
8
BLACK
6
CONTINUOUS
10
177.929
20
-47.4
11
178
21
-47.5429
0
LINE
8
BLACK
6
CONTINUOUS
10
178
20
-47.5429
11
178
21
-48.3286
0
LINE
8
BLACK
6
CONTINUOUS
10
178
20
-47.5429
11
178.071
21
-47.4
0
LINE
8
BLACK
6
CONTINUOUS
10
178.071
20
-47.4
11
178.214
21
-47.3286
0
LINE
8
BLACK
6
CONTINUOUS
10
178.214
20
-47.3286
11
178.429
21
-47.3286
0
LINE
8
BLACK
6
CONTINUOUS
10
178.429
20
-47.3286
11
178.571
21
-47.4
0
LINE
8
BLACK
6
CONTINUOUS
10
178.571
20
-47.4
11
178.643
21
-47.5429
0
LINE
8
BLACK
6
CONTINUOUS
10
178.643
20
-47.5429
11
178.643
21
-48.3286
0
LINE
8
BLACK
6
CONTINUOUS
10
179.357
20
-48.3286
11
179.357
21
-47.3286
0
LINE
8
BLACK
6
CONTINUOUS
10
179.357
20
-47.4714
11
179.429
21
-47.4
0
LINE
8
BLACK
6
CONTINUOUS
10
179.429
20
-47.4
11
179.571
21
-47.3286
0
LINE
8
BLACK
6
CONTINUOUS
10
179.571
20
-47.3286
11
179.786
21
-47.3286
0
LINE
8
BLACK
6
CONTINUOUS
10
179.786
20
-47.3286
11
179.929
21
-47.4
0
LINE
8
BLACK
6
CONTINUOUS
10
179.929
20
-47.4
11
180
21
-47.5429
0
LINE
8
BLACK
6
CONTINUOUS
10
180
20
-47.5429
11
180
21
-48.3286
0
LINE
8
BLACK
6
CONTINUOUS
10
180
20
-47.5429
11
180.071
21
-47.4
0
LINE
8
BLACK
6
CONTINUOUS
10
180.071
20
-47.4
11
180.214
21
-47.3286
0
LINE
8
BLACK
6
CONTINUOUS
10
180.214
20
-47.3286
11
180.429
21
-47.3286
0
LINE
8
BLACK
6
CONTINUOUS
10
180.429
20
-47.3286
11
180.571
21
-47.4
0
LINE
8
BLACK
6
CONTINUOUS
10
180.571
20
-47.4
11
180.643
21
-47.5429
0
LINE
8
BLACK
6
CONTINUOUS
10
180.643
20
-47.5429
11
180.643
21
-48.3286
0
LINE
8
BLACK
6
CONTINUOUS
10
193.5
20
-49
11
155.5
21
-49
0
LINE
8
BLACK
6
CONTINUOUS
10
193.5
20
-54.5
11
193.5
21
-46.3
0
LINE
8
BLACK
6
CONTINUOUS
10
155.5
20
-54.5
11
155.5
21
-46.3
0
LINE
8
BLACK
6
CONTINUOUS
10
155.5
20
-49
11
156.627
21
-48.4136
0
LINE
8
BLACK
6
CONTINUOUS
10
155.5
20
-49
11
156.627
21
-49.5864
0
LINE
8
BLACK
6
CONTINUOUS
10
193.5
20
-49
11
192.373
21
-48.4136
0
LINE
8
BLACK
6
CONTINUOUS
10
193.5
20
-49
11
192.373
21
-49.5864
0
LINE
8
BLACK
6
CONTINUOUS
10
150.329
20
-260.357
11
150.329
21
-261.214
0
LINE
8
BLACK
6
CONTINUOUS
10
150.329
20
-260.786
11
148.829
21
-260.786
0
LINE
8
BLACK
6
CONTINUOUS
10
148.829
20
-260.786
11
149.043
21
-260.929
0
LINE
8
BLACK
6
CONTINUOUS
10
149.043
20
-260.929
11
149.186
21
-261.071
0
LINE
8
BLACK
6
CONTINUOUS
10
149.186
20
-261.071
11
149.257
21
-261.214
0
LINE
8
BLACK
6
CONTINUOUS
10
148.829
20
-259.429
11
148.829
21
-259.286
0
LINE
8
BLACK
6
CONTINUOUS
10
148.829
20
-259.286
11
148.9
21
-259.143
0
LINE
8
BLACK
6
CONTINUOUS
10
148.9
20
-259.143
11
148.971
21
-259.071
0
LINE
8
BLACK
6
CONTINUOUS
10
148.971
20
-259.071
11
149.114
21
-259
0
LINE
8
BLACK
6
CONTINUOUS
10
149.114
20
-259
11
149.4
21
-258.929
0
LINE
8
BLACK
6
CONTINUOUS
10
149.4
20
-258.929
11
149.757
21
-258.929
0
LINE
8
BLACK
6
CONTINUOUS
10
149.757
20
-258.929
11
150.043
21
-259
0
LINE
8
BLACK
6
CONTINUOUS
10
150.043
20
-259
11
150.186
21
-259.071
0
LINE
8
BLACK
6
CONTINUOUS
10
150.186
20
-259.071
11
150.257
21
-259.143
0
LINE
8
BLACK
6
CONTINUOUS
10
150.257
20
-259.143
11
150.329
21
-259.286
0
LINE
8
BLACK
6
CONTINUOUS
10
150.329
20
-259.286
11
150.329
21
-259.429
0
LINE
8
BLACK
6
CONTINUOUS
10
150.329
20
-259.429
11
150.257
21
-259.571
0
LINE
8
BLACK
6
CONTINUOUS
10
150.257
20
-259.571
11
150.186
21
-259.643
0
LINE
8
BLACK
6
CONTINUOUS
10
150.186
20
-259.643
11
150.043
21
-259.714
0
LINE
8
BLACK
6
CONTINUOUS
10
150.043
20
-259.714
11
149.757
21
-259.786
0
LINE
8
BLACK
6
CONTINUOUS
10
149.757
20
-259.786
11
149.4
21
-259.786
0
LINE
8
BLACK
6
CONTINUOUS
10
149.4
20
-259.786
11
149.114
21
-259.714
0
LINE
8
BLACK
6
CONTINUOUS
10
149.114
20
-259.714
11
148.971
21
-259.643
0
LINE
8
BLACK
6
CONTINUOUS
10
148.971
20
-259.643
11
148.9
21
-259.571
0
LINE
8
BLACK
6
CONTINUOUS
10
148.9
20
-259.571
11
148.829
21
-259.429
0
LINE
8
BLACK
6
CONTINUOUS
10
150.186
20
-258.286
11
150.257
21
-258.214
0
LINE
8
BLACK
6
CONTINUOUS
10
150.257
20
-258.214
11
150.329
21
-258.286
0
LINE
8
BLACK
6
CONTINUOUS
10
150.329
20
-258.286
11
150.257
21
-258.357
0
LINE
8
BLACK
6
CONTINUOUS
10
150.257
20
-258.357
11
150.186
21
-258.286
0
LINE
8
BLACK
6
CONTINUOUS
10
150.186
20
-258.286
11
150.329
21
-258.286
0
LINE
8
BLACK
6
CONTINUOUS
10
148.829
20
-257.286
11
148.829
21
-257.143
0
LINE
8
BLACK
6
CONTINUOUS
10
148.829
20
-257.143
11
148.9
21
-257
0
LINE
8
BLACK
6
CONTINUOUS
10
148.9
20
-257
11
148.971
21
-256.929
0
LINE
8
BLACK
6
CONTINUOUS
10
148.971
20
-256.929
11
149.114
21
-256.857
0
LINE
8
BLACK
6
CONTINUOUS
10
149.114
20
-256.857
11
149.4
21
-256.786
0
LINE
8
BLACK
6
CONTINUOUS
10
149.4
20
-256.786
11
149.757
21
-256.786
0
LINE
8
BLACK
6
CONTINUOUS
10
149.757
20
-256.786
11
150.043
21
-256.857
0
LINE
8
BLACK
6
CONTINUOUS
10
150.043
20
-256.857
11
150.186
21
-256.929
0
LINE
8
BLACK
6
CONTINUOUS
10
150.186
20
-256.929
11
150.257
21
-257
0
LINE
8
BLACK
6
CONTINUOUS
10
150.257
20
-257
11
150.329
21
-257.143
0
LINE
8
BLACK
6
CONTINUOUS
10
150.329
20
-257.143
11
150.329
21
-257.286
0
LINE
8
BLACK
6
CONTINUOUS
10
150.329
20
-257.286
11
150.257
21
-257.429
0
LINE
8
BLACK
6
CONTINUOUS
10
150.257
20
-257.429
11
150.186
21
-257.5
0
LINE
8
BLACK
6
CONTINUOUS
10
150.186
20
-257.5
11
150.043
21
-257.571
0
LINE
8
BLACK
6
CONTINUOUS
10
150.043
20
-257.571
11
149.757
21
-257.643
0
LINE
8
BLACK
6
CONTINUOUS
10
149.757
20
-257.643
11
149.4
21
-257.643
0
LINE
8
BLACK
6
CONTINUOUS
10
149.4
20
-257.643
11
149.114
21
-257.571
0
LINE
8
BLACK
6
CONTINUOUS
10
149.114
20
-257.571
11
148.971
21
-257.5
0
LINE
8
BLACK
6
CONTINUOUS
10
148.971
20
-257.5
11
148.9
21
-257.429
0
LINE
8
BLACK
6
CONTINUOUS
10
148.9
20
-257.429
11
148.829
21
-257.286
0
LINE
8
BLACK
6
CONTINUOUS
10
148.829
20
-255.857
11
148.829
21
-255.714
0
LINE
8
BLACK
6
CONTINUOUS
10
148.829
20
-255.714
11
148.9
21
-255.571
0
LINE
8
BLACK
6
CONTINUOUS
10
148.9
20
-255.571
11
148.971
21
-255.5
0
LINE
8
BLACK
6
CONTINUOUS
10
148.971
20
-255.5
11
149.114
21
-255.429
0
LINE
8
BLACK
6
CONTINUOUS
10
149.114
20
-255.429
11
149.4
21
-255.357
0
LINE
8
BLACK
6
CONTINUOUS
10
149.4
20
-255.357
11
149.757
21
-255.357
0
LINE
8
BLACK
6
CONTINUOUS
10
149.757
20
-255.357
11
150.043
21
-255.429
0
LINE
8
BLACK
6
CONTINUOUS
10
150.043
20
-255.429
11
150.186
21
-255.5
0
LINE
8
BLACK
6
CONTINUOUS
10
150.186
20
-255.5
11
150.257
21
-255.571
0
LINE
8
BLACK
6
CONTINUOUS
10
150.257
20
-255.571
11
150.329
21
-255.714
0
LINE
8
BLACK
6
CONTINUOUS
10
150.329
20
-255.714
11
150.329
21
-255.857
0
LINE
8
BLACK
6
CONTINUOUS
10
150.329
20
-255.857
11
150.257
21
-256
0
LINE
8
BLACK
6
CONTINUOUS
10
150.257
20
-256
11
150.186
21
-256.071
0
LINE
8
BLACK
6
CONTINUOUS
10
150.186
20
-256.071
11
150.043
21
-256.143
0
LINE
8
BLACK
6
CONTINUOUS
10
150.043
20
-256.143
11
149.757
21
-256.214
0
LINE
8
BLACK
6
CONTINUOUS
10
149.757
20
-256.214
11
149.4
21
-256.214
0
LINE
8
BLACK
6
CONTINUOUS
10
149.4
20
-256.214
11
149.114
21
-256.143
0
LINE
8
BLACK
6
CONTINUOUS
10
149.114
20
-256.143
11
148.971
21
-256.071
0
LINE
8
BLACK
6
CONTINUOUS
10
148.971
20
-256.071
11
148.9
21
-256
0
LINE
8
BLACK
6
CONTINUOUS
10
148.9
20
-256
11
148.829
21
-255.857
0
LINE
8
BLACK
6
CONTINUOUS
10
148.829
20
-254.429
11
148.829
21
-254.286
0
LINE
8
BLACK
6
CONTINUOUS
10
148.829
20
-254.286
11
148.9
21
-254.143
0
LINE
8
BLACK
6
CONTINUOUS
10
148.9
20
-254.143
11
148.971
21
-254.071
0
LINE
8
BLACK
6
CONTINUOUS
10
148.971
20
-254.071
11
149.114
21
-254
0
LINE
8
BLACK
6
CONTINUOUS
10
149.114
20
-254
11
149.4
21
-253.929
0
LINE
8
BLACK
6
CONTINUOUS
10
149.4
20
-253.929
11
149.757
21
-253.929
0
LINE
8
BLACK
6
CONTINUOUS
10
149.757
20
-253.929
11
150.043
21
-254
0
LINE
8
BLACK
6
CONTINUOUS
10
150.043
20
-254
11
150.186
21
-254.071
0
LINE
8
BLACK
6
CONTINUOUS
10
150.186
20
-254.071
11
150.257
21
-254.143
0
LINE
8
BLACK
6
CONTINUOUS
10
150.257
20
-254.143
11
150.329
21
-254.286
0
LINE
8
BLACK
6
CONTINUOUS
10
150.329
20
-254.286
11
150.329
21
-254.429
0
LINE
8
BLACK
6
CONTINUOUS
10
150.329
20
-254.429
11
150.257
21
-254.571
0
LINE
8
BLACK
6
CONTINUOUS
10
150.257
20
-254.571
11
150.186
21
-254.643
0
LINE
8
BLACK
6
CONTINUOUS
10
150.186
20
-254.643
11
150.043
21
-254.714
0
LINE
8
BLACK
6
CONTINUOUS
10
150.043
20
-254.714
11
149.757
21
-254.786
0
LINE
8
BLACK
6
CONTINUOUS
10
149.757
20
-254.786
11
149.4
21
-254.786
0
LINE
8
BLACK
6
CONTINUOUS
10
149.4
20
-254.786
11
149.114
21
-254.714
0
LINE
8
BLACK
6
CONTINUOUS
10
149.114
20
-254.714
11
148.971
21
-254.643
0
LINE
8
BLACK
6
CONTINUOUS
10
148.971
20
-254.643
11
148.9
21
-254.571
0
LINE
8
BLACK
6
CONTINUOUS
10
148.9
20
-254.571
11
148.829
21
-254.429
0
LINE
8
BLACK
6
CONTINUOUS
10
150.329
20
-252.143
11
149.329
21
-252.143
0
LINE
8
BLACK
6
CONTINUOUS
10
149.471
20
-252.143
11
149.4
21
-252.071
0
LINE
8
BLACK
6
CONTINUOUS
10
149.4
20
-252.071
11
149.329
21
-251.929
0
LINE
8
BLACK
6
CONTINUOUS
10
149.329
20
-251.929
11
149.329
21
-251.714
0
LINE
8
BLACK
6
CONTINUOUS
10
149.329
20
-251.714
11
149.4
21
-251.571
0
LINE
8
BLACK
6
CONTINUOUS
10
149.4
20
-251.571
11
149.543
21
-251.5
0
LINE
8
BLACK
6
CONTINUOUS
10
149.543
20
-251.5
11
150.329
21
-251.5
0
LINE
8
BLACK
6
CONTINUOUS
10
149.543
20
-251.5
11
149.4
21
-251.429
0
LINE
8
BLACK
6
CONTINUOUS
10
149.4
20
-251.429
11
149.329
21
-251.286
0
LINE
8
BLACK
6
CONTINUOUS
10
149.329
20
-251.286
11
149.329
21
-251.071
0
LINE
8
BLACK
6
CONTINUOUS
10
149.329
20
-251.071
11
149.4
21
-250.929
0
LINE
8
BLACK
6
CONTINUOUS
10
149.4
20
-250.929
11
149.543
21
-250.857
0
LINE
8
BLACK
6
CONTINUOUS
10
149.543
20
-250.857
11
150.329
21
-250.857
0
LINE
8
BLACK
6
CONTINUOUS
10
150.329
20
-250.143
11
149.329
21
-250.143
0
LINE
8
BLACK
6
CONTINUOUS
10
149.471
20
-250.143
11
149.4
21
-250.071
0
LINE
8
BLACK
6
CONTINUOUS
10
149.4
20
-250.071
11
149.329
21
-249.929
0
LINE
8
BLACK
6
CONTINUOUS
10
149.329
20
-249.929
11
149.329
21
-249.714
0
LINE
8
BLACK
6
CONTINUOUS
10
149.329
20
-249.714
11
149.4
21
-249.571
0
LINE
8
BLACK
6
CONTINUOUS
10
149.4
20
-249.571
11
149.543
21
-249.5
0
LINE
8
BLACK
6
CONTINUOUS
10
149.543
20
-249.5
11
150.329
21
-249.5
0
LINE
8
BLACK
6
CONTINUOUS
10
149.543
20
-249.5
11
149.4
21
-249.429
0
LINE
8
BLACK
6
CONTINUOUS
10
149.4
20
-249.429
11
149.329
21
-249.286
0
LINE
8
BLACK
6
CONTINUOUS
10
149.329
20
-249.286
11
149.329
21
-249.071
0
LINE
8
BLACK
6
CONTINUOUS
10
149.329
20
-249.071
11
149.4
21
-248.929
0
LINE
8
BLACK
6
CONTINUOUS
10
149.4
20
-248.929
11
149.543
21
-248.857
0
LINE
8
BLACK
6
CONTINUOUS
10
149.543
20
-248.857
11
150.329
21
-248.857
0
LINE
8
BLACK
6
CONTINUOUS
10
151
20
-260
11
151
21
-250
0
LINE
8
BLACK
6
CONTINUOUS
10
159
20
-260
11
148.3
21
-260
0
LINE
8
BLACK
6
CONTINUOUS
10
159
20
-250
11
148.3
21
-250
0
LINE
8
BLACK
6
CONTINUOUS
10
151
20
-250
11
151.586
21
-251.127
0
LINE
8
BLACK
6
CONTINUOUS
10
151
20
-250
11
150.414
21
-251.127
0
LINE
8
BLACK
6
CONTINUOUS
10
151
20
-260
11
151.586
21
-258.873
0
LINE
8
BLACK
6
CONTINUOUS
10
151
20
-260
11
150.414
21
-258.873
0
LINE
8
BLACK
6
CONTINUOUS
10
41.8286
20
-143.071
11
41.9
21
-143.143
0
LINE
8
BLACK
6
CONTINUOUS
10
41.9
20
-143.143
11
41.9714
21
-143.286
0
LINE
8
BLACK
6
CONTINUOUS
10
41.9714
20
-143.286
11
41.9714
21
-143.643
0
LINE
8
BLACK
6
CONTINUOUS
10
41.9714
20
-143.643
11
41.9
21
-143.786
0
LINE
8
BLACK
6
CONTINUOUS
10
41.9
20
-143.786
11
41.8286
21
-143.857
0
LINE
8
BLACK
6
CONTINUOUS
10
41.8286
20
-143.857
11
41.6857
21
-143.929
0
LINE
8
BLACK
6
CONTINUOUS
10
41.6857
20
-143.929
11
41.5429
21
-143.929
0
LINE
8
BLACK
6
CONTINUOUS
10
41.5429
20
-143.929
11
41.3286
21
-143.857
0
LINE
8
BLACK
6
CONTINUOUS
10
41.3286
20
-143.857
11
40.4714
21
-143
0
LINE
8
BLACK
6
CONTINUOUS
10
40.4714
20
-143
11
40.4714
21
-143.929
0
LINE
8
BLACK
6
CONTINUOUS
10
41.9714
20
-144.857
11
41.9714
21
-145
0
LINE
8
BLACK
6
CONTINUOUS
10
41.9714
20
-145
11
41.9
21
-145.143
0
LINE
8
BLACK
6
CONTINUOUS
10
41.9
20
-145.143
11
41.8286
21
-145.214
0
LINE
8
BLACK
6
CONTINUOUS
10
41.8286
20
-145.214
11
41.6857
21
-145.286
0
LINE
8
BLACK
6
CONTINUOUS
10
41.6857
20
-145.286
11
41.4
21
-145.357
0
LINE
8
BLACK
6
CONTINUOUS
10
41.4
20
-145.357
11
41.0429
21
-145.357
0
LINE
8
BLACK
6
CONTINUOUS
10
41.0429
20
-145.357
11
40.7571
21
-145.286
0
LINE
8
BLACK
6
CONTINUOUS
10
40.7571
20
-145.286
11
40.6143
21
-145.214
0
LINE
8
BLACK
6
CONTINUOUS
10
40.6143
20
-145.214
11
40.5429
21
-145.143
0
LINE
8
BLACK
6
CONTINUOUS
10
40.5429
20
-145.143
11
40.4714
21
-145
0
LINE
8
BLACK
6
CONTINUOUS
10
40.4714
20
-145
11
40.4714
21
-144.857
0
LINE
8
BLACK
6
CONTINUOUS
10
40.4714
20
-144.857
11
40.5429
21
-144.714
0
LINE
8
BLACK
6
CONTINUOUS
10
40.5429
20
-144.714
11
40.6143
21
-144.643
0
LINE
8
BLACK
6
CONTINUOUS
10
40.6143
20
-144.643
11
40.7571
21
-144.571
0
LINE
8
BLACK
6
CONTINUOUS
10
40.7571
20
-144.571
11
41.0429
21
-144.5
0
LINE
8
BLACK
6
CONTINUOUS
10
41.0429
20
-144.5
11
41.4
21
-144.5
0
LINE
8
BLACK
6
CONTINUOUS
10
41.4
20
-144.5
11
41.6857
21
-144.571
0
LINE
8
BLACK
6
CONTINUOUS
10
41.6857
20
-144.571
11
41.8286
21
-144.643
0
LINE
8
BLACK
6
CONTINUOUS
10
41.8286
20
-144.643
11
41.9
21
-144.714
0
LINE
8
BLACK
6
CONTINUOUS
10
41.9
20
-144.714
11
41.9714
21
-144.857
0
LINE
8
BLACK
6
CONTINUOUS
10
41.9714
20
-146.286
11
41.9714
21
-146.429
0
LINE
8
BLACK
6
CONTINUOUS
10
41.9714
20
-146.429
11
41.9
21
-146.571
0
LINE
8
BLACK
6
CONTINUOUS
10
41.9
20
-146.571
11
41.8286
21
-146.643
0
LINE
8
BLACK
6
CONTINUOUS
10
41.8286
20
-146.643
11
41.6857
21
-146.714
0
LINE
8
BLACK
6
CONTINUOUS
10
41.6857
20
-146.714
11
41.4
21
-146.786
0
LINE
8
BLACK
6
CONTINUOUS
10
41.4
20
-146.786
11
41.0429
21
-146.786
0
LINE
8
BLACK
6
CONTINUOUS
10
41.0429
20
-146.786
11
40.7571
21
-146.714
0
LINE
8
BLACK
6
CONTINUOUS
10
40.7571
20
-146.714
11
40.6143
21
-146.643
0
LINE
8
BLACK
6
CONTINUOUS
10
40.6143
20
-146.643
11
40.5429
21
-146.571
0
LINE
8
BLACK
6
CONTINUOUS
10
40.5429
20
-146.571
11
40.4714
21
-146.429
0
LINE
8
BLACK
6
CONTINUOUS
10
40.4714
20
-146.429
11
40.4714
21
-146.286
0
LINE
8
BLACK
6
CONTINUOUS
10
40.4714
20
-146.286
11
40.5429
21
-146.143
0
LINE
8
BLACK
6
CONTINUOUS
10
40.5429
20
-146.143
11
40.6143
21
-146.071
0
LINE
8
BLACK
6
CONTINUOUS
10
40.6143
20
-146.071
11
40.7571
21
-146
0
LINE
8
BLACK
6
CONTINUOUS
10
40.7571
20
-146
11
41.0429
21
-145.929
0
LINE
8
BLACK
6
CONTINUOUS
10
41.0429
20
-145.929
11
41.4
21
-145.929
0
LINE
8
BLACK
6
CONTINUOUS
10
41.4
20
-145.929
11
41.6857
21
-146
0
LINE
8
BLACK
6
CONTINUOUS
10
41.6857
20
-146
11
41.8286
21
-146.071
0
LINE
8
BLACK
6
CONTINUOUS
10
41.8286
20
-146.071
11
41.9
21
-146.143
0
LINE
8
BLACK
6
CONTINUOUS
10
41.9
20
-146.143
11
41.9714
21
-146.286
0
LINE
8
BLACK
6
CONTINUOUS
10
40.6143
20
-147.429
11
40.5429
21
-147.5
0
LINE
8
BLACK
6
CONTINUOUS
10
40.5429
20
-147.5
11
40.4714
21
-147.429
0
LINE
8
BLACK
6
CONTINUOUS
10
40.4714
20
-147.429
11
40.5429
21
-147.357
0
LINE
8
BLACK
6
CONTINUOUS
10
40.5429
20
-147.357
11
40.6143
21
-147.429
0
LINE
8
BLACK
6
CONTINUOUS
10
40.6143
20
-147.429
11
40.4714
21
-147.429
0
LINE
8
BLACK
6
CONTINUOUS
10
41.9714
20
-148.429
11
41.9714
21
-148.571
0
LINE
8
BLACK
6
CONTINUOUS
10
41.9714
20
-148.571
11
41.9
21
-148.714
0
LINE
8
BLACK
6
CONTINUOUS
10
41.9
20
-148.714
11
41.8286
21
-148.786
0
LINE
8
BLACK
6
CONTINUOUS
10
41.8286
20
-148.786
11
41.6857
21
-148.857
0
LINE
8
BLACK
6
CONTINUOUS
10
41.6857
20
-148.857
11
41.4
21
-148.929
0
LINE
8
BLACK
6
CONTINUOUS
10
41.4
20
-148.929
11
41.0429
21
-148.929
0
LINE
8
BLACK
6
CONTINUOUS
10
41.0429
20
-148.929
11
40.7571
21
-148.857
0
LINE
8
BLACK
6
CONTINUOUS
10
40.7571
20
-148.857
11
40.6143
21
-148.786
0
LINE
8
BLACK
6
CONTINUOUS
10
40.6143
20
-148.786
11
40.5429
21
-148.714
0
LINE
8
BLACK
6
CONTINUOUS
10
40.5429
20
-148.714
11
40.4714
21
-148.571
0
LINE
8
BLACK
6
CONTINUOUS
10
40.4714
20
-148.571
11
40.4714
21
-148.429
0
LINE
8
BLACK
6
CONTINUOUS
10
40.4714
20
-148.429
11
40.5429
21
-148.286
0
LINE
8
BLACK
6
CONTINUOUS
10
40.5429
20
-148.286
11
40.6143
21
-148.214
0
LINE
8
BLACK
6
CONTINUOUS
10
40.6143
20
-148.214
11
40.7571
21
-148.143
0
LINE
8
BLACK
6
CONTINUOUS
10
40.7571
20
-148.143
11
41.0429
21
-148.071
0
LINE
8
BLACK
6
CONTINUOUS
10
41.0429
20
-148.071
11
41.4
21
-148.071
0
LINE
8
BLACK
6
CONTINUOUS
10
41.4
20
-148.071
11
41.6857
21
-148.143
0
LINE
8
BLACK
6
CONTINUOUS
10
41.6857
20
-148.143
11
41.8286
21
-148.214
0
LINE
8
BLACK
6
CONTINUOUS
10
41.8286
20
-148.214
11
41.9
21
-148.286
0
LINE
8
BLACK
6
CONTINUOUS
10
41.9
20
-148.286
11
41.9714
21
-148.429
0
LINE
8
BLACK
6
CONTINUOUS
10
41.9714
20
-149.857
11
41.9714
21
-150
0
LINE
8
BLACK
6
CONTINUOUS
10
41.9714
20
-150
11
41.9
21
-150.143
0
LINE
8
BLACK
6
CONTINUOUS
10
41.9
20
-150.143
11
41.8286
21
-150.214
0
LINE
8
BLACK
6
CONTINUOUS
10
41.8286
20
-150.214
11
41.6857
21
-150.286
0
LINE
8
BLACK
6
CONTINUOUS
10
41.6857
20
-150.286
11
41.4
21
-150.357
0
LINE
8
BLACK
6
CONTINUOUS
10
41.4
20
-150.357
11
41.0429
21
-150.357
0
LINE
8
BLACK
6
CONTINUOUS
10
41.0429
20
-150.357
11
40.7571
21
-150.286
0
LINE
8
BLACK
6
CONTINUOUS
10
40.7571
20
-150.286
11
40.6143
21
-150.214
0
LINE
8
BLACK
6
CONTINUOUS
10
40.6143
20
-150.214
11
40.5429
21
-150.143
0
LINE
8
BLACK
6
CONTINUOUS
10
40.5429
20
-150.143
11
40.4714
21
-150
0
LINE
8
BLACK
6
CONTINUOUS
10
40.4714
20
-150
11
40.4714
21
-149.857
0
LINE
8
BLACK
6
CONTINUOUS
10
40.4714
20
-149.857
11
40.5429
21
-149.714
0
LINE
8
BLACK
6
CONTINUOUS
10
40.5429
20
-149.714
11
40.6143
21
-149.643
0
LINE
8
BLACK
6
CONTINUOUS
10
40.6143
20
-149.643
11
40.7571
21
-149.571
0
LINE
8
BLACK
6
CONTINUOUS
10
40.7571
20
-149.571
11
41.0429
21
-149.5
0
LINE
8
BLACK
6
CONTINUOUS
10
41.0429
20
-149.5
11
41.4
21
-149.5
0
LINE
8
BLACK
6
CONTINUOUS
10
41.4
20
-149.5
11
41.6857
21
-149.571
0
LINE
8
BLACK
6
CONTINUOUS
10
41.6857
20
-149.571
11
41.8286
21
-149.643
0
LINE
8
BLACK
6
CONTINUOUS
10
41.8286
20
-149.643
11
41.9
21
-149.714
0
LINE
8
BLACK
6
CONTINUOUS
10
41.9
20
-149.714
11
41.9714
21
-149.857
0
LINE
8
BLACK
6
CONTINUOUS
10
41.9714
20
-151.286
11
41.9714
21
-151.429
0
LINE
8
BLACK
6
CONTINUOUS
10
41.9714
20
-151.429
11
41.9
21
-151.571
0
LINE
8
BLACK
6
CONTINUOUS
10
41.9
20
-151.571
11
41.8286
21
-151.643
0
LINE
8
BLACK
6
CONTINUOUS
10
41.8286
20
-151.643
11
41.6857
21
-151.714
0
LINE
8
BLACK
6
CONTINUOUS
10
41.6857
20
-151.714
11
41.4
21
-151.786
0
LINE
8
BLACK
6
CONTINUOUS
10
41.4
20
-151.786
11
41.0429
21
-151.786
0
LINE
8
BLACK
6
CONTINUOUS
10
41.0429
20
-151.786
11
40.7571
21
-151.714
0
LINE
8
BLACK
6
CONTINUOUS
10
40.7571
20
-151.714
11
40.6143
21
-151.643
0
LINE
8
BLACK
6
CONTINUOUS
10
40.6143
20
-151.643
11
40.5429
21
-151.571
0
LINE
8
BLACK
6
CONTINUOUS
10
40.5429
20
-151.571
11
40.4714
21
-151.429
0
LINE
8
BLACK
6
CONTINUOUS
10
40.4714
20
-151.429
11
40.4714
21
-151.286
0
LINE
8
BLACK
6
CONTINUOUS
10
40.4714
20
-151.286
11
40.5429
21
-151.143
0
LINE
8
BLACK
6
CONTINUOUS
10
40.5429
20
-151.143
11
40.6143
21
-151.071
0
LINE
8
BLACK
6
CONTINUOUS
10
40.6143
20
-151.071
11
40.7571
21
-151
0
LINE
8
BLACK
6
CONTINUOUS
10
40.7571
20
-151
11
41.0429
21
-150.929
0
LINE
8
BLACK
6
CONTINUOUS
10
41.0429
20
-150.929
11
41.4
21
-150.929
0
LINE
8
BLACK
6
CONTINUOUS
10
41.4
20
-150.929
11
41.6857
21
-151
0
LINE
8
BLACK
6
CONTINUOUS
10
41.6857
20
-151
11
41.8286
21
-151.071
0
LINE
8
BLACK
6
CONTINUOUS
10
41.8286
20
-151.071
11
41.9
21
-151.143
0
LINE
8
BLACK
6
CONTINUOUS
10
41.9
20
-151.143
11
41.9714
21
-151.286
0
LINE
8
BLACK
6
CONTINUOUS
10
40.4714
20
-153.571
11
41.4714
21
-153.571
0
LINE
8
BLACK
6
CONTINUOUS
10
41.3286
20
-153.571
11
41.4
21
-153.643
0
LINE
8
BLACK
6
CONTINUOUS
10
41.4
20
-153.643
11
41.4714
21
-153.786
0
LINE
8
BLACK
6
CONTINUOUS
10
41.4714
20
-153.786
11
41.4714
21
-154
0
LINE
8
BLACK
6
CONTINUOUS
10
41.4714
20
-154
11
41.4
21
-154.143
0
LINE
8
BLACK
6
CONTINUOUS
10
41.4
20
-154.143
11
41.2571
21
-154.214
0
LINE
8
BLACK
6
CONTINUOUS
10
41.2571
20
-154.214
11
40.4714
21
-154.214
0
LINE
8
BLACK
6
CONTINUOUS
10
41.2571
20
-154.214
11
41.4
21
-154.286
0
LINE
8
BLACK
6
CONTINUOUS
10
41.4
20
-154.286
11
41.4714
21
-154.429
0
LINE
8
BLACK
6
CONTINUOUS
10
41.4714
20
-154.429
11
41.4714
21
-154.643
0
LINE
8
BLACK
6
CONTINUOUS
10
41.4714
20
-154.643
11
41.4
21
-154.786
0
LINE
8
BLACK
6
CONTINUOUS
10
41.4
20
-154.786
11
41.2571
21
-154.857
0
LINE
8
BLACK
6
CONTINUOUS
10
41.2571
20
-154.857
11
40.4714
21
-154.857
0
LINE
8
BLACK
6
CONTINUOUS
10
40.4714
20
-155.571
11
41.4714
21
-155.571
0
LINE
8
BLACK
6
CONTINUOUS
10
41.3286
20
-155.571
11
41.4
21
-155.643
0
LINE
8
BLACK
6
CONTINUOUS
10
41.4
20
-155.643
11
41.4714
21
-155.786
0
LINE
8
BLACK
6
CONTINUOUS
10
41.4714
20
-155.786
11
41.4714
21
-156
0
LINE
8
BLACK
6
CONTINUOUS
10
41.4714
20
-156
11
41.4
21
-156.143
0
LINE
8
BLACK
6
CONTINUOUS
10
41.4
20
-156.143
11
41.2571
21
-156.214
0
LINE
8
BLACK
6
CONTINUOUS
10
41.2571
20
-156.214
11
40.4714
21
-156.214
0
LINE
8
BLACK
6
CONTINUOUS
10
41.2571
20
-156.214
11
41.4
21
-156.286
0
LINE
8
BLACK
6
CONTINUOUS
10
41.4
20
-156.286
11
41.4714
21
-156.429
0
LINE
8
BLACK
6
CONTINUOUS
10
41.4714
20
-156.429
11
41.4714
21
-156.643
0
LINE
8
BLACK
6
CONTINUOUS
10
41.4714
20
-156.643
11
41.4
21
-156.786
0
LINE
8
BLACK
6
CONTINUOUS
10
41.4
20
-156.786
11
41.2571
21
-156.857
0
LINE
8
BLACK
6
CONTINUOUS
10
41.2571
20
-156.857
11
40.4714
21
-156.857
0
LINE
8
BLACK
6
CONTINUOUS
10
42.5
20
-50
11
42.5
21
-250
0
LINE
8
BLACK
6
CONTINUOUS
10
63
20
-50
11
39.8
21
-50
0
LINE
8
BLACK
6
CONTINUOUS
10
63
20
-250
11
39.8
21
-250
0
LINE
8
BLACK
6
CONTINUOUS
10
42.5
20
-250
11
41.9136
21
-248.873
0
LINE
8
BLACK
6
CONTINUOUS
10
42.5
20
-250
11
43.0864
21
-248.873
0
LINE
8
BLACK
6
CONTINUOUS
10
42.5
20
-50
11
41.9136
21
-51.1265
0
LINE
8
BLACK
6
CONTINUOUS
10
42.5
20
-50
11
43.0864
21
-51.1265
0
LINE
8
BLACK
6
CONTINUOUS
10
168.571
20
-38.9714
11
168.643
21
-38.9
0
LINE
8
BLACK
6
CONTINUOUS
10
168.643
20
-38.9
11
168.786
21
-38.8286
0
LINE
8
BLACK
6
CONTINUOUS
10
168.786
20
-38.8286
11
169.143
21
-38.8286
0
LINE
8
BLACK
6
CONTINUOUS
10
169.143
20
-38.8286
11
169.286
21
-38.9
0
LINE
8
BLACK
6
CONTINUOUS
10
169.286
20
-38.9
11
169.357
21
-38.9714
0
LINE
8
BLACK
6
CONTINUOUS
10
169.357
20
-38.9714
11
169.429
21
-39.1143
0
LINE
8
BLACK
6
CONTINUOUS
10
169.429
20
-39.1143
11
169.429
21
-39.2571
0
LINE
8
BLACK
6
CONTINUOUS
10
169.429
20
-39.2571
11
169.357
21
-39.4714
0
LINE
8
BLACK
6
CONTINUOUS
10
169.357
20
-39.4714
11
168.5
21
-40.3286
0
LINE
8
BLACK
6
CONTINUOUS
10
168.5
20
-40.3286
11
169.429
21
-40.3286
0
LINE
8
BLACK
6
CONTINUOUS
10
169.929
20
-38.8286
11
170.857
21
-38.8286
0
LINE
8
BLACK
6
CONTINUOUS
10
170.857
20
-38.8286
11
170.357
21
-39.4
0
LINE
8
BLACK
6
CONTINUOUS
10
170.357
20
-39.4
11
170.571
21
-39.4
0
LINE
8
BLACK
6
CONTINUOUS
10
170.571
20
-39.4
11
170.714
21
-39.4714
0
LINE
8
BLACK
6
CONTINUOUS
10
170.714
20
-39.4714
11
170.786
21
-39.5429
0
LINE
8
BLACK
6
CONTINUOUS
10
170.786
20
-39.5429
11
170.857
21
-39.6857
0
LINE
8
BLACK
6
CONTINUOUS
10
170.857
20
-39.6857
11
170.857
21
-40.0429
0
LINE
8
BLACK
6
CONTINUOUS
10
170.857
20
-40.0429
11
170.786
21
-40.1857
0
LINE
8
BLACK
6
CONTINUOUS
10
170.786
20
-40.1857
11
170.714
21
-40.2571
0
LINE
8
BLACK
6
CONTINUOUS
10
170.714
20
-40.2571
11
170.571
21
-40.3286
0
LINE
8
BLACK
6
CONTINUOUS
10
170.571
20
-40.3286
11
170.143
21
-40.3286
0
LINE
8
BLACK
6
CONTINUOUS
10
170.143
20
-40.3286
11
170
21
-40.2571
0
LINE
8
BLACK
6
CONTINUOUS
10
170
20
-40.2571
11
169.929
21
-40.1857
0
LINE
8
BLACK
6
CONTINUOUS
10
171.786
20
-38.8286
11
171.929
21
-38.8286
0
LINE
8
BLACK
6
CONTINUOUS
10
171.929
20
-38.8286
11
172.071
21
-38.9
0
LINE
8
BLACK
6
CONTINUOUS
10
172.071
20
-38.9
11
172.143
21
-38.9714
0
LINE
8
BLACK
6
CONTINUOUS
10
172.143
20
-38.9714
11
172.214
21
-39.1143
0
LINE
8
BLACK
6
CONTINUOUS
10
172.214
20
-39.1143
11
172.286
21
-39.4
0
LINE
8
BLACK
6
CONTINUOUS
10
172.286
20
-39.4
11
172.286
21
-39.7571
0
LINE
8
BLACK
6
CONTINUOUS
10
172.286
20
-39.7571
11
172.214
21
-40.0429
0
LINE
8
BLACK
6
CONTINUOUS
10
172.214
20
-40.0429
11
172.143
21
-40.1857
0
LINE
8
BLACK
6
CONTINUOUS
10
172.143
20
-40.1857
11
172.071
21
-40.2571
0
LINE
8
BLACK
6
CONTINUOUS
10
172.071
20
-40.2571
11
171.929
21
-40.3286
0
LINE
8
BLACK
6
CONTINUOUS
10
171.929
20
-40.3286
11
171.786
21
-40.3286
0
LINE
8
BLACK
6
CONTINUOUS
10
171.786
20
-40.3286
11
171.643
21
-40.2571
0
LINE
8
BLACK
6
CONTINUOUS
10
171.643
20
-40.2571
11
171.571
21
-40.1857
0
LINE
8
BLACK
6
CONTINUOUS
10
171.571
20
-40.1857
11
171.5
21
-40.0429
0
LINE
8
BLACK
6
CONTINUOUS
10
171.5
20
-40.0429
11
171.429
21
-39.7571
0
LINE
8
BLACK
6
CONTINUOUS
10
171.429
20
-39.7571
11
171.429
21
-39.4
0
LINE
8
BLACK
6
CONTINUOUS
10
171.429
20
-39.4
11
171.5
21
-39.1143
0
LINE
8
BLACK
6
CONTINUOUS
10
171.5
20
-39.1143
11
171.571
21
-38.9714
0
LINE
8
BLACK
6
CONTINUOUS
10
171.571
20
-38.9714
11
171.643
21
-38.9
0
LINE
8
BLACK
6
CONTINUOUS
10
171.643
20
-38.9
11
171.786
21
-38.8286
0
LINE
8
BLACK
6
CONTINUOUS
10
172.929
20
-40.1857
11
173
21
-40.2571
0
LINE
8
BLACK
6
CONTINUOUS
10
173
20
-40.2571
11
172.929
21
-40.3286
0
LINE
8
BLACK
6
CONTINUOUS
10
172.929
20
-40.3286
11
172.857
21
-40.2571
0
LINE
8
BLACK
6
CONTINUOUS
10
172.857
20
-40.2571
11
172.929
21
-40.1857
0
LINE
8
BLACK
6
CONTINUOUS
10
172.929
20
-40.1857
11
172.929
21
-40.3286
0
LINE
8
BLACK
6
CONTINUOUS
10
173.929
20
-38.8286
11
174.071
21
-38.8286
0
LINE
8
BLACK
6
CONTINUOUS
10
174.071
20
-38.8286
11
174.214
21
-38.9
0
LINE
8
BLACK
6
CONTINUOUS
10
174.214
20
-38.9
11
174.286
21
-38.9714
0
LINE
8
BLACK
6
CONTINUOUS
10
174.286
20
-38.9714
11
174.357
21
-39.1143
0
LINE
8
BLACK
6
CONTINUOUS
10
174.357
20
-39.1143
11
174.429
21
-39.4
0
LINE
8
BLACK
6
CONTINUOUS
10
174.429
20
-39.4
11
174.429
21
-39.7571
0
LINE
8
BLACK
6
CONTINUOUS
10
174.429
20
-39.7571
11
174.357
21
-40.0429
0
LINE
8
BLACK
6
CONTINUOUS
10
174.357
20
-40.0429
11
174.286
21
-40.1857
0
LINE
8
BLACK
6
CONTINUOUS
10
174.286
20
-40.1857
11
174.214
21
-40.2571
0
LINE
8
BLACK
6
CONTINUOUS
10
174.214
20
-40.2571
11
174.071
21
-40.3286
0
LINE
8
BLACK
6
CONTINUOUS
10
174.071
20
-40.3286
11
173.929
21
-40.3286
0
LINE
8
BLACK
6
CONTINUOUS
10
173.929
20
-40.3286
11
173.786
21
-40.2571
0
LINE
8
BLACK
6
CONTINUOUS
10
173.786
20
-40.2571
11
173.714
21
-40.1857
0
LINE
8
BLACK
6
CONTINUOUS
10
173.714
20
-40.1857
11
173.643
21
-40.0429
0
LINE
8
BLACK
6
CONTINUOUS
10
173.643
20
-40.0429
11
173.571
21
-39.7571
0
LINE
8
BLACK
6
CONTINUOUS
10
173.571
20
-39.7571
11
173.571
21
-39.4
0
LINE
8
BLACK
6
CONTINUOUS
10
173.571
20
-39.4
11
173.643
21
-39.1143
0
LINE
8
BLACK
6
CONTINUOUS
10
173.643
20
-39.1143
11
173.714
21
-38.9714
0
LINE
8
BLACK
6
CONTINUOUS
10
173.714
20
-38.9714
11
173.786
21
-38.9
0
LINE
8
BLACK
6
CONTINUOUS
10
173.786
20
-38.9
11
173.929
21
-38.8286
0
LINE
8
BLACK
6
CONTINUOUS
10
175.357
20
-38.8286
11
175.5
21
-38.8286
0
LINE
8
BLACK
6
CONTINUOUS
10
175.5
20
-38.8286
11
175.643
21
-38.9
0
LINE
8
BLACK
6
CONTINUOUS
10
175.643
20
-38.9
11
175.714
21
-38.9714
0
LINE
8
BLACK
6
CONTINUOUS
10
175.714
20
-38.9714
11
175.786
21
-39.1143
0
LINE
8
BLACK
6
CONTINUOUS
10
175.786
20
-39.1143
11
175.857
21
-39.4
0
LINE
8
BLACK
6
CONTINUOUS
10
175.857
20
-39.4
11
175.857
21
-39.7571
0
LINE
8
BLACK
6
CONTINUOUS
10
175.857
20
-39.7571
11
175.786
21
-40.0429
0
LINE
8
BLACK
6
CONTINUOUS
10
175.786
20
-40.0429
11
175.714
21
-40.1857
0
LINE
8
BLACK
6
CONTINUOUS
10
175.714
20
-40.1857
11
175.643
21
-40.2571
0
LINE
8
BLACK
6
CONTINUOUS
10
175.643
20
-40.2571
11
175.5
21
-40.3286
0
LINE
8
BLACK
6
CONTINUOUS
10
175.5
20
-40.3286
11
175.357
21
-40.3286
0
LINE
8
BLACK
6
CONTINUOUS
10
175.357
20
-40.3286
11
175.214
21
-40.2571
0
LINE
8
BLACK
6
CONTINUOUS
10
175.214
20
-40.2571
11
175.143
21
-40.1857
0
LINE
8
BLACK
6
CONTINUOUS
10
175.143
20
-40.1857
11
175.071
21
-40.0429
0
LINE
8
BLACK
6
CONTINUOUS
10
175.071
20
-40.0429
11
175
21
-39.7571
0
LINE
8
BLACK
6
CONTINUOUS
10
175
20
-39.7571
11
175
21
-39.4
0
LINE
8
BLACK
6
CONTINUOUS
10
175
20
-39.4
11
175.071
21
-39.1143
0
LINE
8
BLACK
6
CONTINUOUS
10
175.071
20
-39.1143
11
175.143
21
-38.9714
0
LINE
8
BLACK
6
CONTINUOUS
10
175.143
20
-38.9714
11
175.214
21
-38.9
0
LINE
8
BLACK
6
CONTINUOUS
10
175.214
20
-38.9
11
175.357
21
-38.8286
0
LINE
8
BLACK
6
CONTINUOUS
10
176.786
20
-38.8286
11
176.929
21
-38.8286
0
LINE
8
BLACK
6
CONTINUOUS
10
176.929
20
-38.8286
11
177.071
21
-38.9
0
LINE
8
BLACK
6
CONTINUOUS
10
177.071
20
-38.9
11
177.143
21
-38.9714
0
LINE
8
BLACK
6
CONTINUOUS
10
177.143
20
-38.9714
11
177.214
21
-39.1143
0
LINE
8
BLACK
6
CONTINUOUS
10
177.214
20
-39.1143
11
177.286
21
-39.4
0
LINE
8
BLACK
6
CONTINUOUS
10
177.286
20
-39.4
11
177.286
21
-39.7571
0
LINE
8
BLACK
6
CONTINUOUS
10
177.286
20
-39.7571
11
177.214
21
-40.0429
0
LINE
8
BLACK
6
CONTINUOUS
10
177.214
20
-40.0429
11
177.143
21
-40.1857
0
LINE
8
BLACK
6
CONTINUOUS
10
177.143
20
-40.1857
11
177.071
21
-40.2571
0
LINE
8
BLACK
6
CONTINUOUS
10
177.071
20
-40.2571
11
176.929
21
-40.3286
0
LINE
8
BLACK
6
CONTINUOUS
10
176.929
20
-40.3286
11
176.786
21
-40.3286
0
LINE
8
BLACK
6
CONTINUOUS
10
176.786
20
-40.3286
11
176.643
21
-40.2571
0
LINE
8
BLACK
6
CONTINUOUS
10
176.643
20
-40.2571
11
176.571
21
-40.1857
0
LINE
8
BLACK
6
CONTINUOUS
10
176.571
20
-40.1857
11
176.5
21
-40.0429
0
LINE
8
BLACK
6
CONTINUOUS
10
176.5
20
-40.0429
11
176.429
21
-39.7571
0
LINE
8
BLACK
6
CONTINUOUS
10
176.429
20
-39.7571
11
176.429
21
-39.4
0
LINE
8
BLACK
6
CONTINUOUS
10
176.429
20
-39.4
11
176.5
21
-39.1143
0
LINE
8
BLACK
6
CONTINUOUS
10
176.5
20
-39.1143
11
176.571
21
-38.9714
0
LINE
8
BLACK
6
CONTINUOUS
10
176.571
20
-38.9714
11
176.643
21
-38.9
0
LINE
8
BLACK
6
CONTINUOUS
10
176.643
20
-38.9
11
176.786
21
-38.8286
0
LINE
8
BLACK
6
CONTINUOUS
10
179.071
20
-40.3286
11
179.071
21
-39.3286
0
LINE
8
BLACK
6
CONTINUOUS
10
179.071
20
-39.4714
11
179.143
21
-39.4
0
LINE
8
BLACK
6
CONTINUOUS
10
179.143
20
-39.4
11
179.286
21
-39.3286
0
LINE
8
BLACK
6
CONTINUOUS
10
179.286
20
-39.3286
11
179.5
21
-39.3286
0
LINE
8
BLACK
6
CONTINUOUS
10
179.5
20
-39.3286
11
179.643
21
-39.4
0
LINE
8
BLACK
6
CONTINUOUS
10
179.643
20
-39.4
11
179.714
21
-39.5429
0
LINE
8
BLACK
6
CONTINUOUS
10
179.714
20
-39.5429
11
179.714
21
-40.3286
0
LINE
8
BLACK
6
CONTINUOUS
10
179.714
20
-39.5429
11
179.786
21
-39.4
0
LINE
8
BLACK
6
CONTINUOUS
10
179.786
20
-39.4
11
179.929
21
-39.3286
0
LINE
8
BLACK
6
CONTINUOUS
10
179.929
20
-39.3286
11
180.143
21
-39.3286
0
LINE
8
BLACK
6
CONTINUOUS
10
180.143
20
-39.3286
11
180.286
21
-39.4
0
LINE
8
BLACK
6
CONTINUOUS
10
180.286
20
-39.4
11
180.357
21
-39.5429
0
LINE
8
BLACK
6
CONTINUOUS
10
180.357
20
-39.5429
11
180.357
21
-40.3286
0
LINE
8
BLACK
6
CONTINUOUS
10
181.071
20
-40.3286
11
181.071
21
-39.3286
0
LINE
8
BLACK
6
CONTINUOUS
10
181.071
20
-39.4714
11
181.143
21
-39.4
0
LINE
8
BLACK
6
CONTINUOUS
10
181.143
20
-39.4
11
181.286
21
-39.3286
0
LINE
8
BLACK
6
CONTINUOUS
10
181.286
20
-39.3286
11
181.5
21
-39.3286
0
LINE
8
BLACK
6
CONTINUOUS
10
181.5
20
-39.3286
11
181.643
21
-39.4
0
LINE
8
BLACK
6
CONTINUOUS
10
181.643
20
-39.4
11
181.714
21
-39.5429
0
LINE
8
BLACK
6
CONTINUOUS
10
181.714
20
-39.5429
11
181.714
21
-40.3286
0
LINE
8
BLACK
6
CONTINUOUS
10
181.714
20
-39.5429
11
181.786
21
-39.4
0
LINE
8
BLACK
6
CONTINUOUS
10
181.786
20
-39.4
11
181.929
21
-39.3286
0
LINE
8
BLACK
6
CONTINUOUS
10
181.929
20
-39.3286
11
182.143
21
-39.3286
0
LINE
8
BLACK
6
CONTINUOUS
10
182.143
20
-39.3286
11
182.286
21
-39.4
0
LINE
8
BLACK
6
CONTINUOUS
10
182.286
20
-39.4
11
182.357
21
-39.5429
0
LINE
8
BLACK
6
CONTINUOUS
10
182.357
20
-39.5429
11
182.357
21
-40.3286
0
LINE
8
BLACK
6
CONTINUOUS
10
60.5
20
-41
11
290.5
21
-41
0
LINE
8
BLACK
6
CONTINUOUS
10
60.5
20
-52.5
11
60.5
21
-38.3
0
LINE
8
BLACK
6
CONTINUOUS
10
290.5
20
-52.5
11
290.5
21
-38.3
0
LINE
8
BLACK
6
CONTINUOUS
10
290.5
20
-41
11
289.373
21
-41.5864
0
LINE
8
BLACK
6
CONTINUOUS
10
290.5
20
-41
11
289.373
21
-40.4136
0
LINE
8
BLACK
6
CONTINUOUS
10
60.5
20
-41
11
61.6265
21
-41.5864
0
LINE
8
BLACK
6
CONTINUOUS
10
60.5
20
-41
11
61.6265
21
-40.4136
0
LINE
8
BLACK
6
CONTINUOUS
10
67.2713
20
-155.5
11
132.729
21
-155.5
0
LINE
8
BLACK
6
CONTINUOUS
10
135.5
20
-150.7
11
132.729
21
-155.5
0
LINE
8
BLACK
6
CONTINUOUS
10
64.5
20
-150.7
11
67.2713
21
-155.5
0
LINE
8
BLACK
6
CONTINUOUS
10
135.5
20
-144.7
11
135.5
21
-150.7
0
LINE
8
BLACK
6
CONTINUOUS
10
64.5
20
-144.7
11
135.5
21
-144.7
0
LINE
8
BLACK
6
CONTINUOUS
10
64.5
20
-144.7
11
64.5
21
-150.7
0
CIRCLE
8
BLACK
10
76.2
20
-150.5
40
2
0
CIRCLE
8
BLACK
10
100
20
-150.5
40
2
0
CIRCLE
8
BLACK
10
123.8
20
-150.5
40
2
0
LINE
8
BLACK
6
CONTINUOUS
10
67.2713
20
-168.5
11
132.729
21
-168.5
0
LINE
8
BLACK
6
CONTINUOUS
10
135.5
20
-173.3
11
132.729
21
-168.5
0
LINE
8
BLACK
6
CONTINUOUS
10
64.5
20
-173.3
11
67.2713
21
-168.5
0
LINE
8
BLACK
6
CONTINUOUS
10
135.5
20
-179.3
11
135.5
21
-173.3
0
LINE
8
BLACK
6
CONTINUOUS
10
64.5
20
-179.3
11
135.5
21
-179.3
0
LINE
8
BLACK
6
CONTINUOUS
10
64.5
20
-179.3
11
64.5
21
-173.3
0
CIRCLE
8
BLACK
10
76.2
20
-173.5
40
2
0
CIRCLE
8
BLACK
10
100
20
-173.5
40
2
0
CIRCLE
8
BLACK
10
123.8
20
-173.5
40
2
0
LINE
8
BLACK
6
CONTINUOUS
10
67.2713
20
-131.3
11
132.729
21
-131.3
0
LINE
8
BLACK
6
CONTINUOUS
10
135.5
20
-126.5
11
132.729
21
-131.3
0
LINE
8
BLACK
6
CONTINUOUS
10
64.5
20
-126.5
11
67.2713
21
-131.3
0
LINE
8
BLACK
6
CONTINUOUS
10
135.5
20
-120.5
11
135.5
21
-126.5
0
LINE
8
BLACK
6
CONTINUOUS
10
64.5
20
-120.5
11
135.5
21
-120.5
0
LINE
8
BLACK
6
CONTINUOUS
10
64.5
20
-120.5
11
64.5
21
-126.5
0
CIRCLE
8
BLACK
10
76.2
20
-126.3
40
2
0
CIRCLE
8
BLACK
10
100
20
-126.3
40
2
0
CIRCLE
8
BLACK
10
123.8
20
-126.3
40
2
0
LINE
8
BLACK
6
CONTINUOUS
10
155
20
-174
11
45
21
-174
0
LINE
8
BLACK
6
CONTINUOUS
10
45
20
-126
11
155
21
-126
0
LINE
8
BLACK
6
CONTINUOUS
10
146.5
20
-117.5
11
146.5
21
-182.5
0
LINE
8
BLACK
6
CONTINUOUS
10
53.5
20
-117.5
11
53.5
21
-182.5
0
LINE
8
BLACK
6
CONTINUOUS
10
45
20
-150
11
155
21
-150
0
LINE
8
BLACK
6
CONTINUOUS
10
100
20
-182.5
11
100
21
-117.5
0
LINE
8
BLACK
6
CONTINUOUS
10
409.05
20
-181
11
409.05
21
-119
0
LINE
8
BLACK
6
CONTINUOUS
10
286.95
20
-119
11
286.95
21
-181
0
LINE
8
BLACK
6
CONTINUOUS
10
425
20
-169.3
11
409.05
21
-169.3
0
CIRCLE
8
BLACK
10
403
20
-175
40
2.75
0
CIRCLE
8
BLACK
10
403
20
-125
40
2.75
0
LINE
8
BLACK
6
CONTINUOUS
10
273
20
-152.7
11
273
21
-169.3
0
LINE
8
BLACK
6
CONTINUOUS
10
286.95
20
-119
11
409.05
21
-119
0
LINE
8
BLACK
6
CONTINUOUS
10
425
20
-152.7
11
425
21
-169.3
0
LINE
8
BLACK
6
CONTINUOUS
10
348
20
-181
11
348
21
-119
0
LINE
8
BLACK
6
CONTINUOUS
10
286.95
20
-181
11
409.05
21
-181
0
LINE
8
BLACK
6
CONTINUOUS
10
425
20
-130.7
11
425
21
-147.3
0
LINE
8
BLACK
6
CONTINUOUS
10
273
20
-150
11
425
21
-150
0
CIRCLE
8
BLACK
10
279.5
20
-139
40
3
0
LINE
8
BLACK
6
CONTINUOUS
10
273
20
-147.3
11
286.95
21
-147.3
0
LINE
8
BLACK
6
CONTINUOUS
10
409.05
20
-147.3
11
425
21
-147.3
0
CIRCLE
8
BLACK
10
416.5
20
-161
40
3
0
CIRCLE
8
BLACK
10
279.5
20
-161
40
3
0
CIRCLE
8
BLACK
10
293
20
-125
40
2.75
0
LINE
8
BLACK
6
CONTINUOUS
10
286.95
20
-152.7
11
273
21
-152.7
0
LINE
8
BLACK
6
CONTINUOUS
10
425
20
-152.7
11
409.05
21
-152.7
0
LINE
8
BLACK
6
CONTINUOUS
10
409.05
20
-130.7
11
425
21
-130.7
0
LINE
8
BLACK
6
CONTINUOUS
10
273
20
-130.7
11
273
21
-147.3
0
LINE
8
BLACK
6
CONTINUOUS
10
273
20
-130.7
11
286.95
21
-130.7
0
LINE
8
BLACK
6
CONTINUOUS
10
286.95
20
-169.3
11
273
21
-169.3
0
CIRCLE
8
BLACK
10
416.5
20
-139
40
3
0
CIRCLE
8
BLACK
10
293
20
-175
40
2.75
0
LINE
8
BLACK
6
CONTINUOUS
10
409.05
20
-113.9
11
409.05
21
-51.9
0
LINE
8
BLACK
6
CONTINUOUS
10
286.95
20
-51.9
11
286.95
21
-113.9
0
LINE
8
BLACK
6
CONTINUOUS
10
425
20
-102.2
11
409.05
21
-102.2
0
CIRCLE
8
BLACK
10
403
20
-107.9
40
2.75
0
CIRCLE
8
BLACK
10
403
20
-57.9
40
2.75
0
LINE
8
BLACK
6
CONTINUOUS
10
273
20
-85.6
11
273
21
-102.2
0
LINE
8
BLACK
6
CONTINUOUS
10
286.95
20
-51.9
11
409.05
21
-51.9
0
LINE
8
BLACK
6
CONTINUOUS
10
425
20
-85.6
11
425
21
-102.2
0
LINE
8
BLACK
6
CONTINUOUS
10
348
20
-113.9
11
348
21
-51.9
0
LINE
8
BLACK
6
CONTINUOUS
10
286.95
20
-113.9
11
409.05
21
-113.9
0
LINE
8
BLACK
6
CONTINUOUS
10
425
20
-63.6
11
425
21
-80.2
0
LINE
8
BLACK
6
CONTINUOUS
10
273
20
-82.9
11
425
21
-82.9
0
CIRCLE
8
BLACK
10
279.5
20
-71.9
40
3
0
LINE
8
BLACK
6
CONTINUOUS
10
273
20
-80.2
11
286.95
21
-80.2
0
LINE
8
BLACK
6
CONTINUOUS
10
409.05
20
-80.2
11
425
21
-80.2
0
CIRCLE
8
BLACK
10
416.5
20
-93.9
40
3
0
CIRCLE
8
BLACK
10
279.5
20
-93.9
40
3
0
CIRCLE
8
BLACK
10
293
20
-57.9
40
2.75
0
LINE
8
BLACK
6
CONTINUOUS
10
286.95
20
-85.6
11
273
21
-85.6
0
LINE
8
BLACK
6
CONTINUOUS
10
425
20
-85.6
11
409.05
21
-85.6
0
LINE
8
BLACK
6
CONTINUOUS
10
409.05
20
-63.6
11
425
21
-63.6
0
LINE
8
BLACK
6
CONTINUOUS
10
273
20
-63.6
11
273
21
-80.2
0
LINE
8
BLACK
6
CONTINUOUS
10
273
20
-63.6
11
286.95
21
-63.6
0
LINE
8
BLACK
6
CONTINUOUS
10
286.95
20
-102.2
11
273
21
-102.2
0
CIRCLE
8
BLACK
10
416.5
20
-71.9
40
3
0
CIRCLE
8
BLACK
10
293
20
-107.9
40
2.75
0
LINE
8
BLACK
6
CONTINUOUS
10
67.2713
20
-222
11
132.729
21
-222
0
LINE
8
BLACK
6
CONTINUOUS
10
135.5
20
-217.2
11
132.729
21
-222
0
LINE
8
BLACK
6
CONTINUOUS
10
64.5
20
-217.2
11
67.2713
21
-222
0
LINE
8
BLACK
6
CONTINUOUS
10
135.5
20
-211.2
11
135.5
21
-217.2
0
LINE
8
BLACK
6
CONTINUOUS
10
64.5
20
-211.2
11
135.5
21
-211.2
0
LINE
8
BLACK
6
CONTINUOUS
10
64.5
20
-211.2
11
64.5
21
-217.2
0
CIRCLE
8
BLACK
10
76.2
20
-217
40
2
0
CIRCLE
8
BLACK
10
100
20
-217
40
2
0
CIRCLE
8
BLACK
10
123.8
20
-217
40
2
0
LINE
8
BLACK
6
CONTINUOUS
10
67.2713
20
-235
11
132.729
21
-235
0
LINE
8
BLACK
6
CONTINUOUS
10
135.5
20
-239.8
11
132.729
21
-235
0
LINE
8
BLACK
6
CONTINUOUS
10
64.5
20
-239.8
11
67.2713
21
-235
0
LINE
8
BLACK
6
CONTINUOUS
10
135.5
20
-245.8
11
135.5
21
-239.8
0
LINE
8
BLACK
6
CONTINUOUS
10
64.5
20
-245.8
11
135.5
21
-245.8
0
LINE
8
BLACK
6
CONTINUOUS
10
64.5
20
-245.8
11
64.5
21
-239.8
0
CIRCLE
8
BLACK
10
76.2
20
-240
40
2
0
CIRCLE
8
BLACK
10
100
20
-240
40
2
0
CIRCLE
8
BLACK
10
123.8
20
-240
40
2
0
LINE
8
BLACK
6
CONTINUOUS
10
67.2713
20
-197.8
11
132.729
21
-197.8
0
LINE
8
BLACK
6
CONTINUOUS
10
135.5
20
-193
11
132.729
21
-197.8
0
LINE
8
BLACK
6
CONTINUOUS
10
64.5
20
-193
11
67.2713
21
-197.8
0
LINE
8
BLACK
6
CONTINUOUS
10
135.5
20
-187
11
135.5
21
-193
0
LINE
8
BLACK
6
CONTINUOUS
10
64.5
20
-187
11
135.5
21
-187
0
LINE
8
BLACK
6
CONTINUOUS
10
64.5
20
-187
11
64.5
21
-193
0
CIRCLE
8
BLACK
10
76.2
20
-192.8
40
2
0
CIRCLE
8
BLACK
10
100
20
-192.8
40
2
0
CIRCLE
8
BLACK
10
123.8
20
-192.8
40
2
0
LINE
8
BLACK
6
CONTINUOUS
10
155
20
-240.5
11
45
21
-240.5
0
LINE
8
BLACK
6
CONTINUOUS
10
45
20
-192.5
11
155
21
-192.5
0
LINE
8
BLACK
6
CONTINUOUS
10
146.5
20
-184
11
146.5
21
-249
0
LINE
8
BLACK
6
CONTINUOUS
10
53.5
20
-184
11
53.5
21
-249
0
LINE
8
BLACK
6
CONTINUOUS
10
45
20
-216.5
11
155
21
-216.5
0
LINE
8
BLACK
6
CONTINUOUS
10
100
20
-249
11
100
21
-184
0
LINE
8
BLACK
6
CONTINUOUS
10
67.2713
20
-222
11
132.729
21
-222
0
LINE
8
BLACK
6
CONTINUOUS
10
135.5
20
-217.2
11
132.729
21
-222
0
LINE
8
BLACK
6
CONTINUOUS
10
64.5
20
-217.2
11
67.2713
21
-222
0
LINE
8
BLACK
6
CONTINUOUS
10
135.5
20
-211.2
11
135.5
21
-217.2
0
LINE
8
BLACK
6
CONTINUOUS
10
64.5
20
-211.2
11
135.5
21
-211.2
0
LINE
8
BLACK
6
CONTINUOUS
10
64.5
20
-211.2
11
64.5
21
-217.2
0
CIRCLE
8
BLACK
10
76.2
20
-217
40
2
0
CIRCLE
8
BLACK
10
100
20
-217
40
2
0
CIRCLE
8
BLACK
10
123.8
20
-217
40
2
0
LINE
8
BLACK
6
CONTINUOUS
10
67.2713
20
-235
11
132.729
21
-235
0
LINE
8
BLACK
6
CONTINUOUS
10
135.5
20
-239.8
11
132.729
21
-235
0
LINE
8
BLACK
6
CONTINUOUS
10
64.5
20
-239.8
11
67.2713
21
-235
0
LINE
8
BLACK
6
CONTINUOUS
10
135.5
20
-245.8
11
135.5
21
-239.8
0
LINE
8
BLACK
6
CONTINUOUS
10
64.5
20
-245.8
11
135.5
21
-245.8
0
LINE
8
BLACK
6
CONTINUOUS
10
64.5
20
-245.8
11
64.5
21
-239.8
0
CIRCLE
8
BLACK
10
76.2
20
-240
40
2
0
CIRCLE
8
BLACK
10
100
20
-240
40
2
0
CIRCLE
8
BLACK
10
123.8
20
-240
40
2
0
LINE
8
BLACK
6
CONTINUOUS
10
67.2713
20
-197.8
11
132.729
21
-197.8
0
LINE
8
BLACK
6
CONTINUOUS
10
135.5
20
-193
11
132.729
21
-197.8
0
LINE
8
BLACK
6
CONTINUOUS
10
64.5
20
-193
11
67.2713
21
-197.8
0
LINE
8
BLACK
6
CONTINUOUS
10
135.5
20
-187
11
135.5
21
-193
0
LINE
8
BLACK
6
CONTINUOUS
10
64.5
20
-187
11
135.5
21
-187
0
LINE
8
BLACK
6
CONTINUOUS
10
64.5
20
-187
11
64.5
21
-193
0
CIRCLE
8
BLACK
10
76.2
20
-192.8
40
2
0
CIRCLE
8
BLACK
10
100
20
-192.8
40
2
0
CIRCLE
8
BLACK
10
123.8
20
-192.8
40
2
0
LINE
8
BLACK
6
CONTINUOUS
10
155
20
-240.5
11
45
21
-240.5
0
LINE
8
BLACK
6
CONTINUOUS
10
45
20
-192.5
11
155
21
-192.5
0
LINE
8
BLACK
6
CONTINUOUS
10
146.5
20
-184
11
146.5
21
-249
0
LINE
8
BLACK
6
CONTINUOUS
10
53.5
20
-184
11
53.5
21
-249
0
LINE
8
BLACK
6
CONTINUOUS
10
45
20
-216.5
11
155
21
-216.5
0
LINE
8
BLACK
6
CONTINUOUS
10
100
20
-249
11
100
21
-184
0
LINE
8
BLACK
6
CONTINUOUS
10
67.2713
20
-89.05
11
132.729
21
-89.05
0
LINE
8
BLACK
6
CONTINUOUS
10
135.5
20
-84.25
11
132.729
21
-89.05
0
LINE
8
BLACK
6
CONTINUOUS
10
64.5
20
-84.25
11
67.2713
21
-89.05
0
LINE
8
BLACK
6
CONTINUOUS
10
135.5
20
-78.25
11
135.5
21
-84.25
0
LINE
8
BLACK
6
CONTINUOUS
10
64.5
20
-78.25
11
135.5
21
-78.25
0
LINE
8
BLACK
6
CONTINUOUS
10
64.5
20
-78.25
11
64.5
21
-84.25
0
CIRCLE
8
BLACK
10
76.2
20
-84.05
40
2
0
CIRCLE
8
BLACK
10
100
20
-84.05
40
2
0
CIRCLE
8
BLACK
10
123.8
20
-84.05
40
2
0
LINE
8
BLACK
6
CONTINUOUS
10
67.2713
20
-102.05
11
132.729
21
-102.05
0
LINE
8
BLACK
6
CONTINUOUS
10
135.5
20
-106.85
11
132.729
21
-102.05
0
LINE
8
BLACK
6
CONTINUOUS
10
64.5
20
-106.85
11
67.2713
21
-102.05
0
LINE
8
BLACK
6
CONTINUOUS
10
135.5
20
-112.85
11
135.5
21
-106.85
0
LINE
8
BLACK
6
CONTINUOUS
10
64.5
20
-112.85
11
135.5
21
-112.85
0
LINE
8
BLACK
6
CONTINUOUS
10
64.5
20
-112.85
11
64.5
21
-106.85
0
CIRCLE
8
BLACK
10
76.2
20
-107.05
40
2
0
CIRCLE
8
BLACK
10
100
20
-107.05
40
2
0
CIRCLE
8
BLACK
10
123.8
20
-107.05
40
2
0
LINE
8
BLACK
6
CONTINUOUS
10
67.2713
20
-64.85
11
132.729
21
-64.85
0
LINE
8
BLACK
6
CONTINUOUS
10
135.5
20
-60.05
11
132.729
21
-64.85
0
LINE
8
BLACK
6
CONTINUOUS
10
64.5
20
-60.05
11
67.2713
21
-64.85
0
LINE
8
BLACK
6
CONTINUOUS
10
135.5
20
-54.05
11
135.5
21
-60.05
0
LINE
8
BLACK
6
CONTINUOUS
10
64.5
20
-54.05
11
135.5
21
-54.05
0
LINE
8
BLACK
6
CONTINUOUS
10
64.5
20
-54.05
11
64.5
21
-60.05
0
CIRCLE
8
BLACK
10
76.2
20
-59.85
40
2
0
CIRCLE
8
BLACK
10
100
20
-59.85
40
2
0
CIRCLE
8
BLACK
10
123.8
20
-59.85
40
2
0
LINE
8
BLACK
6
CONTINUOUS
10
155
20
-107.55
11
45
21
-107.55
0
LINE
8
BLACK
6
CONTINUOUS
10
45
20
-59.55
11
155
21
-59.55
0
LINE
8
BLACK
6
CONTINUOUS
10
146.5
20
-51.05
11
146.5
21
-116.05
0
LINE
8
BLACK
6
CONTINUOUS
10
53.5
20
-51.05
11
53.5
21
-116.05
0
LINE
8
BLACK
6
CONTINUOUS
10
45
20
-83.55
11
155
21
-83.55
0
LINE
8
BLACK
6
CONTINUOUS
10
100
20
-116.05
11
100
21
-51.05
0
LINE
8
BLACK
6
CONTINUOUS
10
409.05
20
-248.1
11
409.05
21
-186.1
0
LINE
8
BLACK
6
CONTINUOUS
10
286.95
20
-186.1
11
286.95
21
-248.1
0
LINE
8
BLACK
6
CONTINUOUS
10
425
20
-236.4
11
409.05
21
-236.4
0
CIRCLE
8
BLACK
10
403
20
-242.1
40
2.75
0
CIRCLE
8
BLACK
10
403
20
-192.1
40
2.75
0
LINE
8
BLACK
6
CONTINUOUS
10
273
20
-219.8
11
273
21
-236.4
0
LINE
8
BLACK
6
CONTINUOUS
10
286.95
20
-186.1
11
409.05
21
-186.1
0
LINE
8
BLACK
6
CONTINUOUS
10
425
20
-219.8
11
425
21
-236.4
0
LINE
8
BLACK
6
CONTINUOUS
10
348
20
-248.1
11
348
21
-186.1
0
LINE
8
BLACK
6
CONTINUOUS
10
286.95
20
-248.1
11
409.05
21
-248.1
0
LINE
8
BLACK
6
CONTINUOUS
10
425
20
-197.8
11
425
21
-214.4
0
LINE
8
BLACK
6
CONTINUOUS
10
273
20
-217.1
11
425
21
-217.1
0
CIRCLE
8
BLACK
10
279.5
20
-206.1
40
3
0
LINE
8
BLACK
6
CONTINUOUS
10
273
20
-214.4
11
286.95
21
-214.4
0
LINE
8
BLACK
6
CONTINUOUS
10
409.05
20
-214.4
11
425
21
-214.4
0
CIRCLE
8
BLACK
10
416.5
20
-228.1
40
3
0
CIRCLE
8
BLACK
10
279.5
20
-228.1
40
3
0
CIRCLE
8
BLACK
10
293
20
-192.1
40
2.75
0
LINE
8
BLACK
6
CONTINUOUS
10
286.95
20
-219.8
11
273
21
-219.8
0
LINE
8
BLACK
6
CONTINUOUS
10
425
20
-219.8
11
409.05
21
-219.8
0
LINE
8
BLACK
6
CONTINUOUS
10
409.05
20
-197.8
11
425
21
-197.8
0
LINE
8
BLACK
6
CONTINUOUS
10
273
20
-197.8
11
273
21
-214.4
0
LINE
8
BLACK
6
CONTINUOUS
10
273
20
-197.8
11
286.95
21
-197.8
0
LINE
8
BLACK
6
CONTINUOUS
10
286.95
20
-236.4
11
273
21
-236.4
0
CIRCLE
8
BLACK
10
416.5
20
-206.1
40
3
0
CIRCLE
8
BLACK
10
293
20
-242.1
40
2.75
  0
ENDSEC
  0
EOF
