M48
;DRILL file {KiCad 5.0.0-rc2-dev-unknown-d906acc~62~ubuntu17.10.1} date Thu Mar 15 16:12:49 2018
;FORMAT={-:-/ absolute / inch / decimal}
FMAT,2
INCH,TZ
T1C0.0157
T2C0.0236
T3C0.0315
T4C0.0320
T5C0.0394
T6C0.0400
T7C0.0472
T8C0.0551
T9C0.1693
%
G90
G05
M72
T1
X-1.91Y-0.93
X-1.825Y-0.845
X-1.825Y-1.015
X-1.74Y-0.93
X-1.375Y1.05
X-1.32Y0.625
X-1.32Y0.525
X-1.32Y0.425
X-1.32Y0.325
X-1.32Y0.225
X-1.32Y0.125
X-1.32Y-0.42
X-1.32Y-0.52
X-1.32Y-0.62
X-1.32Y-0.72
X-1.32Y-0.82
X-1.32Y-0.92
X-1.22Y0.625
X-1.22Y0.525
X-1.22Y0.425
X-1.22Y0.325
X-1.22Y0.225
X-1.22Y0.125
X-1.22Y-0.42
X-1.22Y-0.52
X-1.22Y-0.62
X-1.22Y-0.72
X-1.22Y-0.82
X-1.22Y-0.92
X-1.2Y1.13
X-1.12Y0.625
X-1.12Y0.525
X-1.12Y0.425
X-1.12Y0.325
X-1.12Y0.225
X-1.12Y0.125
X-1.12Y-0.42
X-1.12Y-0.52
X-1.12Y-0.62
X-1.12Y-0.72
X-1.12Y-0.82
X-1.12Y-0.92
X-1.055Y0.985
X-1.025Y1.35
X-1.02Y0.625
X-1.02Y0.525
X-1.02Y0.425
X-1.02Y0.325
X-1.02Y0.225
X-1.02Y0.125
X-1.02Y-0.42
X-1.02Y-0.52
X-1.02Y-0.62
X-1.02Y-0.72
X-1.02Y-0.82
X-1.02Y-0.92
X-0.975Y1.395
X-0.92Y0.625
X-0.92Y0.525
X-0.92Y0.425
X-0.92Y0.325
X-0.92Y0.225
X-0.92Y0.125
X-0.92Y-0.42
X-0.92Y-0.52
X-0.92Y-0.62
X-0.92Y-0.72
X-0.92Y-0.82
X-0.92Y-0.92
X-0.82Y0.625
X-0.82Y0.525
X-0.82Y0.425
X-0.82Y0.325
X-0.82Y0.225
X-0.82Y0.125
X-0.82Y-0.42
X-0.82Y-0.52
X-0.82Y-0.62
X-0.82Y-0.72
X-0.82Y-0.82
X-0.82Y-0.92
X-0.72Y0.625
X-0.72Y0.525
X-0.72Y0.425
X-0.72Y0.325
X-0.72Y0.225
X-0.72Y0.125
X-0.72Y-0.42
X-0.72Y-0.52
X-0.72Y-0.62
X-0.72Y-0.72
X-0.72Y-0.82
X-0.72Y-0.92
X-0.43Y0.375
X-0.43Y0.275
X-0.335Y2.15
X-0.335Y2.05
X-0.29Y-0.39
X-0.225Y0.33
X-0.215Y0.575
X-0.045Y-0.54
X-0.04Y-0.38
X0.045Y-1.17
X0.105Y0.9
X0.24Y0.485
X0.26Y2.57
X0.2983Y2.4
X0.2983Y2.
X0.3405Y1.595
X0.3405Y1.55
X0.35Y1.45
X0.35Y1.35
X0.35Y-0.66
X0.38Y1.8195
X0.38Y1.76
X0.42Y-0.72
X0.42Y-0.78
X0.425Y2.15
X0.44Y0.45
X0.45Y0.025
X0.47Y-0.68
X0.49Y0.29
X0.49Y-0.29
X0.4955Y0.85
X0.52Y-0.755
X0.54Y0.295
X0.55Y-0.72
X0.56Y0.61
X0.57Y1.615
X0.6Y-0.5725
X0.61Y0.12
X0.61Y0.07
X0.63Y-0.71
X0.6342Y1.8991
X0.64Y1.755
X0.655Y0.44
X0.66Y0.23
X0.7002Y0.0748
X0.71Y-0.0037
X0.72Y-0.23
X0.725Y1.
X0.74Y1.4205
X0.76Y0.97
X0.77Y-0.29
X0.8344Y1.625
X0.9014Y1.625
X0.925Y1.2437
X0.925Y1.2
X0.9433Y1.1183
X0.96Y-0.93
X1.Y0.535
X1.0016Y0.4834
X1.025Y1.3
X1.025Y0.235
X1.04Y0.67
X1.0647Y1.7998
X1.075Y0.115
X1.085Y0.385
X1.1Y1.225
X1.15Y0.675
X1.18Y0.285
X1.28Y1.8195
X1.485Y2.525
X1.59Y1.055
X1.6453Y2.3897
X1.65Y0.2
X1.665Y1.49
X1.7261Y-0.1194
X1.88Y-0.535
X1.93Y1.54
X1.98Y1.3705
X2.Y1.305
X2.Y1.09
X2.005Y1.24
X2.005Y1.185
X2.005Y-0.755
X2.015Y-0.16
X2.105Y2.755
X2.125Y2.025
X2.13Y2.5395
X2.2483Y2.4408
X2.33Y0.69
X2.36Y2.29
X2.36Y1.68
X2.37Y0.6795
X2.38Y1.76
X2.381Y0.7705
X2.3984Y-0.9516
X2.4Y1.975
X2.4Y1.525
X2.4Y1.445
X2.4Y-0.5
X2.4Y0.3
X2.435Y1.24
X2.455Y2.775
X2.485Y1.125
X2.495Y2.775
X2.52Y2.825
X2.525Y2.3591
X2.5805Y1.525
X2.6Y0.65
X2.6Y0.3
X2.6Y-0.95
X2.604Y0.7795
X2.61Y2.03
X2.61Y0.95
X2.61Y-0.3
X2.61Y-0.465
X2.62Y2.3626
X2.675Y1.925
X2.675Y-0.55
X2.7054Y2.7789
X2.715Y1.27
X2.725Y0.65
X2.7291Y-0.5491
X2.7324Y2.2674
X2.74Y2.08
X2.74Y0.83
X2.74Y-0.415
X2.7445Y2.775
X2.75Y1.72
X2.75Y0.335
X2.765Y1.585
X2.7671Y-0.915
X2.77Y2.48
X2.7878Y2.775
X2.8202Y-0.6545
X2.885Y1.655
X2.885Y-0.625
X2.906Y2.7041
X2.925Y2.035
X2.926Y0.7817
X2.928Y-0.4683
X2.955Y2.405
X3.03Y2.1183
X3.03Y2.075
X3.03Y0.825
X3.03Y-0.425
X3.0306Y-0.3817
X3.0317Y0.8683
X3.08Y2.155
X3.08Y0.915
X3.08Y-0.345
X3.09Y1.65
X3.09Y0.4
X3.09Y-0.85
X3.4179Y-0.175
X3.4179Y1.35
X3.65Y1.825
X3.755Y-0.74
X3.755Y-0.8
X3.76Y-0.41
X3.77Y2.395
X3.77Y1.995
X3.77Y1.595
X3.78Y1.09
X3.78Y0.69
X3.785Y0.29
X3.88Y-0.77
X3.9Y1.59
X3.9Y1.22
X3.9Y-0.835
X3.905Y1.98
X3.905Y0.815
X3.905Y0.415
X3.905Y-0.43
X3.91Y2.39
X3.92Y2.795
X3.925Y2.725
X3.925Y2.31
X3.925Y1.91
X3.925Y0.475
X3.925Y0.075
X3.925Y-0.075
X3.925Y-0.495
X3.93Y-1.125
X3.945Y1.43
X3.97Y3.135
X4.075Y2.9645
X4.075Y0.815
X4.075Y0.415
X4.08Y1.58
X4.08Y-0.43
X4.08Y-0.835
X4.085Y1.98
X4.09Y2.38
X4.0905Y2.795
T2
X-0.427Y-1.
X-0.3898Y-0.9102
X-0.3898Y-1.0898
X-0.3Y-0.873
X-0.3Y-1.127
X-0.2102Y-0.9102
X-0.2102Y-1.0898
X-0.173Y-1.
X-1.902Y3.
X-1.8648Y3.0898
X-1.8648Y2.9102
X-1.775Y3.127
X-1.775Y2.873
X-1.6852Y3.0898
X-1.6852Y2.9102
X-1.648Y3.
X3.573Y-1.
X3.6102Y-0.9102
X3.6102Y-1.0898
X3.7Y-0.873
X3.7Y-1.127
X3.7898Y-0.9102
X3.7898Y-1.0898
X3.827Y-1.
X3.548Y3.
X3.5852Y3.0898
X3.5852Y2.9102
X3.675Y3.127
X3.675Y2.873
X3.7648Y3.0898
X3.7648Y2.9102
X3.802Y3.
T3
X-1.405Y-1.095
X-1.335Y-1.095
X-1.265Y-1.095
X-0.345Y2.25
X-0.14Y-0.725
X-0.07Y-0.725
X0.09Y-0.25
X4.55Y-0.45
X4.55Y-0.75
X4.55Y1.55
X4.55Y1.25
X4.55Y1.95
X4.55Y1.65
X4.55Y-0.85
X4.55Y-1.15
X4.55Y2.35
X4.55Y2.05
X4.55Y1.15
X4.55Y0.85
X4.55Y0.75
X4.55Y0.45
X4.55Y2.75
X4.55Y2.45
X4.55Y-0.05
X4.55Y-0.35
X4.55Y3.15
X4.55Y2.85
X4.55Y0.35
X4.55Y0.05
T4
X-0.375Y-0.3
X-0.275Y-0.3
X2.45Y1.825
X2.55Y1.825
X2.135Y-0.55
X2.235Y-0.55
X2.45Y1.65
X2.55Y1.65
X3.75Y-0.2
X3.85Y-0.2
X3.75Y0.6
X3.85Y0.6
X2.45Y0.425
X2.55Y0.425
X-0.375Y-0.05
X-0.275Y-0.05
X2.45Y2.25
X2.55Y2.25
X2.45Y1.
X2.55Y1.
X3.35Y2.925
X3.45Y2.925
X3.35Y2.775
X3.45Y2.775
X2.135Y-0.2
X2.235Y-0.2
X2.135Y-0.725
X2.235Y-0.725
X2.925Y1.5
X3.025Y1.5
X2.135Y-0.375
X2.235Y-0.375
X-0.375Y0.075
X-0.275Y0.075
X2.45Y-0.25
X2.55Y-0.25
X3.75Y0.2
X3.85Y0.2
X0.85Y0.775
X0.85Y0.675
X2.45Y-0.65
X2.55Y-0.65
X2.925Y0.25
X3.025Y0.25
X2.925Y-1.
X3.025Y-1.
X3.35Y3.075
X3.45Y3.075
X3.75Y2.2
X3.85Y2.2
X3.75Y2.6
X3.85Y2.6
X2.45Y-0.825
X2.55Y-0.825
X2.45Y1.325
X2.55Y1.325
X3.75Y2.775
X3.85Y2.775
X3.75Y-0.6
X3.85Y-0.6
X0.675Y0.775
X0.675Y0.675
X3.75Y1.8
X3.85Y1.8
X3.35Y2.625
X3.45Y2.625
X3.75Y1.
X3.85Y1.
X2.45Y0.6
X2.55Y0.6
X-0.375Y-0.175
X-0.275Y-0.175
X3.75Y1.4
X3.85Y1.4
X-0.375Y1.05
X-0.275Y1.05
T5
X-0.05Y2.45
X-0.05Y2.35
X-0.05Y2.25
X-0.05Y2.15
X-0.05Y2.05
X-0.05Y1.95
X-0.05Y1.85
X-0.05Y1.75
X0.05Y2.45
X0.05Y2.35
X0.05Y2.25
X0.05Y2.15
X0.05Y2.05
X0.05Y1.95
X0.05Y1.85
X0.05Y1.75
X1.75Y2.81
X1.75Y2.71
X1.75Y2.61
X1.75Y2.51
X1.75Y2.41
X1.75Y2.31
X1.75Y2.21
X1.75Y2.11
X1.75Y2.01
X1.75Y1.91
X1.85Y2.81
X1.85Y2.71
X1.85Y2.61
X1.85Y2.51
X1.85Y2.41
X1.85Y2.31
X1.85Y2.21
X1.85Y2.11
X1.85Y2.01
X1.85Y1.91
X4.25Y2.75
X4.25Y2.65
X4.25Y2.55
X4.25Y2.45
X4.25Y-0.05
X4.25Y-0.15
X4.25Y-0.25
X4.25Y-0.35
X4.25Y3.15
X4.25Y3.05
X4.25Y2.95
X4.25Y2.85
X4.25Y0.35
X4.25Y0.25
X4.25Y0.15
X4.25Y0.05
X1.75Y1.75
X1.75Y1.65
X1.75Y1.55
X1.75Y1.45
X1.75Y1.35
X1.75Y1.25
X1.75Y1.15
X1.75Y1.05
X1.75Y0.95
X1.75Y0.85
X1.75Y0.75
X1.75Y0.65
X1.75Y0.55
X1.75Y0.45
X1.75Y0.35
X1.75Y0.25
X1.75Y0.15
X1.85Y1.75
X1.85Y1.65
X1.85Y1.55
X1.85Y1.45
X1.85Y1.35
X1.85Y1.25
X1.85Y1.15
X1.85Y1.05
X1.85Y0.95
X1.85Y0.85
X1.85Y0.75
X1.85Y0.65
X1.85Y0.55
X1.85Y0.45
X1.85Y0.35
X1.85Y0.25
X1.85Y0.15
X4.25Y-0.45
X4.25Y-0.55
X4.25Y-0.65
X4.25Y-0.75
X4.25Y1.55
X4.25Y1.45
X4.25Y1.35
X4.25Y1.25
X4.25Y1.95
X4.25Y1.85
X4.25Y1.75
X4.25Y1.65
X4.25Y-0.85
X4.25Y-0.95
X4.25Y-1.05
X4.25Y-1.15
X4.25Y2.35
X4.25Y2.25
X4.25Y2.15
X4.25Y2.05
X4.25Y1.15
X4.25Y1.05
X4.25Y0.95
X4.25Y0.85
X4.25Y0.75
X4.25Y0.65
X4.25Y0.55
X4.25Y0.45
X-0.05Y1.55
X-0.05Y1.45
X-0.05Y1.35
X-0.05Y1.25
X-0.05Y1.15
X-0.05Y1.05
X-0.05Y0.95
X-0.05Y0.85
X-0.05Y0.75
X-0.05Y0.65
X-0.05Y0.55
X-0.05Y0.45
X-0.05Y0.35
X-0.05Y0.25
X-0.05Y0.15
X0.05Y1.55
X0.05Y1.45
X0.05Y1.35
X0.05Y1.25
X0.05Y1.15
X0.05Y1.05
X0.05Y0.95
X0.05Y0.85
X0.05Y0.75
X0.05Y0.65
X0.05Y0.55
X0.05Y0.45
X0.05Y0.35
X0.05Y0.25
X0.05Y0.15
T6
X2.34Y3.035
X2.34Y2.935
X2.44Y3.035
X2.44Y2.935
X2.54Y3.035
X2.54Y2.935
X2.64Y3.035
X2.64Y2.935
X2.74Y3.035
X2.74Y2.935
X2.84Y3.035
X2.84Y2.935
X2.94Y3.035
X2.94Y2.935
X3.04Y3.035
X3.04Y2.935
X3.25Y-0.15
X3.25Y-0.25
X3.25Y-0.35
X3.25Y-0.45
X3.25Y-0.55
X3.25Y-0.65
X3.25Y-0.75
X3.25Y-0.85
X3.35Y-0.15
X3.35Y-0.25
X3.35Y-0.35
X3.35Y-0.45
X3.35Y-0.55
X3.35Y-0.65
X3.35Y-0.75
X3.35Y-0.85
X3.25Y2.35
X3.25Y2.25
X3.25Y2.15
X3.25Y2.05
X3.25Y1.95
X3.25Y1.85
X3.25Y1.75
X3.25Y1.65
X3.35Y2.35
X3.35Y2.25
X3.35Y2.15
X3.35Y2.05
X3.35Y1.95
X3.35Y1.85
X3.35Y1.75
X3.35Y1.65
X3.25Y1.1
X3.25Y1.
X3.25Y0.9
X3.25Y0.8
X3.25Y0.7
X3.25Y0.6
X3.25Y0.5
X3.25Y0.4
X3.35Y1.1
X3.35Y1.
X3.35Y0.9
X3.35Y0.8
X3.35Y0.7
X3.35Y0.6
X3.35Y0.5
X3.35Y0.4
T7
X-1.75Y1.2
X-1.75Y1.0622
X-1.75Y0.9244
X-1.75Y0.7866
X-1.75Y1.4878
X-1.75Y1.35
T8
X-1.55Y0.375
X-1.55Y0.175
X-1.55Y-0.025
X-1.55Y-0.225
T9
X-0.3Y-1.
X-1.775Y3.
X3.7Y-1.
X3.675Y3.
T0
M30
