M48
;DRILL file {KiCad (2018-01-25 revision 89a5a84af)-makepkg} date Mon Feb 26 20:41:06 2018
;FORMAT={-:-/ absolute / metric / decimal}
FMAT,2
METRIC,TZ
T1C0.400
T2C0.600
T3C0.650
T4C0.800
T5C0.813
T6C1.000
T7C1.016
T8C1.200
T9C1.400
T10C3.200
T11C4.300
T12C0.900
T13C1.500
T14C2.250
T15C2.400
T16C3.200
%
G90
G05
M71
T1
X-41.148Y43.688
X-40.64Y69.85
X-34.925Y26.67
X-33.528Y15.875
X-33.528Y13.335
X-33.528Y10.795
X-33.528Y8.255
X-33.528Y5.715
X-33.528Y3.175
X-33.528Y-10.668
X-33.528Y-13.208
X-33.528Y-15.748
X-33.528Y-18.288
X-33.528Y-20.828
X-33.528Y-23.368
X-30.988Y15.875
X-30.988Y13.335
X-30.988Y10.795
X-30.988Y8.255
X-30.988Y5.715
X-30.988Y3.175
X-30.988Y-10.668
X-30.988Y-13.208
X-30.988Y-15.748
X-30.988Y-18.288
X-30.988Y-20.828
X-30.988Y-23.368
X-30.48Y28.702
X-28.448Y15.875
X-28.448Y13.335
X-28.448Y10.795
X-28.448Y8.255
X-28.448Y5.715
X-28.448Y3.175
X-28.448Y-10.668
X-28.448Y-13.208
X-28.448Y-15.748
X-28.448Y-18.288
X-28.448Y-20.828
X-28.448Y-23.368
X-26.797Y25.019
X-26.035Y34.29
X-25.908Y15.875
X-25.908Y13.335
X-25.908Y10.795
X-25.908Y8.255
X-25.908Y5.715
X-25.908Y3.175
X-25.908Y-10.668
X-25.908Y-13.208
X-25.908Y-15.748
X-25.908Y-18.288
X-25.908Y-20.828
X-25.908Y-23.368
X-24.765Y35.433
X-23.368Y15.875
X-23.368Y13.335
X-23.368Y10.795
X-23.368Y8.255
X-23.368Y5.715
X-23.368Y3.175
X-23.368Y-10.668
X-23.368Y-13.208
X-23.368Y-15.748
X-23.368Y-18.288
X-23.368Y-20.828
X-23.368Y-23.368
X-20.828Y15.875
X-20.828Y13.335
X-20.828Y10.795
X-20.828Y8.255
X-20.828Y5.715
X-20.828Y3.175
X-20.828Y-10.668
X-20.828Y-13.208
X-20.828Y-15.748
X-20.828Y-18.288
X-20.828Y-20.828
X-20.828Y-23.368
X-18.415Y61.595
X-18.415Y56.91
X-18.415Y55.21
X-18.288Y15.875
X-18.288Y13.335
X-18.288Y10.795
X-18.288Y8.255
X-18.288Y5.715
X-18.288Y3.175
X-18.288Y-10.668
X-18.288Y-13.208
X-18.288Y-15.748
X-18.288Y-18.288
X-18.288Y-20.828
X-18.288Y-23.368
X-13.335Y52.07
X-13.335Y46.99
X-10.922Y9.525
X-7.366Y-9.906
X-6.858Y60.96
X-6.815Y50.8
X-5.461Y14.605
X2.667Y22.86
X6.096Y12.319
X7.62Y54.61
X7.62Y52.07
X8.89Y39.116
X8.89Y36.83
X8.89Y34.29
X8.89Y-16.764
X8.936Y40.594
X10.668Y-18.288
X10.668Y-19.812
X11.43Y0.635
X11.938Y-17.272
X12.446Y-7.366
X12.585Y21.59
X12.616Y11.049
X13.208Y-19.304
X13.335Y38.1
X13.928Y10.961
X13.97Y-18.288
X14.224Y15.494
X15.494Y3.048
X15.494Y1.778
X16.002Y-18.034
X16.51Y4.445
X16.532Y9.757
X16.891Y13.589
X16.891Y5.969
X17.145Y33.655
X17.78Y41.275
X17.786Y1.899
X18.034Y-0.094
X18.288Y-5.842
X18.415Y25.4
X19.304Y24.638
X19.558Y-7.366
X20.955Y32.385
X22.225Y13.335
X23.495Y30.48
X23.96Y28.405
X24.384Y-23.622
X24.638Y32.766
X26.035Y5.969
X27.94Y31.115
X29.21Y17.145
X31.496Y7.874
X31.537Y9.312
X41.105Y30.48
X41.91Y5.08
X42.545Y29.21
X43.815Y-3.06
X46.736Y-13.208
X50.8Y27.19
X52.07Y8.255
X52.07Y6.985
X52.07Y3.175
X52.387Y1.905
X53.975Y51.435
X54.61Y68.58
X56.618Y1.136
X56.765Y66.317
X57.213Y8.128
X57.785Y-3.81
X58.186Y66.294
X59.182Y17.526
X60.198Y17.26
X60.414Y19.8
X60.887Y-24.203
X60.888Y3.103
X60.96Y50.165
X60.96Y38.735
X60.96Y8.62
X60.96Y1.905
X60.96Y-12.7
X61.173Y63.078
X61.595Y3.81
X62.4Y6.35
X64.262Y70.485
X64.516Y66.04
X64.77Y62.865
X65.405Y34.29
X66.04Y38.735
X66.04Y16.51
X66.04Y7.62
X66.04Y2.54
X66.04Y-24.13
X66.167Y62.865
X66.294Y-7.62
X67.31Y36.83
X67.945Y48.895
X67.945Y-13.97
X68.707Y60.44
X69.215Y16.51
X69.977Y70.231
X69.977Y62.865
X70.485Y57.785
X70.485Y52.07
X70.485Y26.67
X70.485Y20.32
X70.485Y-5.83
X70.485Y-11.43
X72.39Y62.865
X73.66Y46.355
X73.66Y41.275
X73.66Y14.49
X73.66Y9.525
X73.66Y-17.145
X73.66Y-22.225
X74.295Y70.485
X76.2Y69.85
X76.2Y62.865
X77.47Y58.42
X77.47Y26.67
X77.47Y-5.08
X78.41Y68.319
X78.41Y67.259
X79.375Y41.91
X79.375Y10.16
X79.375Y-21.59
X80.518Y-25.908
X83.566Y-27.94
X86.815Y-4.445
X86.815Y34.29
X92.71Y46.355
X92.964Y-11.43
X99.568Y-28.575
X99.695Y73.025
X99.695Y69.215
X99.695Y59.055
X99.695Y48.26
X99.695Y32.385
X99.695Y22.225
X99.695Y12.065
X99.695Y1.905
X99.695Y-1.905
X99.695Y-12.065
T2
X90.12Y76.2
X91.065Y78.48
X91.065Y73.92
X93.345Y79.425
X93.345Y72.975
X95.625Y78.48
X95.625Y73.92
X96.57Y76.2
X-8.305Y-25.4
X-7.36Y-23.12
X-7.36Y-27.68
X-5.08Y-22.175
X-5.08Y-28.625
X-2.8Y-23.12
X-2.8Y-27.68
X-1.855Y-25.4
X-48.31Y76.2
X-47.365Y78.48
X-47.365Y73.92
X-45.085Y79.425
X-45.085Y72.975
X-42.805Y78.48
X-42.805Y73.92
X-41.86Y76.2
X90.755Y-25.4
X91.7Y-23.12
X91.7Y-27.68
X93.98Y-22.175
X93.98Y-28.625
X96.26Y-23.12
X96.26Y-27.68
X97.205Y-25.4
T3
X62.489Y77.038
X63.635Y78.539
X63.635Y75.54
X64.78Y77.038
X65.926Y78.539
X65.926Y75.54
X67.071Y77.038
X68.212Y75.54
X68.214Y78.537
X69.36Y77.038
X70.505Y78.539
X70.505Y75.54
X71.651Y77.038
X72.794Y78.539
X72.794Y75.54
T4
X-38.608Y-26.924
X-38.608Y-28.702
X-36.83Y-26.924
X2.286Y-6.35
X2.286Y-18.415
X7.874Y57.15
X115.57Y39.37
X115.57Y31.75
X115.57Y80.01
X115.57Y72.39
X115.57Y29.21
X115.57Y21.59
X115.57Y-1.27
X115.57Y-8.89
X115.57Y49.53
X115.57Y41.91
X115.57Y-11.43
X115.57Y-19.05
X115.57Y59.69
X115.57Y52.07
X115.57Y8.89
X115.57Y1.27
X115.57Y69.85
X115.57Y62.23
X115.57Y-21.59
X115.57Y-29.21
X115.57Y19.05
X115.57Y11.43
T5
X74.295Y6.35
X76.835Y6.35
X85.09Y70.485
X87.63Y70.485
X95.25Y-19.685
X97.79Y-19.685
X62.23Y-20.955
X64.77Y-20.955
X95.25Y55.88
X97.79Y55.88
X-9.525Y-4.445
X-6.985Y-4.445
X62.23Y-6.35
X64.77Y-6.35
X95.25Y-15.24
X97.79Y-15.24
X85.09Y78.105
X87.63Y78.105
X62.23Y46.355
X64.77Y46.355
X95.25Y70.485
X97.79Y70.485
X17.145Y19.685
X17.145Y17.145
X53.721Y-9.525
X56.261Y-9.525
X95.25Y15.24
X97.79Y15.24
X-9.525Y-7.62
X-6.985Y-7.62
X85.09Y74.295
X87.63Y74.295
X74.295Y-25.4
X76.835Y-25.4
X62.23Y15.24
X64.77Y15.24
X-9.525Y1.905
X-6.985Y1.905
X62.23Y41.91
X64.77Y41.91
X95.25Y45.72
X97.79Y45.72
X62.23Y25.4
X64.77Y25.4
X74.295Y38.1
X76.835Y38.1
X85.09Y66.675
X87.63Y66.675
X62.23Y10.795
X64.77Y10.795
X95.25Y66.04
X97.79Y66.04
X62.23Y57.15
X64.77Y57.15
X95.25Y-5.08
X97.79Y-5.08
X95.25Y5.08
X97.79Y5.08
X-9.525Y26.67
X-6.985Y26.67
X95.25Y35.56
X97.79Y35.56
X-9.525Y-1.27
X-6.985Y-1.27
X62.23Y-16.51
X64.77Y-16.51
X53.721Y-13.97
X56.261Y-13.97
X21.59Y19.685
X21.59Y17.145
X53.721Y-5.08
X56.261Y-5.08
X95.25Y25.4
X97.79Y25.4
X53.721Y-18.415
X56.261Y-18.415
T6
X44.45Y44.45
X44.45Y41.91
X44.45Y39.37
X44.45Y36.83
X44.45Y34.29
X44.45Y31.75
X44.45Y29.21
X44.45Y26.67
X44.45Y24.13
X44.45Y21.59
X44.45Y19.05
X44.45Y16.51
X44.45Y13.97
X44.45Y11.43
X44.45Y8.89
X44.45Y6.35
X44.45Y3.81
X46.99Y44.45
X46.99Y41.91
X46.99Y39.37
X46.99Y36.83
X46.99Y34.29
X46.99Y31.75
X46.99Y29.21
X46.99Y26.67
X46.99Y24.13
X46.99Y21.59
X46.99Y19.05
X46.99Y16.51
X46.99Y13.97
X46.99Y11.43
X46.99Y8.89
X46.99Y6.35
X46.99Y3.81
X107.95Y80.01
X107.95Y77.47
X107.95Y74.93
X107.95Y72.39
X107.95Y29.21
X107.95Y26.67
X107.95Y24.13
X107.95Y21.59
X107.95Y-1.27
X107.95Y-3.81
X107.95Y-6.35
X107.95Y-8.89
X107.95Y49.53
X107.95Y46.99
X107.95Y44.45
X107.95Y41.91
X107.95Y-11.43
X107.95Y-13.97
X107.95Y-16.51
X107.95Y-19.05
X107.95Y59.69
X107.95Y57.15
X107.95Y54.61
X107.95Y52.07
X107.95Y8.89
X107.95Y6.35
X107.95Y3.81
X107.95Y1.27
X-1.27Y62.23
X-1.27Y59.69
X-1.27Y57.15
X-1.27Y54.61
X-1.27Y52.07
X-1.27Y49.53
X-1.27Y46.99
X-1.27Y44.45
X1.27Y62.23
X1.27Y59.69
X1.27Y57.15
X1.27Y54.61
X1.27Y52.07
X1.27Y49.53
X1.27Y46.99
X1.27Y44.45
X-1.27Y39.37
X-1.27Y36.83
X-1.27Y34.29
X-1.27Y31.75
X-1.27Y29.21
X-1.27Y26.67
X-1.27Y24.13
X-1.27Y21.59
X-1.27Y19.05
X-1.27Y16.51
X-1.27Y13.97
X-1.27Y11.43
X-1.27Y8.89
X-1.27Y6.35
X-1.27Y3.81
X1.27Y39.37
X1.27Y36.83
X1.27Y34.29
X1.27Y31.75
X1.27Y29.21
X1.27Y26.67
X1.27Y24.13
X1.27Y21.59
X1.27Y19.05
X1.27Y16.51
X1.27Y13.97
X1.27Y11.43
X1.27Y8.89
X1.27Y6.35
X1.27Y3.81
X44.45Y71.374
X44.45Y68.834
X44.45Y66.294
X44.45Y63.754
X44.45Y61.214
X44.45Y58.674
X44.45Y56.134
X44.45Y53.594
X44.45Y51.054
X44.45Y48.514
X46.99Y71.374
X46.99Y68.834
X46.99Y66.294
X46.99Y63.754
X46.99Y61.214
X46.99Y58.674
X46.99Y56.134
X46.99Y53.594
X46.99Y51.054
X46.99Y48.514
X107.95Y69.85
X107.95Y67.31
X107.95Y64.77
X107.95Y62.23
X107.95Y-21.59
X107.95Y-24.13
X107.95Y-26.67
X107.95Y-29.21
X107.95Y19.05
X107.95Y16.51
X107.95Y13.97
X107.95Y11.43
X107.95Y39.37
X107.95Y36.83
X107.95Y34.29
X107.95Y31.75
T7
X82.55Y-3.81
X82.55Y-6.35
X82.55Y-8.89
X82.55Y-11.43
X82.55Y-13.97
X82.55Y-16.51
X82.55Y-19.05
X82.55Y-21.59
X85.09Y-3.81
X85.09Y-6.35
X85.09Y-8.89
X85.09Y-11.43
X85.09Y-13.97
X85.09Y-16.51
X85.09Y-19.05
X85.09Y-21.59
X82.55Y59.69
X82.55Y57.15
X82.55Y54.61
X82.55Y52.07
X82.55Y49.53
X82.55Y46.99
X82.55Y44.45
X82.55Y41.91
X85.09Y59.69
X85.09Y57.15
X85.09Y54.61
X85.09Y52.07
X85.09Y49.53
X85.09Y46.99
X85.09Y44.45
X85.09Y41.91
X82.55Y27.94
X82.55Y25.4
X82.55Y22.86
X82.55Y20.32
X82.55Y17.78
X82.55Y15.24
X82.55Y12.7
X82.55Y10.16
X85.09Y27.94
X85.09Y25.4
X85.09Y22.86
X85.09Y20.32
X85.09Y17.78
X85.09Y15.24
X85.09Y12.7
X85.09Y10.16
T8
X-44.45Y37.79
X-44.45Y34.29
X-44.45Y30.48
X-44.45Y26.98
X-44.45Y23.48
X-44.45Y19.98
T9
X-39.37Y9.525
X-39.37Y4.445
X-39.37Y-0.635
X-39.37Y-5.715
T10
X55.451Y77.539
X80.439Y77.539
T11
X93.345Y76.2
X-5.08Y-25.4
X-45.085Y76.2
X93.98Y-25.4
T12
X11.262Y-24.692
X15.662Y-24.692
T13
X-44.535Y68.38
X-44.535Y44.18
T14
X111.76Y5.08
X111.76Y66.04
X111.76Y-25.4
X111.76Y15.24
X111.76Y35.56
X111.76Y76.2
X111.76Y25.4
X111.76Y-5.08
X111.76Y45.72
X111.76Y-15.24
X111.76Y55.88
T15
X-41.87Y14.605
X-41.87Y-10.795
T16
X45.72Y0.
X31.75Y24.13
X-1.27Y76.2
X46.99Y74.93
X0.Y0.
T0
M30
