M48
;DRILL file {KiCad 5.0.0-rc2-dev-unknown-d906acc~62~ubuntu17.10.1} date Thu Mar 15 16:12:49 2018
;FORMAT={-:-/ absolute / inch / decimal}
FMAT,2
INCH,TZ
T1C0.0354
T2C0.0591
T3C0.0886
T4C0.0945
T5C0.1260
%
G90
G05
M72
T1
X0.4434Y-0.9721
X0.6166Y-0.9721
T2
X0.3829Y2.6533
X1.3356Y2.6533
T3
X4.4Y-0.6
X4.4Y1.4
X4.4Y1.8
X4.4Y-1.
X4.4Y2.2
X4.4Y1.
X4.4Y0.6
X4.4Y2.6
X4.4Y-0.2
X4.4Y3.
X4.4Y0.2
T4
X-1.6484Y0.575
X-1.6484Y-0.425
T5
X1.8Y0.
X1.85Y2.95
X-0.05Y3.
X1.25Y0.95
X0.Y0.
T0
M30
