M48
;DRILL file {KiCad (5.0.0-rc2-dev-194-g8567eab09)} date Thu Mar 15 17:26:57 2018
;FORMAT={-:-/ absolute / metric / decimal}
FMAT,2
METRIC,TZ
T1C0.400
T2C0.600
T3C0.800
T4C0.813
T5C1.000
T6C1.016
T7C1.200
T8C1.400
T9C4.300
T10C0.900
T11C1.500
T12C2.250
T13C2.400
T14C3.200
%
G90
G05
M71
T1
X-48.514Y-23.622
X-46.355Y-21.463
X-46.355Y-25.781
X-44.196Y-23.622
X-34.925Y26.67
X-33.528Y15.875
X-33.528Y13.335
X-33.528Y10.795
X-33.528Y8.255
X-33.528Y5.715
X-33.528Y3.175
X-33.528Y-10.668
X-33.528Y-13.208
X-33.528Y-15.748
X-33.528Y-18.288
X-33.528Y-20.828
X-33.528Y-23.368
X-30.988Y15.875
X-30.988Y13.335
X-30.988Y10.795
X-30.988Y8.255
X-30.988Y5.715
X-30.988Y3.175
X-30.988Y-10.668
X-30.988Y-13.208
X-30.988Y-15.748
X-30.988Y-18.288
X-30.988Y-20.828
X-30.988Y-23.368
X-30.48Y28.702
X-28.448Y15.875
X-28.448Y13.335
X-28.448Y10.795
X-28.448Y8.255
X-28.448Y5.715
X-28.448Y3.175
X-28.448Y-10.668
X-28.448Y-13.208
X-28.448Y-15.748
X-28.448Y-18.288
X-28.448Y-20.828
X-28.448Y-23.368
X-26.797Y25.019
X-26.035Y34.29
X-25.908Y15.875
X-25.908Y13.335
X-25.908Y10.795
X-25.908Y8.255
X-25.908Y5.715
X-25.908Y3.175
X-25.908Y-10.668
X-25.908Y-13.208
X-25.908Y-15.748
X-25.908Y-18.288
X-25.908Y-20.828
X-25.908Y-23.368
X-24.765Y35.433
X-23.368Y15.875
X-23.368Y13.335
X-23.368Y10.795
X-23.368Y8.255
X-23.368Y5.715
X-23.368Y3.175
X-23.368Y-10.668
X-23.368Y-13.208
X-23.368Y-15.748
X-23.368Y-18.288
X-23.368Y-20.828
X-23.368Y-23.368
X-20.828Y15.875
X-20.828Y13.335
X-20.828Y10.795
X-20.828Y8.255
X-20.828Y5.715
X-20.828Y3.175
X-20.828Y-10.668
X-20.828Y-13.208
X-20.828Y-15.748
X-20.828Y-18.288
X-20.828Y-20.828
X-20.828Y-23.368
X-18.288Y15.875
X-18.288Y13.335
X-18.288Y10.795
X-18.288Y8.255
X-18.288Y5.715
X-18.288Y3.175
X-18.288Y-10.668
X-18.288Y-13.208
X-18.288Y-15.748
X-18.288Y-18.288
X-18.288Y-20.828
X-18.288Y-23.368
X-10.922Y9.525
X-10.922Y6.985
X-8.509Y54.61
X-8.509Y52.07
X-7.366Y-9.906
X-5.715Y8.382
X-5.461Y14.605
X-1.143Y-13.716
X-1.016Y-9.652
X1.143Y-29.718
X2.667Y22.86
X6.096Y12.319
X6.604Y65.278
X7.577Y60.96
X7.577Y50.8
X8.648Y40.513
X8.648Y39.37
X8.89Y36.83
X8.89Y34.29
X8.89Y-16.764
X9.652Y46.216
X9.652Y44.704
X10.668Y-18.288
X10.668Y-19.812
X10.795Y54.61
X11.176Y11.43
X11.43Y0.635
X11.938Y-17.272
X12.446Y7.366
X12.446Y-7.366
X12.585Y21.59
X13.208Y-19.177
X13.716Y7.493
X13.97Y-18.288
X14.224Y15.494
X14.478Y41.021
X15.24Y-14.541
X15.494Y3.048
X15.494Y1.778
X16.002Y-18.034
X16.108Y48.236
X16.256Y44.577
X16.637Y11.176
X16.764Y5.842
X17.786Y1.899
X18.034Y-0.094
X18.288Y-5.842
X18.415Y25.4
X18.796Y36.08
X19.304Y24.638
X19.558Y-7.366
X21.195Y41.275
X22.895Y41.275
X23.495Y31.59
X23.495Y30.48
X23.96Y28.405
X24.384Y-23.622
X25.4Y13.589
X25.441Y12.278
X26.035Y33.02
X26.035Y5.969
X26.416Y17.018
X27.044Y45.716
X27.305Y2.921
X27.559Y9.779
X27.94Y31.115
X29.464Y16.256
X29.972Y7.239
X32.512Y46.216
X37.719Y64.135
X39.358Y25.4
X42.037Y60.833
X42.291Y37.846
X42.545Y5.08
X43.843Y-3.032
X47.752Y-13.589
X49.022Y39.116
X49.911Y-5.842
X50.292Y34.81
X50.8Y33.147
X50.8Y27.686
X50.927Y31.496
X50.927Y30.099
X50.927Y-19.177
X53.467Y69.977
X53.975Y51.435
X54.102Y64.504
X57.107Y61.996
X59.182Y17.526
X59.944Y58.166
X59.944Y42.672
X60.198Y17.26
X60.452Y44.704
X60.477Y19.57
X60.919Y-24.171
X60.96Y50.165
X60.96Y38.735
X60.96Y36.703
X60.96Y-12.7
X60.96Y7.62
X61.849Y31.496
X62.357Y70.485
X63.119Y28.575
X63.373Y70.485
X64.008Y71.755
X64.135Y59.92
X65.544Y38.735
X66.04Y16.51
X66.04Y7.62
X66.04Y-24.13
X66.142Y19.8
X66.294Y51.562
X66.294Y24.13
X66.294Y-7.62
X66.294Y-11.811
X66.548Y60.01
X67.945Y48.895
X67.945Y-13.97
X68.716Y70.585
X68.961Y32.258
X69.215Y16.51
X69.32Y-13.948
X69.403Y57.592
X69.596Y52.832
X69.596Y21.082
X69.596Y-10.541
X69.711Y70.485
X69.85Y43.688
X69.85Y8.509
X70.231Y40.259
X70.284Y-23.241
X70.358Y62.992
X70.81Y70.485
X71.633Y-16.625
X73.279Y42.037
X73.279Y-15.875
X73.812Y68.683
X74.295Y51.689
X74.32Y19.855
X74.37Y-11.895
X75.057Y61.087
X76.962Y53.805
X76.962Y52.705
X76.962Y20.955
X76.962Y-10.795
X76.978Y-9.695
X77.005Y22.055
X78.232Y54.737
X78.232Y23.241
X78.232Y-8.763
X78.486Y41.91
X78.486Y10.16
X78.486Y-21.59
X86.815Y-4.445
X86.815Y34.29
X92.71Y46.355
X95.377Y-18.796
X95.377Y-20.32
X95.504Y-10.414
X95.758Y60.833
X95.758Y50.673
X95.758Y40.513
X96.012Y27.686
X96.012Y17.526
X96.139Y7.366
X98.552Y-19.558
X99.06Y40.386
X99.06Y30.988
X99.06Y-21.209
X99.187Y50.292
X99.187Y20.701
X99.187Y10.541
X99.187Y-10.922
X99.314Y60.706
X99.568Y70.993
X99.695Y69.215
X99.695Y58.674
X99.695Y48.514
X99.695Y12.065
X99.695Y1.905
X99.695Y-1.905
X99.695Y-12.573
X99.822Y-28.575
X100.203Y36.322
X100.838Y79.629
X103.505Y75.299
X103.505Y20.701
X103.505Y10.541
X103.632Y40.132
X103.632Y-10.922
X103.632Y-21.209
X103.759Y50.292
X103.886Y60.452
X103.898Y70.993
T2
X90.755Y-25.4
X91.7Y-23.12
X91.7Y-27.68
X93.98Y-22.175
X93.98Y-28.625
X96.26Y-23.12
X96.26Y-27.68
X97.205Y-25.4
X90.12Y76.2
X91.065Y78.48
X91.065Y73.92
X93.345Y79.425
X93.345Y72.975
X95.625Y78.48
X95.625Y73.92
X96.57Y76.2
X-10.845Y-25.4
X-9.9Y-23.12
X-9.9Y-27.68
X-7.62Y-22.175
X-7.62Y-28.625
X-5.34Y-23.12
X-5.34Y-27.68
X-4.395Y-25.4
X-48.31Y76.2
X-47.365Y78.48
X-47.365Y73.92
X-45.085Y79.425
X-45.085Y72.975
X-42.805Y78.48
X-42.805Y73.92
X-41.86Y76.2
T3
X-35.687Y-27.813
X-33.909Y-27.813
X-32.131Y-27.813
X-8.763Y57.15
X-3.556Y-18.415
X-1.778Y-18.415
X2.286Y-6.35
X115.57Y19.05
X115.57Y11.43
X115.57Y49.53
X115.57Y41.91
X115.57Y59.69
X115.57Y52.07
X115.57Y69.85
X115.57Y62.23
X115.57Y80.01
X115.57Y72.39
X115.57Y29.21
X115.57Y21.59
X115.57Y-1.27
X115.57Y-8.89
X115.57Y-21.59
X115.57Y-29.21
X115.57Y-11.43
X115.57Y-19.05
X115.57Y8.89
X115.57Y1.27
X115.57Y39.37
X115.57Y31.75
T4
X74.295Y6.35
X76.835Y6.35
X85.09Y74.295
X87.63Y74.295
X95.25Y-5.08
X97.79Y-5.08
X62.23Y15.24
X64.77Y15.24
X-9.525Y1.905
X-6.985Y1.905
X62.23Y41.91
X64.77Y41.91
X95.25Y45.72
X97.79Y45.72
X-9.525Y-4.445
X-6.985Y-4.445
X62.23Y25.4
X64.77Y25.4
X95.25Y-15.24
X97.79Y-15.24
X85.09Y66.675
X87.63Y66.675
X62.23Y10.795
X64.77Y10.795
X95.25Y66.04
X97.79Y66.04
X17.145Y19.685
X17.145Y17.145
X62.23Y57.15
X64.77Y57.15
X95.25Y15.24
X97.79Y15.24
X-9.525Y26.67
X-6.985Y26.67
X74.295Y-25.4
X76.835Y-25.4
X62.23Y-16.51
X64.77Y-16.51
X54.229Y-18.415
X56.769Y-18.415
X21.59Y19.685
X21.59Y17.145
X54.229Y-9.525
X56.769Y-9.525
X54.229Y-5.08
X56.769Y-5.08
X74.295Y38.1
X76.835Y38.1
X85.09Y70.485
X87.63Y70.485
X62.23Y33.655
X64.77Y33.655
X62.23Y-20.955
X64.77Y-20.955
X95.25Y55.88
X97.79Y55.88
X62.23Y-6.35
X64.77Y-6.35
X95.25Y5.08
X97.79Y5.08
X85.09Y78.105
X87.63Y78.105
X95.25Y35.56
X97.79Y35.56
X-9.525Y-1.27
X-6.985Y-1.27
X62.23Y46.355
X64.77Y46.355
X95.25Y70.485
X97.79Y70.485
X54.229Y-13.97
X56.769Y-13.97
X95.25Y25.4
X97.79Y25.4
X-9.525Y-7.62
X-6.985Y-7.62
T5
X107.95Y49.53
X107.95Y46.99
X107.95Y44.45
X107.95Y41.91
X44.45Y71.374
X44.45Y68.834
X44.45Y66.294
X44.45Y63.754
X44.45Y61.214
X44.45Y58.674
X44.45Y56.134
X44.45Y53.594
X44.45Y51.054
X44.45Y48.514
X46.99Y71.374
X46.99Y68.834
X46.99Y66.294
X46.99Y63.754
X46.99Y61.214
X46.99Y58.674
X46.99Y56.134
X46.99Y53.594
X46.99Y51.054
X46.99Y48.514
X107.95Y59.69
X107.95Y57.15
X107.95Y54.61
X107.95Y52.07
X107.95Y69.85
X107.95Y67.31
X107.95Y64.77
X107.95Y62.23
X107.95Y80.01
X107.95Y77.47
X107.95Y74.93
X107.95Y72.39
X107.95Y29.21
X107.95Y26.67
X107.95Y24.13
X107.95Y21.59
X107.95Y-1.27
X107.95Y-3.81
X107.95Y-6.35
X107.95Y-8.89
X107.95Y-21.59
X107.95Y-24.13
X107.95Y-26.67
X107.95Y-29.21
X107.95Y-11.43
X107.95Y-13.97
X107.95Y-16.51
X107.95Y-19.05
X44.45Y44.45
X44.45Y41.91
X44.45Y39.37
X44.45Y36.83
X44.45Y34.29
X44.45Y31.75
X44.45Y29.21
X44.45Y26.67
X44.45Y24.13
X44.45Y21.59
X44.45Y19.05
X44.45Y16.51
X44.45Y13.97
X44.45Y11.43
X44.45Y8.89
X44.45Y6.35
X44.45Y3.81
X46.99Y44.45
X46.99Y41.91
X46.99Y39.37
X46.99Y36.83
X46.99Y34.29
X46.99Y31.75
X46.99Y29.21
X46.99Y26.67
X46.99Y24.13
X46.99Y21.59
X46.99Y19.05
X46.99Y16.51
X46.99Y13.97
X46.99Y11.43
X46.99Y8.89
X46.99Y6.35
X46.99Y3.81
X-1.27Y62.23
X-1.27Y59.69
X-1.27Y57.15
X-1.27Y54.61
X-1.27Y52.07
X-1.27Y49.53
X-1.27Y46.99
X-1.27Y44.45
X1.27Y62.23
X1.27Y59.69
X1.27Y57.15
X1.27Y54.61
X1.27Y52.07
X1.27Y49.53
X1.27Y46.99
X1.27Y44.45
X107.95Y8.89
X107.95Y6.35
X107.95Y3.81
X107.95Y1.27
X107.95Y39.37
X107.95Y36.83
X107.95Y34.29
X107.95Y31.75
X-1.27Y39.37
X-1.27Y36.83
X-1.27Y34.29
X-1.27Y31.75
X-1.27Y29.21
X-1.27Y26.67
X-1.27Y24.13
X-1.27Y21.59
X-1.27Y19.05
X-1.27Y16.51
X-1.27Y13.97
X-1.27Y11.43
X-1.27Y8.89
X-1.27Y6.35
X-1.27Y3.81
X1.27Y39.37
X1.27Y36.83
X1.27Y34.29
X1.27Y31.75
X1.27Y29.21
X1.27Y26.67
X1.27Y24.13
X1.27Y21.59
X1.27Y19.05
X1.27Y16.51
X1.27Y13.97
X1.27Y11.43
X1.27Y8.89
X1.27Y6.35
X1.27Y3.81
X107.95Y19.05
X107.95Y16.51
X107.95Y13.97
X107.95Y11.43
T6
X59.436Y77.089
X59.436Y74.549
X61.976Y77.089
X61.976Y74.549
X64.516Y77.089
X64.516Y74.549
X67.056Y77.089
X67.056Y74.549
X69.596Y77.089
X69.596Y74.549
X72.136Y77.089
X72.136Y74.549
X74.676Y77.089
X74.676Y74.549
X77.216Y77.089
X77.216Y74.549
X82.55Y59.69
X82.55Y57.15
X82.55Y54.61
X82.55Y52.07
X82.55Y49.53
X82.55Y46.99
X82.55Y44.45
X82.55Y41.91
X85.09Y59.69
X85.09Y57.15
X85.09Y54.61
X85.09Y52.07
X85.09Y49.53
X85.09Y46.99
X85.09Y44.45
X85.09Y41.91
X82.55Y27.94
X82.55Y25.4
X82.55Y22.86
X82.55Y20.32
X82.55Y17.78
X82.55Y15.24
X82.55Y12.7
X82.55Y10.16
X85.09Y27.94
X85.09Y25.4
X85.09Y22.86
X85.09Y20.32
X85.09Y17.78
X85.09Y15.24
X85.09Y12.7
X85.09Y10.16
X82.55Y-3.81
X82.55Y-6.35
X82.55Y-8.89
X82.55Y-11.43
X82.55Y-13.97
X82.55Y-16.51
X82.55Y-19.05
X82.55Y-21.59
X85.09Y-3.81
X85.09Y-6.35
X85.09Y-8.89
X85.09Y-11.43
X85.09Y-13.97
X85.09Y-16.51
X85.09Y-19.05
X85.09Y-21.59
T7
X-44.45Y30.48
X-44.45Y26.98
X-44.45Y23.48
X-44.45Y19.98
X-44.45Y37.79
X-44.45Y34.29
T8
X-39.37Y9.525
X-39.37Y4.445
X-39.37Y-0.635
X-39.37Y-5.715
T9
X93.98Y-25.4
X93.345Y76.2
X-7.62Y-25.4
X-45.085Y76.2
T10
X11.262Y-24.692
X15.662Y-24.692
T11
X9.725Y67.395
X33.925Y67.395
T12
X111.76Y35.56
X111.76Y15.24
X111.76Y45.72
X111.76Y55.88
X111.76Y66.04
X111.76Y76.2
X111.76Y25.4
X111.76Y-5.08
X111.76Y-25.4
X111.76Y-15.24
X111.76Y5.08
T13
X-41.87Y14.605
X-41.87Y-10.795
T14
X0.Y0.
X31.75Y24.13
X45.72Y0.
X46.99Y74.93
X-1.27Y76.2
T0
M30
