G04 #@! TF.GenerationSoftware,KiCad,Pcbnew,5.0.0-rc2-dev-unknown-d906acc~62~ubuntu17.10.1*
G04 #@! TF.CreationDate,2018-03-15T16:12:45+00:00*
G04 #@! TF.ProjectId,WolfDrive_H7Controller,576F6C6644726976655F4837436F6E74,rev?*
G04 #@! TF.SameCoordinates,Original*
G04 #@! TF.FileFunction,Paste,Top*
G04 #@! TF.FilePolarity,Positive*
%FSLAX46Y46*%
G04 Gerber Fmt 4.6, Leading zero omitted, Abs format (unit mm)*
G04 Created by KiCad (PCBNEW 5.0.0-rc2-dev-unknown-d906acc~62~ubuntu17.10.1) date Thu Mar 15 16:12:45 2018*
%MOMM*%
%LPD*%
G01*
G04 APERTURE LIST*
%ADD10C,2.532420*%
%ADD11C,0.100000*%
%ADD12R,2.700000X2.700000*%
%ADD13R,0.500000X2.300000*%
%ADD14R,2.000000X2.500000*%
%ADD15R,0.750000X1.200000*%
%ADD16R,0.600000X1.550000*%
%ADD17R,1.200000X0.750000*%
%ADD18R,1.000000X1.250000*%
%ADD19R,1.250000X1.000000*%
%ADD20R,0.600000X0.700000*%
%ADD21R,0.900000X1.200000*%
%ADD22R,1.200000X0.900000*%
%ADD23R,1.016000X1.778000*%
%ADD24R,1.270000X2.540000*%
%ADD25R,2.540000X2.540000*%
%ADD26R,1.550000X0.600000*%
%ADD27R,0.635000X1.016000*%
%ADD28R,0.800000X1.900000*%
%ADD29R,2.000000X1.780000*%
%ADD30R,1.500000X0.600000*%
%ADD31R,4.550000X5.250000*%
%ADD32R,4.600000X1.100000*%
%ADD33R,1.016000X0.635000*%
%ADD34R,0.450000X1.750000*%
%ADD35R,1.220000X0.650000*%
%ADD36R,1.245000X3.500000*%
%ADD37R,1.778000X1.016000*%
%ADD38R,0.970000X1.270000*%
%ADD39R,1.501140X2.799080*%
%ADD40R,2.799080X1.501140*%
G04 APERTURE END LIST*
D10*
X1143000Y-20295000D03*
D11*
G36*
X-657000Y-18145000D02*
X2943000Y-18145000D01*
X1943000Y-22445000D01*
X343000Y-22445000D01*
X-657000Y-18145000D01*
X-657000Y-18145000D01*
G37*
D10*
X1143000Y-26695000D03*
D11*
G36*
X2943000Y-28845000D02*
X-657000Y-28845000D01*
X343000Y-24545000D01*
X1943000Y-24545000D01*
X2943000Y-28845000D01*
X2943000Y-28845000D01*
G37*
D12*
X-46345000Y-23612000D03*
X-46345000Y-16012000D03*
X-38745000Y-23612000D03*
X-38745000Y-16012000D03*
D13*
X11862000Y-22092000D03*
X12662000Y-22092000D03*
X13462000Y-22092000D03*
X14262000Y-22092000D03*
X15062000Y-22092000D03*
D14*
X9012000Y-22192000D03*
X9012000Y-27692000D03*
X17912000Y-22192000D03*
X17912000Y-27692000D03*
D15*
X-5207000Y-14925000D03*
X-5207000Y-16825000D03*
D16*
X16764000Y-94000D03*
X15494000Y-94000D03*
X14224000Y-94000D03*
X12954000Y-94000D03*
X12954000Y-5494000D03*
X14224000Y-5494000D03*
X15494000Y-5494000D03*
X16764000Y-5494000D03*
D17*
X-7813000Y-14351000D03*
X-9713000Y-14351000D03*
X69403000Y59055000D03*
X67503000Y59055000D03*
X60010000Y59309000D03*
X61910000Y59309000D03*
X320000Y-8890000D03*
X2220000Y-8890000D03*
X11110000Y29210000D03*
X9210000Y29210000D03*
D15*
X-5715000Y9718000D03*
X-5715000Y11618000D03*
D18*
X-9763000Y-16891000D03*
X-7763000Y-16891000D03*
X-7779000Y9525000D03*
X-9779000Y9525000D03*
D17*
X18476000Y-19304000D03*
X16576000Y-19304000D03*
D15*
X19050000Y-188000D03*
X19050000Y1712000D03*
D19*
X22352000Y-20082000D03*
X22352000Y-22082000D03*
D15*
X10668000Y-8316000D03*
X10668000Y-6416000D03*
D17*
X69530000Y51562000D03*
X67630000Y51562000D03*
X67630000Y-11811000D03*
X69530000Y-11811000D03*
X69530000Y19812000D03*
X67630000Y19812000D03*
X26985000Y23495000D03*
X25085000Y23495000D03*
D18*
X5350000Y39370000D03*
X7350000Y39370000D03*
X5350000Y34290000D03*
X7350000Y34290000D03*
X50435000Y51435000D03*
X52435000Y51435000D03*
D17*
X22540000Y23495000D03*
X20640000Y23495000D03*
X11110000Y33020000D03*
X9210000Y33020000D03*
X6162000Y41656000D03*
X8062000Y41656000D03*
D18*
X-24495000Y28702000D03*
X-22495000Y28702000D03*
D17*
X-28890000Y28702000D03*
X-26990000Y28702000D03*
X9210000Y25400000D03*
X11110000Y25400000D03*
D15*
X13970000Y21275000D03*
X13970000Y23175000D03*
X59817000Y38542000D03*
X59817000Y36642000D03*
X26416000Y13655000D03*
X26416000Y15555000D03*
X47752000Y-14925000D03*
X47752000Y-16825000D03*
D20*
X19115000Y31115000D03*
X17715000Y31115000D03*
X25335000Y31115000D03*
X26735000Y31115000D03*
D21*
X73279000Y43355000D03*
X73279000Y45555000D03*
D22*
X64600000Y38735000D03*
X62400000Y38735000D03*
X62400000Y-24130000D03*
X64600000Y-24130000D03*
X62400000Y7620000D03*
X64600000Y7620000D03*
X62400000Y50165000D03*
X64600000Y50165000D03*
X62400000Y-12700000D03*
X64600000Y-12700000D03*
X64600000Y19050000D03*
X62400000Y19050000D03*
D21*
X73279000Y-17310000D03*
X73279000Y-19510000D03*
X73279000Y12240000D03*
X73279000Y14440000D03*
D22*
X56812000Y44704000D03*
X59012000Y44704000D03*
D23*
X63246000Y53975000D03*
X65024000Y53975000D03*
X63246000Y-9525000D03*
X65024000Y-9525000D03*
X65024000Y22225000D03*
X63246000Y22225000D03*
D24*
X2413000Y-11684000D03*
D25*
X-1016000Y-11684000D03*
D24*
X-4445000Y-11684000D03*
X-38354000Y28575000D03*
D25*
X-34925000Y28575000D03*
D24*
X-31496000Y28575000D03*
X-31496000Y24765000D03*
D25*
X-34925000Y24765000D03*
D24*
X-38354000Y24765000D03*
D26*
X73185000Y53340000D03*
X73185000Y54610000D03*
X73185000Y55880000D03*
X73185000Y57150000D03*
X67785000Y57150000D03*
X67785000Y55880000D03*
X67785000Y54610000D03*
X67785000Y53340000D03*
X73185000Y-10160000D03*
X73185000Y-8890000D03*
X73185000Y-7620000D03*
X73185000Y-6350000D03*
X67785000Y-6350000D03*
X67785000Y-7620000D03*
X67785000Y-8890000D03*
X67785000Y-10160000D03*
X67785000Y21590000D03*
X67785000Y22860000D03*
X67785000Y24130000D03*
X67785000Y25400000D03*
X73185000Y25400000D03*
X73185000Y24130000D03*
X73185000Y22860000D03*
X73185000Y21590000D03*
D27*
X20949920Y31115000D03*
X22225000Y31115000D03*
D21*
X15875000Y31285000D03*
X15875000Y33485000D03*
D22*
X9060000Y31115000D03*
X11260000Y31115000D03*
X-29040000Y23495000D03*
X-26840000Y23495000D03*
D21*
X-24765000Y36873000D03*
X-24765000Y39073000D03*
D22*
X-31920000Y22288500D03*
X-34120000Y22288500D03*
X9060000Y21590000D03*
X11260000Y21590000D03*
X-40089000Y37465000D03*
X-37889000Y37465000D03*
D21*
X26162000Y-22182000D03*
X26162000Y-19982000D03*
X75565000Y51605000D03*
X75565000Y53805000D03*
X75565000Y56685000D03*
X75565000Y58885000D03*
X75565000Y-11895000D03*
X75565000Y-9695000D03*
X75565000Y-4615000D03*
X75565000Y-6815000D03*
X75565000Y22055000D03*
X75565000Y19855000D03*
X75565000Y27135000D03*
X75565000Y24935000D03*
D22*
X7577000Y57150000D03*
X5377000Y57150000D03*
X5377000Y54610000D03*
X7577000Y54610000D03*
X7577000Y49530000D03*
X5377000Y49530000D03*
X7577000Y52070000D03*
X5377000Y52070000D03*
X5377000Y62230000D03*
X7577000Y62230000D03*
X-29040000Y26416000D03*
X-26840000Y26416000D03*
X5377000Y59690000D03*
X7577000Y59690000D03*
X27135000Y19685000D03*
X24935000Y19685000D03*
X5250000Y43815000D03*
X7450000Y43815000D03*
X5250000Y36830000D03*
X7450000Y36830000D03*
X52535000Y48895000D03*
X50335000Y48895000D03*
X27135000Y21590000D03*
X24935000Y21590000D03*
D21*
X27305000Y28405000D03*
X27305000Y26205000D03*
X25400000Y28405000D03*
X25400000Y26205000D03*
X58547000Y40429000D03*
X58547000Y42629000D03*
D22*
X67394000Y28829000D03*
X65194000Y28829000D03*
X12616000Y14224000D03*
X14816000Y14224000D03*
X12616000Y8509000D03*
X14816000Y8509000D03*
X30056000Y5969000D03*
X27856000Y5969000D03*
X65194000Y30734000D03*
X67394000Y30734000D03*
D21*
X56769000Y40429000D03*
X56769000Y42629000D03*
D22*
X11260000Y23495000D03*
X9060000Y23495000D03*
X9060000Y27305000D03*
X11260000Y27305000D03*
D21*
X13970000Y28405000D03*
X13970000Y26205000D03*
X13970000Y33485000D03*
X13970000Y31285000D03*
D28*
X51877000Y-14375000D03*
X49977000Y-14375000D03*
X50927000Y-17375000D03*
D29*
X-35560000Y39116000D03*
X-27940000Y34036000D03*
X-35560000Y36576000D03*
X-27940000Y36576000D03*
X-35560000Y34036000D03*
X-27940000Y39116000D03*
D26*
X22385000Y29210000D03*
X22385000Y27940000D03*
X22385000Y26670000D03*
X22385000Y25400000D03*
X16985000Y25400000D03*
X16985000Y26670000D03*
X16985000Y27940000D03*
X16985000Y29210000D03*
D30*
X16035000Y43180000D03*
X16035000Y41910000D03*
X16035000Y40640000D03*
X16035000Y39370000D03*
X16035000Y38100000D03*
X16035000Y36830000D03*
X16035000Y35560000D03*
X10635000Y35560000D03*
X10635000Y36830000D03*
X10635000Y38100000D03*
X10635000Y39370000D03*
X10635000Y40640000D03*
X10635000Y41910000D03*
X10635000Y43180000D03*
X52418000Y36576000D03*
X52418000Y35306000D03*
X52418000Y34036000D03*
X52418000Y32766000D03*
X52418000Y31496000D03*
X52418000Y30226000D03*
X52418000Y28956000D03*
X52418000Y27686000D03*
X57818000Y27686000D03*
X57818000Y28956000D03*
X57818000Y30226000D03*
X57818000Y31496000D03*
X57818000Y32766000D03*
X57818000Y34036000D03*
X57818000Y35306000D03*
X57818000Y36576000D03*
X18636000Y13589000D03*
X18636000Y12319000D03*
X18636000Y11049000D03*
X18636000Y9779000D03*
X18636000Y8509000D03*
X18636000Y7239000D03*
X18636000Y5969000D03*
X24036000Y5969000D03*
X24036000Y7239000D03*
X24036000Y8509000D03*
X24036000Y9779000D03*
X24036000Y11049000D03*
X24036000Y12319000D03*
X24036000Y13589000D03*
D31*
X-20635000Y-14116000D03*
X-25485000Y-19666000D03*
X-20635000Y-19666000D03*
X-25485000Y-14116000D03*
D32*
X-13910000Y-14351000D03*
X-13910000Y-16891000D03*
X-13910000Y-19431000D03*
X-13910000Y6985000D03*
X-13910000Y9525000D03*
X-13910000Y12065000D03*
D31*
X-25485000Y12300000D03*
X-20635000Y6750000D03*
X-25485000Y6750000D03*
X-20635000Y12300000D03*
D17*
X-9713000Y12065000D03*
X-7813000Y12065000D03*
D15*
X10160000Y-15936000D03*
X10160000Y-14036000D03*
D21*
X24384000Y-15664000D03*
X24384000Y-17864000D03*
X26162000Y-17864000D03*
X26162000Y-15664000D03*
D33*
X11938000Y-18412460D03*
X11938000Y-19687540D03*
D21*
X24384000Y-19982000D03*
X24384000Y-22182000D03*
D34*
X21243000Y-9100000D03*
X20593000Y-9100000D03*
X19943000Y-9100000D03*
X19293000Y-9100000D03*
X18643000Y-9100000D03*
X17993000Y-9100000D03*
X17343000Y-9100000D03*
X16693000Y-9100000D03*
X16043000Y-9100000D03*
X15393000Y-9100000D03*
X14743000Y-9100000D03*
X14093000Y-9100000D03*
X13443000Y-9100000D03*
X12793000Y-9100000D03*
X12793000Y-16300000D03*
X13443000Y-16300000D03*
X14093000Y-16300000D03*
X14743000Y-16300000D03*
X15393000Y-16300000D03*
X16043000Y-16300000D03*
X16693000Y-16300000D03*
X17343000Y-16300000D03*
X17993000Y-16300000D03*
X18643000Y-16300000D03*
X19293000Y-16300000D03*
X19943000Y-16300000D03*
X20593000Y-16300000D03*
X21243000Y-16300000D03*
D14*
X-1873000Y-15875000D03*
X2127000Y-15875000D03*
D17*
X23429000Y32766000D03*
X21529000Y32766000D03*
D35*
X77764000Y13650000D03*
X77764000Y11750000D03*
X75144000Y11750000D03*
X75144000Y12700000D03*
X75144000Y13650000D03*
X77764000Y45400000D03*
X77764000Y43500000D03*
X75144000Y43500000D03*
X75144000Y44450000D03*
X75144000Y45400000D03*
X75144000Y-18100000D03*
X75144000Y-19050000D03*
X75144000Y-20000000D03*
X77764000Y-20000000D03*
X77764000Y-18100000D03*
D36*
X-38123500Y-27813000D03*
X-42648500Y-27813000D03*
D37*
X18796000Y35052000D03*
X18796000Y33274000D03*
D16*
X66548000Y66835000D03*
X67818000Y66835000D03*
X69088000Y66835000D03*
X70358000Y66835000D03*
X70358000Y61435000D03*
X69088000Y61435000D03*
X67818000Y61435000D03*
X66548000Y61435000D03*
X60325000Y61435000D03*
X61595000Y61435000D03*
X62865000Y61435000D03*
X64135000Y61435000D03*
X64135000Y66835000D03*
X62865000Y66835000D03*
X61595000Y66835000D03*
X60325000Y66835000D03*
D38*
X30099000Y11049000D03*
X28829000Y11049000D03*
X27559000Y11049000D03*
X14986000Y5715000D03*
X13716000Y5715000D03*
X12446000Y5715000D03*
X30099000Y8509000D03*
X28829000Y8509000D03*
X27559000Y8509000D03*
X12446000Y11430000D03*
X13716000Y11430000D03*
X14986000Y11430000D03*
D39*
X53375560Y67818000D03*
X57876440Y67818000D03*
X-5877560Y-11684000D03*
X-10378440Y-11684000D03*
X-10378440Y14605000D03*
X-5877560Y14605000D03*
D40*
X75057000Y62646560D03*
X75057000Y67147440D03*
D21*
X50292000Y36873000D03*
X50292000Y39073000D03*
D35*
X54904000Y38420000D03*
X54904000Y40320000D03*
X52284000Y39370000D03*
X63159000Y29718000D03*
X60539000Y28768000D03*
X60539000Y30668000D03*
M02*
