G04 #@! TF.GenerationSoftware,KiCad,Pcbnew,(2018-01-25 revision 89a5a84af)-makepkg*
G04 #@! TF.CreationDate,2018-03-13T00:00:10+00:00*
G04 #@! TF.ProjectId,WolfDrive_H7Controller,576F6C6644726976655F4837436F6E74,rev?*
G04 #@! TF.SameCoordinates,Original*
G04 #@! TF.FileFunction,Legend,Bot*
G04 #@! TF.FilePolarity,Positive*
%FSLAX46Y46*%
G04 Gerber Fmt 4.6, Leading zero omitted, Abs format (unit mm)*
G04 Created by KiCad (PCBNEW (2018-01-25 revision 89a5a84af)-makepkg) date Tue Mar 13 00:00:10 2018*
%MOMM*%
%LPD*%
G01*
G04 APERTURE LIST*
%ADD10C,0.100000*%
%ADD11C,0.300000*%
%ADD12C,0.150000*%
%ADD13C,0.120000*%
%ADD14C,0.149860*%
%ADD15C,0.099060*%
G04 APERTURE END LIST*
D10*
X16661296Y54897294D02*
X16549317Y54537206D01*
X16549317Y54537206D02*
X16461674Y54170289D01*
X16461674Y54170289D02*
X16406056Y53879956D01*
X16406056Y53879956D02*
X16309607Y53321477D01*
X16309607Y53321477D02*
X16203630Y52487637D01*
X16203630Y52487637D02*
X16126916Y51650246D01*
X16126916Y51650246D02*
X16115594Y51612184D01*
X16115594Y51612184D02*
X16091396Y51582451D01*
X16091396Y51582451D02*
X16057813Y51563961D01*
X16057813Y51563961D02*
X16018340Y51559630D01*
X16018340Y51559630D02*
X15959545Y51585697D01*
X15959545Y51585697D02*
X15928784Y51642179D01*
X15928784Y51642179D02*
X15793938Y52490274D01*
X15793938Y52490274D02*
X15722731Y52910432D01*
X15722731Y52910432D02*
X15557671Y53665707D01*
X15557671Y53665707D02*
X15453072Y54067093D01*
X15453072Y54067093D02*
X15330217Y54463195D01*
X15330217Y54463195D02*
X15178472Y54847306D01*
X15178472Y54847306D02*
X14987198Y55212720D01*
X14987198Y55212720D02*
X14908359Y55332463D01*
X14908359Y55332463D02*
X14769999Y55490350D01*
X14769999Y55490350D02*
X14603931Y55619155D01*
X14603931Y55619155D02*
X14469240Y55665654D01*
X14469240Y55665654D02*
X14355540Y55671488D01*
X14355540Y55671488D02*
X14216609Y55634538D01*
X14216609Y55634538D02*
X14072844Y55574787D01*
X14072844Y55574787D02*
X13952037Y55500560D01*
X13952037Y55500560D02*
X13865045Y55410808D01*
X13865045Y55410808D02*
X13791615Y55309091D01*
X13791615Y55309091D02*
X13732272Y55166009D01*
X13732272Y55166009D02*
X13690374Y54967423D01*
X13690374Y54967423D02*
X13684138Y54765374D01*
X13684138Y54765374D02*
X13716180Y54500795D01*
X13716180Y54500795D02*
X13834368Y54065588D01*
X13834368Y54065588D02*
X13952039Y53761665D01*
X13952039Y53761665D02*
X14088837Y53465639D01*
X14088837Y53465639D02*
X14311966Y53043447D01*
X14311966Y53043447D02*
X14516933Y52697924D01*
X14516933Y52697924D02*
X14792688Y52284039D01*
X14792688Y52284039D02*
X14807412Y52247160D01*
X14807412Y52247160D02*
X14806870Y52208828D01*
X20011728Y52398711D02*
X19678008Y52264027D01*
X19678008Y52264027D02*
X19028893Y51950162D01*
X19028893Y51950162D02*
X18396838Y51597428D01*
X18396838Y51597428D02*
X17772999Y51230378D01*
X17772999Y51230378D02*
X17735312Y51217866D01*
X17735312Y51217866D02*
X17697080Y51220680D01*
X17697080Y51220680D02*
X17662692Y51237625D01*
X17662692Y51237625D02*
X17636539Y51267507D01*
X17636539Y51267507D02*
X17625535Y51338042D01*
X17625535Y51338042D02*
X17664372Y51397941D01*
X17664372Y51397941D02*
X18200755Y51784543D01*
X18200755Y51784543D02*
X18698180Y52175406D01*
X18698180Y52175406D02*
X19049861Y52480201D01*
X19049861Y52480201D02*
X19386968Y52801086D01*
X19386968Y52801086D02*
X19656769Y53086177D01*
X19656769Y53086177D02*
X19903065Y53391434D01*
X19903065Y53391434D02*
X20043130Y53614954D01*
X20043130Y53614954D02*
X20129031Y53789951D01*
X20129031Y53789951D02*
X20174289Y53905448D01*
X20174289Y53905448D02*
X20203369Y54019254D01*
X20203369Y54019254D02*
X20208698Y54145890D01*
X20208698Y54145890D02*
X20194554Y54220765D01*
X20194554Y54220765D02*
X20160980Y54320946D01*
X14658471Y49242446D02*
X14730369Y49143710D01*
X14730369Y49143710D02*
X14787378Y49086701D01*
X14787378Y49086701D02*
X14830135Y49008314D01*
X14830135Y49008314D02*
X14888694Y48963512D01*
X14888694Y48963512D02*
X14951278Y48922801D01*
X14951278Y48922801D02*
X15002871Y48866731D01*
X15002871Y48866731D02*
X15058170Y48815909D01*
X15058170Y48815909D02*
X15128288Y48786443D01*
X15128288Y48786443D02*
X15203717Y48770254D01*
X15203717Y48770254D02*
X15357466Y48744648D01*
X15357466Y48744648D02*
X15678141Y48659135D01*
X15678141Y48659135D02*
X16034446Y48616378D01*
X16034446Y48616378D02*
X16077203Y48616378D01*
X16077203Y48616378D02*
X16250322Y48649349D01*
X13689694Y54957097D02*
X15719416Y52927374D01*
X16199585Y52447205D02*
X16796798Y51849992D01*
X16955347Y51691444D02*
X18116202Y50530588D01*
X18321205Y50325585D02*
X19133305Y49513485D01*
X19473974Y49172816D02*
X21132519Y47514271D01*
X13708932Y55065137D02*
X15688459Y53085611D01*
X16211763Y52562307D02*
X16835603Y51938467D01*
X17001901Y51772169D02*
X18227581Y50546489D01*
X18440678Y50333391D02*
X19285713Y49488357D01*
X19650975Y49123095D02*
X21267846Y47506224D01*
X13733123Y55168225D02*
X15654542Y53246806D01*
X16224264Y52677085D02*
X16874407Y52026941D01*
X17048454Y51852894D02*
X17643279Y51258069D01*
X17665394Y51235954D02*
X18338959Y50562389D01*
X18560475Y50340874D02*
X19437373Y49463976D01*
X19830806Y49070542D02*
X21390003Y47511346D01*
X13769380Y55259248D02*
X15618040Y53410587D01*
X16237685Y52790943D02*
X16913212Y52115416D01*
X17095008Y51933620D02*
X17647164Y51381464D01*
X17788879Y51239748D02*
X18447851Y50580777D01*
X18680958Y50347670D02*
X19586271Y49442357D01*
X20013722Y49014906D02*
X21496250Y47532378D01*
X13813747Y55342160D02*
X15578998Y53576909D01*
X16251294Y52904613D02*
X16952017Y52203891D01*
X17141562Y52014345D02*
X17718763Y51437144D01*
X17868925Y51286982D02*
X18556469Y50599438D01*
X18801441Y50354466D02*
X19735086Y49420821D01*
X20201551Y48954356D02*
X21586273Y47569634D01*
X13868520Y55414667D02*
X15537497Y53745690D01*
X16266181Y53017005D02*
X16990821Y52292365D01*
X17188116Y52095070D02*
X17792730Y51490456D01*
X17948970Y51334216D02*
X18664747Y50618439D01*
X18923186Y50360001D02*
X19880891Y49402295D01*
X20395474Y48887713D02*
X21667913Y47615273D01*
X13930527Y55479939D02*
X15493435Y53917031D01*
X16281279Y53129186D02*
X17029626Y52380840D01*
X17234846Y52175619D02*
X17866697Y51543768D01*
X18029015Y51381450D02*
X18772904Y50637562D01*
X19045376Y50365089D02*
X20026696Y49383769D01*
X12112666Y52175919D02*
X11668092Y52333983D01*
X11668092Y52333983D02*
X11403700Y52403423D01*
X11403700Y52403423D02*
X11136149Y52458458D01*
X11136149Y52458458D02*
X10831450Y52485624D01*
X10831450Y52485624D02*
X10606862Y52475962D01*
X10606862Y52475962D02*
X10465482Y52439762D01*
X10465482Y52439762D02*
X10336270Y52360849D01*
X10336270Y52360849D02*
X10212922Y52271923D01*
X10212922Y52271923D02*
X10193687Y52244072D01*
X10193687Y52244072D02*
X10192864Y52188020D01*
X10192864Y52188020D02*
X10206045Y52132545D01*
X10206045Y52132545D02*
X10271946Y52048791D01*
X10271946Y52048791D02*
X10349755Y51974028D01*
X10349755Y51974028D02*
X10452018Y51897132D01*
X10452018Y51897132D02*
X10624059Y51792735D01*
X10624059Y51792735D02*
X10988341Y51599035D01*
X10988341Y51599035D02*
X11493645Y51377122D01*
X11493645Y51377122D02*
X12130500Y51138317D01*
X12130500Y51138317D02*
X12515299Y51013862D01*
X12515299Y51013862D02*
X13293488Y50770865D01*
X13293488Y50770865D02*
X13328039Y50751292D01*
X13328039Y50751292D02*
X13351585Y50721039D01*
X13351585Y50721039D02*
X13362069Y50684165D01*
X13362069Y50684165D02*
X13357433Y50644726D01*
X13357433Y50644726D02*
X13311769Y50588864D01*
X13311769Y50588864D02*
X13240400Y50578271D01*
X13240400Y50578271D02*
X12318254Y50794575D01*
X12318254Y50794575D02*
X11699132Y50910306D01*
X11699132Y50910306D02*
X11075845Y50997793D01*
X11075845Y50997793D02*
X10765398Y51017682D01*
X10765398Y51017682D02*
X10470302Y51022503D01*
X10470302Y51022503D02*
X10278175Y51014713D01*
X10278175Y51014713D02*
X10093287Y50990178D01*
X10093287Y50990178D02*
X9912194Y50945754D01*
X9912194Y50945754D02*
X9750504Y50878885D01*
X9750504Y50878885D02*
X9650142Y50802057D01*
X9650142Y50802057D02*
X9596499Y50730618D01*
X9596499Y50730618D02*
X9569891Y50644979D01*
X9569891Y50644979D02*
X9573555Y50524878D01*
X9573555Y50524878D02*
X9598778Y50388610D01*
X9598778Y50388610D02*
X9644400Y50259690D01*
X9644400Y50259690D02*
X9719687Y50146326D01*
X9719687Y50146326D02*
X9832463Y50042875D01*
X9832463Y50042875D02*
X9937279Y49971387D01*
X9937279Y49971387D02*
X10022184Y49926710D01*
X10022184Y49926710D02*
X10160405Y49870304D01*
X10160405Y49870304D02*
X10332831Y49814748D01*
X10332831Y49814748D02*
X10725507Y49734761D01*
X10725507Y49734761D02*
X11013291Y49700270D01*
X11013291Y49700270D02*
X11302548Y49681422D01*
X11302548Y49681422D02*
X11882347Y49686053D01*
X11882347Y49686053D02*
X12496622Y49740736D01*
X12496622Y49740736D02*
X13324212Y49834730D01*
X13324212Y49834730D02*
X13363704Y49830582D01*
X13363704Y49830582D02*
X13397372Y49812247D01*
X13397372Y49812247D02*
X13421708Y49782626D01*
X13421708Y49782626D02*
X13433206Y49744617D01*
X13433206Y49744617D02*
X13413511Y49674989D01*
X13413511Y49674989D02*
X13352002Y49636875D01*
X13352002Y49636875D02*
X12951276Y49565289D01*
X12951276Y49565289D02*
X12535540Y49469247D01*
X12535540Y49469247D02*
X11993346Y49317622D01*
X15654865Y48664431D02*
X16347129Y47972168D01*
X12163524Y52155773D02*
X14520837Y49798460D01*
X16582716Y47609302D02*
X18561272Y45630745D01*
X15482196Y48709822D02*
X16292253Y47899764D01*
X11957238Y52234779D02*
X14538371Y49653646D01*
X16642235Y47422503D02*
X18611616Y45453122D01*
X15310441Y48754297D02*
X16320499Y47744239D01*
X13356670Y50708068D02*
X14559654Y49505085D01*
X11760817Y52303922D02*
X13294179Y50770559D01*
X16701754Y47235705D02*
X18648486Y45288973D01*
X15158510Y48778949D02*
X16359335Y47578124D01*
X13332441Y50605018D02*
X14613718Y49323741D01*
X11579484Y52357975D02*
X13109378Y50828081D01*
X16762523Y47047657D02*
X18671503Y45138677D01*
X15623495Y48186685D02*
X16395957Y47414223D01*
X13229307Y50580873D02*
X15477176Y48333004D01*
X11407800Y52402380D02*
X12924709Y50885471D01*
X16831699Y46851201D02*
X18678283Y45004617D01*
X16368362Y47979851D02*
X16439962Y47969443D01*
X16439962Y47969443D02*
X16485801Y47913463D01*
X16485801Y47913463D02*
X16751924Y47078251D01*
X16751924Y47078251D02*
X16976119Y46466834D01*
X16976119Y46466834D02*
X17252557Y45800279D01*
X17252557Y45800279D02*
X17496031Y45297659D01*
X17496031Y45297659D02*
X17636097Y45039109D01*
X17636097Y45039109D02*
X17739334Y44877370D01*
X17739334Y44877370D02*
X17851898Y44731134D01*
X17851898Y44731134D02*
X18007338Y44575226D01*
X18007338Y44575226D02*
X18160765Y44464513D01*
X18160765Y44464513D02*
X18257405Y44431484D01*
X18257405Y44431484D02*
X18353140Y44437330D01*
X18353140Y44437330D02*
X18441586Y44476214D01*
X18441586Y44476214D02*
X18522281Y44539967D01*
X18522281Y44539967D02*
X18595515Y44635593D01*
X18595515Y44635593D02*
X18647648Y44750465D01*
X18647648Y44750465D02*
X18675777Y44892460D01*
X18675777Y44892460D02*
X18672222Y45132458D01*
X18672222Y45132458D02*
X18637837Y45344251D01*
X18637837Y45344251D02*
X18584547Y45552462D01*
X18584547Y45552462D02*
X18465137Y45910152D01*
X18465137Y45910152D02*
X18319273Y46258156D01*
X18319273Y46258156D02*
X17982799Y46935579D01*
X17982799Y46935579D02*
X17762269Y47320058D01*
X17762269Y47320058D02*
X17573982Y47623406D01*
X17573982Y47623406D02*
X17560311Y47660688D01*
X17560311Y47660688D02*
X17561941Y47698990D01*
X17561941Y47698990D02*
X17577814Y47733885D01*
X17577814Y47733885D02*
X17606872Y47760949D01*
X17606872Y47760949D02*
X17678358Y47773880D01*
X17678358Y47773880D02*
X17739732Y47735014D01*
X17739732Y47735014D02*
X18269366Y47028796D01*
X18269366Y47028796D02*
X18553110Y46684989D01*
X18553110Y46684989D02*
X18859462Y46361873D01*
X18859462Y46361873D02*
X19090517Y46156111D01*
X19090517Y46156111D02*
X19327134Y45964367D01*
X19327134Y45964367D02*
X19499504Y45833122D01*
X19499504Y45833122D02*
X19616490Y45759086D01*
X19616490Y45759086D02*
X19793727Y45678439D01*
X19793727Y45678439D02*
X19953688Y45635793D01*
X19953688Y45635793D02*
X20104418Y45624574D01*
X20104418Y45624574D02*
X20249438Y45640419D01*
X20249438Y45640419D02*
X20365268Y45679106D01*
X20365268Y45679106D02*
X20474425Y45734537D01*
X20474425Y45734537D02*
X20591475Y45837680D01*
X20591475Y45837680D02*
X20641518Y45921657D01*
X20641518Y45921657D02*
X20641801Y45985118D01*
X20641801Y45985118D02*
X20587533Y46184706D01*
X20587533Y46184706D02*
X20542596Y46281752D01*
X20542596Y46281752D02*
X20415859Y46475297D01*
X20415859Y46475297D02*
X20229887Y46697720D01*
X20229887Y46697720D02*
X20033339Y46910635D01*
X20033339Y46910635D02*
X19786384Y47146022D01*
X19786384Y47146022D02*
X19257673Y47599950D01*
X19257673Y47599950D02*
X18708443Y48029196D01*
X18708443Y48029196D02*
X17579193Y48848915D01*
X17579193Y48848915D02*
X17552267Y48878102D01*
X17552267Y48878102D02*
X17539081Y48914098D01*
X17539081Y48914098D02*
X17540355Y48952413D01*
X17540355Y48952413D02*
X17556809Y48988554D01*
X17556809Y48988554D02*
X17616720Y49027675D01*
X17616720Y49027675D02*
X17687434Y49016751D01*
X17687434Y49016751D02*
X18531987Y48532372D01*
X18531987Y48532372D02*
X18960297Y48301630D01*
X18960297Y48301630D02*
X19396910Y48087299D01*
X19396910Y48087299D02*
X19968480Y47847914D01*
X19968480Y47847914D02*
X20551228Y47636125D01*
X20551228Y47636125D02*
X20789701Y47569305D01*
X20789701Y47569305D02*
X21163285Y47510116D01*
X21163285Y47510116D02*
X21304630Y47504854D01*
X21304630Y47504854D02*
X21486253Y47528798D01*
X21486253Y47528798D02*
X21581704Y47567090D01*
X21581704Y47567090D02*
X21746146Y47663216D01*
X21746146Y47663216D02*
X21799927Y47720873D01*
X14542157Y50317001D02*
X14542157Y50317001D01*
X15630044Y48237572D02*
X15556570Y47662187D01*
X15556570Y47662187D02*
X15500030Y47085181D01*
X15500030Y47085181D02*
X15476831Y46399611D01*
X15476831Y46399611D02*
X15482427Y45852944D01*
X15482427Y45852944D02*
X15499497Y45306416D01*
X15499497Y45306416D02*
X15514410Y45108240D01*
X15514410Y45108240D02*
X15541387Y44914329D01*
X15541387Y44914329D02*
X15625381Y44549703D01*
X15625381Y44549703D02*
X15674495Y44413808D01*
X15674495Y44413808D02*
X15733417Y44292410D01*
X15733417Y44292410D02*
X15820121Y44169487D01*
X15820121Y44169487D02*
X15906379Y44095690D01*
X15906379Y44095690D02*
X15961726Y44076244D01*
X15961726Y44076244D02*
X16066621Y44079402D01*
X16066621Y44079402D02*
X16184768Y44111853D01*
X16184768Y44111853D02*
X16301821Y44172759D01*
X16301821Y44172759D02*
X16407989Y44265450D01*
X16407989Y44265450D02*
X16509390Y44413551D01*
X13184919Y49607027D02*
X13824291Y48967655D01*
X11920484Y50871462D02*
X12994646Y49797300D01*
X10393461Y52398485D02*
X11359486Y51432460D01*
X17654696Y45009971D02*
X18223416Y44441251D01*
X15505621Y47159046D02*
X16644134Y46020533D01*
X14687101Y47977566D02*
X15253034Y47411633D01*
X13917771Y48746896D02*
X14514283Y48150384D01*
X13076931Y49587736D02*
X13739121Y48925546D01*
X11766115Y50898552D02*
X12880349Y49784318D01*
X10317413Y52347254D02*
X11134068Y51530599D01*
X15497461Y47039926D02*
X16656875Y45880513D01*
X14638695Y47898693D02*
X15227545Y47309843D01*
X13838870Y48698518D02*
X14458694Y48078694D01*
X12968943Y49568445D02*
X13653950Y48883438D01*
X11613027Y50924360D02*
X12766051Y49771337D01*
X10243453Y52293934D02*
X10887867Y51649520D01*
X15490625Y46919484D02*
X16666283Y45743825D01*
X14590289Y47819820D02*
X15201368Y47208741D01*
X18894209Y54334633D02*
X19874937Y53353905D01*
X20637638Y52591204D02*
X21540580Y51688263D01*
X18967432Y54388689D02*
X19927409Y53428713D01*
X20741025Y52615097D02*
X21599323Y51756798D01*
X19042404Y54440997D02*
X19977564Y53505837D01*
X20845214Y52638187D02*
X21646677Y51836723D01*
X19119274Y54491406D02*
X20025337Y53585342D01*
X20950715Y52659965D02*
X21687450Y51923229D01*
X19198841Y54539118D02*
X20069429Y53668530D01*
X21065375Y52672584D02*
X21718193Y52019766D01*
X19281553Y54583685D02*
X20111336Y53753903D01*
X21189230Y52676009D02*
X21735937Y52129302D01*
X19371412Y54621106D02*
X20149734Y53842784D01*
X21343556Y52648961D02*
X21725912Y52266605D01*
X19467743Y54652054D02*
X20183432Y53936365D01*
X19572080Y54674996D02*
X20205209Y54041867D01*
X19701340Y54673015D02*
X20204094Y54170261D01*
X19884630Y54617005D02*
X20142920Y54358715D01*
X14542157Y50317001D02*
X14516586Y50205500D01*
X14516586Y50205500D02*
X14509238Y49931225D01*
X14509238Y49931225D02*
X14537964Y49656790D01*
X14537964Y49656790D02*
X14560292Y49501025D01*
X14560292Y49501025D02*
X14602099Y49350367D01*
X14602099Y49350367D02*
X14658471Y49242446D01*
X16509390Y44413551D02*
X16586428Y44590903D01*
X16586428Y44590903D02*
X16613781Y44694894D01*
X16613781Y44694894D02*
X16640795Y44862639D01*
X16640795Y44862639D02*
X16666999Y45106383D01*
X16666999Y45106383D02*
X16676205Y45363662D01*
X16676205Y45363662D02*
X16670556Y45665727D01*
X16670556Y45665727D02*
X16629337Y46152935D01*
X16629337Y46152935D02*
X16555824Y46636627D01*
X16555824Y46636627D02*
X16355311Y47596134D01*
X16355311Y47596134D02*
X16293290Y47860000D01*
X16293290Y47860000D02*
X16292234Y47899695D01*
X16292234Y47899695D02*
X16306004Y47935473D01*
X16306004Y47935473D02*
X16332185Y47963476D01*
X16332185Y47963476D02*
X16368362Y47979851D01*
X21799927Y47720873D02*
X21835049Y47811499D01*
X21835049Y47811499D02*
X21843177Y47983401D01*
X21843177Y47983401D02*
X21808559Y48072130D01*
X21808559Y48072130D02*
X21724821Y48178162D01*
X21724821Y48178162D02*
X21582245Y48308310D01*
X21582245Y48308310D02*
X21226222Y48526025D01*
X21226222Y48526025D02*
X20850358Y48705708D01*
X20850358Y48705708D02*
X20444650Y48870073D01*
X20444650Y48870073D02*
X20010101Y49016073D01*
X20010101Y49016073D02*
X19479139Y49171514D01*
X19479139Y49171514D02*
X18531935Y49410357D01*
X18531935Y49410357D02*
X18496238Y49427753D01*
X18496238Y49427753D02*
X18470865Y49456490D01*
X18470865Y49456490D02*
X18458118Y49492645D01*
X18458118Y49492645D02*
X18460303Y49532295D01*
X18460303Y49532295D02*
X18502385Y49590853D01*
X18502385Y49590853D02*
X18572912Y49605882D01*
X18572912Y49605882D02*
X19405666Y49468579D01*
X19405666Y49468579D02*
X20057489Y49379857D01*
X20057489Y49379857D02*
X20431584Y49343197D01*
X20431584Y49343197D02*
X20972109Y49322095D01*
X20972109Y49322095D02*
X21236508Y49327217D01*
X21236508Y49327217D02*
X21429808Y49341511D01*
X21429808Y49341511D02*
X21772163Y49400062D01*
X21772163Y49400062D02*
X21875543Y49430847D01*
X21875543Y49430847D02*
X22039231Y49504145D01*
X22039231Y49504145D02*
X22126591Y49569477D01*
X22126591Y49569477D02*
X22178485Y49642765D01*
X22178485Y49642765D02*
X22215824Y49724940D01*
X22215824Y49724940D02*
X22220354Y49846502D01*
X22220354Y49846502D02*
X22189687Y49964449D01*
X22189687Y49964449D02*
X22152232Y50025113D01*
X22152232Y50025113D02*
X22061993Y50090411D01*
X22061993Y50090411D02*
X21879004Y50170884D01*
X21879004Y50170884D02*
X21773134Y50208255D01*
X21773134Y50208255D02*
X21607650Y50253583D01*
X21607650Y50253583D02*
X21399847Y50296320D01*
D11*
X13135926Y64695924D02*
X13374021Y64695924D01*
X13612117Y64814972D01*
X13731164Y64934019D01*
X13850212Y65172114D01*
X13969260Y65648305D01*
X13969260Y66243543D01*
X13850212Y66719733D01*
X13731164Y66957829D01*
X13612117Y67076876D01*
X13374021Y67195924D01*
X13135926Y67195924D01*
X12897831Y67076876D01*
X12778783Y66957829D01*
X12659736Y66719733D01*
X12540688Y66243543D01*
X12540688Y65648305D01*
X12659736Y65172114D01*
X12778783Y64934019D01*
X12897831Y64814972D01*
X13135926Y64695924D01*
X14921640Y64934019D02*
X15040688Y64814972D01*
X15278783Y64695924D01*
X15874021Y64695924D01*
X16112117Y64814972D01*
X16231164Y64934019D01*
X16350212Y65172114D01*
X16350212Y65410210D01*
X16231164Y65767352D01*
X14802593Y67195924D01*
X16350212Y67195924D01*
X19207355Y64576876D02*
X17064498Y67791162D01*
X19921640Y64934019D02*
X20040688Y64814972D01*
X20278783Y64695924D01*
X20874021Y64695924D01*
X21112117Y64814972D01*
X21231164Y64934019D01*
X21350212Y65172114D01*
X21350212Y65410210D01*
X21231164Y65767352D01*
X19802593Y67195924D01*
X21350212Y67195924D01*
X22897831Y64695924D02*
X23135926Y64695924D01*
X23374021Y64814972D01*
X23493069Y64934019D01*
X23612117Y65172114D01*
X23731164Y65648305D01*
X23731164Y66243543D01*
X23612117Y66719733D01*
X23493069Y66957829D01*
X23374021Y67076876D01*
X23135926Y67195924D01*
X22897831Y67195924D01*
X22659736Y67076876D01*
X22540688Y66957829D01*
X22421640Y66719733D01*
X22302593Y66243543D01*
X22302593Y65648305D01*
X22421640Y65172114D01*
X22540688Y64934019D01*
X22659736Y64814972D01*
X22897831Y64695924D01*
X26112117Y67195924D02*
X24683545Y67195924D01*
X25397831Y67195924D02*
X25397831Y64695924D01*
X25159736Y65053067D01*
X24921640Y65291162D01*
X24683545Y65410210D01*
X27540688Y65767352D02*
X27302593Y65648305D01*
X27183545Y65529257D01*
X27064498Y65291162D01*
X27064498Y65172114D01*
X27183545Y64934019D01*
X27302593Y64814972D01*
X27540688Y64695924D01*
X28016879Y64695924D01*
X28254974Y64814972D01*
X28374021Y64934019D01*
X28493069Y65172114D01*
X28493069Y65291162D01*
X28374021Y65529257D01*
X28254974Y65648305D01*
X28016879Y65767352D01*
X27540688Y65767352D01*
X27302593Y65886400D01*
X27183545Y66005448D01*
X27064498Y66243543D01*
X27064498Y66719733D01*
X27183545Y66957829D01*
X27302593Y67076876D01*
X27540688Y67195924D01*
X28016879Y67195924D01*
X28254974Y67076876D01*
X28374021Y66957829D01*
X28493069Y66719733D01*
X28493069Y66243543D01*
X28374021Y66005448D01*
X28254974Y65886400D01*
X28016879Y65767352D01*
X31112117Y64695924D02*
X31945450Y67195924D01*
X32778783Y64695924D01*
X34088307Y64695924D02*
X34326402Y64695924D01*
X34564498Y64814972D01*
X34683545Y64934019D01*
X34802593Y65172114D01*
X34921640Y65648305D01*
X34921640Y66243543D01*
X34802593Y66719733D01*
X34683545Y66957829D01*
X34564498Y67076876D01*
X34326402Y67195924D01*
X34088307Y67195924D01*
X33850212Y67076876D01*
X33731164Y66957829D01*
X33612117Y66719733D01*
X33493069Y66243543D01*
X33493069Y65648305D01*
X33612117Y65172114D01*
X33731164Y64934019D01*
X33850212Y64814972D01*
X34088307Y64695924D01*
X35993069Y66957829D02*
X36112117Y67076876D01*
X35993069Y67195924D01*
X35874021Y67076876D01*
X35993069Y66957829D01*
X35993069Y67195924D01*
X38493069Y67195924D02*
X37064498Y67195924D01*
X37778783Y67195924D02*
X37778783Y64695924D01*
X37540688Y65053067D01*
X37302593Y65291162D01*
X37064498Y65410210D01*
X7421640Y68745924D02*
X7421640Y70531638D01*
X7302593Y70888781D01*
X7064498Y71126876D01*
X6707355Y71245924D01*
X6469260Y71245924D01*
X8969260Y71245924D02*
X8731164Y71126876D01*
X8612117Y71007829D01*
X8493069Y70769733D01*
X8493069Y70055448D01*
X8612117Y69817352D01*
X8731164Y69698305D01*
X8969260Y69579257D01*
X9326402Y69579257D01*
X9564498Y69698305D01*
X9683545Y69817352D01*
X9802593Y70055448D01*
X9802593Y70769733D01*
X9683545Y71007829D01*
X9564498Y71126876D01*
X9326402Y71245924D01*
X8969260Y71245924D01*
X10874021Y69579257D02*
X10874021Y71245924D01*
X10874021Y69817352D02*
X10993069Y69698305D01*
X11231164Y69579257D01*
X11588307Y69579257D01*
X11826402Y69698305D01*
X11945450Y69936400D01*
X11945450Y71245924D01*
X14207355Y71245924D02*
X14207355Y69936400D01*
X14088307Y69698305D01*
X13850212Y69579257D01*
X13374021Y69579257D01*
X13135926Y69698305D01*
X14207355Y71126876D02*
X13969259Y71245924D01*
X13374021Y71245924D01*
X13135926Y71126876D01*
X13016879Y70888781D01*
X13016879Y70650686D01*
X13135926Y70412591D01*
X13374021Y70293543D01*
X13969259Y70293543D01*
X14207355Y70174495D01*
X15040688Y69579257D02*
X15993069Y69579257D01*
X15397831Y68745924D02*
X15397831Y70888781D01*
X15516879Y71126876D01*
X15754974Y71245924D01*
X15993069Y71245924D01*
X16826402Y71245924D02*
X16826402Y68745924D01*
X17897831Y71245924D02*
X17897831Y69936400D01*
X17778783Y69698305D01*
X17540688Y69579257D01*
X17183545Y69579257D01*
X16945450Y69698305D01*
X16826402Y69817352D01*
X20159736Y71245924D02*
X20159736Y69936400D01*
X20040688Y69698305D01*
X19802593Y69579257D01*
X19326402Y69579257D01*
X19088307Y69698305D01*
X20159736Y71126876D02*
X19921640Y71245924D01*
X19326402Y71245924D01*
X19088307Y71126876D01*
X18969259Y70888781D01*
X18969259Y70650686D01*
X19088307Y70412591D01*
X19326402Y70293543D01*
X19921640Y70293543D01*
X20159736Y70174495D01*
X21350212Y69579257D02*
X21350212Y71245924D01*
X21350212Y69817352D02*
X21469259Y69698305D01*
X21707355Y69579257D01*
X22064498Y69579257D01*
X22302593Y69698305D01*
X22421640Y69936400D01*
X22421640Y71245924D01*
X26350212Y69936400D02*
X26707355Y70055448D01*
X26826402Y70174495D01*
X26945450Y70412591D01*
X26945450Y70769733D01*
X26826402Y71007829D01*
X26707355Y71126876D01*
X26469259Y71245924D01*
X25516879Y71245924D01*
X25516879Y68745924D01*
X26350212Y68745924D01*
X26588307Y68864972D01*
X26707355Y68984019D01*
X26826402Y69222114D01*
X26826402Y69460210D01*
X26707355Y69698305D01*
X26588307Y69817352D01*
X26350212Y69936400D01*
X25516879Y69936400D01*
X28374021Y71245924D02*
X28135926Y71126876D01*
X28016879Y70888781D01*
X28016879Y68745924D01*
X29326402Y71245924D02*
X29326402Y69579257D01*
X29326402Y68745924D02*
X29207355Y68864972D01*
X29326402Y68984019D01*
X29445450Y68864972D01*
X29326402Y68745924D01*
X29326402Y68984019D01*
X30397831Y71126876D02*
X30635926Y71245924D01*
X31112117Y71245924D01*
X31350212Y71126876D01*
X31469259Y70888781D01*
X31469259Y70769733D01*
X31350212Y70531638D01*
X31112117Y70412591D01*
X30754974Y70412591D01*
X30516879Y70293543D01*
X30397831Y70055448D01*
X30397831Y69936400D01*
X30516879Y69698305D01*
X30754974Y69579257D01*
X31112117Y69579257D01*
X31350212Y69698305D01*
X32421640Y71126876D02*
X32659736Y71245924D01*
X33135926Y71245924D01*
X33374021Y71126876D01*
X33493069Y70888781D01*
X33493069Y70769733D01*
X33374021Y70531638D01*
X33135926Y70412591D01*
X32778783Y70412591D01*
X32540688Y70293543D01*
X32421640Y70055448D01*
X32421640Y69936400D01*
X32540688Y69698305D01*
X32778783Y69579257D01*
X33135926Y69579257D01*
X33374021Y69698305D01*
X35516879Y71126876D02*
X35278783Y71245924D01*
X34802593Y71245924D01*
X34564498Y71126876D01*
X34445450Y70888781D01*
X34445450Y69936400D01*
X34564498Y69698305D01*
X34802593Y69579257D01*
X35278783Y69579257D01*
X35516879Y69698305D01*
X35635926Y69936400D01*
X35635926Y70174495D01*
X34445450Y70412591D01*
X36350212Y69579257D02*
X37302593Y69579257D01*
X36707355Y68745924D02*
X36707355Y70888781D01*
X36826402Y71126876D01*
X37064498Y71245924D01*
X37302593Y71245924D01*
X37778783Y69579257D02*
X38731164Y69579257D01*
X38135926Y68745924D02*
X38135926Y70888781D01*
X38254974Y71126876D01*
X38493069Y71245924D01*
X38731164Y71245924D01*
D10*
X18082260Y50309972D02*
X18828489Y49563743D01*
X16825494Y51566738D02*
X17893445Y50498787D01*
X16176829Y52215403D02*
X16725685Y51666547D01*
X13690630Y54701602D02*
X15772767Y52619465D01*
X18963390Y49301563D02*
X20662808Y47602144D01*
X17962787Y50302166D02*
X18676081Y49588871D01*
X16165984Y52098968D02*
X17811619Y50453334D01*
X13708337Y54556615D02*
X15797617Y52467335D01*
X18793195Y49344478D02*
X20474222Y47663452D01*
X16155658Y51982015D02*
X18533518Y49604156D01*
X13740867Y54396806D02*
X15821933Y52315741D01*
X18623000Y49387394D02*
X20276932Y47733462D01*
X16145511Y51864883D02*
X18465046Y49545349D01*
X13785881Y54224513D02*
X15846248Y52164146D01*
X16135364Y51747751D02*
X20075686Y47807429D01*
X13843552Y54039563D02*
X15870385Y52012730D01*
X16123470Y51632365D02*
X19868972Y47886863D01*
X13922790Y53833045D02*
X15894197Y51861639D01*
X17202689Y50425868D02*
X19654397Y47974159D01*
X16062551Y51566005D02*
X16571038Y51057519D01*
X14021249Y53607307D02*
X15918009Y51710547D01*
X17261002Y50240276D02*
X19427911Y48073366D01*
X14142088Y53359189D02*
X16355976Y51145301D01*
X17290183Y50083815D02*
X19186349Y48187649D01*
X14288811Y53085187D02*
X16198387Y51175611D01*
X17286646Y49960072D02*
X18928007Y48318711D01*
X20160980Y54320946D02*
X20082582Y54454066D01*
X20082582Y54454066D02*
X19994677Y54544666D01*
D12*
X18966560Y54764891D02*
X18981260Y54809001D01*
X18981260Y54809001D02*
X19230085Y55604157D01*
X19230085Y55604157D02*
X19456909Y56406227D01*
X19456909Y56406227D02*
X19660101Y57214530D01*
X19660101Y57214530D02*
X19838031Y58028383D01*
X19838031Y58028383D02*
X19980846Y58816755D01*
X19980846Y58816755D02*
X20034728Y59213609D01*
X20034728Y59213609D02*
X20071696Y59612111D01*
X20071696Y59612111D02*
X20093159Y60339318D01*
X20093159Y60339318D02*
X20058715Y61066025D01*
X20058715Y61066025D02*
X20009719Y61514296D01*
X20009719Y61514296D02*
X19941872Y61960447D01*
X19941872Y61960447D02*
X19760143Y62844474D01*
X19760143Y62844474D02*
X19629129Y63325364D01*
X19629129Y63325364D02*
X19477735Y63800753D01*
X19775429Y63800753D02*
X20045733Y62818511D01*
X20045733Y62818511D02*
X20184185Y62243724D01*
X20184185Y62243724D02*
X20292380Y61663168D01*
X20292380Y61663168D02*
X20338481Y61272263D01*
X20338481Y61272263D02*
X20369463Y60879556D01*
X20369463Y60879556D02*
X20384620Y60485968D01*
X20384620Y60485968D02*
X20383249Y60092422D01*
X20383249Y60092422D02*
X20362623Y59701325D01*
D10*
X12085186Y47397501D02*
X13007582Y46475104D01*
X10692187Y48790500D02*
X11484042Y47998644D01*
X13548397Y45807011D02*
X14314725Y45040682D01*
X12019905Y47335502D02*
X12939240Y46416167D01*
X10611412Y48743995D02*
X11383839Y47971568D01*
X13513884Y45714244D02*
X14255352Y44972776D01*
X11956787Y47271341D02*
X12869686Y46358442D01*
X10533273Y48694854D02*
X11282339Y47945789D01*
X13480567Y45620282D02*
X14192383Y44908466D01*
X11895707Y47205141D02*
X12798771Y46302078D01*
X10456979Y48643870D02*
X11178291Y47922558D01*
X13448616Y45524953D02*
X14123691Y44849878D01*
X11835714Y47137855D02*
X12726368Y46247202D01*
X10385141Y48588429D02*
X11073712Y47899857D01*
X13417367Y45428923D02*
X14052628Y44793662D01*
X11777089Y47069201D02*
X12652324Y46193967D01*
X10319051Y48527239D02*
X10968444Y47877846D01*
X13386900Y45332111D02*
X13974834Y44744177D01*
X11718464Y47000547D02*
X12576477Y46142534D01*
X10258489Y48460522D02*
X10861828Y47857183D01*
X13361787Y45229944D02*
X13890561Y44701170D01*
X11659839Y46931893D02*
X12498108Y46093623D01*
X10205815Y48385917D02*
X10753240Y47838492D01*
X13343295Y45121158D02*
X13796984Y44667468D01*
X11603784Y46860668D02*
X12416495Y46047958D01*
X10158751Y48305702D02*
X10638703Y47825749D01*
X13333910Y45003264D02*
X13688043Y44649131D01*
X11550459Y46786714D02*
X12332700Y46004474D01*
X10128138Y48209035D02*
X10517114Y47820059D01*
X13345162Y44864733D02*
X13555486Y44654409D01*
X11500362Y46709532D02*
X12246957Y45962937D01*
X10122162Y48087732D02*
X10372237Y47837657D01*
X11455630Y46626984D02*
X12158126Y45924489D01*
X11416887Y46538449D02*
X12060861Y45894475D01*
X11388637Y46439419D02*
X11954778Y45873279D01*
X11371930Y46328848D02*
X11835300Y45865477D01*
X22507829Y54032359D02*
X22423296Y54185480D01*
X22423296Y54185480D02*
X22360763Y54366625D01*
X22871950Y54579986D02*
X22678029Y54536407D01*
X23568289Y54036020D02*
X23475430Y53972075D01*
X22678029Y54536407D02*
X22582720Y54510654D01*
X20445090Y55585233D02*
X21254319Y55009845D01*
X23970377Y54123597D02*
X23817580Y54112352D01*
X22492915Y54471690D02*
X22361097Y54365529D01*
X22582720Y54510654D02*
X22492915Y54471690D01*
X23668696Y54084920D02*
X23568289Y54036020D01*
X18851379Y57867511D02*
X18154537Y57642338D01*
X18154537Y57642338D02*
X17804435Y57536840D01*
X17804435Y57536840D02*
X17448730Y57454967D01*
X17448730Y57454967D02*
X17022380Y57403408D01*
X17022380Y57403408D02*
X16592701Y57382772D01*
X16592701Y57382772D02*
X16009939Y57381807D01*
X16009939Y57381807D02*
X15427265Y57403399D01*
X15427265Y57403399D02*
X14354651Y57475594D01*
X15406638Y57073364D02*
X15606956Y57142087D01*
X15606956Y57142087D02*
X15798554Y57228068D01*
X15798554Y57228068D02*
X15889071Y57301602D01*
X15889071Y57301602D02*
X15973886Y57382772D01*
X15602596Y57661239D02*
X15730955Y57611882D01*
X15730955Y57611882D02*
X15850122Y57547789D01*
X15850122Y57547789D02*
X15916492Y57469583D01*
X15916492Y57469583D02*
X15973886Y57382772D01*
X16829914Y57052737D02*
X17016593Y57141739D01*
X17016593Y57141739D02*
X17107611Y57189606D01*
X17107611Y57189606D02*
X17190890Y57248695D01*
X17190890Y57248695D02*
X17272568Y57342525D01*
X17272568Y57342525D02*
X17345594Y57444653D01*
X16953677Y57692180D02*
X17092151Y57648735D01*
X17092151Y57648735D02*
X17221831Y57589044D01*
X17221831Y57589044D02*
X17287518Y57520987D01*
X17287518Y57520987D02*
X17345594Y57444653D01*
X15515319Y47276628D02*
X16627889Y46164057D01*
X14735507Y48056439D02*
X15277587Y47514359D01*
X13996672Y48795274D02*
X14569871Y48222075D01*
X14464042Y52782676D02*
X16057663Y51189055D01*
X17272790Y49846650D02*
X18653989Y48465451D01*
X14707418Y52412022D02*
X15919985Y51199454D01*
X17253552Y49738609D02*
X18366618Y48625543D01*
X14801281Y52190880D02*
X15782855Y51209305D01*
X19299045Y47565836D02*
X20472597Y46392284D01*
X17229816Y49635065D02*
X18068827Y48796054D01*
X14732509Y52132372D02*
X15654735Y51210147D01*
X12646589Y54218293D02*
X14368562Y52496319D01*
X18708298Y48029304D02*
X20601936Y46135666D01*
X17204329Y49533273D02*
X17766744Y48970857D01*
X12348304Y54389298D02*
X15537200Y51200402D01*
X18224761Y48385562D02*
X20642660Y45967663D01*
X17178995Y49431328D02*
X17591971Y49018352D01*
X12147894Y54462428D02*
X15427254Y51183069D01*
X17772899Y48710144D02*
X20613165Y45869879D01*
X17150583Y49332461D02*
X17539237Y48943807D01*
X11991612Y54491431D02*
X15327887Y51155157D01*
X17112626Y49243138D02*
X20553432Y45802333D01*
X11867484Y54488280D02*
X15236551Y51119213D01*
X17067013Y49161472D02*
X20485062Y45743423D01*
X11764311Y54464174D02*
X15151538Y51076947D01*
X17015699Y49085507D02*
X20404239Y45696967D01*
X11676490Y54424715D02*
X15069918Y51031288D01*
X16959057Y49014870D02*
X20313916Y45660011D01*
X11604369Y54369558D02*
X14991077Y50982849D01*
X16895278Y48951370D02*
X20211324Y45635324D01*
X11544680Y54301967D02*
X14915495Y50931152D01*
X16823406Y48895963D02*
X20094266Y45625103D01*
X11490587Y54228782D02*
X14843578Y50875790D01*
X16745556Y48846533D02*
X19956576Y45635513D01*
X11442213Y54149876D02*
X14771644Y50820445D01*
X17766884Y47697925D02*
X19780802Y45684007D01*
X16662918Y48801892D02*
X17696213Y47768597D01*
X11405523Y54059287D02*
X14706460Y50758349D01*
X18137792Y47199739D02*
X19512863Y45824667D01*
X16576149Y48761382D02*
X17589873Y47747658D01*
X17620463Y52808236D02*
X18451908Y51976791D01*
X18673165Y51755535D02*
X19610073Y50818626D01*
X20047090Y50381610D02*
X21104048Y49324651D01*
X16449133Y54106846D02*
X17358477Y53197501D01*
X17670106Y52885873D02*
X18522725Y52033253D01*
X18754800Y51801178D02*
X19710674Y50845305D01*
X20175829Y50380150D02*
X21228909Y49327070D01*
X16471041Y54212217D02*
X17391087Y53292171D01*
X17719996Y52963262D02*
X18593360Y52089898D01*
X18836763Y51846494D02*
X19811093Y50872164D01*
X20305532Y50377726D02*
X21347810Y49335448D01*
X16494284Y54316253D02*
X17422564Y53387973D01*
X17770557Y53039980D02*
X18663457Y52147080D01*
X18919240Y51891297D02*
X19910409Y50900127D01*
X20436709Y50373828D02*
X21463718Y49346819D01*
X16518725Y54419091D02*
X17453101Y53484715D01*
X17821636Y53116181D02*
X18732983Y52204834D01*
X19002059Y51935757D02*
X20008840Y50928976D01*
X20568827Y50368989D02*
X21573771Y49364045D01*
X16544857Y54520238D02*
X17482687Y53582408D01*
X17873017Y53192079D02*
X18801948Y52263148D01*
X19085569Y51979526D02*
X20106333Y50958762D01*
X20702182Y50362914D02*
X21681803Y49383292D01*
X16572523Y54619851D02*
X17511299Y53681076D01*
X17925360Y53267015D02*
X18870913Y52321462D01*
X19169411Y52022964D02*
X20202760Y50989614D01*
X20838908Y50353467D02*
X21787689Y49404685D01*
X16601782Y54717872D02*
X17538755Y53780899D01*
X17978099Y53341555D02*
X18938431Y52381223D01*
X19254162Y52065492D02*
X20298019Y51021635D01*
X20976071Y50343583D02*
X21884862Y49434792D01*
X16632788Y54814145D02*
X17565141Y53881792D01*
X18031579Y53415354D02*
X19005837Y52441096D01*
X19339194Y52107739D02*
X20391642Y51055291D01*
X21113325Y50333608D02*
X21973742Y49473191D01*
X16665494Y54908718D02*
X17590310Y53983902D01*
X18085940Y53488272D02*
X19072727Y52501485D01*
X19425410Y52148802D02*
X20483994Y51090219D01*
X21256669Y50317544D02*
X22057437Y49516776D01*
X14907110Y48385032D02*
X14894380Y48315307D01*
X14894380Y48315307D02*
X14499646Y47672127D01*
X14499646Y47672127D02*
X14131068Y47012820D01*
X14131068Y47012820D02*
X13893203Y46567727D01*
X13893203Y46567727D02*
X13728340Y46231040D01*
X13728340Y46231040D02*
X13579077Y45887309D01*
X13579077Y45887309D02*
X13384360Y45324042D01*
X13384360Y45324042D02*
X13349014Y45164668D01*
X13349014Y45164668D02*
X13333882Y45002470D01*
X13333882Y45002470D02*
X13347517Y44847530D01*
X13347517Y44847530D02*
X13386762Y44745091D01*
X13386762Y44745091D02*
X13416743Y44707014D01*
X13416743Y44707014D02*
X13469227Y44675202D01*
X13469227Y44675202D02*
X13567492Y44651979D01*
X13567492Y44651979D02*
X13710754Y44649951D01*
X13710754Y44649951D02*
X13827142Y44674615D01*
X13827142Y44674615D02*
X14035942Y44780463D01*
X14035942Y44780463D02*
X14213919Y44927527D01*
X14213919Y44927527D02*
X14413596Y45168123D01*
X14413596Y45168123D02*
X14480162Y45270635D01*
X14480162Y45270635D02*
X14598444Y45492877D01*
X14598444Y45492877D02*
X14727489Y45770645D01*
X14727489Y45770645D02*
X14857940Y46099544D01*
X14857940Y46099544D02*
X14976607Y46433087D01*
X14976607Y46433087D02*
X15125899Y46933518D01*
X15125899Y46933518D02*
X15274366Y47499058D01*
X15274366Y47499058D02*
X15432538Y48267997D01*
X15432538Y48267997D02*
X15447734Y48304685D01*
X15447734Y48304685D02*
X15474876Y48331758D01*
X15474876Y48331758D02*
X15510189Y48346678D01*
X15510189Y48346678D02*
X15549898Y48346907D01*
X15549898Y48346907D02*
X15611325Y48307893D01*
X15611325Y48307893D02*
X15630044Y48237572D01*
X15630044Y48237572D02*
X15630044Y48237572D01*
X19133584Y49258647D02*
X20829855Y47562376D01*
X13684815Y54834696D02*
X15746854Y52772657D01*
X16188009Y52331502D02*
X16757993Y51761518D01*
X16908353Y51611158D02*
X18004824Y50514687D01*
X18201732Y50317779D02*
X18980897Y49538614D01*
X19303779Y49215732D02*
X20983506Y47536005D01*
X14806870Y52208828D02*
X14791994Y52173496D01*
X14791994Y52173496D02*
X14763716Y52145617D01*
X14763716Y52145617D02*
X14692956Y52130608D01*
X14692956Y52130608D02*
X14630586Y52167244D01*
X14630586Y52167244D02*
X14245318Y52649473D01*
X14245318Y52649473D02*
X13846191Y53120065D01*
X13846191Y53120065D02*
X13496123Y53493803D01*
X13496123Y53493803D02*
X13144758Y53834587D01*
X13144758Y53834587D02*
X12959063Y53988641D01*
X12959063Y53988641D02*
X12613959Y54240532D01*
X12613959Y54240532D02*
X12437718Y54345314D01*
X12437718Y54345314D02*
X12251250Y54430195D01*
X12251250Y54430195D02*
X12079787Y54481378D01*
X12079787Y54481378D02*
X11914619Y54495373D01*
X11914619Y54495373D02*
X11782112Y54471465D01*
X11782112Y54471465D02*
X11661941Y54417622D01*
X11661941Y54417622D02*
X11581277Y54348310D01*
X11581277Y54348310D02*
X11505217Y54251997D01*
X11505217Y54251997D02*
X11445485Y54157216D01*
X11445485Y54157216D02*
X11406043Y54061940D01*
X11406043Y54061940D02*
X11381624Y53916767D01*
X11381624Y53916767D02*
X11387470Y53768334D01*
X11387470Y53768334D02*
X11418656Y53655332D01*
X11418656Y53655332D02*
X11546436Y53386474D01*
X11546436Y53386474D02*
X11633776Y53249072D01*
X11633776Y53249072D02*
X11800790Y53041387D01*
X11800790Y53041387D02*
X11985860Y52849140D01*
X11985860Y52849140D02*
X12299624Y52564863D01*
X12299624Y52564863D02*
X12631597Y52301857D01*
X12631597Y52301857D02*
X12967924Y52066781D01*
X12967924Y52066781D02*
X13311331Y51841796D01*
X13311331Y51841796D02*
X13339156Y51813465D01*
X13339156Y51813465D02*
X13353461Y51777898D01*
X13353461Y51777898D02*
X13353386Y51739563D01*
X13353386Y51739563D02*
X13338070Y51702925D01*
X13338070Y51702925D02*
X13281529Y51662502D01*
X13281529Y51662502D02*
X13212300Y51668691D01*
X13212300Y51668691D02*
X12771977Y51885713D01*
X12771977Y51885713D02*
X12553596Y51990553D01*
X12553596Y51990553D02*
X12112666Y52175919D01*
X15608983Y48073918D02*
X16431784Y47251117D01*
X13063023Y50619878D02*
X15429589Y48253312D01*
X11244184Y52438717D02*
X12739328Y50943573D01*
X16906239Y46649382D02*
X18673969Y44881653D01*
X15594471Y47961151D02*
X16466763Y47088858D01*
X12896739Y50658882D02*
X15408298Y48147323D01*
X11092458Y52463163D02*
X12553857Y51001764D01*
X16985583Y46442759D02*
X18653286Y44775056D01*
X15580138Y47848204D02*
X16499802Y46928541D01*
X14343498Y49084844D02*
X15387008Y48041334D01*
X12730456Y50697887D02*
X14265307Y49163035D01*
X10951182Y52477160D02*
X12367590Y51060752D01*
X17069324Y46231739D02*
X18618365Y44682698D01*
X15565825Y47735238D02*
X16530529Y46770534D01*
X14903693Y48397370D02*
X15365718Y47935345D01*
X14311137Y48989926D02*
X14839169Y48461893D01*
X12564172Y50736891D02*
X14164487Y49136576D01*
X10815815Y52485248D02*
X12178587Y51122476D01*
X17158988Y46014795D02*
X18571592Y44602191D01*
X15551854Y47621930D02*
X16559717Y46614067D01*
X14880726Y48293058D02*
X15343998Y47829786D01*
X14233375Y48940409D02*
X14737439Y48436345D01*
X13433206Y49740578D02*
X14079459Y49094324D01*
X12397888Y50775896D02*
X13339142Y49834642D01*
X10692190Y52481594D02*
X11984146Y51189638D01*
X17257967Y45788538D02*
X18513715Y44532789D01*
X15538604Y47507900D02*
X16585408Y46461097D01*
X14832320Y48214185D02*
X15321861Y47724643D01*
X14154474Y48892031D02*
X14681048Y48365456D01*
X13392049Y49654455D02*
X13994432Y49052072D01*
X12234780Y50811724D02*
X13223242Y49823263D01*
X10577119Y52469386D02*
X11782670Y51263834D01*
X17370477Y45548748D02*
X18442403Y44476822D01*
X15526353Y47392872D02*
X16608193Y46311032D01*
X14783913Y48135312D02*
X15299724Y47619501D01*
X14075573Y48843652D02*
X14625460Y48293766D01*
X13292907Y49626318D02*
X13909405Y49009820D01*
X12076143Y50843082D02*
X13108944Y49810281D01*
X10476130Y52443095D02*
X11574289Y51344936D01*
X17497943Y45294003D02*
X18354196Y44437750D01*
D11*
X22439414Y62616924D02*
X22751914Y60116924D01*
X23347152Y60116924D01*
X23689414Y60235972D01*
X23897748Y60474067D01*
X23987033Y60712162D01*
X24046557Y61188352D01*
X24001914Y61545495D01*
X23823343Y62021686D01*
X23674533Y62259781D01*
X23406676Y62497876D01*
X23034652Y62616924D01*
X22439414Y62616924D01*
X24939414Y62616924D02*
X25147748Y60950257D01*
X25088224Y61426448D02*
X25237033Y61188352D01*
X25370962Y61069305D01*
X25623938Y60950257D01*
X25862033Y60950257D01*
X26487033Y62616924D02*
X26695367Y60950257D01*
X26799533Y60116924D02*
X26665605Y60235972D01*
X26769771Y60355019D01*
X26903700Y60235972D01*
X26799533Y60116924D01*
X26769771Y60355019D01*
X27647748Y60950257D02*
X28034652Y62616924D01*
X28838224Y60950257D01*
X30549533Y62497876D02*
X30296557Y62616924D01*
X29820367Y62616924D01*
X29597152Y62497876D01*
X29507867Y62259781D01*
X29626914Y61307400D01*
X29775724Y61069305D01*
X30028700Y60950257D01*
X30504890Y60950257D01*
X30728105Y61069305D01*
X30817390Y61307400D01*
X30787629Y61545495D01*
X29567390Y61783591D01*
D12*
X13241388Y57518859D02*
X13249226Y57589397D01*
X13249226Y57589397D02*
X13287703Y57621636D01*
X13287703Y57621636D02*
X13335440Y57644261D01*
X13335440Y57644261D02*
X13578406Y57753988D01*
X13578406Y57753988D02*
X13755155Y57802964D01*
X13755155Y57802964D02*
X13935489Y57838495D01*
X13935489Y57838495D02*
X14299468Y57895065D01*
X14299468Y57895065D02*
X14800001Y57969839D01*
X14800001Y57969839D02*
X15302685Y58028305D01*
X15302685Y58028305D02*
X15780263Y58067527D01*
X15780263Y58067527D02*
X16258875Y58091006D01*
X16258875Y58091006D02*
X16733077Y58099450D01*
X16733077Y58099450D02*
X17207228Y58091006D01*
X17207228Y58091006D02*
X17571617Y58061136D01*
X17571617Y58061136D02*
X17936128Y58036142D01*
X17936128Y58036142D02*
X18437736Y58059655D01*
X18437736Y58059655D02*
X18829617Y58114518D01*
X18829617Y58114518D02*
X19152915Y58188871D01*
X19152915Y58188871D02*
X19472303Y58279109D01*
X19472303Y58279109D02*
X19686698Y58348878D01*
X19605642Y57947284D02*
X19632181Y58069925D01*
X19632181Y58069925D02*
X19686698Y58348878D01*
D10*
X23817580Y54112352D02*
X23668696Y54084920D01*
X21254319Y55009845D02*
X21666707Y54735439D01*
X21666707Y54735439D02*
X22096250Y54490359D01*
X22096250Y54490359D02*
X22366164Y54364210D01*
X22366164Y54364210D02*
X22643168Y54253531D01*
X22643168Y54253531D02*
X23207474Y54058216D01*
X23207474Y54058216D02*
X23826286Y53868050D01*
X23826286Y53868050D02*
X24454515Y53712502D01*
X24454515Y53712502D02*
X24987865Y53626540D01*
X23776992Y53582119D02*
X23665217Y53703156D01*
X23665217Y53703156D02*
X23560401Y53829652D01*
X23560401Y53829652D02*
X23476149Y53972628D01*
X22601211Y53883799D02*
X22507829Y54032359D01*
D12*
X25640517Y53662746D02*
X25410241Y53819108D01*
X25410241Y53819108D02*
X25170259Y53960575D01*
X25170259Y53960575D02*
X24582068Y54265523D01*
X24582068Y54265523D02*
X23978939Y54540560D01*
X23978939Y54540560D02*
X23523256Y54727841D01*
X23523256Y54727841D02*
X23061937Y54901091D01*
X23061937Y54901091D02*
X22513303Y55089194D01*
X22513303Y55089194D02*
X21996019Y55238109D01*
X21996019Y55238109D02*
X21706027Y55300810D01*
X21706027Y55300810D02*
X21361171Y55394861D01*
X21361171Y55394861D02*
X21127027Y55481706D01*
X21127027Y55481706D02*
X20898751Y55582964D01*
X20898751Y55582964D02*
X20506870Y55802418D01*
X20506870Y55802418D02*
X20212782Y55995276D01*
X20212782Y55995276D02*
X19925372Y56198325D01*
X19925372Y56198325D02*
X19834722Y55867263D01*
X19834722Y55867263D02*
X19823041Y55827101D01*
X19605642Y57947284D02*
X19299875Y57808851D01*
X19299875Y57808851D02*
X18594489Y57503183D01*
X18594489Y57503183D02*
X17708837Y57056439D01*
X17708837Y57056439D02*
X17514948Y56946260D01*
X17514948Y56946260D02*
X17316955Y56844823D01*
X17316955Y56844823D02*
X17074070Y56756709D01*
X17074070Y56756709D02*
X16823185Y56695908D01*
X16823185Y56695908D02*
X16522577Y56666400D01*
X16522577Y56666400D02*
X16219687Y56664557D01*
X16219687Y56664557D02*
X15803112Y56681244D01*
X15803112Y56681244D02*
X15388899Y56727258D01*
X15388899Y56727258D02*
X14835130Y56834727D01*
X14835130Y56834727D02*
X14291631Y56985900D01*
X14291631Y56985900D02*
X13916419Y57118595D01*
X13916419Y57118595D02*
X13554894Y57283730D01*
X13554894Y57283730D02*
X13414938Y57360767D01*
X13414938Y57360767D02*
X13288414Y57456158D01*
X13288414Y57456158D02*
X13241388Y57518859D01*
D10*
X16250322Y48649349D02*
X16419256Y48701891D01*
X16419256Y48701891D02*
X16564525Y48756194D01*
X16564525Y48756194D02*
X16704300Y48823035D01*
X16704300Y48823035D02*
X16808073Y48885080D01*
X16808073Y48885080D02*
X16903831Y48958431D01*
X16903831Y48958431D02*
X17032101Y49108080D01*
X17032101Y49108080D02*
X17138993Y49300484D01*
X17138993Y49300484D02*
X17196002Y49500015D01*
X17196002Y49500015D02*
X17240358Y49677167D01*
X17240358Y49677167D02*
X17274389Y49856321D01*
X17274389Y49856321D02*
X17288746Y49980899D01*
X17288746Y49980899D02*
X17288641Y50105734D01*
X17288641Y50105734D02*
X17260390Y50242674D01*
X17260390Y50242674D02*
X17217380Y50376526D01*
X17217380Y50376526D02*
X17188733Y50472738D01*
X17188733Y50472738D02*
X17146119Y50561805D01*
X17146119Y50561805D02*
X17066182Y50634968D01*
X17066182Y50634968D02*
X16975092Y50697201D01*
X16975092Y50697201D02*
X16839696Y50796967D01*
X16839696Y50796967D02*
X16675796Y50975119D01*
X16675796Y50975119D02*
X16554652Y51067759D01*
X16554652Y51067759D02*
X16443656Y51118128D01*
X16443656Y51118128D02*
X16326617Y51153272D01*
X16326617Y51153272D02*
X16146093Y51181942D01*
X16146093Y51181942D02*
X15963185Y51196029D01*
X15963185Y51196029D02*
X15656763Y51210281D01*
X15656763Y51210281D02*
X15509261Y51197353D01*
X15509261Y51197353D02*
X15364592Y51167524D01*
X15364592Y51167524D02*
X15233267Y51117830D01*
X15233267Y51117830D02*
X15108053Y51053507D01*
X15108053Y51053507D02*
X14963902Y50965471D01*
X14963902Y50965471D02*
X14828904Y50864137D01*
X14828904Y50864137D02*
X14755095Y50806976D01*
X14755095Y50806976D02*
X14690718Y50740475D01*
X14690718Y50740475D02*
X14649625Y50665138D01*
X14649625Y50665138D02*
X14581137Y50471660D01*
X14581137Y50471660D02*
X14542157Y50317001D01*
X13759969Y48650139D02*
X14403106Y48007003D01*
X12863158Y49546950D02*
X13568779Y48841329D01*
X11462074Y50948034D02*
X12651753Y49758355D01*
X10191440Y52218669D02*
X10608117Y51801992D01*
X15485670Y46797160D02*
X16671575Y45611254D01*
X14541882Y47740947D02*
X15173977Y47108852D01*
X13681556Y48601273D02*
X14347517Y47935312D01*
X12759143Y49523686D02*
X13483196Y48799633D01*
X11313572Y50969257D02*
X12537455Y49745374D01*
X15481757Y46673793D02*
X16674001Y45481549D01*
X14493697Y47661853D02*
X15146587Y47008963D01*
X13604368Y48551182D02*
X14291211Y47864339D01*
X12656655Y49498895D02*
X13397487Y48758063D01*
X11168141Y50987409D02*
X12422723Y49732827D01*
X15478861Y46549409D02*
X16675988Y45352283D01*
X14447018Y47581252D02*
X15118942Y46909329D01*
X13527180Y48501090D02*
X14234477Y47793794D01*
X12554406Y49473865D02*
X13311274Y48716997D01*
X11026015Y51002256D02*
X12307495Y49720776D01*
X15477159Y46423832D02*
X16673364Y45227627D01*
X14400428Y47500563D02*
X15090513Y46810479D01*
X13450661Y48450331D02*
X14177339Y47723652D01*
X12453101Y49447891D02*
X13224973Y48676019D01*
X10889255Y51011736D02*
X12191697Y49709294D01*
X15477025Y46296687D02*
X16667015Y45106697D01*
X14354630Y47419083D02*
X15062083Y46711629D01*
X13374663Y48399049D02*
X14119876Y47653836D01*
X12352520Y49421193D02*
X13137946Y48635767D01*
X10755874Y51017838D02*
X12074424Y49699288D01*
X15477266Y46169167D02*
X16654676Y44991757D01*
X14308891Y47337542D02*
X15032912Y46613521D01*
X13298666Y48347767D02*
X14062096Y47584337D01*
X12252637Y49393796D02*
X13050834Y48595599D01*
X10626481Y51019952D02*
X11955626Y49690807D01*
X15478946Y46040207D02*
X16642321Y44876833D01*
X14263854Y47255300D02*
X15002943Y46516211D01*
X13223415Y48295739D02*
X14003968Y47515186D01*
X20600322Y48810144D02*
X21746705Y47663761D01*
X14003531Y55534214D02*
X15445762Y54091983D01*
X16297622Y53240123D02*
X17068430Y52469314D01*
X17282092Y52255652D02*
X17940664Y51597081D01*
X18109114Y51428631D02*
X18880384Y50657361D01*
X19167859Y50369886D02*
X20168796Y49368949D01*
X20818169Y48719576D02*
X21805067Y47732678D01*
X14085131Y55579893D02*
X15392633Y54272391D01*
X16314605Y53350419D02*
X17107235Y52557789D01*
X17329338Y52335686D02*
X18014631Y51650393D01*
X18189332Y51475692D02*
X18987346Y50677678D01*
X19291574Y50373450D02*
X20309903Y49355121D01*
X21050667Y48614357D02*
X21837206Y47827818D01*
X14175041Y55617262D02*
X15330779Y54461524D01*
X16333349Y53458954D02*
X17146040Y52646264D01*
X17376584Y52415719D02*
X18088598Y51703705D01*
X18269550Y51522753D02*
X19093807Y50698496D01*
X19415818Y50376485D02*
X20450015Y49342289D01*
X21316430Y48475873D02*
X21845432Y47946871D01*
X14269242Y55650341D02*
X15256016Y54663567D01*
X16352093Y53567489D02*
X17183762Y52735821D01*
X17424568Y52495014D02*
X18162565Y51757018D01*
X18349768Y51569814D02*
X19199137Y50720445D01*
X19540438Y50379145D02*
X20583894Y49335689D01*
X14375682Y55671179D02*
X15159923Y54886938D01*
X16370837Y53676025D02*
X17220261Y52826601D01*
X17472792Y52574070D02*
X18235848Y51811014D01*
X18430196Y51616666D02*
X19303465Y50743397D01*
X19666063Y50380798D02*
X20717434Y49329428D01*
X14525512Y55648629D02*
X15023374Y55150767D01*
X16389581Y53784560D02*
X17256023Y52918118D01*
X17521575Y52652566D02*
X18308402Y51865739D01*
X18510920Y51663221D02*
X19406752Y50767388D01*
X19792233Y50381908D02*
X20848487Y49325654D01*
X16408466Y53892954D02*
X17290910Y53010511D01*
X17570821Y52730599D02*
X18380273Y51921147D01*
X18591899Y51709521D02*
X19508968Y50792453D01*
X19919047Y50382373D02*
X20979188Y49322232D01*
X16428379Y54000320D02*
X17325072Y53103627D01*
X11386455Y53951076D02*
X14656907Y50680624D01*
X16485090Y48725161D02*
X17563989Y47646262D01*
X11383704Y53826547D02*
X14619743Y50590508D01*
X16390514Y48692458D02*
X17761213Y47321759D01*
X13351066Y51731906D02*
X14588386Y50494586D01*
X11414691Y53668281D02*
X13107892Y51975080D01*
X16293615Y48662078D02*
X17935338Y47020355D01*
X13290054Y51665639D02*
X14560454Y50395239D01*
X11524134Y53431559D02*
X12714744Y52240949D01*
X16192979Y48635435D02*
X18079254Y46749160D01*
X13108623Y51719791D02*
X14535580Y50292834D01*
X16083925Y48617209D02*
X18207488Y46493646D01*
X12857644Y51843491D02*
X14514593Y50186542D01*
X15952074Y48621781D02*
X18322054Y46251801D01*
X12609994Y51963861D02*
X14506174Y50067681D01*
X15808722Y48637854D02*
X18418398Y46028178D01*
X12379265Y52067311D02*
X14508965Y49937611D01*
X16523196Y47796100D02*
X18497941Y45821356D01*
X11993346Y49317622D02*
X11459543Y49138666D01*
X11459543Y49138666D02*
X11008742Y48957965D01*
X11008742Y48957965D02*
X10790679Y48846355D01*
X10790679Y48846355D02*
X10577810Y48724616D01*
X10577810Y48724616D02*
X10443635Y48634953D01*
X10443635Y48634953D02*
X10339411Y48547862D01*
X10339411Y48547862D02*
X10247731Y48447886D01*
X10247731Y48447886D02*
X10160571Y48310999D01*
X10160571Y48310999D02*
X10121247Y48178615D01*
X10121247Y48178615D02*
X10123191Y48068500D01*
X10123191Y48068500D02*
X10151457Y47987112D01*
X10151457Y47987112D02*
X10213365Y47927474D01*
X10213365Y47927474D02*
X10284107Y47876740D01*
X10284107Y47876740D02*
X10356914Y47841146D01*
X10356914Y47841146D02*
X10478637Y47818702D01*
X10478637Y47818702D02*
X10689287Y47828830D01*
X10689287Y47828830D02*
X10996743Y47883331D01*
X10996743Y47883331D02*
X11302076Y47950195D01*
X11302076Y47950195D02*
X11608080Y48034930D01*
X11608080Y48034930D02*
X12254660Y48261129D01*
X12254660Y48261129D02*
X12887965Y48522968D01*
X12887965Y48522968D02*
X13548808Y48831455D01*
X21399847Y50296320D02*
X21111202Y50333846D01*
X21111202Y50333846D02*
X20717464Y50362217D01*
X20717464Y50362217D02*
X19930971Y50382417D01*
X19930971Y50382417D02*
X19144130Y50369202D01*
X19144130Y50369202D02*
X18521853Y50338695D01*
X18521853Y50338695D02*
X17900065Y50298068D01*
X17900065Y50298068D02*
X17860756Y50303693D01*
X17860756Y50303693D02*
X17827799Y50323275D01*
X17827799Y50323275D02*
X17804589Y50353787D01*
X17804589Y50353787D02*
X17794523Y50392200D01*
X17794523Y50392200D02*
X17816825Y50461058D01*
X17816825Y50461058D02*
X17879746Y50496831D01*
X17879746Y50496831D02*
X18349956Y50563959D01*
X18349956Y50563959D02*
X18819797Y50645853D01*
X18819797Y50645853D02*
X19287287Y50739639D01*
X19287287Y50739639D02*
X19797092Y50868222D01*
X19797092Y50868222D02*
X20294542Y51020385D01*
X20294542Y51020385D02*
X20731313Y51191325D01*
X20731313Y51191325D02*
X21015012Y51323666D01*
X21015012Y51323666D02*
X21194652Y51423882D01*
X21194652Y51423882D02*
X21365495Y51536731D01*
X21365495Y51536731D02*
X21482237Y51627765D01*
X21482237Y51627765D02*
X21601167Y51759040D01*
X21601167Y51759040D02*
X21677931Y51895717D01*
X21677931Y51895717D02*
X21729425Y52059282D01*
X21729425Y52059282D02*
X21738106Y52191893D01*
X21738106Y52191893D02*
X21720484Y52293631D01*
X21720484Y52293631D02*
X21669633Y52415305D01*
X21669633Y52415305D02*
X21586822Y52530284D01*
X21586822Y52530284D02*
X21512711Y52592295D01*
X21512711Y52592295D02*
X21458163Y52617868D01*
X21458163Y52617868D02*
X21252132Y52669663D01*
X21252132Y52669663D02*
X21136685Y52678024D01*
X21136685Y52678024D02*
X20942421Y52658970D01*
X20942421Y52658970D02*
X20646038Y52593328D01*
X20646038Y52593328D02*
X20353028Y52514472D01*
X20353028Y52514472D02*
X20011728Y52398711D01*
X12153709Y49365445D02*
X12962809Y48556344D01*
X10497088Y51022066D02*
X11835088Y49684066D01*
X15481357Y45910518D02*
X16625321Y44766553D01*
X14218817Y47173058D02*
X14971970Y46419904D01*
X13148319Y48243556D02*
X13945601Y47446274D01*
X12055562Y49336313D02*
X12874656Y48517218D01*
X10373305Y51018570D02*
X11712412Y49679463D01*
X15484547Y45780049D02*
X16604602Y44659994D01*
X14173780Y47090816D02*
X14938849Y46325746D01*
X13073222Y48191373D02*
X13886872Y47377723D01*
X11958063Y49306532D02*
X12785776Y48478819D01*
X10252595Y51012001D02*
X11587514Y49677082D01*
X15488359Y45648957D02*
X16574785Y44562531D01*
X14128754Y47008562D02*
X14905524Y46231792D01*
X12998999Y48138317D02*
X13827931Y47309385D01*
X11861222Y49276094D02*
X12696627Y48440689D01*
X10139728Y50997588D02*
X11459849Y49677468D01*
X15492447Y45517590D02*
X16536783Y44473254D01*
X14083940Y46926097D02*
X14871845Y46138192D01*
X12925267Y48084770D02*
X13768539Y47241498D01*
X11765376Y49244661D02*
X12607041Y48402996D01*
X10032891Y50977146D02*
X11329339Y49680698D01*
X15496843Y45385915D02*
X16493668Y44389089D01*
X14039127Y46843631D02*
X14837357Y46045401D01*
X12852093Y48030665D02*
X13708424Y47174333D01*
X11670136Y49212622D02*
X12516949Y48365809D01*
X9931649Y50951109D02*
X11195774Y49686984D01*
X15503601Y45251878D02*
X16442563Y44312915D01*
X13994510Y46760969D02*
X14802300Y45953179D01*
X12779834Y47975644D02*
X13647828Y47107651D01*
X11575489Y49179990D02*
X12426543Y48328935D01*
X9838071Y50917408D02*
X11058767Y49696711D01*
X15513959Y45114241D02*
X16384553Y44243646D01*
X13950259Y46677941D02*
X14766030Y45862169D01*
X12708036Y47920163D02*
X13586745Y47041454D01*
X11481653Y49146546D02*
X12335331Y48292869D01*
X19994677Y54544666D02*
X19893498Y54613309D01*
X19893498Y54613309D02*
X19768765Y54661295D01*
X19768765Y54661295D02*
X19637463Y54680499D01*
X19637463Y54680499D02*
X19517479Y54667262D01*
X19517479Y54667262D02*
X19319697Y54601824D01*
X19319697Y54601824D02*
X19145966Y54508572D01*
X19145966Y54508572D02*
X18981596Y54398996D01*
X18981596Y54398996D02*
X18717405Y54190905D01*
X18717405Y54190905D02*
X18474956Y53957767D01*
X18474956Y53957767D02*
X18232200Y53676487D01*
X18232200Y53676487D02*
X17873650Y53193013D01*
X17873650Y53193013D02*
X17544086Y52688788D01*
X17544086Y52688788D02*
X17222805Y52155221D01*
X17222805Y52155221D02*
X16911594Y51615575D01*
X16911594Y51615575D02*
X16885059Y51586032D01*
X16885059Y51586032D02*
X16850456Y51569530D01*
X16850456Y51569530D02*
X16812191Y51567208D01*
X16812191Y51567208D02*
X16774667Y51580202D01*
X16774667Y51580202D02*
X16730436Y51635151D01*
X16730436Y51635151D02*
X16733478Y51705624D01*
X16733478Y51705624D02*
X17165053Y52689614D01*
X17165053Y52689614D02*
X17348361Y53168177D01*
X17348361Y53168177D02*
X17504397Y53656211D01*
X17504397Y53656211D02*
X17614926Y54083766D01*
X17614926Y54083766D02*
X17683127Y54400643D01*
X17683127Y54400643D02*
X17714038Y54610895D01*
X17714038Y54610895D02*
X17730068Y54838348D01*
X17730068Y54838348D02*
X17724066Y55073909D01*
X17724066Y55073909D02*
X17680825Y55269053D01*
X17680825Y55269053D02*
X17614034Y55422279D01*
X17614034Y55422279D02*
X17532274Y55521479D01*
X17532274Y55521479D02*
X17439522Y55583039D01*
X17439522Y55583039D02*
X17304463Y55630934D01*
X17304463Y55630934D02*
X17225331Y55635675D01*
X17225331Y55635675D02*
X17143185Y55615673D01*
X17143185Y55615673D02*
X17065722Y55580580D01*
X17065722Y55580580D02*
X16984611Y55504052D01*
X16984611Y55504052D02*
X16913461Y55417255D01*
X16913461Y55417255D02*
X16825613Y55277572D01*
X16825613Y55277572D02*
X16752726Y55131544D01*
X16752726Y55131544D02*
X16661296Y54897294D01*
X16699693Y55001798D02*
X17615449Y54086042D01*
X18140744Y53560747D02*
X19138645Y52562846D01*
X19511812Y52189679D02*
X20575205Y51126286D01*
X21406550Y50294942D02*
X22128965Y49572526D01*
X16736061Y55092709D02*
X17639228Y54189543D01*
X18196925Y53631846D02*
X19204564Y52624207D01*
X19599736Y52229035D02*
X20665345Y51163426D01*
X21566783Y50261988D02*
X22181042Y49647728D01*
X16776625Y55179425D02*
X17662202Y54293848D01*
X18253684Y53702366D02*
X19269399Y52686650D01*
X19687886Y52268164D02*
X20754417Y51201633D01*
X21738236Y50217814D02*
X22217786Y49738264D01*
X16819002Y55264327D02*
X17683057Y54400273D01*
X18311418Y53771912D02*
X19333899Y52749431D01*
X19777594Y52305735D02*
X20842430Y51240899D01*
X21938696Y50144633D02*
X22217568Y49865761D01*
X16867088Y55343520D02*
X17699385Y54511224D01*
X18369681Y53840927D02*
X19398118Y52812490D01*
X19867811Y52342798D02*
X20929376Y51281232D01*
X16916596Y55421291D02*
X17714891Y54622997D01*
X18429535Y53908353D02*
X19461039Y52876848D01*
X19959476Y52378411D02*
X21014485Y51323402D01*
X16973715Y55491452D02*
X17723270Y54741897D01*
X18490912Y53974255D02*
X19523961Y52941206D01*
X20052079Y52413088D02*
X21096205Y51368961D01*
X17036996Y55555450D02*
X17729911Y54862535D01*
X18553993Y54038453D02*
X19585389Y53007057D01*
X20145923Y52446523D02*
X21177906Y51414540D01*
X17115193Y55604532D02*
X17727711Y54992015D01*
X18618695Y54101030D02*
X19645772Y53073953D01*
X20241269Y52478456D02*
X21255591Y51464135D01*
X17213610Y55633395D02*
X17712126Y55134879D01*
X18685039Y54161965D02*
X19705018Y53141987D01*
X20337528Y52509477D02*
X21332240Y51514764D01*
X17358245Y55616038D02*
X17664409Y55309875D01*
X18753051Y54221232D02*
X19763029Y53211255D01*
X20436100Y52538184D02*
X21406908Y51567376D01*
X18822763Y54278800D02*
X19819703Y53281860D01*
X20536054Y52565509D02*
X21477603Y51623960D01*
X13548808Y48831455D02*
X14202442Y49155437D01*
X14202442Y49155437D02*
X14240925Y49165230D01*
X14240925Y49165230D02*
X14278860Y49159698D01*
X14278860Y49159698D02*
X14311952Y49140345D01*
X14311952Y49140345D02*
X14335908Y49108675D01*
X14335908Y49108675D02*
X14341813Y49037388D01*
X14341813Y49037388D02*
X14298587Y48980394D01*
X14298587Y48980394D02*
X13703540Y48615540D01*
X13703540Y48615540D02*
X13285612Y48338959D01*
X13285612Y48338959D02*
X12845948Y48026121D01*
X12845948Y48026121D02*
X12426918Y47694382D01*
X12426918Y47694382D02*
X12032865Y47348381D01*
X12032865Y47348381D02*
X11855699Y47161259D01*
X11855699Y47161259D02*
X11651963Y46922670D01*
X11651963Y46922670D02*
X11499481Y46708136D01*
X11499481Y46708136D02*
X11438714Y46592264D01*
X11438714Y46592264D02*
X11394317Y46469478D01*
X11394317Y46469478D02*
X11371800Y46327848D01*
X11371800Y46327848D02*
X11384530Y46206323D01*
X11384530Y46206323D02*
X11423181Y46119577D01*
X11423181Y46119577D02*
X11505995Y46009372D01*
X11505995Y46009372D02*
X11592824Y45932988D01*
X11592824Y45932988D02*
X11722457Y45878107D01*
X11722457Y45878107D02*
X11822424Y45865716D01*
X11822424Y45865716D02*
X11924362Y45867687D01*
X11924362Y45867687D02*
X12107140Y45906235D01*
X12107140Y45906235D02*
X12185302Y45934219D01*
X12185302Y45934219D02*
X12381385Y46028748D01*
X12381385Y46028748D02*
X12569515Y46137834D01*
X12569515Y46137834D02*
X12868830Y46357732D01*
X12868830Y46357732D02*
X13148490Y46602707D01*
X13148490Y46602707D02*
X13507494Y46957523D01*
X13507494Y46957523D02*
X13846967Y47331144D01*
X13846967Y47331144D02*
X14326749Y47908529D01*
X14326749Y47908529D02*
X14730040Y48428639D01*
X14730040Y48428639D02*
X14760232Y48454432D01*
X14760232Y48454432D02*
X14796706Y48466236D01*
X14796706Y48466236D02*
X14834944Y48463501D01*
X14834944Y48463501D02*
X14870431Y48445681D01*
X14870431Y48445681D02*
X14907110Y48385032D01*
X9749808Y50878391D02*
X10917852Y49710348D01*
X15534082Y44966838D02*
X16316304Y44184616D01*
X13906844Y46594076D02*
X14728318Y45772602D01*
X12636708Y47864212D02*
X13524931Y46975990D01*
X11388509Y49112411D02*
X12243866Y48257054D01*
X9676317Y50824603D02*
X10772458Y49728462D01*
X15563677Y44809963D02*
X16236647Y44136994D01*
X13864108Y46509533D02*
X14687999Y45685642D01*
X12566350Y47807291D02*
X13462503Y46911138D01*
X11296175Y49077465D02*
X12151468Y48222173D01*
X9615648Y50757993D02*
X10621580Y49752061D01*
X15600702Y44645660D02*
X16146074Y44100287D01*
X13821683Y46424678D02*
X14647625Y45598737D01*
X12496021Y47750340D02*
X13399556Y46846806D01*
X11204811Y49041550D02*
X12058618Y48187744D01*
X9576308Y50670054D02*
X10461620Y49784741D01*
X15657076Y44462007D02*
X16041447Y44077636D01*
X13780095Y46338988D02*
X14607251Y45511832D01*
X12425707Y47693375D02*
X13336008Y46783075D01*
X11114608Y49004474D02*
X11965037Y48154045D01*
X9572225Y50546858D02*
X10290788Y49828294D01*
X15812238Y44179565D02*
X15845327Y44146476D01*
X13738848Y46252956D02*
X14564941Y45426862D01*
X12356213Y47635591D02*
X13271633Y46720170D01*
X11026178Y48965625D02*
X11870589Y48121215D01*
X9597776Y50394028D02*
X10094676Y49897127D01*
X13698827Y46165697D02*
X14521258Y45343266D01*
X12287215Y47577309D02*
X13206705Y46657819D01*
X10939634Y48924890D02*
X11775693Y48088831D01*
X13659226Y46078018D02*
X14474826Y45262418D01*
X12218743Y47518502D02*
X13141172Y46596073D01*
X10855885Y48881359D02*
X11679414Y48057830D01*
X13620856Y45989109D02*
X14424717Y45185249D01*
X12151409Y47458557D02*
X13074413Y46535552D01*
X10773406Y48836559D02*
X11582515Y48027451D01*
X13583797Y45898889D02*
X14371447Y45111239D01*
D12*
X20362623Y59701325D02*
X20324012Y59311281D01*
X20324012Y59311281D02*
X20214491Y58534656D01*
X20214491Y58534656D02*
X20053147Y57641299D01*
X20053147Y57641299D02*
X19851013Y56756208D01*
X19851013Y56756208D02*
X19632947Y55925461D01*
X19632947Y55925461D02*
X19322058Y54936856D01*
X18966560Y54764891D02*
X19024114Y54799994D01*
X19024114Y54799994D02*
X19236725Y54906619D01*
X19236725Y54906619D02*
X19284092Y54924270D01*
X19284092Y54924270D02*
X19322058Y54936856D01*
X19477735Y63800753D02*
X19775429Y63800753D01*
X19823041Y55827101D02*
X19973911Y55684854D01*
X19973911Y55684854D02*
X20687135Y55065681D01*
X20687135Y55065681D02*
X21329821Y54438671D01*
X21329821Y54438671D02*
X21531373Y54212391D01*
X21531373Y54212391D02*
X21633673Y54101058D01*
X21633673Y54101058D02*
X21745215Y53999764D01*
X21745215Y53999764D02*
X22009160Y53822027D01*
X22009160Y53822027D02*
X22293849Y53678421D01*
X22293849Y53678421D02*
X22541033Y53578622D01*
X22541033Y53578622D02*
X22794587Y53494880D01*
X22794587Y53494880D02*
X23312741Y53364916D01*
X23312741Y53364916D02*
X23761153Y53293374D01*
X23761153Y53293374D02*
X24214068Y53255189D01*
X24214068Y53255189D02*
X24625544Y53242844D01*
X24625544Y53242844D02*
X25037019Y53255189D01*
X25037019Y53255189D02*
X25309092Y53275087D01*
X25309092Y53275087D02*
X25577816Y53317890D01*
X25577816Y53317890D02*
X25662489Y53339351D01*
X25662489Y53339351D02*
X25742406Y53372753D01*
X25742406Y53372753D02*
X25789431Y53411941D01*
X25789431Y53411941D02*
X25805754Y53469932D01*
X25805754Y53469932D02*
X25797269Y53529506D01*
X25797269Y53529506D02*
X25769992Y53571507D01*
X25769992Y53571507D02*
X25730153Y53604696D01*
X25730153Y53604696D02*
X25640517Y53662746D01*
D10*
X11396497Y46177001D02*
X11683035Y45890463D01*
D11*
X-48069428Y34397142D02*
X-46926571Y34397142D01*
X-48069428Y37699142D02*
X-46926571Y37699142D01*
X-47498000Y38270571D02*
X-47498000Y37127714D01*
D12*
X-41155857Y19645380D02*
X-41632047Y19645380D01*
X-41679666Y20121571D01*
X-41632047Y20073952D01*
X-41536809Y20026333D01*
X-41298714Y20026333D01*
X-41203476Y20073952D01*
X-41155857Y20121571D01*
X-41108238Y20216809D01*
X-41108238Y20454904D01*
X-41155857Y20550142D01*
X-41203476Y20597761D01*
X-41298714Y20645380D01*
X-41536809Y20645380D01*
X-41632047Y20597761D01*
X-41679666Y20550142D01*
X-40822523Y19645380D02*
X-40489190Y20645380D01*
X-40155857Y19645380D01*
X-39393952Y20645380D02*
X-39393952Y20121571D01*
X-39441571Y20026333D01*
X-39536809Y19978714D01*
X-39727285Y19978714D01*
X-39822523Y20026333D01*
X-39393952Y20597761D02*
X-39489190Y20645380D01*
X-39727285Y20645380D01*
X-39822523Y20597761D01*
X-39870142Y20502523D01*
X-39870142Y20407285D01*
X-39822523Y20312047D01*
X-39727285Y20264428D01*
X-39489190Y20264428D01*
X-39393952Y20216809D01*
X-41076380Y24201380D02*
X-41409714Y23725190D01*
X-41647809Y24201380D02*
X-41647809Y23201380D01*
X-41266857Y23201380D01*
X-41171619Y23249000D01*
X-41124000Y23296619D01*
X-41076380Y23391857D01*
X-41076380Y23534714D01*
X-41124000Y23629952D01*
X-41171619Y23677571D01*
X-41266857Y23725190D01*
X-41647809Y23725190D01*
X-40266857Y24153761D02*
X-40362095Y24201380D01*
X-40552571Y24201380D01*
X-40647809Y24153761D01*
X-40695428Y24058523D01*
X-40695428Y23677571D01*
X-40647809Y23582333D01*
X-40552571Y23534714D01*
X-40362095Y23534714D01*
X-40266857Y23582333D01*
X-40219238Y23677571D01*
X-40219238Y23772809D01*
X-40695428Y23868047D01*
X-39362095Y23534714D02*
X-39362095Y24344238D01*
X-39409714Y24439476D01*
X-39457333Y24487095D01*
X-39552571Y24534714D01*
X-39695428Y24534714D01*
X-39790666Y24487095D01*
X-39362095Y24153761D02*
X-39457333Y24201380D01*
X-39647809Y24201380D01*
X-39743047Y24153761D01*
X-39790666Y24106142D01*
X-39838285Y24010904D01*
X-39838285Y23725190D01*
X-39790666Y23629952D01*
X-39743047Y23582333D01*
X-39647809Y23534714D01*
X-39457333Y23534714D01*
X-39362095Y23582333D01*
X-38504952Y24153761D02*
X-38600190Y24201380D01*
X-38790666Y24201380D01*
X-38885904Y24153761D01*
X-38933523Y24058523D01*
X-38933523Y23677571D01*
X-38885904Y23582333D01*
X-38790666Y23534714D01*
X-38600190Y23534714D01*
X-38504952Y23582333D01*
X-38457333Y23677571D01*
X-38457333Y23772809D01*
X-38933523Y23868047D01*
X-38028761Y23534714D02*
X-38028761Y24201380D01*
X-38028761Y23629952D02*
X-37981142Y23582333D01*
X-37885904Y23534714D01*
X-37743047Y23534714D01*
X-37647809Y23582333D01*
X-37600190Y23677571D01*
X-37600190Y24201380D01*
X-41750904Y26503380D02*
X-41179476Y26503380D01*
X-41465190Y27503380D02*
X-41465190Y26503380D01*
X-40846142Y27503380D02*
X-40846142Y26503380D01*
X-40417571Y27503380D02*
X-40417571Y26979571D01*
X-40465190Y26884333D01*
X-40560428Y26836714D01*
X-40703285Y26836714D01*
X-40798523Y26884333D01*
X-40846142Y26931952D01*
X-39941380Y27503380D02*
X-39941380Y26836714D01*
X-39941380Y27027190D02*
X-39893761Y26931952D01*
X-39846142Y26884333D01*
X-39750904Y26836714D01*
X-39655666Y26836714D01*
X-39179476Y27503380D02*
X-39274714Y27455761D01*
X-39322333Y27408142D01*
X-39369952Y27312904D01*
X-39369952Y27027190D01*
X-39322333Y26931952D01*
X-39274714Y26884333D01*
X-39179476Y26836714D01*
X-39036619Y26836714D01*
X-38941380Y26884333D01*
X-38893761Y26931952D01*
X-38846142Y27027190D01*
X-38846142Y27312904D01*
X-38893761Y27408142D01*
X-38941380Y27455761D01*
X-39036619Y27503380D01*
X-39179476Y27503380D01*
X-38560428Y26836714D02*
X-38179476Y26836714D01*
X-38417571Y26503380D02*
X-38417571Y27360523D01*
X-38369952Y27455761D01*
X-38274714Y27503380D01*
X-38179476Y27503380D01*
X-37989000Y26836714D02*
X-37608047Y26836714D01*
X-37846142Y26503380D02*
X-37846142Y27360523D01*
X-37798523Y27455761D01*
X-37703285Y27503380D01*
X-37608047Y27503380D01*
X-37131857Y27503380D02*
X-37227095Y27455761D01*
X-37274714Y27360523D01*
X-37274714Y26503380D01*
X-36369952Y27455761D02*
X-36465190Y27503380D01*
X-36655666Y27503380D01*
X-36750904Y27455761D01*
X-36798523Y27360523D01*
X-36798523Y26979571D01*
X-36750904Y26884333D01*
X-36655666Y26836714D01*
X-36465190Y26836714D01*
X-36369952Y26884333D01*
X-36322333Y26979571D01*
X-36322333Y27074809D01*
X-36798523Y27170047D01*
X-41647857Y30646666D02*
X-41171666Y30646666D01*
X-41743095Y30932380D02*
X-41409761Y29932380D01*
X-41076428Y30932380D01*
X-40219285Y29980000D02*
X-40314523Y29932380D01*
X-40457380Y29932380D01*
X-40600238Y29980000D01*
X-40695476Y30075238D01*
X-40743095Y30170476D01*
X-40790714Y30360952D01*
X-40790714Y30503809D01*
X-40743095Y30694285D01*
X-40695476Y30789523D01*
X-40600238Y30884761D01*
X-40457380Y30932380D01*
X-40362142Y30932380D01*
X-40219285Y30884761D01*
X-40171666Y30837142D01*
X-40171666Y30503809D01*
X-40362142Y30503809D01*
X-39743095Y30265714D02*
X-39743095Y30932380D01*
X-39743095Y30360952D02*
X-39695476Y30313333D01*
X-39600238Y30265714D01*
X-39457380Y30265714D01*
X-39362142Y30313333D01*
X-39314523Y30408571D01*
X-39314523Y30932380D01*
X-38409761Y30932380D02*
X-38409761Y29932380D01*
X-38409761Y30884761D02*
X-38505000Y30932380D01*
X-38695476Y30932380D01*
X-38790714Y30884761D01*
X-38838333Y30837142D01*
X-38885952Y30741904D01*
X-38885952Y30456190D01*
X-38838333Y30360952D01*
X-38790714Y30313333D01*
X-38695476Y30265714D01*
X-38505000Y30265714D01*
X-38409761Y30313333D01*
D11*
X-41619857Y35960857D02*
X-41119857Y35960857D01*
X-40905571Y36746571D02*
X-41619857Y36746571D01*
X-41619857Y35246571D01*
X-40905571Y35246571D01*
X-40262714Y35746571D02*
X-40262714Y36746571D01*
X-40262714Y35889428D02*
X-40191285Y35818000D01*
X-40048428Y35746571D01*
X-39834142Y35746571D01*
X-39691285Y35818000D01*
X-39619857Y35960857D01*
X-39619857Y36746571D01*
X-38262714Y36746571D02*
X-38262714Y35960857D01*
X-38334142Y35818000D01*
X-38477000Y35746571D01*
X-38762714Y35746571D01*
X-38905571Y35818000D01*
X-38262714Y36675142D02*
X-38405571Y36746571D01*
X-38762714Y36746571D01*
X-38905571Y36675142D01*
X-38977000Y36532285D01*
X-38977000Y36389428D01*
X-38905571Y36246571D01*
X-38762714Y36175142D01*
X-38405571Y36175142D01*
X-38262714Y36103714D01*
X-37548428Y36746571D02*
X-37548428Y35246571D01*
X-37548428Y35818000D02*
X-37405571Y35746571D01*
X-37119857Y35746571D01*
X-36977000Y35818000D01*
X-36905571Y35889428D01*
X-36834142Y36032285D01*
X-36834142Y36460857D01*
X-36905571Y36603714D01*
X-36977000Y36675142D01*
X-37119857Y36746571D01*
X-37405571Y36746571D01*
X-37548428Y36675142D01*
X-35977000Y36746571D02*
X-36119857Y36675142D01*
X-36191285Y36532285D01*
X-36191285Y35246571D01*
X-34834142Y36675142D02*
X-34977000Y36746571D01*
X-35262714Y36746571D01*
X-35405571Y36675142D01*
X-35477000Y36532285D01*
X-35477000Y35960857D01*
X-35405571Y35818000D01*
X-35262714Y35746571D01*
X-34977000Y35746571D01*
X-34834142Y35818000D01*
X-34762714Y35960857D01*
X-34762714Y36103714D01*
X-35477000Y36246571D01*
X-44509428Y7572285D02*
X-44509428Y7429428D01*
X-44438000Y7286571D01*
X-44366571Y7215142D01*
X-44223714Y7143714D01*
X-43938000Y7072285D01*
X-43580857Y7072285D01*
X-43295142Y7143714D01*
X-43152285Y7215142D01*
X-43080857Y7286571D01*
X-43009428Y7429428D01*
X-43009428Y7572285D01*
X-43080857Y7715142D01*
X-43152285Y7786571D01*
X-43295142Y7858000D01*
X-43580857Y7929428D01*
X-43938000Y7929428D01*
X-44223714Y7858000D01*
X-44366571Y7786571D01*
X-44438000Y7715142D01*
X-44509428Y7572285D01*
X-44509428Y6643714D02*
X-43009428Y6143714D01*
X-44509428Y5643714D01*
X-43580857Y-405142D02*
X-43580857Y-1548000D01*
X-43009428Y-976571D02*
X-44152285Y-976571D01*
X-43009428Y-3048000D02*
X-43009428Y-2190857D01*
X-43009428Y-2619428D02*
X-44509428Y-2619428D01*
X-44295142Y-2476571D01*
X-44152285Y-2333714D01*
X-44080857Y-2190857D01*
X-44366571Y-3619428D02*
X-44438000Y-3690857D01*
X-44509428Y-3833714D01*
X-44509428Y-4190857D01*
X-44438000Y-4333714D01*
X-44366571Y-4405142D01*
X-44223714Y-4476571D01*
X-44080857Y-4476571D01*
X-43866571Y-4405142D01*
X-43009428Y-3548000D01*
X-43009428Y-4476571D01*
X-44509428Y-4905142D02*
X-43009428Y-5405142D01*
X-44509428Y-5905142D01*
D13*
X99480000Y4580000D02*
X99480000Y5580000D01*
X101180000Y5580000D02*
X101180000Y4580000D01*
X101180000Y15740000D02*
X101180000Y14740000D01*
X99480000Y14740000D02*
X99480000Y15740000D01*
X101180000Y25900000D02*
X101180000Y24900000D01*
X99480000Y24900000D02*
X99480000Y25900000D01*
X99480000Y35060000D02*
X99480000Y36060000D01*
X101180000Y36060000D02*
X101180000Y35060000D01*
X99480000Y-5580000D02*
X99480000Y-4580000D01*
X101180000Y-4580000D02*
X101180000Y-5580000D01*
X101180000Y-14740000D02*
X101180000Y-15740000D01*
X99480000Y-15740000D02*
X99480000Y-14740000D01*
X74645000Y64735000D02*
X73945000Y64735000D01*
X73945000Y63535000D02*
X74645000Y63535000D01*
X67722000Y63535000D02*
X68422000Y63535000D01*
X68422000Y64735000D02*
X67722000Y64735000D01*
X103720000Y5580000D02*
X103720000Y4580000D01*
X102020000Y4580000D02*
X102020000Y5580000D01*
X102020000Y14740000D02*
X102020000Y15740000D01*
X103720000Y15740000D02*
X103720000Y14740000D01*
X103720000Y25900000D02*
X103720000Y24900000D01*
X102020000Y24900000D02*
X102020000Y25900000D01*
X103720000Y36060000D02*
X103720000Y35060000D01*
X102020000Y35060000D02*
X102020000Y36060000D01*
X103720000Y-4580000D02*
X103720000Y-5580000D01*
X102020000Y-5580000D02*
X102020000Y-4580000D01*
X103720000Y-14740000D02*
X103720000Y-15740000D01*
X102020000Y-15740000D02*
X102020000Y-14740000D01*
X104810000Y5430000D02*
X104810000Y4730000D01*
X106010000Y4730000D02*
X106010000Y5430000D01*
X106010000Y14890000D02*
X106010000Y15590000D01*
X104810000Y15590000D02*
X104810000Y14890000D01*
X106010000Y25050000D02*
X106010000Y25750000D01*
X104810000Y25750000D02*
X104810000Y25050000D01*
X106010000Y35210000D02*
X106010000Y35910000D01*
X104810000Y35910000D02*
X104810000Y35210000D01*
X106010000Y-3525000D02*
X106010000Y-2825000D01*
X104810000Y-2825000D02*
X104810000Y-3525000D01*
X104810000Y-12985000D02*
X104810000Y-13685000D01*
X106010000Y-13685000D02*
X106010000Y-12985000D01*
X99480000Y75700000D02*
X99480000Y76700000D01*
X101180000Y76700000D02*
X101180000Y75700000D01*
X99480000Y44585000D02*
X99480000Y45585000D01*
X101180000Y45585000D02*
X101180000Y44585000D01*
X99480000Y55380000D02*
X99480000Y56380000D01*
X101180000Y56380000D02*
X101180000Y55380000D01*
X99480000Y65540000D02*
X99480000Y66540000D01*
X101180000Y66540000D02*
X101180000Y65540000D01*
X103720000Y76700000D02*
X103720000Y75700000D01*
X102020000Y75700000D02*
X102020000Y76700000D01*
X103720000Y45585000D02*
X103720000Y44585000D01*
X102020000Y44585000D02*
X102020000Y45585000D01*
X102020000Y55380000D02*
X102020000Y56380000D01*
X103720000Y56380000D02*
X103720000Y55380000D01*
X103720000Y66540000D02*
X103720000Y65540000D01*
X102020000Y65540000D02*
X102020000Y66540000D01*
X106010000Y75850000D02*
X106010000Y76550000D01*
X104810000Y76550000D02*
X104810000Y75850000D01*
X106010000Y47275000D02*
X106010000Y47975000D01*
X104810000Y47975000D02*
X104810000Y47275000D01*
X104810000Y58135000D02*
X104810000Y57435000D01*
X106010000Y57435000D02*
X106010000Y58135000D01*
X106010000Y67595000D02*
X106010000Y68295000D01*
X104810000Y68295000D02*
X104810000Y67595000D01*
X69885000Y55595000D02*
X69885000Y54895000D01*
X71085000Y54895000D02*
X71085000Y55595000D01*
X71085000Y-8605000D02*
X71085000Y-7905000D01*
X69885000Y-7905000D02*
X69885000Y-8605000D01*
X69885000Y23845000D02*
X69885000Y23145000D01*
X71085000Y23145000D02*
X71085000Y23845000D01*
X13935000Y40290000D02*
X13935000Y40990000D01*
X12735000Y40990000D02*
X12735000Y40290000D01*
X20285000Y26955000D02*
X20285000Y27655000D01*
X19085000Y27655000D02*
X19085000Y26955000D01*
X102020000Y-25900000D02*
X102020000Y-24900000D01*
X103720000Y-24900000D02*
X103720000Y-25900000D01*
X99480000Y-25900000D02*
X99480000Y-24900000D01*
X101180000Y-24900000D02*
X101180000Y-25900000D01*
X106010000Y-25750000D02*
X106010000Y-25050000D01*
X104810000Y-25050000D02*
X104810000Y-25750000D01*
X57115000Y3460000D02*
X57115000Y4160000D01*
X55915000Y4160000D02*
X55915000Y3460000D01*
X20736000Y10129000D02*
X20736000Y9429000D01*
X21936000Y9429000D02*
X21936000Y10129000D01*
X10992000Y-12928000D02*
X13392000Y-12928000D01*
X13392000Y-16028000D02*
X10442000Y-16028000D01*
D12*
X60833000Y65278000D02*
X60325000Y65278000D01*
X60833000Y64008000D02*
X60833000Y65278000D01*
X60325000Y64008000D02*
X60833000Y64008000D01*
X60325000Y67056000D02*
X60325000Y62484000D01*
X65405000Y67056000D02*
X60325000Y67056000D01*
X65405000Y62484000D02*
X65405000Y67056000D01*
X60325000Y62484000D02*
X65405000Y62484000D01*
X72220000Y41240000D02*
X72220000Y41290000D01*
X76370000Y41240000D02*
X76370000Y41385000D01*
X76370000Y46390000D02*
X76370000Y46245000D01*
X72220000Y46390000D02*
X72220000Y46245000D01*
X72220000Y41240000D02*
X76370000Y41240000D01*
X72220000Y46390000D02*
X76370000Y46390000D01*
X72220000Y41290000D02*
X70820000Y41290000D01*
X72220000Y-22210000D02*
X70820000Y-22210000D01*
X72220000Y-17110000D02*
X76370000Y-17110000D01*
X72220000Y-22260000D02*
X76370000Y-22260000D01*
X72220000Y-17110000D02*
X72220000Y-17255000D01*
X76370000Y-17110000D02*
X76370000Y-17255000D01*
X76370000Y-22260000D02*
X76370000Y-22115000D01*
X72220000Y-22260000D02*
X72220000Y-22210000D01*
X72017625Y9490000D02*
X72017625Y9540000D01*
X76167625Y9490000D02*
X76167625Y9635000D01*
X76167625Y14640000D02*
X76167625Y14495000D01*
X72017625Y14640000D02*
X72017625Y14495000D01*
X72017625Y9490000D02*
X76167625Y9490000D01*
X72017625Y14640000D02*
X76167625Y14640000D01*
X72017625Y9540000D02*
X70617625Y9540000D01*
D13*
X-39690000Y14605000D02*
G75*
G03X-39690000Y14605000I-2180000J0D01*
G01*
X-39690000Y-10795000D02*
G75*
G03X-39690000Y-10795000I-2180000J0D01*
G01*
D14*
X102699820Y1305560D02*
X102699820Y2504440D01*
X100500180Y1305560D02*
X102699820Y1305560D01*
X100500180Y2504440D02*
X100500180Y1305560D01*
X102699820Y2504440D02*
X100500180Y2504440D01*
X101800660Y2504440D02*
X101800660Y1305560D01*
X101399340Y1305560D02*
X101399340Y2504440D01*
X102699820Y11465560D02*
X102699820Y12664440D01*
X100500180Y11465560D02*
X102699820Y11465560D01*
X100500180Y12664440D02*
X100500180Y11465560D01*
X102699820Y12664440D02*
X100500180Y12664440D01*
X101800660Y12664440D02*
X101800660Y11465560D01*
X101399340Y11465560D02*
X101399340Y12664440D01*
X101399340Y21625560D02*
X101399340Y22824440D01*
X101800660Y22824440D02*
X101800660Y21625560D01*
X102699820Y22824440D02*
X100500180Y22824440D01*
X100500180Y22824440D02*
X100500180Y21625560D01*
X100500180Y21625560D02*
X102699820Y21625560D01*
X102699820Y21625560D02*
X102699820Y22824440D01*
X102699820Y31785560D02*
X102699820Y32984440D01*
X100500180Y31785560D02*
X102699820Y31785560D01*
X100500180Y32984440D02*
X100500180Y31785560D01*
X102699820Y32984440D02*
X100500180Y32984440D01*
X101800660Y32984440D02*
X101800660Y31785560D01*
X101399340Y31785560D02*
X101399340Y32984440D01*
X102699820Y-2504440D02*
X102699820Y-1305560D01*
X100500180Y-2504440D02*
X102699820Y-2504440D01*
X100500180Y-1305560D02*
X100500180Y-2504440D01*
X102699820Y-1305560D02*
X100500180Y-1305560D01*
X101800660Y-1305560D02*
X101800660Y-2504440D01*
X101399340Y-2504440D02*
X101399340Y-1305560D01*
X101396800Y-12664440D02*
X101396800Y-11465560D01*
X101798120Y-11465560D02*
X101798120Y-12664440D01*
X102697280Y-11465560D02*
X100497640Y-11465560D01*
X100497640Y-11465560D02*
X100497640Y-12664440D01*
X100497640Y-12664440D02*
X102697280Y-12664440D01*
X102697280Y-12664440D02*
X102697280Y-11465560D01*
X102702360Y72425560D02*
X102702360Y73624440D01*
X100502720Y72425560D02*
X102702360Y72425560D01*
X100502720Y73624440D02*
X100502720Y72425560D01*
X102702360Y73624440D02*
X100502720Y73624440D01*
X101803200Y73624440D02*
X101803200Y72425560D01*
X101401880Y72425560D02*
X101401880Y73624440D01*
X101399340Y47660560D02*
X101399340Y48859440D01*
X101800660Y48859440D02*
X101800660Y47660560D01*
X102699820Y48859440D02*
X100500180Y48859440D01*
X100500180Y48859440D02*
X100500180Y47660560D01*
X100500180Y47660560D02*
X102699820Y47660560D01*
X102699820Y47660560D02*
X102699820Y48859440D01*
X102699820Y58455560D02*
X102699820Y59654440D01*
X100500180Y58455560D02*
X102699820Y58455560D01*
X100500180Y59654440D02*
X100500180Y58455560D01*
X102699820Y59654440D02*
X100500180Y59654440D01*
X101800660Y59654440D02*
X101800660Y58455560D01*
X101399340Y58455560D02*
X101399340Y59654440D01*
X101401880Y68615560D02*
X101401880Y69814440D01*
X101803200Y69814440D02*
X101803200Y68615560D01*
X102702360Y69814440D02*
X100502720Y69814440D01*
X100502720Y69814440D02*
X100502720Y68615560D01*
X100502720Y68615560D02*
X102702360Y68615560D01*
X102702360Y68615560D02*
X102702360Y69814440D01*
X101800660Y-27975560D02*
X101800660Y-29174440D01*
X101399340Y-29174440D02*
X101399340Y-27975560D01*
X100500180Y-29174440D02*
X102699820Y-29174440D01*
X102699820Y-29174440D02*
X102699820Y-27975560D01*
X102699820Y-27975560D02*
X100500180Y-27975560D01*
X100500180Y-27975560D02*
X100500180Y-29174440D01*
D13*
X106090000Y-8120000D02*
X106090000Y-7120000D01*
X104730000Y-7120000D02*
X104730000Y-8120000D01*
X104730000Y-17280000D02*
X104730000Y-18280000D01*
X106090000Y-18280000D02*
X106090000Y-17280000D01*
X106090000Y42680000D02*
X106090000Y43680000D01*
X104730000Y43680000D02*
X104730000Y42680000D01*
X104730000Y53840000D02*
X104730000Y52840000D01*
X106090000Y52840000D02*
X106090000Y53840000D01*
X104730000Y64000000D02*
X104730000Y63000000D01*
X106090000Y63000000D02*
X106090000Y64000000D01*
X62095000Y71165000D02*
X61095000Y71165000D01*
X61095000Y69805000D02*
X62095000Y69805000D01*
X-5215000Y57830000D02*
X-6215000Y57830000D01*
X-6215000Y56470000D02*
X-5215000Y56470000D01*
X-6215000Y53930000D02*
X-5215000Y53930000D01*
X-5215000Y55290000D02*
X-6215000Y55290000D01*
X-5215000Y50210000D02*
X-6215000Y50210000D01*
X-6215000Y48850000D02*
X-5215000Y48850000D01*
X-5215000Y52750000D02*
X-6215000Y52750000D01*
X-6215000Y51390000D02*
X-5215000Y51390000D01*
X-6215000Y61550000D02*
X-5215000Y61550000D01*
X-5215000Y62910000D02*
X-6215000Y62910000D01*
X-33520000Y27006000D02*
X-32520000Y27006000D01*
X-32520000Y28366000D02*
X-33520000Y28366000D01*
X-6215000Y59010000D02*
X-5215000Y59010000D01*
X-5215000Y60370000D02*
X-6215000Y60370000D01*
X83320000Y61550000D02*
X84320000Y61550000D01*
X84320000Y62910000D02*
X83320000Y62910000D01*
X83320000Y-1950000D02*
X84320000Y-1950000D01*
X84320000Y-590000D02*
X83320000Y-590000D01*
X83320000Y30002375D02*
X84320000Y30002375D01*
X84320000Y31362375D02*
X83320000Y31362375D01*
X67395000Y42440000D02*
X68495000Y42440000D01*
X68495000Y42440000D02*
X68495000Y39840000D01*
X67395000Y42440000D02*
X67395000Y39840000D01*
X67395000Y-20425000D02*
X67395000Y-23025000D01*
X68495000Y-20425000D02*
X68495000Y-23025000D01*
X67395000Y-20425000D02*
X68495000Y-20425000D01*
X67395000Y11325000D02*
X68495000Y11325000D01*
X68495000Y11325000D02*
X68495000Y8725000D01*
X67395000Y11325000D02*
X67395000Y8725000D01*
X68495000Y44555000D02*
X67395000Y44555000D01*
X67395000Y44555000D02*
X67395000Y47155000D01*
X68495000Y44555000D02*
X68495000Y47155000D01*
X68495000Y-18310000D02*
X68495000Y-15710000D01*
X67395000Y-18310000D02*
X67395000Y-15710000D01*
X68495000Y-18310000D02*
X67395000Y-18310000D01*
X68495000Y13440000D02*
X68495000Y16040000D01*
X67395000Y13440000D02*
X67395000Y16040000D01*
X68495000Y13440000D02*
X67395000Y13440000D01*
X57455000Y60915000D02*
X58455000Y60915000D01*
X58455000Y62275000D02*
X57455000Y62275000D01*
X8290000Y-14128000D02*
X8290000Y-14828000D01*
X9490000Y-14828000D02*
X9490000Y-14128000D01*
D12*
X16145000Y19665000D02*
G75*
G02X18145000Y19665000I1000000J0D01*
G01*
X18145000Y17165000D02*
G75*
G02X16145000Y17165000I-1000000J0D01*
G01*
X16145000Y17165000D02*
X16145000Y19665000D01*
X18145000Y17165000D02*
X18145000Y19665000D01*
X20590000Y19665000D02*
G75*
G02X22590000Y19665000I1000000J0D01*
G01*
X22590000Y17165000D02*
G75*
G02X20590000Y17165000I-1000000J0D01*
G01*
X20590000Y17165000D02*
X20590000Y19665000D01*
X22590000Y17165000D02*
X22590000Y19665000D01*
X100687142Y9056666D02*
X100734761Y9104285D01*
X100782380Y9247142D01*
X100782380Y9342380D01*
X100734761Y9485238D01*
X100639523Y9580476D01*
X100544285Y9628095D01*
X100353809Y9675714D01*
X100210952Y9675714D01*
X100020476Y9628095D01*
X99925238Y9580476D01*
X99830000Y9485238D01*
X99782380Y9342380D01*
X99782380Y9247142D01*
X99830000Y9104285D01*
X99877619Y9056666D01*
X100782380Y8104285D02*
X100782380Y8675714D01*
X100782380Y8390000D02*
X99782380Y8390000D01*
X99925238Y8485238D01*
X100020476Y8580476D01*
X100068095Y8675714D01*
X100687142Y19216666D02*
X100734761Y19264285D01*
X100782380Y19407142D01*
X100782380Y19502380D01*
X100734761Y19645238D01*
X100639523Y19740476D01*
X100544285Y19788095D01*
X100353809Y19835714D01*
X100210952Y19835714D01*
X100020476Y19788095D01*
X99925238Y19740476D01*
X99830000Y19645238D01*
X99782380Y19502380D01*
X99782380Y19407142D01*
X99830000Y19264285D01*
X99877619Y19216666D01*
X99877619Y18835714D02*
X99830000Y18788095D01*
X99782380Y18692857D01*
X99782380Y18454761D01*
X99830000Y18359523D01*
X99877619Y18311904D01*
X99972857Y18264285D01*
X100068095Y18264285D01*
X100210952Y18311904D01*
X100782380Y18883333D01*
X100782380Y18264285D01*
X100687142Y29376666D02*
X100734761Y29424285D01*
X100782380Y29567142D01*
X100782380Y29662380D01*
X100734761Y29805238D01*
X100639523Y29900476D01*
X100544285Y29948095D01*
X100353809Y29995714D01*
X100210952Y29995714D01*
X100020476Y29948095D01*
X99925238Y29900476D01*
X99830000Y29805238D01*
X99782380Y29662380D01*
X99782380Y29567142D01*
X99830000Y29424285D01*
X99877619Y29376666D01*
X99782380Y29043333D02*
X99782380Y28424285D01*
X100163333Y28757619D01*
X100163333Y28614761D01*
X100210952Y28519523D01*
X100258571Y28471904D01*
X100353809Y28424285D01*
X100591904Y28424285D01*
X100687142Y28471904D01*
X100734761Y28519523D01*
X100782380Y28614761D01*
X100782380Y28900476D01*
X100734761Y28995714D01*
X100687142Y29043333D01*
X100687142Y39536666D02*
X100734761Y39584285D01*
X100782380Y39727142D01*
X100782380Y39822380D01*
X100734761Y39965238D01*
X100639523Y40060476D01*
X100544285Y40108095D01*
X100353809Y40155714D01*
X100210952Y40155714D01*
X100020476Y40108095D01*
X99925238Y40060476D01*
X99830000Y39965238D01*
X99782380Y39822380D01*
X99782380Y39727142D01*
X99830000Y39584285D01*
X99877619Y39536666D01*
X100115714Y38679523D02*
X100782380Y38679523D01*
X99734761Y38917619D02*
X100449047Y39155714D01*
X100449047Y38536666D01*
X100687142Y-7834333D02*
X100734761Y-7786714D01*
X100782380Y-7643857D01*
X100782380Y-7548619D01*
X100734761Y-7405761D01*
X100639523Y-7310523D01*
X100544285Y-7262904D01*
X100353809Y-7215285D01*
X100210952Y-7215285D01*
X100020476Y-7262904D01*
X99925238Y-7310523D01*
X99830000Y-7405761D01*
X99782380Y-7548619D01*
X99782380Y-7643857D01*
X99830000Y-7786714D01*
X99877619Y-7834333D01*
X99782380Y-8739095D02*
X99782380Y-8262904D01*
X100258571Y-8215285D01*
X100210952Y-8262904D01*
X100163333Y-8358142D01*
X100163333Y-8596238D01*
X100210952Y-8691476D01*
X100258571Y-8739095D01*
X100353809Y-8786714D01*
X100591904Y-8786714D01*
X100687142Y-8739095D01*
X100734761Y-8691476D01*
X100782380Y-8596238D01*
X100782380Y-8358142D01*
X100734761Y-8262904D01*
X100687142Y-8215285D01*
X102187142Y-15073333D02*
X102234761Y-15025714D01*
X102282380Y-14882857D01*
X102282380Y-14787619D01*
X102234761Y-14644761D01*
X102139523Y-14549523D01*
X102044285Y-14501904D01*
X101853809Y-14454285D01*
X101710952Y-14454285D01*
X101520476Y-14501904D01*
X101425238Y-14549523D01*
X101330000Y-14644761D01*
X101282380Y-14787619D01*
X101282380Y-14882857D01*
X101330000Y-15025714D01*
X101377619Y-15073333D01*
X101282380Y-15930476D02*
X101282380Y-15740000D01*
X101330000Y-15644761D01*
X101377619Y-15597142D01*
X101520476Y-15501904D01*
X101710952Y-15454285D01*
X102091904Y-15454285D01*
X102187142Y-15501904D01*
X102234761Y-15549523D01*
X102282380Y-15644761D01*
X102282380Y-15835238D01*
X102234761Y-15930476D01*
X102187142Y-15978095D01*
X102091904Y-16025714D01*
X101853809Y-16025714D01*
X101758571Y-15978095D01*
X101710952Y-15930476D01*
X101663333Y-15835238D01*
X101663333Y-15644761D01*
X101710952Y-15549523D01*
X101758571Y-15501904D01*
X101853809Y-15454285D01*
X74461666Y65027857D02*
X74509285Y64980238D01*
X74652142Y64932619D01*
X74747380Y64932619D01*
X74890238Y64980238D01*
X74985476Y65075476D01*
X75033095Y65170714D01*
X75080714Y65361190D01*
X75080714Y65504047D01*
X75033095Y65694523D01*
X74985476Y65789761D01*
X74890238Y65885000D01*
X74747380Y65932619D01*
X74652142Y65932619D01*
X74509285Y65885000D01*
X74461666Y65837380D01*
X73890238Y65504047D02*
X73985476Y65551666D01*
X74033095Y65599285D01*
X74080714Y65694523D01*
X74080714Y65742142D01*
X74033095Y65837380D01*
X73985476Y65885000D01*
X73890238Y65932619D01*
X73699761Y65932619D01*
X73604523Y65885000D01*
X73556904Y65837380D01*
X73509285Y65742142D01*
X73509285Y65694523D01*
X73556904Y65599285D01*
X73604523Y65551666D01*
X73699761Y65504047D01*
X73890238Y65504047D01*
X73985476Y65456428D01*
X74033095Y65408809D01*
X74080714Y65313571D01*
X74080714Y65123095D01*
X74033095Y65027857D01*
X73985476Y64980238D01*
X73890238Y64932619D01*
X73699761Y64932619D01*
X73604523Y64980238D01*
X73556904Y65027857D01*
X73509285Y65123095D01*
X73509285Y65313571D01*
X73556904Y65408809D01*
X73604523Y65456428D01*
X73699761Y65504047D01*
X68238666Y65027857D02*
X68286285Y64980238D01*
X68429142Y64932619D01*
X68524380Y64932619D01*
X68667238Y64980238D01*
X68762476Y65075476D01*
X68810095Y65170714D01*
X68857714Y65361190D01*
X68857714Y65504047D01*
X68810095Y65694523D01*
X68762476Y65789761D01*
X68667238Y65885000D01*
X68524380Y65932619D01*
X68429142Y65932619D01*
X68286285Y65885000D01*
X68238666Y65837380D01*
X67762476Y64932619D02*
X67572000Y64932619D01*
X67476761Y64980238D01*
X67429142Y65027857D01*
X67333904Y65170714D01*
X67286285Y65361190D01*
X67286285Y65742142D01*
X67333904Y65837380D01*
X67381523Y65885000D01*
X67476761Y65932619D01*
X67667238Y65932619D01*
X67762476Y65885000D01*
X67810095Y65837380D01*
X67857714Y65742142D01*
X67857714Y65504047D01*
X67810095Y65408809D01*
X67762476Y65361190D01*
X67667238Y65313571D01*
X67476761Y65313571D01*
X67381523Y65361190D01*
X67333904Y65408809D01*
X67286285Y65504047D01*
X103227142Y9151857D02*
X103274761Y9199476D01*
X103322380Y9342333D01*
X103322380Y9437571D01*
X103274761Y9580428D01*
X103179523Y9675666D01*
X103084285Y9723285D01*
X102893809Y9770904D01*
X102750952Y9770904D01*
X102560476Y9723285D01*
X102465238Y9675666D01*
X102370000Y9580428D01*
X102322380Y9437571D01*
X102322380Y9342333D01*
X102370000Y9199476D01*
X102417619Y9151857D01*
X103322380Y8199476D02*
X103322380Y8770904D01*
X103322380Y8485190D02*
X102322380Y8485190D01*
X102465238Y8580428D01*
X102560476Y8675666D01*
X102608095Y8770904D01*
X103322380Y7247095D02*
X103322380Y7818523D01*
X103322380Y7532809D02*
X102322380Y7532809D01*
X102465238Y7628047D01*
X102560476Y7723285D01*
X102608095Y7818523D01*
X103227142Y19311857D02*
X103274761Y19359476D01*
X103322380Y19502333D01*
X103322380Y19597571D01*
X103274761Y19740428D01*
X103179523Y19835666D01*
X103084285Y19883285D01*
X102893809Y19930904D01*
X102750952Y19930904D01*
X102560476Y19883285D01*
X102465238Y19835666D01*
X102370000Y19740428D01*
X102322380Y19597571D01*
X102322380Y19502333D01*
X102370000Y19359476D01*
X102417619Y19311857D01*
X103322380Y18359476D02*
X103322380Y18930904D01*
X103322380Y18645190D02*
X102322380Y18645190D01*
X102465238Y18740428D01*
X102560476Y18835666D01*
X102608095Y18930904D01*
X102417619Y17978523D02*
X102370000Y17930904D01*
X102322380Y17835666D01*
X102322380Y17597571D01*
X102370000Y17502333D01*
X102417619Y17454714D01*
X102512857Y17407095D01*
X102608095Y17407095D01*
X102750952Y17454714D01*
X103322380Y18026142D01*
X103322380Y17407095D01*
X103227142Y29471857D02*
X103274761Y29519476D01*
X103322380Y29662333D01*
X103322380Y29757571D01*
X103274761Y29900428D01*
X103179523Y29995666D01*
X103084285Y30043285D01*
X102893809Y30090904D01*
X102750952Y30090904D01*
X102560476Y30043285D01*
X102465238Y29995666D01*
X102370000Y29900428D01*
X102322380Y29757571D01*
X102322380Y29662333D01*
X102370000Y29519476D01*
X102417619Y29471857D01*
X103322380Y28519476D02*
X103322380Y29090904D01*
X103322380Y28805190D02*
X102322380Y28805190D01*
X102465238Y28900428D01*
X102560476Y28995666D01*
X102608095Y29090904D01*
X102322380Y28186142D02*
X102322380Y27567095D01*
X102703333Y27900428D01*
X102703333Y27757571D01*
X102750952Y27662333D01*
X102798571Y27614714D01*
X102893809Y27567095D01*
X103131904Y27567095D01*
X103227142Y27614714D01*
X103274761Y27662333D01*
X103322380Y27757571D01*
X103322380Y28043285D01*
X103274761Y28138523D01*
X103227142Y28186142D01*
X103227142Y39631857D02*
X103274761Y39679476D01*
X103322380Y39822333D01*
X103322380Y39917571D01*
X103274761Y40060428D01*
X103179523Y40155666D01*
X103084285Y40203285D01*
X102893809Y40250904D01*
X102750952Y40250904D01*
X102560476Y40203285D01*
X102465238Y40155666D01*
X102370000Y40060428D01*
X102322380Y39917571D01*
X102322380Y39822333D01*
X102370000Y39679476D01*
X102417619Y39631857D01*
X103322380Y38679476D02*
X103322380Y39250904D01*
X103322380Y38965190D02*
X102322380Y38965190D01*
X102465238Y39060428D01*
X102560476Y39155666D01*
X102608095Y39250904D01*
X102655714Y37822333D02*
X103322380Y37822333D01*
X102274761Y38060428D02*
X102989047Y38298523D01*
X102989047Y37679476D01*
X102719142Y-7739142D02*
X102766761Y-7691523D01*
X102814380Y-7548666D01*
X102814380Y-7453428D01*
X102766761Y-7310571D01*
X102671523Y-7215333D01*
X102576285Y-7167714D01*
X102385809Y-7120095D01*
X102242952Y-7120095D01*
X102052476Y-7167714D01*
X101957238Y-7215333D01*
X101862000Y-7310571D01*
X101814380Y-7453428D01*
X101814380Y-7548666D01*
X101862000Y-7691523D01*
X101909619Y-7739142D01*
X102814380Y-8691523D02*
X102814380Y-8120095D01*
X102814380Y-8405809D02*
X101814380Y-8405809D01*
X101957238Y-8310571D01*
X102052476Y-8215333D01*
X102100095Y-8120095D01*
X101814380Y-9596285D02*
X101814380Y-9120095D01*
X102290571Y-9072476D01*
X102242952Y-9120095D01*
X102195333Y-9215333D01*
X102195333Y-9453428D01*
X102242952Y-9548666D01*
X102290571Y-9596285D01*
X102385809Y-9643904D01*
X102623904Y-9643904D01*
X102719142Y-9596285D01*
X102766761Y-9548666D01*
X102814380Y-9453428D01*
X102814380Y-9215333D01*
X102766761Y-9120095D01*
X102719142Y-9072476D01*
X104727142Y-14597142D02*
X104774761Y-14549523D01*
X104822380Y-14406666D01*
X104822380Y-14311428D01*
X104774761Y-14168571D01*
X104679523Y-14073333D01*
X104584285Y-14025714D01*
X104393809Y-13978095D01*
X104250952Y-13978095D01*
X104060476Y-14025714D01*
X103965238Y-14073333D01*
X103870000Y-14168571D01*
X103822380Y-14311428D01*
X103822380Y-14406666D01*
X103870000Y-14549523D01*
X103917619Y-14597142D01*
X104822380Y-15549523D02*
X104822380Y-14978095D01*
X104822380Y-15263809D02*
X103822380Y-15263809D01*
X103965238Y-15168571D01*
X104060476Y-15073333D01*
X104108095Y-14978095D01*
X103822380Y-16406666D02*
X103822380Y-16216190D01*
X103870000Y-16120952D01*
X103917619Y-16073333D01*
X104060476Y-15978095D01*
X104250952Y-15930476D01*
X104631904Y-15930476D01*
X104727142Y-15978095D01*
X104774761Y-16025714D01*
X104822380Y-16120952D01*
X104822380Y-16311428D01*
X104774761Y-16406666D01*
X104727142Y-16454285D01*
X104631904Y-16501904D01*
X104393809Y-16501904D01*
X104298571Y-16454285D01*
X104250952Y-16406666D01*
X104203333Y-16311428D01*
X104203333Y-16120952D01*
X104250952Y-16025714D01*
X104298571Y-15978095D01*
X104393809Y-15930476D01*
X105894142Y9151857D02*
X105941761Y9199476D01*
X105989380Y9342333D01*
X105989380Y9437571D01*
X105941761Y9580428D01*
X105846523Y9675666D01*
X105751285Y9723285D01*
X105560809Y9770904D01*
X105417952Y9770904D01*
X105227476Y9723285D01*
X105132238Y9675666D01*
X105037000Y9580428D01*
X104989380Y9437571D01*
X104989380Y9342333D01*
X105037000Y9199476D01*
X105084619Y9151857D01*
X105989380Y8199476D02*
X105989380Y8770904D01*
X105989380Y8485190D02*
X104989380Y8485190D01*
X105132238Y8580428D01*
X105227476Y8675666D01*
X105275095Y8770904D01*
X104989380Y7866142D02*
X104989380Y7199476D01*
X105989380Y7628047D01*
X105767142Y19311857D02*
X105814761Y19359476D01*
X105862380Y19502333D01*
X105862380Y19597571D01*
X105814761Y19740428D01*
X105719523Y19835666D01*
X105624285Y19883285D01*
X105433809Y19930904D01*
X105290952Y19930904D01*
X105100476Y19883285D01*
X105005238Y19835666D01*
X104910000Y19740428D01*
X104862380Y19597571D01*
X104862380Y19502333D01*
X104910000Y19359476D01*
X104957619Y19311857D01*
X105862380Y18359476D02*
X105862380Y18930904D01*
X105862380Y18645190D02*
X104862380Y18645190D01*
X105005238Y18740428D01*
X105100476Y18835666D01*
X105148095Y18930904D01*
X105290952Y17788047D02*
X105243333Y17883285D01*
X105195714Y17930904D01*
X105100476Y17978523D01*
X105052857Y17978523D01*
X104957619Y17930904D01*
X104910000Y17883285D01*
X104862380Y17788047D01*
X104862380Y17597571D01*
X104910000Y17502333D01*
X104957619Y17454714D01*
X105052857Y17407095D01*
X105100476Y17407095D01*
X105195714Y17454714D01*
X105243333Y17502333D01*
X105290952Y17597571D01*
X105290952Y17788047D01*
X105338571Y17883285D01*
X105386190Y17930904D01*
X105481428Y17978523D01*
X105671904Y17978523D01*
X105767142Y17930904D01*
X105814761Y17883285D01*
X105862380Y17788047D01*
X105862380Y17597571D01*
X105814761Y17502333D01*
X105767142Y17454714D01*
X105671904Y17407095D01*
X105481428Y17407095D01*
X105386190Y17454714D01*
X105338571Y17502333D01*
X105290952Y17597571D01*
X105767142Y29471857D02*
X105814761Y29519476D01*
X105862380Y29662333D01*
X105862380Y29757571D01*
X105814761Y29900428D01*
X105719523Y29995666D01*
X105624285Y30043285D01*
X105433809Y30090904D01*
X105290952Y30090904D01*
X105100476Y30043285D01*
X105005238Y29995666D01*
X104910000Y29900428D01*
X104862380Y29757571D01*
X104862380Y29662333D01*
X104910000Y29519476D01*
X104957619Y29471857D01*
X105862380Y28519476D02*
X105862380Y29090904D01*
X105862380Y28805190D02*
X104862380Y28805190D01*
X105005238Y28900428D01*
X105100476Y28995666D01*
X105148095Y29090904D01*
X105862380Y28043285D02*
X105862380Y27852809D01*
X105814761Y27757571D01*
X105767142Y27709952D01*
X105624285Y27614714D01*
X105433809Y27567095D01*
X105052857Y27567095D01*
X104957619Y27614714D01*
X104910000Y27662333D01*
X104862380Y27757571D01*
X104862380Y27948047D01*
X104910000Y28043285D01*
X104957619Y28090904D01*
X105052857Y28138523D01*
X105290952Y28138523D01*
X105386190Y28090904D01*
X105433809Y28043285D01*
X105481428Y27948047D01*
X105481428Y27757571D01*
X105433809Y27662333D01*
X105386190Y27614714D01*
X105290952Y27567095D01*
X105767142Y39631857D02*
X105814761Y39679476D01*
X105862380Y39822333D01*
X105862380Y39917571D01*
X105814761Y40060428D01*
X105719523Y40155666D01*
X105624285Y40203285D01*
X105433809Y40250904D01*
X105290952Y40250904D01*
X105100476Y40203285D01*
X105005238Y40155666D01*
X104910000Y40060428D01*
X104862380Y39917571D01*
X104862380Y39822333D01*
X104910000Y39679476D01*
X104957619Y39631857D01*
X104957619Y39250904D02*
X104910000Y39203285D01*
X104862380Y39108047D01*
X104862380Y38869952D01*
X104910000Y38774714D01*
X104957619Y38727095D01*
X105052857Y38679476D01*
X105148095Y38679476D01*
X105290952Y38727095D01*
X105862380Y39298523D01*
X105862380Y38679476D01*
X104862380Y38060428D02*
X104862380Y37965190D01*
X104910000Y37869952D01*
X104957619Y37822333D01*
X105052857Y37774714D01*
X105243333Y37727095D01*
X105481428Y37727095D01*
X105671904Y37774714D01*
X105767142Y37822333D01*
X105814761Y37869952D01*
X105862380Y37965190D01*
X105862380Y38060428D01*
X105814761Y38155666D01*
X105767142Y38203285D01*
X105671904Y38250904D01*
X105481428Y38298523D01*
X105243333Y38298523D01*
X105052857Y38250904D01*
X104957619Y38203285D01*
X104910000Y38155666D01*
X104862380Y38060428D01*
X107017142Y-2532142D02*
X107064761Y-2484523D01*
X107112380Y-2341666D01*
X107112380Y-2246428D01*
X107064761Y-2103571D01*
X106969523Y-2008333D01*
X106874285Y-1960714D01*
X106683809Y-1913095D01*
X106540952Y-1913095D01*
X106350476Y-1960714D01*
X106255238Y-2008333D01*
X106160000Y-2103571D01*
X106112380Y-2246428D01*
X106112380Y-2341666D01*
X106160000Y-2484523D01*
X106207619Y-2532142D01*
X106207619Y-2913095D02*
X106160000Y-2960714D01*
X106112380Y-3055952D01*
X106112380Y-3294047D01*
X106160000Y-3389285D01*
X106207619Y-3436904D01*
X106302857Y-3484523D01*
X106398095Y-3484523D01*
X106540952Y-3436904D01*
X107112380Y-2865476D01*
X107112380Y-3484523D01*
X106207619Y-3865476D02*
X106160000Y-3913095D01*
X106112380Y-4008333D01*
X106112380Y-4246428D01*
X106160000Y-4341666D01*
X106207619Y-4389285D01*
X106302857Y-4436904D01*
X106398095Y-4436904D01*
X106540952Y-4389285D01*
X107112380Y-3817857D01*
X107112380Y-4436904D01*
X107017142Y-12692142D02*
X107064761Y-12644523D01*
X107112380Y-12501666D01*
X107112380Y-12406428D01*
X107064761Y-12263571D01*
X106969523Y-12168333D01*
X106874285Y-12120714D01*
X106683809Y-12073095D01*
X106540952Y-12073095D01*
X106350476Y-12120714D01*
X106255238Y-12168333D01*
X106160000Y-12263571D01*
X106112380Y-12406428D01*
X106112380Y-12501666D01*
X106160000Y-12644523D01*
X106207619Y-12692142D01*
X106207619Y-13073095D02*
X106160000Y-13120714D01*
X106112380Y-13215952D01*
X106112380Y-13454047D01*
X106160000Y-13549285D01*
X106207619Y-13596904D01*
X106302857Y-13644523D01*
X106398095Y-13644523D01*
X106540952Y-13596904D01*
X107112380Y-13025476D01*
X107112380Y-13644523D01*
X106112380Y-13977857D02*
X106112380Y-14596904D01*
X106493333Y-14263571D01*
X106493333Y-14406428D01*
X106540952Y-14501666D01*
X106588571Y-14549285D01*
X106683809Y-14596904D01*
X106921904Y-14596904D01*
X107017142Y-14549285D01*
X107064761Y-14501666D01*
X107112380Y-14406428D01*
X107112380Y-14120714D01*
X107064761Y-14025476D01*
X107017142Y-13977857D01*
X100687142Y80271857D02*
X100734761Y80319476D01*
X100782380Y80462333D01*
X100782380Y80557571D01*
X100734761Y80700428D01*
X100639523Y80795666D01*
X100544285Y80843285D01*
X100353809Y80890904D01*
X100210952Y80890904D01*
X100020476Y80843285D01*
X99925238Y80795666D01*
X99830000Y80700428D01*
X99782380Y80557571D01*
X99782380Y80462333D01*
X99830000Y80319476D01*
X99877619Y80271857D01*
X99782380Y79938523D02*
X99782380Y79319476D01*
X100163333Y79652809D01*
X100163333Y79509952D01*
X100210952Y79414714D01*
X100258571Y79367095D01*
X100353809Y79319476D01*
X100591904Y79319476D01*
X100687142Y79367095D01*
X100734761Y79414714D01*
X100782380Y79509952D01*
X100782380Y79795666D01*
X100734761Y79890904D01*
X100687142Y79938523D01*
X100782380Y78367095D02*
X100782380Y78938523D01*
X100782380Y78652809D02*
X99782380Y78652809D01*
X99925238Y78748047D01*
X100020476Y78843285D01*
X100068095Y78938523D01*
X100687142Y42552857D02*
X100734761Y42600476D01*
X100782380Y42743333D01*
X100782380Y42838571D01*
X100734761Y42981428D01*
X100639523Y43076666D01*
X100544285Y43124285D01*
X100353809Y43171904D01*
X100210952Y43171904D01*
X100020476Y43124285D01*
X99925238Y43076666D01*
X99830000Y42981428D01*
X99782380Y42838571D01*
X99782380Y42743333D01*
X99830000Y42600476D01*
X99877619Y42552857D01*
X99782380Y42219523D02*
X99782380Y41600476D01*
X100163333Y41933809D01*
X100163333Y41790952D01*
X100210952Y41695714D01*
X100258571Y41648095D01*
X100353809Y41600476D01*
X100591904Y41600476D01*
X100687142Y41648095D01*
X100734761Y41695714D01*
X100782380Y41790952D01*
X100782380Y42076666D01*
X100734761Y42171904D01*
X100687142Y42219523D01*
X99877619Y41219523D02*
X99830000Y41171904D01*
X99782380Y41076666D01*
X99782380Y40838571D01*
X99830000Y40743333D01*
X99877619Y40695714D01*
X99972857Y40648095D01*
X100068095Y40648095D01*
X100210952Y40695714D01*
X100782380Y41267142D01*
X100782380Y40648095D01*
X100687142Y52966857D02*
X100734761Y53014476D01*
X100782380Y53157333D01*
X100782380Y53252571D01*
X100734761Y53395428D01*
X100639523Y53490666D01*
X100544285Y53538285D01*
X100353809Y53585904D01*
X100210952Y53585904D01*
X100020476Y53538285D01*
X99925238Y53490666D01*
X99830000Y53395428D01*
X99782380Y53252571D01*
X99782380Y53157333D01*
X99830000Y53014476D01*
X99877619Y52966857D01*
X99782380Y52633523D02*
X99782380Y52014476D01*
X100163333Y52347809D01*
X100163333Y52204952D01*
X100210952Y52109714D01*
X100258571Y52062095D01*
X100353809Y52014476D01*
X100591904Y52014476D01*
X100687142Y52062095D01*
X100734761Y52109714D01*
X100782380Y52204952D01*
X100782380Y52490666D01*
X100734761Y52585904D01*
X100687142Y52633523D01*
X99782380Y51681142D02*
X99782380Y51062095D01*
X100163333Y51395428D01*
X100163333Y51252571D01*
X100210952Y51157333D01*
X100258571Y51109714D01*
X100353809Y51062095D01*
X100591904Y51062095D01*
X100687142Y51109714D01*
X100734761Y51157333D01*
X100782380Y51252571D01*
X100782380Y51538285D01*
X100734761Y51633523D01*
X100687142Y51681142D01*
X100687142Y63380857D02*
X100734761Y63428476D01*
X100782380Y63571333D01*
X100782380Y63666571D01*
X100734761Y63809428D01*
X100639523Y63904666D01*
X100544285Y63952285D01*
X100353809Y63999904D01*
X100210952Y63999904D01*
X100020476Y63952285D01*
X99925238Y63904666D01*
X99830000Y63809428D01*
X99782380Y63666571D01*
X99782380Y63571333D01*
X99830000Y63428476D01*
X99877619Y63380857D01*
X99782380Y63047523D02*
X99782380Y62428476D01*
X100163333Y62761809D01*
X100163333Y62618952D01*
X100210952Y62523714D01*
X100258571Y62476095D01*
X100353809Y62428476D01*
X100591904Y62428476D01*
X100687142Y62476095D01*
X100734761Y62523714D01*
X100782380Y62618952D01*
X100782380Y62904666D01*
X100734761Y62999904D01*
X100687142Y63047523D01*
X100115714Y61571333D02*
X100782380Y61571333D01*
X99734761Y61809428D02*
X100449047Y62047523D01*
X100449047Y61428476D01*
X103227142Y80271857D02*
X103274761Y80319476D01*
X103322380Y80462333D01*
X103322380Y80557571D01*
X103274761Y80700428D01*
X103179523Y80795666D01*
X103084285Y80843285D01*
X102893809Y80890904D01*
X102750952Y80890904D01*
X102560476Y80843285D01*
X102465238Y80795666D01*
X102370000Y80700428D01*
X102322380Y80557571D01*
X102322380Y80462333D01*
X102370000Y80319476D01*
X102417619Y80271857D01*
X102322380Y79938523D02*
X102322380Y79319476D01*
X102703333Y79652809D01*
X102703333Y79509952D01*
X102750952Y79414714D01*
X102798571Y79367095D01*
X102893809Y79319476D01*
X103131904Y79319476D01*
X103227142Y79367095D01*
X103274761Y79414714D01*
X103322380Y79509952D01*
X103322380Y79795666D01*
X103274761Y79890904D01*
X103227142Y79938523D01*
X102322380Y78462333D02*
X102322380Y78652809D01*
X102370000Y78748047D01*
X102417619Y78795666D01*
X102560476Y78890904D01*
X102750952Y78938523D01*
X103131904Y78938523D01*
X103227142Y78890904D01*
X103274761Y78843285D01*
X103322380Y78748047D01*
X103322380Y78557571D01*
X103274761Y78462333D01*
X103227142Y78414714D01*
X103131904Y78367095D01*
X102893809Y78367095D01*
X102798571Y78414714D01*
X102750952Y78462333D01*
X102703333Y78557571D01*
X102703333Y78748047D01*
X102750952Y78843285D01*
X102798571Y78890904D01*
X102893809Y78938523D01*
X103227142Y42552857D02*
X103274761Y42600476D01*
X103322380Y42743333D01*
X103322380Y42838571D01*
X103274761Y42981428D01*
X103179523Y43076666D01*
X103084285Y43124285D01*
X102893809Y43171904D01*
X102750952Y43171904D01*
X102560476Y43124285D01*
X102465238Y43076666D01*
X102370000Y42981428D01*
X102322380Y42838571D01*
X102322380Y42743333D01*
X102370000Y42600476D01*
X102417619Y42552857D01*
X102322380Y42219523D02*
X102322380Y41600476D01*
X102703333Y41933809D01*
X102703333Y41790952D01*
X102750952Y41695714D01*
X102798571Y41648095D01*
X102893809Y41600476D01*
X103131904Y41600476D01*
X103227142Y41648095D01*
X103274761Y41695714D01*
X103322380Y41790952D01*
X103322380Y42076666D01*
X103274761Y42171904D01*
X103227142Y42219523D01*
X102322380Y41267142D02*
X102322380Y40600476D01*
X103322380Y41029047D01*
X102719142Y52966857D02*
X102766761Y53014476D01*
X102814380Y53157333D01*
X102814380Y53252571D01*
X102766761Y53395428D01*
X102671523Y53490666D01*
X102576285Y53538285D01*
X102385809Y53585904D01*
X102242952Y53585904D01*
X102052476Y53538285D01*
X101957238Y53490666D01*
X101862000Y53395428D01*
X101814380Y53252571D01*
X101814380Y53157333D01*
X101862000Y53014476D01*
X101909619Y52966857D01*
X101814380Y52633523D02*
X101814380Y52014476D01*
X102195333Y52347809D01*
X102195333Y52204952D01*
X102242952Y52109714D01*
X102290571Y52062095D01*
X102385809Y52014476D01*
X102623904Y52014476D01*
X102719142Y52062095D01*
X102766761Y52109714D01*
X102814380Y52204952D01*
X102814380Y52490666D01*
X102766761Y52585904D01*
X102719142Y52633523D01*
X102242952Y51443047D02*
X102195333Y51538285D01*
X102147714Y51585904D01*
X102052476Y51633523D01*
X102004857Y51633523D01*
X101909619Y51585904D01*
X101862000Y51538285D01*
X101814380Y51443047D01*
X101814380Y51252571D01*
X101862000Y51157333D01*
X101909619Y51109714D01*
X102004857Y51062095D01*
X102052476Y51062095D01*
X102147714Y51109714D01*
X102195333Y51157333D01*
X102242952Y51252571D01*
X102242952Y51443047D01*
X102290571Y51538285D01*
X102338190Y51585904D01*
X102433428Y51633523D01*
X102623904Y51633523D01*
X102719142Y51585904D01*
X102766761Y51538285D01*
X102814380Y51443047D01*
X102814380Y51252571D01*
X102766761Y51157333D01*
X102719142Y51109714D01*
X102623904Y51062095D01*
X102433428Y51062095D01*
X102338190Y51109714D01*
X102290571Y51157333D01*
X102242952Y51252571D01*
X103100142Y63380857D02*
X103147761Y63428476D01*
X103195380Y63571333D01*
X103195380Y63666571D01*
X103147761Y63809428D01*
X103052523Y63904666D01*
X102957285Y63952285D01*
X102766809Y63999904D01*
X102623952Y63999904D01*
X102433476Y63952285D01*
X102338238Y63904666D01*
X102243000Y63809428D01*
X102195380Y63666571D01*
X102195380Y63571333D01*
X102243000Y63428476D01*
X102290619Y63380857D01*
X102195380Y63047523D02*
X102195380Y62428476D01*
X102576333Y62761809D01*
X102576333Y62618952D01*
X102623952Y62523714D01*
X102671571Y62476095D01*
X102766809Y62428476D01*
X103004904Y62428476D01*
X103100142Y62476095D01*
X103147761Y62523714D01*
X103195380Y62618952D01*
X103195380Y62904666D01*
X103147761Y62999904D01*
X103100142Y63047523D01*
X103195380Y61952285D02*
X103195380Y61761809D01*
X103147761Y61666571D01*
X103100142Y61618952D01*
X102957285Y61523714D01*
X102766809Y61476095D01*
X102385857Y61476095D01*
X102290619Y61523714D01*
X102243000Y61571333D01*
X102195380Y61666571D01*
X102195380Y61857047D01*
X102243000Y61952285D01*
X102290619Y61999904D01*
X102385857Y62047523D01*
X102623952Y62047523D01*
X102719190Y61999904D01*
X102766809Y61952285D01*
X102814428Y61857047D01*
X102814428Y61666571D01*
X102766809Y61571333D01*
X102719190Y61523714D01*
X102623952Y61476095D01*
X105767142Y80271857D02*
X105814761Y80319476D01*
X105862380Y80462333D01*
X105862380Y80557571D01*
X105814761Y80700428D01*
X105719523Y80795666D01*
X105624285Y80843285D01*
X105433809Y80890904D01*
X105290952Y80890904D01*
X105100476Y80843285D01*
X105005238Y80795666D01*
X104910000Y80700428D01*
X104862380Y80557571D01*
X104862380Y80462333D01*
X104910000Y80319476D01*
X104957619Y80271857D01*
X105195714Y79414714D02*
X105862380Y79414714D01*
X104814761Y79652809D02*
X105529047Y79890904D01*
X105529047Y79271857D01*
X104862380Y78700428D02*
X104862380Y78605190D01*
X104910000Y78509952D01*
X104957619Y78462333D01*
X105052857Y78414714D01*
X105243333Y78367095D01*
X105481428Y78367095D01*
X105671904Y78414714D01*
X105767142Y78462333D01*
X105814761Y78509952D01*
X105862380Y78605190D01*
X105862380Y78700428D01*
X105814761Y78795666D01*
X105767142Y78843285D01*
X105671904Y78890904D01*
X105481428Y78938523D01*
X105243333Y78938523D01*
X105052857Y78890904D01*
X104957619Y78843285D01*
X104910000Y78795666D01*
X104862380Y78700428D01*
X104370142Y49156857D02*
X104417761Y49204476D01*
X104465380Y49347333D01*
X104465380Y49442571D01*
X104417761Y49585428D01*
X104322523Y49680666D01*
X104227285Y49728285D01*
X104036809Y49775904D01*
X103893952Y49775904D01*
X103703476Y49728285D01*
X103608238Y49680666D01*
X103513000Y49585428D01*
X103465380Y49442571D01*
X103465380Y49347333D01*
X103513000Y49204476D01*
X103560619Y49156857D01*
X103798714Y48299714D02*
X104465380Y48299714D01*
X103417761Y48537809D02*
X104132047Y48775904D01*
X104132047Y48156857D01*
X104465380Y47252095D02*
X104465380Y47823523D01*
X104465380Y47537809D02*
X103465380Y47537809D01*
X103608238Y47633047D01*
X103703476Y47728285D01*
X103751095Y47823523D01*
X104370142Y60078857D02*
X104417761Y60126476D01*
X104465380Y60269333D01*
X104465380Y60364571D01*
X104417761Y60507428D01*
X104322523Y60602666D01*
X104227285Y60650285D01*
X104036809Y60697904D01*
X103893952Y60697904D01*
X103703476Y60650285D01*
X103608238Y60602666D01*
X103513000Y60507428D01*
X103465380Y60364571D01*
X103465380Y60269333D01*
X103513000Y60126476D01*
X103560619Y60078857D01*
X103798714Y59221714D02*
X104465380Y59221714D01*
X103417761Y59459809D02*
X104132047Y59697904D01*
X104132047Y59078857D01*
X103560619Y58745523D02*
X103513000Y58697904D01*
X103465380Y58602666D01*
X103465380Y58364571D01*
X103513000Y58269333D01*
X103560619Y58221714D01*
X103655857Y58174095D01*
X103751095Y58174095D01*
X103893952Y58221714D01*
X104465380Y58793142D01*
X104465380Y58174095D01*
X104370142Y70492857D02*
X104417761Y70540476D01*
X104465380Y70683333D01*
X104465380Y70778571D01*
X104417761Y70921428D01*
X104322523Y71016666D01*
X104227285Y71064285D01*
X104036809Y71111904D01*
X103893952Y71111904D01*
X103703476Y71064285D01*
X103608238Y71016666D01*
X103513000Y70921428D01*
X103465380Y70778571D01*
X103465380Y70683333D01*
X103513000Y70540476D01*
X103560619Y70492857D01*
X103798714Y69635714D02*
X104465380Y69635714D01*
X103417761Y69873809D02*
X104132047Y70111904D01*
X104132047Y69492857D01*
X103465380Y69207142D02*
X103465380Y68588095D01*
X103846333Y68921428D01*
X103846333Y68778571D01*
X103893952Y68683333D01*
X103941571Y68635714D01*
X104036809Y68588095D01*
X104274904Y68588095D01*
X104370142Y68635714D01*
X104417761Y68683333D01*
X104465380Y68778571D01*
X104465380Y69064285D01*
X104417761Y69159523D01*
X104370142Y69207142D01*
X69592142Y55887857D02*
X69639761Y55935476D01*
X69687380Y56078333D01*
X69687380Y56173571D01*
X69639761Y56316428D01*
X69544523Y56411666D01*
X69449285Y56459285D01*
X69258809Y56506904D01*
X69115952Y56506904D01*
X68925476Y56459285D01*
X68830238Y56411666D01*
X68735000Y56316428D01*
X68687380Y56173571D01*
X68687380Y56078333D01*
X68735000Y55935476D01*
X68782619Y55887857D01*
X68687380Y54983095D02*
X68687380Y55459285D01*
X69163571Y55506904D01*
X69115952Y55459285D01*
X69068333Y55364047D01*
X69068333Y55125952D01*
X69115952Y55030714D01*
X69163571Y54983095D01*
X69258809Y54935476D01*
X69496904Y54935476D01*
X69592142Y54983095D01*
X69639761Y55030714D01*
X69687380Y55125952D01*
X69687380Y55364047D01*
X69639761Y55459285D01*
X69592142Y55506904D01*
X68687380Y54078333D02*
X68687380Y54268809D01*
X68735000Y54364047D01*
X68782619Y54411666D01*
X68925476Y54506904D01*
X69115952Y54554523D01*
X69496904Y54554523D01*
X69592142Y54506904D01*
X69639761Y54459285D01*
X69687380Y54364047D01*
X69687380Y54173571D01*
X69639761Y54078333D01*
X69592142Y54030714D01*
X69496904Y53983095D01*
X69258809Y53983095D01*
X69163571Y54030714D01*
X69115952Y54078333D01*
X69068333Y54173571D01*
X69068333Y54364047D01*
X69115952Y54459285D01*
X69163571Y54506904D01*
X69258809Y54554523D01*
X69592142Y-7612142D02*
X69639761Y-7564523D01*
X69687380Y-7421666D01*
X69687380Y-7326428D01*
X69639761Y-7183571D01*
X69544523Y-7088333D01*
X69449285Y-7040714D01*
X69258809Y-6993095D01*
X69115952Y-6993095D01*
X68925476Y-7040714D01*
X68830238Y-7088333D01*
X68735000Y-7183571D01*
X68687380Y-7326428D01*
X68687380Y-7421666D01*
X68735000Y-7564523D01*
X68782619Y-7612142D01*
X68687380Y-8516904D02*
X68687380Y-8040714D01*
X69163571Y-7993095D01*
X69115952Y-8040714D01*
X69068333Y-8135952D01*
X69068333Y-8374047D01*
X69115952Y-8469285D01*
X69163571Y-8516904D01*
X69258809Y-8564523D01*
X69496904Y-8564523D01*
X69592142Y-8516904D01*
X69639761Y-8469285D01*
X69687380Y-8374047D01*
X69687380Y-8135952D01*
X69639761Y-8040714D01*
X69592142Y-7993095D01*
X68687380Y-8897857D02*
X68687380Y-9564523D01*
X69687380Y-9135952D01*
X69592142Y24137857D02*
X69639761Y24185476D01*
X69687380Y24328333D01*
X69687380Y24423571D01*
X69639761Y24566428D01*
X69544523Y24661666D01*
X69449285Y24709285D01*
X69258809Y24756904D01*
X69115952Y24756904D01*
X68925476Y24709285D01*
X68830238Y24661666D01*
X68735000Y24566428D01*
X68687380Y24423571D01*
X68687380Y24328333D01*
X68735000Y24185476D01*
X68782619Y24137857D01*
X68687380Y23233095D02*
X68687380Y23709285D01*
X69163571Y23756904D01*
X69115952Y23709285D01*
X69068333Y23614047D01*
X69068333Y23375952D01*
X69115952Y23280714D01*
X69163571Y23233095D01*
X69258809Y23185476D01*
X69496904Y23185476D01*
X69592142Y23233095D01*
X69639761Y23280714D01*
X69687380Y23375952D01*
X69687380Y23614047D01*
X69639761Y23709285D01*
X69592142Y23756904D01*
X69115952Y22614047D02*
X69068333Y22709285D01*
X69020714Y22756904D01*
X68925476Y22804523D01*
X68877857Y22804523D01*
X68782619Y22756904D01*
X68735000Y22709285D01*
X68687380Y22614047D01*
X68687380Y22423571D01*
X68735000Y22328333D01*
X68782619Y22280714D01*
X68877857Y22233095D01*
X68925476Y22233095D01*
X69020714Y22280714D01*
X69068333Y22328333D01*
X69115952Y22423571D01*
X69115952Y22614047D01*
X69163571Y22709285D01*
X69211190Y22756904D01*
X69306428Y22804523D01*
X69496904Y22804523D01*
X69592142Y22756904D01*
X69639761Y22709285D01*
X69687380Y22614047D01*
X69687380Y22423571D01*
X69639761Y22328333D01*
X69592142Y22280714D01*
X69496904Y22233095D01*
X69306428Y22233095D01*
X69211190Y22280714D01*
X69163571Y22328333D01*
X69115952Y22423571D01*
X14942142Y41282857D02*
X14989761Y41330476D01*
X15037380Y41473333D01*
X15037380Y41568571D01*
X14989761Y41711428D01*
X14894523Y41806666D01*
X14799285Y41854285D01*
X14608809Y41901904D01*
X14465952Y41901904D01*
X14275476Y41854285D01*
X14180238Y41806666D01*
X14085000Y41711428D01*
X14037380Y41568571D01*
X14037380Y41473333D01*
X14085000Y41330476D01*
X14132619Y41282857D01*
X14037380Y40425714D02*
X14037380Y40616190D01*
X14085000Y40711428D01*
X14132619Y40759047D01*
X14275476Y40854285D01*
X14465952Y40901904D01*
X14846904Y40901904D01*
X14942142Y40854285D01*
X14989761Y40806666D01*
X15037380Y40711428D01*
X15037380Y40520952D01*
X14989761Y40425714D01*
X14942142Y40378095D01*
X14846904Y40330476D01*
X14608809Y40330476D01*
X14513571Y40378095D01*
X14465952Y40425714D01*
X14418333Y40520952D01*
X14418333Y40711428D01*
X14465952Y40806666D01*
X14513571Y40854285D01*
X14608809Y40901904D01*
X14037380Y39997142D02*
X14037380Y39330476D01*
X15037380Y39759047D01*
X21292142Y27947857D02*
X21339761Y27995476D01*
X21387380Y28138333D01*
X21387380Y28233571D01*
X21339761Y28376428D01*
X21244523Y28471666D01*
X21149285Y28519285D01*
X20958809Y28566904D01*
X20815952Y28566904D01*
X20625476Y28519285D01*
X20530238Y28471666D01*
X20435000Y28376428D01*
X20387380Y28233571D01*
X20387380Y28138333D01*
X20435000Y27995476D01*
X20482619Y27947857D01*
X20387380Y27614523D02*
X20387380Y26947857D01*
X21387380Y27376428D01*
X21387380Y26043095D02*
X21387380Y26614523D01*
X21387380Y26328809D02*
X20387380Y26328809D01*
X20530238Y26424047D01*
X20625476Y26519285D01*
X20673095Y26614523D01*
X103227142Y-21328142D02*
X103274761Y-21280523D01*
X103322380Y-21137666D01*
X103322380Y-21042428D01*
X103274761Y-20899571D01*
X103179523Y-20804333D01*
X103084285Y-20756714D01*
X102893809Y-20709095D01*
X102750952Y-20709095D01*
X102560476Y-20756714D01*
X102465238Y-20804333D01*
X102370000Y-20899571D01*
X102322380Y-21042428D01*
X102322380Y-21137666D01*
X102370000Y-21280523D01*
X102417619Y-21328142D01*
X102322380Y-21661476D02*
X102322380Y-22328142D01*
X103322380Y-21899571D01*
X102322380Y-23185285D02*
X102322380Y-22709095D01*
X102798571Y-22661476D01*
X102750952Y-22709095D01*
X102703333Y-22804333D01*
X102703333Y-23042428D01*
X102750952Y-23137666D01*
X102798571Y-23185285D01*
X102893809Y-23232904D01*
X103131904Y-23232904D01*
X103227142Y-23185285D01*
X103274761Y-23137666D01*
X103322380Y-23042428D01*
X103322380Y-22804333D01*
X103274761Y-22709095D01*
X103227142Y-22661476D01*
X100687142Y-21328142D02*
X100734761Y-21280523D01*
X100782380Y-21137666D01*
X100782380Y-21042428D01*
X100734761Y-20899571D01*
X100639523Y-20804333D01*
X100544285Y-20756714D01*
X100353809Y-20709095D01*
X100210952Y-20709095D01*
X100020476Y-20756714D01*
X99925238Y-20804333D01*
X99830000Y-20899571D01*
X99782380Y-21042428D01*
X99782380Y-21137666D01*
X99830000Y-21280523D01*
X99877619Y-21328142D01*
X99782380Y-21661476D02*
X99782380Y-22328142D01*
X100782380Y-21899571D01*
X100782380Y-22756714D02*
X100782380Y-22947190D01*
X100734761Y-23042428D01*
X100687142Y-23090047D01*
X100544285Y-23185285D01*
X100353809Y-23232904D01*
X99972857Y-23232904D01*
X99877619Y-23185285D01*
X99830000Y-23137666D01*
X99782380Y-23042428D01*
X99782380Y-22851952D01*
X99830000Y-22756714D01*
X99877619Y-22709095D01*
X99972857Y-22661476D01*
X100210952Y-22661476D01*
X100306190Y-22709095D01*
X100353809Y-22756714D01*
X100401428Y-22851952D01*
X100401428Y-23042428D01*
X100353809Y-23137666D01*
X100306190Y-23185285D01*
X100210952Y-23232904D01*
X105767142Y-21328142D02*
X105814761Y-21280523D01*
X105862380Y-21137666D01*
X105862380Y-21042428D01*
X105814761Y-20899571D01*
X105719523Y-20804333D01*
X105624285Y-20756714D01*
X105433809Y-20709095D01*
X105290952Y-20709095D01*
X105100476Y-20756714D01*
X105005238Y-20804333D01*
X104910000Y-20899571D01*
X104862380Y-21042428D01*
X104862380Y-21137666D01*
X104910000Y-21280523D01*
X104957619Y-21328142D01*
X105290952Y-21899571D02*
X105243333Y-21804333D01*
X105195714Y-21756714D01*
X105100476Y-21709095D01*
X105052857Y-21709095D01*
X104957619Y-21756714D01*
X104910000Y-21804333D01*
X104862380Y-21899571D01*
X104862380Y-22090047D01*
X104910000Y-22185285D01*
X104957619Y-22232904D01*
X105052857Y-22280523D01*
X105100476Y-22280523D01*
X105195714Y-22232904D01*
X105243333Y-22185285D01*
X105290952Y-22090047D01*
X105290952Y-21899571D01*
X105338571Y-21804333D01*
X105386190Y-21756714D01*
X105481428Y-21709095D01*
X105671904Y-21709095D01*
X105767142Y-21756714D01*
X105814761Y-21804333D01*
X105862380Y-21899571D01*
X105862380Y-22090047D01*
X105814761Y-22185285D01*
X105767142Y-22232904D01*
X105671904Y-22280523D01*
X105481428Y-22280523D01*
X105386190Y-22232904D01*
X105338571Y-22185285D01*
X105290952Y-22090047D01*
X104862380Y-22899571D02*
X104862380Y-22994809D01*
X104910000Y-23090047D01*
X104957619Y-23137666D01*
X105052857Y-23185285D01*
X105243333Y-23232904D01*
X105481428Y-23232904D01*
X105671904Y-23185285D01*
X105767142Y-23137666D01*
X105814761Y-23090047D01*
X105862380Y-22994809D01*
X105862380Y-22899571D01*
X105814761Y-22804333D01*
X105767142Y-22756714D01*
X105671904Y-22709095D01*
X105481428Y-22661476D01*
X105243333Y-22661476D01*
X105052857Y-22709095D01*
X104957619Y-22756714D01*
X104910000Y-22804333D01*
X104862380Y-22899571D01*
X58122142Y4452857D02*
X58169761Y4500476D01*
X58217380Y4643333D01*
X58217380Y4738571D01*
X58169761Y4881428D01*
X58074523Y4976666D01*
X57979285Y5024285D01*
X57788809Y5071904D01*
X57645952Y5071904D01*
X57455476Y5024285D01*
X57360238Y4976666D01*
X57265000Y4881428D01*
X57217380Y4738571D01*
X57217380Y4643333D01*
X57265000Y4500476D01*
X57312619Y4452857D01*
X57645952Y3881428D02*
X57598333Y3976666D01*
X57550714Y4024285D01*
X57455476Y4071904D01*
X57407857Y4071904D01*
X57312619Y4024285D01*
X57265000Y3976666D01*
X57217380Y3881428D01*
X57217380Y3690952D01*
X57265000Y3595714D01*
X57312619Y3548095D01*
X57407857Y3500476D01*
X57455476Y3500476D01*
X57550714Y3548095D01*
X57598333Y3595714D01*
X57645952Y3690952D01*
X57645952Y3881428D01*
X57693571Y3976666D01*
X57741190Y4024285D01*
X57836428Y4071904D01*
X58026904Y4071904D01*
X58122142Y4024285D01*
X58169761Y3976666D01*
X58217380Y3881428D01*
X58217380Y3690952D01*
X58169761Y3595714D01*
X58122142Y3548095D01*
X58026904Y3500476D01*
X57836428Y3500476D01*
X57741190Y3548095D01*
X57693571Y3595714D01*
X57645952Y3690952D01*
X58217380Y2548095D02*
X58217380Y3119523D01*
X58217380Y2833809D02*
X57217380Y2833809D01*
X57360238Y2929047D01*
X57455476Y3024285D01*
X57503095Y3119523D01*
X22943142Y10421857D02*
X22990761Y10469476D01*
X23038380Y10612333D01*
X23038380Y10707571D01*
X22990761Y10850428D01*
X22895523Y10945666D01*
X22800285Y10993285D01*
X22609809Y11040904D01*
X22466952Y11040904D01*
X22276476Y10993285D01*
X22181238Y10945666D01*
X22086000Y10850428D01*
X22038380Y10707571D01*
X22038380Y10612333D01*
X22086000Y10469476D01*
X22133619Y10421857D01*
X22466952Y9850428D02*
X22419333Y9945666D01*
X22371714Y9993285D01*
X22276476Y10040904D01*
X22228857Y10040904D01*
X22133619Y9993285D01*
X22086000Y9945666D01*
X22038380Y9850428D01*
X22038380Y9659952D01*
X22086000Y9564714D01*
X22133619Y9517095D01*
X22228857Y9469476D01*
X22276476Y9469476D01*
X22371714Y9517095D01*
X22419333Y9564714D01*
X22466952Y9659952D01*
X22466952Y9850428D01*
X22514571Y9945666D01*
X22562190Y9993285D01*
X22657428Y10040904D01*
X22847904Y10040904D01*
X22943142Y9993285D01*
X22990761Y9945666D01*
X23038380Y9850428D01*
X23038380Y9659952D01*
X22990761Y9564714D01*
X22943142Y9517095D01*
X22847904Y9469476D01*
X22657428Y9469476D01*
X22562190Y9517095D01*
X22514571Y9564714D01*
X22466952Y9659952D01*
X22133619Y9088523D02*
X22086000Y9040904D01*
X22038380Y8945666D01*
X22038380Y8707571D01*
X22086000Y8612333D01*
X22133619Y8564714D01*
X22228857Y8517095D01*
X22324095Y8517095D01*
X22466952Y8564714D01*
X23038380Y9136142D01*
X23038380Y8517095D01*
X15057380Y-13866904D02*
X14057380Y-13866904D01*
X14057380Y-14105000D01*
X14105000Y-14247857D01*
X14200238Y-14343095D01*
X14295476Y-14390714D01*
X14485952Y-14438333D01*
X14628809Y-14438333D01*
X14819285Y-14390714D01*
X14914523Y-14343095D01*
X15009761Y-14247857D01*
X15057380Y-14105000D01*
X15057380Y-13866904D01*
X15057380Y-15390714D02*
X15057380Y-14819285D01*
X15057380Y-15105000D02*
X14057380Y-15105000D01*
X14200238Y-15009761D01*
X14295476Y-14914523D01*
X14343095Y-14819285D01*
X63341190Y63047619D02*
X63341190Y64047619D01*
X62960238Y64047619D02*
X62341190Y64047619D01*
X62674523Y63666666D01*
X62531666Y63666666D01*
X62436428Y63619047D01*
X62388809Y63571428D01*
X62341190Y63476190D01*
X62341190Y63238095D01*
X62388809Y63142857D01*
X62436428Y63095238D01*
X62531666Y63047619D01*
X62817380Y63047619D01*
X62912619Y63095238D01*
X62960238Y63142857D01*
X74771190Y39862619D02*
X74771190Y40862619D01*
X74390238Y40862619D02*
X73723571Y40862619D01*
X74152142Y39862619D01*
X74771190Y-23637380D02*
X74771190Y-22637380D01*
X74152142Y-23065952D02*
X74247380Y-23018333D01*
X74295000Y-22970714D01*
X74342619Y-22875476D01*
X74342619Y-22827857D01*
X74295000Y-22732619D01*
X74247380Y-22685000D01*
X74152142Y-22637380D01*
X73961666Y-22637380D01*
X73866428Y-22685000D01*
X73818809Y-22732619D01*
X73771190Y-22827857D01*
X73771190Y-22875476D01*
X73818809Y-22970714D01*
X73866428Y-23018333D01*
X73961666Y-23065952D01*
X74152142Y-23065952D01*
X74247380Y-23113571D01*
X74295000Y-23161190D01*
X74342619Y-23256428D01*
X74342619Y-23446904D01*
X74295000Y-23542142D01*
X74247380Y-23589761D01*
X74152142Y-23637380D01*
X73961666Y-23637380D01*
X73866428Y-23589761D01*
X73818809Y-23542142D01*
X73771190Y-23446904D01*
X73771190Y-23256428D01*
X73818809Y-23161190D01*
X73866428Y-23113571D01*
X73961666Y-23065952D01*
X74568815Y8112619D02*
X74568815Y9112619D01*
X74045005Y8112619D02*
X73854529Y8112619D01*
X73759291Y8160238D01*
X73711672Y8207857D01*
X73616434Y8350714D01*
X73568815Y8541190D01*
X73568815Y8922142D01*
X73616434Y9017380D01*
X73664053Y9065000D01*
X73759291Y9112619D01*
X73949767Y9112619D01*
X74045005Y9065000D01*
X74092625Y9017380D01*
X74140244Y8922142D01*
X74140244Y8684047D01*
X74092625Y8588809D01*
X74045005Y8541190D01*
X73949767Y8493571D01*
X73759291Y8493571D01*
X73664053Y8541190D01*
X73616434Y8588809D01*
X73568815Y8684047D01*
D15*
X101682973Y2779606D02*
X101920040Y2779606D01*
X101920040Y3277446D01*
X101540733Y3230033D02*
X101517026Y3253740D01*
X101469613Y3277446D01*
X101351080Y3277446D01*
X101303666Y3253740D01*
X101279960Y3230033D01*
X101256253Y3182620D01*
X101256253Y3135206D01*
X101279960Y3064086D01*
X101564440Y2779606D01*
X101256253Y2779606D01*
X101943746Y480906D02*
X102228226Y480906D01*
X102085986Y480906D02*
X102085986Y978746D01*
X102133400Y907626D01*
X102180813Y860213D01*
X102228226Y836506D01*
X101517026Y812800D02*
X101517026Y480906D01*
X101730386Y812800D02*
X101730386Y552026D01*
X101706680Y504613D01*
X101659266Y480906D01*
X101588146Y480906D01*
X101540733Y504613D01*
X101517026Y528320D01*
X101279960Y480906D02*
X101279960Y978746D01*
X101279960Y741680D02*
X100995480Y741680D01*
X100995480Y480906D02*
X100995480Y978746D01*
X101682973Y12939606D02*
X101920040Y12939606D01*
X101920040Y13437446D01*
X101564440Y13437446D02*
X101256253Y13437446D01*
X101422200Y13247793D01*
X101351080Y13247793D01*
X101303666Y13224086D01*
X101279960Y13200380D01*
X101256253Y13152966D01*
X101256253Y13034433D01*
X101279960Y12987020D01*
X101303666Y12963313D01*
X101351080Y12939606D01*
X101493320Y12939606D01*
X101540733Y12963313D01*
X101564440Y12987020D01*
X101943746Y10640906D02*
X102228226Y10640906D01*
X102085986Y10640906D02*
X102085986Y11138746D01*
X102133400Y11067626D01*
X102180813Y11020213D01*
X102228226Y10996506D01*
X101517026Y10972800D02*
X101517026Y10640906D01*
X101730386Y10972800D02*
X101730386Y10712026D01*
X101706680Y10664613D01*
X101659266Y10640906D01*
X101588146Y10640906D01*
X101540733Y10664613D01*
X101517026Y10688320D01*
X101279960Y10640906D02*
X101279960Y11138746D01*
X101279960Y10901680D02*
X100995480Y10901680D01*
X100995480Y10640906D02*
X100995480Y11138746D01*
X101682973Y23099606D02*
X101920040Y23099606D01*
X101920040Y23597446D01*
X101303666Y23431500D02*
X101303666Y23099606D01*
X101422200Y23621153D02*
X101540733Y23265553D01*
X101232546Y23265553D01*
X101943746Y20800906D02*
X102228226Y20800906D01*
X102085986Y20800906D02*
X102085986Y21298746D01*
X102133400Y21227626D01*
X102180813Y21180213D01*
X102228226Y21156506D01*
X101517026Y21132800D02*
X101517026Y20800906D01*
X101730386Y21132800D02*
X101730386Y20872026D01*
X101706680Y20824613D01*
X101659266Y20800906D01*
X101588146Y20800906D01*
X101540733Y20824613D01*
X101517026Y20848320D01*
X101279960Y20800906D02*
X101279960Y21298746D01*
X101279960Y21061680D02*
X100995480Y21061680D01*
X100995480Y20800906D02*
X100995480Y21298746D01*
X101682973Y33259606D02*
X101920040Y33259606D01*
X101920040Y33757446D01*
X101279960Y33757446D02*
X101517026Y33757446D01*
X101540733Y33520380D01*
X101517026Y33544086D01*
X101469613Y33567793D01*
X101351080Y33567793D01*
X101303666Y33544086D01*
X101279960Y33520380D01*
X101256253Y33472966D01*
X101256253Y33354433D01*
X101279960Y33307020D01*
X101303666Y33283313D01*
X101351080Y33259606D01*
X101469613Y33259606D01*
X101517026Y33283313D01*
X101540733Y33307020D01*
X101943746Y30960906D02*
X102228226Y30960906D01*
X102085986Y30960906D02*
X102085986Y31458746D01*
X102133400Y31387626D01*
X102180813Y31340213D01*
X102228226Y31316506D01*
X101517026Y31292800D02*
X101517026Y30960906D01*
X101730386Y31292800D02*
X101730386Y31032026D01*
X101706680Y30984613D01*
X101659266Y30960906D01*
X101588146Y30960906D01*
X101540733Y30984613D01*
X101517026Y31008320D01*
X101279960Y30960906D02*
X101279960Y31458746D01*
X101279960Y31221680D02*
X100995480Y31221680D01*
X100995480Y30960906D02*
X100995480Y31458746D01*
X101682973Y-1030393D02*
X101920040Y-1030393D01*
X101920040Y-532553D01*
X101303666Y-532553D02*
X101398493Y-532553D01*
X101445906Y-556260D01*
X101469613Y-579966D01*
X101517026Y-651086D01*
X101540733Y-745913D01*
X101540733Y-935566D01*
X101517026Y-982980D01*
X101493320Y-1006686D01*
X101445906Y-1030393D01*
X101351080Y-1030393D01*
X101303666Y-1006686D01*
X101279960Y-982980D01*
X101256253Y-935566D01*
X101256253Y-817033D01*
X101279960Y-769620D01*
X101303666Y-745913D01*
X101351080Y-722206D01*
X101445906Y-722206D01*
X101493320Y-745913D01*
X101517026Y-769620D01*
X101540733Y-817033D01*
X101943746Y-3329093D02*
X102228226Y-3329093D01*
X102085986Y-3329093D02*
X102085986Y-2831253D01*
X102133400Y-2902373D01*
X102180813Y-2949786D01*
X102228226Y-2973493D01*
X101517026Y-2997200D02*
X101517026Y-3329093D01*
X101730386Y-2997200D02*
X101730386Y-3257973D01*
X101706680Y-3305386D01*
X101659266Y-3329093D01*
X101588146Y-3329093D01*
X101540733Y-3305386D01*
X101517026Y-3281680D01*
X101279960Y-3329093D02*
X101279960Y-2831253D01*
X101279960Y-3068320D02*
X100995480Y-3068320D01*
X100995480Y-3329093D02*
X100995480Y-2831253D01*
X101680433Y-11190393D02*
X101917500Y-11190393D01*
X101917500Y-10692553D01*
X101561900Y-10692553D02*
X101230006Y-10692553D01*
X101443366Y-11190393D01*
X101941206Y-13489093D02*
X102225686Y-13489093D01*
X102083446Y-13489093D02*
X102083446Y-12991253D01*
X102130860Y-13062373D01*
X102178273Y-13109786D01*
X102225686Y-13133493D01*
X101514486Y-13157200D02*
X101514486Y-13489093D01*
X101727846Y-13157200D02*
X101727846Y-13417973D01*
X101704140Y-13465386D01*
X101656726Y-13489093D01*
X101585606Y-13489093D01*
X101538193Y-13465386D01*
X101514486Y-13441680D01*
X101277420Y-13489093D02*
X101277420Y-12991253D01*
X101277420Y-13228320D02*
X100992940Y-13228320D01*
X100992940Y-13489093D02*
X100992940Y-12991253D01*
X101922580Y73899606D02*
X102159646Y73899606D01*
X102159646Y74397446D01*
X101495860Y73899606D02*
X101780340Y73899606D01*
X101638100Y73899606D02*
X101638100Y74397446D01*
X101685513Y74326326D01*
X101732926Y74278913D01*
X101780340Y74255206D01*
X101187673Y74397446D02*
X101140260Y74397446D01*
X101092846Y74373740D01*
X101069140Y74350033D01*
X101045433Y74302620D01*
X101021726Y74207793D01*
X101021726Y74089260D01*
X101045433Y73994433D01*
X101069140Y73947020D01*
X101092846Y73923313D01*
X101140260Y73899606D01*
X101187673Y73899606D01*
X101235086Y73923313D01*
X101258793Y73947020D01*
X101282500Y73994433D01*
X101306206Y74089260D01*
X101306206Y74207793D01*
X101282500Y74302620D01*
X101258793Y74350033D01*
X101235086Y74373740D01*
X101187673Y74397446D01*
X101946286Y71600906D02*
X102230766Y71600906D01*
X102088526Y71600906D02*
X102088526Y72098746D01*
X102135940Y72027626D01*
X102183353Y71980213D01*
X102230766Y71956506D01*
X101519566Y71932800D02*
X101519566Y71600906D01*
X101732926Y71932800D02*
X101732926Y71672026D01*
X101709220Y71624613D01*
X101661806Y71600906D01*
X101590686Y71600906D01*
X101543273Y71624613D01*
X101519566Y71648320D01*
X101282500Y71600906D02*
X101282500Y72098746D01*
X101282500Y71861680D02*
X100998020Y71861680D01*
X100998020Y71600906D02*
X100998020Y72098746D01*
X101920040Y49134606D02*
X102157106Y49134606D01*
X102157106Y49632446D01*
X101493320Y49134606D02*
X101777800Y49134606D01*
X101635560Y49134606D02*
X101635560Y49632446D01*
X101682973Y49561326D01*
X101730386Y49513913D01*
X101777800Y49490206D01*
X101019186Y49134606D02*
X101303666Y49134606D01*
X101161426Y49134606D02*
X101161426Y49632446D01*
X101208840Y49561326D01*
X101256253Y49513913D01*
X101303666Y49490206D01*
X101943746Y46835906D02*
X102228226Y46835906D01*
X102085986Y46835906D02*
X102085986Y47333746D01*
X102133400Y47262626D01*
X102180813Y47215213D01*
X102228226Y47191506D01*
X101517026Y47167800D02*
X101517026Y46835906D01*
X101730386Y47167800D02*
X101730386Y46907026D01*
X101706680Y46859613D01*
X101659266Y46835906D01*
X101588146Y46835906D01*
X101540733Y46859613D01*
X101517026Y46883320D01*
X101279960Y46835906D02*
X101279960Y47333746D01*
X101279960Y47096680D02*
X100995480Y47096680D01*
X100995480Y46835906D02*
X100995480Y47333746D01*
X101920040Y59929606D02*
X102157106Y59929606D01*
X102157106Y60427446D01*
X101493320Y59929606D02*
X101777800Y59929606D01*
X101635560Y59929606D02*
X101635560Y60427446D01*
X101682973Y60356326D01*
X101730386Y60308913D01*
X101777800Y60285206D01*
X101303666Y60380033D02*
X101279960Y60403740D01*
X101232546Y60427446D01*
X101114013Y60427446D01*
X101066600Y60403740D01*
X101042893Y60380033D01*
X101019186Y60332620D01*
X101019186Y60285206D01*
X101042893Y60214086D01*
X101327373Y59929606D01*
X101019186Y59929606D01*
X101943746Y57630906D02*
X102228226Y57630906D01*
X102085986Y57630906D02*
X102085986Y58128746D01*
X102133400Y58057626D01*
X102180813Y58010213D01*
X102228226Y57986506D01*
X101517026Y57962800D02*
X101517026Y57630906D01*
X101730386Y57962800D02*
X101730386Y57702026D01*
X101706680Y57654613D01*
X101659266Y57630906D01*
X101588146Y57630906D01*
X101540733Y57654613D01*
X101517026Y57678320D01*
X101279960Y57630906D02*
X101279960Y58128746D01*
X101279960Y57891680D02*
X100995480Y57891680D01*
X100995480Y57630906D02*
X100995480Y58128746D01*
X101922580Y70089606D02*
X102159646Y70089606D01*
X102159646Y70587446D01*
X101495860Y70089606D02*
X101780340Y70089606D01*
X101638100Y70089606D02*
X101638100Y70587446D01*
X101685513Y70516326D01*
X101732926Y70468913D01*
X101780340Y70445206D01*
X101329913Y70587446D02*
X101021726Y70587446D01*
X101187673Y70397793D01*
X101116553Y70397793D01*
X101069140Y70374086D01*
X101045433Y70350380D01*
X101021726Y70302966D01*
X101021726Y70184433D01*
X101045433Y70137020D01*
X101069140Y70113313D01*
X101116553Y70089606D01*
X101258793Y70089606D01*
X101306206Y70113313D01*
X101329913Y70137020D01*
X101946286Y67790906D02*
X102230766Y67790906D01*
X102088526Y67790906D02*
X102088526Y68288746D01*
X102135940Y68217626D01*
X102183353Y68170213D01*
X102230766Y68146506D01*
X101519566Y68122800D02*
X101519566Y67790906D01*
X101732926Y68122800D02*
X101732926Y67862026D01*
X101709220Y67814613D01*
X101661806Y67790906D01*
X101590686Y67790906D01*
X101543273Y67814613D01*
X101519566Y67838320D01*
X101282500Y67790906D02*
X101282500Y68288746D01*
X101282500Y68051680D02*
X100998020Y68051680D01*
X100998020Y67790906D02*
X100998020Y68288746D01*
X101920040Y-29900033D02*
X102157106Y-29900033D01*
X102157106Y-29402193D01*
X101493320Y-29900033D02*
X101777800Y-29900033D01*
X101635560Y-29900033D02*
X101635560Y-29402193D01*
X101682973Y-29473313D01*
X101730386Y-29520726D01*
X101777800Y-29544433D01*
X101327373Y-29402193D02*
X100995480Y-29402193D01*
X101208840Y-29900033D01*
X101943746Y-27601333D02*
X102228226Y-27601333D01*
X102085986Y-27601333D02*
X102085986Y-27103493D01*
X102133400Y-27174613D01*
X102180813Y-27222026D01*
X102228226Y-27245733D01*
X101517026Y-27269440D02*
X101517026Y-27601333D01*
X101730386Y-27269440D02*
X101730386Y-27530213D01*
X101706680Y-27577626D01*
X101659266Y-27601333D01*
X101588146Y-27601333D01*
X101540733Y-27577626D01*
X101517026Y-27553920D01*
X101279960Y-27601333D02*
X101279960Y-27103493D01*
X101279960Y-27340560D02*
X100995480Y-27340560D01*
X100995480Y-27601333D02*
X100995480Y-27103493D01*
D12*
X104338380Y-7707333D02*
X103862190Y-7374000D01*
X104338380Y-7135904D02*
X103338380Y-7135904D01*
X103338380Y-7516857D01*
X103386000Y-7612095D01*
X103433619Y-7659714D01*
X103528857Y-7707333D01*
X103671714Y-7707333D01*
X103766952Y-7659714D01*
X103814571Y-7612095D01*
X103862190Y-7516857D01*
X103862190Y-7135904D01*
X104338380Y-8659714D02*
X104338380Y-8088285D01*
X104338380Y-8374000D02*
X103338380Y-8374000D01*
X103481238Y-8278761D01*
X103576476Y-8183523D01*
X103624095Y-8088285D01*
X104338380Y-17867333D02*
X103862190Y-17534000D01*
X104338380Y-17295904D02*
X103338380Y-17295904D01*
X103338380Y-17676857D01*
X103386000Y-17772095D01*
X103433619Y-17819714D01*
X103528857Y-17867333D01*
X103671714Y-17867333D01*
X103766952Y-17819714D01*
X103814571Y-17772095D01*
X103862190Y-17676857D01*
X103862190Y-17295904D01*
X103433619Y-18248285D02*
X103386000Y-18295904D01*
X103338380Y-18391142D01*
X103338380Y-18629238D01*
X103386000Y-18724476D01*
X103433619Y-18772095D01*
X103528857Y-18819714D01*
X103624095Y-18819714D01*
X103766952Y-18772095D01*
X104338380Y-18200666D01*
X104338380Y-18819714D01*
X104412380Y43346666D02*
X103936190Y43680000D01*
X104412380Y43918095D02*
X103412380Y43918095D01*
X103412380Y43537142D01*
X103460000Y43441904D01*
X103507619Y43394285D01*
X103602857Y43346666D01*
X103745714Y43346666D01*
X103840952Y43394285D01*
X103888571Y43441904D01*
X103936190Y43537142D01*
X103936190Y43918095D01*
X103412380Y42441904D02*
X103412380Y42918095D01*
X103888571Y42965714D01*
X103840952Y42918095D01*
X103793333Y42822857D01*
X103793333Y42584761D01*
X103840952Y42489523D01*
X103888571Y42441904D01*
X103983809Y42394285D01*
X104221904Y42394285D01*
X104317142Y42441904D01*
X104364761Y42489523D01*
X104412380Y42584761D01*
X104412380Y42822857D01*
X104364761Y42918095D01*
X104317142Y42965714D01*
X104211380Y53125666D02*
X103735190Y53459000D01*
X104211380Y53697095D02*
X103211380Y53697095D01*
X103211380Y53316142D01*
X103259000Y53220904D01*
X103306619Y53173285D01*
X103401857Y53125666D01*
X103544714Y53125666D01*
X103639952Y53173285D01*
X103687571Y53220904D01*
X103735190Y53316142D01*
X103735190Y53697095D01*
X103211380Y52268523D02*
X103211380Y52459000D01*
X103259000Y52554238D01*
X103306619Y52601857D01*
X103449476Y52697095D01*
X103639952Y52744714D01*
X104020904Y52744714D01*
X104116142Y52697095D01*
X104163761Y52649476D01*
X104211380Y52554238D01*
X104211380Y52363761D01*
X104163761Y52268523D01*
X104116142Y52220904D01*
X104020904Y52173285D01*
X103782809Y52173285D01*
X103687571Y52220904D01*
X103639952Y52268523D01*
X103592333Y52363761D01*
X103592333Y52554238D01*
X103639952Y52649476D01*
X103687571Y52697095D01*
X103782809Y52744714D01*
X104412380Y63666666D02*
X103936190Y64000000D01*
X104412380Y64238095D02*
X103412380Y64238095D01*
X103412380Y63857142D01*
X103460000Y63761904D01*
X103507619Y63714285D01*
X103602857Y63666666D01*
X103745714Y63666666D01*
X103840952Y63714285D01*
X103888571Y63761904D01*
X103936190Y63857142D01*
X103936190Y64238095D01*
X103412380Y63333333D02*
X103412380Y62666666D01*
X104412380Y63095238D01*
X61761666Y71482619D02*
X62095000Y71958809D01*
X62333095Y71482619D02*
X62333095Y72482619D01*
X61952142Y72482619D01*
X61856904Y72435000D01*
X61809285Y72387380D01*
X61761666Y72292142D01*
X61761666Y72149285D01*
X61809285Y72054047D01*
X61856904Y72006428D01*
X61952142Y71958809D01*
X62333095Y71958809D01*
X61190238Y72054047D02*
X61285476Y72101666D01*
X61333095Y72149285D01*
X61380714Y72244523D01*
X61380714Y72292142D01*
X61333095Y72387380D01*
X61285476Y72435000D01*
X61190238Y72482619D01*
X60999761Y72482619D01*
X60904523Y72435000D01*
X60856904Y72387380D01*
X60809285Y72292142D01*
X60809285Y72244523D01*
X60856904Y72149285D01*
X60904523Y72101666D01*
X60999761Y72054047D01*
X61190238Y72054047D01*
X61285476Y72006428D01*
X61333095Y71958809D01*
X61380714Y71863571D01*
X61380714Y71673095D01*
X61333095Y71577857D01*
X61285476Y71530238D01*
X61190238Y71482619D01*
X60999761Y71482619D01*
X60904523Y71530238D01*
X60856904Y71577857D01*
X60809285Y71673095D01*
X60809285Y71863571D01*
X60856904Y71958809D01*
X60904523Y72006428D01*
X60999761Y72054047D01*
X-8882142Y56697619D02*
X-8548809Y57173809D01*
X-8310714Y56697619D02*
X-8310714Y57697619D01*
X-8691666Y57697619D01*
X-8786904Y57650000D01*
X-8834523Y57602380D01*
X-8882142Y57507142D01*
X-8882142Y57364285D01*
X-8834523Y57269047D01*
X-8786904Y57221428D01*
X-8691666Y57173809D01*
X-8310714Y57173809D01*
X-9263095Y57602380D02*
X-9310714Y57650000D01*
X-9405952Y57697619D01*
X-9644047Y57697619D01*
X-9739285Y57650000D01*
X-9786904Y57602380D01*
X-9834523Y57507142D01*
X-9834523Y57411904D01*
X-9786904Y57269047D01*
X-9215476Y56697619D01*
X-9834523Y56697619D01*
X-10691666Y57364285D02*
X-10691666Y56697619D01*
X-10453571Y57745238D02*
X-10215476Y57030952D01*
X-10834523Y57030952D01*
X-8882142Y54157619D02*
X-8548809Y54633809D01*
X-8310714Y54157619D02*
X-8310714Y55157619D01*
X-8691666Y55157619D01*
X-8786904Y55110000D01*
X-8834523Y55062380D01*
X-8882142Y54967142D01*
X-8882142Y54824285D01*
X-8834523Y54729047D01*
X-8786904Y54681428D01*
X-8691666Y54633809D01*
X-8310714Y54633809D01*
X-9263095Y55062380D02*
X-9310714Y55110000D01*
X-9405952Y55157619D01*
X-9644047Y55157619D01*
X-9739285Y55110000D01*
X-9786904Y55062380D01*
X-9834523Y54967142D01*
X-9834523Y54871904D01*
X-9786904Y54729047D01*
X-9215476Y54157619D01*
X-9834523Y54157619D01*
X-10739285Y55157619D02*
X-10263095Y55157619D01*
X-10215476Y54681428D01*
X-10263095Y54729047D01*
X-10358333Y54776666D01*
X-10596428Y54776666D01*
X-10691666Y54729047D01*
X-10739285Y54681428D01*
X-10786904Y54586190D01*
X-10786904Y54348095D01*
X-10739285Y54252857D01*
X-10691666Y54205238D01*
X-10596428Y54157619D01*
X-10358333Y54157619D01*
X-10263095Y54205238D01*
X-10215476Y54252857D01*
X-8882142Y49077619D02*
X-8548809Y49553809D01*
X-8310714Y49077619D02*
X-8310714Y50077619D01*
X-8691666Y50077619D01*
X-8786904Y50030000D01*
X-8834523Y49982380D01*
X-8882142Y49887142D01*
X-8882142Y49744285D01*
X-8834523Y49649047D01*
X-8786904Y49601428D01*
X-8691666Y49553809D01*
X-8310714Y49553809D01*
X-9263095Y49982380D02*
X-9310714Y50030000D01*
X-9405952Y50077619D01*
X-9644047Y50077619D01*
X-9739285Y50030000D01*
X-9786904Y49982380D01*
X-9834523Y49887142D01*
X-9834523Y49791904D01*
X-9786904Y49649047D01*
X-9215476Y49077619D01*
X-9834523Y49077619D01*
X-10691666Y50077619D02*
X-10501190Y50077619D01*
X-10405952Y50030000D01*
X-10358333Y49982380D01*
X-10263095Y49839523D01*
X-10215476Y49649047D01*
X-10215476Y49268095D01*
X-10263095Y49172857D01*
X-10310714Y49125238D01*
X-10405952Y49077619D01*
X-10596428Y49077619D01*
X-10691666Y49125238D01*
X-10739285Y49172857D01*
X-10786904Y49268095D01*
X-10786904Y49506190D01*
X-10739285Y49601428D01*
X-10691666Y49649047D01*
X-10596428Y49696666D01*
X-10405952Y49696666D01*
X-10310714Y49649047D01*
X-10263095Y49601428D01*
X-10215476Y49506190D01*
X-8882142Y51617619D02*
X-8548809Y52093809D01*
X-8310714Y51617619D02*
X-8310714Y52617619D01*
X-8691666Y52617619D01*
X-8786904Y52570000D01*
X-8834523Y52522380D01*
X-8882142Y52427142D01*
X-8882142Y52284285D01*
X-8834523Y52189047D01*
X-8786904Y52141428D01*
X-8691666Y52093809D01*
X-8310714Y52093809D01*
X-9263095Y52522380D02*
X-9310714Y52570000D01*
X-9405952Y52617619D01*
X-9644047Y52617619D01*
X-9739285Y52570000D01*
X-9786904Y52522380D01*
X-9834523Y52427142D01*
X-9834523Y52331904D01*
X-9786904Y52189047D01*
X-9215476Y51617619D01*
X-9834523Y51617619D01*
X-10167857Y52617619D02*
X-10834523Y52617619D01*
X-10405952Y51617619D01*
X-8882142Y61777619D02*
X-8548809Y62253809D01*
X-8310714Y61777619D02*
X-8310714Y62777619D01*
X-8691666Y62777619D01*
X-8786904Y62730000D01*
X-8834523Y62682380D01*
X-8882142Y62587142D01*
X-8882142Y62444285D01*
X-8834523Y62349047D01*
X-8786904Y62301428D01*
X-8691666Y62253809D01*
X-8310714Y62253809D01*
X-9263095Y62682380D02*
X-9310714Y62730000D01*
X-9405952Y62777619D01*
X-9644047Y62777619D01*
X-9739285Y62730000D01*
X-9786904Y62682380D01*
X-9834523Y62587142D01*
X-9834523Y62491904D01*
X-9786904Y62349047D01*
X-9215476Y61777619D01*
X-9834523Y61777619D01*
X-10405952Y62349047D02*
X-10310714Y62396666D01*
X-10263095Y62444285D01*
X-10215476Y62539523D01*
X-10215476Y62587142D01*
X-10263095Y62682380D01*
X-10310714Y62730000D01*
X-10405952Y62777619D01*
X-10596428Y62777619D01*
X-10691666Y62730000D01*
X-10739285Y62682380D01*
X-10786904Y62587142D01*
X-10786904Y62539523D01*
X-10739285Y62444285D01*
X-10691666Y62396666D01*
X-10596428Y62349047D01*
X-10405952Y62349047D01*
X-10310714Y62301428D01*
X-10263095Y62253809D01*
X-10215476Y62158571D01*
X-10215476Y61968095D01*
X-10263095Y61872857D01*
X-10310714Y61825238D01*
X-10405952Y61777619D01*
X-10596428Y61777619D01*
X-10691666Y61825238D01*
X-10739285Y61872857D01*
X-10786904Y61968095D01*
X-10786904Y62158571D01*
X-10739285Y62253809D01*
X-10691666Y62301428D01*
X-10596428Y62349047D01*
X-32377142Y28757619D02*
X-32043809Y29233809D01*
X-31805714Y28757619D02*
X-31805714Y29757619D01*
X-32186666Y29757619D01*
X-32281904Y29710000D01*
X-32329523Y29662380D01*
X-32377142Y29567142D01*
X-32377142Y29424285D01*
X-32329523Y29329047D01*
X-32281904Y29281428D01*
X-32186666Y29233809D01*
X-31805714Y29233809D01*
X-32710476Y29757619D02*
X-33329523Y29757619D01*
X-32996190Y29376666D01*
X-33139047Y29376666D01*
X-33234285Y29329047D01*
X-33281904Y29281428D01*
X-33329523Y29186190D01*
X-33329523Y28948095D01*
X-33281904Y28852857D01*
X-33234285Y28805238D01*
X-33139047Y28757619D01*
X-32853333Y28757619D01*
X-32758095Y28805238D01*
X-32710476Y28852857D01*
X-33948571Y29757619D02*
X-34043809Y29757619D01*
X-34139047Y29710000D01*
X-34186666Y29662380D01*
X-34234285Y29567142D01*
X-34281904Y29376666D01*
X-34281904Y29138571D01*
X-34234285Y28948095D01*
X-34186666Y28852857D01*
X-34139047Y28805238D01*
X-34043809Y28757619D01*
X-33948571Y28757619D01*
X-33853333Y28805238D01*
X-33805714Y28852857D01*
X-33758095Y28948095D01*
X-33710476Y29138571D01*
X-33710476Y29376666D01*
X-33758095Y29567142D01*
X-33805714Y29662380D01*
X-33853333Y29710000D01*
X-33948571Y29757619D01*
X-8882142Y59237619D02*
X-8548809Y59713809D01*
X-8310714Y59237619D02*
X-8310714Y60237619D01*
X-8691666Y60237619D01*
X-8786904Y60190000D01*
X-8834523Y60142380D01*
X-8882142Y60047142D01*
X-8882142Y59904285D01*
X-8834523Y59809047D01*
X-8786904Y59761428D01*
X-8691666Y59713809D01*
X-8310714Y59713809D01*
X-9215476Y60237619D02*
X-9834523Y60237619D01*
X-9501190Y59856666D01*
X-9644047Y59856666D01*
X-9739285Y59809047D01*
X-9786904Y59761428D01*
X-9834523Y59666190D01*
X-9834523Y59428095D01*
X-9786904Y59332857D01*
X-9739285Y59285238D01*
X-9644047Y59237619D01*
X-9358333Y59237619D01*
X-9263095Y59285238D01*
X-9215476Y59332857D01*
X-10786904Y59237619D02*
X-10215476Y59237619D01*
X-10501190Y59237619D02*
X-10501190Y60237619D01*
X-10405952Y60094761D01*
X-10310714Y59999523D01*
X-10215476Y59951904D01*
X84462857Y63227619D02*
X84796190Y63703809D01*
X85034285Y63227619D02*
X85034285Y64227619D01*
X84653333Y64227619D01*
X84558095Y64180000D01*
X84510476Y64132380D01*
X84462857Y64037142D01*
X84462857Y63894285D01*
X84510476Y63799047D01*
X84558095Y63751428D01*
X84653333Y63703809D01*
X85034285Y63703809D01*
X83558095Y64227619D02*
X84034285Y64227619D01*
X84081904Y63751428D01*
X84034285Y63799047D01*
X83939047Y63846666D01*
X83700952Y63846666D01*
X83605714Y63799047D01*
X83558095Y63751428D01*
X83510476Y63656190D01*
X83510476Y63418095D01*
X83558095Y63322857D01*
X83605714Y63275238D01*
X83700952Y63227619D01*
X83939047Y63227619D01*
X84034285Y63275238D01*
X84081904Y63322857D01*
X82558095Y63227619D02*
X83129523Y63227619D01*
X82843809Y63227619D02*
X82843809Y64227619D01*
X82939047Y64084761D01*
X83034285Y63989523D01*
X83129523Y63941904D01*
X84462857Y-272380D02*
X84796190Y203809D01*
X85034285Y-272380D02*
X85034285Y727619D01*
X84653333Y727619D01*
X84558095Y680000D01*
X84510476Y632380D01*
X84462857Y537142D01*
X84462857Y394285D01*
X84510476Y299047D01*
X84558095Y251428D01*
X84653333Y203809D01*
X85034285Y203809D01*
X83558095Y727619D02*
X84034285Y727619D01*
X84081904Y251428D01*
X84034285Y299047D01*
X83939047Y346666D01*
X83700952Y346666D01*
X83605714Y299047D01*
X83558095Y251428D01*
X83510476Y156190D01*
X83510476Y-81904D01*
X83558095Y-177142D01*
X83605714Y-224761D01*
X83700952Y-272380D01*
X83939047Y-272380D01*
X84034285Y-224761D01*
X84081904Y-177142D01*
X83129523Y632380D02*
X83081904Y680000D01*
X82986666Y727619D01*
X82748571Y727619D01*
X82653333Y680000D01*
X82605714Y632380D01*
X82558095Y537142D01*
X82558095Y441904D01*
X82605714Y299047D01*
X83177142Y-272380D01*
X82558095Y-272380D01*
X84462857Y31679994D02*
X84796190Y32156184D01*
X85034285Y31679994D02*
X85034285Y32679994D01*
X84653333Y32679994D01*
X84558095Y32632375D01*
X84510476Y32584755D01*
X84462857Y32489517D01*
X84462857Y32346660D01*
X84510476Y32251422D01*
X84558095Y32203803D01*
X84653333Y32156184D01*
X85034285Y32156184D01*
X83558095Y32679994D02*
X84034285Y32679994D01*
X84081904Y32203803D01*
X84034285Y32251422D01*
X83939047Y32299041D01*
X83700952Y32299041D01*
X83605714Y32251422D01*
X83558095Y32203803D01*
X83510476Y32108565D01*
X83510476Y31870470D01*
X83558095Y31775232D01*
X83605714Y31727613D01*
X83700952Y31679994D01*
X83939047Y31679994D01*
X84034285Y31727613D01*
X84081904Y31775232D01*
X83177142Y32679994D02*
X82558095Y32679994D01*
X82891428Y32299041D01*
X82748571Y32299041D01*
X82653333Y32251422D01*
X82605714Y32203803D01*
X82558095Y32108565D01*
X82558095Y31870470D01*
X82605714Y31775232D01*
X82653333Y31727613D01*
X82748571Y31679994D01*
X83034285Y31679994D01*
X83129523Y31727613D01*
X83177142Y31775232D01*
X66947380Y41282857D02*
X66471190Y41616190D01*
X66947380Y41854285D02*
X65947380Y41854285D01*
X65947380Y41473333D01*
X65995000Y41378095D01*
X66042619Y41330476D01*
X66137857Y41282857D01*
X66280714Y41282857D01*
X66375952Y41330476D01*
X66423571Y41378095D01*
X66471190Y41473333D01*
X66471190Y41854285D01*
X65947380Y40425714D02*
X65947380Y40616190D01*
X65995000Y40711428D01*
X66042619Y40759047D01*
X66185476Y40854285D01*
X66375952Y40901904D01*
X66756904Y40901904D01*
X66852142Y40854285D01*
X66899761Y40806666D01*
X66947380Y40711428D01*
X66947380Y40520952D01*
X66899761Y40425714D01*
X66852142Y40378095D01*
X66756904Y40330476D01*
X66518809Y40330476D01*
X66423571Y40378095D01*
X66375952Y40425714D01*
X66328333Y40520952D01*
X66328333Y40711428D01*
X66375952Y40806666D01*
X66423571Y40854285D01*
X66518809Y40901904D01*
X65947380Y39711428D02*
X65947380Y39616190D01*
X65995000Y39520952D01*
X66042619Y39473333D01*
X66137857Y39425714D01*
X66328333Y39378095D01*
X66566428Y39378095D01*
X66756904Y39425714D01*
X66852142Y39473333D01*
X66899761Y39520952D01*
X66947380Y39616190D01*
X66947380Y39711428D01*
X66899761Y39806666D01*
X66852142Y39854285D01*
X66756904Y39901904D01*
X66566428Y39949523D01*
X66328333Y39949523D01*
X66137857Y39901904D01*
X66042619Y39854285D01*
X65995000Y39806666D01*
X65947380Y39711428D01*
X66947380Y-21582142D02*
X66471190Y-21248809D01*
X66947380Y-21010714D02*
X65947380Y-21010714D01*
X65947380Y-21391666D01*
X65995000Y-21486904D01*
X66042619Y-21534523D01*
X66137857Y-21582142D01*
X66280714Y-21582142D01*
X66375952Y-21534523D01*
X66423571Y-21486904D01*
X66471190Y-21391666D01*
X66471190Y-21010714D01*
X65947380Y-22439285D02*
X65947380Y-22248809D01*
X65995000Y-22153571D01*
X66042619Y-22105952D01*
X66185476Y-22010714D01*
X66375952Y-21963095D01*
X66756904Y-21963095D01*
X66852142Y-22010714D01*
X66899761Y-22058333D01*
X66947380Y-22153571D01*
X66947380Y-22344047D01*
X66899761Y-22439285D01*
X66852142Y-22486904D01*
X66756904Y-22534523D01*
X66518809Y-22534523D01*
X66423571Y-22486904D01*
X66375952Y-22439285D01*
X66328333Y-22344047D01*
X66328333Y-22153571D01*
X66375952Y-22058333D01*
X66423571Y-22010714D01*
X66518809Y-21963095D01*
X66947380Y-23486904D02*
X66947380Y-22915476D01*
X66947380Y-23201190D02*
X65947380Y-23201190D01*
X66090238Y-23105952D01*
X66185476Y-23010714D01*
X66233095Y-22915476D01*
X66947380Y10167857D02*
X66471190Y10501190D01*
X66947380Y10739285D02*
X65947380Y10739285D01*
X65947380Y10358333D01*
X65995000Y10263095D01*
X66042619Y10215476D01*
X66137857Y10167857D01*
X66280714Y10167857D01*
X66375952Y10215476D01*
X66423571Y10263095D01*
X66471190Y10358333D01*
X66471190Y10739285D01*
X65947380Y9310714D02*
X65947380Y9501190D01*
X65995000Y9596428D01*
X66042619Y9644047D01*
X66185476Y9739285D01*
X66375952Y9786904D01*
X66756904Y9786904D01*
X66852142Y9739285D01*
X66899761Y9691666D01*
X66947380Y9596428D01*
X66947380Y9405952D01*
X66899761Y9310714D01*
X66852142Y9263095D01*
X66756904Y9215476D01*
X66518809Y9215476D01*
X66423571Y9263095D01*
X66375952Y9310714D01*
X66328333Y9405952D01*
X66328333Y9596428D01*
X66375952Y9691666D01*
X66423571Y9739285D01*
X66518809Y9786904D01*
X66042619Y8834523D02*
X65995000Y8786904D01*
X65947380Y8691666D01*
X65947380Y8453571D01*
X65995000Y8358333D01*
X66042619Y8310714D01*
X66137857Y8263095D01*
X66233095Y8263095D01*
X66375952Y8310714D01*
X66947380Y8882142D01*
X66947380Y8263095D01*
X69847380Y46997857D02*
X69371190Y47331190D01*
X69847380Y47569285D02*
X68847380Y47569285D01*
X68847380Y47188333D01*
X68895000Y47093095D01*
X68942619Y47045476D01*
X69037857Y46997857D01*
X69180714Y46997857D01*
X69275952Y47045476D01*
X69323571Y47093095D01*
X69371190Y47188333D01*
X69371190Y47569285D01*
X68847380Y46140714D02*
X68847380Y46331190D01*
X68895000Y46426428D01*
X68942619Y46474047D01*
X69085476Y46569285D01*
X69275952Y46616904D01*
X69656904Y46616904D01*
X69752142Y46569285D01*
X69799761Y46521666D01*
X69847380Y46426428D01*
X69847380Y46235952D01*
X69799761Y46140714D01*
X69752142Y46093095D01*
X69656904Y46045476D01*
X69418809Y46045476D01*
X69323571Y46093095D01*
X69275952Y46140714D01*
X69228333Y46235952D01*
X69228333Y46426428D01*
X69275952Y46521666D01*
X69323571Y46569285D01*
X69418809Y46616904D01*
X68847380Y45712142D02*
X68847380Y45093095D01*
X69228333Y45426428D01*
X69228333Y45283571D01*
X69275952Y45188333D01*
X69323571Y45140714D01*
X69418809Y45093095D01*
X69656904Y45093095D01*
X69752142Y45140714D01*
X69799761Y45188333D01*
X69847380Y45283571D01*
X69847380Y45569285D01*
X69799761Y45664523D01*
X69752142Y45712142D01*
X69847380Y-15867142D02*
X69371190Y-15533809D01*
X69847380Y-15295714D02*
X68847380Y-15295714D01*
X68847380Y-15676666D01*
X68895000Y-15771904D01*
X68942619Y-15819523D01*
X69037857Y-15867142D01*
X69180714Y-15867142D01*
X69275952Y-15819523D01*
X69323571Y-15771904D01*
X69371190Y-15676666D01*
X69371190Y-15295714D01*
X68847380Y-16724285D02*
X68847380Y-16533809D01*
X68895000Y-16438571D01*
X68942619Y-16390952D01*
X69085476Y-16295714D01*
X69275952Y-16248095D01*
X69656904Y-16248095D01*
X69752142Y-16295714D01*
X69799761Y-16343333D01*
X69847380Y-16438571D01*
X69847380Y-16629047D01*
X69799761Y-16724285D01*
X69752142Y-16771904D01*
X69656904Y-16819523D01*
X69418809Y-16819523D01*
X69323571Y-16771904D01*
X69275952Y-16724285D01*
X69228333Y-16629047D01*
X69228333Y-16438571D01*
X69275952Y-16343333D01*
X69323571Y-16295714D01*
X69418809Y-16248095D01*
X69180714Y-17676666D02*
X69847380Y-17676666D01*
X68799761Y-17438571D02*
X69514047Y-17200476D01*
X69514047Y-17819523D01*
X69847380Y15882857D02*
X69371190Y16216190D01*
X69847380Y16454285D02*
X68847380Y16454285D01*
X68847380Y16073333D01*
X68895000Y15978095D01*
X68942619Y15930476D01*
X69037857Y15882857D01*
X69180714Y15882857D01*
X69275952Y15930476D01*
X69323571Y15978095D01*
X69371190Y16073333D01*
X69371190Y16454285D01*
X68847380Y15025714D02*
X68847380Y15216190D01*
X68895000Y15311428D01*
X68942619Y15359047D01*
X69085476Y15454285D01*
X69275952Y15501904D01*
X69656904Y15501904D01*
X69752142Y15454285D01*
X69799761Y15406666D01*
X69847380Y15311428D01*
X69847380Y15120952D01*
X69799761Y15025714D01*
X69752142Y14978095D01*
X69656904Y14930476D01*
X69418809Y14930476D01*
X69323571Y14978095D01*
X69275952Y15025714D01*
X69228333Y15120952D01*
X69228333Y15311428D01*
X69275952Y15406666D01*
X69323571Y15454285D01*
X69418809Y15501904D01*
X68847380Y14025714D02*
X68847380Y14501904D01*
X69323571Y14549523D01*
X69275952Y14501904D01*
X69228333Y14406666D01*
X69228333Y14168571D01*
X69275952Y14073333D01*
X69323571Y14025714D01*
X69418809Y13978095D01*
X69656904Y13978095D01*
X69752142Y14025714D01*
X69799761Y14073333D01*
X69847380Y14168571D01*
X69847380Y14406666D01*
X69799761Y14501904D01*
X69752142Y14549523D01*
X58597857Y59692619D02*
X58931190Y60168809D01*
X59169285Y59692619D02*
X59169285Y60692619D01*
X58788333Y60692619D01*
X58693095Y60645000D01*
X58645476Y60597380D01*
X58597857Y60502142D01*
X58597857Y60359285D01*
X58645476Y60264047D01*
X58693095Y60216428D01*
X58788333Y60168809D01*
X59169285Y60168809D01*
X57740714Y60692619D02*
X57931190Y60692619D01*
X58026428Y60645000D01*
X58074047Y60597380D01*
X58169285Y60454523D01*
X58216904Y60264047D01*
X58216904Y59883095D01*
X58169285Y59787857D01*
X58121666Y59740238D01*
X58026428Y59692619D01*
X57835952Y59692619D01*
X57740714Y59740238D01*
X57693095Y59787857D01*
X57645476Y59883095D01*
X57645476Y60121190D01*
X57693095Y60216428D01*
X57740714Y60264047D01*
X57835952Y60311666D01*
X58026428Y60311666D01*
X58121666Y60264047D01*
X58169285Y60216428D01*
X58216904Y60121190D01*
X56788333Y60692619D02*
X56978809Y60692619D01*
X57074047Y60645000D01*
X57121666Y60597380D01*
X57216904Y60454523D01*
X57264523Y60264047D01*
X57264523Y59883095D01*
X57216904Y59787857D01*
X57169285Y59740238D01*
X57074047Y59692619D01*
X56883571Y59692619D01*
X56788333Y59740238D01*
X56740714Y59787857D01*
X56693095Y59883095D01*
X56693095Y60121190D01*
X56740714Y60216428D01*
X56788333Y60264047D01*
X56883571Y60311666D01*
X57074047Y60311666D01*
X57169285Y60264047D01*
X57216904Y60216428D01*
X57264523Y60121190D01*
X7997142Y-13835142D02*
X8044761Y-13787523D01*
X8092380Y-13644666D01*
X8092380Y-13549428D01*
X8044761Y-13406571D01*
X7949523Y-13311333D01*
X7854285Y-13263714D01*
X7663809Y-13216095D01*
X7520952Y-13216095D01*
X7330476Y-13263714D01*
X7235238Y-13311333D01*
X7140000Y-13406571D01*
X7092380Y-13549428D01*
X7092380Y-13644666D01*
X7140000Y-13787523D01*
X7187619Y-13835142D01*
X8092380Y-14787523D02*
X8092380Y-14216095D01*
X8092380Y-14501809D02*
X7092380Y-14501809D01*
X7235238Y-14406571D01*
X7330476Y-14311333D01*
X7378095Y-14216095D01*
X7092380Y-15406571D02*
X7092380Y-15501809D01*
X7140000Y-15597047D01*
X7187619Y-15644666D01*
X7282857Y-15692285D01*
X7473333Y-15739904D01*
X7711428Y-15739904D01*
X7901904Y-15692285D01*
X7997142Y-15644666D01*
X8044761Y-15597047D01*
X8092380Y-15501809D01*
X8092380Y-15406571D01*
X8044761Y-15311333D01*
X7997142Y-15263714D01*
X7901904Y-15216095D01*
X7711428Y-15168476D01*
X7473333Y-15168476D01*
X7282857Y-15216095D01*
X7187619Y-15263714D01*
X7140000Y-15311333D01*
X7092380Y-15406571D01*
X19883380Y19613380D02*
X19407190Y19946714D01*
X19883380Y20184809D02*
X18883380Y20184809D01*
X18883380Y19803857D01*
X18931000Y19708619D01*
X18978619Y19661000D01*
X19073857Y19613380D01*
X19216714Y19613380D01*
X19311952Y19661000D01*
X19359571Y19708619D01*
X19407190Y19803857D01*
X19407190Y20184809D01*
X19835761Y18803857D02*
X19883380Y18899095D01*
X19883380Y19089571D01*
X19835761Y19184809D01*
X19740523Y19232428D01*
X19359571Y19232428D01*
X19264333Y19184809D01*
X19216714Y19089571D01*
X19216714Y18899095D01*
X19264333Y18803857D01*
X19359571Y18756238D01*
X19454809Y18756238D01*
X19550047Y19232428D01*
X19216714Y17899095D02*
X20026238Y17899095D01*
X20121476Y17946714D01*
X20169095Y17994333D01*
X20216714Y18089571D01*
X20216714Y18232428D01*
X20169095Y18327666D01*
X19835761Y17899095D02*
X19883380Y17994333D01*
X19883380Y18184809D01*
X19835761Y18280047D01*
X19788142Y18327666D01*
X19692904Y18375285D01*
X19407190Y18375285D01*
X19311952Y18327666D01*
X19264333Y18280047D01*
X19216714Y18184809D01*
X19216714Y17994333D01*
X19264333Y17899095D01*
X19835761Y17041952D02*
X19883380Y17137190D01*
X19883380Y17327666D01*
X19835761Y17422904D01*
X19740523Y17470523D01*
X19359571Y17470523D01*
X19264333Y17422904D01*
X19216714Y17327666D01*
X19216714Y17137190D01*
X19264333Y17041952D01*
X19359571Y16994333D01*
X19454809Y16994333D01*
X19550047Y17470523D01*
X19216714Y16565761D02*
X19883380Y16565761D01*
X19311952Y16565761D02*
X19264333Y16518142D01*
X19216714Y16422904D01*
X19216714Y16280047D01*
X19264333Y16184809D01*
X19359571Y16137190D01*
X19883380Y16137190D01*
X23042380Y21176904D02*
X23042380Y20605476D01*
X24042380Y20891190D02*
X23042380Y20891190D01*
X24042380Y20272142D02*
X23042380Y20272142D01*
X24042380Y19843571D02*
X23518571Y19843571D01*
X23423333Y19891190D01*
X23375714Y19986428D01*
X23375714Y20129285D01*
X23423333Y20224523D01*
X23470952Y20272142D01*
X24042380Y19367380D02*
X23375714Y19367380D01*
X23566190Y19367380D02*
X23470952Y19319761D01*
X23423333Y19272142D01*
X23375714Y19176904D01*
X23375714Y19081666D01*
X24042380Y18605476D02*
X23994761Y18700714D01*
X23947142Y18748333D01*
X23851904Y18795952D01*
X23566190Y18795952D01*
X23470952Y18748333D01*
X23423333Y18700714D01*
X23375714Y18605476D01*
X23375714Y18462619D01*
X23423333Y18367380D01*
X23470952Y18319761D01*
X23566190Y18272142D01*
X23851904Y18272142D01*
X23947142Y18319761D01*
X23994761Y18367380D01*
X24042380Y18462619D01*
X24042380Y18605476D01*
X23375714Y17986428D02*
X23375714Y17605476D01*
X23042380Y17843571D02*
X23899523Y17843571D01*
X23994761Y17795952D01*
X24042380Y17700714D01*
X24042380Y17605476D01*
X23375714Y17415000D02*
X23375714Y17034047D01*
X23042380Y17272142D02*
X23899523Y17272142D01*
X23994761Y17224523D01*
X24042380Y17129285D01*
X24042380Y17034047D01*
X24042380Y16557857D02*
X23994761Y16653095D01*
X23899523Y16700714D01*
X23042380Y16700714D01*
X23994761Y15795952D02*
X24042380Y15891190D01*
X24042380Y16081666D01*
X23994761Y16176904D01*
X23899523Y16224523D01*
X23518571Y16224523D01*
X23423333Y16176904D01*
X23375714Y16081666D01*
X23375714Y15891190D01*
X23423333Y15795952D01*
X23518571Y15748333D01*
X23613809Y15748333D01*
X23709047Y16224523D01*
M02*
