0
SECTION
2
HEADER
9
$ANGDIR
70
0
9
$CHAMFERA
40
10
9
$CHAMFERB
40
10
9
$CLAYER
8
Layer_1
9
$EXTMAX
10
5.273978541976887
20
5.7321864782385017
9
$EXTMIN
10
2.6931744650229268
20
3.3377158226142134
9
$LIMMAX
10
420
20
297
9
$LIMMIN
10
0
20
0
9
$LTSCALE
40
10
9
$PLINEGEN
70
0
9
$TEXTSIZE
40
20
9
$GRIDUNIT
10
10
20
10
9
$SNAPUNIT
10
1
20
1
0
ENDSEC
0
SECTION
2
TABLES
0
TABLE
2
STYLE
70
1
0
STYLE
2
STANDARD
70
0
40
0
41
1
50
0
71
0
42
0.20000000000000001
3
txt
4

0
ENDTAB
0
TABLE
2
LTYPE
70
14
0
LTYPE
2
CONTINUOUS
70
0
3
Solid line
72
65
73
0
40
0
0
LTYPE
2
DOT
70
0
3
............................................
72
65
73
2
40
0.25
49
0
49
-0.25
0
LTYPE
2
HIDDEN
70
0
3
_ _ _ _ _ _ _ _ _ _ _ _ _ _ _ _ _ _ _ _ _ _ 
72
65
73
2
40
0.375
49
0.25
49
-0.125
0
LTYPE
2
TSLONGDASH
70
0
3
__ __ __ __ __ __ __ __ __ __ __ __ __ __ _ 
72
65
73
2
40
1.28
49
1
49
-0.28000000000000003
0
LTYPE
2
TSDASHDOT
70
0
3
______ . ______ . ______ . ______ . ______ .
72
65
73
4
40
1.28
49
1
49
-0.14000000000000001
49
0
49
-0.14000000000000001
0
LTYPE
2
TSCENTER
70
0
3
______ _ ______ _ ______ _ ______ _ ______ _
72
65
73
4
40
2
49
1.5
49
-0.17999999999999999
49
0.14000000000000001
49
-0.17999999999999999
0
LTYPE
2
TSPHANTOM
70
0
3
_____ _ _ _____ _ _ _____ _ _ _____ _ _ ____
72
65
73
6
40
2.5
49
1.6299999999999999
49
-0.19
49
0.14999999999999999
49
-0.19
49
0.14999999999999999
49
-0.19
0
LTYPE
2
DASHED
70
0
3
__ __ __ __ __ __ __ __ __ __ __ __ __ __ __
72
65
73
2
40
0.75
49
0.5
49
-0.25
0
LTYPE
2
CENTER
70
0
3
____ _ ____ _ ____ _ ____ _ ____ _ ____ _ __
72
65
73
4
40
2
49
1.25
49
-0.25
49
0.25
49
-0.25
0
LTYPE
2
PHANTOM
70
0
3
_____ _ _ _____ _ _ _____ _ _ _____ _ _ ____
72
65
73
6
40
2.5
49
1.25
49
-0.25
49
0.25
49
-0.25
49
0.25
49
-0.25
0
LTYPE
2
DASHDOT
70
0
3
__ . __ . __ . __ . __ . __ . __ . __ . __ .
72
65
73
4
40
1
49
0.5
49
-0.25
49
0
49
-0.25
0
LTYPE
2
BORDER
70
0
3
__ __ . __ __ . __ __ . __ __ . __ __ . __ _
72
65
73
6
40
1.75
49
0.5
49
-0.25
49
0.5
49
-0.25
49
0
49
-0.25
0
LTYPE
2
DIVIDE
70
0
3
__ . . __ . . __ . . __ . . __ . . __ . . __
72
65
73
6
40
1.25
49
0.5
49
-0.25
49
0
49
-0.25
49
0
49
-0.25
0
ENDTAB
0
TABLE
2
LAYER
70
3
0
LAYER
2
Layer_1
70
0
62
7
6
CONTINUOUS
0
LAYER
2
Layer_2
70
0
62
7
6
CONTINUOUS
0
LAYER
2
Layer_3
70
0
62
7
6
CONTINUOUS
0
ENDTAB
0
ENDSEC
0
SECTION
2
ENTITIES
0
LINE
8
Layer_1
6
CONTINUOUS
62
7
10
2.7925345152454022
20
5.0835604861130106
11
3.2843063085413227
21
5.5753322793868518
0
LINE
8
Layer_1
6
CONTINUOUS
62
7
10
2.740334879698604
20
4.904081629957834
11
3.4370234742659096
21
5.6007702244938615
0
LINE
8
Layer_1
6
CONTINUOUS
62
7
10
2.7207446552573398
20
4.7572121849067281
11
3.609088282015203
21
5.6455558116247078
0
LINE
8
Layer_1
6
CONTINUOUS
62
7
10
2.7046015675837456
20
4.6137898766231382
11
3.7815903416726542
21
5.6907786506636935
0
LINE
8
Layer_1
6
CONTINUOUS
62
7
10
2.6951296008241266
20
4.4770386892532219
11
3.9326350457398829
21
5.7145441341134182
0
LINE
8
Layer_1
6
CONTINUOUS
62
7
10
2.6936347777554683
20
4.3482646455739093
11
4.0716425800543981
21
5.7262724478109721
0
LINE
8
Layer_1
6
CONTINUOUS
62
7
10
2.7057164091419872
20
4.2330670563491655
11
4.1965840509986574
21
5.7239346981388994
0
LINE
8
Layer_1
6
CONTINUOUS
62
7
10
2.7308840194812944
20
4.1309554460766202
11
4.3034393098585086
21
5.7035107363832322
0
LINE
8
Layer_1
6
CONTINUOUS
62
7
10
2.7579966265335756
20
4.0307888325169632
11
4.4001413741889923
21
5.6729335800986531
0
LINE
8
Layer_1
6
CONTINUOUS
62
7
10
2.7875187326652844
20
3.9330317180366259
11
4.4954282913329253
21
5.6409412766275873
0
LINE
8
Layer_1
6
CONTINUOUS
62
7
10
2.8204714356457115
20
3.838705200404851
11
4.589312755482748
21
5.6075465201624732
0
LINE
8
Layer_1
6
CONTINUOUS
62
7
10
2.8665709405173998
20
3.7575254846637489
11
4.6762718405203021
21
5.5672263845854015
0
LINE
8
Layer_1
6
CONTINUOUS
62
7
10
2.9325492826120545
20
3.6962246061447193
11
4.7602036726081334
21
5.5238789960587429
0
LINE
8
Layer_1
6
CONTINUOUS
62
7
10
3.0043004398397626
20
3.6406965427584845
11
4.841093663269799
21
5.4774897661060553
0
LINE
8
Layer_1
6
CONTINUOUS
62
7
10
3.0773252261249433
20
3.5864421084296656
11
4.913236407913617
21
5.4223532901359128
0
LINE
8
Layer_1
6
CONTINUOUS
62
7
10
3.1542079596014467
20
3.5360456212919966
11
4.9749694153799968
21
5.356807076988801
0
LINE
8
Layer_1
6
CONTINUOUS
62
7
10
3.2330560158655097
20
3.4876144569417984
11
5.0321081393927418
21
5.2866665803882569
0
LINE
8
Layer_1
6
CONTINUOUS
62
7
10
3.3163562184802213
20
3.4436354389420485
11
5.0799193776608025
21
5.2071985980434521
0
LINE
8
Layer_1
6
CONTINUOUS
62
7
10
3.4033143259846517
20
3.4033143258318534
11
5.1239831545590917
21
5.1239831543290402
0
LINE
8
Layer_1
6
CONTINUOUS
62
7
10
3.4999272416941083
20
3.3726480209262508
11
5.1572846852825514
21
5.0300054644402845
0
LINE
8
Layer_1
6
CONTINUOUS
62
7
10
3.6076888986120306
20
3.3531304572286142
11
5.1831211610382528
21
4.9285627195841046
0
LINE
8
Layer_1
6
CONTINUOUS
62
7
10
3.7225488130430118
20
3.3407111510437169
11
5.2085264155497173
21
4.8266887534837073
0
LINE
8
Layer_1
6
CONTINUOUS
62
7
10
3.8474342883339792
20
3.3383174057183558
11
5.2324156985535808
21
4.7232988158757765
0
LINE
8
Layer_1
6
CONTINUOUS
62
7
10
3.985221993423397
20
3.3488258901908656
11
5.2512679833120091
21
4.6148718800226378
0
LINE
8
Layer_1
6
CONTINUOUS
62
7
10
4.1246789690976264
20
3.3610036452481129
11
5.2676579538484027
21
4.503982629947572
0
LINE
8
Layer_1
6
CONTINUOUS
62
7
10
4.2641359447718568
20
3.3731814003053606
11
5.2718385052356931
21
4.3808839607239545
0
LINE
8
Layer_1
6
CONTINUOUS
62
7
10
4.4234482313866339
20
3.4052144663022643
11
5.2483145356504268
21
4.2300807705290238
0
LINE
8
Layer_1
6
CONTINUOUS
62
7
10
4.70285036833363
20
3.557337382625994
11
4.7185163929056362
21
3.5730034071972963
0
LINE
8
Layer_1
6
CONTINUOUS
62
7
10
4.92191654350923
20
3.7764035577917587
11
5.1898124884984371
21
4.044299502768939
0
POLYLINE
8
Layer_1
6
CONTINUOUS
62
7
66
1
10
0
20
0
70
129
40
0
41
0
0
VERTEX
8
Layer_1
6
CONTINUOUS
62
7
10
2.7239949783831237
20
4.1564067763801376
0
VERTEX
8
Layer_1
6
CONTINUOUS
62
7
10
2.6999700469303649
20
4.2628116157545302
0
VERTEX
8
Layer_1
6
CONTINUOUS
62
7
10
2.6940874680417086
20
4.4472138234162024
0
VERTEX
8
Layer_1
6
CONTINUOUS
62
7
10
2.7119795017689783
20
4.6885609302549796
0
VERTEX
8
Layer_1
6
CONTINUOUS
62
7
10
2.7437379444891352
20
4.9290160877887184
0
VERTEX
8
Layer_1
6
CONTINUOUS
62
7
10
2.7801472576542507
20
5.0607916263643418
0
VERTEX
8
Layer_1
6
CONTINUOUS
62
7
10
2.8582701795963312
20
5.1965658405859845
0
VERTEX
8
Layer_1
6
CONTINUOUS
62
7
10
2.9511540517792225
20
5.3013819124109398
0
VERTEX
8
Layer_1
6
CONTINUOUS
62
7
10
2.9892920387840438
20
5.3708930142007736
0
VERTEX
8
Layer_1
6
CONTINUOUS
62
7
10
2.9951809755533243
20
5.3780734755688906
0
VERTEX
8
Layer_1
6
CONTINUOUS
62
7
10
3.0800915546471481
20
5.4332775262753286
0
VERTEX
8
Layer_1
6
CONTINUOUS
62
7
10
3.1893662050173539
20
5.5423255746796061
0
VERTEX
8
Layer_1
6
CONTINUOUS
62
7
10
3.2158321947819939
20
5.5567192391425522
0
VERTEX
8
Layer_1
6
CONTINUOUS
62
7
10
3.2722080632812354
20
5.5734206229755143
0
VERTEX
8
Layer_1
6
CONTINUOUS
62
7
10
3.4657366694045582
20
5.6065125156879319
0
VERTEX
8
Layer_1
6
CONTINUOUS
62
7
10
3.6263246008328562
20
5.6504695017341309
0
VERTEX
8
Layer_1
6
CONTINUOUS
62
7
10
3.7828379795146088
20
5.6911025548250969
0
VERTEX
8
Layer_1
6
CONTINUOUS
62
7
10
3.9525307637399192
20
5.7176575932935512
0
VERTEX
8
Layer_1
6
CONTINUOUS
62
7
10
4.1534119128432048
20
5.7321864782385017
0
VERTEX
8
Layer_1
6
CONTINUOUS
62
7
10
4.3094368991914251
20
5.7023643769389816
0
VERTEX
8
Layer_1
6
CONTINUOUS
62
7
10
4.4610192395814199
20
5.6531805956016328
0
VERTEX
8
Layer_1
6
CONTINUOUS
62
7
10
4.611020700316085
20
5.5998249920307215
0
VERTEX
8
Layer_1
6
CONTINUOUS
62
7
10
4.8383700155035791
20
5.4795713661388072
0
VERTEX
8
Layer_1
6
CONTINUOUS
62
7
10
4.920795468774247
20
5.4165761329241002
0
VERTEX
8
Layer_1
6
CONTINUOUS
62
7
10
4.9797863237745865
20
5.3514926761502073
0
VERTEX
8
Layer_1
6
CONTINUOUS
62
7
10
5.0349841606863208
20
5.2831032248435701
0
VERTEX
8
Layer_1
6
CONTINUOUS
62
7
10
5.0857470814278987
20
5.19735443328078
0
VERTEX
8
Layer_1
6
CONTINUOUS
62
7
10
5.13154238259881
20
5.1094777361795636
0
VERTEX
8
Layer_1
6
CONTINUOUS
62
7
10
5.1596259934957835
20
5.0227773199796522
0
VERTEX
8
Layer_1
6
CONTINUOUS
62
7
10
5.2280543894641074
20
4.7483824270634685
0
VERTEX
8
Layer_1
6
CONTINUOUS
62
7
10
5.273978541976887
20
4.4604496913046718
0
VERTEX
8
Layer_1
6
CONTINUOUS
62
7
10
5.2702983806633776
20
4.3236227303802126
0
VERTEX
8
Layer_1
6
CONTINUOUS
62
7
10
5.2491747760732057
20
4.2328125818775586
0
VERTEX
8
Layer_1
6
CONTINUOUS
62
7
10
5.1723434914744137
20
3.9888243087951536
0
VERTEX
8
Layer_1
6
CONTINUOUS
62
7
10
5.1397154538529239
20
3.933452516811212
0
VERTEX
8
Layer_1
6
CONTINUOUS
62
7
10
5.0490589924252589
20
3.8653855676515541
0
VERTEX
8
Layer_1
6
CONTINUOUS
62
7
10
4.89630790633983
20
3.757067904557128
0
VERTEX
8
Layer_1
6
CONTINUOUS
62
7
10
4.8321532964632041
20
3.7010925195818372
0
VERTEX
8
Layer_1
6
CONTINUOUS
62
7
10
4.711094025931124
20
3.5643054559908443
0
VERTEX
8
Layer_1
6
CONTINUOUS
62
7
10
4.6145948171436428
20
3.4827380742153657
0
VERTEX
8
Layer_1
6
CONTINUOUS
62
7
10
4.5456720018198986
20
3.4450571418557869
0
VERTEX
8
Layer_1
6
CONTINUOUS
62
7
10
4.396420843649258
20
3.3964040406636
0
VERTEX
8
Layer_1
6
CONTINUOUS
62
7
10
4.2735516945139942
20
3.3740036086852982
0
VERTEX
8
Layer_1
6
CONTINUOUS
62
7
10
3.8716135430478125
20
3.3389052973024955
0
VERTEX
8
Layer_1
6
CONTINUOUS
62
7
10
3.6758147872510523
20
3.3426763072384609
0
VERTEX
8
Layer_1
6
CONTINUOUS
62
7
10
3.4769994059039249
20
3.3770635077639484
0
VERTEX
8
Layer_1
6
CONTINUOUS
62
7
10
3.4183691087783763
20
3.3970268298385897
0
VERTEX
8
Layer_1
6
CONTINUOUS
62
7
10
3.2419675209562384
20
3.4821407066921886
0
VERTEX
8
Layer_1
6
CONTINUOUS
62
7
10
3.0408606414883255
20
3.6124026827986766
0
VERTEX
8
Layer_1
6
CONTINUOUS
62
7
10
2.9063581251194344
20
3.716493885548724
0
VERTEX
8
Layer_1
6
CONTINUOUS
62
7
10
2.8546789569791708
20
3.7697894110034382
0
VERTEX
8
Layer_1
6
CONTINUOUS
62
7
10
2.841795071881176
20
3.7905244944911978
0
VERTEX
8
Layer_1
6
CONTINUOUS
62
7
10
2.8082409239133148
20
3.8663400128939176
0
VERTEX
8
Layer_1
6
CONTINUOUS
62
7
10
2.7637602152967773
20
4.0094954479579972
0
VERTEX
8
Layer_1
6
CONTINUOUS
62
7
10
2.7239949783831237
20
4.1564067763801376
0
SEQEND
0
ENDSEC
0
EOF
