0
SECTION
2
HEADER
9
$ANGDIR
70
0
9
$CHAMFERA
40
10
9
$CHAMFERB
40
10
9
$CLAYER
8
Layer_1
9
$EXTMAX
10
12.079012857076492
20
8.8532403521558933
9
$EXTMIN
10
1.4457991237387091
20
4.567848114710614
9
$LIMMAX
10
420
20
297
9
$LIMMIN
10
0
20
0
9
$LTSCALE
40
10
9
$PLINEGEN
70
0
9
$TEXTSIZE
40
20
9
$GRIDUNIT
10
10
20
10
9
$SNAPUNIT
10
1
20
1
0
ENDSEC
0
SECTION
2
TABLES
0
TABLE
2
STYLE
70
1
0
STYLE
2
STANDARD
70
0
40
0
41
1
50
0
71
0
42
0.20000000000000001
3
txt
4

0
ENDTAB
0
TABLE
2
LTYPE
70
14
0
LTYPE
2
CONTINUOUS
70
0
3
Solid line
72
65
73
0
40
0
0
LTYPE
2
DOT
70
0
3
............................................
72
65
73
2
40
0.25
49
0
49
-0.25
0
LTYPE
2
HIDDEN
70
0
3
_ _ _ _ _ _ _ _ _ _ _ _ _ _ _ _ _ _ _ _ _ _ 
72
65
73
2
40
0.375
49
0.25
49
-0.125
0
LTYPE
2
TSLONGDASH
70
0
3
__ __ __ __ __ __ __ __ __ __ __ __ __ __ _ 
72
65
73
2
40
1.28
49
1
49
-0.28000000000000003
0
LTYPE
2
TSDASHDOT
70
0
3
______ . ______ . ______ . ______ . ______ .
72
65
73
4
40
1.28
49
1
49
-0.14000000000000001
49
0
49
-0.14000000000000001
0
LTYPE
2
TSCENTER
70
0
3
______ _ ______ _ ______ _ ______ _ ______ _
72
65
73
4
40
2
49
1.5
49
-0.17999999999999999
49
0.14000000000000001
49
-0.17999999999999999
0
LTYPE
2
TSPHANTOM
70
0
3
_____ _ _ _____ _ _ _____ _ _ _____ _ _ ____
72
65
73
6
40
2.5
49
1.6299999999999999
49
-0.19
49
0.14999999999999999
49
-0.19
49
0.14999999999999999
49
-0.19
0
LTYPE
2
DASHED
70
0
3
__ __ __ __ __ __ __ __ __ __ __ __ __ __ __
72
65
73
2
40
0.75
49
0.5
49
-0.25
0
LTYPE
2
CENTER
70
0
3
____ _ ____ _ ____ _ ____ _ ____ _ ____ _ __
72
65
73
4
40
2
49
1.25
49
-0.25
49
0.25
49
-0.25
0
LTYPE
2
PHANTOM
70
0
3
_____ _ _ _____ _ _ _____ _ _ _____ _ _ ____
72
65
73
6
40
2.5
49
1.25
49
-0.25
49
0.25
49
-0.25
49
0.25
49
-0.25
0
LTYPE
2
DASHDOT
70
0
3
__ . __ . __ . __ . __ . __ . __ . __ . __ .
72
65
73
4
40
1
49
0.5
49
-0.25
49
0
49
-0.25
0
LTYPE
2
BORDER
70
0
3
__ __ . __ __ . __ __ . __ __ . __ __ . __ _
72
65
73
6
40
1.75
49
0.5
49
-0.25
49
0.5
49
-0.25
49
0
49
-0.25
0
LTYPE
2
DIVIDE
70
0
3
__ . . __ . . __ . . __ . . __ . . __ . . __
72
65
73
6
40
1.25
49
0.5
49
-0.25
49
0
49
-0.25
49
0
49
-0.25
0
ENDTAB
0
TABLE
2
LAYER
70
3
0
LAYER
2
Layer_1
70
0
62
7
6
CONTINUOUS
0
LAYER
2
Layer_2
70
0
62
7
6
CONTINUOUS
0
LAYER
2
Layer_3
70
0
62
7
6
CONTINUOUS
0
ENDTAB
0
ENDSEC
0
SECTION
2
ENTITIES
0
POLYLINE
8
Layer_1
6
CONTINUOUS
62
7
66
1
10
0
20
0
70
128
40
0
41
0
0
VERTEX
8
Layer_1
6
CONTINUOUS
62
7
10
7.5362376784235039
20
6.8501256513681881
0
VERTEX
8
Layer_1
6
CONTINUOUS
62
7
10
8.3454665237827861
20
7.4255137596759937
0
VERTEX
8
Layer_1
6
CONTINUOUS
62
7
10
8.7578545319274621
20
7.6999196324389407
0
VERTEX
8
Layer_1
6
CONTINUOUS
62
7
10
9.1873979591836985
20
7.9449999999999932
0
VERTEX
8
Layer_1
6
CONTINUOUS
62
7
10
9.4573117238927278
20
8.0711491061153993
0
VERTEX
8
Layer_1
6
CONTINUOUS
62
7
10
9.7343164324916458
20
8.1818280330114312
0
VERTEX
8
Layer_1
6
CONTINUOUS
62
7
10
10.298622448979614
20
8.3771428571428714
0
VERTEX
8
Layer_1
6
CONTINUOUS
62
7
10
10.917434240816974
20
8.5673094435800081
0
VERTEX
8
Layer_1
6
CONTINUOUS
62
7
10
11.545663265306132
20
8.7228571428571513
0
VERTEX
8
Layer_1
6
CONTINUOUS
62
7
10
12.079012857076492
20
8.808819047831804
0
SEQEND
0
POLYLINE
8
Layer_1
6
CONTINUOUS
62
7
66
1
10
0
20
0
70
128
40
0
41
0
0
VERTEX
8
Layer_1
6
CONTINUOUS
62
7
10
10.868140085545519
20
8.8532403521558933
0
VERTEX
8
Layer_1
6
CONTINUOUS
62
7
10
10.756364653048699
20
8.73220270219824
0
VERTEX
8
Layer_1
6
CONTINUOUS
62
7
10
10.651548785867732
20
8.6057074382384542
0
VERTEX
8
Layer_1
6
CONTINUOUS
62
7
10
10.567296978392648
20
8.4627312093418823
0
SEQEND
0
POLYLINE
8
Layer_1
6
CONTINUOUS
62
7
66
1
10
0
20
0
70
128
40
0
41
0
0
VERTEX
8
Layer_1
6
CONTINUOUS
62
7
10
9.6923587444376267
20
8.5515596133190002
0
VERTEX
8
Layer_1
6
CONTINUOUS
62
7
10
9.5989769218752414
20
8.4030001101655216
0
VERTEX
8
Layer_1
6
CONTINUOUS
62
7
10
9.5144444625594815
20
8.249878874482107
0
VERTEX
8
Layer_1
6
CONTINUOUS
62
7
10
9.4519106623249627
20
8.0687338808203037
0
SEQEND
0
POLYLINE
8
Layer_1
6
CONTINUOUS
62
7
66
1
10
0
20
0
70
128
40
0
41
0
0
VERTEX
8
Layer_1
6
CONTINUOUS
62
7
10
9.96309786903484
20
7.8553732929262026
0
VERTEX
8
Layer_1
6
CONTINUOUS
62
7
10
9.7691772925166447
20
7.8989520255865528
0
VERTEX
8
Layer_1
6
CONTINUOUS
62
7
10
9.6738682002451029
20
7.9247048015138839
0
VERTEX
8
Layer_1
6
CONTINUOUS
62
7
10
9.5840630945987471
20
7.9636689427650822
0
VERTEX
8
Layer_1
6
CONTINUOUS
62
7
10
9.4522451609329039
20
8.0698302825700239
0
SEQEND
0
POLYLINE
8
Layer_1
6
CONTINUOUS
62
7
66
1
10
0
20
0
70
128
40
0
41
0
0
VERTEX
8
Layer_1
6
CONTINUOUS
62
7
10
11.061525174543505
20
8.3117621029614668
0
VERTEX
8
Layer_1
6
CONTINUOUS
62
7
10
10.908727762585418
20
8.3230068163391842
0
VERTEX
8
Layer_1
6
CONTINUOUS
62
7
10
10.759844435706611
20
8.3504391207610809
0
VERTEX
8
Layer_1
6
CONTINUOUS
62
7
10
10.659437073944432
20
8.3993393908417175
0
VERTEX
8
Layer_1
6
CONTINUOUS
62
7
10
10.566577846000968
20
8.4632840728542647
0
SEQEND
0
POLYLINE
8
Layer_1
6
CONTINUOUS
62
7
66
1
10
0
20
0
70
128
40
0
41
0
0
VERTEX
8
Layer_1
6
CONTINUOUS
62
7
10
5.9425266861391606
20
4.567848114710614
0
VERTEX
8
Layer_1
6
CONTINUOUS
62
7
10
5.2456851487553635
20
4.7930205838293958
0
VERTEX
8
Layer_1
6
CONTINUOUS
62
7
10
4.8955832757539222
20
4.8985191074187897
0
VERTEX
8
Layer_1
6
CONTINUOUS
62
7
10
4.5398777217206714
20
4.9803919277748605
0
VERTEX
8
Layer_1
6
CONTINUOUS
62
7
10
4.1135280033844595
20
5.0319505018193489
0
VERTEX
8
Layer_1
6
CONTINUOUS
62
7
10
3.6838493096123273
20
5.052587095061142
0
VERTEX
8
Layer_1
6
CONTINUOUS
62
7
10
3.1010867537606828
20
5.053551924486964
0
VERTEX
8
Layer_1
6
CONTINUOUS
62
7
10
2.5184130377057841
20
5.0319599044079268
0
VERTEX
8
Layer_1
6
CONTINUOUS
62
7
10
1.4457991237387091
20
4.9597647371216453
0
SEQEND
0
POLYLINE
8
Layer_1
6
CONTINUOUS
62
7
66
1
10
0
20
0
70
128
40
0
41
0
0
VERTEX
8
Layer_1
6
CONTINUOUS
62
7
10
2.4977858470525973
20
5.3619949548593127
0
VERTEX
8
Layer_1
6
CONTINUOUS
62
7
10
2.6981041807285671
20
5.2932717544588357
0
VERTEX
8
Layer_1
6
CONTINUOUS
62
7
10
2.8897024694636286
20
5.2072910249602273
0
VERTEX
8
Layer_1
6
CONTINUOUS
62
7
10
2.9802187849077271
20
5.1337569167265755
0
VERTEX
8
Layer_1
6
CONTINUOUS
62
7
10
3.0650335900159291
20
5.052587095061142
0
SEQEND
0
POLYLINE
8
Layer_1
6
CONTINUOUS
62
7
66
1
10
0
20
0
70
128
40
0
41
0
0
VERTEX
8
Layer_1
6
CONTINUOUS
62
7
10
2.693744158258113
20
4.7741200212427088
0
VERTEX
8
Layer_1
6
CONTINUOUS
62
7
10
2.8221025822550203
20
4.8234771421139691
0
VERTEX
8
Layer_1
6
CONTINUOUS
62
7
10
2.9412704460966665
20
4.8875695698353638
0
VERTEX
8
Layer_1
6
CONTINUOUS
62
7
10
3.0076397689472536
20
4.9657755574457489
0
VERTEX
8
Layer_1
6
CONTINUOUS
62
7
10
3.0650335900159291
20
5.052587095061142
0
SEQEND
0
POLYLINE
8
Layer_1
6
CONTINUOUS
62
7
66
1
10
0
20
0
70
128
40
0
41
0
0
VERTEX
8
Layer_1
6
CONTINUOUS
62
7
10
3.9210620021242732
20
5.382622145512471
0
VERTEX
8
Layer_1
6
CONTINUOUS
62
7
10
4.1077409125146147
20
5.2936200689556188
0
VERTEX
8
Layer_1
6
CONTINUOUS
62
7
10
4.1987587456442643
20
5.2457526260349754
0
VERTEX
8
Layer_1
6
CONTINUOUS
62
7
10
4.2820378385555102
20
5.1866638343069553
0
VERTEX
8
Layer_1
6
CONTINUOUS
62
7
10
4.3637160562911781
20
5.0928335554065605
0
VERTEX
8
Layer_1
6
CONTINUOUS
62
7
10
4.4367417684545956
20
4.9907055231014397
0
SEQEND
0
POLYLINE
8
Layer_1
6
CONTINUOUS
62
7
66
1
10
0
20
0
70
128
40
0
41
0
0
VERTEX
8
Layer_1
6
CONTINUOUS
62
7
10
4.0448251460435642
20
4.7431792352628577
0
VERTEX
8
Layer_1
6
CONTINUOUS
62
7
10
4.1832989179567086
20
4.7866239849444163
0
VERTEX
8
Layer_1
6
CONTINUOUS
62
7
10
4.312978624535333
20
4.8463151885289335
0
VERTEX
8
Layer_1
6
CONTINUOUS
62
7
10
4.3786664757978109
20
4.9143720582622628
0
VERTEX
8
Layer_1
6
CONTINUOUS
62
7
10
4.4367417684545956
20
4.9907055231014397
0
SEQEND
0
ENDSEC
0
EOF
