0
SECTION
2
HEADER
9
$ANGDIR
70
0
9
$CHAMFERA
40
10
9
$CHAMFERB
40
10
9
$CLAYER
8
Layer_1
9
$EXTMAX
10
16.893510234848275
20
20.372962745673497
9
$EXTMIN
10
0.65448731101005098
20
0.65000000000000568
9
$LIMMAX
10
420
20
297
9
$LIMMIN
10
0
20
0
9
$LTSCALE
40
10
9
$PLINEGEN
70
0
9
$TEXTSIZE
40
20
9
$GRIDUNIT
10
10
20
10
9
$SNAPUNIT
10
1
20
1
0
ENDSEC
0
SECTION
2
TABLES
0
TABLE
2
STYLE
70
1
0
STYLE
2
STANDARD
70
0
40
0
41
1
50
0
71
0
42
0.20000000000000001
3
txt
4

0
ENDTAB
0
TABLE
2
LTYPE
70
14
0
LTYPE
2
CONTINUOUS
70
0
3
Solid line
72
65
73
0
40
0
0
LTYPE
2
DOT
70
0
3
............................................
72
65
73
2
40
0.25
49
0
49
-0.25
0
LTYPE
2
HIDDEN
70
0
3
_ _ _ _ _ _ _ _ _ _ _ _ _ _ _ _ _ _ _ _ _ _ 
72
65
73
2
40
0.375
49
0.25
49
-0.125
0
LTYPE
2
TSLONGDASH
70
0
3
__ __ __ __ __ __ __ __ __ __ __ __ __ __ _ 
72
65
73
2
40
1.28
49
1
49
-0.28000000000000003
0
LTYPE
2
TSDASHDOT
70
0
3
______ . ______ . ______ . ______ . ______ .
72
65
73
4
40
1.28
49
1
49
-0.14000000000000001
49
0
49
-0.14000000000000001
0
LTYPE
2
TSCENTER
70
0
3
______ _ ______ _ ______ _ ______ _ ______ _
72
65
73
4
40
2
49
1.5
49
-0.17999999999999999
49
0.14000000000000001
49
-0.17999999999999999
0
LTYPE
2
TSPHANTOM
70
0
3
_____ _ _ _____ _ _ _____ _ _ _____ _ _ ____
72
65
73
6
40
2.5
49
1.6299999999999999
49
-0.19
49
0.14999999999999999
49
-0.19
49
0.14999999999999999
49
-0.19
0
LTYPE
2
DASHED
70
0
3
__ __ __ __ __ __ __ __ __ __ __ __ __ __ __
72
65
73
2
40
0.75
49
0.5
49
-0.25
0
LTYPE
2
CENTER
70
0
3
____ _ ____ _ ____ _ ____ _ ____ _ ____ _ __
72
65
73
4
40
2
49
1.25
49
-0.25
49
0.25
49
-0.25
0
LTYPE
2
PHANTOM
70
0
3
_____ _ _ _____ _ _ _____ _ _ _____ _ _ ____
72
65
73
6
40
2.5
49
1.25
49
-0.25
49
0.25
49
-0.25
49
0.25
49
-0.25
0
LTYPE
2
DASHDOT
70
0
3
__ . __ . __ . __ . __ . __ . __ . __ . __ .
72
65
73
4
40
1
49
0.5
49
-0.25
49
0
49
-0.25
0
LTYPE
2
BORDER
70
0
3
__ __ . __ __ . __ __ . __ __ . __ __ . __ _
72
65
73
6
40
1.75
49
0.5
49
-0.25
49
0.5
49
-0.25
49
0
49
-0.25
0
LTYPE
2
DIVIDE
70
0
3
__ . . __ . . __ . . __ . . __ . . __ . . __
72
65
73
6
40
1.25
49
0.5
49
-0.25
49
0
49
-0.25
49
0
49
-0.25
0
ENDTAB
0
TABLE
2
LAYER
70
3
0
LAYER
2
Layer_1
70
0
62
7
6
CONTINUOUS
0
LAYER
2
Layer_2
70
0
62
7
6
CONTINUOUS
0
LAYER
2
Layer_3
70
0
62
7
6
CONTINUOUS
0
ENDTAB
0
ENDSEC
0
SECTION
2
ENTITIES
0
LINE
8
Layer_1
6
CONTINUOUS
62
7
10
2.4815635680607215
20
18.271349532109724
11
2.7681018638757564
21
18.557887827911912
0
LINE
8
Layer_1
6
CONTINUOUS
62
7
10
2.4569967248788203
20
18.119503468318214
11
2.9203670766979144
21
18.582873820116504
0
LINE
8
Layer_1
6
CONTINUOUS
62
7
10
2.4737040800806653
20
18.008931602908575
11
3.0398447505228887
21
18.575072273325389
0
LINE
8
Layer_1
6
CONTINUOUS
62
7
10
2.5019538464456446
20
17.90990214866153
11
3.1459278303769906
21
18.553876132564
0
LINE
8
Layer_1
6
CONTINUOUS
62
7
10
2.5406974193682572
20
17.821366500971749
11
3.2431928720423002
21
18.523861953614272
0
LINE
8
Layer_1
6
CONTINUOUS
62
7
10
1.2072287318720782
20
16.360618592924709
11
1.4573037745529405
21
16.610693635594316
0
LINE
8
Layer_1
6
CONTINUOUS
62
7
10
2.585428953008261
20
17.738818813998961
11
3.3320239733860149
21
18.485413834343262
0
LINE
8
Layer_1
6
CONTINUOUS
62
7
10
4.4302285204018972
20
19.583618381309776
11
4.6405525033847539
21
19.793942364283225
0
LINE
8
Layer_1
6
CONTINUOUS
62
7
10
1.2132051337188727
20
16.239315774160531
11
1.6021812901957446
21
16.628291930619923
0
LINE
8
Layer_1
6
CONTINUOUS
62
7
10
2.6355262487413711
20
17.661636889119137
11
3.4177666754386564
21
18.44387731578135
0
LINE
8
Layer_1
6
CONTINUOUS
62
7
10
4.4189767345362725
20
19.445087374833975
11
4.7731095353949513
21
19.799220175676737
0
LINE
8
Layer_1
6
CONTINUOUS
62
7
10
1.243817539173051
20
16.142648959002599
11
1.7237704495181561
21
16.622601869326189
0
LINE
8
Layer_1
6
CONTINUOUS
62
7
10
2.6888512644245566
20
17.587682684189275
11
3.5015615627791021
21
18.400392982507327
0
LINE
8
Layer_1
6
CONTINUOUS
62
7
10
4.4283617122134729
20
19.327193131900088
11
4.8820511489133764
21
19.780882568579614
0
LINE
8
Layer_1
6
CONTINUOUS
62
7
10
1.2908822102486397
20
16.062434409465368
11
1.8383067361696135
21
16.609858935361729
0
LINE
8
Layer_1
6
CONTINUOUS
62
7
10
2.744905724070577
20
17.516457923222021
11
3.5831753792597283
21
18.354727578373542
0
LINE
8
Layer_1
6
CONTINUOUS
62
7
10
4.4468544392460672
20
19.218406638321113
11
4.9756284980854275
21
19.747180697136741
0
LINE
8
Layer_1
6
CONTINUOUS
62
7
10
1.3435562333343114
20
15.987829211937907
11
1.9468950692175326
21
16.591168047794099
0
LINE
8
Layer_1
6
CONTINUOUS
62
7
10
2.8035309026142272
20
17.447803881152311
11
3.6615444495200791
21
18.305817428019651
0
LINE
8
Layer_1
6
CONTINUOUS
62
7
10
4.471966826733194
20
19.116239805196358
11
5.0599014314946658
21
19.704174409931454
0
LINE
8
Layer_1
6
CONTINUOUS
62
7
10
1.4041184889620695
20
15.921112246952248
11
2.0535108787252057
21
16.570504636686252
0
LINE
8
Layer_1
6
CONTINUOUS
62
7
10
2.8621560811578775
20
17.379149839082629
11
3.7373906022901338
21
18.254384360175607
0
LINE
8
Layer_1
6
CONTINUOUS
62
7
10
4.5024344243252585
20
19.019428182176341
11
5.1376947506000761
21
19.654688508422652
0
LINE
8
Layer_1
6
CONTINUOUS
62
7
10
1.4702077056699636
20
15.859922243046498
11
2.1587790580329056
21
16.548493595378488
0
LINE
8
Layer_1
6
CONTINUOUS
62
7
10
2.9207812597015277
20
17.310495797012948
11
3.8114345436350732
21
18.201149080906475
0
LINE
8
Layer_1
6
CONTINUOUS
62
7
10
4.5336833589163916
20
18.923397896155393
11
5.2087581513613941
21
19.598472688570041
0
LINE
8
Layer_1
6
CONTINUOUS
62
7
10
1.5420456621149015
20
15.80448097887745
11
2.263357718492216
21
16.525793035222449
0
LINE
8
Layer_1
6
CONTINUOUS
62
7
10
2.9807742389146483
20
17.243209555612623
11
3.8838376615683501
21
18.146272978225795
0
LINE
8
Layer_1
6
CONTINUOUS
62
7
10
4.5656339613454975
20
18.828069277972304
11
5.2774496502562442
21
19.539884966851133
0
LINE
8
Layer_1
6
CONTINUOUS
62
7
10
1.6183404836932596
20
15.753496579841681
11
2.3674061000477877
21
16.502562196162643
0
LINE
8
Layer_1
6
CONTINUOUS
62
7
10
3.0418541219942767
20
17.177010218078834
11
3.9547531013571415
21
18.089909197400715
0
LINE
8
Layer_1
6
CONTINUOUS
62
7
10
4.5989511068294178
20
18.734107202844029
11
5.3404193071399391
21
19.475575403121269
0
LINE
8
Layer_1
6
CONTINUOUS
62
7
10
1.6964793174662987
20
15.704356193000507
11
2.4689056400986829
21
16.47678251559816
0
LINE
8
Layer_1
6
CONTINUOUS
62
7
10
3.104972230180806
20
17.112849105651804
11
4.0243072345266455
21
18.032184109956319
0
LINE
8
Layer_1
6
CONTINUOUS
62
7
10
4.6334636229929629
20
18.641340498395323
11
5.3997921680442005
21
19.407669043412142
0
LINE
8
Layer_1
6
CONTINUOUS
62
7
10
1.7772538325406799
20
15.657851487460562
11
2.5691089425314999
21
16.449706597415798
0
LINE
8
Layer_1
6
CONTINUOUS
62
7
10
3.1702526203832235
20
17.050850275240492
11
4.0926492640550691
21
17.973246918871013
0
LINE
8
Layer_1
6
CONTINUOUS
62
7
10
4.668863879328228
20
18.549461534118251
11
5.4565141774799031
21
19.337111832234626
0
LINE
8
Layer_1
6
CONTINUOUS
62
7
10
1.8584731490108766
20
15.611791583316432
11
2.667581644566269
21
16.420900078835444
0
LINE
8
Layer_1
6
CONTINUOUS
62
7
10
3.2364755266730754
20
16.989793960916728
11
4.1594803616651461
21
17.912798795867332
0
LINE
8
Layer_1
6
CONTINUOUS
62
7
10
4.7059230765797793
20
18.459241510757494
11
5.5097836851251145
21
19.263102119266733
0
LINE
8
Layer_1
6
CONTINUOUS
62
7
10
1.9409523321106121
20
15.56699154580167
11
2.764481469283055
21
16.390520682937137
0
LINE
8
Layer_1
6
CONTINUOUS
62
7
10
3.303810164632182
20
16.929849378262077
11
4.2262390120981763
21
17.852278225686632
0
LINE
8
Layer_1
6
CONTINUOUS
62
7
10
4.7442933373064875
20
18.370332550871694
11
5.55989339333928
21
19.18593260686788
0
LINE
8
Layer_1
6
CONTINUOUS
62
7
10
2.0247007691647241
20
15.523460762241314
11
2.8607603424837293
21
16.359520335522774
0
LINE
8
Layer_1
6
CONTINUOUS
62
7
10
3.3722818965882766
20
16.871041889604385
11
4.2917722081144234
21
17.790532201089263
0
LINE
8
Layer_1
6
CONTINUOUS
62
7
10
4.7838943442733921
20
18.28265433722612
11
5.6063250661743496
21
19.105085059090101
0
LINE
8
Layer_1
6
CONTINUOUS
62
7
10
0.68284254581152481
20
14.054323318337651
11
1.179742802015312
21
14.551223574519184
0
LINE
8
Layer_1
6
CONTINUOUS
62
7
10
2.1112452647828377
20
15.482726037244817
11
2.9556555158117703
21
16.327136288235835
0
LINE
8
Layer_1
6
CONTINUOUS
62
7
10
3.4412796912720864
20
16.812760463674323
11
4.3567002073302774
21
17.728180979691416
0
LINE
8
Layer_1
6
CONTINUOUS
62
7
10
4.8239146905207804
20
18.195395462860944
11
5.6500079635963516
21
19.02148873589951
0
LINE
8
Layer_1
6
CONTINUOUS
62
7
10
6.8973054818775381
20
20.268786254124706
11
6.9303937480863169
21
20.301874520332007
0
LINE
8
Layer_1
6
CONTINUOUS
62
7
10
0.6572917886705909
20
13.901493340587109
11
1.3758552976981946
21
14.620056849582511
0
LINE
8
Layer_1
6
CONTINUOUS
62
7
10
2.1996753540344685
20
15.44387690588178
11
3.0501041385508074
21
16.29430569035992
0
LINE
8
Layer_1
6
CONTINUOUS
62
7
10
3.5107742975689007
20
16.754975849357407
11
4.4210745659056556
21
17.665276117653264
0
LINE
8
Layer_1
6
CONTINUOUS
62
7
10
4.8651618417133022
20
18.109363393440958
11
5.6923176589151581
21
18.936519210605667
0
LINE
8
Layer_1
6
CONTINUOUS
62
7
10
6.7421425189811544
20
19.986344070624483
11
7.1265137281876036
21
20.370715279813709
0
LINE
8
Layer_1
6
CONTINUOUS
62
7
10
0.66137458170493346
20
13.778296913010593
11
1.5466873490267972
21
14.663609680292723
0
LINE
8
Layer_1
6
CONTINUOUS
62
7
10
2.2898784125636666
20
15.406800743796225
11
3.1436847878770777
21
16.260607119071267
0
LINE
8
Layer_1
6
CONTINUOUS
62
7
10
3.5810884677316608
20
16.698010798906239
11
4.4846229457181721
21
17.601545276852164
0
LINE
8
Layer_1
6
CONTINUOUS
62
7
10
4.9067504363110857
20
18.023672767426149
11
5.7326918083626879
21
18.849614139440661
0
LINE
8
Layer_1
6
CONTINUOUS
62
7
10
6.6857687148349214
20
19.80269104587012
11
7.231141273031426
21
20.348063604042125
0
LINE
8
Layer_1
6
CONTINUOUS
62
7
10
0.70071452279495361
20
13.690357633488134
11
1.706646968194093
21
14.696290078842082
0
LINE
8
Layer_1
6
CONTINUOUS
62
7
10
2.3812424178053107
20
15.370885528423031
11
3.2365349306008397
21
16.226178041180134
0
LINE
8
Layer_1
6
CONTINUOUS
62
7
10
3.651417165365217
20
16.641060275925895
11
4.5475696525908234
21
17.537212763111285
0
LINE
8
Layer_1
6
CONTINUOUS
62
7
10
4.9491749008843158
20
17.938818011386729
11
5.7730659578101609
21
18.762709068275626
0
LINE
8
Layer_1
6
CONTINUOUS
62
7
10
6.6487443918362032
20
19.638387502262333
11
7.3217142596580516
21
20.311357370053997
0
LINE
8
Layer_1
6
CONTINUOUS
62
7
10
0.76138442043384202
20
13.623748310513577
11
1.8575249118167676
21
14.719888801847304
0
LINE
8
Layer_1
6
CONTINUOUS
62
7
10
2.4735763907841601
20
15.335940280787014
11
3.328932911589277
21
16.191296801553676
0
LINE
8
Layer_1
6
CONTINUOUS
62
7
10
3.7217752430838118
20
16.584139133030675
11
4.6099976044169466
21
17.472361494323877
0
LINE
8
Layer_1
6
CONTINUOUS
62
7
10
4.9919106121947721
20
17.854274502084564
11
5.8133849331240981
21
18.675748822976999
0
LINE
8
Layer_1
6
CONTINUOUS
62
7
10
6.6191486496836092
20
19.481512539500301
11
7.4013706684517047
21
20.263734558233352
0
LINE
8
Layer_1
6
CONTINUOUS
62
7
10
0.83487503606227165
20
13.569959705527964
11
2.0029187913531246
21
14.738003460766407
0
LINE
8
Layer_1
6
CONTINUOUS
62
7
10
2.5667202208707636
20
15.301804890258722
11
3.4203976677739547
21
16.15548233712363
0
LINE
8
Layer_1
6
CONTINUOUS
62
7
10
3.7931028571728689
20
16.528187526505775
11
4.6718118551941643
21
17.406896524487621
0
LINE
8
Layer_1
6
CONTINUOUS
62
7
10
5.0353256875502552
20
17.770410356827398
11
5.8510974055327551
21
18.586182074773262
0
LINE
8
Layer_1
6
CONTINUOUS
62
7
10
6.5990256623057917
20
19.334110331512676
11
7.4696198640555735
21
20.204704533223435
0
LINE
8
Layer_1
6
CONTINUOUS
62
7
10
0.92313803333382793
20
13.530943482184853
11
2.1438341582972953
21
14.751639607093523
0
LINE
8
Layer_1
6
CONTINUOUS
62
7
10
2.6605560299461217
20
15.268361478719157
11
3.511610135833962
21
16.119415584568799
0
LINE
8
Layer_1
6
CONTINUOUS
62
7
10
3.8649011394095965
20
16.472706588128574
11
4.7328947718252152
21
17.340700220505198
0
LINE
8
Layer_1
6
CONTINUOUS
62
7
10
5.0795770361424957
20
17.687382484806903
11
5.8873665703272877
21
18.495172018955458
0
LINE
8
Layer_1
6
CONTINUOUS
62
7
10
6.5886678024015168
20
19.196473250998224
11
7.5276302035042022
21
20.13543565205876
0
LINE
8
Layer_1
6
CONTINUOUS
62
7
10
1.0167156036434335
20
13.497241831879592
11
2.280840810104678
21
14.761367038284078
0
LINE
8
Layer_1
6
CONTINUOUS
62
7
10
2.7552029214996878
20
15.235729149657715
11
3.6020157189755651
21
16.082541947095592
0
LINE
8
Layer_1
6
CONTINUOUS
62
7
10
3.9371600212325575
20
16.417686249337606
11
4.7934914984935517
21
17.274017726560089
0
LINE
8
Layer_1
6
CONTINUOUS
62
7
10
5.1241935117798789
20
17.60471973983158
11
5.9224242036664236
21
18.402950431682314
0
LINE
8
Layer_1
6
CONTINUOUS
62
7
10
6.5819096500393925
20
19.062435878025667
11
7.5787353019278498
21
20.05926152986936
0
LINE
8
Layer_1
6
CONTINUOUS
62
7
10
1.1179582307070746
20
13.471205238327883
11
2.4144058220958868
21
14.767652829658488
0
LINE
8
Layer_1
6
CONTINUOUS
62
7
10
2.8504434042006324
20
15.203690411743708
11
3.6921078106641403
21
16.045354818169443
0
LINE
8
Layer_1
6
CONTINUOUS
62
7
10
4.0103339096270929
20
16.363580917118071
11
4.8536059774965565
21
17.206852984949734
0
LINE
8
Layer_1
6
CONTINUOUS
62
7
10
5.1690073727170898
20
17.522254380156113
11
5.9569123960814636
21
18.310159403485045
0
LINE
8
Layer_1
6
CONTINUOUS
62
7
10
6.5775139876342337
20
18.93076099500999
11
7.6218500902177198
21
19.975097097546552
0
LINE
8
Layer_1
6
CONTINUOUS
62
7
10
1.224794783795403
20
13.450762570800748
11
2.5449156984715273
21
14.770883485417613
0
LINE
8
Layer_1
6
CONTINUOUS
62
7
10
2.9462893770189567
20
15.172257163947023
11
3.781694279346425
21
16.007662066237003
0
LINE
8
Layer_1
6
CONTINUOUS
62
7
10
4.084065960435737
20
16.310033747312758
11
4.9129980903737192
21
17.138965877213479
0
LINE
8
Layer_1
6
CONTINUOUS
62
7
10
5.2138212336544143
20
17.439789020480646
11
5.9905909054136259
21
18.216558692205041
0
LINE
8
Layer_1
6
CONTINUOUS
62
7
10
6.5734264805805651
20
18.799394267345775
11
7.6598519574820898
21
19.8858197441985
0
LINE
8
Layer_1
6
CONTINUOUS
62
7
10
1.3376616616230876
20
13.436350228012657
11
2.6725807027116844
21
14.771269269041312
0
LINE
8
Layer_1
6
CONTINUOUS
62
7
10
3.0431302248935594
20
15.141818791206532
11
3.8708431125517109
21
15.969531678827536
0
LINE
8
Layer_1
6
CONTINUOUS
62
7
10
4.1582894327785311
20
16.256977999041453
11
4.9719391910710442
21
17.070627757297416
0
LINE
8
Layer_1
6
CONTINUOUS
62
7
10
5.2588468759919351
20
17.35753544220546
11
6.0239162499632926
21
18.122604816142484
0
LINE
8
Layer_1
6
CONTINUOUS
62
7
10
6.5696137925319249
20
18.668302358686589
11
7.6896686065964559
21
19.788357172700813
0
LINE
8
Layer_1
6
CONTINUOUS
62
7
10
1.4583715652678393
20
13.42978091104132
11
2.7974787472126081
21
14.768888092925891
0
LINE
8
Layer_1
6
CONTINUOUS
62
7
10
3.140628774018694
20
15.112038119716573
11
3.959723428833513
21
15.931132774494642
0
LINE
8
Layer_1
6
CONTINUOUS
62
7
10
4.2333855378324188
20
16.204794883481242
11
5.0306675494512092
21
17.002076895064278
0
LINE
8
Layer_1
6
CONTINUOUS
62
7
10
5.3038840495609065
20
17.275293395161697
11
6.0570372601851545
21
18.028446605752066
0
LINE
8
Layer_1
6
CONTINUOUS
62
7
10
6.5664236738195427
20
18.53783301936366
11
7.7103884803506162
21
19.681797825843404
0
LINE
8
Layer_1
6
CONTINUOUS
62
7
10
1.5821553405634745
20
13.426285465720639
11
2.9201546362165232
21
14.764284761313604
0
LINE
8
Layer_1
6
CONTINUOUS
62
7
10
3.2387761905941943
20
15.082906315676951
11
4.0478764066356234
21
15.892006531682085
0
LINE
8
Layer_1
6
CONTINUOUS
62
7
10
4.3084816428862496
20
16.152611767920973
11
5.0890352888827692
21
16.933165413882449
0
LINE
8
Layer_1
6
CONTINUOUS
62
7
10
5.3489212231299348
20
17.19305134811799
11
6.0880101164701728
21
17.932140241425003
0
LINE
8
Layer_1
6
CONTINUOUS
62
7
10
6.5640133786742467
20
18.408143503607704
11
7.727388062819557
21
19.571518187700832
0
LINE
8
Layer_1
6
CONTINUOUS
62
7
10
1.71154841290479
20
13.428399317445439
11
3.0406926841317841
21
14.757543588612748
0
LINE
8
Layer_1
6
CONTINUOUS
62
7
10
3.3377043705646088
20
15.054555275032214
11
4.1359012959221104
21
15.852752200353905
0
LINE
8
Layer_1
6
CONTINUOUS
62
7
10
4.3837326004194779
20
16.100583504840131
11
5.147162842999478
21
16.864013747385854
0
LINE
8
Layer_1
6
CONTINUOUS
62
7
10
5.3939583966989062
20
17.110809301074198
11
6.1179790806854157
21
17.83482998502825
0
LINE
8
Layer_1
6
CONTINUOUS
62
7
10
6.5623330563068407
20
18.279183960629666
11
7.7397429699695977
21
19.456593874239559
0
LINE
8
Layer_1
6
CONTINUOUS
62
7
10
1.8409414852462191
20
13.430513169170268
11
3.1594909420974204
21
14.749062625962296
0
LINE
8
Layer_1
6
CONTINUOUS
62
7
10
3.4375868033795882
20
15.027158487231958
11
4.2230125678954664
21
15.812584251712593
0
LINE
8
Layer_1
6
CONTINUOUS
62
7
10
4.4597302544580089
20
16.049301938264534
11
5.2049431834019515
21
16.794514867174996
0
LINE
8
Layer_1
6
CONTINUOUS
62
7
10
5.4396965108375639
20
17.029268194600064
11
6.1471501615562829
21
17.736721845287065
0
LINE
8
Layer_1
6
CONTINUOUS
62
7
10
6.5620922842196023
20
18.151663967931682
11
7.7520822831160103
21
19.341653966774743
0
LINE
8
Layer_1
6
CONTINUOUS
62
7
10
1.9743222133898257
20
13.436614676697218
11
3.2767644692142426
21
14.739056932463143
0
LINE
8
Layer_1
6
CONTINUOUS
62
7
10
3.5381678317168621
20
15.000460294954024
11
4.310040003740653
21
15.772332466943197
0
LINE
8
Layer_1
6
CONTINUOUS
62
7
10
4.5357279084965398
20
15.998020371688966
11
5.2624062351948737
21
16.724698698354644
0
LINE
8
Layer_1
6
CONTINUOUS
62
7
10
5.4854953741340182
20
16.947787837283755
11
6.1755795820037633
21
17.637872045122549
0
LINE
8
Layer_1
6
CONTINUOUS
62
7
10
6.5622262338875998
20
18.024518696988991
11
7.7584314429236656
21
19.220723905971369
0
LINE
8
Layer_1
6
CONTINUOUS
62
7
10
2.1110819094750468
20
13.446095152165611
11
3.3925619004363057
21
14.727575143069316
0
LINE
8
Layer_1
6
CONTINUOUS
62
7
10
3.6394727728251155
20
14.974486015447013
11
4.3963411414264328
21
15.731354384014395
0
LINE
8
Layer_1
6
CONTINUOUS
62
7
10
4.6122473940559416
20
15.94726063663424
11
5.3195436302776216
21
16.654556872824116
0
LINE
8
Layer_1
6
CONTINUOUS
62
7
10
5.532085460824419
20
16.867098703361393
11
6.2040090024512438
21
17.539022244958005
0
LINE
8
Layer_1
6
CONTINUOUS
62
7
10
6.5639282596320072
20
17.898941502122653
11
7.7610549898444674
21
19.096068232281368
0
LINE
8
Layer_1
6
CONTINUOUS
62
7
10
2.2532081064858858
20
13.460942128559338
11
3.5077901999569008
21
14.715524221974022
0
LINE
8
Layer_1
6
CONTINUOUS
62
7
10
3.7417216095253139
20
14.949455631531919
11
4.4825541845226553
21
15.690288206496007
0
LINE
8
Layer_1
6
CONTINUOUS
62
7
10
4.6894352701286834
20
15.897169292092798
11
5.3762778501230173
21
16.584011872056266
0
LINE
8
Layer_1
6
CONTINUOUS
62
7
10
5.578763553623844
20
16.786497575547969
11
6.2316537119972395
21
17.439387733892005
0
LINE
8
Layer_1
6
CONTINUOUS
62
7
10
6.5668244705369716
20
17.774558492416759
11
7.7590675872300494
21
18.966801609056262
0
LINE
8
Layer_1
6
CONTINUOUS
62
7
10
2.3986387292302993
20
13.47909353068647
11
3.6225223974255414
21
14.702977198826744
0
LINE
8
Layer_1
6
CONTINUOUS
62
7
10
3.8442100198888056
20
14.924664821280089
11
4.5682633536453068
21
15.648718155004076
0
LINE
8
Layer_1
6
CONTINUOUS
62
7
10
4.7666231462014252
20
15.847077947551355
11
5.4325840457912591
21
16.513038847111261
0
LINE
8
Layer_1
6
CONTINUOUS
62
7
10
5.6269494656911547
20
16.707404267002403
11
6.2590441776171701
21
17.339498978900025
0
LINE
8
Layer_1
6
CONTINUOUS
62
7
10
6.5707365433229938
20
17.651191344591865
11
7.756642009086363
21
18.837096810302029
0
LINE
8
Layer_1
6
CONTINUOUS
62
7
10
1.2765065678182168
20
12.22968214871409
11
1.6931835664302071
21
12.646359147307294
0
LINE
8
Layer_1
6
CONTINUOUS
62
7
10
2.5471414903840923
20
13.500317071222923
11
3.7368201611270706
21
14.689995741912497
0
LINE
8
Layer_1
6
CONTINUOUS
62
7
10
3.9482250935635079
20
14.901400674339442
11
4.6538462586570404
21
15.607021839401256
0
LINE
8
Layer_1
6
CONTINUOUS
62
7
10
4.8450361651479739
20
15.798211745883663
11
5.4881725910741466
21
16.441348171780902
0
LINE
8
Layer_1
6
CONTINUOUS
62
7
10
5.6753556427030958
20
16.628531223401495
11
6.2864346432371576
21
17.239610223908102
0
LINE
8
Layer_1
6
CONTINUOUS
62
7
10
6.5756916065345195
20
17.528867187192446
11
7.7513502727907166
21
18.704525853395893
0
LINE
8
Layer_1
6
CONTINUOUS
62
7
10
1.3285204685198551
20
12.154416828802653
11
1.9729342747634178
21
12.798830635017254
0
LINE
8
Layer_1
6
CONTINUOUS
62
7
10
2.6980944739881352
20
13.523990834209428
11
3.8511179248287135
21
14.677014284998251
0
LINE
8
Layer_1
6
CONTINUOUS
62
7
10
4.0540095272328927
20
14.879905887393335
11
4.73901694495828
21
15.56491330508797
0
LINE
8
Layer_1
6
CONTINUOUS
62
7
10
4.9239370787724397
20
15.749833438893802
11
5.5437611363569772
21
16.369657496450543
0
LINE
8
Layer_1
6
CONTINUOUS
62
7
10
5.7237618197150368
20
16.549658179800531
11
6.3126119545678989
21
17.138508314626961
0
LINE
8
Layer_1
6
CONTINUOUS
62
7
10
6.582528215229047
20
17.408424575275944
11
7.7419415690671372
21
18.567837929062023
0
LINE
8
Layer_1
6
CONTINUOUS
62
7
10
1.4024798698983432
20
12.101097009567098
11
2.2191350472420481
21
12.917752186874168
0
LINE
8
Layer_1
6
CONTINUOUS
62
7
10
2.8511820456306509
20
13.549799185234377
11
3.9654156885302996
21
14.664032828083975
0
LINE
8
Layer_1
6
CONTINUOUS
62
7
10
4.16199773407061
20
14.860614873615475
11
4.8241876312595195
21
15.522804770774627
0
LINE
8
Layer_1
6
CONTINUOUS
62
7
10
5.0028379923967918
20
15.701455131903913
11
5.5993496816398647
21
16.297966821120212
0
LINE
8
Layer_1
6
CONTINUOUS
62
7
10
5.7721679967270916
20
16.470785136199652
11
6.3381012031667296
21
17.036718342613881
0
LINE
8
Layer_1
6
CONTINUOUS
62
7
10
6.5906882370739481
20
17.289305376509787
11
7.7292012935828325
21
18.42781843296757
0
LINE
8
Layer_1
6
CONTINUOUS
62
7
10
8.7397629755054709
20
19.438380114844819
11
9.3084829298546765
21
20.007100069168473
0
LINE
8
Layer_1
6
CONTINUOUS
62
7
10
1.4785281169598647
20
12.049866036014492
11
2.4445534177064587
21
13.015891336717715
0
LINE
8
Layer_1
6
CONTINUOUS
62
7
10
3.0055510127433536
20
13.576888931729428
11
4.0797134522318856
21
14.651051371169729
0
LINE
8
Layer_1
6
CONTINUOUS
62
7
10
4.2699859409083274
20
14.841323859837615
11
4.9093583175607591
21
15.480696236461341
0
LINE
8
Layer_1
6
CONTINUOUS
62
7
10
5.0817389060212008
20
15.653076824914052
11
5.6549382269227522
21
16.226276145789882
0
LINE
8
Layer_1
6
CONTINUOUS
62
7
10
5.8205741737390895
20
16.391912092598744
11
6.3626542460151541
21
16.93399216485048
0
LINE
8
Layer_1
6
CONTINUOUS
62
7
10
6.6003855267319977
20
17.171723445556665
11
7.7129563641502727
21
18.284294282925032
0
LINE
8
Layer_1
6
CONTINUOUS
62
7
10
8.5830097694916958
20
19.154347688227318
11
9.4392631333874988
21
20.010601052084695
0
LINE
8
Layer_1
6
CONTINUOUS
62
7
10
1.5611969753830977
20
12.005255673823314
11
2.6593560743610851
21
13.103414772751989
0
LINE
8
Layer_1
6
CONTINUOUS
62
7
10
3.1612102484534716
20
13.605268946821838
11
4.1940112159334149
21
14.638069914255453
0
LINE
8
Layer_1
6
CONTINUOUS
62
7
10
4.3779741477459879
20
14.822032846059756
11
4.9944722452581232
21
15.438530943544208
0
LINE
8
Layer_1
6
CONTINUOUS
62
7
10
5.1606398196456098
20
15.60469851792422
11
5.7105267722055828
21
16.154585470459494
0
LINE
8
Layer_1
6
CONTINUOUS
62
7
10
5.8689803507509737
20
16.313039048997808
11
6.3847911600378779
21
16.82884985826152
0
LINE
8
Layer_1
6
CONTINUOUS
62
7
10
6.6114198711783274
20
17.055478569391823
11
7.6932598578869147
21
18.13731855605181
0
LINE
8
Layer_1
6
CONTINUOUS
62
7
10
8.4555444406505558
20
18.899603138781231
11
9.5274702015173602
21
19.971528899599917
0
LINE
8
Layer_1
6
CONTINUOUS
62
7
10
1.6621855363512736
20
11.978965014176282
11
2.8677370607136936
21
13.18451653848453
0
LINE
8
Layer_1
6
CONTINUOUS
62
7
10
3.3198474544316241
20
13.636626932182139
11
4.3083089796350578
21
14.625088457341235
0
LINE
8
Layer_1
6
CONTINUOUS
62
7
10
4.4771160589908163
20
14.793895536689377
11
5.0794993561301567
21
15.396278833801659
0
LINE
8
Layer_1
6
CONTINUOUS
62
7
10
5.2395407332699619
20
15.556320210934302
11
5.7661153174885271
21
16.082894795129221
0
LINE
8
Layer_1
6
CONTINUOUS
62
7
10
5.9173865277629716
20
16.234166005396901
11
6.4069280740607155
21
16.723707551672646
0
LINE
8
Layer_1
6
CONTINUOUS
62
7
10
6.6236714824706269
20
16.940450960072866
11
7.6704746751734092
21
17.98725415272861
0
LINE
8
Layer_1
6
CONTINUOUS
62
7
10
8.3430337341299605
20
18.659813211655006
11
9.5987820719798833
21
19.915561549448512
0
LINE
8
Layer_1
6
CONTINUOUS
62
7
10
1.7772566618598944
20
11.966756919068985
11
3.0692125739295761
21
13.258712831080629
0
LINE
8
Layer_1
6
CONTINUOUS
62
7
10
3.4829549316032171
20
13.672455188735654
11
4.4242089211325606
21
14.613709178222763
0
LINE
8
Layer_1
6
CONTINUOUS
62
7
10
4.5182725742785692
20
14.707772831364593
11
5.1645264670021902
21
15.354026724059167
0
LINE
8
Layer_1
6
CONTINUOUS
62
7
10
5.3184416468943709
20
15.50794190394447
11
5.8225057730645062
21
16.01200603009201
0
LINE
8
Layer_1
6
CONTINUOUS
62
7
10
5.9657927047750263
20
16.155292961795993
11
6.4290649880834394
21
16.618565245083659
0
LINE
8
Layer_1
6
CONTINUOUS
62
7
10
6.6369207555115963
20
16.826421012502465
11
7.6447835329333316
21
17.834283789878953
0
LINE
8
Layer_1
6
CONTINUOUS
62
7
10
8.2440552729628962
20
18.433555529881602
11
9.6566593416021078
21
19.846159598457405
0
LINE
8
Layer_1
6
CONTINUOUS
62
7
10
1.9008823914875848
20
11.963103428080387
11
3.2636542146405532
21
13.325875251172192
0
LINE
8
Layer_1
6
CONTINUOUS
62
7
10
3.6492387190853037
20
13.711459755599634
11
5.2495535778742237
21
15.311774614316647
0
LINE
8
Layer_1
6
CONTINUOUS
62
7
10
5.3962039110567162
20
15.458424947492631
11
5.9242364728704047
21
15.986457509282559
0
LINE
8
Layer_1
6
CONTINUOUS
62
7
10
5.988760090487915
20
16.05098112689717
11
6.450784978380625
21
16.513006014769104
0
LINE
8
Layer_1
6
CONTINUOUS
62
7
10
6.6508923275273446
20
16.713113363906928
11
7.6155956325340526
21
17.677816668870264
0
LINE
8
Layer_1
6
CONTINUOUS
62
7
10
8.1543906946971561
20
18.216611731009209
11
9.7034316159509331
21
19.76565265219341
0
LINE
8
Layer_1
6
CONTINUOUS
62
7
10
2.036249271434599
20
11.971191087410631
11
3.4526567066297389
21
13.387598522542135
0
LINE
8
Layer_1
6
CONTINUOUS
62
7
10
3.8155225065673903
20
13.750464322463557
11
5.3503738185738143
21
15.285315634401059
0
LINE
8
Layer_1
6
CONTINUOUS
62
7
10
5.4285650404166859
20
15.363506856240434
11
6.472075165657543
21
16.407016981434452
0
LINE
8
Layer_1
6
CONTINUOUS
62
7
10
6.6652050307118316
20
16.600146846480015
11
7.584868526295736
21
17.51981034202268
0
LINE
8
Layer_1
6
CONTINUOUS
62
7
10
8.0706503775527949
20
18.005592193257883
11
9.7383529736358128
21
19.673294789266038
0
LINE
8
Layer_1
6
CONTINUOUS
62
7
10
2.1775250891203655
20
11.985187684479342
11
3.6389241873063725
21
13.446586782599724
0
LINE
8
Layer_1
6
CONTINUOUS
62
7
10
3.9818062940495906
20
13.789468889327509
11
6.4933653529346884
21
16.301027948099886
0
LINE
8
Layer_1
6
CONTINUOUS
62
7
10
6.6795375983318763
20
16.487200193488746
11
7.5518301762951978
21
17.359492771412874
0
LINE
8
Layer_1
6
CONTINUOUS
62
7
10
7.9913060346685825
20
17.798968629766563
11
9.7590355589751994
21
19.566698153993741
0
LINE
8
Layer_1
6
CONTINUOUS
62
7
10
2.3292507313049668
20
12.009634106046406
11
3.8243946158522704
21
13.504777990526549
0
LINE
8
Layer_1
6
CONTINUOUS
62
7
10
4.1480900815316772
20
13.828473456191432
11
6.514655540211777
21
16.195038914765263
0
LINE
8
Layer_1
6
CONTINUOUS
62
7
10
6.6940498018046242
20
16.374433176350067
11
7.5168510736222629
21
17.197234448130757
0
LINE
8
Layer_1
6
CONTINUOUS
62
7
10
7.9167664445001265
20
17.597149818990715
11
9.763350265208544
21
19.443733639616198
0
LINE
8
Layer_1
6
CONTINUOUS
62
7
10
2.4928671835970135
20
12.045971337720374
11
4.0097761547802975
21
13.56288030883556
0
LINE
8
Layer_1
6
CONTINUOUS
62
7
10
4.3143738690137639
20
13.867478023055355
11
6.5622428003727009
21
16.11534695431331
0
LINE
8
Layer_1
6
CONTINUOUS
62
7
10
6.7085620052772583
20
16.261666159211359
11
7.4810241365581192
21
17.034128290457517
0
LINE
8
Layer_1
6
CONTINUOUS
62
7
10
7.8475899789653454
20
17.400694132848258
11
9.7565702119545108
21
19.309674365751761
0
LINE
8
Layer_1
6
CONTINUOUS
62
7
10
2.6645506039915858
20
12.090375537496527
11
4.1944451446782409
21
13.620270078114544
0
LINE
8
Layer_1
6
CONTINUOUS
62
7
10
4.4175080277852317
20
13.843332961211445
11
5.6987853189244788
21
15.124610252293166
0
LINE
8
Layer_1
6
CONTINUOUS
62
7
10
6.2435768877852524
20
15.669401821129526
11
7.4444019151164298
21
16.870226848406787
0
LINE
8
Layer_1
6
CONTINUOUS
62
7
10
7.7868213329689411
20
17.212646266243922
11
9.7335533033597699
21
19.159378236547383
0
LINE
8
Layer_1
6
CONTINUOUS
62
7
10
2.8458837172524341
20
12.14442943013853
11
4.3792463915334565
21
13.677792104350715
0
LINE
8
Layer_1
6
CONTINUOUS
62
7
10
4.4417369639521667
20
13.740282676766583
11
5.6447206523199611
21
14.943266365080376
0
LINE
8
Layer_1
6
CONTINUOUS
62
7
10
6.3955081546185397
20
15.694053867345247
11
7.4055664815451792
21
16.704112194226497
0
LINE
8
Layer_1
6
CONTINUOUS
62
7
10
7.7273020319396437
20
17.025847744606551
11
9.6966834607857777
21
18.995229173364322
0
LINE
8
Layer_1
6
CONTINUOUS
62
7
10
3.0423050409426082
20
12.213571533209205
11
5.6234383336671385
21
14.794704825817774
0
LINE
8
Layer_1
6
CONTINUOUS
62
7
10
6.5672625127756419
20
15.738529004883873
11
7.3773204858942449
21
16.548586977966181
0
LINE
8
Layer_1
6
CONTINUOUS
62
7
10
7.6677827309104032
20
16.839049222969265
11
9.6463392290282854
21
18.817605720998273
0
LINE
8
Layer_1
6
CONTINUOUS
62
7
10
3.2485906166214136
20
12.292577888268028
11
5.6059037499051101
21
14.649891021445825
0
LINE
8
Layer_1
6
CONTINUOUS
62
7
10
6.739932376381887
20
15.783919647871699
11
7.4321957289690204
21
16.476183000427767
0
LINE
8
Layer_1
6
CONTINUOUS
62
7
10
7.6082634298811627
20
16.652250701331923
11
9.5830075439316715
21
18.626994815293784
0
LINE
8
Layer_1
6
CONTINUOUS
62
7
10
3.4643316545555081
20
12.381039705581657
11
5.5940319330485408
21
14.510739983979107
0
LINE
8
Layer_1
6
CONTINUOUS
62
7
10
6.8937890898737919
20
15.810497140746037
11
9.5034646724918161
21
18.420172723246822
0
LINE
8
Layer_1
6
CONTINUOUS
62
7
10
3.6950614247455746
20
12.484490255150689
11
5.5912410622514699
21
14.380669892571404
0
LINE
8
Layer_1
6
CONTINUOUS
62
7
10
7.0371409626433206
20
15.82656979289834
11
9.4071212945136722
21
18.196550124662281
0
LINE
8
Layer_1
6
CONTINUOUS
62
7
10
3.9427105631382346
20
12.604860172921434
11
5.5996595034524148
21
14.261809113161263
0
LINE
8
Layer_1
6
CONTINUOUS
62
7
10
7.1689923859130431
20
15.831141995551405
11
9.2925552645985476
21
17.954704874141584
0
LINE
8
Layer_1
6
CONTINUOUS
62
7
10
4.1936897816592023
20
12.728560170820458
11
5.6206467807116951
21
14.155517169808888
0
LINE
8
Layer_1
6
CONTINUOUS
62
7
10
7.278045616994234
20
15.812916006017019
11
9.164321087999781
21
17.699191476937898
0
LINE
8
Layer_1
6
CONTINUOUS
62
7
10
2.6092009281792343
20
11.016792096800913
11
3.7998106644417931
21
12.20740183301001
0
LINE
8
Layer_1
6
CONTINUOUS
62
7
10
4.3751212481132598
20
12.78271241665567
11
5.6455210711304176
21
14.053112239615785
0
LINE
8
Layer_1
6
CONTINUOUS
62
7
10
7.3786820032378273
20
15.786273171645377
11
9.0204045758984535
21
17.427995744232305
0
LINE
8
Layer_1
6
CONTINUOUS
62
7
10
2.4997576034299982
20
10.780069551445877
11
4.192959395835544
21
12.473271343775451
0
LINE
8
Layer_1
6
CONTINUOUS
62
7
10
4.4361331330830467
20
12.716445081012012
11
5.6734531629879825
21
13.953765110861355
0
LINE
8
Layer_1
6
CONTINUOUS
62
7
10
7.4755813966766027
20
15.755893344469058
11
8.8462798395256641
21
17.126591787256586
0
LINE
8
Layer_1
6
CONTINUOUS
62
7
10
2.4687709984818866
20
10.621803725888498
11
5.7048103979733469
21
13.857843125234609
0
LINE
8
Layer_1
6
CONTINUOUS
62
7
10
7.5701573531692929
20
15.723190080346825
11
8.6490564603184907
21
16.802089187447564
0
LINE
8
Layer_1
6
CONTINUOUS
62
7
10
2.4715219857502575
20
10.497275492545953
11
5.741973633307623
21
13.76772713995652
0
LINE
8
Layer_1
6
CONTINUOUS
62
7
10
7.6612155802667985
20
15.686969086829521
11
8.6749397643323505
21
16.70069327084957
0
LINE
8
Layer_1
6
CONTINUOUS
62
7
10
9.2228588494859309
20
17.248612355978537
11
10.597930306184082
21
18.623683812614985
0
LINE
8
Layer_1
6
CONTINUOUS
62
7
10
2.4905902122002317
20
10.389064498384386
11
5.7915274906674199
21
13.690001776703355
0
LINE
8
Layer_1
6
CONTINUOUS
62
7
10
7.7479847897510012
20
15.646459075699141
11
8.7812799363287013
21
16.6797542222304
0
LINE
8
Layer_1
6
CONTINUOUS
62
7
10
8.8519513135472039
20
16.750425599445776
11
10.865869418129535
21
18.764343703937612
0
LINE
8
Layer_1
6
CONTINUOUS
62
7
10
2.5272803467483413
20
10.298475412320101
11
5.8567105606286987
21
13.627905626051046
0
LINE
8
Layer_1
6
CONTINUOUS
62
7
10
7.8306232142748513
20
15.60181827960858
11
11.041643217792227
21
18.812838282981687
0
LINE
8
Layer_1
6
CONTINUOUS
62
7
10
2.5756536444902736
20
10.219569489449128
11
5.928645153455534
21
13.572560998263953
0
LINE
8
Layer_1
6
CONTINUOUS
62
7
10
7.9084725521765336
20
15.552388396896021
11
11.179332614107238
21
18.823248458679842
0
LINE
8
Layer_1
6
CONTINUOUS
62
7
10
2.6297469512054477
20
10.14638357555117
11
6.0005623767646057
21
13.51719900095901
0
LINE
8
Layer_1
6
CONTINUOUS
62
7
10
7.98034481703354
20
15.49698144113907
11
11.296390844703581
21
18.813027468660238
0
LINE
8
Layer_1
6
CONTINUOUS
62
7
10
2.6894357073687729
20
10.078793111101078
11
6.0761442560343539
21
13.465501659614631
0
LINE
8
Layer_1
6
CONTINUOUS
62
7
10
8.044124095827442
20
15.433481499319356
11
11.398982723824304
21
18.788340127165611
0
LINE
8
Layer_1
6
CONTINUOUS
62
7
10
2.7615573657618597
20
10.023635548880208
11
6.1549845448057567
21
13.417062727771821
0
LINE
8
Layer_1
6
CONTINUOUS
62
7
10
8.1007660175307592
20
15.362844200409427
11
11.489305920144488
21
18.751384102871015
0
LINE
8
Layer_1
6
CONTINUOUS
62
7
10
2.8493780234965129
20
9.9841769860002785
11
6.236604557791793
21
13.371403520143446
0
LINE
8
Layer_1
6
CONTINUOUS
62
7
10
8.1520800524685342
20
15.286879014734183
11
11.570129310899063
21
18.704928273011234
0
LINE
8
Layer_1
6
CONTINUOUS
62
7
10
2.952551079355203
20
9.9600708212435336
11
6.321618389612695
21
13.329138131349794
0
LINE
8
Layer_1
6
CONTINUOUS
62
7
10
8.1976932039111148
20
15.205212945564057
11
11.638498575642643
21
18.646018317141085
0
LINE
8
Layer_1
6
CONTINUOUS
62
7
10
3.0766790200795526
20
9.9569195413516525
11
6.4129535296423228
21
13.29319405076464
0
LINE
8
Layer_1
6
CONTINUOUS
62
7
10
8.2356498651466268
20
15.115890386187118
11
8.6243038766839391
21
15.504544397706951
0
LINE
8
Layer_1
6
CONTINUOUS
62
7
10
8.8579662894766216
20
15.738206810489146
11
11.698231915059068
21
18.578472435944093
0
LINE
8
Layer_1
6
CONTINUOUS
62
7
10
3.2329614574672974
20
9.9859227581216317
11
6.5123206906515065
21
13.265281991158616
0
LINE
8
Layer_1
6
CONTINUOUS
62
7
10
8.2640618616564439
20
15.017023162084882
11
8.6770381253948585
21
15.429999425804795
0
LINE
8
Layer_1
6
CONTINUOUS
62
7
10
9.309827743261053
20
16.062789043642539
11
11.727727105106112
21
18.480688405379112
0
LINE
8
Layer_1
6
CONTINUOUS
62
7
10
3.4333712227244177
20
10.059053302759082
11
6.6222670378771795
21
13.247949117768627
0
LINE
8
Layer_1
6
CONTINUOUS
62
7
10
8.2893959225378921
20
14.915078002354505
11
8.8518114925117288
21
15.477493572303132
0
LINE
8
Layer_1
6
CONTINUOUS
62
7
10
9.7933653807898509
20
16.419047460538962
11
11.687003405230769
21
18.312685484894843
0
LINE
8
Layer_1
6
CONTINUOUS
62
7
10
3.7316555173409824
20
10.230058376751543
11
5.4536291845608389
21
11.952032043894093
0
LINE
8
Layer_1
6
CONTINUOUS
62
7
10
5.8175763770803997
20
12.315979236397339
11
6.7398016165575427
21
13.238204475833015
0
LINE
8
Layer_1
6
CONTINUOUS
62
7
10
8.3148830422397282
20
14.813285901444459
11
9.1538942965325987
21
15.652297155699642
0
LINE
8
Layer_1
6
CONTINUOUS
62
7
10
10.384111837385944
20
16.882514696497822
11
11.55766385995787
21
18.056066719017025
0
LINE
8
Layer_1
6
CONTINUOUS
62
7
10
5.8863478344293299
20
12.257471473132398
11
6.8679221596888169
21
13.239045798347831
0
LINE
8
Layer_1
6
CONTINUOUS
62
7
10
8.3386187182461526
20
14.709742356839115
11
9.4516848589398705
21
15.822808497482868
0
LINE
8
Layer_1
6
CONTINUOUS
62
7
10
5.7924849565716272
20
12.036329374668156
11
7.0050522522575989
21
13.248896670299729
0
LINE
8
Layer_1
6
CONTINUOUS
62
7
10
8.3578566337504867
20
14.601701051731851
11
9.7390556304110873
21
15.982900048330436
0
LINE
8
Layer_1
6
CONTINUOUS
62
7
10
5.5491093177427615
20
11.665674515239573
11
7.1427303824414139
21
13.259295579866631
0
LINE
8
Layer_1
6
CONTINUOUS
62
7
10
8.3717133896219025
20
14.488278586991953
11
10.013074430035488
21
16.129639627331898
0
LINE
8
Layer_1
6
CONTINUOUS
62
7
10
5.3738777085725928
20
11.363163685466503
11
7.2834544070910852
21
13.272740383899304
0
LINE
8
Layer_1
6
CONTINUOUS
62
7
10
8.3752503856358089
20
14.364536362395
11
10.271415963498441
21
16.260701940172481
0
LINE
8
Layer_1
6
CONTINUOUS
62
7
10
5.2271554186100389
20
11.089162174899855
11
7.4410430957015024
21
13.303049851891899
0
LINE
8
Layer_1
6
CONTINUOUS
62
7
10
8.3460685479877839
20
14.208075304137509
11
10.512978354763789
21
16.374985110816255
0
LINE
8
Layer_1
6
CONTINUOUS
62
7
10
5.1063162791297145
20
10.841043814814242
11
7.0030761298800144
21
12.73780366547939
0
LINE
8
Layer_1
6
CONTINUOUS
62
7
10
7.1476181967505568
20
12.882345732343424
11
7.6561046831343447
21
13.390832218704361
0
LINE
8
Layer_1
6
CONTINUOUS
62
7
10
8.2877555672410494
20
14.022483102782758
11
10.739464162715365
21
16.474191698146939
0
LINE
8
Layer_1
6
CONTINUOUS
62
7
10
5.0078573014059771
20
10.615305616484193
11
6.9792641682871022
21
12.586712483276813
0
LINE
8
Layer_1
6
CONTINUOUS
62
7
10
7.2085373761069604
20
12.815985691086354
11
10.954039486524437
21
16.561487801335744
0
LINE
8
Layer_1
6
CONTINUOUS
62
7
10
4.9286191955481513
20
10.408788290019203
11
6.9554522066941331
21
12.435621301074235
0
LINE
8
Layer_1
6
CONTINUOUS
62
7
10
7.2204305355042493
20
12.700599629872471
11
11.160752772928049
21
16.640921867119317
0
LINE
8
Layer_1
6
CONTINUOUS
62
7
10
4.8709484960617715
20
10.223838369924721
11
6.9313153098048019
21
12.28420518357521
0
LINE
8
Layer_1
6
CONTINUOUS
62
7
10
7.2305779893282534
20
12.583467863085247
11
9.5501125793483084
21
14.903002453001108
0
LINE
8
Layer_1
6
CONTINUOUS
62
7
10
9.7080671742312461
20
15.060957047877025
11
11.36199932228061
21
16.714889195852066
0
LINE
8
Layer_1
6
CONTINUOUS
62
7
10
4.8259339743375449
20
10.051544627591824
11
6.9069998143118028
21
12.132610467472603
0
LINE
8
Layer_1
6
CONTINUOUS
62
7
10
7.2407254431523143
20
12.466336096298079
11
9.6185846894514953
21
14.844195342490565
0
LINE
8
Layer_1
6
CONTINUOUS
62
7
10
9.8782619358075294
20
15.103872588834975
11
11.559288507960105
21
16.784899160912033
0
LINE
8
Layer_1
6
CONTINUOUS
62
7
10
4.7934043287965551
20
9.8917357614415096
11
6.8826843188188604
21
11.981015751370023
0
LINE
8
Layer_1
6
CONTINUOUS
62
7
10
7.2510514495474467
20
12.349382882082068
11
8.8966855343734892
21
13.995016966834271
0
LINE
8
Layer_1
6
CONTINUOUS
62
7
10
9.0478537166392243
20
14.146185149093213
11
9.761148304904907
21
14.859479737326865
0
LINE
8
Layer_1
6
CONTINUOUS
62
7
10
10.048456697383813
20
15.146788129792867
11
11.747875268395603
21
16.846206700728402
0
LINE
8
Layer_1
6
CONTINUOUS
62
7
10
4.7756965154800923
20
9.7467487275151257
11
6.8578339050937416
21
11.828886117035324
0
LINE
8
Layer_1
6
CONTINUOUS
62
7
10
7.2618959387526161
20
12.232948150676066
11
7.8107521218868214
21
12.78180433378563
0
LINE
8
Layer_1
6
CONTINUOUS
62
7
10
7.9105610160783613
20
12.88161322797265
11
8.9785119779413662
21
13.949564189787765
0
LINE
8
Layer_1
6
CONTINUOUS
62
7
10
9.1673265565587485
20
14.138378768396677
11
9.9135561325442723
21
14.884608344348635
0
LINE
8
Layer_1
6
CONTINUOUS
62
7
10
10.218651458960153
20
15.189703670750816
11
11.914922440332077
21
16.885974652046627
0
LINE
8
Layer_1
6
CONTINUOUS
62
7
10
4.7698824524735528
20
9.6136554438981534
11
6.8319209748740946
21
11.675693966206069
0
LINE
8
Layer_1
6
CONTINUOUS
62
7
10
7.2730758532695177
20
12.11684884458171
11
7.843060343515333
21
12.686833334801946
0
LINE
8
Layer_1
6
CONTINUOUS
62
7
10
7.9934197081961997
20
12.837192699476077
11
9.089890542732121
21
13.933663533962743
0
LINE
8
Layer_1
6
CONTINUOUS
62
7
10
9.2867993964783295
20
14.130572387700084
11
10.065963960183637
21
14.909736951370462
0
LINE
8
Layer_1
6
CONTINUOUS
62
7
10
10.388846220536436
20
15.232619211708766
11
12.068572892865973
21
16.912345883962843
0
LINE
8
Layer_1
6
CONTINUOUS
62
7
10
4.7747605288407158
20
9.4912542996543152
11
6.8044834880855092
21
11.520977258808074
0
LINE
8
Layer_1
6
CONTINUOUS
62
7
10
7.2846521566723368
20
12.001145927373301
11
7.8818649756600507
21
12.598358746334185
0
LINE
8
Layer_1
6
CONTINUOUS
62
7
10
8.0404137103612925
20
12.756907481028321
11
9.2012691075228759
21
13.917762878137779
0
LINE
8
Layer_1
6
CONTINUOUS
62
7
10
9.4062722363978537
20
14.122766007003548
11
10.218371787822946
21
14.934865558392261
0
LINE
8
Layer_1
6
CONTINUOUS
62
7
10
10.55904098211272
20
15.275534752666687
11
12.217586141697439
21
16.934079912176998
0
LINE
8
Layer_1
6
CONTINUOUS
62
7
10
4.7939994788741274
20
9.383214029076214
11
6.7735257392075141
21
11.362740289320726
0
LINE
8
Layer_1
6
CONTINUOUS
62
7
10
7.2968298214224205
20
11.886044371512128
11
7.9206696078047116
21
12.509884157866395
0
LINE
8
Layer_1
6
CONTINUOUS
62
7
10
8.0869676027906507
20
12.676182152844916
11
9.3126476723135738
21
13.901862222312815
0
LINE
8
Layer_1
6
CONTINUOUS
62
7
10
9.5257450763173779
20
14.114959626307012
11
10.370779615462368
21
14.959994165414059
0
LINE
8
Layer_1
6
CONTINUOUS
62
7
10
10.736041595529912
20
15.325256145465204
11
12.352912818665459
21
16.942127368528162
0
LINE
8
Layer_1
6
CONTINUOUS
62
7
10
4.8181902688104401
20
9.2801255984007582
11
6.7396093506753232
21
11.201544680179353
0
LINE
8
Layer_1
6
CONTINUOUS
62
7
10
7.3093305027343831
20
11.771265832212833
11
7.9594742399493725
21
12.421409569398634
0
LINE
8
Layer_1
6
CONTINUOUS
62
7
10
8.1335214952201227
20
12.595456824661539
11
8.7283464390541212
21
13.190281768468878
0
LINE
8
Layer_1
6
CONTINUOUS
62
7
10
8.7504614489917003
20
13.212396778405434
11
9.4240262371043286
21
13.885961566487822
0
LINE
8
Layer_1
6
CONTINUOUS
62
7
10
9.6455417758288036
20
14.107477105202349
11
10.522439981431774
21
14.984375310765927
0
LINE
8
Layer_1
6
CONTINUOUS
62
7
10
10.915873450765105
20
15.377808780081637
11
12.475069587206747
21
16.937004916453247
0
LINE
8
Layer_1
6
CONTINUOUS
62
7
10
4.8544467742843267
20
9.1891028832622226
11
6.7031074860152557
21
11.03776359491016
0
LINE
8
Layer_1
6
CONTINUOUS
62
7
10
7.3227517851719881
20
11.657407894039096
11
7.9982788720940334
21
12.332934980930816
0
LINE
8
Layer_1
6
CONTINUOUS
62
7
10
8.1800753876494241
20
12.514731496478078
11
8.7322308720406454
21
13.066886980844458
0
LINE
8
Layer_1
6
CONTINUOUS
62
7
10
8.8739464451041954
20
13.208602553901699
11
9.5329175133782655
21
13.867573622146153
0
LINE
8
Layer_1
6
CONTINUOUS
62
7
10
9.7660249112407769
20
14.100681019998206
11
10.67133772258336
21
15.005993831300145
0
LINE
8
Layer_1
6
CONTINUOUS
62
7
10
11.098788614379146
20
15.43344472307669
11
12.58131734007452
21
16.9159734487055
0
LINE
8
Layer_1
6
CONTINUOUS
62
7
10
4.8988142456005335
20
9.1061911339657229
11
6.6640651499848786
21
10.871442038270857
0
LINE
8
Layer_1
6
CONTINUOUS
62
7
10
7.336361434114508
20
11.543738322370274
11
8.0370835042386943
21
12.244460392463054
0
LINE
8
Layer_1
6
CONTINUOUS
62
7
10
8.2266292800788392
20
12.434006168294673
11
8.803830286604466
21
13.011207174794407
0
LINE
8
Layer_1
6
CONTINUOUS
62
7
10
8.9539917569243244
20
13.161368645107473
11
9.6415363152938198
21
13.848913203446131
0
LINE
8
Layer_1
6
CONTINUOUS
62
7
10
9.8865080466527502
20
14.093884934794062
11
10.82015269243476
21
15.027529580534093
0
LINE
8
Layer_1
6
CONTINUOUS
62
7
10
11.286618331708894
20
15.493995219787365
11
12.671339884078861
21
16.878716772095117
0
LINE
8
Layer_1
6
CONTINUOUS
62
7
10
4.95358660245995
20
9.033684270212035
11
6.6225637081582249
21
10.702661375835362
0
LINE
8
Layer_1
6
CONTINUOUS
62
7
10
7.3512482005274364
20
11.431345868171832
11
8.0758881363833552
21
12.155985803995236
0
LINE
8
Layer_1
6
CONTINUOUS
62
7
10
8.2731831725082543
20
12.353280840111296
11
8.8777971848957691
21
12.95789485247164
0
LINE
8
Layer_1
6
CONTINUOUS
62
7
10
9.0340370687442828
20
13.114134736313133
11
9.7498141074093496
21
13.829911774946083
0
LINE
8
Layer_1
6
CONTINUOUS
62
7
10
10.008252801551635
20
14.088350469076772
11
10.965958035523045
21
15.046055703005152
0
LINE
8
Layer_1
6
CONTINUOUS
62
7
10
11.480540514756115
20
15.560638182215143
11
12.752979991460847
21
16.833077658862749
0
LINE
8
Layer_1
6
CONTINUOUS
62
7
10
5.0155938409907321
20
8.9684122881292865
11
6.5785019651637526
21
10.531320412232134
0
LINE
8
Layer_1
6
CONTINUOUS
62
7
10
7.3663461757409436
20
11.31916462277394
11
8.1146927685280161
21
12.067511215527446
0
LINE
8
Layer_1
6
CONTINUOUS
62
7
10
8.3199134238560646
20
12.272731870846229
11
8.9517640831870153
21
12.904582530148843
0
LINE
8
Layer_1
6
CONTINUOUS
62
7
10
9.1140823805642981
20
13.066900827518879
11
9.8579705633980552
21
13.810789010319155
0
LINE
8
Layer_1
6
CONTINUOUS
62
7
10
10.130443106667826
20
14.083261553576705
11
11.111763378611329
21
15.064581825476154
0
LINE
8
Layer_1
6
CONTINUOUS
62
7
10
11.685388554965016
20
15.638207001804119
11
12.831772043491242
21
16.784590490278873
0
LINE
8
Layer_1
6
CONTINUOUS
62
7
10
5.0885979308288825
20
8.9141371573534514
11
6.5308291236215723
21
10.356368350081397
0
LINE
8
Layer_1
6
CONTINUOUS
62
7
10
7.3826891079277175
20
11.208228334349286
11
8.153497400672677
21
11.979036627059685
0
LINE
8
Layer_1
6
CONTINUOUS
62
7
10
8.3671592873720897
20
12.192698513749434
11
9.0257309814782616
21
12.851270207826104
0
LINE
8
Layer_1
6
CONTINUOUS
62
7
10
9.1941808377447387
20
13.019720064084964
11
9.9654507160112189
21
13.790989942316799
0
LINE
8
Layer_1
6
CONTINUOUS
62
7
10
10.25292581044863
20
14.078465036741335
11
11.253862623898215
21
15.079401850146013
0
LINE
8
Layer_1
6
CONTINUOUS
62
7
10
11.903235830972903
20
15.728775057191569
11
12.890133901944409
21
16.715673128118709
0
LINE
8
Layer_1
6
CONTINUOUS
62
7
10
5.1701977636674883
20
8.8684577695777023
11
6.4777004448958451
21
10.17596045074734
0
LINE
8
Layer_1
6
CONTINUOUS
62
7
10
7.3996722898551184
20
11.097932295665203
11
8.1923020328173379
21
11.890562038591867
0
LINE
8
Layer_1
6
CONTINUOUS
62
7
10
8.4144051508881148
20
12.112665156652582
11
9.0996978797695647
21
12.797957885503337
0
LINE
8
Layer_1
6
CONTINUOUS
62
7
10
9.2743989638459539
20
12.972658969571881
11
10.072413197584069
21
13.770673203274185
0
LINE
8
Layer_1
6
CONTINUOUS
62
7
10
10.376640590018496
20
14.07490059569497
11
11.394969625341957
21
15.093229630972672
0
LINE
8
Layer_1
6
CONTINUOUS
62
7
10
12.13573375606461
20
15.833993761662072
11
12.922272625572703
21
16.620532631134836
0
LINE
8
Layer_1
6
CONTINUOUS
62
7
10
5.2601082009224456
20
8.8310889862179067
11
6.4158461702276668
21
9.9868269554712015
0
LINE
8
Layer_1
6
CONTINUOUS
62
7
10
7.4184162246207848
20
10.989397009819299
11
8.2311066649620557
21
11.802087450124077
0
LINE
8
Layer_1
6
CONTINUOUS
62
7
10
8.4616510144040831
20
12.032631799555759
11
9.1736647780608109
21
12.744645563180541
0
LINE
8
Layer_1
6
CONTINUOUS
62
7
10
9.354617089947169
20
12.925597875058799
11
10.17887416696658
21
13.749854952041204
0
LINE
8
Layer_1
6
CONTINUOUS
62
7
10
10.500885431447159
20
14.071866216507317
11
11.535081603678691
21
15.106062388692408
0
LINE
8
Layer_1
6
CONTINUOUS
62
7
10
12.40149718034138
20
15.972477965316216
11
12.930498741375516
21
16.501479526326591
0
LINE
8
Layer_1
6
CONTINUOUS
62
7
10
5.3543086815085985
20
8.7980102461890226
11
6.341082770368871
21
9.7847843350050425
0
LINE
8
Layer_1
6
CONTINUOUS
62
7
10
7.437160159386508
20
10.880861723973453
11
8.2688287573351431
21
11.712530321884714
0
LINE
8
Layer_1
6
CONTINUOUS
62
7
10
8.509635113453669
20
11.953336677992496
11
9.247631676352114
21
12.691333240857801
0
LINE
8
Layer_1
6
CONTINUOUS
62
7
10
9.4348352160483842
20
12.878536780545659
11
10.28420406938011
21
13.727905633839271
0
LINE
8
Layer_1
6
CONTINUOUS
62
7
10
10.625504558123112
20
14.069206122566925
11
11.668960679268821
21
15.112662243665767
0
LINE
8
Layer_1
6
CONTINUOUS
62
7
10
5.4607492717348123
20
8.7771716157997446
11
6.2449904990181722
21
9.5614128430479468
0
LINE
8
Layer_1
6
CONTINUOUS
62
7
10
7.4559040941521175
20
10.772326438127578
11
8.3053276281328294
21
11.62174997207012
0
LINE
8
Layer_1
6
CONTINUOUS
62
7
10
8.5578587054012587
20
11.874281049327152
11
9.3209150393576579
21
12.637337383249275
0
LINE
8
Layer_1
6
CONTINUOUS
62
7
10
9.5152626152743665
20
12.831684959157315
11
10.388531961704075
21
13.704954305547773
0
LINE
8
Layer_1
6
CONTINUOUS
62
7
10
10.751130272634555
20
14.067552616461995
11
11.802500680867581
21
15.118923024647842
0
LINE
8
Layer_1
6
CONTINUOUS
62
7
10
5.610578612309439
20
8.7997217357569752
11
6.1084412083416737
21
9.2975843317668705
0
LINE
8
Layer_1
6
CONTINUOUS
62
7
10
7.4746480289177839
20
10.663791152281675
11
8.3410897410182656
21
11.530232864343162
0
LINE
8
Layer_1
6
CONTINUOUS
62
7
10
8.6066418852662991
20
11.795785008579344
11
9.3934687703711575
21
12.582611893648874
0
LINE
8
Layer_1
6
CONTINUOUS
62
7
10
9.5959871776112777
20
12.785130300879899
11
10.491819380044831
21
13.680962503273264
0
LINE
8
Layer_1
6
CONTINUOUS
62
7
10
10.877299635008683
20
14.06644275821975
11
11.93355357744656
21
15.12269670061022
0
LINE
8
Layer_1
6
CONTINUOUS
62
7
10
7.4935334512264831
20
10.555397353978776
11
8.3759765540100375
21
11.437840456722711
0
LINE
8
Layer_1
6
CONTINUOUS
62
7
10
8.6558878442648961
20
11.717751746965007
11
9.4653397555063066
21
12.527203658170038
0
LINE
8
Layer_1
6
CONTINUOUS
62
7
10
9.6769658847339315
20
12.73882978738817
11
10.594034556241411
21
13.655898458854494
0
LINE
8
Layer_1
6
CONTINUOUS
62
7
10
11.004114035744692
20
14.065977938339358
11
12.064255357145441
21
15.126119259692501
0
LINE
8
Layer_1
6
CONTINUOUS
62
7
10
7.5134461623439392
20
10.448030844484606
11
8.410139440549699
21
11.344724122650092
0
LINE
8
Layer_1
6
CONTINUOUS
62
7
10
8.705530337219102
20
11.640115019306307
11
9.5369749468403029
21
12.471559628890105
0
LINE
8
Layer_1
6
CONTINUOUS
62
7
10
9.7582316346142193
20
12.692816316654131
11
10.695140381248507
21
13.629725063246326
0
LINE
8
Layer_1
6
CONTINUOUS
62
7
10
11.13215662318413
20
14.06674130516231
11
12.189115481092756
21
15.1237001630235
0
LINE
8
Layer_1
6
CONTINUOUS
62
7
10
7.5341995099300334
20
10.341504971459045
11
8.4435441114080731
21
11.250849572896271
0
LINE
8
Layer_1
6
CONTINUOUS
62
7
10
8.7551728301733647
20
11.562478291647579
11
9.6077920654262243
21
12.415097526862155
0
LINE
8
Layer_1
6
CONTINUOUS
62
7
10
9.8398674982286138
20
12.647172959654114
11
10.795740988333648
21
13.603046449716288
0
LINE
8
Layer_1
6
CONTINUOUS
62
7
10
11.26089577520969
20
14.068201236571383
11
12.313975605040071
21
15.121281066354499
0
LINE
8
Layer_1
6
CONTINUOUS
62
7
10
7.5561081184970931
20
10.236134359414393
11
8.4761536021695179
21
11.156179843045578
0
LINE
8
Layer_1
6
CONTINUOUS
62
7
10
8.8050632404230669
20
11.485089481284319
11
9.6784266523242763
21
12.358452893146335
0
LINE
8
Layer_1
6
CONTINUOUS
62
7
10
9.9218303808369228
20
12.601856621648039
11
10.896160489663089
21
13.576186730430436
0
LINE
8
Layer_1
6
CONTINUOUS
62
7
10
11.390599059522742
20
14.070625300267892
11
12.432877037780088
21
15.112903278478512
0
LINE
8
Layer_1
6
CONTINUOUS
62
7
10
7.5793506462431424
20
10.132097666548702
11
8.5076306350589448
21
11.06037765532281
0
LINE
8
Layer_1
6
CONTINUOUS
62
7
10
8.8556243719513645
20
11.408371392199626
11
9.7485237444988115
21
12.30127076470697
0
LINE
8
Layer_1
6
CONTINUOUS
62
7
10
10.004306566264631
20
12.557053586461336
11
10.995476496705578
21
13.548223516857774
0
LINE
8
Layer_1
6
CONTINUOUS
62
7
10
11.521775531514379
20
14.074522551642929
11
12.548785022324353
21
15.101532042406802
0
LINE
8
Layer_1
6
CONTINUOUS
62
7
10
7.6037922082042542
20
10.029260007897989
11
8.5381680385088998
21
10.963635838160684
0
LINE
8
Layer_1
6
CONTINUOUS
62
7
10
8.9067026788395083
20
11.332170478474779
11
9.8180496389936138
21
12.243517438587958
0
LINE
8
Layer_1
6
CONTINUOUS
62
7
10
10.087126290776723
20
12.512594090358959
11
11.093907026430827
21
13.519374825967873
0
LINE
8
Layer_1
6
CONTINUOUS
62
7
10
11.653894190186691
20
14.079361989698583
11
12.658838376602034
21
15.084306176068822
0
LINE
8
Layer_1
6
CONTINUOUS
62
7
10
7.6299244325888935
20
9.9281130116707743
11
8.5677540522989375
21
10.865942631338697
0
LINE
8
Layer_1
6
CONTINUOUS
62
7
10
8.9580838949460713
20
11.256272473968323
11
9.8870148561372844
21
12.185203435117756
0
LINE
8
Layer_1
6
CONTINUOUS
62
7
10
10.170636442181262
20
12.468825021149058
11
11.191400335872572
21
13.489588914794552
0
LINE
8
Layer_1
6
CONTINUOUS
62
7
10
11.787248715823296
20
14.085437294718531
11
12.766870306746682
21
15.065058885597921
0
LINE
8
Layer_1
6
CONTINUOUS
62
7
10
7.6575902413860604
20
9.8284995998559168
11
8.5963661135328948
21
10.767275471960659
0
LINE
8
Layer_1
6
CONTINUOUS
62
7
10
9.0104269416266902
20
11.181336300035866
11
9.9559800732808412
21
12.126889431647555
0
LINE
8
Layer_1
6
CONTINUOUS
62
7
10
10.254477509503999
20
12.425386867857299
11
11.287827365984811
21
13.458736724291754
0
LINE
8
Layer_1
6
CONTINUOUS
62
7
10
11.923975058419103
20
14.094884416697511
11
12.872756412941726
21
15.043665771177473
0
LINE
8
Layer_1
6
CONTINUOUS
62
7
10
7.6868488555000454
20
9.7304789933578775
11
8.6238220964492598
21
10.667452234265028
0
LINE
8
Layer_1
6
CONTINUOUS
62
7
10
9.0631655451376787
20
11.10679568293375
11
10.023498123631896
21
12.067128261384852
0
LINE
8
Layer_1
6
CONTINUOUS
62
7
10
10.339228637838744
20
12.382858775577517
11
11.383086135005385
21
13.426716272697348
0
LINE
8
Layer_1
6
CONTINUOUS
62
7
10
12.061137810921082
20
14.104767948582548
11
12.969928662481323
21
15.013558800101976
0
LINE
8
Layer_1
6
CONTINUOUS
62
7
10
7.7178548998163023
20
9.6342058170620533
11
8.6502080374256707
21
10.566558954629556
0
LINE
8
Layer_1
6
CONTINUOUS
62
7
10
9.1166464232503017
20
11.032997340433241
11
10.090904071668433
21
12.007254988807631
0
LINE
8
Layer_1
6
CONTINUOUS
62
7
10
10.424261440737496
20
12.340612357861744
11
11.476709380389877
21
13.39306029746686
0
LINE
8
Layer_1
6
CONTINUOUS
62
7
10
12.198391790465053
20
14.114742707509635
11
13.058809074399846
21
14.975159991405803
0
LINE
8
Layer_1
6
CONTINUOUS
62
7
10
7.7505609698622493
20
9.5396326664958053
11
8.675377416754543
21
10.464449113346603
0
LINE
8
Layer_1
6
CONTINUOUS
62
7
10
9.1710068610149165
20
10.960078557584751
11
10.157793987783009
21
11.946865684308563
0
LINE
8
Layer_1
6
CONTINUOUS
62
7
10
10.510477139350428
20
12.299548835860122
11
11.569060594855102
21
13.358132291317247
0
LINE
8
Layer_1
6
CONTINUOUS
62
7
10
12.341735662521501
20
14.130807358948971
11
13.142503604410649
21
14.931575300802109
0
LINE
8
Layer_1
6
CONTINUOUS
62
7
10
7.7847604602235947
20
9.4465529362449558
11
8.7005162189452676
21
10.362308694925531
0
LINE
8
Layer_1
6
CONTINUOUS
62
7
10
9.2258110567402127
20
10.887603532696858
11
10.223712285713532
21
11.885504761625356
0
LINE
8
Layer_1
6
CONTINUOUS
62
7
10
10.596879154087787
20
12.258671629982899
11
11.660272309275229
21
13.322064785122592
0
LINE
8
Layer_1
6
CONTINUOUS
62
7
10
12.49161657386361
20
14.153409049673598
11
13.21403210434454
21
14.875824580122128
0
LINE
8
Layer_1
6
CONTINUOUS
62
7
10
7.8211284844272768
20
9.3556417398362157
11
8.724295156136975
21
10.258808411505441
0
LINE
8
Layer_1
6
CONTINUOUS
62
7
10
9.2819919815533467
20
10.816505236896717
11
10.289630583643998
21
11.824143838942149
0
LINE
8
Layer_1
6
CONTINUOUS
62
7
10
10.684803232425566
20
12.219316487705981
11
11.750411917392455
21
13.284925172625037
0
LINE
8
Layer_1
6
CONTINUOUS
62
7
10
12.651850164832524
20
14.186363420024634
11
13.266109441203923
21
14.800622696368379
0
LINE
8
Layer_1
6
CONTINUOUS
62
7
10
7.8616919067875415
20
9.2689259415840013
11
8.7472690064087715
21
10.154503041165498
0
LINE
8
Layer_1
6
CONTINUOUS
62
7
10
9.3387507827424656
20
10.745984817472618
11
10.354466471809758
21
11.761700506494265
0
LINE
8
Layer_1
6
CONTINUOUS
62
7
10
10.772953102193753
20
12.180187136859473
11
11.839484232758878
21
13.246718267376735
0
LINE
8
Layer_1
6
CONTINUOUS
62
7
10
12.823302974708497
20
14.230537009282187
11
13.302852927169397
21
14.710086961721544
0
LINE
8
Layer_1
6
CONTINUOUS
62
7
10
7.9040691361230415
20
9.1840239503068801
11
8.768123635123743
21
10.048078449268786
0
LINE
8
Layer_1
6
CONTINUOUS
62
7
10
9.3964846261501407
20
10.676439440266989
11
10.418965537336476
21
11.698920351407395
0
LINE
8
Layer_1
6
CONTINUOUS
62
7
10
10.862660967287354
20
12.142615781338378
11
11.927496889277904
21
13.207451703281123
0
LINE
8
Layer_1
6
CONTINUOUS
62
7
10
13.023762824566347
20
14.30371763852034
11
13.302635280766481
21
14.582590094707939
0
LINE
8
Layer_1
6
CONTINUOUS
62
7
10
7.9521554505375889
20
9.1048310441085505
11
8.7844516223028108
21
9.9371272158363695
0
LINE
8
Layer_1
6
CONTINUOUS
62
7
10
9.4547483657202633
20
10.607423959223752
11
10.483185042192019
21
11.635860635649323
0
LINE
8
Layer_1
6
CONTINUOUS
62
7
10
10.952877638978862
20
12.105553232415105
11
12.014443335346471
21
13.167118928735022
0
LINE
8
Layer_1
6
CONTINUOUS
62
7
10
8.0016632941951684
20
9.0270596671531393
11
8.7999578299443897
21
9.8253542028665208
0
LINE
8
Layer_1
6
CONTINUOUS
62
7
10
9.5146019381370479
20
10.539998311027119
11
10.546106482997004
21
11.571502855840777
0
LINE
8
Layer_1
6
CONTINUOUS
62
7
10
11.044543419734453
20
12.069939792555829
11
12.09955246492359
21
13.124948837697588
0
LINE
8
Layer_1
6
CONTINUOUS
62
7
10
8.0587815109735175
20
8.9568986633182419
11
8.8083372572640428
21
9.706454409575116
0
LINE
8
Layer_1
6
CONTINUOUS
62
7
10
9.575979006435432
20
10.474096158712058
11
10.609027923802046
21
11.507145076032231
0
LINE
8
Layer_1
6
CONTINUOUS
62
7
10
11.137145839556581
20
12.035262991763091
11
12.181272452709209
21
13.079389604868823
0
LINE
8
Layer_1
6
CONTINUOUS
62
7
10
8.1220627214551087
20
8.8929006531862456
11
8.8149783807706399
21
9.5858163124707119
0
LINE
8
Layer_1
6
CONTINUOUS
62
7
10
9.6390602063336814
20
10.40989813799672
11
10.67045612387119
21
11.441294055487987
0
LINE
8
Layer_1
6
CONTINUOUS
62
7
10
11.230989939448136
20
12.001827871039694
11
12.262972959362514
21
13.033810890907802
0
LINE
8
Layer_1
6
CONTINUOUS
62
7
10
8.2002600189420036
20
8.8438187300589561
11
8.812777500720415
21
9.4563362118098269
0
LINE
8
Layer_1
6
CONTINUOUS
62
7
10
9.7037621697995746
20
10.347320880848997
11
10.730839350312749
21
11.374398061316043
0
LINE
8
Layer_1
6
CONTINUOUS
62
7
10
11.326336473689878
20
11.969895184666484
11
12.340657650151002
21
12.984216361081991
0
LINE
8
Layer_1
6
CONTINUOUS
62
7
10
8.2986766565837229
20
8.8149561470854962
11
8.7971927468211675
21
9.3134722373005729
0
LINE
8
Layer_1
6
CONTINUOUS
62
7
10
9.7701062557634941
20
10.286385746199272
11
10.790084924074392
21
11.306364414464326
0
LINE
8
Layer_1
6
CONTINUOUS
62
7
10
11.422594621505311
20
11.938874111866909
11
12.417307042688606
21
12.933586533005496
0
LINE
8
Layer_1
6
CONTINUOUS
62
7
10
8.4433123007763129
20
8.8323125706608892
11
8.7494759085657847
21
9.1384761784366617
0
LINE
8
Layer_1
6
CONTINUOUS
62
7
10
9.8381184978913438
20
10.227118767713279
11
10.848095505144386
21
11.237095774920959
0
LINE
8
Layer_1
6
CONTINUOUS
62
7
10
11.521166594140482
20
11.910166863886928
11
12.491974824458509
21
12.880975094161329
0
LINE
8
Layer_1
6
CONTINUOUS
62
7
10
9.9078298016184476
20
10.169550850826568
11
10.904770220854118
21
11.166491270017531
0
LINE
8
Layer_1
6
CONTINUOUS
62
7
10
11.621121126119931
20
11.882842175251113
11
12.562670187386971
21
12.824391236475918
0
LINE
8
Layer_1
6
CONTINUOUS
62
7
10
9.9792761911874095
20
10.113718019781601
11
10.960004093209989
21
11.094445921760155
0
LINE
8
Layer_1
6
CONTINUOUS
62
7
10
11.722705435565956
20
11.857147264081846
11
12.625646631425184
21
12.760088459900544
0
LINE
8
Layer_1
6
CONTINUOUS
62
7
10
10.052499110745316
20
10.059661718725494
11
11.012475622395527
21
11.019638230332617
0
LINE
8
Layer_1
6
CONTINUOUS
62
7
10
11.82609184456237
20
11.83325445246291
11
12.684390064110801
21
12.691552671972801
0
LINE
8
Layer_1
6
CONTINUOUS
62
7
10
10.127471085996149
20
10.007354473362199
11
11.062630948518404
21
10.94251433584256
0
LINE
8
Layer_1
6
CONTINUOUS
62
7
10
11.930280958607966
20
11.810164345893128
11
12.731744295971112
21
12.611627683220348
0
LINE
8
Layer_1
6
CONTINUOUS
62
7
10
10.204340894050006
20
9.9569450608019565
11
11.110404402388838
21
10.863008569100089
0
LINE
8
Layer_1
6
CONTINUOUS
62
7
10
12.035781639315928
20
11.788385805985627
11
12.772517490166365
21
12.52512165680298
0
LINE
8
Layer_1
6
CONTINUOUS
62
7
10
10.283907936262096
20
9.9092328823997775
11
11.154496073665939
21
10.779821019764455
0
LINE
8
Layer_1
6
CONTINUOUS
62
7
10
12.150441689883451
20
11.775766635937316
11
12.803260293602762
21
12.428585239627267
0
LINE
8
Layer_1
6
CONTINUOUS
62
7
10
10.366619852048871
20
9.8646655775720831
11
11.196402687776072
21
10.694448413261995
0
LINE
8
Layer_1
6
CONTINUOUS
62
7
10
12.274296694031193
20
11.772342419468742
11
12.821003618926341
21
12.31904934433939
0
LINE
8
Layer_1
6
CONTINUOUS
62
7
10
10.456478821398889
20
9.8272453263073487
11
11.234800762850227
21
10.605567267723785
0
LINE
8
Layer_1
6
CONTINUOUS
62
7
10
12.428623420018255
20
11.799389924838181
11
12.810979019884599
21
12.181745524687386
0
LINE
8
Layer_1
6
CONTINUOUS
62
7
10
10.552809825854524
20
9.7962971101479752
11
11.268498509199446
21
10.511985793460724
0
LINE
8
Layer_1
6
CONTINUOUS
62
7
10
10.657146989337093
20
9.7733550530151092
11
11.290275985503683
21
10.406484049153249
0
LINE
8
Layer_1
6
CONTINUOUS
62
7
10
10.786407047463456
20
9.775335890524957
11
11.289161043502588
21
10.278089886541551
0
LINE
8
Layer_1
6
CONTINUOUS
62
7
10
10.969696657405279
20
9.8313462798478497
11
11.227986703656597
21
10.089636326087572
0
POLYLINE
8
Layer_1
6
CONTINUOUS
62
7
66
1
10
0
20
0
70
129
40
0
41
0
0
VERTEX
8
Layer_1
6
CONTINUOUS
62
7
10
5.6272244260052844
20
14.131349572642648
0
VERTEX
8
Layer_1
6
CONTINUOUS
62
7
10
5.6016528596305761
20
14.242851122212812
0
VERTEX
8
Layer_1
6
CONTINUOUS
62
7
10
5.5943045820955533
20
14.517126284053326
0
VERTEX
8
Layer_1
6
CONTINUOUS
62
7
10
5.623031177858536
20
14.791561290064465
0
VERTEX
8
Layer_1
6
CONTINUOUS
62
7
10
5.6453587014844402
20
14.947325584261183
0
VERTEX
8
Layer_1
6
CONTINUOUS
62
7
10
5.6871661325425293
20
15.097983851332287
0
VERTEX
8
Layer_1
6
CONTINUOUS
62
7
10
5.7435377814606738
20
15.205905489180953
0
VERTEX
8
Layer_1
6
CONTINUOUS
62
7
10
5.8154360419104023
20
15.304640927536184
0
VERTEX
8
Layer_1
6
CONTINUOUS
62
7
10
5.872444890518409
20
15.361649776144134
0
VERTEX
8
Layer_1
6
CONTINUOUS
62
7
10
5.9152015269743856
20
15.4400369429801
0
VERTEX
8
Layer_1
6
CONTINUOUS
62
7
10
5.9737607091672515
20
15.484838955123831
0
VERTEX
8
Layer_1
6
CONTINUOUS
62
7
10
6.036345330266272
20
15.525550215892054
0
VERTEX
8
Layer_1
6
CONTINUOUS
62
7
10
6.0879382556944179
20
15.58162038856738
0
VERTEX
8
Layer_1
6
CONTINUOUS
62
7
10
6.1432369214062419
20
15.632441807031967
0
VERTEX
8
Layer_1
6
CONTINUOUS
62
7
10
6.2133553799547201
20
15.66190810270113
0
VERTEX
8
Layer_1
6
CONTINUOUS
62
7
10
6.2887837035049472
20
15.678096931498843
0
VERTEX
8
Layer_1
6
CONTINUOUS
62
7
10
6.4425333765980781
20
15.703702867791947
0
VERTEX
8
Layer_1
6
CONTINUOUS
62
7
10
6.7632081500178742
20
15.7892161407039
0
VERTEX
8
Layer_1
6
CONTINUOUS
62
7
10
7.1195134538176603
20
15.831972777159848
0
VERTEX
8
Layer_1
6
CONTINUOUS
62
7
10
7.1622700902736369
20
15.831972777159848
0
VERTEX
8
Layer_1
6
CONTINUOUS
62
7
10
7.3353892198041351
20
15.79900163650106
0
VERTEX
8
Layer_1
6
CONTINUOUS
62
7
10
7.5043231819214498
20
15.746459504247923
0
VERTEX
8
Layer_1
6
CONTINUOUS
62
7
10
7.6495922618921171
20
15.692156999301275
0
VERTEX
8
Layer_1
6
CONTINUOUS
62
7
10
7.7893674249612559
20
15.62531570095598
0
VERTEX
8
Layer_1
6
CONTINUOUS
62
7
10
7.8931404216478782
20
15.563270788477087
0
VERTEX
8
Layer_1
6
CONTINUOUS
62
7
10
7.9888983950891657
20
15.489919685512064
0
VERTEX
8
Layer_1
6
CONTINUOUS
62
7
10
8.1171683044570386
20
15.340271457916145
0
VERTEX
8
Layer_1
6
CONTINUOUS
62
7
10
8.2240598955970086
20
15.147866593864279
0
VERTEX
8
Layer_1
6
CONTINUOUS
62
7
10
8.2810687442049584
20
14.948335623736398
0
VERTEX
8
Layer_1
6
CONTINUOUS
62
7
10
8.3254247559126782
20
14.771183726129259
0
VERTEX
8
Layer_1
6
CONTINUOUS
62
7
10
8.359455911040925
20
14.592030319936583
0
VERTEX
8
Layer_1
6
CONTINUOUS
62
7
10
8.3738126761744809
20
14.467451741967992
0
VERTEX
8
Layer_1
6
CONTINUOUS
62
7
10
8.3737081231928983
20
14.342616607276739
0
VERTEX
8
Layer_1
6
CONTINUOUS
62
7
10
8.345457407500966
20
14.205676731861278
0
VERTEX
8
Layer_1
6
CONTINUOUS
62
7
10
8.3024470624329751
20
14.071824576388906
0
VERTEX
8
Layer_1
6
CONTINUOUS
62
7
10
8.2737998434772351
20
13.975612721875148
0
VERTEX
8
Layer_1
6
CONTINUOUS
62
7
10
8.2311860016729952
20
13.886545818412998
0
VERTEX
8
Layer_1
6
CONTINUOUS
62
7
10
8.1512492072467424
20
13.813383376549126
0
VERTEX
8
Layer_1
6
CONTINUOUS
62
7
10
8.0601594558490888
20
13.751149802969081
0
VERTEX
8
Layer_1
6
CONTINUOUS
62
7
10
7.9247634404051723
20
13.651384317905155
0
VERTEX
8
Layer_1
6
CONTINUOUS
62
7
10
7.7608630006572525
20
13.473231666005262
0
VERTEX
8
Layer_1
6
CONTINUOUS
62
7
10
7.6397191973653662
20
13.380592287017322
0
VERTEX
8
Layer_1
6
CONTINUOUS
62
7
10
7.5287227485715249
20
13.330223035404803
0
VERTEX
8
Layer_1
6
CONTINUOUS
62
7
10
7.4116838029335099
20
13.295079014105369
0
VERTEX
8
Layer_1
6
CONTINUOUS
62
7
10
7.2311600660608804
20
13.266408519517647
0
VERTEX
8
Layer_1
6
CONTINUOUS
62
7
10
7.0482523930576804
20
13.252322377649392
0
VERTEX
8
Layer_1
6
CONTINUOUS
62
7
10
6.7418298317898575
20
13.23807016549739
0
VERTEX
8
Layer_1
6
CONTINUOUS
62
7
10
6.5943277215825518
20
13.250997585172676
0
VERTEX
8
Layer_1
6
CONTINUOUS
62
7
10
6.4496594826740647
20
13.280826801953367
0
VERTEX
8
Layer_1
6
CONTINUOUS
62
7
10
6.3183342259233157
20
13.330520623381918
0
VERTEX
8
Layer_1
6
CONTINUOUS
62
7
10
6.1931196639382051
20
13.394844499169295
0
VERTEX
8
Layer_1
6
CONTINUOUS
62
7
10
6.0489688468299434
20
13.482880454361126
0
VERTEX
8
Layer_1
6
CONTINUOUS
62
7
10
5.9139709756776142
20
13.584213571843406
0
VERTEX
8
Layer_1
6
CONTINUOUS
62
7
10
5.8401617212696948
20
13.641374975161103
0
VERTEX
8
Layer_1
6
CONTINUOUS
62
7
10
5.7757849486003465
20
13.707875811212006
0
VERTEX
8
Layer_1
6
CONTINUOUS
62
7
10
5.7346921561115778
20
13.783212597441377
0
VERTEX
8
Layer_1
6
CONTINUOUS
62
7
10
5.6662041686303724
20
13.976691162075866
0
VERTEX
8
Layer_1
6
CONTINUOUS
62
7
10
5.6272244260052844
20
14.131349572642648
0
SEQEND
0
POLYLINE
8
Layer_1
6
CONTINUOUS
62
7
66
1
10
0
20
0
70
128
40
0
41
0
0
VERTEX
8
Layer_1
6
CONTINUOUS
62
7
10
10.053966144075503
20
9.6858624278605703
0
VERTEX
8
Layer_1
6
CONTINUOUS
62
7
10
10.06866644581288
20
9.6417518747657027
0
VERTEX
8
Layer_1
6
CONTINUOUS
62
7
10
10.317491221647842
20
8.846595772044374
0
VERTEX
8
Layer_1
6
CONTINUOUS
62
7
10
10.544315153901898
20
8.0445256367894942
0
VERTEX
8
Layer_1
6
CONTINUOUS
62
7
10
10.747507453633471
20
7.236223242682339
0
VERTEX
8
Layer_1
6
CONTINUOUS
62
7
10
10.92543733190098
20
6.422370363404184
0
VERTEX
8
Layer_1
6
CONTINUOUS
62
7
10
11.068252402186985
20
5.6339979282445096
0
VERTEX
8
Layer_1
6
CONTINUOUS
62
7
10
11.122133529363289
20
5.2371438747465078
0
VERTEX
8
Layer_1
6
CONTINUOUS
62
7
10
11.159102119015927
20
4.8386423618473202
0
VERTEX
8
Layer_1
6
CONTINUOUS
62
7
10
11.180564509338353
20
4.1114350079493978
0
VERTEX
8
Layer_1
6
CONTINUOUS
62
7
10
11.146120741954007
20
3.3847281309098634
0
VERTEX
8
Layer_1
6
CONTINUOUS
62
7
10
11.09712496336919
20
2.9364571570770011
0
VERTEX
8
Layer_1
6
CONTINUOUS
62
7
10
11.029277884891719
20
2.4903055518593344
0
VERTEX
8
Layer_1
6
CONTINUOUS
62
7
10
10.84754906952935
20
1.6062794734238679
0
VERTEX
8
Layer_1
6
CONTINUOUS
62
7
10
10.716534825092396
20
1.1253894045398489
0
VERTEX
8
Layer_1
6
CONTINUOUS
62
7
10
10.565141217785424
20
0.65000000000000568
0
SEQEND
0
POLYLINE
8
Layer_1
6
CONTINUOUS
62
7
66
1
10
0
20
0
70
128
40
0
41
0
0
VERTEX
8
Layer_1
6
CONTINUOUS
62
7
10
10.86283480987629
20
0.65000000000000568
0
VERTEX
8
Layer_1
6
CONTINUOUS
62
7
10
11.133139364892031
20
1.6322422275477493
0
VERTEX
8
Layer_1
6
CONTINUOUS
62
7
10
11.271590593319864
20
2.207028936933531
0
VERTEX
8
Layer_1
6
CONTINUOUS
62
7
10
11.379785529068954
20
2.7875847860605489
0
VERTEX
8
Layer_1
6
CONTINUOUS
62
7
10
11.42588656245006
20
3.1784904915914725
0
VERTEX
8
Layer_1
6
CONTINUOUS
62
7
10
11.456868517031282
20
3.5711974659029462
0
VERTEX
8
Layer_1
6
CONTINUOUS
62
7
10
11.472026387489741
20
3.9647847564169538
0
VERTEX
8
Layer_1
6
CONTINUOUS
62
7
10
11.47065516850256
20
4.3583314105554791
0
VERTEX
8
Layer_1
6
CONTINUOUS
62
7
10
11.450028559859316
20
4.7494277952815995
0
VERTEX
8
Layer_1
6
CONTINUOUS
62
7
10
11.411417749495563
20
5.1394723240652915
0
VERTEX
8
Layer_1
6
CONTINUOUS
62
7
10
11.301897266697324
20
5.9160966579884615
0
VERTEX
8
Layer_1
6
CONTINUOUS
62
7
10
11.14055305552192
20
6.8094540046712826
0
VERTEX
8
Layer_1
6
CONTINUOUS
62
7
10
10.938418708962956
20
7.6945453154744428
0
VERTEX
8
Layer_1
6
CONTINUOUS
62
7
10
10.720352813223364
20
8.5252920724554997
0
VERTEX
8
Layer_1
6
CONTINUOUS
62
7
10
10.409463578478324
20
9.513897083577433
0
SEQEND
0
POLYLINE
8
Layer_1
6
CONTINUOUS
62
7
66
1
10
0
20
0
70
128
40
0
41
0
0
VERTEX
8
Layer_1
6
CONTINUOUS
62
7
10
10.053966144075503
20
9.6858624278605703
0
VERTEX
8
Layer_1
6
CONTINUOUS
62
7
10
10.111520103263558
20
9.6507585446569806
0
VERTEX
8
Layer_1
6
CONTINUOUS
62
7
10
10.324131214938689
20
9.5441336328635487
0
VERTEX
8
Layer_1
6
CONTINUOUS
62
7
10
10.371497668507175
20
9.5264832774140871
0
SEQEND
0
POLYLINE
8
Layer_1
6
CONTINUOUS
62
7
66
1
10
0
20
0
70
128
40
0
41
0
0
VERTEX
8
Layer_1
6
CONTINUOUS
62
7
10
10.371497668507175
20
9.5264832774140871
0
VERTEX
8
Layer_1
6
CONTINUOUS
62
7
10
10.409463578478324
20
9.513897083577433
0
SEQEND
0
LINE
8
Layer_1
6
CONTINUOUS
62
7
10
10.565141217785424
20
0.65000000000000568
11
10.86283480987629
21
0.65000000000000568
0
POLYLINE
8
Layer_1
6
CONTINUOUS
62
7
66
1
10
0
20
0
70
128
40
0
41
0
0
VERTEX
8
Layer_1
6
CONTINUOUS
62
7
10
10.910447316164664
20
8.6236521430645894
0
VERTEX
8
Layer_1
6
CONTINUOUS
62
7
10
11.061317212177528
20
8.7658993404398871
0
VERTEX
8
Layer_1
6
CONTINUOUS
62
7
10
11.774541397175483
20
9.3850719845589765
0
VERTEX
8
Layer_1
6
CONTINUOUS
62
7
10
12.417226926514275
20
10.012082257084643
0
VERTEX
8
Layer_1
6
CONTINUOUS
62
7
10
12.618778854715998
20
10.238362177596912
0
VERTEX
8
Layer_1
6
CONTINUOUS
62
7
10
12.721078826870343
20
10.349695197363065
0
VERTEX
8
Layer_1
6
CONTINUOUS
62
7
10
12.832621232062536
20
10.450989447852606
0
VERTEX
8
Layer_1
6
CONTINUOUS
62
7
10
13.096566029051438
20
10.628725806592563
0
VERTEX
8
Layer_1
6
CONTINUOUS
62
7
10
13.381255220522462
20
10.772332212522002
0
VERTEX
8
Layer_1
6
CONTINUOUS
62
7
10
13.628439240887683
20
10.872130527478557
0
VERTEX
8
Layer_1
6
CONTINUOUS
62
7
10
13.881993424672274
20
10.955872792407597
0
VERTEX
8
Layer_1
6
CONTINUOUS
62
7
10
14.400146913376659
20
11.085837348784821
0
VERTEX
8
Layer_1
6
CONTINUOUS
62
7
10
14.848559019132963
20
11.157379230036039
0
VERTEX
8
Layer_1
6
CONTINUOUS
62
7
10
15.301474180132345
20
11.195564146476812
0
VERTEX
8
Layer_1
6
CONTINUOUS
62
7
10
15.712950436783821
20
11.207908647171219
0
VERTEX
8
Layer_1
6
CONTINUOUS
62
7
10
16.124425162822263
20
11.195564146476812
0
VERTEX
8
Layer_1
6
CONTINUOUS
62
7
10
16.396498385106064
20
11.17566553674563
0
VERTEX
8
Layer_1
6
CONTINUOUS
62
7
10
16.66522152287564
20
11.132863119224254
0
VERTEX
8
Layer_1
6
CONTINUOUS
62
7
10
16.74989515852883
20
11.111402066557453
0
VERTEX
8
Layer_1
6
CONTINUOUS
62
7
10
16.829811719413613
20
11.077999720378244
0
VERTEX
8
Layer_1
6
CONTINUOUS
62
7
10
16.876837489853017
20
11.038811578345388
0
VERTEX
8
Layer_1
6
CONTINUOUS
62
7
10
16.893159766405688
20
10.980821017395055
0
VERTEX
8
Layer_1
6
CONTINUOUS
62
7
10
16.884675118259622
20
10.921247152246849
0
VERTEX
8
Layer_1
6
CONTINUOUS
62
7
10
16.857397618911861
20
10.879245546516529
0
VERTEX
8
Layer_1
6
CONTINUOUS
62
7
10
16.817559308702691
20
10.846056793712929
0
VERTEX
8
Layer_1
6
CONTINUOUS
62
7
10
16.727922550128199
20
10.788007469335128
0
VERTEX
8
Layer_1
6
CONTINUOUS
62
7
10
16.497646894260697
20
10.63164547492071
0
VERTEX
8
Layer_1
6
CONTINUOUS
62
7
10
16.257664845733927
20
10.490177589885462
0
VERTEX
8
Layer_1
6
CONTINUOUS
62
7
10
15.669473847374093
20
10.185229503669532
0
VERTEX
8
Layer_1
6
CONTINUOUS
62
7
10
15.06634532793521
20
9.9101930877992004
0
VERTEX
8
Layer_1
6
CONTINUOUS
62
7
10
14.610662292087959
20
9.7229119098024483
0
VERTEX
8
Layer_1
6
CONTINUOUS
62
7
10
14.149342804366427
20
9.5496621810969486
0
VERTEX
8
Layer_1
6
CONTINUOUS
62
7
10
13.600708815906444
20
9.3615590993392743
0
VERTEX
8
Layer_1
6
CONTINUOUS
62
7
10
13.083425341072825
20
9.2126441596144275
0
VERTEX
8
Layer_1
6
CONTINUOUS
62
7
10
12.79343309002968
20
9.149943132361841
0
VERTEX
8
Layer_1
6
CONTINUOUS
62
7
10
12.448577440140582
20
9.0558915914830038
0
VERTEX
8
Layer_1
6
CONTINUOUS
62
7
10
12.214432852381961
20
8.969047104062092
0
VERTEX
8
Layer_1
6
CONTINUOUS
62
7
10
11.986157364152916
20
8.8677885097253011
0
VERTEX
8
Layer_1
6
CONTINUOUS
62
7
10
11.594275943824357
20
8.6483349143413193
0
VERTEX
8
Layer_1
6
CONTINUOUS
62
7
10
11.300187765828156
20
8.4554768508529854
0
VERTEX
8
Layer_1
6
CONTINUOUS
62
7
10
11.012777694068745
20
8.2524279054918566
0
SEQEND
0
POLYLINE
8
Layer_1
6
CONTINUOUS
62
7
66
1
10
0
20
0
70
128
40
0
41
0
0
VERTEX
8
Layer_1
6
CONTINUOUS
62
7
10
11.012777694068745
20
8.2524279054918566
0
VERTEX
8
Layer_1
6
CONTINUOUS
62
7
10
10.922127526158988
20
8.583489711752577
0
VERTEX
8
Layer_1
6
CONTINUOUS
62
7
10
10.910447316164664
20
8.6236521430645894
0
SEQEND
0
POLYLINE
8
Layer_1
6
CONTINUOUS
62
7
66
1
10
0
20
0
70
128
40
0
41
0
0
VERTEX
8
Layer_1
6
CONTINUOUS
62
7
10
10.693047719066556
20
6.5034685103501033
0
VERTEX
8
Layer_1
6
CONTINUOUS
62
7
10
10.387281169212429
20
6.6419020422592041
0
VERTEX
8
Layer_1
6
CONTINUOUS
62
7
10
9.681894612621079
20
6.9475695501154746
0
VERTEX
8
Layer_1
6
CONTINUOUS
62
7
10
8.7962426026786034
20
7.3943143692900151
0
VERTEX
8
Layer_1
6
CONTINUOUS
62
7
10
8.6023537718681524
20
7.5044933699256156
0
VERTEX
8
Layer_1
6
CONTINUOUS
62
7
10
8.4043611823500441
20
7.60593033626742
0
VERTEX
8
Layer_1
6
CONTINUOUS
62
7
10
8.1614756818566363
20
7.6940442428054148
0
VERTEX
8
Layer_1
6
CONTINUOUS
62
7
10
7.9105905927361277
20
7.7548452759922668
0
VERTEX
8
Layer_1
6
CONTINUOUS
62
7
10
7.6099832602602433
20
7.7843526882127136
0
VERTEX
8
Layer_1
6
CONTINUOUS
62
7
10
7.3070932054301352
20
7.7861957896185459
0
VERTEX
8
Layer_1
6
CONTINUOUS
62
7
10
6.8905180461973714
20
7.7695088688820313
0
VERTEX
8
Layer_1
6
CONTINUOUS
62
7
10
6.4763045943336692
20
7.7234947623659878
0
VERTEX
8
Layer_1
6
CONTINUOUS
62
7
10
5.9225363508222699
20
7.6160255909631722
0
VERTEX
8
Layer_1
6
CONTINUOUS
62
7
10
5.3790366174137603
20
7.46485302494915
0
VERTEX
8
Layer_1
6
CONTINUOUS
62
7
10
5.0038250016568355
20
7.3321581574218229
0
VERTEX
8
Layer_1
6
CONTINUOUS
62
7
10
4.642299547196103
20
7.1670231454994564
0
VERTEX
8
Layer_1
6
CONTINUOUS
62
7
10
4.5023439538774355
20
7.0899860955203131
0
VERTEX
8
Layer_1
6
CONTINUOUS
62
7
10
4.3758201813727169
20
6.9945953205549074
0
VERTEX
8
Layer_1
6
CONTINUOUS
62
7
10
4.3287944109332557
20
6.9318942933023209
0
VERTEX
8
Layer_1
6
CONTINUOUS
62
7
10
4.336632039339861
20
6.8613556376431859
0
VERTEX
8
Layer_1
6
CONTINUOUS
62
7
10
4.37510945947826
20
6.8291168589708064
0
VERTEX
8
Layer_1
6
CONTINUOUS
62
7
10
4.4228459518121213
20
6.8064922387972047
0
VERTEX
8
Layer_1
6
CONTINUOUS
62
7
10
4.6658124324158052
20
6.6967654411052138
0
VERTEX
8
Layer_1
6
CONTINUOUS
62
7
10
4.8425606397717322
20
6.6477885881429373
0
VERTEX
8
Layer_1
6
CONTINUOUS
62
7
10
5.0228952149052972
20
6.6122584151140664
0
VERTEX
8
Layer_1
6
CONTINUOUS
62
7
10
5.3868742458203087
20
6.5556881297869438
0
VERTEX
8
Layer_1
6
CONTINUOUS
62
7
10
5.8874073663683504
20
6.480914200042772
0
VERTEX
8
Layer_1
6
CONTINUOUS
62
7
10
6.3900906818614089
20
6.4224484468752507
0
VERTEX
8
Layer_1
6
CONTINUOUS
62
7
10
6.8676685516647993
20
6.3832261582873961
0
VERTEX
8
Layer_1
6
CONTINUOUS
62
7
10
7.3462813474629911
20
6.3597474196226642
0
VERTEX
8
Layer_1
6
CONTINUOUS
62
7
10
7.8204825055161322
20
6.3513032244536873
0
VERTEX
8
Layer_1
6
CONTINUOUS
62
7
10
8.2946343846580817
20
6.3597474196226642
0
VERTEX
8
Layer_1
6
CONTINUOUS
62
7
10
8.659022667118407
20
6.3896169412338182
0
VERTEX
8
Layer_1
6
CONTINUOUS
62
7
10
9.0235338264691336
20
6.4146108184686739
0
VERTEX
8
Layer_1
6
CONTINUOUS
62
7
10
9.5251420444896553
20
6.3910979332489433
0
VERTEX
8
Layer_1
6
CONTINUOUS
62
7
10
9.9170234648182145
20
6.336234534402962
0
VERTEX
8
Layer_1
6
CONTINUOUS
62
7
10
10.240321361989949
20
6.2618821193640279
0
VERTEX
8
Layer_1
6
CONTINUOUS
62
7
10
10.559708994157006
20
6.1716443378649615
0
VERTEX
8
Layer_1
6
CONTINUOUS
62
7
10
10.774104246702962
20
6.1018749402335288
0
SEQEND
0
POLYLINE
8
Layer_1
6
CONTINUOUS
62
7
66
1
10
0
20
0
70
128
40
0
41
0
0
VERTEX
8
Layer_1
6
CONTINUOUS
62
7
10
10.693047719066556
20
6.5034685103501033
0
VERTEX
8
Layer_1
6
CONTINUOUS
62
7
10
10.719587216999798
20
6.3808284545029039
0
SEQEND
0
POLYLINE
8
Layer_1
6
CONTINUOUS
62
7
66
1
10
0
20
0
70
128
40
0
41
0
0
VERTEX
8
Layer_1
6
CONTINUOUS
62
7
10
10.719587216999798
20
6.3808284545029039
0
VERTEX
8
Layer_1
6
CONTINUOUS
62
7
10
10.774104246702962
20
6.1018749402335288
0
SEQEND
0
POLYLINE
8
Layer_1
6
CONTINUOUS
62
7
66
1
10
0
20
0
70
129
40
0
41
0
0
VERTEX
8
Layer_1
6
CONTINUOUS
62
7
10
6.715110789197638
20
16.210778860808887
0
VERTEX
8
Layer_1
6
CONTINUOUS
62
7
10
6.6416368674634612
20
16.786164350651461
0
VERTEX
8
Layer_1
6
CONTINUOUS
62
7
10
6.5850969580428114
20
17.363170252898527
0
VERTEX
8
Layer_1
6
CONTINUOUS
62
7
10
6.5618979516215745
20
18.048739697300903
0
VERTEX
8
Layer_1
6
CONTINUOUS
62
7
10
6.5674936848309073
20
18.595406553538769
0
VERTEX
8
Layer_1
6
CONTINUOUS
62
7
10
6.5845635539255909
20
19.141935268908952
0
VERTEX
8
Layer_1
6
CONTINUOUS
62
7
10
6.5994772456813848
20
19.340111051546273
0
VERTEX
8
Layer_1
6
CONTINUOUS
62
7
10
6.6264535600418526
20
19.534021511098302
0
VERTEX
8
Layer_1
6
CONTINUOUS
62
7
10
6.7104479052638908
20
19.898648018283438
0
VERTEX
8
Layer_1
6
CONTINUOUS
62
7
10
6.7595621245093298
20
20.034542501177668
0
VERTEX
8
Layer_1
6
CONTINUOUS
62
7
10
6.8184844796833772
20
20.155940786456341
0
VERTEX
8
Layer_1
6
CONTINUOUS
62
7
10
6.9051882377732454
20
20.278863779713674
0
VERTEX
8
Layer_1
6
CONTINUOUS
62
7
10
6.9914463131698312
20
20.352661117418023
0
VERTEX
8
Layer_1
6
CONTINUOUS
62
7
10
7.0467925981342319
20
20.372106977799859
0
VERTEX
8
Layer_1
6
CONTINUOUS
62
7
10
7.1516879937180988
20
20.368949052041557
0
VERTEX
8
Layer_1
6
CONTINUOUS
62
7
10
7.2698350074315954
20
20.336497671220911
0
VERTEX
8
Layer_1
6
CONTINUOUS
62
7
10
7.3868880654974873
20
20.275592355853291
0
VERTEX
8
Layer_1
6
CONTINUOUS
62
7
10
7.4930559616148003
20
20.182901497883364
0
VERTEX
8
Layer_1
6
CONTINUOUS
62
7
10
7.594457488626972
20
20.03480012145468
0
VERTEX
8
Layer_1
6
CONTINUOUS
62
7
10
7.6714953129683181
20
19.85744849207569
0
VERTEX
8
Layer_1
6
CONTINUOUS
62
7
10
7.6988484167280831
20
19.753457324242788
0
VERTEX
8
Layer_1
6
CONTINUOUS
62
7
10
7.725862150831972
20
19.585712093446006
0
VERTEX
8
Layer_1
6
CONTINUOUS
62
7
10
7.7520657974372966
20
19.341967963301386
0
VERTEX
8
Layer_1
6
CONTINUOUS
62
7
10
7.7612721797390805
20
19.084689473634882
0
VERTEX
8
Layer_1
6
CONTINUOUS
62
7
10
7.7556233171947611
20
18.782623518174717
0
VERTEX
8
Layer_1
6
CONTINUOUS
62
7
10
7.7144035826269883
20
18.295416208976988
0
VERTEX
8
Layer_1
6
CONTINUOUS
62
7
10
7.640891320325359
20
17.811724165170418
0
VERTEX
8
Layer_1
6
CONTINUOUS
62
7
10
7.4403777226920624
20
16.852216719160765
0
VERTEX
8
Layer_1
6
CONTINUOUS
62
7
10
7.3783574881542222
20
16.588351454094152
0
VERTEX
8
Layer_1
6
CONTINUOUS
62
7
10
7.377301376397206
20
16.548655632050458
0
VERTEX
8
Layer_1
6
CONTINUOUS
62
7
10
7.391071288477292
20
16.512878123288736
0
VERTEX
8
Layer_1
6
CONTINUOUS
62
7
10
7.4172521800867557
20
16.484874524835
0
VERTEX
8
Layer_1
6
CONTINUOUS
62
7
10
7.4534290069178724
20
16.468500433715263
0
VERTEX
8
Layer_1
6
CONTINUOUS
62
7
10
7.5250293474638994
20
16.478908168818375
0
VERTEX
8
Layer_1
6
CONTINUOUS
62
7
10
7.5708682901363886
20
16.534887817360953
0
VERTEX
8
Layer_1
6
CONTINUOUS
62
7
10
7.836990662420078
20
17.370100342668565
0
VERTEX
8
Layer_1
6
CONTINUOUS
62
7
10
8.0611857073130295
20
17.981517207262101
0
VERTEX
8
Layer_1
6
CONTINUOUS
62
7
10
8.3376237805508708
20
18.64807203652714
0
VERTEX
8
Layer_1
6
CONTINUOUS
62
7
10
8.5810976412057585
20
19.150692345525471
0
VERTEX
8
Layer_1
6
CONTINUOUS
62
7
10
8.7211642878323232
20
19.409241788311306
0
VERTEX
8
Layer_1
6
CONTINUOUS
62
7
10
8.8244006448151708
20
19.570980870808114
0
VERTEX
8
Layer_1
6
CONTINUOUS
62
7
10
8.9369650533913045
20
19.717217116282598
0
VERTEX
8
Layer_1
6
CONTINUOUS
62
7
10
9.0924049772659714
20
19.873125107237797
0
VERTEX
8
Layer_1
6
CONTINUOUS
62
7
10
9.2458323267541118
20
19.983838165275927
0
VERTEX
8
Layer_1
6
CONTINUOUS
62
7
10
9.3424717495441314
20
20.016866698043344
0
VERTEX
8
Layer_1
6
CONTINUOUS
62
7
10
9.4382068411662772
20
20.011020732631408
0
VERTEX
8
Layer_1
6
CONTINUOUS
62
7
10
9.5266528797888554
20
19.972137164183977
0
VERTEX
8
Layer_1
6
CONTINUOUS
62
7
10
9.6073478608356027
20
19.908383881399573
0
VERTEX
8
Layer_1
6
CONTINUOUS
62
7
10
9.6805817012804596
20
19.812757624909068
0
VERTEX
8
Layer_1
6
CONTINUOUS
62
7
10
9.7327147366318627
20
19.697885588480062
0
VERTEX
8
Layer_1
6
CONTINUOUS
62
7
10
9.7608439880241917
20
19.555891391239101
0
VERTEX
8
Layer_1
6
CONTINUOUS
62
7
10
9.7572894719470469
20
19.315893389495926
0
VERTEX
8
Layer_1
6
CONTINUOUS
62
7
10
9.7229039601598615
20
19.104100260732178
0
VERTEX
8
Layer_1
6
CONTINUOUS
62
7
10
9.6696140878511869
20
18.895889055124314
0
VERTEX
8
Layer_1
6
CONTINUOUS
62
7
10
9.5502037419772261
20
18.538198631389289
0
VERTEX
8
Layer_1
6
CONTINUOUS
62
7
10
9.4043400226464939
20
18.190195462899663
0
VERTEX
8
Layer_1
6
CONTINUOUS
62
7
10
9.0678659510373905
20
17.512771611203817
0
VERTEX
8
Layer_1
6
CONTINUOUS
62
7
10
8.8473360754488795
20
17.128293479476838
0
VERTEX
8
Layer_1
6
CONTINUOUS
62
7
10
8.6590485165798441
20
16.824945082536402
0
VERTEX
8
Layer_1
6
CONTINUOUS
62
7
10
8.64537754202121
20
16.787662672301032
0
VERTEX
8
Layer_1
6
CONTINUOUS
62
7
10
8.6470077504063312
20
16.749361457814029
0
VERTEX
8
Layer_1
6
CONTINUOUS
62
7
10
8.6628810468814574
20
16.714466199260652
0
VERTEX
8
Layer_1
6
CONTINUOUS
62
7
10
8.6919393365928386
20
16.687401656826154
0
VERTEX
8
Layer_1
6
CONTINUOUS
62
7
10
8.7634248441156473
20
16.674471314729072
0
VERTEX
8
Layer_1
6
CONTINUOUS
62
7
10
8.8247993275367662
20
16.713337036352755
0
VERTEX
8
Layer_1
6
CONTINUOUS
62
7
10
9.354432706585726
20
17.419555298068275
0
VERTEX
8
Layer_1
6
CONTINUOUS
62
7
10
9.6381769536528097
20
17.763362180067201
0
VERTEX
8
Layer_1
6
CONTINUOUS
62
7
10
9.9445286039245389
20
18.086478430449205
0
VERTEX
8
Layer_1
6
CONTINUOUS
62
7
10
10.175583912014645
20
18.292240427303312
0
VERTEX
8
Layer_1
6
CONTINUOUS
62
7
10
10.41220120015538
20
18.483983737349433
0
VERTEX
8
Layer_1
6
CONTINUOUS
62
7
10
10.584571365394652
20
18.615229462172778
0
VERTEX
8
Layer_1
6
CONTINUOUS
62
7
10
10.701557140107582
20
18.68926517741113
0
VERTEX
8
Layer_1
6
CONTINUOUS
62
7
10
10.878794335652913
20
18.769912197699426
0
VERTEX
8
Layer_1
6
CONTINUOUS
62
7
10
11.038754680426564
20
18.812558285199884
0
VERTEX
8
Layer_1
6
CONTINUOUS
62
7
10
11.189485273206458
20
18.82377654134288
0
VERTEX
8
Layer_1
6
CONTINUOUS
62
7
10
11.334504677577911
20
18.807932161265597
0
VERTEX
8
Layer_1
6
CONTINUOUS
62
7
10
11.450335433887446
20
18.769244677922902
0
VERTEX
8
Layer_1
6
CONTINUOUS
62
7
10
11.559492063608161
20
18.713814449431794
0
VERTEX
8
Layer_1
6
CONTINUOUS
62
7
10
11.676542061939813
20
18.610671299352362
0
VERTEX
8
Layer_1
6
CONTINUOUS
62
7
10
11.72658523795991
20
18.526693602984722
0
VERTEX
8
Layer_1
6
CONTINUOUS
62
7
10
11.726868426009844
20
18.4632325925202
0
VERTEX
8
Layer_1
6
CONTINUOUS
62
7
10
11.672600032739524
20
18.263645412685264
0
VERTEX
8
Layer_1
6
CONTINUOUS
62
7
10
11.627663272199584
20
18.166599096950648
0
VERTEX
8
Layer_1
6
CONTINUOUS
62
7
10
11.500925946370501
20
17.973054488332508
0
VERTEX
8
Layer_1
6
CONTINUOUS
62
7
10
11.314953720207093
20
17.750631324300453
0
VERTEX
8
Layer_1
6
CONTINUOUS
62
7
10
11.118406291524991
20
17.537716470252349
0
VERTEX
8
Layer_1
6
CONTINUOUS
62
7
10
10.871451113432784
20
17.30232905680154
0
VERTEX
8
Layer_1
6
CONTINUOUS
62
7
10
10.342739875149569
20
16.84840066636627
0
VERTEX
8
Layer_1
6
CONTINUOUS
62
7
10
9.7935100622010154
20
16.419155037772743
0
VERTEX
8
Layer_1
6
CONTINUOUS
62
7
10
8.6642604549071507
20
15.599435779234057
0
VERTEX
8
Layer_1
6
CONTINUOUS
62
7
10
8.6373342469323529
20
15.570249258688516
0
VERTEX
8
Layer_1
6
CONTINUOUS
62
7
10
8.6241479655506339
20
15.534252556158179
0
VERTEX
8
Layer_1
6
CONTINUOUS
62
7
10
8.6254217279672094
20
15.495937831325843
0
VERTEX
8
Layer_1
6
CONTINUOUS
62
7
10
8.641875651387295
20
15.459797243874306
0
VERTEX
8
Layer_1
6
CONTINUOUS
62
7
10
8.701786868264449
20
15.4206756013782
0
VERTEX
8
Layer_1
6
CONTINUOUS
62
7
10
8.7725012147562893
20
15.43159979560582
0
VERTEX
8
Layer_1
6
CONTINUOUS
62
7
10
9.6170539898816969
20
15.915978654730893
0
VERTEX
8
Layer_1
6
CONTINUOUS
62
7
10
10.045363823162646
20
16.146720779211911
0
VERTEX
8
Layer_1
6
CONTINUOUS
62
7
10
10.48197676870717
20
16.361052386170655
0
VERTEX
8
Layer_1
6
CONTINUOUS
62
7
10
11.053547459532339
20
16.600437069338213
0
VERTEX
8
Layer_1
6
CONTINUOUS
62
7
10
11.636294873739701
20
16.812225610453908
0
VERTEX
8
Layer_1
6
CONTINUOUS
62
7
10
11.874767845996928
20
16.879046324478054
0
VERTEX
8
Layer_1
6
CONTINUOUS
62
7
10
12.248351531467677
20
16.938234723671457
0
VERTEX
8
Layer_1
6
CONTINUOUS
62
7
10
12.389696668975262
20
16.943496770814193
0
VERTEX
8
Layer_1
6
CONTINUOUS
62
7
10
12.571319545384938
20
16.919552703877883
0
VERTEX
8
Layer_1
6
CONTINUOUS
62
7
10
12.666771436785154
20
16.881261235560203
0
VERTEX
8
Layer_1
6
CONTINUOUS
62
7
10
12.831213308684198
20
16.785135223884339
0
VERTEX
8
Layer_1
6
CONTINUOUS
62
7
10
12.884993893418311
20
16.727477711502758
0
VERTEX
8
Layer_1
6
CONTINUOUS
62
7
10
12.920115733346165
20
16.636852381141352
0
VERTEX
8
Layer_1
6
CONTINUOUS
62
7
10
12.928243740208075
20
16.464949900184337
0
VERTEX
8
Layer_1
6
CONTINUOUS
62
7
10
12.893625865148351
20
16.376221103932068
0
VERTEX
8
Layer_1
6
CONTINUOUS
62
7
10
12.809888094345808
20
16.270189012687382
0
VERTEX
8
Layer_1
6
CONTINUOUS
62
7
10
12.667311572269512
20
16.140040566681392
0
VERTEX
8
Layer_1
6
CONTINUOUS
62
7
10
12.31128947843348
20
15.922325546033989
0
VERTEX
8
Layer_1
6
CONTINUOUS
62
7
10
11.935425101559588
20
15.742643172395702
0
VERTEX
8
Layer_1
6
CONTINUOUS
62
7
10
11.529717157592245
20
15.578277705687697
0
VERTEX
8
Layer_1
6
CONTINUOUS
62
7
10
11.095168389250261
20
15.432277674364315
0
VERTEX
8
Layer_1
6
CONTINUOUS
62
7
10
10.564206208431983
20
15.276837192762997
0
VERTEX
8
Layer_1
6
CONTINUOUS
62
7
10
9.6170018633735594
20
15.037994431156221
0
VERTEX
8
Layer_1
6
CONTINUOUS
62
7
10
9.5813054658653005
20
15.020597854957799
0
VERTEX
8
Layer_1
6
CONTINUOUS
62
7
10
9.5559317794864569
20
14.991860829185278
0
VERTEX
8
Layer_1
6
CONTINUOUS
62
7
10
9.5431851921708652
20
14.955706090596198
0
VERTEX
8
Layer_1
6
CONTINUOUS
62
7
10
9.5453700918523623
20
14.916056375948102
0
VERTEX
8
Layer_1
6
CONTINUOUS
62
7
10
9.5874518190099778
20
14.857498339201417
0
VERTEX
8
Layer_1
6
CONTINUOUS
62
7
10
9.6579787403565547
20
14.842469407317566
0
VERTEX
8
Layer_1
6
CONTINUOUS
62
7
10
10.490732684577893
20
14.979771716092046
0
VERTEX
8
Layer_1
6
CONTINUOUS
62
7
10
11.142556042265767
20
15.068494361505287
0
VERTEX
8
Layer_1
6
CONTINUOUS
62
7
10
11.516651313101534
20
15.105153828154556
0
VERTEX
8
Layer_1
6
CONTINUOUS
62
7
10
12.057176056840603
20
15.126256417267257
0
VERTEX
8
Layer_1
6
CONTINUOUS
62
7
10
12.321574796000789
20
15.121133836182395
0
VERTEX
8
Layer_1
6
CONTINUOUS
62
7
10
12.514875339215905
20
15.10683968316539
0
VERTEX
8
Layer_1
6
CONTINUOUS
62
7
10
12.857230494194312
20
15.04828922158481
0
VERTEX
8
Layer_1
6
CONTINUOUS
62
7
10
12.960610319585612
20
15.017503829519569
0
VERTEX
8
Layer_1
6
CONTINUOUS
62
7
10
13.124297960220076
20
14.944206445466023
0
VERTEX
8
Layer_1
6
CONTINUOUS
62
7
10
13.211657624564054
20
14.878873519925634
0
VERTEX
8
Layer_1
6
CONTINUOUS
62
7
10
13.263551928537439
20
14.805585656591077
0
VERTEX
8
Layer_1
6
CONTINUOUS
62
7
10
13.30089094661821
20
14.723410512071496
0
VERTEX
8
Layer_1
6
CONTINUOUS
62
7
10
13.30542098660711
20
14.601848765868965
0
VERTEX
8
Layer_1
6
CONTINUOUS
62
7
10
13.274754284544144
20
14.483902129002672
0
VERTEX
8
Layer_1
6
CONTINUOUS
62
7
10
13.237299379234855
20
14.423238405146265
0
VERTEX
8
Layer_1
6
CONTINUOUS
62
7
10
13.147059729857403
20
14.357939721914988
0
VERTEX
8
Layer_1
6
CONTINUOUS
62
7
10
12.96407053236959
20
14.277466854383761
0
VERTEX
8
Layer_1
6
CONTINUOUS
62
7
10
12.85820087888186
20
14.240095877387319
0
VERTEX
8
Layer_1
6
CONTINUOUS
62
7
10
12.692717170287381
20
14.194768314558615
0
VERTEX
8
Layer_1
6
CONTINUOUS
62
7
10
12.484914262734151
20
14.152030621830647
0
VERTEX
8
Layer_1
6
CONTINUOUS
62
7
10
12.196268771820939
20
14.114505075727806
0
VERTEX
8
Layer_1
6
CONTINUOUS
62
7
10
11.802530692992264
20
14.086133504106016
0
VERTEX
8
Layer_1
6
CONTINUOUS
62
7
10
11.016037785695829
20
14.065934233555129
0
VERTEX
8
Layer_1
6
CONTINUOUS
62
7
10
10.229196953426083
20
14.079148706972575
0
VERTEX
8
Layer_1
6
CONTINUOUS
62
7
10
9.6069197891339115
20
14.109655653357116
0
VERTEX
8
Layer_1
6
CONTINUOUS
62
7
10
8.9851321187019266
20
14.15028339160358
0
VERTEX
8
Layer_1
6
CONTINUOUS
62
7
10
8.9458226752736305
20
14.14465833019463
0
VERTEX
8
Layer_1
6
CONTINUOUS
62
7
10
8.9128656548656124
20
14.125075801845874
0
VERTEX
8
Layer_1
6
CONTINUOUS
62
7
10
8.8896563381765663
20
14.094564029864099
0
VERTEX
8
Layer_1
6
CONTINUOUS
62
7
10
8.879590005905186
20
14.056151237556094
0
VERTEX
8
Layer_1
6
CONTINUOUS
62
7
10
8.9018919696445877
20
13.987293289438771
0
VERTEX
8
Layer_1
6
CONTINUOUS
62
7
10
8.9648130162632924
20
13.951519884541113
0
VERTEX
8
Layer_1
6
CONTINUOUS
62
7
10
9.4350227626568994
20
13.884391677628031
0
VERTEX
8
Layer_1
6
CONTINUOUS
62
7
10
9.9048639175124435
20
13.802497960422031
0
VERTEX
8
Layer_1
6
CONTINUOUS
62
7
10
10.372353802854434
20
13.708712199728097
0
VERTEX
8
Layer_1
6
CONTINUOUS
62
7
10
10.882158699277568
20
13.58012904614182
0
VERTEX
8
Layer_1
6
CONTINUOUS
62
7
10
11.379609478264342
20
13.427966072067989
0
VERTEX
8
Layer_1
6
CONTINUOUS
62
7
10
11.816379908092927
20
13.257026187638075
0
VERTEX
8
Layer_1
6
CONTINUOUS
62
7
10
12.100079474640381
20
13.124685181048477
0
VERTEX
8
Layer_1
6
CONTINUOUS
62
7
10
12.279718649458914
20
13.024468880065399
0
VERTEX
8
Layer_1
6
CONTINUOUS
62
7
10
12.450561980441933
20
12.911620386563953
0
VERTEX
8
Layer_1
6
CONTINUOUS
62
7
10
12.567303909896282
20
12.820585981709911
0
VERTEX
8
Layer_1
6
CONTINUOUS
62
7
10
12.686233693432541
20
12.689310553646521
0
VERTEX
8
Layer_1
6
CONTINUOUS
62
7
10
12.762998003088512
20
12.552633871502508
0
VERTEX
8
Layer_1
6
CONTINUOUS
62
7
10
12.814492386439895
20
12.389069226162803
0
VERTEX
8
Layer_1
6
CONTINUOUS
62
7
10
12.823173336004288
20
12.256457864717646
0
VERTEX
8
Layer_1
6
CONTINUOUS
62
7
10
12.805550957427272
20
12.154719847899287
0
VERTEX
8
Layer_1
6
CONTINUOUS
62
7
10
12.754700304978826
20
12.033045742469085
0
VERTEX
8
Layer_1
6
CONTINUOUS
62
7
10
12.671889071271096
20
11.918067352977857
0
VERTEX
8
Layer_1
6
CONTINUOUS
62
7
10
12.597778396407421
20
11.856055924830201
0
VERTEX
8
Layer_1
6
CONTINUOUS
62
7
10
12.543229601756195
20
11.830483083997905
0
VERTEX
8
Layer_1
6
CONTINUOUS
62
7
10
12.337199148872287
20
11.778687894632668
0
VERTEX
8
Layer_1
6
CONTINUOUS
62
7
10
12.22175181191227
20
11.770326814417672
0
VERTEX
8
Layer_1
6
CONTINUOUS
62
7
10
12.027487920511589
20
11.789380657252536
0
VERTEX
8
Layer_1
6
CONTINUOUS
62
7
10
11.731104762996488
20
11.855022723654354
0
VERTEX
8
Layer_1
6
CONTINUOUS
62
7
10
11.438095409114226
20
11.933878679565566
0
VERTEX
8
Layer_1
6
CONTINUOUS
62
7
10
11.096794520655063
20
12.049639507925267
0
VERTEX
8
Layer_1
6
CONTINUOUS
62
7
10
10.763075332619447
20
12.184324134123258
0
VERTEX
8
Layer_1
6
CONTINUOUS
62
7
10
10.113959950239924
20
12.498189176730669
0
VERTEX
8
Layer_1
6
CONTINUOUS
62
7
10
9.4819050468177721
20
12.850922600780923
0
VERTEX
8
Layer_1
6
CONTINUOUS
62
7
10
8.8580664071951105
20
13.217973199667142
0
VERTEX
8
Layer_1
6
CONTINUOUS
62
7
10
8.820379036390646
20
13.230484623997235
0
VERTEX
8
Layer_1
6
CONTINUOUS
62
7
10
8.7821465592417667
20
13.227670676539255
0
VERTEX
8
Layer_1
6
CONTINUOUS
62
7
10
8.7477588963414963
20
13.210725787946235
0
VERTEX
8
Layer_1
6
CONTINUOUS
62
7
10
8.7216059682828586
20
13.180844388871208
0
VERTEX
8
Layer_1
6
CONTINUOUS
62
7
10
8.7106024488107892
20
13.110309388035812
0
VERTEX
8
Layer_1
6
CONTINUOUS
62
7
10
8.7494394434867786
20
13.050409875281872
0
VERTEX
8
Layer_1
6
CONTINUOUS
62
7
10
9.2858215044000758
20
12.663807571005776
0
VERTEX
8
Layer_1
6
CONTINUOUS
62
7
10
9.7832465282921248
20
12.272945443055846
0
VERTEX
8
Layer_1
6
CONTINUOUS
62
7
10
10.134928432345809
20
11.968150390123807
0
VERTEX
8
Layer_1
6
CONTINUOUS
62
7
10
10.472035140711682
20
11.647265061472666
0
VERTEX
8
Layer_1
6
CONTINUOUS
62
7
10
10.741835881109736
20
11.362174216402011
0
VERTEX
8
Layer_1
6
CONTINUOUS
62
7
10
10.988131808698256
20
11.056917015979565
0
VERTEX
8
Layer_1
6
CONTINUOUS
62
7
10
11.12819724010609
20
10.833397287297686
0
VERTEX
8
Layer_1
6
CONTINUOUS
62
7
10
11.21409788675146
20
10.658399562950649
0
VERTEX
8
Layer_1
6
CONTINUOUS
62
7
10
11.259356283657041
20
10.54290329202658
0
VERTEX
8
Layer_1
6
CONTINUOUS
62
7
10
11.288436123318434
20
10.429096939367412
0
VERTEX
8
Layer_1
6
CONTINUOUS
62
7
10
11.293764822078003
20
10.302460557005929
0
VERTEX
8
Layer_1
6
CONTINUOUS
62
7
10
11.279620560024512
20
10.227586158981666
0
VERTEX
8
Layer_1
6
CONTINUOUS
62
7
10
11.246047177750825
20
10.127404888427037
0
VERTEX
8
Layer_1
6
CONTINUOUS
62
7
10
11.167649376584848
20
9.9942848046560187
0
VERTEX
8
Layer_1
6
CONTINUOUS
62
7
10
11.079743937458829
20
9.903685304876177
0
VERTEX
8
Layer_1
6
CONTINUOUS
62
7
10
10.978564933756388
20
9.8350417463245492
0
VERTEX
8
Layer_1
6
CONTINUOUS
62
7
10
10.853832001591741
20
9.787055909572274
0
VERTEX
8
Layer_1
6
CONTINUOUS
62
7
10
10.722529570623806
20
9.7678519939861417
0
VERTEX
8
Layer_1
6
CONTINUOUS
62
7
10
10.602545571069925
20
9.7810886590791313
0
VERTEX
8
Layer_1
6
CONTINUOUS
62
7
10
10.404763895394694
20
9.8465270531029319
0
VERTEX
8
Layer_1
6
CONTINUOUS
62
7
10
10.231033306796505
20
9.9397792503575708
0
VERTEX
8
Layer_1
6
CONTINUOUS
62
7
10
10.066663005099599
20
10.049355163643042
0
VERTEX
8
Layer_1
6
CONTINUOUS
62
7
10
9.8024719023234823
20
10.257445570646613
0
VERTEX
8
Layer_1
6
CONTINUOUS
62
7
10
9.560023313643967
20
10.490584066748113
0
VERTEX
8
Layer_1
6
CONTINUOUS
62
7
10
9.3172667047476807
20
10.771864236196166
0
VERTEX
8
Layer_1
6
CONTINUOUS
62
7
10
8.9587165592694546
20
11.255337930894008
0
VERTEX
8
Layer_1
6
CONTINUOUS
62
7
10
8.6291531067581673
20
11.759562651521151
0
VERTEX
8
Layer_1
6
CONTINUOUS
62
7
10
8.3078721268303113
20
12.293129538558251
0
VERTEX
8
Layer_1
6
CONTINUOUS
62
7
10
7.9966606178953725
20
12.832776169209438
0
VERTEX
8
Layer_1
6
CONTINUOUS
62
7
10
7.97012595273132
20
12.862319107488531
0
VERTEX
8
Layer_1
6
CONTINUOUS
62
7
10
7.935523431657252
20
12.878820808768182
0
VERTEX
8
Layer_1
6
CONTINUOUS
62
7
10
7.8972579581838778
20
12.881143339628814
0
VERTEX
8
Layer_1
6
CONTINUOUS
62
7
10
7.8597344358219061
20
12.868148766650847
0
VERTEX
8
Layer_1
6
CONTINUOUS
62
7
10
7.8155033826473783
20
12.81320048729383
0
VERTEX
8
Layer_1
6
CONTINUOUS
62
7
10
7.8185453781182446
20
12.742727473077167
0
VERTEX
8
Layer_1
6
CONTINUOUS
62
7
10
8.2501199311122377
20
11.758737189985226
0
VERTEX
8
Layer_1
6
CONTINUOUS
62
7
10
8.4334284924693819
20
11.280174148721212
0
VERTEX
8
Layer_1
6
CONTINUOUS
62
7
10
8.5894635517165625
20
10.792139896884322
0
VERTEX
8
Layer_1
6
CONTINUOUS
62
7
10
8.699993297618505
20
10.364584764082707
0
VERTEX
8
Layer_1
6
CONTINUOUS
62
7
10
8.7681943865552512
20
10.047707790796693
0
VERTEX
8
Layer_1
6
CONTINUOUS
62
7
10
8.7991049260274394
20
9.8374564737677872
0
VERTEX
8
Layer_1
6
CONTINUOUS
62
7
10
8.8151346115524234
20
9.6100034244429366
0
VERTEX
8
Layer_1
6
CONTINUOUS
62
7
10
8.8091333095908908
20
9.3744422270017651
0
VERTEX
8
Layer_1
6
CONTINUOUS
62
7
10
8.7658920571816452
20
9.1792982338008642
0
VERTEX
8
Layer_1
6
CONTINUOUS
62
7
10
8.6991008707704509
20
9.0260719068053277
0
VERTEX
8
Layer_1
6
CONTINUOUS
62
7
10
8.6173408245359724
20
8.9268719565972674
0
VERTEX
8
Layer_1
6
CONTINUOUS
62
7
10
8.524589478553537
20
8.8653120307188829
0
VERTEX
8
Layer_1
6
CONTINUOUS
62
7
10
8.3895295527199778
20
8.8174167802415013
0
VERTEX
8
Layer_1
6
CONTINUOUS
62
7
10
8.3103982143878738
20
8.8126762019585101
0
VERTEX
8
Layer_1
6
CONTINUOUS
62
7
10
8.2282517532484718
20
8.8326784406320051
0
VERTEX
8
Layer_1
6
CONTINUOUS
62
7
10
8.1507888497084195
20
8.867771081890254
0
VERTEX
8
Layer_1
6
CONTINUOUS
62
7
10
8.0696776597071391
20
8.9442988818761933
0
VERTEX
8
Layer_1
6
CONTINUOUS
62
7
10
7.9985282740148023
20
9.0310958396475485
0
VERTEX
8
Layer_1
6
CONTINUOUS
62
7
10
7.910680089190123
20
9.1707790287198634
0
VERTEX
8
Layer_1
6
CONTINUOUS
62
7
10
7.837792959098806
20
9.3168070390512696
0
VERTEX
8
Layer_1
6
CONTINUOUS
62
7
10
7.7463634281593841
20
9.5510569902295401
0
VERTEX
8
Layer_1
6
CONTINUOUS
62
7
10
7.6343836341626741
20
9.9111453959633984
0
VERTEX
8
Layer_1
6
CONTINUOUS
62
7
10
7.5467410886738548
20
10.278062449828241
0
VERTEX
8
Layer_1
6
CONTINUOUS
62
7
10
7.4911228954647413
20
10.568394728196211
0
VERTEX
8
Layer_1
6
CONTINUOUS
62
7
10
7.3946740447564139
20
11.126874242342922
0
VERTEX
8
Layer_1
6
CONTINUOUS
62
7
10
7.2886974044947053
20
11.960714456496852
0
VERTEX
8
Layer_1
6
CONTINUOUS
62
7
10
7.2119833326667049
20
12.798105448568066
0
VERTEX
8
Layer_1
6
CONTINUOUS
62
7
10
7.2006611778834131
20
12.836167010221168
0
VERTEX
8
Layer_1
6
CONTINUOUS
62
7
10
7.1764625481820019
20
12.86590027335841
0
VERTEX
8
Layer_1
6
CONTINUOUS
62
7
10
7.142880322621215
20
12.884390128483187
0
VERTEX
8
Layer_1
6
CONTINUOUS
62
7
10
7.1034073802597959
20
12.8887214660989
0
VERTEX
8
Layer_1
6
CONTINUOUS
62
7
10
7.0446116055529302
20
12.862654038955501
0
VERTEX
8
Layer_1
6
CONTINUOUS
62
7
10
7.0138509538777498
20
12.806171863096438
0
VERTEX
8
Layer_1
6
CONTINUOUS
62
7
10
6.8790049463764831
20
11.958076740277448
0
VERTEX
8
Layer_1
6
CONTINUOUS
62
7
10
6.8077979364612702
20
11.537918680116547
0
VERTEX
8
Layer_1
6
CONTINUOUS
62
7
10
6.6427380959818265
20
10.782643983944496
0
VERTEX
8
Layer_1
6
CONTINUOUS
62
7
10
6.5381387353374381
20
10.381258134723147
0
VERTEX
8
Layer_1
6
CONTINUOUS
62
7
10
6.4152844709601808
20
9.9851564361019278
0
VERTEX
8
Layer_1
6
CONTINUOUS
62
7
10
6.2635388206296261
20
9.6010453114556391
0
VERTEX
8
Layer_1
6
CONTINUOUS
62
7
10
6.072265302125345
20
9.2356311841590752
0
VERTEX
8
Layer_1
6
CONTINUOUS
62
7
10
5.9934263412443443
20
9.1158883425560759
0
VERTEX
8
Layer_1
6
CONTINUOUS
62
7
10
5.8550658216976572
20
8.9580009507156539
0
VERTEX
8
Layer_1
6
CONTINUOUS
62
7
10
5.6889977756559347
20
8.8291961018028644
0
VERTEX
8
Layer_1
6
CONTINUOUS
62
7
10
5.5543073629911532
20
8.7826974150729313
0
VERTEX
8
Layer_1
6
CONTINUOUS
62
7
10
5.4406072902646088
20
8.7768629306717401
0
VERTEX
8
Layer_1
6
CONTINUOUS
62
7
10
5.3016755056119678
20
8.8138126871449174
0
VERTEX
8
Layer_1
6
CONTINUOUS
62
7
10
5.1579110269793773
20
8.8735644114261447
0
VERTEX
8
Layer_1
6
CONTINUOUS
62
7
10
5.0371039165055436
20
8.947790847007866
0
VERTEX
8
Layer_1
6
CONTINUOUS
62
7
10
4.9501122919292087
20
9.0375425367394584
0
VERTEX
8
Layer_1
6
CONTINUOUS
62
7
10
4.8766815909441448
20
9.1392603437408866
0
VERTEX
8
Layer_1
6
CONTINUOUS
62
7
10
4.8173390578764952
20
9.2823416207958473
0
VERTEX
8
Layer_1
6
CONTINUOUS
62
7
10
4.7754414911186132
20
9.4809283690869108
0
VERTEX
8
Layer_1
6
CONTINUOUS
62
7
10
4.7692053236855259
20
9.6829767401516165
0
VERTEX
8
Layer_1
6
CONTINUOUS
62
7
10
4.8012468405166828
20
9.9475557434288078
0
VERTEX
8
Layer_1
6
CONTINUOUS
62
7
10
4.9194348111726072
20
10.382763020508236
0
VERTEX
8
Layer_1
6
CONTINUOUS
62
7
10
5.0371057810109434
20
10.686685710082457
0
VERTEX
8
Layer_1
6
CONTINUOUS
62
7
10
5.1739038116481879
20
10.982712205785333
0
VERTEX
8
Layer_1
6
CONTINUOUS
62
7
10
5.397032533246545
20
11.404904484816683
0
VERTEX
8
Layer_1
6
CONTINUOUS
62
7
10
5.6019999977868906
20
11.750427483923431
0
VERTEX
8
Layer_1
6
CONTINUOUS
62
7
10
5.877754685082266
20
12.164312060335476
0
VERTEX
8
Layer_1
6
CONTINUOUS
62
7
10
5.8924787780790782
20
12.201191251527565
0
VERTEX
8
Layer_1
6
CONTINUOUS
62
7
10
5.8919367866904722
20
12.239523311935102
0
VERTEX
8
Layer_1
6
CONTINUOUS
62
7
10
5.8770607384475744
20
12.274855220999132
0
VERTEX
8
Layer_1
6
CONTINUOUS
62
7
10
5.8487826608815112
20
12.302733958160701
0
VERTEX
8
Layer_1
6
CONTINUOUS
62
7
10
5.7780230868348639
20
12.317743078028357
0
VERTEX
8
Layer_1
6
CONTINUOUS
62
7
10
5.7156531412446157
20
12.281107291077092
0
VERTEX
8
Layer_1
6
CONTINUOUS
62
7
10
5.3303852199837678
20
11.798877950693303
0
VERTEX
8
Layer_1
6
CONTINUOUS
62
7
10
4.9312577136940945
20
11.328285646238015
0
VERTEX
8
Layer_1
6
CONTINUOUS
62
7
10
4.5811904593160193
20
10.954548347371542
0
VERTEX
8
Layer_1
6
CONTINUOUS
62
7
10
4.2298246097282117
20
10.613764326490099
0
VERTEX
8
Layer_1
6
CONTINUOUS
62
7
10
4.0441296594437972
20
10.459710249573078
0
VERTEX
8
Layer_1
6
CONTINUOUS
62
7
10
3.6990257709381922
20
10.207818580622273
0
VERTEX
8
Layer_1
6
CONTINUOUS
62
7
10
3.5227847904947183
20
10.103037362176579
0
VERTEX
8
Layer_1
6
CONTINUOUS
62
7
10
3.3363170993025619
20
10.018156303923064
0
VERTEX
8
Layer_1
6
CONTINUOUS
62
7
10
3.1648539520008399
20
9.9669728249561444
0
VERTEX
8
Layer_1
6
CONTINUOUS
62
7
10
2.9996855589591291
20
9.9529781686127023
0
VERTEX
8
Layer_1
6
CONTINUOUS
62
7
10
2.8671789819093192
20
9.9768858949327637
0
VERTEX
8
Layer_1
6
CONTINUOUS
62
7
10
2.7470084837927971
20
10.030729303098468
0
VERTEX
8
Layer_1
6
CONTINUOUS
62
7
10
2.6663439638321051
20
10.100041424107928
0
VERTEX
8
Layer_1
6
CONTINUOUS
62
7
10
2.5902844602375694
20
10.196354231664969
0
VERTEX
8
Layer_1
6
CONTINUOUS
62
7
10
2.5305516349393997
20
10.291134520161222
0
VERTEX
8
Layer_1
6
CONTINUOUS
62
7
10
2.4911099181381928
20
10.386411364233282
0
VERTEX
8
Layer_1
6
CONTINUOUS
62
7
10
2.4666906095579861
20
10.53158405116983
0
VERTEX
8
Layer_1
6
CONTINUOUS
62
7
10
2.4725373057272009
20
10.680017435565247
0
VERTEX
8
Layer_1
6
CONTINUOUS
62
7
10
2.5037234292860262
20
10.793018676990926
0
VERTEX
8
Layer_1
6
CONTINUOUS
62
7
10
2.6315027826667574
20
11.061876863858259
0
VERTEX
8
Layer_1
6
CONTINUOUS
62
7
10
2.7188432376664196
20
11.199278848097379
0
VERTEX
8
Layer_1
6
CONTINUOUS
62
7
10
2.8858573509091983
20
11.406964319190891
0
VERTEX
8
Layer_1
6
CONTINUOUS
62
7
10
3.0709268370100631
20
11.599210508153959
0
VERTEX
8
Layer_1
6
CONTINUOUS
62
7
10
3.384690728967378
20
11.883487821662786
0
VERTEX
8
Layer_1
6
CONTINUOUS
62
7
10
3.7166641922588042
20
12.146493704969743
0
VERTEX
8
Layer_1
6
CONTINUOUS
62
7
10
4.0529909277246148
20
12.381570189849473
0
VERTEX
8
Layer_1
6
CONTINUOUS
62
7
10
4.3963978251393314
20
12.606555211005087
0
VERTEX
8
Layer_1
6
CONTINUOUS
62
7
10
4.424223261122
20
12.634885738194011
0
VERTEX
8
Layer_1
6
CONTINUOUS
62
7
10
4.438528375910991
20
12.670452637151225
0
VERTEX
8
Layer_1
6
CONTINUOUS
62
7
10
4.4384529767094296
20
12.70878845493565
0
VERTEX
8
Layer_1
6
CONTINUOUS
62
7
10
4.423136870720441
20
12.745425738606201
0
VERTEX
8
Layer_1
6
CONTINUOUS
62
7
10
4.3665959012471021
20
12.785849436969187
0
VERTEX
8
Layer_1
6
CONTINUOUS
62
7
10
4.2973669956505773
20
12.77965950577132
0
VERTEX
8
Layer_1
6
CONTINUOUS
62
7
10
3.8570440705540818
20
12.562637772935034
0
VERTEX
8
Layer_1
6
CONTINUOUS
62
7
10
3.6386633492368219
20
12.45779761903043
0
VERTEX
8
Layer_1
6
CONTINUOUS
62
7
10
3.1977327801850493
20
12.272432232726544
0
VERTEX
8
Layer_1
6
CONTINUOUS
62
7
10
2.7531588186524232
20
12.114367779169811
0
VERTEX
8
Layer_1
6
CONTINUOUS
62
7
10
2.488767479883137
20
12.044927774582078
0
VERTEX
8
Layer_1
6
CONTINUOUS
62
7
10
2.221215537165051
20
11.989892936246974
0
VERTEX
8
Layer_1
6
CONTINUOUS
62
7
10
1.9165169204218842
20
11.962727283208494
0
VERTEX
8
Layer_1
6
CONTINUOUS
62
7
10
1.6919286680816867
20
11.972388552501769
0
VERTEX
8
Layer_1
6
CONTINUOUS
62
7
10
1.5505486740071319
20
12.008589311816991
0
VERTEX
8
Layer_1
6
CONTINUOUS
62
7
10
1.4213367037246982
20
12.087502484026864
0
VERTEX
8
Layer_1
6
CONTINUOUS
62
7
10
1.29798891677234
20
12.176428051038329
0
VERTEX
8
Layer_1
6
CONTINUOUS
62
7
10
1.2787542896912214
20
12.204278774136668
0
VERTEX
8
Layer_1
6
CONTINUOUS
62
7
10
1.2779308992076253
20
12.260330915029929
0
VERTEX
8
Layer_1
6
CONTINUOUS
62
7
10
1.2911124113866208
20
12.315805908540739
0
VERTEX
8
Layer_1
6
CONTINUOUS
62
7
10
1.3570125961168884
20
12.399560254512473
0
VERTEX
8
Layer_1
6
CONTINUOUS
62
7
10
1.4348218019151773
20
12.474323175776021
0
VERTEX
8
Layer_1
6
CONTINUOUS
62
7
10
1.5370852875690275
20
12.551219375325786
0
VERTEX
8
Layer_1
6
CONTINUOUS
62
7
10
1.7091262960773292
20
12.655615858936585
0
VERTEX
8
Layer_1
6
CONTINUOUS
62
7
10
2.073408192666875
20
12.849316471825659
0
VERTEX
8
Layer_1
6
CONTINUOUS
62
7
10
2.5787119942664845
20
13.07122867699141
0
VERTEX
8
Layer_1
6
CONTINUOUS
62
7
10
3.2155665846867691
20
13.310033881616476
0
VERTEX
8
Layer_1
6
CONTINUOUS
62
7
10
3.6003657510697167
20
13.434489102134052
0
VERTEX
8
Layer_1
6
CONTINUOUS
62
7
10
4.3785549033175926
20
13.677486054528089
0
VERTEX
8
Layer_1
6
CONTINUOUS
62
7
10
4.4131058309942359
20
13.697059175256769
0
VERTEX
8
Layer_1
6
CONTINUOUS
62
7
10
4.4366517768964329
20
13.727311927893219
0
VERTEX
8
Layer_1
6
CONTINUOUS
62
7
10
4.4471356244852638
20
13.764186438736441
0
VERTEX
8
Layer_1
6
CONTINUOUS
62
7
10
4.4425002572218091
20
13.80362483408544
0
VERTEX
8
Layer_1
6
CONTINUOUS
62
7
10
4.396836026485083
20
13.85948690063768
0
VERTEX
8
Layer_1
6
CONTINUOUS
62
7
10
4.3254667191654903
20
13.870080031477244
0
VERTEX
8
Layer_1
6
CONTINUOUS
62
7
10
3.4033213151711266
20
13.653775828806658
0
VERTEX
8
Layer_1
6
CONTINUOUS
62
7
10
2.7841994088170168
20
13.538044603437299
0
VERTEX
8
Layer_1
6
CONTINUOUS
62
7
10
2.1609118329160992
20
13.450557602620933
0
VERTEX
8
Layer_1
6
CONTINUOUS
62
7
10
1.8504650822870303
20
13.430668753017727
0
VERTEX
8
Layer_1
6
CONTINUOUS
62
7
10
1.5553694375093414
20
13.425847873302843
0
VERTEX
8
Layer_1
6
CONTINUOUS
62
7
10
1.3632421185604926
20
13.433638188477346
0
VERTEX
8
Layer_1
6
CONTINUOUS
62
7
10
1.178354326900191
20
13.458173350690725
0
VERTEX
8
Layer_1
6
CONTINUOUS
62
7
10
0.99726139712697659
20
13.502596524513791
0
VERTEX
8
Layer_1
6
CONTINUOUS
62
7
10
0.83557077236429222
20
13.569466423543503
0
VERTEX
8
Layer_1
6
CONTINUOUS
62
7
10
0.73520940868041862
20
13.646294458105785
0
VERTEX
8
Layer_1
6
CONTINUOUS
62
7
10
0.68156568602762491
20
13.717733265178907
0
VERTEX
8
Layer_1
6
CONTINUOUS
62
7
10
0.65495834821450671
20
13.803371972787062
0
VERTEX
8
Layer_1
6
CONTINUOUS
62
7
10
0.65862191710846218
20
13.923473278167648
0
VERTEX
8
Layer_1
6
CONTINUOUS
62
7
10
0.6838453952892678
20
14.059741133707121
0
VERTEX
8
Layer_1
6
CONTINUOUS
62
7
10
0.72946681554520865
20
14.18866089633039
0
VERTEX
8
Layer_1
6
CONTINUOUS
62
7
10
0.80475385670291644
20
14.30202517482968
0
VERTEX
8
Layer_1
6
CONTINUOUS
62
7
10
0.9175296683582701
20
14.405476203504605
0
VERTEX
8
Layer_1
6
CONTINUOUS
62
7
10
1.0223458942386401
20
14.476963893829321
0
VERTEX
8
Layer_1
6
CONTINUOUS
62
7
10
1.1072511387799295
20
14.521640573357899
0
VERTEX
8
Layer_1
6
CONTINUOUS
62
7
10
1.2454717431878635
20
14.578046787786064
0
VERTEX
8
Layer_1
6
CONTINUOUS
62
7
10
1.4178983375620646
20
14.633603271977762
0
VERTEX
8
Layer_1
6
CONTINUOUS
62
7
10
1.8105740045711514
20
14.713590069696011
0
VERTEX
8
Layer_1
6
CONTINUOUS
62
7
10
2.0983582698660257
20
14.748080875332086
0
VERTEX
8
Layer_1
6
CONTINUOUS
62
7
10
2.387614917072824
20
14.766928709287157
0
VERTEX
8
Layer_1
6
CONTINUOUS
62
7
10
2.9674140852118285
20
14.762298452333937
0
VERTEX
8
Layer_1
6
CONTINUOUS
62
7
10
3.5816888096773027
20
14.707614905137376
0
VERTEX
8
Layer_1
6
CONTINUOUS
62
7
10
4.4092788427429355
20
14.613620727045117
0
VERTEX
8
Layer_1
6
CONTINUOUS
62
7
10
4.4487713913637972
20
14.617769493362232
0
VERTEX
8
Layer_1
6
CONTINUOUS
62
7
10
4.4824387559087029
20
14.636103864779059
0
VERTEX
8
Layer_1
6
CONTINUOUS
62
7
10
4.5067746150467176
20
14.665724914226132
0
VERTEX
8
Layer_1
6
CONTINUOUS
62
7
10
4.5182726474469064
20
14.703733714633984
0
VERTEX
8
Layer_1
6
CONTINUOUS
62
7
10
4.4985778367099627
20
14.77336221449972
0
VERTEX
8
Layer_1
6
CONTINUOUS
62
7
10
4.4370689623211206
20
14.811476148105896
0
VERTEX
8
Layer_1
6
CONTINUOUS
62
7
10
4.0363427461571746
20
14.883061881247812
0
VERTEX
8
Layer_1
6
CONTINUOUS
62
7
10
3.6206065970025634
20
14.979104431060193
0
VERTEX
8
Layer_1
6
CONTINUOUS
62
7
10
3.0784129964771978
20
15.130728944552487
0
VERTEX
8
Layer_1
6
CONTINUOUS
62
7
10
2.5446095374855986
20
15.30968521538361
0
VERTEX
8
Layer_1
6
CONTINUOUS
62
7
10
2.0938093104323343
20
15.490386005551301
0
VERTEX
8
Layer_1
6
CONTINUOUS
62
7
10
1.875745923893767
20
15.601996101281081
0
VERTEX
8
Layer_1
6
CONTINUOUS
62
7
10
1.6628772074303697
20
15.723734689745044
0
VERTEX
8
Layer_1
6
CONTINUOUS
62
7
10
1.5287015806391651
20
15.813398228576034
0
VERTEX
8
Layer_1
6
CONTINUOUS
62
7
10
1.4244775499380253
20
15.90048886028924
0
VERTEX
8
Layer_1
6
CONTINUOUS
62
7
10
1.3327981224985024
20
16.00046465925854
0
VERTEX
8
Layer_1
6
CONTINUOUS
62
7
10
1.2456384933120717
20
16.137352250507377
0
VERTEX
8
Layer_1
6
CONTINUOUS
62
7
10
1.2063143481980774
20
16.26973575895974
0
VERTEX
8
Layer_1
6
CONTINUOUS
62
7
10
1.2082576193344607
20
16.379850985582181
0
VERTEX
8
Layer_1
6
CONTINUOUS
62
7
10
1.2365235910315846
20
16.4612385293903
0
VERTEX
8
Layer_1
6
CONTINUOUS
62
7
10
1.2984320910249423
20
16.520877191043962
0
VERTEX
8
Layer_1
6
CONTINUOUS
62
7
10
1.369173866655558
20
16.571611241611606
0
VERTEX
8
Layer_1
6
CONTINUOUS
62
7
10
1.4419812845599154
20
16.607204699818539
0
VERTEX
8
Layer_1
6
CONTINUOUS
62
7
10
1.5637042665959484
20
16.62964897133196
0
VERTEX
8
Layer_1
6
CONTINUOUS
62
7
10
1.7743538256175952
20
16.619521477486927
0
VERTEX
8
Layer_1
6
CONTINUOUS
62
7
10
2.0818098650571741
20
16.565019956776116
0
VERTEX
8
Layer_1
6
CONTINUOUS
62
7
10
2.3871429787410534
20
16.498155551430585
0
VERTEX
8
Layer_1
6
CONTINUOUS
62
7
10
2.6931469088920039
20
16.413421394422443
0
VERTEX
8
Layer_1
6
CONTINUOUS
62
7
10
3.3397272346146352
20
16.187221827576671
0
VERTEX
8
Layer_1
6
CONTINUOUS
62
7
10
3.9730320429457038
20
15.925383062730845
0
VERTEX
8
Layer_1
6
CONTINUOUS
62
7
10
4.6338753319021038
20
15.616895500059005
0
VERTEX
8
Layer_1
6
CONTINUOUS
62
7
10
5.2875085604858896
20
15.292913828925492
0
VERTEX
8
Layer_1
6
CONTINUOUS
62
7
10
5.3259919355824357
20
15.283120795655641
0
VERTEX
8
Layer_1
6
CONTINUOUS
62
7
10
5.3639265541159276
20
15.288653003915222
0
VERTEX
8
Layer_1
6
CONTINUOUS
62
7
10
5.3970188091764557
20
15.308006124237263
0
VERTEX
8
Layer_1
6
CONTINUOUS
62
7
10
5.4209750938541106
20
15.339675827154792
0
VERTEX
8
Layer_1
6
CONTINUOUS
62
7
10
5.4268797951643748
20
15.410962982629631
0
VERTEX
8
Layer_1
6
CONTINUOUS
62
7
10
5.3836542408515129
20
15.467956626903401
0
VERTEX
8
Layer_1
6
CONTINUOUS
62
7
10
4.7886072258206696
20
15.832811301509679
0
VERTEX
8
Layer_1
6
CONTINUOUS
62
7
10
4.3706790388773697
20
16.109391764696824
0
VERTEX
8
Layer_1
6
CONTINUOUS
62
7
10
3.9310147031550287
20
16.422230144482171
0
VERTEX
8
Layer_1
6
CONTINUOUS
62
7
10
3.5119846936145791
20
16.753969407672201
0
VERTEX
8
Layer_1
6
CONTINUOUS
62
7
10
3.117932210484355
20
17.099969698339038
0
VERTEX
8
Layer_1
6
CONTINUOUS
62
7
10
2.9407664855777398
20
17.287091748237856
0
VERTEX
8
Layer_1
6
CONTINUOUS
62
7
10
2.7370302991128597
20
17.525680577545529
0
VERTEX
8
Layer_1
6
CONTINUOUS
62
7
10
2.5845475676809357
20
17.740215332659588
0
VERTEX
8
Layer_1
6
CONTINUOUS
62
7
10
2.5237813978795272
20
17.856087327242761
0
VERTEX
8
Layer_1
6
CONTINUOUS
62
7
10
2.4793843582194768
20
17.978873330712986
0
VERTEX
8
Layer_1
6
CONTINUOUS
62
7
10
2.4568674790032219
20
18.120502903857442
0
VERTEX
8
Layer_1
6
CONTINUOUS
62
7
10
2.4695965414003354
20
18.242027877057978
0
VERTEX
8
Layer_1
6
CONTINUOUS
62
7
10
2.5082475317221906
20
18.328773665487233
0
VERTEX
8
Layer_1
6
CONTINUOUS
62
7
10
2.5910619983715151
20
18.438978868386101
0
VERTEX
8
Layer_1
6
CONTINUOUS
62
7
10
2.6778911938071701
20
18.515362644413869
0
VERTEX
8
Layer_1
6
CONTINUOUS
62
7
10
2.8075236072472194
20
18.570243628168242
0
VERTEX
8
Layer_1
6
CONTINUOUS
62
7
10
2.9074907394690399
20
18.58263537252202
0
VERTEX
8
Layer_1
6
CONTINUOUS
62
7
10
3.0094288549742032
20
18.580663596928275
0
VERTEX
8
Layer_1
6
CONTINUOUS
62
7
10
3.192207291485488
20
18.542116220466369
0
VERTEX
8
Layer_1
6
CONTINUOUS
62
7
10
3.2703689256576354
20
18.514132164735457
0
VERTEX
8
Layer_1
6
CONTINUOUS
62
7
10
3.4664515680235297
20
18.419602900528457
0
VERTEX
8
Layer_1
6
CONTINUOUS
62
7
10
3.6545818978896136
20
18.310516650332886
0
VERTEX
8
Layer_1
6
CONTINUOUS
62
7
10
3.9538973271875477
20
18.090619430373518
0
VERTEX
8
Layer_1
6
CONTINUOUS
62
7
10
4.2335574230914972
20
17.84564366367465
0
VERTEX
8
Layer_1
6
CONTINUOUS
62
7
10
4.5925609971081442
20
17.490827899030894
0
VERTEX
8
Layer_1
6
CONTINUOUS
62
7
10
4.9320340679388437
20
17.117207138599412
0
VERTEX
8
Layer_1
6
CONTINUOUS
62
7
10
5.4118161574824057
20
16.539822493462651
0
VERTEX
8
Layer_1
6
CONTINUOUS
62
7
10
5.8151069696530726
20
16.019711910753415
0
VERTEX
8
Layer_1
6
CONTINUOUS
62
7
10
5.8452994111047598
20
15.99391869195901
0
VERTEX
8
Layer_1
6
CONTINUOUS
62
7
10
5.8817729349335508
20
15.982115189582281
0
VERTEX
8
Layer_1
6
CONTINUOUS
62
7
10
5.9200111805909987
20
15.984849632408418
0
VERTEX
8
Layer_1
6
CONTINUOUS
62
7
10
5.9554977875286568
20
16.002670249222604
0
VERTEX
8
Layer_1
6
CONTINUOUS
62
7
10
5.9921774732262634
20
16.063318872427182
0
VERTEX
8
Layer_1
6
CONTINUOUS
62
7
10
5.9794473714895844
20
16.133044042554332
0
VERTEX
8
Layer_1
6
CONTINUOUS
62
7
10
5.5847132333073546
20
16.776224000432592
0
VERTEX
8
Layer_1
6
CONTINUOUS
62
7
10
5.2161352944316377
20
17.435530743012038
0
VERTEX
8
Layer_1
6
CONTINUOUS
62
7
10
4.9782697344706435
20
17.880624348111951
0
VERTEX
8
Layer_1
6
CONTINUOUS
62
7
10
4.813407378688936
20
18.217311298374426
0
VERTEX
8
Layer_1
6
CONTINUOUS
62
7
10
4.6641437058294173
20
18.561041718638023
0
VERTEX
8
Layer_1
6
CONTINUOUS
62
7
10
4.4694272501835144
20
19.124309379005553
0
VERTEX
8
Layer_1
6
CONTINUOUS
62
7
10
4.4340811438029277
20
19.283683060233443
0
VERTEX
8
Layer_1
6
CONTINUOUS
62
7
10
4.4189490401826674
20
19.445880736375727
0
VERTEX
8
Layer_1
6
CONTINUOUS
62
7
10
4.4325840803008987
20
19.600820986682379
0
VERTEX
8
Layer_1
6
CONTINUOUS
62
7
10
4.4718285498444175
20
19.703260457812888
0
VERTEX
8
Layer_1
6
CONTINUOUS
62
7
10
4.5018103194810237
20
19.74133686278546
0
VERTEX
8
Layer_1
6
CONTINUOUS
62
7
10
4.5542935782232234
20
19.773149168431218
0
VERTEX
8
Layer_1
6
CONTINUOUS
62
7
10
4.6525587037706941
20
19.796372064485979
0
VERTEX
8
Layer_1
6
CONTINUOUS
62
7
10
4.7958210040870881
20
19.798400380482576
0
VERTEX
8
Layer_1
6
CONTINUOUS
62
7
10
4.9122085032444716
20
19.773735772846123
0
VERTEX
8
Layer_1
6
CONTINUOUS
62
7
10
5.1210093763338591
20
19.667887735927536
0
VERTEX
8
Layer_1
6
CONTINUOUS
62
7
10
5.2989857121714294
20
19.520824313101201
0
VERTEX
8
Layer_1
6
CONTINUOUS
62
7
10
5.4986632099238477
20
19.280227775741565
0
VERTEX
8
Layer_1
6
CONTINUOUS
62
7
10
5.5652286590020594
20
19.17771623793692
0
VERTEX
8
Layer_1
6
CONTINUOUS
62
7
10
5.6835114634170054
20
18.95547448413916
0
VERTEX
8
Layer_1
6
CONTINUOUS
62
7
10
5.8125564919682802
20
18.677705972772287
0
VERTEX
8
Layer_1
6
CONTINUOUS
62
7
10
5.9430065243969921
20
18.348807179364975
0
VERTEX
8
Layer_1
6
CONTINUOUS
62
7
10
6.0616743287483814
20
18.015264094878887
0
VERTEX
8
Layer_1
6
CONTINUOUS
62
7
10
6.210966001232066
20
17.514832587609874
0
VERTEX
8
Layer_1
6
CONTINUOUS
62
7
10
6.3594326805439891
20
16.949293431509346
0
VERTEX
8
Layer_1
6
CONTINUOUS
62
7
10
6.5176054117238778
20
16.1803535563906
0
VERTEX
8
Layer_1
6
CONTINUOUS
62
7
10
6.5328005832975702
20
16.143665950643516
0
VERTEX
8
Layer_1
6
CONTINUOUS
62
7
10
6.5599425514250527
20
16.116592824241764
0
VERTEX
8
Layer_1
6
CONTINUOUS
62
7
10
6.5952558657872817
20
16.101672689006641
0
VERTEX
8
Layer_1
6
CONTINUOUS
62
7
10
6.6349650760652139
20
16.101444056759448
0
VERTEX
8
Layer_1
6
CONTINUOUS
62
7
10
6.6963921505659343
20
16.140458172169478
0
VERTEX
8
Layer_1
6
CONTINUOUS
62
7
10
6.715110789197638
20
16.210778860808887
0
SEQEND
0
POLYLINE
8
Layer_1
6
CONTINUOUS
62
7
66
1
10
0
20
0
70
128
40
0
41
0
0
VERTEX
8
Layer_1
6
CONTINUOUS
62
7
10
11.536237678423491
20
8.850125651368181
0
VERTEX
8
Layer_1
6
CONTINUOUS
62
7
10
12.345466523782777
20
9.4255137596759955
0
VERTEX
8
Layer_1
6
CONTINUOUS
62
7
10
12.757854531927453
20
9.6999196324389434
0
VERTEX
8
Layer_1
6
CONTINUOUS
62
7
10
13.187397959183688
20
9.9449999999999932
0
VERTEX
8
Layer_1
6
CONTINUOUS
62
7
10
13.45731172389273
20
10.071149106115403
0
VERTEX
8
Layer_1
6
CONTINUOUS
62
7
10
13.734316432491649
20
10.181828033011433
0
VERTEX
8
Layer_1
6
CONTINUOUS
62
7
10
14.298622448979607
20
10.377142857142871
0
VERTEX
8
Layer_1
6
CONTINUOUS
62
7
10
14.917434240816982
20
10.567309443580001
0
VERTEX
8
Layer_1
6
CONTINUOUS
62
7
10
15.545663265306143
20
10.722857142857151
0
VERTEX
8
Layer_1
6
CONTINUOUS
62
7
10
16.079012857076503
20
10.808819047831806
0
SEQEND
0
POLYLINE
8
Layer_1
6
CONTINUOUS
62
7
66
1
10
0
20
0
70
128
40
0
41
0
0
VERTEX
8
Layer_1
6
CONTINUOUS
62
7
10
14.868140085545509
20
10.853240352155893
0
VERTEX
8
Layer_1
6
CONTINUOUS
62
7
10
14.756364653048703
20
10.732202702198245
0
VERTEX
8
Layer_1
6
CONTINUOUS
62
7
10
14.651548785867742
20
10.605707438238454
0
VERTEX
8
Layer_1
6
CONTINUOUS
62
7
10
14.567296978392642
20
10.462731209341889
0
SEQEND
0
POLYLINE
8
Layer_1
6
CONTINUOUS
62
7
66
1
10
0
20
0
70
128
40
0
41
0
0
VERTEX
8
Layer_1
6
CONTINUOUS
62
7
10
13.692358744437641
20
10.551559613319
0
VERTEX
8
Layer_1
6
CONTINUOUS
62
7
10
13.598976921875249
20
10.403000110165527
0
VERTEX
8
Layer_1
6
CONTINUOUS
62
7
10
13.514444462559476
20
10.249878874482107
0
VERTEX
8
Layer_1
6
CONTINUOUS
62
7
10
13.451910662324952
20
10.068733880820311
0
SEQEND
0
POLYLINE
8
Layer_1
6
CONTINUOUS
62
7
66
1
10
0
20
0
70
128
40
0
41
0
0
VERTEX
8
Layer_1
6
CONTINUOUS
62
7
10
13.963097869034847
20
9.8553732929262026
0
VERTEX
8
Layer_1
6
CONTINUOUS
62
7
10
13.769177292516652
20
9.8989520255865493
0
VERTEX
8
Layer_1
6
CONTINUOUS
62
7
10
13.67386820024511
20
9.9247048015138812
0
VERTEX
8
Layer_1
6
CONTINUOUS
62
7
10
13.584063094598758
20
9.9636689427650822
0
VERTEX
8
Layer_1
6
CONTINUOUS
62
7
10
13.452245160932899
20
10.069830282570036
0
SEQEND
0
POLYLINE
8
Layer_1
6
CONTINUOUS
62
7
66
1
10
0
20
0
70
128
40
0
41
0
0
VERTEX
8
Layer_1
6
CONTINUOUS
62
7
10
15.061525174543513
20
10.311762102961467
0
VERTEX
8
Layer_1
6
CONTINUOUS
62
7
10
14.908727762585423
20
10.323006816339184
0
VERTEX
8
Layer_1
6
CONTINUOUS
62
7
10
14.759844435706626
20
10.350439120761081
0
VERTEX
8
Layer_1
6
CONTINUOUS
62
7
10
14.659437073944433
20
10.399339390841721
0
VERTEX
8
Layer_1
6
CONTINUOUS
62
7
10
14.566577846000964
20
10.463284072854265
0
SEQEND
0
POLYLINE
8
Layer_1
6
CONTINUOUS
62
7
66
1
10
0
20
0
70
128
40
0
41
0
0
VERTEX
8
Layer_1
6
CONTINUOUS
62
7
10
9.9425266861391464
20
6.567848114710614
0
VERTEX
8
Layer_1
6
CONTINUOUS
62
7
10
9.2456851487553529
20
6.7930205838293922
0
VERTEX
8
Layer_1
6
CONTINUOUS
62
7
10
8.8955832757539142
20
6.8985191074187862
0
VERTEX
8
Layer_1
6
CONTINUOUS
62
7
10
8.5398777217206678
20
6.9803919277748605
0
VERTEX
8
Layer_1
6
CONTINUOUS
62
7
10
8.1135280033844559
20
7.0319505018193436
0
VERTEX
8
Layer_1
6
CONTINUOUS
62
7
10
7.6838493096123273
20
7.052587095061142
0
VERTEX
8
Layer_1
6
CONTINUOUS
62
7
10
7.1010867537606801
20
7.0535519244869613
0
VERTEX
8
Layer_1
6
CONTINUOUS
62
7
10
6.5184130377057965
20
7.0319599044079268
0
VERTEX
8
Layer_1
6
CONTINUOUS
62
7
10
5.4457991237387215
20
6.9597647371216453
0
SEQEND
0
POLYLINE
8
Layer_1
6
CONTINUOUS
62
7
66
1
10
0
20
0
70
128
40
0
41
0
0
VERTEX
8
Layer_1
6
CONTINUOUS
62
7
10
6.4977858470525849
20
7.3619949548593127
0
VERTEX
8
Layer_1
6
CONTINUOUS
62
7
10
6.6981041807285706
20
7.2932717544588401
0
VERTEX
8
Layer_1
6
CONTINUOUS
62
7
10
6.8897024694636304
20
7.2072910249602273
0
VERTEX
8
Layer_1
6
CONTINUOUS
62
7
10
6.980218784907736
20
7.1337569167265711
0
VERTEX
8
Layer_1
6
CONTINUOUS
62
7
10
7.0650335900159416
20
7.052587095061142
0
SEQEND
0
POLYLINE
8
Layer_1
6
CONTINUOUS
62
7
66
1
10
0
20
0
70
128
40
0
41
0
0
VERTEX
8
Layer_1
6
CONTINUOUS
62
7
10
6.6937441582581076
20
6.7741200212427088
0
VERTEX
8
Layer_1
6
CONTINUOUS
62
7
10
6.8221025822550221
20
6.8234771421139717
0
VERTEX
8
Layer_1
6
CONTINUOUS
62
7
10
6.941270446096663
20
6.8875695698353638
0
VERTEX
8
Layer_1
6
CONTINUOUS
62
7
10
7.0076397689472554
20
6.9657755574457481
0
VERTEX
8
Layer_1
6
CONTINUOUS
62
7
10
7.0650335900159416
20
7.052587095061142
0
SEQEND
0
POLYLINE
8
Layer_1
6
CONTINUOUS
62
7
66
1
10
0
20
0
70
128
40
0
41
0
0
VERTEX
8
Layer_1
6
CONTINUOUS
62
7
10
7.9210620021242804
20
7.382622145512471
0
VERTEX
8
Layer_1
6
CONTINUOUS
62
7
10
8.1077409125146147
20
7.2936200689556152
0
VERTEX
8
Layer_1
6
CONTINUOUS
62
7
10
8.1987587456442608
20
7.2457526260349745
0
VERTEX
8
Layer_1
6
CONTINUOUS
62
7
10
8.2820378385555067
20
7.1866638343069553
0
VERTEX
8
Layer_1
6
CONTINUOUS
62
7
10
8.3637160562911852
20
7.0928335554065587
0
VERTEX
8
Layer_1
6
CONTINUOUS
62
7
10
8.4367417684546027
20
6.9907055231014397
0
SEQEND
0
POLYLINE
8
Layer_1
6
CONTINUOUS
62
7
66
1
10
0
20
0
70
128
40
0
41
0
0
VERTEX
8
Layer_1
6
CONTINUOUS
62
7
10
8.0448251460435571
20
6.7431792352628577
0
VERTEX
8
Layer_1
6
CONTINUOUS
62
7
10
8.1832989179566979
20
6.7866239849444119
0
VERTEX
8
Layer_1
6
CONTINUOUS
62
7
10
8.3129786245353259
20
6.8463151885289335
0
VERTEX
8
Layer_1
6
CONTINUOUS
62
7
10
8.378666475797818
20
6.914372058262261
0
VERTEX
8
Layer_1
6
CONTINUOUS
62
7
10
8.4367417684546027
20
6.9907055231014397
0
SEQEND
0
ENDSEC
0
EOF
