0
SECTION
2
HEADER
9
$ANGDIR
70
0
9
$CHAMFERA
40
10
9
$CHAMFERB
40
10
9
$CLAYER
8
Layer_1
9
$EXTMAX
10
16.708764701943711
20
48.754721398186632
9
$EXTMIN
10
3.0700928919094044
20
3.5897350460806008
9
$LIMMAX
10
420
20
297
9
$LIMMIN
10
0
20
0
9
$LTSCALE
40
10
9
$PLINEGEN
70
0
9
$TEXTSIZE
40
20
9
$GRIDUNIT
10
10
20
10
9
$SNAPUNIT
10
1
20
1
0
ENDSEC
0
SECTION
2
TABLES
0
TABLE
2
STYLE
70
1
0
STYLE
2
STANDARD
70
0
40
0
41
1
50
0
71
0
42
0.20000000000000001
3
txt
4

0
ENDTAB
0
TABLE
2
LTYPE
70
14
0
LTYPE
2
CONTINUOUS
70
0
3
Solid line
72
65
73
0
40
0
0
LTYPE
2
DOT
70
0
3
............................................
72
65
73
2
40
0.25
49
0
49
-0.25
0
LTYPE
2
HIDDEN
70
0
3
_ _ _ _ _ _ _ _ _ _ _ _ _ _ _ _ _ _ _ _ _ _ 
72
65
73
2
40
0.375
49
0.25
49
-0.125
0
LTYPE
2
TSLONGDASH
70
0
3
__ __ __ __ __ __ __ __ __ __ __ __ __ __ _ 
72
65
73
2
40
1.28
49
1
49
-0.28000000000000003
0
LTYPE
2
TSDASHDOT
70
0
3
______ . ______ . ______ . ______ . ______ .
72
65
73
4
40
1.28
49
1
49
-0.14000000000000001
49
0
49
-0.14000000000000001
0
LTYPE
2
TSCENTER
70
0
3
______ _ ______ _ ______ _ ______ _ ______ _
72
65
73
4
40
2
49
1.5
49
-0.17999999999999999
49
0.14000000000000001
49
-0.17999999999999999
0
LTYPE
2
TSPHANTOM
70
0
3
_____ _ _ _____ _ _ _____ _ _ _____ _ _ ____
72
65
73
6
40
2.5
49
1.6299999999999999
49
-0.19
49
0.14999999999999999
49
-0.19
49
0.14999999999999999
49
-0.19
0
LTYPE
2
DASHED
70
0
3
__ __ __ __ __ __ __ __ __ __ __ __ __ __ __
72
65
73
2
40
0.75
49
0.5
49
-0.25
0
LTYPE
2
CENTER
70
0
3
____ _ ____ _ ____ _ ____ _ ____ _ ____ _ __
72
65
73
4
40
2
49
1.25
49
-0.25
49
0.25
49
-0.25
0
LTYPE
2
PHANTOM
70
0
3
_____ _ _ _____ _ _ _____ _ _ _____ _ _ ____
72
65
73
6
40
2.5
49
1.25
49
-0.25
49
0.25
49
-0.25
49
0.25
49
-0.25
0
LTYPE
2
DASHDOT
70
0
3
__ . __ . __ . __ . __ . __ . __ . __ . __ .
72
65
73
4
40
1
49
0.5
49
-0.25
49
0
49
-0.25
0
LTYPE
2
BORDER
70
0
3
__ __ . __ __ . __ __ . __ __ . __ __ . __ _
72
65
73
6
40
1.75
49
0.5
49
-0.25
49
0.5
49
-0.25
49
0
49
-0.25
0
LTYPE
2
DIVIDE
70
0
3
__ . . __ . . __ . . __ . . __ . . __ . . __
72
65
73
6
40
1.25
49
0.5
49
-0.25
49
0
49
-0.25
49
0
49
-0.25
0
ENDTAB
0
TABLE
2
LAYER
70
3
0
LAYER
2
Layer_1
70
0
62
7
6
CONTINUOUS
0
LAYER
2
Layer_2
70
0
62
7
6
CONTINUOUS
0
LAYER
2
Layer_3
70
0
62
7
6
CONTINUOUS
0
ENDTAB
0
ENDSEC
0
SECTION
2
ENTITIES
0
POLYLINE
8
Layer_1
6
CONTINUOUS
62
7
66
1
10
0
20
0
70
129
40
0
41
0
0
VERTEX
8
Layer_1
6
CONTINUOUS
62
7
10
9.4741362923285237
20
4.411786632935673
0
VERTEX
8
Layer_1
6
CONTINUOUS
62
7
10
9.8518083960651026
20
4.7002924548252132
0
VERTEX
8
Layer_1
6
CONTINUOUS
62
7
10
10.190812826842544
20
5.0241856776352805
0
VERTEX
8
Layer_1
6
CONTINUOUS
62
7
10
10.494506182415197
20
5.3800662180644654
0
VERTEX
8
Layer_1
6
CONTINUOUS
62
7
10
10.766245060537413
20
5.7645339928113577
0
VERTEX
8
Layer_1
6
CONTINUOUS
62
7
10
11.009386058963544
20
6.1741889185745435
0
VERTEX
8
Layer_1
6
CONTINUOUS
62
7
10
11.227285775447942
20
6.6056309120526127
0
VERTEX
8
Layer_1
6
CONTINUOUS
62
7
10
11.423300807744958
20
7.055459889944153
0
VERTEX
8
Layer_1
6
CONTINUOUS
62
7
10
11.600787753608945
20
7.5202757689477551
0
VERTEX
8
Layer_1
6
CONTINUOUS
62
7
10
11.763103210794249
20
7.996678465762006
0
VERTEX
8
Layer_1
6
CONTINUOUS
62
7
10
11.913603777055227
20
8.4812678970854947
0
VERTEX
8
Layer_1
6
CONTINUOUS
62
7
10
12.192586627821605
20
9.4614066300545403
0
VERTEX
8
Layer_1
6
CONTINUOUS
62
7
10
12.464589087942883
20
10.433491301443604
0
VERTEX
8
Layer_1
6
CONTINUOUS
62
7
10
12.75646393945388
20
11.370321244841392
0
VERTEX
8
Layer_1
6
CONTINUOUS
62
7
10
13.095632825597088
20
12.403635194136736
0
VERTEX
8
Layer_1
6
CONTINUOUS
62
7
10
13.411079376651116
20
13.44414079285691
0
VERTEX
8
Layer_1
6
CONTINUOUS
62
7
10
13.704292161875649
20
14.491252474297173
0
VERTEX
8
Layer_1
6
CONTINUOUS
62
7
10
13.976759750530359
20
15.544384671752795
0
VERTEX
8
Layer_1
6
CONTINUOUS
62
7
10
14.229970711874929
20
16.602951818519031
0
VERTEX
8
Layer_1
6
CONTINUOUS
62
7
10
14.465413615169037
20
17.666368347891144
0
VERTEX
8
Layer_1
6
CONTINUOUS
62
7
10
14.684577029672365
20
18.734048693164393
0
VERTEX
8
Layer_1
6
CONTINUOUS
62
7
10
14.888949524644588
20
19.805407287634043
0
VERTEX
8
Layer_1
6
CONTINUOUS
62
7
10
15.259276033034446
20
21.956816957343598
0
VERTEX
8
Layer_1
6
CONTINUOUS
62
7
10
15.588301694416042
20
24.115912823381898
0
VERTEX
8
Layer_1
6
CONTINUOUS
62
7
10
15.887935062866816
20
26.278010352111036
0
VERTEX
8
Layer_1
6
CONTINUOUS
62
7
10
16.170084692464201
20
28.438425009893109
0
VERTEX
8
Layer_1
6
CONTINUOUS
62
7
10
16.400099802420225
20
30.335285019080573
0
VERTEX
8
Layer_1
6
CONTINUOUS
62
7
10
16.499636143144809
20
31.286310275599931
0
VERTEX
8
Layer_1
6
CONTINUOUS
62
7
10
16.583946721426134
20
32.23860023586208
0
VERTEX
8
Layer_1
6
CONTINUOUS
62
7
10
16.649347822558468
20
33.191805801711268
0
VERTEX
8
Layer_1
6
CONTINUOUS
62
7
10
16.692155731836092
20
34.145577874991794
0
VERTEX
8
Layer_1
6
CONTINUOUS
62
7
10
16.708686734553261
20
35.099567357547912
0
VERTEX
8
Layer_1
6
CONTINUOUS
62
7
10
16.695257116004257
20
36.053425151223905
0
VERTEX
8
Layer_1
6
CONTINUOUS
62
7
10
16.623367413069893
20
37.611120863901427
0
VERTEX
8
Layer_1
6
CONTINUOUS
62
7
10
16.564645581604051
20
38.390077487905607
0
VERTEX
8
Layer_1
6
CONTINUOUS
62
7
10
16.486213492019296
20
39.16704838512802
0
VERTEX
8
Layer_1
6
CONTINUOUS
62
7
10
16.384676940725782
20
39.940489876649643
0
VERTEX
8
Layer_1
6
CONTINUOUS
62
7
10
16.256641724133658
20
40.708858283551457
0
VERTEX
8
Layer_1
6
CONTINUOUS
62
7
10
16.098713638653077
20
41.470609926914427
0
VERTEX
8
Layer_1
6
CONTINUOUS
62
7
10
15.907498480694187
20
42.224201127819526
0
VERTEX
8
Layer_1
6
CONTINUOUS
62
7
10
15.62057967725859
20
43.188842001496866
0
VERTEX
8
Layer_1
6
CONTINUOUS
62
7
10
15.458568281323679
20
43.66760640676182
0
VERTEX
8
Layer_1
6
CONTINUOUS
62
7
10
15.279821884263892
20
44.139818123485959
0
VERTEX
8
Layer_1
6
CONTINUOUS
62
7
10
15.081065232344134
20
44.602340651050568
0
VERTEX
8
Layer_1
6
CONTINUOUS
62
7
10
14.859023071829302
20
45.05203748883693
0
VERTEX
8
Layer_1
6
CONTINUOUS
62
7
10
14.610420148984296
20
45.485772136226281
0
VERTEX
8
Layer_1
6
CONTINUOUS
62
7
10
14.331981210074019
20
45.900408092599889
0
VERTEX
8
Layer_1
6
CONTINUOUS
62
7
10
14.089607992634264
20
46.213544958143416
0
VERTEX
8
Layer_1
6
CONTINUOUS
62
7
10
13.829059846607162
20
46.513642544257884
0
VERTEX
8
Layer_1
6
CONTINUOUS
62
7
10
13.551847626171881
20
46.799998968690176
0
VERTEX
8
Layer_1
6
CONTINUOUS
62
7
10
13.25948218550759
20
47.071912349187173
0
VERTEX
8
Layer_1
6
CONTINUOUS
62
7
10
12.953474378793464
20
47.328680803495779
0
VERTEX
8
Layer_1
6
CONTINUOUS
62
7
10
12.635335060208675
20
47.569602449362876
0
VERTEX
8
Layer_1
6
CONTINUOUS
62
7
10
12.30657508393239
20
47.79397540453536
0
VERTEX
8
Layer_1
6
CONTINUOUS
62
7
10
11.968705304143782
20
48.001097786760113
0
VERTEX
8
Layer_1
6
CONTINUOUS
62
7
10
11.534264136858337
20
48.226071827613112
0
VERTEX
8
Layer_1
6
CONTINUOUS
62
7
10
11.07914223859725
20
48.410966324350788
0
VERTEX
8
Layer_1
6
CONTINUOUS
62
7
10
10.609276002511884
20
48.555042934649379
0
VERTEX
8
Layer_1
6
CONTINUOUS
62
7
10
10.130601821753601
20
48.657563316185133
0
VERTEX
8
Layer_1
6
CONTINUOUS
62
7
10
9.7360649084195803
20
48.717860162461932
0
VERTEX
8
Layer_1
6
CONTINUOUS
62
7
10
9.3355572173972412
20
48.752570612292999
0
VERTEX
8
Layer_1
6
CONTINUOUS
62
7
10
9.1360686309440311
20
48.753481797413819
0
VERTEX
8
Layer_1
6
CONTINUOUS
62
7
10
8.93869251089804
20
48.739777414070133
0
VERTEX
8
Layer_1
6
CONTINUOUS
62
7
10
8.7446305775356947
20
48.708717805810906
0
VERTEX
8
Layer_1
6
CONTINUOUS
62
7
10
8.555084551133433
20
48.657563316185133
0
VERTEX
8
Layer_1
6
CONTINUOUS
62
7
10
8.2649358203531591
20
48.538948989105535
0
VERTEX
8
Layer_1
6
CONTINUOUS
62
7
10
7.9914539587721247
20
48.385967636183437
0
VERTEX
8
Layer_1
6
CONTINUOUS
62
7
10
7.73258755425441
20
48.204613437233242
0
VERTEX
8
Layer_1
6
CONTINUOUS
62
7
10
7.486285194664088
20
48.000880572069363
0
VERTEX
8
Layer_1
6
CONTINUOUS
62
7
10
7.2504954678652362
20
47.780763220506202
0
VERTEX
8
Layer_1
6
CONTINUOUS
62
7
10
7.0231669617219303
20
47.550255562358146
0
VERTEX
8
Layer_1
6
CONTINUOUS
62
7
10
6.585687962858259
20
47.082046045564994
0
VERTEX
8
Layer_1
6
CONTINUOUS
62
7
10
6.0863980642127906
20
46.511033133955294
0
VERTEX
8
Layer_1
6
CONTINUOUS
62
7
10
5.6275088462942442
20
45.903976516391815
0
VERTEX
8
Layer_1
6
CONTINUOUS
62
7
10
5.4169602061790627
20
45.58738063587321
0
VERTEX
8
Layer_1
6
CONTINUOUS
62
7
10
5.221006592531408
20
45.262312410461114
0
VERTEX
8
Layer_1
6
CONTINUOUS
62
7
10
5.0411462907798779
20
44.928951367353847
0
VERTEX
8
Layer_1
6
CONTINUOUS
62
7
10
4.8788775863530702
20
44.587477033749735
0
VERTEX
8
Layer_1
6
CONTINUOUS
62
7
10
4.7019384417959378
20
44.163289942205409
0
VERTEX
8
Layer_1
6
CONTINUOUS
62
7
10
4.5429115060428362
20
43.732803713615198
0
VERTEX
8
Layer_1
6
CONTINUOUS
62
7
10
4.4004348810432203
20
43.29659293563364
0
VERTEX
8
Layer_1
6
CONTINUOUS
62
7
10
4.2731466687465467
20
42.855232195915264
0
VERTEX
8
Layer_1
6
CONTINUOUS
62
7
10
4.0586878900598524
20
41.959359181886214
0
VERTEX
8
Layer_1
6
CONTINUOUS
62
7
10
3.8886399855783971
20
41.049781372764322
0
VERTEX
8
Layer_1
6
CONTINUOUS
62
7
10
3.7521077708978297
20
40.131095469785876
0
VERTEX
8
Layer_1
6
CONTINUOUS
62
7
10
3.6381960616137969
20
39.20789817418715
0
VERTEX
8
Layer_1
6
CONTINUOUS
62
7
10
3.4346534216179236
20
37.366356210074002
0
VERTEX
8
Layer_1
6
CONTINUOUS
62
7
10
3.2783844241083764
20
35.765696177717544
0
VERTEX
8
Layer_1
6
CONTINUOUS
62
7
10
3.1706538205626282
20
34.16088948482934
0
VERTEX
8
Layer_1
6
CONTINUOUS
62
7
10
3.1048275170042503
20
32.552912245284574
0
VERTEX
8
Layer_1
6
CONTINUOUS
62
7
10
3.0742714194568137
20
30.942740572958382
0
VERTEX
8
Layer_1
6
CONTINUOUS
62
7
10
3.07235143394389
20
29.331350581725943
0
VERTEX
8
Layer_1
6
CONTINUOUS
62
7
10
3.0924334664890507
20
27.719718385462414
0
VERTEX
8
Layer_1
6
CONTINUOUS
62
7
10
3.1720672098479099
20
24.499631833342733
0
VERTEX
8
Layer_1
6
CONTINUOUS
62
7
10
3.2377232922818528
20
22.640166821451036
0
VERTEX
8
Layer_1
6
CONTINUOUS
62
7
10
3.3273389085317042
20
20.781281635019411
0
VERTEX
8
Layer_1
6
CONTINUOUS
62
7
10
3.4406555290733234
20
18.923393488641523
0
VERTEX
8
Layer_1
6
CONTINUOUS
62
7
10
3.5774146243825697
20
17.066919596911028
0
VERTEX
8
Layer_1
6
CONTINUOUS
62
7
10
3.7373576649353026
20
15.21227717442159
0
VERTEX
8
Layer_1
6
CONTINUOUS
62
7
10
3.9202261212073815
20
13.359883435766868
0
VERTEX
8
Layer_1
6
CONTINUOUS
62
7
10
4.1257614636746656
20
11.510155595540528
0
VERTEX
8
Layer_1
6
CONTINUOUS
62
7
10
4.3537051628130143
20
9.6635108683362319
0
VERTEX
8
Layer_1
6
CONTINUOUS
62
7
10
4.4656799324933631
20
8.87279680662839
0
VERTEX
8
Layer_1
6
CONTINUOUS
62
7
10
4.5934448340296044
20
8.0843575151729006
0
VERTEX
8
Layer_1
6
CONTINUOUS
62
7
10
4.8788775863530702
20
6.5124763270958965
0
VERTEX
8
Layer_1
6
CONTINUOUS
62
7
10
4.9278735746002136
20
6.1948576295577409
0
VERTEX
8
Layer_1
6
CONTINUOUS
62
7
10
4.9627836318627807
20
5.8708943103245552
0
VERTEX
8
Layer_1
6
CONTINUOUS
62
7
10
5.0280324238006919
20
5.2199359479124396
0
VERTEX
8
Layer_1
6
CONTINUOUS
62
7
10
5.0772143936592853
20
4.9009419753031818
0
VERTEX
8
Layer_1
6
CONTINUOUS
62
7
10
5.1499969028998063
20
4.5916055221382379
0
VERTEX
8
Layer_1
6
CONTINUOUS
62
7
10
5.2558015691138777
20
4.2959271237024446
0
VERTEX
8
Layer_1
6
CONTINUOUS
62
7
10
5.4040500098931261
20
4.0179073152806382
0
VERTEX
8
Layer_1
6
CONTINUOUS
62
7
10
5.4615991038209017
20
3.9433080801530522
0
VERTEX
8
Layer_1
6
CONTINUOUS
62
7
10
5.5353431157781472
20
3.8866142093956171
0
VERTEX
8
Layer_1
6
CONTINUOUS
62
7
10
5.7619219404805317
20
3.7850668138496735
0
VERTEX
8
Layer_1
6
CONTINUOUS
62
7
10
5.9982833992193303
20
3.7057370318097842
0
VERTEX
8
Layer_1
6
CONTINUOUS
62
7
10
6.2428910918105114
20
3.6477031081537139
0
VERTEX
8
Layer_1
6
CONTINUOUS
62
7
10
6.4942086180700453
20
3.6100432877592286
0
VERTEX
8
Layer_1
6
CONTINUOUS
62
7
10
6.7506995778139007
20
3.5918358155040933
0
VERTEX
8
Layer_1
6
CONTINUOUS
62
7
10
7.0108275708580443
20
3.592158936266074
0
VERTEX
8
Layer_1
6
CONTINUOUS
62
7
10
7.2730561970184464
20
3.6100908949229362
0
VERTEX
8
Layer_1
6
CONTINUOUS
62
7
10
7.5358490561110756
20
3.6447099363524451
0
VERTEX
8
Layer_1
6
CONTINUOUS
62
7
10
7.7976697479519004
20
3.6950943054323666
0
VERTEX
8
Layer_1
6
CONTINUOUS
62
7
10
8.0569818723568893
20
3.7603222470404662
0
VERTEX
8
Layer_1
6
CONTINUOUS
62
7
10
8.5619348181232358
20
3.9316218273522616
0
VERTEX
8
Layer_1
6
CONTINUOUS
62
7
10
9.0384166919378632
20
4.1512346363099555
0
VERTEX
8
Layer_1
6
CONTINUOUS
62
7
10
9.4741362923285237
20
4.411786632935673
0
SEQEND
0
LINE
8
Layer_1
6
CONTINUOUS
62
7
10
4.7955121844078521
20
44.393491929750319
11
9.1557391778083019
21
48.753718922955009
0
LINE
8
Layer_1
6
CONTINUOUS
62
7
10
4.1398507117070533
20
42.323616894737611
11
10.417271951213451
21
48.60103813396217
0
LINE
8
Layer_1
6
CONTINUOUS
62
7
10
3.816044033647406
20
40.58559665435115
11
11.480506958469663
21
48.250059578829301
0
LINE
8
Layer_1
6
CONTINUOUS
62
7
10
3.6110708001765741
20
38.966409858548182
11
12.385908050302639
21
47.741247108280284
0
LINE
8
Layer_1
6
CONTINUOUS
62
7
10
3.4358398108086008
20
37.376965306846728
11
13.190321405550488
21
47.131446901150674
0
LINE
8
Layer_1
6
CONTINUOUS
62
7
10
3.2820876222665079
20
35.808999555970189
11
13.903425082771745
21
46.430337015998568
0
LINE
8
Layer_1
6
CONTINUOUS
62
7
10
3.1780072260544254
20
34.290705597421436
11
14.517914661216404
21
45.630613032074287
0
LINE
8
Layer_1
6
CONTINUOUS
62
7
10
3.1131179807617051
20
32.811602789790278
11
15.024516568963953
21
44.723001377457749
0
LINE
8
Layer_1
6
CONTINUOUS
62
7
10
3.0792628440656884
20
31.363534090754435
11
15.438361327446005
21
43.722632573579872
0
LINE
8
Layer_1
6
CONTINUOUS
62
7
10
3.0703238495360896
20
29.940381533883887
11
15.78434124355066
21
42.654398927327648
0
LINE
8
Layer_1
6
CONTINUOUS
62
7
10
3.0799583538737094
20
28.535802475879724
11
16.082715596027121
21
41.538559717449353
0
LINE
8
Layer_1
6
CONTINUOUS
62
7
10
3.1039913488201503
20
27.145621908483736
11
16.31827593691882
21
40.359906495989129
0
LINE
8
Layer_1
6
CONTINUOUS
62
7
10
3.1370455930881791
20
25.764462590408936
11
16.491417237089205
21
39.118834233810396
0
LINE
8
Layer_1
6
CONTINUOUS
62
7
10
3.1754460350981581
20
24.38864947007584
11
16.608701686885833
21
37.821905121260407
0
LINE
8
Layer_1
6
CONTINUOUS
62
7
10
3.2224106302466833
20
23.021400502880908
11
16.68038273468116
21
36.479372606711166
0
LINE
8
Layer_1
6
CONTINUOUS
62
7
10
3.2818164747271341
20
21.666592785017343
11
16.708648932970796
21
35.093425242658185
0
LINE
8
Layer_1
6
CONTINUOUS
62
7
10
3.353756342902718
20
20.324319090848348
11
16.672493762085526
21
33.643056509433187
0
LINE
8
Layer_1
6
CONTINUOUS
62
7
10
3.4362164467186651
20
18.992565632319241
11
16.574928417865419
21
32.131277602876111
0
LINE
8
Layer_1
6
CONTINUOUS
62
7
10
3.5308548732045533
20
17.672990496459537
11
16.425214170250243
21
30.567349792926308
0
LINE
8
Layer_1
6
CONTINUOUS
62
7
10
3.6358521473148286
20
16.363774208223749
11
16.236857902716736
21
28.964779963059911
0
LINE
8
Layer_1
6
CONTINUOUS
62
7
10
3.7514262187185357
20
15.065134717280918
11
16.02823913819563
21
27.341947636206825
0
LINE
8
Layer_1
6
CONTINUOUS
62
7
10
3.8777282363879957
20
13.777223172603357
11
15.810803367764647
21
25.710298303444254
0
LINE
8
Layer_1
6
CONTINUOUS
62
7
10
4.0132740820300432
20
12.498555455897971
11
15.581047698207566
21
24.066329071556137
0
LINE
8
Layer_1
6
CONTINUOUS
62
7
10
4.1594237519300528
20
11.230491563450071
11
15.329821441219643
21
22.400889252238144
0
LINE
8
Layer_1
6
CONTINUOUS
62
7
10
4.3147309234881401
20
9.9715851726598359
11
15.049732733093519
21
20.70658698178325
0
LINE
8
Layer_1
6
CONTINUOUS
62
7
10
4.4880761583585649
20
8.7307168451811297
11
14.731128701286016
21
18.973769387648701
0
LINE
8
Layer_1
6
CONTINUOUS
62
7
10
4.692470288486807
20
7.5208974129588464
11
14.362069773054477
21
17.190496897092384
0
LINE
8
Layer_1
6
CONTINUOUS
62
7
10
4.9099566360148801
20
6.3241701981358061
11
13.924628255407582
21
15.338841817123779
0
LINE
8
Layer_1
6
CONTINUOUS
62
7
10
5.0516018125635602
20
5.0516018123367799
11
13.39710150234483
21
13.397101501743363
0
LINE
8
Layer_1
6
CONTINUOUS
62
7
10
5.4155970909446074
20
4.0013835283601358
11
12.74247562498952
21
11.328262062076098
0
LINE
8
Layer_1
6
CONTINUOUS
62
7
10
6.4448511768856402
20
3.6164240519136106
11
12.154948846470496
21
9.3265217212421039
0
LINE
8
Layer_1
6
CONTINUOUS
62
7
10
7.9833615636720463
20
3.7407208762895938
11
11.504606136283392
21
7.2619654487428491
0
POLYLINE
8
Layer_1
6
CONTINUOUS
62
7
66
1
10
0
20
0
70
129
40
0
41
0
0
VERTEX
8
Layer_1
6
CONTINUOUS
62
7
10
16.695257116004257
20
36.053425151223905
0
VERTEX
8
Layer_1
6
CONTINUOUS
62
7
10
16.708686734553261
20
35.099567357547912
0
VERTEX
8
Layer_1
6
CONTINUOUS
62
7
10
16.692155731836092
20
34.145577874991794
0
VERTEX
8
Layer_1
6
CONTINUOUS
62
7
10
16.649347822558468
20
33.191805801711268
0
VERTEX
8
Layer_1
6
CONTINUOUS
62
7
10
16.583946721426134
20
32.23860023586208
0
VERTEX
8
Layer_1
6
CONTINUOUS
62
7
10
16.499636143144809
20
31.286310275599931
0
VERTEX
8
Layer_1
6
CONTINUOUS
62
7
10
16.400099802420225
20
30.335285019080573
0
VERTEX
8
Layer_1
6
CONTINUOUS
62
7
10
16.170084692464201
20
28.438425009893109
0
VERTEX
8
Layer_1
6
CONTINUOUS
62
7
10
15.887935062866816
20
26.278010352111036
0
VERTEX
8
Layer_1
6
CONTINUOUS
62
7
10
15.588301694416042
20
24.115912823381898
0
VERTEX
8
Layer_1
6
CONTINUOUS
62
7
10
15.259276033034446
20
21.956816957343598
0
VERTEX
8
Layer_1
6
CONTINUOUS
62
7
10
14.888949524644588
20
19.805407287634043
0
VERTEX
8
Layer_1
6
CONTINUOUS
62
7
10
14.684577029672365
20
18.734048693164393
0
VERTEX
8
Layer_1
6
CONTINUOUS
62
7
10
14.465413615169037
20
17.666368347891144
0
VERTEX
8
Layer_1
6
CONTINUOUS
62
7
10
14.229970711874929
20
16.602951818519031
0
VERTEX
8
Layer_1
6
CONTINUOUS
62
7
10
13.976759750530359
20
15.544384671752795
0
VERTEX
8
Layer_1
6
CONTINUOUS
62
7
10
13.704292161875649
20
14.491252474297173
0
VERTEX
8
Layer_1
6
CONTINUOUS
62
7
10
13.411079376651116
20
13.44414079285691
0
VERTEX
8
Layer_1
6
CONTINUOUS
62
7
10
13.095632825597088
20
12.403635194136736
0
VERTEX
8
Layer_1
6
CONTINUOUS
62
7
10
12.75646393945388
20
11.370321244841392
0
VERTEX
8
Layer_1
6
CONTINUOUS
62
7
10
12.464589087942883
20
10.433491301443604
0
VERTEX
8
Layer_1
6
CONTINUOUS
62
7
10
12.192586627821605
20
9.4614066300545403
0
VERTEX
8
Layer_1
6
CONTINUOUS
62
7
10
11.913603777055227
20
8.4812678970854947
0
VERTEX
8
Layer_1
6
CONTINUOUS
62
7
10
11.763103210794249
20
7.996678465762006
0
VERTEX
8
Layer_1
6
CONTINUOUS
62
7
10
11.600787753608945
20
7.5202757689477551
0
VERTEX
8
Layer_1
6
CONTINUOUS
62
7
10
11.423300807744958
20
7.055459889944153
0
VERTEX
8
Layer_1
6
CONTINUOUS
62
7
10
11.227285775447942
20
6.6056309120526127
0
VERTEX
8
Layer_1
6
CONTINUOUS
62
7
10
11.009386058963544
20
6.1741889185745435
0
VERTEX
8
Layer_1
6
CONTINUOUS
62
7
10
10.766245060537413
20
5.7645339928113577
0
VERTEX
8
Layer_1
6
CONTINUOUS
62
7
10
10.494506182415197
20
5.3800662180644654
0
VERTEX
8
Layer_1
6
CONTINUOUS
62
7
10
10.190812826842544
20
5.0241856776352805
0
VERTEX
8
Layer_1
6
CONTINUOUS
62
7
10
9.8518083960651026
20
4.7002924548252132
0
VERTEX
8
Layer_1
6
CONTINUOUS
62
7
10
9.4741362923285237
20
4.411786632935673
0
VERTEX
8
Layer_1
6
CONTINUOUS
62
7
10
9.0384166919378632
20
4.1512346363099555
0
VERTEX
8
Layer_1
6
CONTINUOUS
62
7
10
8.5619348181232358
20
3.9316218273522616
0
VERTEX
8
Layer_1
6
CONTINUOUS
62
7
10
8.0569818723568893
20
3.7603222470404662
0
VERTEX
8
Layer_1
6
CONTINUOUS
62
7
10
7.7976697479519004
20
3.6950943054323666
0
VERTEX
8
Layer_1
6
CONTINUOUS
62
7
10
7.5358490561110756
20
3.6447099363524451
0
VERTEX
8
Layer_1
6
CONTINUOUS
62
7
10
7.2730561970184464
20
3.6100908949229362
0
VERTEX
8
Layer_1
6
CONTINUOUS
62
7
10
7.0108275708580443
20
3.592158936266074
0
VERTEX
8
Layer_1
6
CONTINUOUS
62
7
10
6.7506995778139007
20
3.5918358155040933
0
VERTEX
8
Layer_1
6
CONTINUOUS
62
7
10
6.4942086180700453
20
3.6100432877592286
0
VERTEX
8
Layer_1
6
CONTINUOUS
62
7
10
6.2428910918105114
20
3.6477031081537139
0
VERTEX
8
Layer_1
6
CONTINUOUS
62
7
10
5.9982833992193303
20
3.7057370318097842
0
VERTEX
8
Layer_1
6
CONTINUOUS
62
7
10
5.7619219404805317
20
3.7850668138496735
0
VERTEX
8
Layer_1
6
CONTINUOUS
62
7
10
5.5353431157781472
20
3.8866142093956171
0
VERTEX
8
Layer_1
6
CONTINUOUS
62
7
10
5.4615991038209017
20
3.9433080801530522
0
VERTEX
8
Layer_1
6
CONTINUOUS
62
7
10
5.4040500098931261
20
4.0179073152806382
0
VERTEX
8
Layer_1
6
CONTINUOUS
62
7
10
5.2558015691138777
20
4.2959271237024446
0
VERTEX
8
Layer_1
6
CONTINUOUS
62
7
10
5.1499969028998063
20
4.5916055221382379
0
VERTEX
8
Layer_1
6
CONTINUOUS
62
7
10
5.0772143936592853
20
4.9009419753031818
0
VERTEX
8
Layer_1
6
CONTINUOUS
62
7
10
5.0280324238006919
20
5.2199359479124396
0
VERTEX
8
Layer_1
6
CONTINUOUS
62
7
10
4.9627836318627807
20
5.8708943103245552
0
VERTEX
8
Layer_1
6
CONTINUOUS
62
7
10
4.9278735746002136
20
6.1948576295577409
0
VERTEX
8
Layer_1
6
CONTINUOUS
62
7
10
4.8788775863530702
20
6.5124763270958965
0
VERTEX
8
Layer_1
6
CONTINUOUS
62
7
10
4.5934448340296044
20
8.0843575151729006
0
VERTEX
8
Layer_1
6
CONTINUOUS
62
7
10
4.4656799324933631
20
8.87279680662839
0
VERTEX
8
Layer_1
6
CONTINUOUS
62
7
10
4.3537051628130143
20
9.6635108683362319
0
VERTEX
8
Layer_1
6
CONTINUOUS
62
7
10
4.1257614636746656
20
11.510155595540528
0
VERTEX
8
Layer_1
6
CONTINUOUS
62
7
10
3.9202261212073815
20
13.359883435766868
0
VERTEX
8
Layer_1
6
CONTINUOUS
62
7
10
3.7373576649353026
20
15.21227717442159
0
VERTEX
8
Layer_1
6
CONTINUOUS
62
7
10
3.5774146243825697
20
17.066919596911028
0
VERTEX
8
Layer_1
6
CONTINUOUS
62
7
10
3.4406555290733234
20
18.923393488641523
0
VERTEX
8
Layer_1
6
CONTINUOUS
62
7
10
3.3273389085317042
20
20.781281635019411
0
VERTEX
8
Layer_1
6
CONTINUOUS
62
7
10
3.2377232922818528
20
22.640166821451036
0
VERTEX
8
Layer_1
6
CONTINUOUS
62
7
10
3.1720672098479099
20
24.499631833342733
0
VERTEX
8
Layer_1
6
CONTINUOUS
62
7
10
3.0924334664890507
20
27.719718385462414
0
VERTEX
8
Layer_1
6
CONTINUOUS
62
7
10
3.07235143394389
20
29.331350581725943
0
VERTEX
8
Layer_1
6
CONTINUOUS
62
7
10
3.0742714194568137
20
30.942740572958382
0
VERTEX
8
Layer_1
6
CONTINUOUS
62
7
10
3.1048275170042503
20
32.552912245284574
0
VERTEX
8
Layer_1
6
CONTINUOUS
62
7
10
3.1706538205626282
20
34.16088948482934
0
VERTEX
8
Layer_1
6
CONTINUOUS
62
7
10
3.2783844241083764
20
35.765696177717544
0
VERTEX
8
Layer_1
6
CONTINUOUS
62
7
10
3.4346534216179236
20
37.366356210074002
0
VERTEX
8
Layer_1
6
CONTINUOUS
62
7
10
3.6381960616137969
20
39.20789817418715
0
VERTEX
8
Layer_1
6
CONTINUOUS
62
7
10
3.7521077708978297
20
40.131095469785876
0
VERTEX
8
Layer_1
6
CONTINUOUS
62
7
10
3.8886399855783971
20
41.049781372764322
0
VERTEX
8
Layer_1
6
CONTINUOUS
62
7
10
4.0586878900598524
20
41.959359181886214
0
VERTEX
8
Layer_1
6
CONTINUOUS
62
7
10
4.2731466687465467
20
42.855232195915264
0
VERTEX
8
Layer_1
6
CONTINUOUS
62
7
10
4.4004348810432203
20
43.29659293563364
0
VERTEX
8
Layer_1
6
CONTINUOUS
62
7
10
4.5429115060428362
20
43.732803713615198
0
VERTEX
8
Layer_1
6
CONTINUOUS
62
7
10
4.7019384417959378
20
44.163289942205409
0
VERTEX
8
Layer_1
6
CONTINUOUS
62
7
10
4.8788775863530702
20
44.587477033749735
0
VERTEX
8
Layer_1
6
CONTINUOUS
62
7
10
5.0411462907798779
20
44.928951367353847
0
VERTEX
8
Layer_1
6
CONTINUOUS
62
7
10
5.221006592531408
20
45.262312410461114
0
VERTEX
8
Layer_1
6
CONTINUOUS
62
7
10
5.4169602061790627
20
45.58738063587321
0
VERTEX
8
Layer_1
6
CONTINUOUS
62
7
10
5.6275088462942442
20
45.903976516391815
0
VERTEX
8
Layer_1
6
CONTINUOUS
62
7
10
6.0863980642127906
20
46.511033133955294
0
VERTEX
8
Layer_1
6
CONTINUOUS
62
7
10
6.585687962858259
20
47.082046045564994
0
VERTEX
8
Layer_1
6
CONTINUOUS
62
7
10
7.0231669617219303
20
47.550255562358146
0
VERTEX
8
Layer_1
6
CONTINUOUS
62
7
10
7.2504954678652362
20
47.780763220506202
0
VERTEX
8
Layer_1
6
CONTINUOUS
62
7
10
7.486285194664088
20
48.000880572069363
0
VERTEX
8
Layer_1
6
CONTINUOUS
62
7
10
7.73258755425441
20
48.204613437233242
0
VERTEX
8
Layer_1
6
CONTINUOUS
62
7
10
7.9914539587721247
20
48.385967636183437
0
VERTEX
8
Layer_1
6
CONTINUOUS
62
7
10
8.2649358203531591
20
48.538948989105535
0
VERTEX
8
Layer_1
6
CONTINUOUS
62
7
10
8.555084551133433
20
48.657563316185133
0
VERTEX
8
Layer_1
6
CONTINUOUS
62
7
10
8.7446305775356947
20
48.708717805810906
0
VERTEX
8
Layer_1
6
CONTINUOUS
62
7
10
8.93869251089804
20
48.739777414070133
0
VERTEX
8
Layer_1
6
CONTINUOUS
62
7
10
9.1360686309440311
20
48.753481797413819
0
VERTEX
8
Layer_1
6
CONTINUOUS
62
7
10
9.3355572173972412
20
48.752570612292999
0
VERTEX
8
Layer_1
6
CONTINUOUS
62
7
10
9.7360649084195803
20
48.717860162461932
0
VERTEX
8
Layer_1
6
CONTINUOUS
62
7
10
10.130601821753601
20
48.657563316185133
0
VERTEX
8
Layer_1
6
CONTINUOUS
62
7
10
10.609276002511884
20
48.555042934649379
0
VERTEX
8
Layer_1
6
CONTINUOUS
62
7
10
11.07914223859725
20
48.410966324350788
0
VERTEX
8
Layer_1
6
CONTINUOUS
62
7
10
11.534264136858337
20
48.226071827613112
0
VERTEX
8
Layer_1
6
CONTINUOUS
62
7
10
11.968705304143782
20
48.001097786760113
0
VERTEX
8
Layer_1
6
CONTINUOUS
62
7
10
12.30657508393239
20
47.79397540453536
0
VERTEX
8
Layer_1
6
CONTINUOUS
62
7
10
12.635335060208675
20
47.569602449362876
0
VERTEX
8
Layer_1
6
CONTINUOUS
62
7
10
12.953474378793464
20
47.328680803495779
0
VERTEX
8
Layer_1
6
CONTINUOUS
62
7
10
13.25948218550759
20
47.071912349187173
0
VERTEX
8
Layer_1
6
CONTINUOUS
62
7
10
13.551847626171881
20
46.799998968690176
0
VERTEX
8
Layer_1
6
CONTINUOUS
62
7
10
13.829059846607162
20
46.513642544257884
0
VERTEX
8
Layer_1
6
CONTINUOUS
62
7
10
14.089607992634264
20
46.213544958143416
0
VERTEX
8
Layer_1
6
CONTINUOUS
62
7
10
14.331981210074019
20
45.900408092599889
0
VERTEX
8
Layer_1
6
CONTINUOUS
62
7
10
14.610420148984296
20
45.485772136226281
0
VERTEX
8
Layer_1
6
CONTINUOUS
62
7
10
14.859023071829302
20
45.05203748883693
0
VERTEX
8
Layer_1
6
CONTINUOUS
62
7
10
15.081065232344134
20
44.602340651050568
0
VERTEX
8
Layer_1
6
CONTINUOUS
62
7
10
15.279821884263892
20
44.139818123485959
0
VERTEX
8
Layer_1
6
CONTINUOUS
62
7
10
15.458568281323679
20
43.66760640676182
0
VERTEX
8
Layer_1
6
CONTINUOUS
62
7
10
15.62057967725859
20
43.188842001496866
0
VERTEX
8
Layer_1
6
CONTINUOUS
62
7
10
15.907498480694187
20
42.224201127819526
0
VERTEX
8
Layer_1
6
CONTINUOUS
62
7
10
16.098713638653077
20
41.470609926914427
0
VERTEX
8
Layer_1
6
CONTINUOUS
62
7
10
16.256641724133658
20
40.708858283551457
0
VERTEX
8
Layer_1
6
CONTINUOUS
62
7
10
16.384676940725782
20
39.940489876649643
0
VERTEX
8
Layer_1
6
CONTINUOUS
62
7
10
16.486213492019296
20
39.16704838512802
0
VERTEX
8
Layer_1
6
CONTINUOUS
62
7
10
16.564645581604051
20
38.390077487905607
0
VERTEX
8
Layer_1
6
CONTINUOUS
62
7
10
16.623367413069893
20
37.611120863901427
0
VERTEX
8
Layer_1
6
CONTINUOUS
62
7
10
16.695257116004257
20
36.053425151223905
0
SEQEND
0
ENDSEC
0
EOF
