  0
SECTION
  2
HEADER
  9
$ANGBASE
  50
0.0
  9
$ANGDIR
  70
  1
  9
$MEASUREMENT
  70
0
  0
ENDSEC
  0
SECTION
  2
TABLES
  0
TABLE
  2
LTYPE
  70
4
  0
LTYPE
  5
40F
  2
CONTINUOUS
  70
0
  3
Solid line
  72
65
  73
0
  40
0.0
  0
LTYPE
  5
410
  2
DASHDOT
 70
0
  3
Dash Dot ____ _ ____ _
 72
65
 73
4
 40
2.0
 49
1.25
 49
-0.25
 49
0.25
 49
-0.25
  0
LTYPE
  5
411
  2
DASHED
 70
0
  3
Dashed __ __ __ __ __
 72
65
 73
2
 40
0.75
 49
0.5
 49
-0.25
  0
LTYPE
  5
43B
  2
DOTTED
 70
0
  3
Dotted .  .  .  .
 72
65
 73
2
 40
0.2
 49
0.0
 49
-0.2
  0
ENDTAB
  0
TABLE
  2
STYLE
  70
4
  0
STYLE
  2
KICAD
  70
0
  40
0
  41
1
  42
1
  50
0
  71
0
  3
isocp.shx
  0
STYLE
  2
KICADB
  70
0
  40
0
  41
1
  42
1
  50
0
  71
0
  3
isocp.shx
  0
STYLE
  2
KICADI
  70
0
  40
0
  41
1
  42
1
  50
15
  71
0
  3
isocp.shx
  0
STYLE
  2
KICADBI
  70
0
  40
0
  41
1
  42
1
  50
15
  71
0
  3
isocp.shx
  0
ENDTAB
  0
TABLE
  2
LAYER
  70
30
  0
LAYER
  2
BLACK
  70
0
  62
7
  6
CONTINUOUS
  0
LAYER
  2
GRAY1
  70
0
  62
251
  6
CONTINUOUS
  0
LAYER
  2
GRAY2
  70
0
  62
8
  6
CONTINUOUS
  0
LAYER
  2
GRAY3
  70
0
  62
9
  6
CONTINUOUS
  0
LAYER
  2
WHITE
  70
0
  62
7
  6
CONTINUOUS
  0
LAYER
  2
LYELLOW
  70
0
  62
51
  6
CONTINUOUS
  0
LAYER
  2
BLUE1
  70
0
  62
178
  6
CONTINUOUS
  0
LAYER
  2
GREEN1
  70
0
  62
98
  6
CONTINUOUS
  0
LAYER
  2
CYAN1
  70
0
  62
138
  6
CONTINUOUS
  0
LAYER
  2
RED1
  70
0
  62
18
  6
CONTINUOUS
  0
LAYER
  2
MAGENTA1
  70
0
  62
228
  6
CONTINUOUS
  0
LAYER
  2
BROWN1
  70
0
  62
58
  6
CONTINUOUS
  0
LAYER
  2
BLUE2
  70
0
  62
5
  6
CONTINUOUS
  0
LAYER
  2
GREEN2
  70
0
  62
3
  6
CONTINUOUS
  0
LAYER
  2
CYAN2
  70
0
  62
4
  6
CONTINUOUS
  0
LAYER
  2
RED2
  70
0
  62
1
  6
CONTINUOUS
  0
LAYER
  2
MAGENTA2
  70
0
  62
6
  6
CONTINUOUS
  0
LAYER
  2
BROWN2
  70
0
  62
54
  6
CONTINUOUS
  0
LAYER
  2
BLUE3
  70
0
  62
171
  6
CONTINUOUS
  0
LAYER
  2
GREEN3
  70
0
  62
91
  6
CONTINUOUS
  0
LAYER
  2
CYAN3
  70
0
  62
131
  6
CONTINUOUS
  0
LAYER
  2
RED3
  70
0
  62
11
  6
CONTINUOUS
  0
LAYER
  2
MAGENTA3
  70
0
  62
221
  6
CONTINUOUS
  0
LAYER
  2
YELLOW3
  70
0
  62
2
  6
CONTINUOUS
  0
LAYER
  2
BLUE4
  70
0
  62
5
  6
CONTINUOUS
  0
LAYER
  2
GREEN4
  70
0
  62
3
  6
CONTINUOUS
  0
LAYER
  2
CYAN4
  70
0
  62
4
  6
CONTINUOUS
  0
LAYER
  2
RED4
  70
0
  62
1
  6
CONTINUOUS
  0
LAYER
  2
MAGENTA4
  70
0
  62
6
  6
CONTINUOUS
  0
LAYER
  2
YELLOW4
  70
0
  62
2
  6
CONTINUOUS
  0
ENDTAB
  0
ENDSEC
  0
SECTION
  2
ENTITIES
0
LINE
8
BLACK
6
CONTINUOUS
10
-1.26192
20
81.3539
11
-1.25698
21
81.3539
0
LINE
8
BLACK
6
CONTINUOUS
10
-1.25698
20
81.3539
11
0.480486
21
81.0475
0
LINE
8
BLACK
6
CONTINUOUS
10
0.480486
20
81.0475
11
0.504962
21
81.0386
0
LINE
8
BLACK
6
CONTINUOUS
10
0.504962
20
81.0386
11
2.03286
21
80.1565
0
LINE
8
BLACK
6
CONTINUOUS
10
2.03286
20
80.1565
11
2.05281
21
80.1397
0
LINE
8
BLACK
6
CONTINUOUS
10
2.05281
20
80.1397
11
2.05282
21
80.1397
0
LINE
8
BLACK
6
CONTINUOUS
10
2.05282
20
80.1397
11
3.18686
21
78.7882
0
LINE
8
BLACK
6
CONTINUOUS
10
3.18686
20
78.7882
11
3.19989
21
78.7657
0
LINE
8
BLACK
6
CONTINUOUS
10
3.19989
20
78.7657
11
3.19989
21
78.7656
0
LINE
8
BLACK
6
CONTINUOUS
10
3.19989
20
78.7656
11
3.8033
21
77.1078
0
LINE
8
BLACK
6
CONTINUOUS
10
3.8033
20
77.1078
11
3.805
21
77.0981
0
LINE
8
BLACK
6
CONTINUOUS
10
3.805
20
77.0981
11
3.80754
21
77.0887
0
LINE
8
BLACK
6
CONTINUOUS
10
3.80754
20
77.0887
11
3.88471
21
76.2065
0
LINE
8
BLACK
6
CONTINUOUS
10
3.88471
20
76.2065
11
3.92244
21
75.7753
0
LINE
8
BLACK
6
CONTINUOUS
10
3.92244
20
75.7753
11
4.21625
21
74.9681
0
LINE
8
BLACK
6
CONTINUOUS
10
4.21625
20
74.9681
11
4.76627
21
74.3126
0
LINE
8
BLACK
6
CONTINUOUS
10
4.76627
20
74.3126
11
5.50732
21
73.8847
0
LINE
8
BLACK
6
CONTINUOUS
10
5.50732
20
73.8847
11
6.35656
21
73.735
0
LINE
8
BLACK
6
CONTINUOUS
10
6.35656
20
73.735
11
39.3667
21
73.735
0
LINE
8
BLACK
6
CONTINUOUS
10
39.3667
20
73.735
11
39.5742
21
73.7531
0
LINE
8
BLACK
6
CONTINUOUS
10
39.5742
20
73.7531
11
39.9669
21
73.8961
0
LINE
8
BLACK
6
CONTINUOUS
10
39.9669
20
73.8961
11
40.2845
21
74.1626
0
LINE
8
BLACK
6
CONTINUOUS
10
40.2845
20
74.1626
11
40.4918
21
74.5217
0
LINE
8
BLACK
6
CONTINUOUS
10
40.4918
20
74.5217
11
40.5661
21
74.943
0
LINE
8
BLACK
6
CONTINUOUS
10
40.5661
20
74.943
11
40.9491
21
77.1149
0
LINE
8
BLACK
6
CONTINUOUS
10
40.9491
20
77.1149
11
40.958
21
77.1393
0
LINE
8
BLACK
6
CONTINUOUS
10
40.958
20
77.1393
11
40.958
21
77.1393
0
LINE
8
BLACK
6
CONTINUOUS
10
40.958
20
77.1393
11
42.0607
21
79.0492
0
LINE
8
BLACK
6
CONTINUOUS
10
42.0607
20
79.0492
11
42.0774
21
79.0692
0
LINE
8
BLACK
6
CONTINUOUS
10
42.0774
20
79.0692
11
42.0774
21
79.0692
0
LINE
8
BLACK
6
CONTINUOUS
10
42.0774
20
79.0692
11
43.7668
21
80.4867
0
LINE
8
BLACK
6
CONTINUOUS
10
43.7668
20
80.4867
11
43.7763
21
80.4922
0
LINE
8
BLACK
6
CONTINUOUS
10
43.7763
20
80.4922
11
43.7893
21
80.4997
0
LINE
8
BLACK
6
CONTINUOUS
10
43.7893
20
80.4997
11
45.8617
21
81.254
0
LINE
8
BLACK
6
CONTINUOUS
10
45.8617
20
81.254
11
45.8713
21
81.2557
0
LINE
8
BLACK
6
CONTINUOUS
10
45.8713
20
81.2557
11
45.8808
21
81.2582
0
LINE
8
BLACK
6
CONTINUOUS
10
45.8808
20
81.2582
11
46.9835
21
81.3547
0
LINE
8
BLACK
6
CONTINUOUS
10
46.9835
20
81.3547
11
46.9857
21
81.3545
0
LINE
8
BLACK
6
CONTINUOUS
10
46.9857
20
81.3545
11
46.9884
21
81.355
0
LINE
8
BLACK
6
CONTINUOUS
10
46.9884
20
81.355
11
117.477
21
81.355
0
LINE
8
BLACK
6
CONTINUOUS
10
117.477
20
81.355
11
117.481
21
81.3541
0
LINE
8
BLACK
6
CONTINUOUS
10
117.481
20
81.3541
11
117.488
21
81.3541
0
LINE
8
BLACK
6
CONTINUOUS
10
117.488
20
81.3541
11
117.494
21
81.3519
0
LINE
8
BLACK
6
CONTINUOUS
10
117.494
20
81.3519
11
117.501
21
81.3507
0
LINE
8
BLACK
6
CONTINUOUS
10
117.501
20
81.3507
11
117.506
21
81.3475
0
LINE
8
BLACK
6
CONTINUOUS
10
117.506
20
81.3475
11
117.513
21
81.3452
0
LINE
8
BLACK
6
CONTINUOUS
10
117.513
20
81.3452
11
117.518
21
81.341
0
LINE
8
BLACK
6
CONTINUOUS
10
117.518
20
81.341
11
117.523
21
81.3377
0
LINE
8
BLACK
6
CONTINUOUS
10
117.523
20
81.3377
11
117.528
21
81.3326
0
LINE
8
BLACK
6
CONTINUOUS
10
117.528
20
81.3326
11
117.533
21
81.3284
0
LINE
8
BLACK
6
CONTINUOUS
10
117.533
20
81.3284
11
117.536
21
81.3227
0
LINE
8
BLACK
6
CONTINUOUS
10
117.536
20
81.3227
11
117.54
21
81.3176
0
LINE
8
BLACK
6
CONTINUOUS
10
117.54
20
81.3176
11
117.542
21
81.3115
0
LINE
8
BLACK
6
CONTINUOUS
10
117.542
20
81.3115
11
117.546
21
81.3057
0
LINE
8
BLACK
6
CONTINUOUS
10
117.546
20
81.3057
11
117.547
21
81.2993
0
LINE
8
BLACK
6
CONTINUOUS
10
117.547
20
81.2993
11
117.549
21
81.2931
0
LINE
8
BLACK
6
CONTINUOUS
10
117.549
20
81.2931
11
117.549
21
81.2865
0
LINE
8
BLACK
6
CONTINUOUS
10
117.549
20
81.2865
11
117.55
21
81.2816
0
LINE
8
BLACK
6
CONTINUOUS
10
117.55
20
81.2816
11
117.55
21
-30.4816
0
LINE
8
BLACK
6
CONTINUOUS
10
117.55
20
-30.4816
11
117.549
21
-30.4865
0
LINE
8
BLACK
6
CONTINUOUS
10
117.549
20
-30.4865
11
117.549
21
-30.4931
0
LINE
8
BLACK
6
CONTINUOUS
10
117.549
20
-30.4931
11
117.547
21
-30.4993
0
LINE
8
BLACK
6
CONTINUOUS
10
117.547
20
-30.4993
11
117.546
21
-30.5057
0
LINE
8
BLACK
6
CONTINUOUS
10
117.546
20
-30.5057
11
117.542
21
-30.5115
0
LINE
8
BLACK
6
CONTINUOUS
10
117.542
20
-30.5115
11
117.54
21
-30.5176
0
LINE
8
BLACK
6
CONTINUOUS
10
117.54
20
-30.5176
11
117.536
21
-30.5227
0
LINE
8
BLACK
6
CONTINUOUS
10
117.536
20
-30.5227
11
117.533
21
-30.5284
0
LINE
8
BLACK
6
CONTINUOUS
10
117.533
20
-30.5284
11
117.528
21
-30.5326
0
LINE
8
BLACK
6
CONTINUOUS
10
117.528
20
-30.5326
11
117.523
21
-30.5377
0
LINE
8
BLACK
6
CONTINUOUS
10
117.523
20
-30.5377
11
117.518
21
-30.541
0
LINE
8
BLACK
6
CONTINUOUS
10
117.518
20
-30.541
11
117.513
21
-30.5452
0
LINE
8
BLACK
6
CONTINUOUS
10
117.513
20
-30.5452
11
117.506
21
-30.5475
0
LINE
8
BLACK
6
CONTINUOUS
10
117.506
20
-30.5475
11
117.501
21
-30.5507
0
LINE
8
BLACK
6
CONTINUOUS
10
117.501
20
-30.5507
11
117.494
21
-30.5519
0
LINE
8
BLACK
6
CONTINUOUS
10
117.494
20
-30.5519
11
117.488
21
-30.5541
0
LINE
8
BLACK
6
CONTINUOUS
10
117.488
20
-30.5541
11
117.481
21
-30.5541
0
LINE
8
BLACK
6
CONTINUOUS
10
117.481
20
-30.5541
11
117.477
21
-30.555
0
LINE
8
BLACK
6
CONTINUOUS
10
117.477
20
-30.555
11
-45.0866
21
-30.555
0
LINE
8
BLACK
6
CONTINUOUS
10
-45.0866
20
-30.555
11
-45.0931
21
-30.5539
0
LINE
8
BLACK
6
CONTINUOUS
10
-45.0931
20
-30.5539
11
-45.098
21
-30.5539
0
LINE
8
BLACK
6
CONTINUOUS
10
-45.098
20
-30.5539
11
-46.8355
21
-30.2475
0
LINE
8
BLACK
6
CONTINUOUS
10
-46.8355
20
-30.2475
11
-46.86
21
-30.2386
0
LINE
8
BLACK
6
CONTINUOUS
10
-46.86
20
-30.2386
11
-48.3879
21
-29.3565
0
LINE
8
BLACK
6
CONTINUOUS
10
-48.3879
20
-29.3565
11
-48.3879
21
-29.3565
0
LINE
8
BLACK
6
CONTINUOUS
10
-48.3879
20
-29.3565
11
-48.3987
21
-29.3474
0
LINE
8
BLACK
6
CONTINUOUS
10
-48.3987
20
-29.3474
11
-48.4078
21
-29.3397
0
LINE
8
BLACK
6
CONTINUOUS
10
-48.4078
20
-29.3397
11
-48.4078
21
-29.3397
0
LINE
8
BLACK
6
CONTINUOUS
10
-48.4078
20
-29.3397
11
-49.5419
21
-27.9882
0
LINE
8
BLACK
6
CONTINUOUS
10
-49.5419
20
-27.9882
11
-49.5549
21
-27.9657
0
LINE
8
BLACK
6
CONTINUOUS
10
-49.5549
20
-27.9657
11
-50.1583
21
-26.3078
0
LINE
8
BLACK
6
CONTINUOUS
10
-50.1583
20
-26.3078
11
-50.16
21
-26.2981
0
LINE
8
BLACK
6
CONTINUOUS
10
-50.16
20
-26.2981
11
-50.1625
21
-26.2887
0
LINE
8
BLACK
6
CONTINUOUS
10
-50.1625
20
-26.2887
11
-50.2397
21
-25.4065
0
LINE
8
BLACK
6
CONTINUOUS
10
-50.2397
20
-25.4065
11
-50.2395
21
-25.4043
0
LINE
8
BLACK
6
CONTINUOUS
10
-50.2395
20
-25.4043
11
-50.24
21
-25.4016
0
LINE
8
BLACK
6
CONTINUOUS
10
-50.24
20
-25.4016
11
-50.24
21
76.2016
0
LINE
8
BLACK
6
CONTINUOUS
10
-50.24
20
76.2016
11
-50.2389
21
76.2081
0
LINE
8
BLACK
6
CONTINUOUS
10
-50.2389
20
76.2081
11
-50.2389
21
76.213
0
LINE
8
BLACK
6
CONTINUOUS
10
-50.2389
20
76.213
11
-49.9325
21
77.9505
0
LINE
8
BLACK
6
CONTINUOUS
10
-49.9325
20
77.9505
11
-49.9236
21
77.975
0
LINE
8
BLACK
6
CONTINUOUS
10
-49.9236
20
77.975
11
-49.0415
21
79.5029
0
LINE
8
BLACK
6
CONTINUOUS
10
-49.0415
20
79.5029
11
-49.0247
21
79.5228
0
LINE
8
BLACK
6
CONTINUOUS
10
-49.0247
20
79.5228
11
-49.0247
21
79.5228
0
LINE
8
BLACK
6
CONTINUOUS
10
-49.0247
20
79.5228
11
-47.6732
21
80.6569
0
LINE
8
BLACK
6
CONTINUOUS
10
-47.6732
20
80.6569
11
-47.6507
21
80.6699
0
LINE
8
BLACK
6
CONTINUOUS
10
-47.6507
20
80.6699
11
-47.6506
21
80.6699
0
LINE
8
BLACK
6
CONTINUOUS
10
-47.6506
20
80.6699
11
-45.9928
21
81.2733
0
LINE
8
BLACK
6
CONTINUOUS
10
-45.9928
20
81.2733
11
-45.9831
21
81.275
0
LINE
8
BLACK
6
CONTINUOUS
10
-45.9831
20
81.275
11
-45.9737
21
81.2775
0
LINE
8
BLACK
6
CONTINUOUS
10
-45.9737
20
81.2775
11
-45.0915
21
81.3547
0
LINE
8
BLACK
6
CONTINUOUS
10
-45.0915
20
81.3547
11
-45.0893
21
81.3545
0
LINE
8
BLACK
6
CONTINUOUS
10
-45.0893
20
81.3545
11
-45.0866
21
81.355
0
LINE
8
BLACK
6
CONTINUOUS
10
-45.0866
20
81.355
11
-1.26838
21
81.355
0
LINE
8
BLACK
6
CONTINUOUS
10
-1.26838
20
81.355
11
-1.26192
21
81.3539
0
LINE
8
BLACK
6
CONTINUOUS
10
46.9933
20
81.205
11
45.9037
21
81.1097
0
LINE
8
BLACK
6
CONTINUOUS
10
45.9037
20
81.1097
11
43.8531
21
80.3633
0
LINE
8
BLACK
6
CONTINUOUS
10
43.8531
20
80.3633
11
42.184
21
78.9627
0
LINE
8
BLACK
6
CONTINUOUS
10
42.184
20
78.9627
11
41.0945
21
77.0758
0
LINE
8
BLACK
6
CONTINUOUS
10
41.0945
20
77.0758
11
40.7139
21
74.917
0
LINE
8
BLACK
6
CONTINUOUS
10
40.7139
20
74.917
11
40.6373
21
74.4826
0
LINE
8
BLACK
6
CONTINUOUS
10
40.6373
20
74.4826
11
40.6284
21
74.4581
0
LINE
8
BLACK
6
CONTINUOUS
10
40.6284
20
74.4581
11
40.4078
21
74.0762
0
LINE
8
BLACK
6
CONTINUOUS
10
40.4078
20
74.0762
11
40.3911
21
74.0562
0
LINE
8
BLACK
6
CONTINUOUS
10
40.3911
20
74.0562
11
40.3911
21
74.0562
0
LINE
8
BLACK
6
CONTINUOUS
10
40.3911
20
74.0562
11
40.0532
21
73.7727
0
LINE
8
BLACK
6
CONTINUOUS
10
40.0532
20
73.7727
11
40.0532
21
73.7727
0
LINE
8
BLACK
6
CONTINUOUS
10
40.0532
20
73.7727
11
40.0307
21
73.7597
0
LINE
8
BLACK
6
CONTINUOUS
10
40.0307
20
73.7597
11
39.6162
21
73.6088
0
LINE
8
BLACK
6
CONTINUOUS
10
39.6162
20
73.6088
11
39.6065
21
73.6071
0
LINE
8
BLACK
6
CONTINUOUS
10
39.6065
20
73.6071
11
39.5971
21
73.6046
0
LINE
8
BLACK
6
CONTINUOUS
10
39.5971
20
73.6046
11
39.3765
21
73.5853
0
LINE
8
BLACK
6
CONTINUOUS
10
39.3765
20
73.5853
11
39.3743
21
73.5855
0
LINE
8
BLACK
6
CONTINUOUS
10
39.3743
20
73.5855
11
39.3716
21
73.585
0
LINE
8
BLACK
6
CONTINUOUS
10
39.3716
20
73.585
11
6.34838
21
73.585
0
LINE
8
BLACK
6
CONTINUOUS
10
6.34838
20
73.585
11
6.34192
21
73.5861
0
LINE
8
BLACK
6
CONTINUOUS
10
6.34192
20
73.5861
11
6.33698
21
73.5861
0
LINE
8
BLACK
6
CONTINUOUS
10
6.33698
20
73.5861
11
5.46824
21
73.7393
0
LINE
8
BLACK
6
CONTINUOUS
10
5.46824
20
73.7393
11
5.44377
21
73.7482
0
LINE
8
BLACK
6
CONTINUOUS
10
5.44377
20
73.7482
11
5.44377
21
73.7482
0
LINE
8
BLACK
6
CONTINUOUS
10
5.44377
20
73.7482
11
4.67982
21
74.1893
0
LINE
8
BLACK
6
CONTINUOUS
10
4.67982
20
74.1893
11
4.65986
21
74.206
0
LINE
8
BLACK
6
CONTINUOUS
10
4.65986
20
74.206
11
4.65986
21
74.206
0
LINE
8
BLACK
6
CONTINUOUS
10
4.65986
20
74.206
11
4.09284
21
74.8818
0
LINE
8
BLACK
6
CONTINUOUS
10
4.09284
20
74.8818
11
4.07982
21
74.9043
0
LINE
8
BLACK
6
CONTINUOUS
10
4.07982
20
74.9043
11
3.77811
21
75.7333
0
LINE
8
BLACK
6
CONTINUOUS
10
3.77811
20
75.7333
11
3.77641
21
75.7429
0
LINE
8
BLACK
6
CONTINUOUS
10
3.77641
20
75.7429
11
3.77387
21
75.7524
0
LINE
8
BLACK
6
CONTINUOUS
10
3.77387
20
75.7524
11
3.73528
21
76.1935
0
LINE
8
BLACK
6
CONTINUOUS
10
3.73528
20
76.1935
11
3.65897
21
77.0658
0
LINE
8
BLACK
6
CONTINUOUS
10
3.65897
20
77.0658
11
3.06345
21
78.7019
0
LINE
8
BLACK
6
CONTINUOUS
10
3.06345
20
78.7019
11
1.94641
21
80.0332
0
LINE
8
BLACK
6
CONTINUOUS
10
1.94641
20
80.0332
11
0.441416
21
80.9021
0
LINE
8
BLACK
6
CONTINUOUS
10
0.441416
20
80.9021
11
-1.27656
21
81.205
0
LINE
8
BLACK
6
CONTINUOUS
10
-1.27656
20
81.205
11
-45.0817
21
81.205
0
LINE
8
BLACK
6
CONTINUOUS
10
-45.0817
20
81.205
11
-45.9508
21
81.129
0
LINE
8
BLACK
6
CONTINUOUS
10
-45.9508
20
81.129
11
-47.5869
21
80.5335
0
LINE
8
BLACK
6
CONTINUOUS
10
-47.5869
20
80.5335
11
-48.9182
21
79.4164
0
LINE
8
BLACK
6
CONTINUOUS
10
-48.9182
20
79.4164
11
-49.7871
21
77.9114
0
LINE
8
BLACK
6
CONTINUOUS
10
-49.7871
20
77.9114
11
-50.09
21
76.1934
0
LINE
8
BLACK
6
CONTINUOUS
10
-50.09
20
76.1934
11
-50.09
21
-25.3967
0
LINE
8
BLACK
6
CONTINUOUS
10
-50.09
20
-25.3967
11
-50.014
21
-26.2658
0
LINE
8
BLACK
6
CONTINUOUS
10
-50.014
20
-26.2658
11
-49.4185
21
-27.9019
0
LINE
8
BLACK
6
CONTINUOUS
10
-49.4185
20
-27.9019
11
-48.3014
21
-29.2332
0
LINE
8
BLACK
6
CONTINUOUS
10
-48.3014
20
-29.2332
11
-46.7964
21
-30.1021
0
LINE
8
BLACK
6
CONTINUOUS
10
-46.7964
20
-30.1021
11
-45.0784
21
-30.405
0
LINE
8
BLACK
6
CONTINUOUS
10
-45.0784
20
-30.405
11
117.4
21
-30.405
0
LINE
8
BLACK
6
CONTINUOUS
10
117.4
20
-30.405
11
117.4
21
81.205
0
LINE
8
BLACK
6
CONTINUOUS
10
117.4
20
81.205
11
46.9933
21
81.205
  0
ENDSEC
  0
EOF
