0
SECTION
2
HEADER
9
$ANGDIR
70
0
9
$CHAMFERA
40
10
9
$CHAMFERB
40
10
9
$CLAYER
8
Layer_1
9
$EXTMAX
10
325
20
139.71156733269146
9
$EXTMIN
10
-134.32967370123305
20
-241.05463929868819
9
$LIMMAX
10
420
20
297
9
$LIMMIN
10
-134.32967370123305
20
-241.05463929868819
9
$LTSCALE
40
10
9
$PLINEGEN
70
0
9
$TEXTSIZE
40
20
9
$GRIDUNIT
10
10
20
10
9
$SNAPUNIT
10
1
20
1
0
ENDSEC
0
SECTION
2
TABLES
0
TABLE
2
STYLE
70
1
0
STYLE
2
STANDARD
70
0
40
0
41
1
50
0
71
0
42
0.20000000000000001
3
txt
4

0
ENDTAB
0
TABLE
2
LTYPE
70
14
0
LTYPE
2
CONTINUOUS
70
0
3
Solid line
72
65
73
0
40
0
0
LTYPE
2
DOT
70
0
3
............................................
72
65
73
2
40
0.25
49
0
49
-0.25
0
LTYPE
2
HIDDEN
70
0
3
_ _ _ _ _ _ _ _ _ _ _ _ _ _ _ _ _ _ _ _ _ _ 
72
65
73
2
40
0.375
49
0.25
49
-0.125
0
LTYPE
2
TSLONGDASH
70
0
3
__ __ __ __ __ __ __ __ __ __ __ __ __ __ _ 
72
65
73
2
40
1.28
49
1
49
-0.28000000000000003
0
LTYPE
2
TSDASHDOT
70
0
3
______ . ______ . ______ . ______ . ______ .
72
65
73
4
40
1.28
49
1
49
-0.14000000000000001
49
0
49
-0.14000000000000001
0
LTYPE
2
TSCENTER
70
0
3
______ _ ______ _ ______ _ ______ _ ______ _
72
65
73
4
40
2
49
1.5
49
-0.17999999999999999
49
0.14000000000000001
49
-0.17999999999999999
0
LTYPE
2
TSPHANTOM
70
0
3
_____ _ _ _____ _ _ _____ _ _ _____ _ _ ____
72
65
73
6
40
2.5
49
1.6299999999999999
49
-0.19
49
0.14999999999999999
49
-0.19
49
0.14999999999999999
49
-0.19
0
LTYPE
2
DASHED
70
0
3
__ __ __ __ __ __ __ __ __ __ __ __ __ __ __
72
65
73
2
40
0.75
49
0.5
49
-0.25
0
LTYPE
2
CENTER
70
0
3
____ _ ____ _ ____ _ ____ _ ____ _ ____ _ __
72
65
73
4
40
2
49
1.25
49
-0.25
49
0.25
49
-0.25
0
LTYPE
2
PHANTOM
70
0
3
_____ _ _ _____ _ _ _____ _ _ _____ _ _ ____
72
65
73
6
40
2.5
49
1.25
49
-0.25
49
0.25
49
-0.25
49
0.25
49
-0.25
0
LTYPE
2
DASHDOT
70
0
3
__ . __ . __ . __ . __ . __ . __ . __ . __ .
72
65
73
4
40
1
49
0.5
49
-0.25
49
0
49
-0.25
0
LTYPE
2
BORDER
70
0
3
__ __ . __ __ . __ __ . __ __ . __ __ . __ _
72
65
73
6
40
1.75
49
0.5
49
-0.25
49
0.5
49
-0.25
49
0
49
-0.25
0
LTYPE
2
DIVIDE
70
0
3
__ . . __ . . __ . . __ . . __ . . __ . . __
72
65
73
6
40
1.25
49
0.5
49
-0.25
49
0
49
-0.25
49
0
49
-0.25
0
ENDTAB
0
TABLE
2
LAYER
70
4
0
LAYER
2
Layer_1
70
0
62
7
6
CONTINUOUS
0
LAYER
2
hide
70
0
62
7
6
CONTINUOUS
0
LAYER
2
Layer_3
70
0
62
7
6
CONTINUOUS
0
LAYER
2
BLACK
70
0
62
7
6
CONTINUOUS
0
ENDTAB
0
ENDSEC
0
SECTION
2
ENTITIES
0
LINE
8
BLACK
6
CONTINUOUS
62
7
10
46
20
-32.5
11
-46
21
-32.5
0
ARC
8
BLACK
6
CONTINUOUS
62
7
10
46
20
-23.5
40
9
50
270
51
0
0
LINE
8
BLACK
6
CONTINUOUS
62
7
10
55
20
23.5
11
55
21
-23.5
0
LINE
8
BLACK
6
CONTINUOUS
62
7
10
-55
20
-23.5
11
-55
21
23.5
0
ARC
8
BLACK
6
CONTINUOUS
62
7
10
-46
20
-23.5
40
9
50
180
51
270
0
LINE
8
BLACK
6
CONTINUOUS
62
7
10
-40.399999999999999
20
-12.800000000000011
11
-40.399999999999999
21
-6.5999999999999943
0
LINE
8
BLACK
6
CONTINUOUS
62
7
10
-52.600000000000001
20
-12.800000000000011
11
-40.399999999999999
21
-12.800000000000011
0
LINE
8
BLACK
6
CONTINUOUS
62
7
10
-52.600000000000001
20
-6.5999999999999943
11
-52.600000000000001
21
-12.800000000000011
0
LINE
8
BLACK
6
CONTINUOUS
62
7
10
-40.399999999999999
20
-6.5999999999999943
11
-52.600000000000001
21
-6.5999999999999943
0
LINE
8
BLACK
6
CONTINUOUS
62
7
10
-40.399999999999999
20
6.6999999999999886
11
-40.399999999999999
21
12.900000000000006
0
LINE
8
BLACK
6
CONTINUOUS
62
7
10
-52.600000000000001
20
6.6999999999999886
11
-40.399999999999999
21
6.6999999999999886
0
LINE
8
BLACK
6
CONTINUOUS
62
7
10
-52.600000000000001
20
12.900000000000006
11
-52.600000000000001
21
6.6999999999999886
0
LINE
8
BLACK
6
CONTINUOUS
62
7
10
-40.399999999999999
20
12.900000000000006
11
-52.600000000000001
21
12.900000000000006
0
CIRCLE
8
BLACK
6
CONTINUOUS
62
7
10
-46.5
20
-24
40
5.4500000000000028
0
CIRCLE
8
BLACK
6
CONTINUOUS
62
7
10
-46.5
20
-24
40
3.25
0
CIRCLE
8
BLACK
6
CONTINUOUS
62
7
10
46.5
20
-24
40
5.4499999999999886
0
CIRCLE
8
BLACK
6
CONTINUOUS
62
7
10
46.5
20
-24
40
3.25
0
CIRCLE
8
BLACK
6
CONTINUOUS
62
7
10
-46.5
20
24
40
5.4500000000000028
0
CIRCLE
8
BLACK
6
CONTINUOUS
62
7
10
-46.5
20
24
40
3.25
0
CIRCLE
8
BLACK
6
CONTINUOUS
62
7
10
46.5
20
24
40
5.4499999999999886
0
CIRCLE
8
BLACK
6
CONTINUOUS
62
7
10
46.5
20
24
40
3.25
0
ARC
8
BLACK
6
CONTINUOUS
62
7
10
-46
20
23.5
40
9
50
90
51
180
0
LINE
8
BLACK
6
CONTINUOUS
62
7
10
-46
20
32.5
11
46
21
32.5
0
ARC
8
BLACK
6
CONTINUOUS
62
7
10
46
20
23.5
40
9
50
0
51
90
0
CIRCLE
8
BLACK
6
CONTINUOUS
62
7
10
-23.799999999999997
20
-23.5
40
4
0
CIRCLE
8
BLACK
6
CONTINUOUS
62
7
10
0
20
-23.5
40
4
0
CIRCLE
8
BLACK
6
CONTINUOUS
62
7
10
23.799999999999997
20
-23.5
40
4
0
CIRCLE
8
BLACK
6
CONTINUOUS
62
7
10
-23.799999999999997
20
23.700000000000003
40
4
0
CIRCLE
8
BLACK
6
CONTINUOUS
62
7
10
23.799999999999997
20
23.700000000000003
40
4
0
CIRCLE
8
BLACK
6
CONTINUOUS
62
7
10
0
20
23.700000000000003
40
4
0
LINE
8
BLACK
6
CONTINUOUS
62
7
10
93.5
20
37.75
11
58.5
21
37.75
0
LINE
8
BLACK
6
CONTINUOUS
62
7
10
93.5
20
95.25
11
93.5
21
37.75
0
LINE
8
BLACK
6
CONTINUOUS
62
7
10
58.5
20
95.25
11
93.5
21
95.25
0
LINE
8
BLACK
6
CONTINUOUS
62
7
10
58.5
20
37.75
11
58.5
21
95.25
0
LINE
8
BLACK
6
CONTINUOUS
62
7
10
46
20
-99
11
-46
21
-99
0
ARC
8
BLACK
6
CONTINUOUS
62
7
10
46
20
-90
40
9
50
270
51
0
0
LINE
8
BLACK
6
CONTINUOUS
62
7
10
55
20
-43
11
55
21
-90
0
LINE
8
BLACK
6
CONTINUOUS
62
7
10
-55
20
-90
11
-55
21
-43
0
ARC
8
BLACK
6
CONTINUOUS
62
7
10
-46
20
-90
40
9
50
180
51
270
0
LINE
8
BLACK
6
CONTINUOUS
62
7
10
-40.399999999999999
20
-79.300000000000011
11
-40.399999999999999
21
-73.099999999999994
0
LINE
8
BLACK
6
CONTINUOUS
62
7
10
-52.600000000000001
20
-79.300000000000011
11
-40.399999999999999
21
-79.300000000000011
0
LINE
8
BLACK
6
CONTINUOUS
62
7
10
-52.600000000000001
20
-73.099999999999994
11
-52.600000000000001
21
-79.300000000000011
0
LINE
8
BLACK
6
CONTINUOUS
62
7
10
-40.399999999999999
20
-73.099999999999994
11
-52.600000000000001
21
-73.099999999999994
0
LINE
8
BLACK
6
CONTINUOUS
62
7
10
-40.399999999999999
20
-59.800000000000011
11
-40.399999999999999
21
-53.599999999999994
0
LINE
8
BLACK
6
CONTINUOUS
62
7
10
-52.600000000000001
20
-59.800000000000011
11
-40.399999999999999
21
-59.800000000000011
0
LINE
8
BLACK
6
CONTINUOUS
62
7
10
-52.600000000000001
20
-53.599999999999994
11
-52.600000000000001
21
-59.800000000000011
0
LINE
8
BLACK
6
CONTINUOUS
62
7
10
-40.399999999999999
20
-53.599999999999994
11
-52.600000000000001
21
-53.599999999999994
0
CIRCLE
8
BLACK
6
CONTINUOUS
62
7
10
-46.5
20
-90.5
40
5.4500000000000028
0
CIRCLE
8
BLACK
6
CONTINUOUS
62
7
10
-46.5
20
-90.5
40
3.25
0
CIRCLE
8
BLACK
6
CONTINUOUS
62
7
10
46.5
20
-90.5
40
5.4499999999999886
0
CIRCLE
8
BLACK
6
CONTINUOUS
62
7
10
46.5
20
-90.5
40
3.25
0
CIRCLE
8
BLACK
6
CONTINUOUS
62
7
10
-46.5
20
-42.5
40
5.4500000000000028
0
CIRCLE
8
BLACK
6
CONTINUOUS
62
7
10
-46.5
20
-42.5
40
3.25
0
CIRCLE
8
BLACK
6
CONTINUOUS
62
7
10
46.5
20
-42.5
40
5.4499999999999886
0
CIRCLE
8
BLACK
6
CONTINUOUS
62
7
10
46.5
20
-42.5
40
3.25
0
ARC
8
BLACK
6
CONTINUOUS
62
7
10
-46
20
-43
40
9
50
90
51
180
0
LINE
8
BLACK
6
CONTINUOUS
62
7
10
-46
20
-34
11
46
21
-34
0
ARC
8
BLACK
6
CONTINUOUS
62
7
10
46
20
-43
40
9
50
0
51
90
0
CIRCLE
8
BLACK
6
CONTINUOUS
62
7
10
-23.799999999999997
20
-90
40
4
0
CIRCLE
8
BLACK
6
CONTINUOUS
62
7
10
0
20
-90
40
4
0
CIRCLE
8
BLACK
6
CONTINUOUS
62
7
10
23.799999999999997
20
-90
40
4
0
CIRCLE
8
BLACK
6
CONTINUOUS
62
7
10
-23.799999999999997
20
-42.800000000000011
40
4
0
CIRCLE
8
BLACK
6
CONTINUOUS
62
7
10
23.799999999999997
20
-42.800000000000011
40
4
0
CIRCLE
8
BLACK
6
CONTINUOUS
62
7
10
0
20
-42.800000000000011
40
4
0
LINE
8
BLACK
6
CONTINUOUS
62
7
10
-46
20
-99
11
46
21
-99
0
ARC
8
BLACK
6
CONTINUOUS
62
7
10
46
20
-90
40
9
50
270
51
0
0
LINE
8
BLACK
6
CONTINUOUS
62
7
10
55
20
-43
11
55
21
-90
0
LINE
8
BLACK
6
CONTINUOUS
62
7
10
-55
20
-90
11
-55
21
-43
0
ARC
8
BLACK
6
CONTINUOUS
62
7
10
-46
20
-90
40
9
50
180
51
270
0
LINE
8
BLACK
6
CONTINUOUS
62
7
10
-40.399999999999999
20
-79.300000000000011
11
-40.399999999999999
21
-73.099999999999994
0
LINE
8
BLACK
6
CONTINUOUS
62
7
10
-52.600000000000001
20
-79.300000000000011
11
-40.399999999999999
21
-79.300000000000011
0
LINE
8
BLACK
6
CONTINUOUS
62
7
10
-52.600000000000001
20
-73.099999999999994
11
-52.600000000000001
21
-79.300000000000011
0
LINE
8
BLACK
6
CONTINUOUS
62
7
10
-40.399999999999999
20
-73.099999999999994
11
-52.600000000000001
21
-73.099999999999994
0
LINE
8
BLACK
6
CONTINUOUS
62
7
10
-40.399999999999999
20
-59.800000000000011
11
-40.399999999999999
21
-53.599999999999994
0
LINE
8
BLACK
6
CONTINUOUS
62
7
10
-52.600000000000001
20
-59.800000000000011
11
-40.399999999999999
21
-59.800000000000011
0
LINE
8
BLACK
6
CONTINUOUS
62
7
10
-52.600000000000001
20
-53.599999999999994
11
-52.600000000000001
21
-59.800000000000011
0
LINE
8
BLACK
6
CONTINUOUS
62
7
10
-40.399999999999999
20
-53.599999999999994
11
-52.600000000000001
21
-53.599999999999994
0
CIRCLE
8
BLACK
6
CONTINUOUS
62
7
10
-46.5
20
-90.5
40
5.4500000000000028
0
CIRCLE
8
BLACK
6
CONTINUOUS
62
7
10
-46.5
20
-90.5
40
3.25
0
CIRCLE
8
BLACK
6
CONTINUOUS
62
7
10
46.5
20
-90.5
40
5.4499999999999886
0
CIRCLE
8
BLACK
6
CONTINUOUS
62
7
10
46.5
20
-90.5
40
3.25
0
CIRCLE
8
BLACK
6
CONTINUOUS
62
7
10
-46.5
20
-42.5
40
5.4500000000000028
0
CIRCLE
8
BLACK
6
CONTINUOUS
62
7
10
-46.5
20
-42.5
40
3.25
0
CIRCLE
8
BLACK
6
CONTINUOUS
62
7
10
46.5
20
-42.5
40
5.4499999999999886
0
CIRCLE
8
BLACK
6
CONTINUOUS
62
7
10
46.5
20
-42.5
40
3.25
0
ARC
8
BLACK
6
CONTINUOUS
62
7
10
-46
20
-43
40
9
50
90
51
180
0
LINE
8
BLACK
6
CONTINUOUS
62
7
10
-46
20
-34
11
46
21
-34
0
ARC
8
BLACK
6
CONTINUOUS
62
7
10
46
20
-43
40
9
50
0
51
90
0
CIRCLE
8
BLACK
6
CONTINUOUS
62
7
10
-23.799999999999997
20
-90
40
4
0
CIRCLE
8
BLACK
6
CONTINUOUS
62
7
10
0
20
-90
40
4
0
CIRCLE
8
BLACK
6
CONTINUOUS
62
7
10
23.799999999999997
20
-90
40
4
0
CIRCLE
8
BLACK
6
CONTINUOUS
62
7
10
-23.799999999999997
20
-42.800000000000011
40
4
0
CIRCLE
8
BLACK
6
CONTINUOUS
62
7
10
23.799999999999997
20
-42.800000000000011
40
4
0
CIRCLE
8
BLACK
6
CONTINUOUS
62
7
10
0
20
-42.800000000000011
40
4
0
LINE
8
BLACK
6
CONTINUOUS
62
7
10
46
20
33.950000000000003
11
-46
21
33.950000000000003
0
ARC
8
BLACK
6
CONTINUOUS
62
7
10
46
20
42.950000000000003
40
9
50
270
51
0
0
LINE
8
BLACK
6
CONTINUOUS
62
7
10
55
20
89.950000000000003
11
55
21
42.950000000000003
0
LINE
8
BLACK
6
CONTINUOUS
62
7
10
-55
20
42.950000000000003
11
-55
21
89.950000000000003
0
ARC
8
BLACK
6
CONTINUOUS
62
7
10
-46
20
42.950000000000003
40
9
50
180
51
270
0
LINE
8
BLACK
6
CONTINUOUS
62
7
10
-40.399999999999999
20
53.650000000000006
11
-40.399999999999999
21
59.849999999999994
0
LINE
8
BLACK
6
CONTINUOUS
62
7
10
-52.600000000000001
20
53.650000000000006
11
-40.399999999999999
21
53.650000000000006
0
LINE
8
BLACK
6
CONTINUOUS
62
7
10
-52.600000000000001
20
59.849999999999994
11
-52.600000000000001
21
53.650000000000006
0
LINE
8
BLACK
6
CONTINUOUS
62
7
10
-40.399999999999999
20
59.849999999999994
11
-52.600000000000001
21
59.849999999999994
0
LINE
8
BLACK
6
CONTINUOUS
62
7
10
-40.399999999999999
20
73.150000000000006
11
-40.399999999999999
21
79.349999999999994
0
LINE
8
BLACK
6
CONTINUOUS
62
7
10
-52.600000000000001
20
73.150000000000006
11
-40.399999999999999
21
73.150000000000006
0
LINE
8
BLACK
6
CONTINUOUS
62
7
10
-52.600000000000001
20
79.349999999999994
11
-52.600000000000001
21
73.150000000000006
0
LINE
8
BLACK
6
CONTINUOUS
62
7
10
-40.399999999999999
20
79.349999999999994
11
-52.600000000000001
21
79.349999999999994
0
CIRCLE
8
BLACK
6
CONTINUOUS
62
7
10
-46.5
20
42.450000000000003
40
5.4500000000000028
0
CIRCLE
8
BLACK
6
CONTINUOUS
62
7
10
-46.5
20
42.450000000000003
40
3.25
0
CIRCLE
8
BLACK
6
CONTINUOUS
62
7
10
46.5
20
42.450000000000003
40
5.4499999999999886
0
CIRCLE
8
BLACK
6
CONTINUOUS
62
7
10
46.5
20
42.450000000000003
40
3.25
0
CIRCLE
8
BLACK
6
CONTINUOUS
62
7
10
-46.5
20
90.450000000000003
40
5.4500000000000028
0
CIRCLE
8
BLACK
6
CONTINUOUS
62
7
10
-46.5
20
90.450000000000003
40
3.25
0
CIRCLE
8
BLACK
6
CONTINUOUS
62
7
10
46.5
20
90.450000000000003
40
5.4499999999999886
0
CIRCLE
8
BLACK
6
CONTINUOUS
62
7
10
46.5
20
90.450000000000003
40
3.25
0
ARC
8
BLACK
6
CONTINUOUS
62
7
10
-46
20
89.950000000000003
40
9
50
90
51
180
0
LINE
8
BLACK
6
CONTINUOUS
62
7
10
46
20
98.950000000000003
11
-46
21
98.950000000000003
0
ARC
8
BLACK
6
CONTINUOUS
62
7
10
46
20
89.950000000000003
40
9
50
0
51
90
0
CIRCLE
8
BLACK
6
CONTINUOUS
62
7
10
-23.799999999999997
20
42.950000000000003
40
4
0
CIRCLE
8
BLACK
6
CONTINUOUS
62
7
10
0
20
42.950000000000003
40
4
0
CIRCLE
8
BLACK
6
CONTINUOUS
62
7
10
23.799999999999997
20
42.950000000000003
40
4
0
CIRCLE
8
BLACK
6
CONTINUOUS
62
7
10
-23.799999999999997
20
90.150000000000006
40
4
0
CIRCLE
8
BLACK
6
CONTINUOUS
62
7
10
23.799999999999997
20
90.150000000000006
40
4
0
CIRCLE
8
BLACK
6
CONTINUOUS
62
7
10
0
20
90.150000000000006
40
4
0
LINE
8
BLACK
6
CONTINUOUS
62
7
10
171.5
20
-64.099999999999994
11
171.5
21
-48.099999999999994
0
LINE
8
BLACK
6
CONTINUOUS
62
7
10
187.5
20
-64.099999999999994
11
171.5
21
-64.099999999999994
0
LINE
8
BLACK
6
CONTINUOUS
62
7
10
187.5
20
-48.099999999999994
11
187.5
21
-64.099999999999994
0
LINE
8
BLACK
6
CONTINUOUS
62
7
10
171.5
20
-48.099999999999994
11
187.5
21
-48.099999999999994
0
LINE
8
BLACK
6
CONTINUOUS
62
7
10
171.5
20
-86.099999999999994
11
171.5
21
-70.099999999999994
0
LINE
8
BLACK
6
CONTINUOUS
62
7
10
187.5
20
-86.099999999999994
11
171.5
21
-86.099999999999994
0
LINE
8
BLACK
6
CONTINUOUS
62
7
10
187.5
20
-70.099999999999994
11
187.5
21
-86.099999999999994
0
LINE
8
BLACK
6
CONTINUOUS
62
7
10
171.5
20
-70.099999999999994
11
187.5
21
-70.099999999999994
0
LINE
8
BLACK
6
CONTINUOUS
62
7
10
171.5
20
3
11
171.5
21
19
0
LINE
8
BLACK
6
CONTINUOUS
62
7
10
187.5
20
3
11
171.5
21
3
0
LINE
8
BLACK
6
CONTINUOUS
62
7
10
187.5
20
19
11
187.5
21
3
0
LINE
8
BLACK
6
CONTINUOUS
62
7
10
171.5
20
19
11
187.5
21
19
0
LINE
8
BLACK
6
CONTINUOUS
62
7
10
171.5
20
48.099999999999994
11
171.5
21
64.099999999999994
0
LINE
8
BLACK
6
CONTINUOUS
62
7
10
187.5
20
48.099999999999994
11
171.5
21
48.099999999999994
0
LINE
8
BLACK
6
CONTINUOUS
62
7
10
187.5
20
64.099999999999994
11
187.5
21
48.099999999999994
0
LINE
8
BLACK
6
CONTINUOUS
62
7
10
171.5
20
64.099999999999994
11
187.5
21
64.099999999999994
0
LINE
8
BLACK
6
CONTINUOUS
62
7
10
171.5
20
70.099999999999994
11
171.5
21
86.099999999999994
0
LINE
8
BLACK
6
CONTINUOUS
62
7
10
187.5
20
70.099999999999994
11
171.5
21
70.099999999999994
0
LINE
8
BLACK
6
CONTINUOUS
62
7
10
187.5
20
86.099999999999994
11
187.5
21
70.099999999999994
0
LINE
8
BLACK
6
CONTINUOUS
62
7
10
171.5
20
86.099999999999994
11
187.5
21
86.099999999999994
0
LINE
8
BLACK
6
CONTINUOUS
62
7
10
171.5
20
-19
11
171.5
21
-3
0
LINE
8
BLACK
6
CONTINUOUS
62
7
10
187.5
20
-19
11
171.5
21
-19
0
LINE
8
BLACK
6
CONTINUOUS
62
7
10
187.5
20
-3
11
187.5
21
-19
0
LINE
8
BLACK
6
CONTINUOUS
62
7
10
171.5
20
-3
11
187.5
21
-3
0
LINE
8
BLACK
6
CONTINUOUS
62
7
10
96.5
20
95.25
11
131.5
21
95.25
0
LINE
8
BLACK
6
CONTINUOUS
62
7
10
96.5
20
37.75
11
96.5
21
95.25
0
LINE
8
BLACK
6
CONTINUOUS
62
7
10
131.5
20
37.75
11
96.5
21
37.75
0
LINE
8
BLACK
6
CONTINUOUS
62
7
10
131.5
20
95.25
11
131.5
21
37.75
0
LINE
8
BLACK
6
CONTINUOUS
62
7
10
169.5
20
-95.25
11
134.5
21
-95.25
0
LINE
8
BLACK
6
CONTINUOUS
62
7
10
169.5
20
-37.75
11
169.5
21
-95.25
0
LINE
8
BLACK
6
CONTINUOUS
62
7
10
134.5
20
-37.75
11
169.5
21
-37.75
0
LINE
8
BLACK
6
CONTINUOUS
62
7
10
134.5
20
-95.25
11
134.5
21
-37.75
0
LINE
8
BLACK
6
CONTINUOUS
62
7
10
169.5
20
-28.75
11
134.5
21
-28.75
0
LINE
8
BLACK
6
CONTINUOUS
62
7
10
169.5
20
28.75
11
169.5
21
-28.75
0
LINE
8
BLACK
6
CONTINUOUS
62
7
10
134.5
20
28.75
11
169.5
21
28.75
0
LINE
8
BLACK
6
CONTINUOUS
62
7
10
134.5
20
-28.75
11
134.5
21
28.75
0
LINE
8
BLACK
6
CONTINUOUS
62
7
10
169.5
20
37.75
11
134.5
21
37.75
0
LINE
8
BLACK
6
CONTINUOUS
62
7
10
169.5
20
95.25
11
169.5
21
37.75
0
LINE
8
BLACK
6
CONTINUOUS
62
7
10
134.5
20
95.25
11
169.5
21
95.25
0
LINE
8
BLACK
6
CONTINUOUS
62
7
10
134.5
20
37.75
11
134.5
21
95.25
0
LINE
8
BLACK
6
CONTINUOUS
62
7
10
96.5
20
-37.75
11
131.5
21
-37.75
0
LINE
8
BLACK
6
CONTINUOUS
62
7
10
96.5
20
-95.25
11
96.5
21
-37.75
0
LINE
8
BLACK
6
CONTINUOUS
62
7
10
131.5
20
-95.25
11
96.5
21
-95.25
0
LINE
8
BLACK
6
CONTINUOUS
62
7
10
131.5
20
-37.75
11
131.5
21
-95.25
0
LINE
8
BLACK
6
CONTINUOUS
62
7
10
93.5
20
-95.25
11
58.5
21
-95.25
0
LINE
8
BLACK
6
CONTINUOUS
62
7
10
93.5
20
-37.75
11
93.5
21
-95.25
0
LINE
8
BLACK
6
CONTINUOUS
62
7
10
58.5
20
-37.75
11
93.5
21
-37.75
0
LINE
8
BLACK
6
CONTINUOUS
62
7
10
58.5
20
-95.25
11
58.5
21
-37.75
0
LINE
8
BLACK
6
CONTINUOUS
62
7
10
93.5
20
-28.75
11
58.5
21
-28.75
0
LINE
8
BLACK
6
CONTINUOUS
62
7
10
93.5
20
28.75
11
93.5
21
-28.75
0
LINE
8
BLACK
6
CONTINUOUS
62
7
10
58.5
20
28.75
11
93.5
21
28.75
0
LINE
8
BLACK
6
CONTINUOUS
62
7
10
58.5
20
-28.75
11
58.5
21
28.75
0
LINE
8
BLACK
6
CONTINUOUS
62
7
10
96.5
20
28.75
11
131.5
21
28.75
0
LINE
8
BLACK
6
CONTINUOUS
62
7
10
96.5
20
-28.75
11
96.5
21
28.75
0
LINE
8
BLACK
6
CONTINUOUS
62
7
10
131.5
20
-28.75
11
96.5
21
-28.75
0
LINE
8
BLACK
6
CONTINUOUS
62
7
10
131.5
20
28.75
11
131.5
21
-28.75
0
LINE
8
BLACK
6
CONTINUOUS
62
7
10
36.344999999999999
20
-24.032000000000011
11
40.155000000000001
21
-24.032000000000011
0
LINE
8
BLACK
6
CONTINUOUS
62
7
10
36.344999999999999
20
23.992999999999995
11
40.155000000000001
21
23.992999999999995
0
LINE
8
BLACK
6
CONTINUOUS
62
7
10
38.25
20
22.087999999999994
11
38.25
21
25.897999999999996
0
LINE
8
BLACK
6
CONTINUOUS
62
7
10
36.344999999999999
20
-90.532000000000011
11
40.155000000000001
21
-90.532000000000011
0
LINE
8
BLACK
6
CONTINUOUS
62
7
10
36.344999999999999
20
-42.507000000000005
11
40.155000000000001
21
-42.507000000000005
0
LINE
8
BLACK
6
CONTINUOUS
62
7
10
38.25
20
-44.412000000000006
11
38.25
21
-40.602000000000004
0
LINE
8
BLACK
6
CONTINUOUS
62
7
10
36.344999999999999
20
-90.532000000000011
11
40.155000000000001
21
-90.532000000000011
0
LINE
8
BLACK
6
CONTINUOUS
62
7
10
36.344999999999999
20
-42.507000000000005
11
40.155000000000001
21
-42.507000000000005
0
LINE
8
BLACK
6
CONTINUOUS
62
7
10
38.25
20
-44.412000000000006
11
38.25
21
-40.602000000000004
0
LINE
8
BLACK
6
CONTINUOUS
62
7
10
36.344999999999999
20
42.418000000000006
11
40.155000000000001
21
42.418000000000006
0
LINE
8
BLACK
6
CONTINUOUS
62
7
10
36.344999999999999
20
90.442900000000009
11
40.155000000000001
21
90.442900000000009
0
LINE
8
BLACK
6
CONTINUOUS
62
7
10
38.25
20
88.5381
11
38.25
21
92.3476
0
LINE
8
BLACK
6
CONTINUOUS
62
7
10
190.5
20
3.5
11
190.5
21
63.599999999999994
0
LINE
8
BLACK
6
CONTINUOUS
62
7
10
190.5
20
-63.599999999999994
11
190.5
21
-3.5
0
ARC
8
BLACK
6
CONTINUOUS
62
7
10
169.5
20
-67.099999999999994
40
1
50
90
51
270
0
ARC
8
BLACK
6
CONTINUOUS
62
7
10
169.5
20
0
40
1
50
90
51
270
0
LINE
8
BLACK
6
CONTINUOUS
62
7
10
188
20
-66.099999999999994
11
169.5
21
-66.099999999999994
0
LINE
8
BLACK
6
CONTINUOUS
62
7
10
188
20
1
11
169.5
21
1
0
LINE
8
BLACK
6
CONTINUOUS
62
7
10
169.5
20
-68.099999999999994
11
188
21
-68.099999999999994
0
LINE
8
BLACK
6
CONTINUOUS
62
7
10
169.5
20
-1
11
188
21
-1
0
ARC
8
BLACK
6
CONTINUOUS
62
7
10
188
20
-70.599999999999994
40
2.5
50
0
51
90
0
ARC
8
BLACK
6
CONTINUOUS
62
7
10
188
20
-3.5
40
2.5
50
0
51
90
0
ARC
8
BLACK
6
CONTINUOUS
62
7
10
188
20
-63.599999999999994
40
2.5
50
270
51
0
0
ARC
8
BLACK
6
CONTINUOUS
62
7
10
188
20
3.5
40
2.5
50
270
51
0
0
ARC
8
BLACK
6
CONTINUOUS
62
7
10
188
20
70.599999999999994
40
2.5
50
270
51
0
0
ARC
8
BLACK
6
CONTINUOUS
62
7
10
188
20
63.599999999999994
40
2.5
50
0
51
90
0
ARC
8
BLACK
6
CONTINUOUS
62
7
10
169.5
20
67.099999999999994
40
1
50
90
51
270
0
LINE
8
BLACK
6
CONTINUOUS
62
7
10
190.5
20
70.599999999999994
11
190.5
21
97.5
0
LINE
8
BLACK
6
CONTINUOUS
62
7
10
169.5
20
66.099999999999994
11
188
21
66.099999999999994
0
LINE
8
BLACK
6
CONTINUOUS
62
7
10
188
20
68.099999999999994
11
169.5
21
68.099999999999994
0
LINE
8
BLACK
6
CONTINUOUS
62
7
10
190.5
20
-70.599999999999994
11
190.5
21
-97.5
0
ARC
8
BLACK
6
CONTINUOUS
62
7
10
188
20
-97.5
40
2.5
50
270
51
0
0
LINE
8
BLACK
6
CONTINUOUS
62
7
10
188
20
-100
11
-37
21
-100
0
ARC
8
BLACK
6
CONTINUOUS
62
7
10
188
20
97.5
40
2.5
50
0
51
90
0
ARC
8
BLACK
6
CONTINUOUS
62
7
10
-37
20
-97.5
40
2.5
50
180
51
270
0
ARC
8
BLACK
6
CONTINUOUS
62
7
10
-37
20
97.5
40
2.5
50
90
51
180
0
LINE
8
BLACK
6
CONTINUOUS
62
7
10
188
20
100
11
-37
21
100
0
LINE
8
BLACK
6
CONTINUOUS
62
7
10
-39.5
20
97.5
11
-39.5
21
-97.5
0
LINE
8
BLACK
6
CONTINUOUS
62
7
10
-32.728700000000003
20
-5.5
11
32.729000000000013
21
-5.5
0
LINE
8
BLACK
6
CONTINUOUS
62
7
10
35.5
20
-0.69999999999998863
11
32.729000000000013
21
-5.5
0
LINE
8
BLACK
6
CONTINUOUS
62
7
10
-35.5
20
-0.69999999999998863
11
-32.728700000000003
21
-5.5
0
LINE
8
BLACK
6
CONTINUOUS
62
7
10
35.5
20
5.3000000000000114
11
35.5
21
-0.69999999999998863
0
LINE
8
BLACK
6
CONTINUOUS
62
7
10
-35.5
20
5.3000000000000114
11
35.5
21
5.3000000000000114
0
LINE
8
BLACK
6
CONTINUOUS
62
7
10
-35.5
20
5.3000000000000114
11
-35.5
21
-0.69999999999998863
0
CIRCLE
8
BLACK
6
CONTINUOUS
62
7
10
-23.799999999999997
20
-0.5
40
2
0
CIRCLE
8
BLACK
6
CONTINUOUS
62
7
10
0
20
-0.5
40
2
0
CIRCLE
8
BLACK
6
CONTINUOUS
62
7
10
23.799999999999997
20
-0.5
40
2
0
LINE
8
BLACK
6
CONTINUOUS
62
7
10
-32.728700000000003
20
-18.5
11
32.729000000000013
21
-18.5
0
LINE
8
BLACK
6
CONTINUOUS
62
7
10
35.5
20
-23.300000000000011
11
32.729000000000013
21
-18.5
0
LINE
8
BLACK
6
CONTINUOUS
62
7
10
-35.5
20
-23.300000000000011
11
-32.728700000000003
21
-18.5
0
LINE
8
BLACK
6
CONTINUOUS
62
7
10
35.5
20
-29.300000000000011
11
35.5
21
-23.300000000000011
0
LINE
8
BLACK
6
CONTINUOUS
62
7
10
-35.5
20
-29.300000000000011
11
35.5
21
-29.300000000000011
0
LINE
8
BLACK
6
CONTINUOUS
62
7
10
-35.5
20
-29.300000000000011
11
-35.5
21
-23.300000000000011
0
CIRCLE
8
BLACK
6
CONTINUOUS
62
7
10
-23.799999999999997
20
-23.5
40
2
0
CIRCLE
8
BLACK
6
CONTINUOUS
62
7
10
0
20
-23.5
40
2
0
CIRCLE
8
BLACK
6
CONTINUOUS
62
7
10
23.799999999999997
20
-23.5
40
2
0
LINE
8
BLACK
6
CONTINUOUS
62
7
10
-32.728700000000003
20
18.699999999999989
11
32.729000000000013
21
18.699999999999989
0
LINE
8
BLACK
6
CONTINUOUS
62
7
10
35.5
20
23.5
11
32.729000000000013
21
18.699999999999989
0
LINE
8
BLACK
6
CONTINUOUS
62
7
10
-35.5
20
23.5
11
-32.728700000000003
21
18.699999999999989
0
LINE
8
BLACK
6
CONTINUOUS
62
7
10
35.5
20
29.5
11
35.5
21
23.5
0
LINE
8
BLACK
6
CONTINUOUS
62
7
10
-35.5
20
29.5
11
35.5
21
29.5
0
LINE
8
BLACK
6
CONTINUOUS
62
7
10
-35.5
20
29.5
11
-35.5
21
23.5
0
CIRCLE
8
BLACK
6
CONTINUOUS
62
7
10
-23.799999999999997
20
23.699999999999989
40
2
0
CIRCLE
8
BLACK
6
CONTINUOUS
62
7
10
0
20
23.699999999999989
40
2
0
CIRCLE
8
BLACK
6
CONTINUOUS
62
7
10
23.799999999999997
20
23.699999999999989
40
2
0
LINE
8
BLACK
6
CONTINUOUS
62
7
10
55
20
-24
11
-55
21
-24
0
LINE
8
BLACK
6
CONTINUOUS
62
7
10
-55
20
24
11
55
21
24
0
LINE
8
BLACK
6
CONTINUOUS
62
7
10
46.5
20
32.5
11
46.5
21
-32.5
0
LINE
8
BLACK
6
CONTINUOUS
62
7
10
-46.5
20
32.5
11
-46.5
21
-32.5
0
LINE
8
BLACK
6
CONTINUOUS
62
7
10
-55
20
0
11
55
21
0
0
LINE
8
BLACK
6
CONTINUOUS
62
7
10
0
20
-32.5
11
0
21
32.5
0
LINE
8
BLACK
6
CONTINUOUS
62
7
10
309.05000000000001
20
-31
11
309.05000000000001
21
31
0
LINE
8
BLACK
6
CONTINUOUS
62
7
10
186.94999999999999
20
31
11
186.94999999999999
21
-31
0
LINE
8
BLACK
6
CONTINUOUS
62
7
10
325
20
-19.300000000000011
11
309.05000000000001
21
-19.300000000000011
0
CIRCLE
8
BLACK
6
CONTINUOUS
62
7
10
303
20
-25
40
2.75
0
CIRCLE
8
BLACK
6
CONTINUOUS
62
7
10
303
20
25
40
2.75
0
LINE
8
BLACK
6
CONTINUOUS
62
7
10
173
20
-2.6999999999999886
11
173
21
-19.300000000000011
0
LINE
8
BLACK
6
CONTINUOUS
62
7
10
186.94999999999999
20
31
11
309.05000000000001
21
31
0
LINE
8
BLACK
6
CONTINUOUS
62
7
10
325
20
-2.6999999999999886
11
325
21
-19.300000000000011
0
LINE
8
BLACK
6
CONTINUOUS
62
7
10
248
20
-31
11
248
21
31
0
LINE
8
BLACK
6
CONTINUOUS
62
7
10
186.94999999999999
20
-31
11
309.05000000000001
21
-31
0
LINE
8
BLACK
6
CONTINUOUS
62
7
10
325
20
19.300000000000011
11
325
21
2.6999999999999886
0
LINE
8
BLACK
6
CONTINUOUS
62
7
10
173
20
0
11
325
21
0
0
CIRCLE
8
BLACK
6
CONTINUOUS
62
7
10
179.5
20
11
40
3
0
LINE
8
BLACK
6
CONTINUOUS
62
7
10
173
20
2.6999999999999886
11
186.94999999999999
21
2.6999999999999886
0
LINE
8
BLACK
6
CONTINUOUS
62
7
10
309.05000000000001
20
2.6999999999999886
11
325
21
2.6999999999999886
0
CIRCLE
8
BLACK
6
CONTINUOUS
62
7
10
316.5
20
-11
40
3
0
CIRCLE
8
BLACK
6
CONTINUOUS
62
7
10
179.5
20
-11
40
3
0
CIRCLE
8
BLACK
6
CONTINUOUS
62
7
10
193
20
25
40
2.75
0
LINE
8
BLACK
6
CONTINUOUS
62
7
10
186.94999999999999
20
-2.6999999999999886
11
173
21
-2.6999999999999886
0
LINE
8
BLACK
6
CONTINUOUS
62
7
10
325
20
-2.6999999999999886
11
309.05000000000001
21
-2.6999999999999886
0
LINE
8
BLACK
6
CONTINUOUS
62
7
10
309.05000000000001
20
19.300000000000011
11
325
21
19.300000000000011
0
LINE
8
BLACK
6
CONTINUOUS
62
7
10
173
20
19.300000000000011
11
173
21
2.6999999999999886
0
LINE
8
BLACK
6
CONTINUOUS
62
7
10
173
20
19.300000000000011
11
186.94999999999999
21
19.300000000000011
0
LINE
8
BLACK
6
CONTINUOUS
62
7
10
186.94999999999999
20
-19.300000000000011
11
173
21
-19.300000000000011
0
CIRCLE
8
BLACK
6
CONTINUOUS
62
7
10
316.5
20
11
40
3
0
CIRCLE
8
BLACK
6
CONTINUOUS
62
7
10
193
20
-25
40
2.75
0
LINE
8
BLACK
6
CONTINUOUS
62
7
10
309.05000000000001
20
36.099999999999994
11
309.05000000000001
21
98.099999999999994
0
LINE
8
BLACK
6
CONTINUOUS
62
7
10
186.94999999999999
20
98.099999999999994
11
186.94999999999999
21
36.099999999999994
0
LINE
8
BLACK
6
CONTINUOUS
62
7
10
325
20
47.800000000000011
11
309.05000000000001
21
47.800000000000011
0
CIRCLE
8
BLACK
6
CONTINUOUS
62
7
10
303
20
42.099999999999994
40
2.75
0
CIRCLE
8
BLACK
6
CONTINUOUS
62
7
10
303
20
92.099999999999994
40
2.75
0
LINE
8
BLACK
6
CONTINUOUS
62
7
10
173
20
64.400000000000006
11
173
21
47.800000000000011
0
LINE
8
BLACK
6
CONTINUOUS
62
7
10
186.94999999999999
20
98.099999999999994
11
309.05000000000001
21
98.099999999999994
0
LINE
8
BLACK
6
CONTINUOUS
62
7
10
325
20
64.400000000000006
11
325
21
47.800000000000011
0
LINE
8
BLACK
6
CONTINUOUS
62
7
10
248
20
36.099999999999994
11
248
21
98.099999999999994
0
LINE
8
BLACK
6
CONTINUOUS
62
7
10
186.94999999999999
20
36.099999999999994
11
309.05000000000001
21
36.099999999999994
0
LINE
8
BLACK
6
CONTINUOUS
62
7
10
325
20
86.400000000000006
11
325
21
69.800000000000011
0
LINE
8
BLACK
6
CONTINUOUS
62
7
10
173
20
67.099999999999994
11
325
21
67.099999999999994
0
CIRCLE
8
BLACK
6
CONTINUOUS
62
7
10
179.5
20
78.099999999999994
40
3
0
LINE
8
BLACK
6
CONTINUOUS
62
7
10
173
20
69.800000000000011
11
186.94999999999999
21
69.800000000000011
0
LINE
8
BLACK
6
CONTINUOUS
62
7
10
309.05000000000001
20
69.800000000000011
11
325
21
69.800000000000011
0
CIRCLE
8
BLACK
6
CONTINUOUS
62
7
10
316.5
20
56.099999999999994
40
3
0
CIRCLE
8
BLACK
6
CONTINUOUS
62
7
10
179.5
20
56.099999999999994
40
3
0
CIRCLE
8
BLACK
6
CONTINUOUS
62
7
10
193
20
92.099999999999994
40
2.75
0
LINE
8
BLACK
6
CONTINUOUS
62
7
10
186.94999999999999
20
64.400000000000006
11
173
21
64.400000000000006
0
LINE
8
BLACK
6
CONTINUOUS
62
7
10
325
20
64.400000000000006
11
309.05000000000001
21
64.400000000000006
0
LINE
8
BLACK
6
CONTINUOUS
62
7
10
309.05000000000001
20
86.400000000000006
11
325
21
86.400000000000006
0
LINE
8
BLACK
6
CONTINUOUS
62
7
10
173
20
86.400000000000006
11
173
21
69.800000000000011
0
LINE
8
BLACK
6
CONTINUOUS
62
7
10
173
20
86.400000000000006
11
186.94999999999999
21
86.400000000000006
0
LINE
8
BLACK
6
CONTINUOUS
62
7
10
186.94999999999999
20
47.800000000000011
11
173
21
47.800000000000011
0
CIRCLE
8
BLACK
6
CONTINUOUS
62
7
10
316.5
20
78.099999999999994
40
3
0
CIRCLE
8
BLACK
6
CONTINUOUS
62
7
10
193
20
42.099999999999994
40
2.75
0
LINE
8
BLACK
6
CONTINUOUS
62
7
10
-32.728700000000003
20
-72
11
32.729000000000013
21
-72
0
LINE
8
BLACK
6
CONTINUOUS
62
7
10
35.5
20
-67.199999999999989
11
32.729000000000013
21
-72
0
LINE
8
BLACK
6
CONTINUOUS
62
7
10
-35.5
20
-67.199999999999989
11
-32.728700000000003
21
-72
0
LINE
8
BLACK
6
CONTINUOUS
62
7
10
35.5
20
-61.199999999999989
11
35.5
21
-67.199999999999989
0
LINE
8
BLACK
6
CONTINUOUS
62
7
10
-35.5
20
-61.199999999999989
11
35.5
21
-61.199999999999989
0
LINE
8
BLACK
6
CONTINUOUS
62
7
10
-35.5
20
-61.199999999999989
11
-35.5
21
-67.199999999999989
0
CIRCLE
8
BLACK
6
CONTINUOUS
62
7
10
-23.799999999999997
20
-67
40
2
0
CIRCLE
8
BLACK
6
CONTINUOUS
62
7
10
0
20
-67
40
2
0
CIRCLE
8
BLACK
6
CONTINUOUS
62
7
10
23.799999999999997
20
-67
40
2
0
LINE
8
BLACK
6
CONTINUOUS
62
7
10
-32.728700000000003
20
-85
11
32.729000000000013
21
-85
0
LINE
8
BLACK
6
CONTINUOUS
62
7
10
35.5
20
-89.800000000000011
11
32.729000000000013
21
-85
0
LINE
8
BLACK
6
CONTINUOUS
62
7
10
-35.5
20
-89.800000000000011
11
-32.728700000000003
21
-85
0
LINE
8
BLACK
6
CONTINUOUS
62
7
10
35.5
20
-95.800000000000011
11
35.5
21
-89.800000000000011
0
LINE
8
BLACK
6
CONTINUOUS
62
7
10
-35.5
20
-95.800000000000011
11
35.5
21
-95.800000000000011
0
LINE
8
BLACK
6
CONTINUOUS
62
7
10
-35.5
20
-95.800000000000011
11
-35.5
21
-89.800000000000011
0
CIRCLE
8
BLACK
6
CONTINUOUS
62
7
10
-23.799999999999997
20
-90
40
2
0
CIRCLE
8
BLACK
6
CONTINUOUS
62
7
10
0
20
-90
40
2
0
CIRCLE
8
BLACK
6
CONTINUOUS
62
7
10
23.799999999999997
20
-90
40
2
0
LINE
8
BLACK
6
CONTINUOUS
62
7
10
-32.728700000000003
20
-47.800000000000011
11
32.729000000000013
21
-47.800000000000011
0
LINE
8
BLACK
6
CONTINUOUS
62
7
10
35.5
20
-43
11
32.729000000000013
21
-47.800000000000011
0
LINE
8
BLACK
6
CONTINUOUS
62
7
10
-35.5
20
-43
11
-32.728700000000003
21
-47.800000000000011
0
LINE
8
BLACK
6
CONTINUOUS
62
7
10
35.5
20
-37
11
35.5
21
-43
0
LINE
8
BLACK
6
CONTINUOUS
62
7
10
-35.5
20
-37
11
35.5
21
-37
0
LINE
8
BLACK
6
CONTINUOUS
62
7
10
-35.5
20
-37
11
-35.5
21
-43
0
CIRCLE
8
BLACK
6
CONTINUOUS
62
7
10
-23.799999999999997
20
-42.800000000000011
40
2
0
CIRCLE
8
BLACK
6
CONTINUOUS
62
7
10
0
20
-42.800000000000011
40
2
0
CIRCLE
8
BLACK
6
CONTINUOUS
62
7
10
23.799999999999997
20
-42.800000000000011
40
2
0
LINE
8
BLACK
6
CONTINUOUS
62
7
10
-55
20
-90.5
11
55
21
-90.5
0
LINE
8
BLACK
6
CONTINUOUS
62
7
10
-55
20
-42.5
11
55
21
-42.5
0
LINE
8
BLACK
6
CONTINUOUS
62
7
10
46.5
20
-34
11
46.5
21
-99
0
LINE
8
BLACK
6
CONTINUOUS
62
7
10
-46.5
20
-34
11
-46.5
21
-99
0
LINE
8
BLACK
6
CONTINUOUS
62
7
10
-55
20
-66.5
11
55
21
-66.5
0
LINE
8
BLACK
6
CONTINUOUS
62
7
10
0
20
-99
11
0
21
-34
0
LINE
8
BLACK
6
CONTINUOUS
62
7
10
-32.728700000000003
20
-72
11
32.729000000000013
21
-72
0
LINE
8
BLACK
6
CONTINUOUS
62
7
10
35.5
20
-67.199999999999989
11
32.729000000000013
21
-72
0
LINE
8
BLACK
6
CONTINUOUS
62
7
10
-35.5
20
-67.199999999999989
11
-32.728700000000003
21
-72
0
LINE
8
BLACK
6
CONTINUOUS
62
7
10
35.5
20
-61.199999999999989
11
35.5
21
-67.199999999999989
0
LINE
8
BLACK
6
CONTINUOUS
62
7
10
-35.5
20
-61.199999999999989
11
35.5
21
-61.199999999999989
0
LINE
8
BLACK
6
CONTINUOUS
62
7
10
-35.5
20
-61.199999999999989
11
-35.5
21
-67.199999999999989
0
CIRCLE
8
BLACK
6
CONTINUOUS
62
7
10
-23.799999999999997
20
-67
40
2
0
CIRCLE
8
BLACK
6
CONTINUOUS
62
7
10
0
20
-67
40
2
0
CIRCLE
8
BLACK
6
CONTINUOUS
62
7
10
23.799999999999997
20
-67
40
2
0
LINE
8
BLACK
6
CONTINUOUS
62
7
10
-32.728700000000003
20
-85
11
32.729000000000013
21
-85
0
LINE
8
BLACK
6
CONTINUOUS
62
7
10
35.5
20
-89.800000000000011
11
32.729000000000013
21
-85
0
LINE
8
BLACK
6
CONTINUOUS
62
7
10
-35.5
20
-89.800000000000011
11
-32.728700000000003
21
-85
0
LINE
8
BLACK
6
CONTINUOUS
62
7
10
35.5
20
-95.800000000000011
11
35.5
21
-89.800000000000011
0
LINE
8
BLACK
6
CONTINUOUS
62
7
10
-35.5
20
-95.800000000000011
11
35.5
21
-95.800000000000011
0
LINE
8
BLACK
6
CONTINUOUS
62
7
10
-35.5
20
-95.800000000000011
11
-35.5
21
-89.800000000000011
0
CIRCLE
8
BLACK
6
CONTINUOUS
62
7
10
-23.799999999999997
20
-90
40
2
0
CIRCLE
8
BLACK
6
CONTINUOUS
62
7
10
0
20
-90
40
2
0
CIRCLE
8
BLACK
6
CONTINUOUS
62
7
10
23.799999999999997
20
-90
40
2
0
LINE
8
BLACK
6
CONTINUOUS
62
7
10
-32.728700000000003
20
-47.800000000000011
11
32.729000000000013
21
-47.800000000000011
0
LINE
8
BLACK
6
CONTINUOUS
62
7
10
35.5
20
-43
11
32.729000000000013
21
-47.800000000000011
0
LINE
8
BLACK
6
CONTINUOUS
62
7
10
-35.5
20
-43
11
-32.728700000000003
21
-47.800000000000011
0
LINE
8
BLACK
6
CONTINUOUS
62
7
10
35.5
20
-37
11
35.5
21
-43
0
LINE
8
BLACK
6
CONTINUOUS
62
7
10
-35.5
20
-37
11
35.5
21
-37
0
LINE
8
BLACK
6
CONTINUOUS
62
7
10
-35.5
20
-37
11
-35.5
21
-43
0
CIRCLE
8
BLACK
6
CONTINUOUS
62
7
10
-23.799999999999997
20
-42.800000000000011
40
2
0
CIRCLE
8
BLACK
6
CONTINUOUS
62
7
10
0
20
-42.800000000000011
40
2
0
CIRCLE
8
BLACK
6
CONTINUOUS
62
7
10
23.799999999999997
20
-42.800000000000011
40
2
0
LINE
8
BLACK
6
CONTINUOUS
62
7
10
55
20
-90.5
11
-55
21
-90.5
0
LINE
8
BLACK
6
CONTINUOUS
62
7
10
-55
20
-42.5
11
55
21
-42.5
0
LINE
8
BLACK
6
CONTINUOUS
62
7
10
46.5
20
-34
11
46.5
21
-99
0
LINE
8
BLACK
6
CONTINUOUS
62
7
10
-46.5
20
-34
11
-46.5
21
-99
0
LINE
8
BLACK
6
CONTINUOUS
62
7
10
-55
20
-66.5
11
55
21
-66.5
0
LINE
8
BLACK
6
CONTINUOUS
62
7
10
0
20
-99
11
0
21
-34
0
LINE
8
BLACK
6
CONTINUOUS
62
7
10
-32.728700000000003
20
60.949999999999989
11
32.729000000000013
21
60.949999999999989
0
LINE
8
BLACK
6
CONTINUOUS
62
7
10
32.729000000000013
20
60.949999999999989
11
35.5
21
65.75
0
LINE
8
BLACK
6
CONTINUOUS
62
7
10
-35.5
20
65.75
11
-32.728700000000003
21
60.949999999999989
0
LINE
8
BLACK
6
CONTINUOUS
62
7
10
35.5
20
65.75
11
35.5
21
71.75
0
LINE
8
BLACK
6
CONTINUOUS
62
7
10
35.5
20
71.75
11
-35.5
21
71.75
0
LINE
8
BLACK
6
CONTINUOUS
62
7
10
-35.5
20
71.75
11
-35.5
21
65.75
0
CIRCLE
8
BLACK
6
CONTINUOUS
62
7
10
-23.799999999999997
20
65.949999999999989
40
2
0
CIRCLE
8
BLACK
6
CONTINUOUS
62
7
10
0
20
65.949999999999989
40
2
0
CIRCLE
8
BLACK
6
CONTINUOUS
62
7
10
23.799999999999997
20
65.949999999999989
40
2
0
LINE
8
BLACK
6
CONTINUOUS
62
7
10
32.729000000000013
20
47.949999999999989
11
-32.728700000000003
21
47.949999999999989
0
LINE
8
BLACK
6
CONTINUOUS
62
7
10
35.5
20
43.150000000000006
11
32.729000000000013
21
47.949999999999989
0
LINE
8
BLACK
6
CONTINUOUS
62
7
10
-32.728700000000003
20
47.949999999999989
11
-35.5
21
43.150000000000006
0
LINE
8
BLACK
6
CONTINUOUS
62
7
10
35.5
20
37.150000000000006
11
35.5
21
43.150000000000006
0
LINE
8
BLACK
6
CONTINUOUS
62
7
10
-35.5
20
37.150000000000006
11
35.5
21
37.150000000000006
0
LINE
8
BLACK
6
CONTINUOUS
62
7
10
-35.5
20
43.150000000000006
11
-35.5
21
37.150000000000006
0
CIRCLE
8
BLACK
6
CONTINUOUS
62
7
10
-23.799999999999997
20
42.949999999999989
40
2
0
CIRCLE
8
BLACK
6
CONTINUOUS
62
7
10
0
20
42.949999999999989
40
2
0
CIRCLE
8
BLACK
6
CONTINUOUS
62
7
10
23.799999999999997
20
42.949999999999989
40
2
0
LINE
8
BLACK
6
CONTINUOUS
62
7
10
-32.728700000000003
20
85.150000000000006
11
32.729000000000013
21
85.150000000000006
0
LINE
8
BLACK
6
CONTINUOUS
62
7
10
32.729000000000013
20
85.150000000000006
11
35.5
21
89.949999999999989
0
LINE
8
BLACK
6
CONTINUOUS
62
7
10
-35.5
20
89.949999999999989
11
-32.728700000000003
21
85.150000000000006
0
LINE
8
BLACK
6
CONTINUOUS
62
7
10
35.5
20
89.949999999999989
11
35.5
21
95.949999999999989
0
LINE
8
BLACK
6
CONTINUOUS
62
7
10
35.5
20
95.949999999999989
11
-35.5
21
95.949999999999989
0
LINE
8
BLACK
6
CONTINUOUS
62
7
10
-35.5
20
95.949999999999989
11
-35.5
21
89.949999999999989
0
CIRCLE
8
BLACK
6
CONTINUOUS
62
7
10
-23.799999999999997
20
90.150000000000006
40
2
0
CIRCLE
8
BLACK
6
CONTINUOUS
62
7
10
0
20
90.150000000000006
40
2
0
CIRCLE
8
BLACK
6
CONTINUOUS
62
7
10
23.799999999999997
20
90.150000000000006
40
2
0
LINE
8
BLACK
6
CONTINUOUS
62
7
10
55
20
42.449999999999989
11
-55
21
42.449999999999989
0
LINE
8
BLACK
6
CONTINUOUS
62
7
10
-55
20
90.449999999999989
11
55
21
90.449999999999989
0
LINE
8
BLACK
6
CONTINUOUS
62
7
10
46.5
20
98.949999999999989
11
46.5
21
33.949999999999989
0
LINE
8
BLACK
6
CONTINUOUS
62
7
10
-46.5
20
98.949999999999989
11
-46.5
21
33.949999999999989
0
LINE
8
BLACK
6
CONTINUOUS
62
7
10
-55
20
66.449999999999989
11
55
21
66.449999999999989
0
LINE
8
BLACK
6
CONTINUOUS
62
7
10
0
20
33.949999999999989
11
0
21
98.949999999999989
0
LINE
8
BLACK
6
CONTINUOUS
62
7
10
309.05000000000001
20
-98.099999999999994
11
309.05000000000001
21
-36.099999999999994
0
LINE
8
BLACK
6
CONTINUOUS
62
7
10
186.94999999999999
20
-36.099999999999994
11
186.94999999999999
21
-98.099999999999994
0
LINE
8
BLACK
6
CONTINUOUS
62
7
10
325
20
-86.400000000000006
11
309.05000000000001
21
-86.400000000000006
0
CIRCLE
8
BLACK
6
CONTINUOUS
62
7
10
303
20
-92.099999999999994
40
2.75
0
CIRCLE
8
BLACK
6
CONTINUOUS
62
7
10
303
20
-42.099999999999994
40
2.75
0
LINE
8
BLACK
6
CONTINUOUS
62
7
10
173
20
-69.800000000000011
11
173
21
-86.400000000000006
0
LINE
8
BLACK
6
CONTINUOUS
62
7
10
186.94999999999999
20
-36.099999999999994
11
309.05000000000001
21
-36.099999999999994
0
LINE
8
BLACK
6
CONTINUOUS
62
7
10
325
20
-69.800000000000011
11
325
21
-86.400000000000006
0
LINE
8
BLACK
6
CONTINUOUS
62
7
10
248
20
-98.099999999999994
11
248
21
-36.099999999999994
0
LINE
8
BLACK
6
CONTINUOUS
62
7
10
186.94999999999999
20
-98.099999999999994
11
309.05000000000001
21
-98.099999999999994
0
LINE
8
BLACK
6
CONTINUOUS
62
7
10
325
20
-47.800000000000011
11
325
21
-64.400000000000006
0
LINE
8
BLACK
6
CONTINUOUS
62
7
10
173
20
-67.099999999999994
11
325
21
-67.099999999999994
0
CIRCLE
8
BLACK
6
CONTINUOUS
62
7
10
179.5
20
-56.099999999999994
40
3
0
LINE
8
BLACK
6
CONTINUOUS
62
7
10
173
20
-64.400000000000006
11
186.94999999999999
21
-64.400000000000006
0
LINE
8
BLACK
6
CONTINUOUS
62
7
10
309.05000000000001
20
-64.400000000000006
11
325
21
-64.400000000000006
0
CIRCLE
8
BLACK
6
CONTINUOUS
62
7
10
316.5
20
-78.099999999999994
40
3
0
CIRCLE
8
BLACK
6
CONTINUOUS
62
7
10
179.5
20
-78.099999999999994
40
3
0
CIRCLE
8
BLACK
6
CONTINUOUS
62
7
10
193
20
-42.099999999999994
40
2.75
0
LINE
8
BLACK
6
CONTINUOUS
62
7
10
186.94999999999999
20
-69.800000000000011
11
173
21
-69.800000000000011
0
LINE
8
BLACK
6
CONTINUOUS
62
7
10
325
20
-69.800000000000011
11
309.05000000000001
21
-69.800000000000011
0
LINE
8
BLACK
6
CONTINUOUS
62
7
10
309.05000000000001
20
-47.800000000000011
11
325
21
-47.800000000000011
0
LINE
8
BLACK
6
CONTINUOUS
62
7
10
173
20
-47.800000000000011
11
173
21
-64.400000000000006
0
LINE
8
BLACK
6
CONTINUOUS
62
7
10
173
20
-47.800000000000011
11
186.94999999999999
21
-47.800000000000011
0
LINE
8
BLACK
6
CONTINUOUS
62
7
10
186.94999999999999
20
-86.400000000000006
11
173
21
-86.400000000000006
0
CIRCLE
8
BLACK
6
CONTINUOUS
62
7
10
316.5
20
-56.099999999999994
40
3
0
CIRCLE
8
BLACK
6
CONTINUOUS
62
7
10
193
20
-92.099999999999994
40
2.75
0
LINE
8
Layer_1
6
CONTINUOUS
62
5
10
-65
20
-114.5
11
-64.999999989898257
21
110.5
0
LINE
8
Layer_1
6
CONTINUOUS
62
5
10
65.000000010101729
20
110.5
11
65
21
-114.5
0
LINE
8
Layer_1
6
CONTINUOUS
62
5
10
65
20
-114.5
11
-65
21
-114.5
0
LINE
8
Layer_1
6
CONTINUOUS
62
5
10
65.000000010101729
20
110.5
11
-64.999999989898257
21
110.5
0
LINE
8
Layer_1
6
CONTINUOUS
62
7
10
65.000000009854801
20
105
11
-64.999999990145199
21
105
0
LINE
8
Layer_1
6
CONTINUOUS
62
7
10
65.000000000246928
20
-109
11
-64.999999999753072
21
-109
0
LINE
8
Layer_1
6
CONTINUOUS
62
7
10
-59.499999999999993
20
-114.5
11
-59.499999989898257
21
110.5
0
LINE
8
Layer_1
6
CONTINUOUS
62
7
10
59.500000010101729
20
110.50000000049386
11
59.5
21
-114.49999999950614
0
CIRCLE
8
Layer_1
6
CONTINUOUS
62
5
10
-59.499999999753058
20
-109
40
2.75
0
CIRCLE
8
Layer_1
6
CONTINUOUS
62
5
10
59.500000000246928
20
-109
40
2.75
0
CIRCLE
8
Layer_1
6
CONTINUOUS
62
5
10
59.500000009854801
20
105
40
2.75
0
CIRCLE
8
Layer_1
6
CONTINUOUS
62
5
10
-59.499999990145184
20
105
40
2.75
0
ARC
8
Layer_1
6
CONTINUOUS
62
5
10
-46
20
89.950000000000003
40
10
50
90
51
180
0
LINE
8
Layer_1
6
CONTINUOUS
62
5
10
-45.999999999955101
20
99.950000000000003
11
46.000000000044906
21
99.950000000000003
0
ARC
8
Layer_1
6
CONTINUOUS
62
5
10
46
20
89.950000000000003
40
10
50
0
51
90
0
ARC
8
Layer_1
6
CONTINUOUS
62
5
10
-46
20
-90
40
10
50
180
51
270
0
LINE
8
Layer_1
6
CONTINUOUS
62
5
10
46.000000000044906
20
-100
11
-45.999999999955101
21
-100
0
ARC
8
Layer_1
6
CONTINUOUS
62
5
10
46
20
-90
40
10
50
270
51
0
0
LINE
8
Layer_1
6
CONTINUOUS
62
5
10
-56
20
39.414414012115799
11
-56
21
89.950000000897944
0
LINE
8
Layer_1
6
CONTINUOUS
62
5
10
-56.00000000298563
20
-27.085585987884201
11
-56
21
27.08558598788419
0
LINE
8
Layer_1
6
CONTINUOUS
62
5
10
-56
20
-89.999999999102073
11
-56.00000000298563
21
-39.414414012115813
0
LINE
8
Layer_1
6
CONTINUOUS
62
5
10
56.00000000298563
20
-39.414414012115813
11
56
21
-90.000000001795854
0
LINE
8
Layer_1
6
CONTINUOUS
62
5
10
56
20
27.08558598788419
11
56.00000000298563
21
-27.085585987884201
0
LINE
8
Layer_1
6
CONTINUOUS
62
5
10
56
20
89.950000000000003
11
56
21
39.414414012115799
0
LINE
8
Layer_1
6
CONTINUOUS
62
7
10
65.000000006633471
20
33.25
11
-64.999999993366529
21
33.25
0
LINE
8
Layer_1
6
CONTINUOUS
62
7
10
65.000000003647841
20
-33.25
11
-64.999999996352159
21
-33.25
0
CIRCLE
8
Layer_1
6
CONTINUOUS
62
7
10
-59.499999993366515
20
33.25
40
2.75
0
CIRCLE
8
Layer_1
6
CONTINUOUS
62
7
10
-59.499999996352145
20
-33.25
40
2.75
0
CIRCLE
8
Layer_1
6
CONTINUOUS
62
7
10
59.500000003647848
20
-33.25
40
2.75
0
CIRCLE
8
Layer_1
6
CONTINUOUS
62
7
10
59.500000006633478
20
33.25
40
2.75
0
ARC
8
Layer_1
6
CONTINUOUS
62
5
10
-59.499999993366515
20
33.25
40
5.500000000000024
50
324.04943231769892
51
35.950567682301084
0
ARC
8
Layer_1
6
CONTINUOUS
62
5
10
-50.999999999999993
20
39.414414012115799
40
5.0000000000000071
50
180
51
215.95056767715627
0
ARC
8
Layer_1
6
CONTINUOUS
62
5
10
-50.999999999999993
20
27.085585987884194
40
5.0000000000000036
50
144.0494323228437
51
180
0
ARC
8
Layer_1
6
CONTINUOUS
62
5
10
-59.499999996352145
20
-33.25
40
5.5000000000000222
50
324.04943231769892
51
35.950567682301084
0
ARC
8
Layer_1
6
CONTINUOUS
62
5
10
-51.000000002985622
20
-27.085585987884201
40
5.0000000000000071
50
180
51
215.95056767715627
0
ARC
8
Layer_1
6
CONTINUOUS
62
5
10
-51.000000002985622
20
-39.414414012115806
40
5.0000000000000053
50
144.04943232284367
51
180
0
ARC
8
Layer_1
6
CONTINUOUS
62
5
10
59.499999993366515
20
33.25
40
5.5000000000000133
50
144.04943232284384
51
215.95056767715624
0
ARC
8
Layer_1
6
CONTINUOUS
62
5
10
50.999999999999993
20
39.414414012115799
40
5.0000000000000089
50
324.0494323176988
51
0
0
ARC
8
Layer_1
6
CONTINUOUS
62
5
10
50.999999999999993
20
27.085585987884194
40
5.0000000000000071
50
0
51
35.950567682301141
0
ARC
8
Layer_1
6
CONTINUOUS
62
5
10
59.499999996352145
20
-33.25
40
5.5000000000000222
50
144.04943232284373
51
215.95056767715613
0
ARC
8
Layer_1
6
CONTINUOUS
62
5
10
51.000000002985622
20
-27.085585987884201
40
5.0000000000000009
50
324.04943231769892
51
0
0
ARC
8
Layer_1
6
CONTINUOUS
62
5
10
51.000000002985622
20
-39.414414012115806
40
5.0000000000000071
50
0
51
35.950567682301234
0
LINE
8
Layer_1
6
CONTINUOUS
62
1
10
-92.73231994092049
20
72.25
11
35.5
21
72.25
0
LINE
8
Layer_1
6
CONTINUOUS
62
1
10
36
20
65.75
11
36
21
71.75
0
LINE
8
Layer_1
6
CONTINUOUS
62
1
10
35.933023689725836
20
65.50001903245203
11
33.162023689725856
21
60.700019032452005
0
LINE
8
Layer_1
6
CONTINUOUS
62
1
10
-92.73231994092049
20
60.449999999999989
11
32.729000000000006
21
60.449999999999989
0
ARC
8
Layer_1
6
CONTINUOUS
62
1
10
35.5
20
71.75
40
0.5
50
0
51
90
0
ARC
8
Layer_1
6
CONTINUOUS
62
1
10
35.5
20
65.75
40
0.49999999999999606
50
330.00251832097155
51
0
0
ARC
8
Layer_1
6
CONTINUOUS
62
1
10
32.729000000000013
20
60.949999999999989
40
0.5
50
270
51
330.00251832097058
0
LINE
8
Layer_1
6
CONTINUOUS
62
1
10
-36
20
95.949999999999989
11
-36
21
89.949999999999989
0
LINE
8
Layer_1
6
CONTINUOUS
62
1
10
-35.5
20
96.449999999999974
11
35.5
21
96.449999999999989
0
LINE
8
Layer_1
6
CONTINUOUS
62
1
10
36
20
95.949999999999989
11
36
21
89.950000000000003
0
LINE
8
Layer_1
6
CONTINUOUS
62
1
10
-32.728699999999996
20
84.649999999999991
11
32.729000000000021
21
84.650000000000006
0
ARC
8
Layer_1
6
CONTINUOUS
62
1
10
-35.5
20
95.949999999999989
40
0.49999999999998579
50
90
51
180
0
ARC
8
Layer_1
6
CONTINUOUS
62
1
10
35.5
20
95.949999999999989
40
0.5
50
0
51
90
0
LINE
8
Layer_1
6
CONTINUOUS
62
1
10
-35.933011971114652
20
89.699998734260376
11
-33.161711971114656
21
84.899998734260393
0
LINE
8
Layer_1
6
CONTINUOUS
62
1
10
35.933023689725857
20
89.700019032452005
11
33.162023689725856
21
84.900019032452036
0
ARC
8
Layer_1
6
CONTINUOUS
62
1
10
-35.5
20
89.949999999999974
40
0.5
50
180
51
210.0001674771697
0
ARC
8
Layer_1
6
CONTINUOUS
62
1
10
-32.728699999999996
20
85.150000000000006
40
0.50000000000001099
50
210.00016747717069
51
270
0
ARC
8
Layer_1
6
CONTINUOUS
62
1
10
32.729000000000021
20
85.150000000000006
40
0.5
50
270
51
330.00251832097155
0
ARC
8
Layer_1
6
CONTINUOUS
62
1
10
35.500000000000007
20
89.950000000000003
40
0.50000000000002254
50
330.00251832096956
51
0
0
CIRCLE
8
Layer_1
6
CONTINUOUS
62
1
10
-23.799999999999997
20
90.150000000000006
40
2.25
0
CIRCLE
8
Layer_1
6
CONTINUOUS
62
1
10
23.799999999999997
20
90.150000000000006
40
2.25
0
CIRCLE
8
Layer_1
6
CONTINUOUS
62
1
10
0
20
90.150000000000006
40
2.25
0
CIRCLE
8
Layer_1
6
CONTINUOUS
62
1
10
-23.799999999999997
20
42.950000000000003
40
2.25
0
CIRCLE
8
Layer_1
6
CONTINUOUS
62
1
10
0
20
42.949999999999989
40
2.25
0
CIRCLE
8
Layer_1
6
CONTINUOUS
62
1
10
23.799999999999997
20
42.949999999999989
40
2.25
0
LINE
8
Layer_1
6
CONTINUOUS
62
1
10
-32.728700000000011
20
48.449999999999982
11
32.729000000000028
21
48.449999999999989
0
LINE
8
Layer_1
6
CONTINUOUS
62
1
10
-35.933011971114652
20
43.400001265739618
11
-33.16171197111467
21
48.200001265739573
0
LINE
8
Layer_1
6
CONTINUOUS
62
1
10
-36
20
37.150000000000006
11
-36
21
43.150000000000013
0
LINE
8
Layer_1
6
CONTINUOUS
62
1
10
-35.5
20
36.650000000000013
11
35.5
21
36.649999999999999
0
LINE
8
Layer_1
6
CONTINUOUS
62
1
10
36
20
37.149999999999999
11
36
21
43.149999999999999
0
LINE
8
Layer_1
6
CONTINUOUS
62
1
10
35.933023689725836
20
43.39998096754799
11
33.162023689725856
21
48.199980967547965
0
ARC
8
Layer_1
6
CONTINUOUS
62
1
10
-32.728700000000011
20
47.949999999999989
40
0.49999999999999289
50
90
51
149.99983252283212
0
ARC
8
Layer_1
6
CONTINUOUS
62
1
10
-35.5
20
43.15000000000002
40
0.49999999999999778
50
149.9998325228303
51
180
0
ARC
8
Layer_1
6
CONTINUOUS
62
1
10
-35.5
20
37.150000000000006
40
0.5
50
180
51
270
0
ARC
8
Layer_1
6
CONTINUOUS
62
1
10
35.5
20
37.149999999999999
40
0.5
50
270
51
0
0
ARC
8
Layer_1
6
CONTINUOUS
62
1
10
35.499999999999993
20
43.150000000000006
40
0.50000000000000711
50
0
51
29.997481679029441
0
ARC
8
Layer_1
6
CONTINUOUS
62
1
10
32.729000000000028
20
47.949999999999996
40
0.4999999999999899
50
29.997481679028844
51
90
0
ENDSEC
0
EOF
