M48
;DRILL file {KiCad 4.0.7} date Wed Jan 17 20:47:57 2018
;FORMAT={-:-/ absolute / metric / decimal}
FMAT,2
METRIC,TZ
T1C0.800
%
G90
G05
M71
T1
X114.5Y-78.
X114.5Y-80.
X114.5Y-82.
X114.5Y-84.
X114.5Y-125.5
X114.5Y-127.5
X114.5Y-129.5
X114.5Y-131.5
X116.5Y-78.
X116.5Y-80.
X116.5Y-82.
X116.5Y-84.
X116.5Y-125.5
X116.5Y-127.5
X116.5Y-129.5
X116.5Y-131.5
X118.5Y-78.
X118.5Y-80.
X118.5Y-82.
X118.5Y-84.
X118.5Y-125.5
X118.5Y-127.5
X118.5Y-129.5
X118.5Y-131.5
X130.5Y-78.
X130.5Y-80.
X130.5Y-82.
X130.5Y-84.
X130.5Y-125.5
X130.5Y-127.5
X130.5Y-129.5
X130.5Y-131.5
X132.5Y-78.
X132.5Y-80.
X132.5Y-82.
X132.5Y-84.
X132.5Y-125.5
X132.5Y-127.5
X132.5Y-129.5
X132.5Y-131.5
X134.5Y-78.
X134.5Y-80.
X134.5Y-82.
X134.5Y-84.
X134.5Y-125.5
X134.5Y-127.5
X134.5Y-129.5
X134.5Y-131.5
X136.5Y-78.
X136.5Y-80.
X136.5Y-82.
X136.5Y-84.
X136.5Y-125.5
X136.5Y-127.5
X136.5Y-129.5
X136.5Y-131.5
X138.5Y-78.
X138.5Y-80.
X138.5Y-82.
X138.5Y-84.
X138.5Y-125.5
X138.5Y-127.5
X138.5Y-129.5
X138.5Y-131.5
X140.5Y-78.
X140.5Y-80.
X140.5Y-82.
X140.5Y-84.
X140.5Y-125.5
X140.5Y-127.5
X140.5Y-129.5
X140.5Y-131.5
X142.5Y-78.
X142.5Y-80.
X142.5Y-82.
X142.5Y-84.
X142.5Y-125.5
X142.5Y-127.5
X142.5Y-129.5
X142.5Y-131.5
X154.5Y-78.
X154.5Y-80.
X154.5Y-82.
X154.5Y-84.
X154.5Y-125.5
X154.5Y-127.5
X154.5Y-129.5
X154.5Y-131.5
X156.5Y-78.
X156.5Y-80.
X156.5Y-82.
X156.5Y-84.
X156.5Y-125.5
X156.5Y-127.5
X156.5Y-129.5
X156.5Y-131.5
X158.5Y-78.
X158.5Y-80.
X158.5Y-82.
X158.5Y-84.
X158.5Y-125.5
X158.5Y-127.5
X158.5Y-129.5
X158.5Y-131.5
X160.5Y-78.
X160.5Y-80.
X160.5Y-82.
X160.5Y-84.
X160.5Y-125.5
X160.5Y-127.5
X160.5Y-129.5
X160.5Y-131.5
X162.5Y-78.
X162.5Y-80.
X162.5Y-82.
X162.5Y-84.
X162.5Y-125.5
X162.5Y-127.5
X162.5Y-129.5
X162.5Y-131.5
X164.5Y-78.
X164.5Y-80.
X164.5Y-82.
X164.5Y-84.
X164.5Y-125.5
X164.5Y-127.5
X164.5Y-129.5
X164.5Y-131.5
X166.5Y-78.
X166.5Y-80.
X166.5Y-82.
X166.5Y-84.
X166.5Y-125.5
X166.5Y-127.5
X166.5Y-129.5
X166.5Y-131.5
X178.5Y-78.
X178.5Y-80.
X178.5Y-82.
X178.5Y-84.
X178.5Y-125.5
X178.5Y-127.5
X178.5Y-129.5
X178.5Y-131.5
X180.5Y-78.
X180.5Y-80.
X180.5Y-82.
X180.5Y-84.
X180.5Y-125.5
X180.5Y-127.5
X180.5Y-129.5
X180.5Y-131.5
X182.5Y-78.
X182.5Y-80.
X182.5Y-82.
X182.5Y-84.
X182.5Y-125.5
X182.5Y-127.5
X182.5Y-129.5
X182.5Y-131.5
T0
M30
